<?xml version="1.0" encoding="utf-8" standalone="no"?>
<!DOCTYPE svg PUBLIC "-//W3C//DTD SVG 1.1//EN"
  "http://www.w3.org/Graphics/SVG/1.1/DTD/svg11.dtd">
<!-- Created with matplotlib (https://matplotlib.org/) -->
<svg height="1080pt" version="1.1" viewBox="0 0 1440 1080" width="1440pt" xmlns="http://www.w3.org/2000/svg" xmlns:xlink="http://www.w3.org/1999/xlink">
 <defs>
  <style type="text/css">
*{stroke-linecap:butt;stroke-linejoin:round;}
  </style>
 </defs>
 <g id="figure_1">
  <g id="patch_1">
   <path d="M 0 1080 
L 1440 1080 
L 1440 0 
L 0 0 
z
" style="fill:#ffffff;"/>
  </g>
  <g id="axes_1">
   <g id="patch_2">
    <path d="M 78.844414 303.8 
L 1418.4 303.8 
L 1418.4 46.6 
L 78.844414 46.6 
z
" style="fill:#ffffff;"/>
   </g>
   <g id="matplotlib.axis_1">
    <g id="xtick_1">
     <g id="line2d_1">
      <defs>
       <path d="M 0 0 
L 0 3.5 
" id="m6daae67429" style="stroke:#000000;stroke-width:0.8;"/>
      </defs>
      <g>
       <use style="stroke:#000000;stroke-width:0.8;" x="195.327508" xlink:href="#m6daae67429" y="303.8"/>
      </g>
     </g>
     <g id="text_1">
      <!-- 1e+05 -->
      <defs>
       <path d="M 12.40625 8.296875 
L 28.515625 8.296875 
L 28.515625 63.921875 
L 10.984375 60.40625 
L 10.984375 69.390625 
L 28.421875 72.90625 
L 38.28125 72.90625 
L 38.28125 8.296875 
L 54.390625 8.296875 
L 54.390625 0 
L 12.40625 0 
z
" id="DejaVuSans-49"/>
       <path d="M 56.203125 29.59375 
L 56.203125 25.203125 
L 14.890625 25.203125 
Q 15.484375 15.921875 20.484375 11.0625 
Q 25.484375 6.203125 34.421875 6.203125 
Q 39.59375 6.203125 44.453125 7.46875 
Q 49.3125 8.734375 54.109375 11.28125 
L 54.109375 2.78125 
Q 49.265625 0.734375 44.1875 -0.34375 
Q 39.109375 -1.421875 33.890625 -1.421875 
Q 20.796875 -1.421875 13.15625 6.1875 
Q 5.515625 13.8125 5.515625 26.8125 
Q 5.515625 40.234375 12.765625 48.109375 
Q 20.015625 56 32.328125 56 
Q 43.359375 56 49.78125 48.890625 
Q 56.203125 41.796875 56.203125 29.59375 
z
M 47.21875 32.234375 
Q 47.125 39.59375 43.09375 43.984375 
Q 39.0625 48.390625 32.421875 48.390625 
Q 24.90625 48.390625 20.390625 44.140625 
Q 15.875 39.890625 15.1875 32.171875 
z
" id="DejaVuSans-101"/>
       <path d="M 46 62.703125 
L 46 35.5 
L 73.1875 35.5 
L 73.1875 27.203125 
L 46 27.203125 
L 46 0 
L 37.796875 0 
L 37.796875 27.203125 
L 10.59375 27.203125 
L 10.59375 35.5 
L 37.796875 35.5 
L 37.796875 62.703125 
z
" id="DejaVuSans-43"/>
       <path d="M 31.78125 66.40625 
Q 24.171875 66.40625 20.328125 58.90625 
Q 16.5 51.421875 16.5 36.375 
Q 16.5 21.390625 20.328125 13.890625 
Q 24.171875 6.390625 31.78125 6.390625 
Q 39.453125 6.390625 43.28125 13.890625 
Q 47.125 21.390625 47.125 36.375 
Q 47.125 51.421875 43.28125 58.90625 
Q 39.453125 66.40625 31.78125 66.40625 
z
M 31.78125 74.21875 
Q 44.046875 74.21875 50.515625 64.515625 
Q 56.984375 54.828125 56.984375 36.375 
Q 56.984375 17.96875 50.515625 8.265625 
Q 44.046875 -1.421875 31.78125 -1.421875 
Q 19.53125 -1.421875 13.0625 8.265625 
Q 6.59375 17.96875 6.59375 36.375 
Q 6.59375 54.828125 13.0625 64.515625 
Q 19.53125 74.21875 31.78125 74.21875 
z
" id="DejaVuSans-48"/>
       <path d="M 10.796875 72.90625 
L 49.515625 72.90625 
L 49.515625 64.59375 
L 19.828125 64.59375 
L 19.828125 46.734375 
Q 21.96875 47.46875 24.109375 47.828125 
Q 26.265625 48.1875 28.421875 48.1875 
Q 40.625 48.1875 47.75 41.5 
Q 54.890625 34.8125 54.890625 23.390625 
Q 54.890625 11.625 47.5625 5.09375 
Q 40.234375 -1.421875 26.90625 -1.421875 
Q 22.3125 -1.421875 17.546875 -0.640625 
Q 12.796875 0.140625 7.71875 1.703125 
L 7.71875 11.625 
Q 12.109375 9.234375 16.796875 8.0625 
Q 21.484375 6.890625 26.703125 6.890625 
Q 35.15625 6.890625 40.078125 11.328125 
Q 45.015625 15.765625 45.015625 23.390625 
Q 45.015625 31 40.078125 35.4375 
Q 35.15625 39.890625 26.703125 39.890625 
Q 22.75 39.890625 18.8125 39.015625 
Q 14.890625 38.140625 10.796875 36.28125 
z
" id="DejaVuSans-53"/>
      </defs>
      <g transform="translate(161.707196 325.996875)scale(0.2 -0.2)">
       <use xlink:href="#DejaVuSans-49"/>
       <use x="63.623047" xlink:href="#DejaVuSans-101"/>
       <use x="125.146484" xlink:href="#DejaVuSans-43"/>
       <use x="208.935547" xlink:href="#DejaVuSans-48"/>
       <use x="272.558594" xlink:href="#DejaVuSans-53"/>
      </g>
     </g>
    </g>
    <g id="xtick_2">
     <g id="line2d_2">
      <g>
       <use style="stroke:#000000;stroke-width:0.8;" x="311.810603" xlink:href="#m6daae67429" y="303.8"/>
      </g>
     </g>
     <g id="text_2">
      <!-- 2e+05 -->
      <defs>
       <path d="M 19.1875 8.296875 
L 53.609375 8.296875 
L 53.609375 0 
L 7.328125 0 
L 7.328125 8.296875 
Q 12.9375 14.109375 22.625 23.890625 
Q 32.328125 33.6875 34.8125 36.53125 
Q 39.546875 41.84375 41.421875 45.53125 
Q 43.3125 49.21875 43.3125 52.78125 
Q 43.3125 58.59375 39.234375 62.25 
Q 35.15625 65.921875 28.609375 65.921875 
Q 23.96875 65.921875 18.8125 64.3125 
Q 13.671875 62.703125 7.8125 59.421875 
L 7.8125 69.390625 
Q 13.765625 71.78125 18.9375 73 
Q 24.125 74.21875 28.421875 74.21875 
Q 39.75 74.21875 46.484375 68.546875 
Q 53.21875 62.890625 53.21875 53.421875 
Q 53.21875 48.921875 51.53125 44.890625 
Q 49.859375 40.875 45.40625 35.40625 
Q 44.1875 33.984375 37.640625 27.21875 
Q 31.109375 20.453125 19.1875 8.296875 
z
" id="DejaVuSans-50"/>
      </defs>
      <g transform="translate(278.19029 325.996875)scale(0.2 -0.2)">
       <use xlink:href="#DejaVuSans-50"/>
       <use x="63.623047" xlink:href="#DejaVuSans-101"/>
       <use x="125.146484" xlink:href="#DejaVuSans-43"/>
       <use x="208.935547" xlink:href="#DejaVuSans-48"/>
       <use x="272.558594" xlink:href="#DejaVuSans-53"/>
      </g>
     </g>
    </g>
    <g id="xtick_3">
     <g id="line2d_3">
      <g>
       <use style="stroke:#000000;stroke-width:0.8;" x="544.776792" xlink:href="#m6daae67429" y="303.8"/>
      </g>
     </g>
     <g id="text_3">
      <!-- 4e+05 -->
      <defs>
       <path d="M 37.796875 64.3125 
L 12.890625 25.390625 
L 37.796875 25.390625 
z
M 35.203125 72.90625 
L 47.609375 72.90625 
L 47.609375 25.390625 
L 58.015625 25.390625 
L 58.015625 17.1875 
L 47.609375 17.1875 
L 47.609375 0 
L 37.796875 0 
L 37.796875 17.1875 
L 4.890625 17.1875 
L 4.890625 26.703125 
z
" id="DejaVuSans-52"/>
      </defs>
      <g transform="translate(511.156479 325.996875)scale(0.2 -0.2)">
       <use xlink:href="#DejaVuSans-52"/>
       <use x="63.623047" xlink:href="#DejaVuSans-101"/>
       <use x="125.146484" xlink:href="#DejaVuSans-43"/>
       <use x="208.935547" xlink:href="#DejaVuSans-48"/>
       <use x="272.558594" xlink:href="#DejaVuSans-53"/>
      </g>
     </g>
    </g>
    <g id="xtick_4">
     <g id="line2d_4">
      <g>
       <use style="stroke:#000000;stroke-width:0.8;" x="777.742981" xlink:href="#m6daae67429" y="303.8"/>
      </g>
     </g>
     <g id="text_4">
      <!-- 6e+05 -->
      <defs>
       <path d="M 33.015625 40.375 
Q 26.375 40.375 22.484375 35.828125 
Q 18.609375 31.296875 18.609375 23.390625 
Q 18.609375 15.53125 22.484375 10.953125 
Q 26.375 6.390625 33.015625 6.390625 
Q 39.65625 6.390625 43.53125 10.953125 
Q 47.40625 15.53125 47.40625 23.390625 
Q 47.40625 31.296875 43.53125 35.828125 
Q 39.65625 40.375 33.015625 40.375 
z
M 52.59375 71.296875 
L 52.59375 62.3125 
Q 48.875 64.0625 45.09375 64.984375 
Q 41.3125 65.921875 37.59375 65.921875 
Q 27.828125 65.921875 22.671875 59.328125 
Q 17.53125 52.734375 16.796875 39.40625 
Q 19.671875 43.65625 24.015625 45.921875 
Q 28.375 48.1875 33.59375 48.1875 
Q 44.578125 48.1875 50.953125 41.515625 
Q 57.328125 34.859375 57.328125 23.390625 
Q 57.328125 12.15625 50.6875 5.359375 
Q 44.046875 -1.421875 33.015625 -1.421875 
Q 20.359375 -1.421875 13.671875 8.265625 
Q 6.984375 17.96875 6.984375 36.375 
Q 6.984375 53.65625 15.1875 63.9375 
Q 23.390625 74.21875 37.203125 74.21875 
Q 40.921875 74.21875 44.703125 73.484375 
Q 48.484375 72.75 52.59375 71.296875 
z
" id="DejaVuSans-54"/>
      </defs>
      <g transform="translate(744.122668 325.996875)scale(0.2 -0.2)">
       <use xlink:href="#DejaVuSans-54"/>
       <use x="63.623047" xlink:href="#DejaVuSans-101"/>
       <use x="125.146484" xlink:href="#DejaVuSans-43"/>
       <use x="208.935547" xlink:href="#DejaVuSans-48"/>
       <use x="272.558594" xlink:href="#DejaVuSans-53"/>
      </g>
     </g>
    </g>
    <g id="xtick_5">
     <g id="line2d_5">
      <g>
       <use style="stroke:#000000;stroke-width:0.8;" x="1010.709169" xlink:href="#m6daae67429" y="303.8"/>
      </g>
     </g>
     <g id="text_5">
      <!-- 8e+05 -->
      <defs>
       <path d="M 31.78125 34.625 
Q 24.75 34.625 20.71875 30.859375 
Q 16.703125 27.09375 16.703125 20.515625 
Q 16.703125 13.921875 20.71875 10.15625 
Q 24.75 6.390625 31.78125 6.390625 
Q 38.8125 6.390625 42.859375 10.171875 
Q 46.921875 13.96875 46.921875 20.515625 
Q 46.921875 27.09375 42.890625 30.859375 
Q 38.875 34.625 31.78125 34.625 
z
M 21.921875 38.8125 
Q 15.578125 40.375 12.03125 44.71875 
Q 8.5 49.078125 8.5 55.328125 
Q 8.5 64.0625 14.71875 69.140625 
Q 20.953125 74.21875 31.78125 74.21875 
Q 42.671875 74.21875 48.875 69.140625 
Q 55.078125 64.0625 55.078125 55.328125 
Q 55.078125 49.078125 51.53125 44.71875 
Q 48 40.375 41.703125 38.8125 
Q 48.828125 37.15625 52.796875 32.3125 
Q 56.78125 27.484375 56.78125 20.515625 
Q 56.78125 9.90625 50.3125 4.234375 
Q 43.84375 -1.421875 31.78125 -1.421875 
Q 19.734375 -1.421875 13.25 4.234375 
Q 6.78125 9.90625 6.78125 20.515625 
Q 6.78125 27.484375 10.78125 32.3125 
Q 14.796875 37.15625 21.921875 38.8125 
z
M 18.3125 54.390625 
Q 18.3125 48.734375 21.84375 45.5625 
Q 25.390625 42.390625 31.78125 42.390625 
Q 38.140625 42.390625 41.71875 45.5625 
Q 45.3125 48.734375 45.3125 54.390625 
Q 45.3125 60.0625 41.71875 63.234375 
Q 38.140625 66.40625 31.78125 66.40625 
Q 25.390625 66.40625 21.84375 63.234375 
Q 18.3125 60.0625 18.3125 54.390625 
z
" id="DejaVuSans-56"/>
      </defs>
      <g transform="translate(977.088857 325.996875)scale(0.2 -0.2)">
       <use xlink:href="#DejaVuSans-56"/>
       <use x="63.623047" xlink:href="#DejaVuSans-101"/>
       <use x="125.146484" xlink:href="#DejaVuSans-43"/>
       <use x="208.935547" xlink:href="#DejaVuSans-48"/>
       <use x="272.558594" xlink:href="#DejaVuSans-53"/>
      </g>
     </g>
    </g>
    <g id="xtick_6">
     <g id="line2d_6">
      <g>
       <use style="stroke:#000000;stroke-width:0.8;" x="1243.675358" xlink:href="#m6daae67429" y="303.8"/>
      </g>
     </g>
     <g id="text_6">
      <!-- 1e+06 -->
      <g transform="translate(1210.055046 325.996875)scale(0.2 -0.2)">
       <use xlink:href="#DejaVuSans-49"/>
       <use x="63.623047" xlink:href="#DejaVuSans-101"/>
       <use x="125.146484" xlink:href="#DejaVuSans-43"/>
       <use x="208.935547" xlink:href="#DejaVuSans-48"/>
       <use x="272.558594" xlink:href="#DejaVuSans-54"/>
      </g>
     </g>
    </g>
    <g id="text_7">
     <!-- Timestep -->
     <defs>
      <path d="M -0.296875 72.90625 
L 61.375 72.90625 
L 61.375 64.59375 
L 35.5 64.59375 
L 35.5 0 
L 25.59375 0 
L 25.59375 64.59375 
L -0.296875 64.59375 
z
" id="DejaVuSans-84"/>
      <path d="M 9.421875 54.6875 
L 18.40625 54.6875 
L 18.40625 0 
L 9.421875 0 
z
M 9.421875 75.984375 
L 18.40625 75.984375 
L 18.40625 64.59375 
L 9.421875 64.59375 
z
" id="DejaVuSans-105"/>
      <path d="M 52 44.1875 
Q 55.375 50.25 60.0625 53.125 
Q 64.75 56 71.09375 56 
Q 79.640625 56 84.28125 50.015625 
Q 88.921875 44.046875 88.921875 33.015625 
L 88.921875 0 
L 79.890625 0 
L 79.890625 32.71875 
Q 79.890625 40.578125 77.09375 44.375 
Q 74.3125 48.1875 68.609375 48.1875 
Q 61.625 48.1875 57.5625 43.546875 
Q 53.515625 38.921875 53.515625 30.90625 
L 53.515625 0 
L 44.484375 0 
L 44.484375 32.71875 
Q 44.484375 40.625 41.703125 44.40625 
Q 38.921875 48.1875 33.109375 48.1875 
Q 26.21875 48.1875 22.15625 43.53125 
Q 18.109375 38.875 18.109375 30.90625 
L 18.109375 0 
L 9.078125 0 
L 9.078125 54.6875 
L 18.109375 54.6875 
L 18.109375 46.1875 
Q 21.1875 51.21875 25.484375 53.609375 
Q 29.78125 56 35.6875 56 
Q 41.65625 56 45.828125 52.96875 
Q 50 49.953125 52 44.1875 
z
" id="DejaVuSans-109"/>
      <path d="M 44.28125 53.078125 
L 44.28125 44.578125 
Q 40.484375 46.53125 36.375 47.5 
Q 32.28125 48.484375 27.875 48.484375 
Q 21.1875 48.484375 17.84375 46.4375 
Q 14.5 44.390625 14.5 40.28125 
Q 14.5 37.15625 16.890625 35.375 
Q 19.28125 33.59375 26.515625 31.984375 
L 29.59375 31.296875 
Q 39.15625 29.25 43.1875 25.515625 
Q 47.21875 21.78125 47.21875 15.09375 
Q 47.21875 7.46875 41.1875 3.015625 
Q 35.15625 -1.421875 24.609375 -1.421875 
Q 20.21875 -1.421875 15.453125 -0.5625 
Q 10.6875 0.296875 5.421875 2 
L 5.421875 11.28125 
Q 10.40625 8.6875 15.234375 7.390625 
Q 20.0625 6.109375 24.8125 6.109375 
Q 31.15625 6.109375 34.5625 8.28125 
Q 37.984375 10.453125 37.984375 14.40625 
Q 37.984375 18.0625 35.515625 20.015625 
Q 33.0625 21.96875 24.703125 23.78125 
L 21.578125 24.515625 
Q 13.234375 26.265625 9.515625 29.90625 
Q 5.8125 33.546875 5.8125 39.890625 
Q 5.8125 47.609375 11.28125 51.796875 
Q 16.75 56 26.8125 56 
Q 31.78125 56 36.171875 55.265625 
Q 40.578125 54.546875 44.28125 53.078125 
z
" id="DejaVuSans-115"/>
      <path d="M 18.3125 70.21875 
L 18.3125 54.6875 
L 36.8125 54.6875 
L 36.8125 47.703125 
L 18.3125 47.703125 
L 18.3125 18.015625 
Q 18.3125 11.328125 20.140625 9.421875 
Q 21.96875 7.515625 27.59375 7.515625 
L 36.8125 7.515625 
L 36.8125 0 
L 27.59375 0 
Q 17.1875 0 13.234375 3.875 
Q 9.28125 7.765625 9.28125 18.015625 
L 9.28125 47.703125 
L 2.6875 47.703125 
L 2.6875 54.6875 
L 9.28125 54.6875 
L 9.28125 70.21875 
z
" id="DejaVuSans-116"/>
      <path d="M 18.109375 8.203125 
L 18.109375 -20.796875 
L 9.078125 -20.796875 
L 9.078125 54.6875 
L 18.109375 54.6875 
L 18.109375 46.390625 
Q 20.953125 51.265625 25.265625 53.625 
Q 29.59375 56 35.59375 56 
Q 45.5625 56 51.78125 48.09375 
Q 58.015625 40.1875 58.015625 27.296875 
Q 58.015625 14.40625 51.78125 6.484375 
Q 45.5625 -1.421875 35.59375 -1.421875 
Q 29.59375 -1.421875 25.265625 0.953125 
Q 20.953125 3.328125 18.109375 8.203125 
z
M 48.6875 27.296875 
Q 48.6875 37.203125 44.609375 42.84375 
Q 40.53125 48.484375 33.40625 48.484375 
Q 26.265625 48.484375 22.1875 42.84375 
Q 18.109375 37.203125 18.109375 27.296875 
Q 18.109375 17.390625 22.1875 11.75 
Q 26.265625 6.109375 33.40625 6.109375 
Q 40.53125 6.109375 44.609375 11.75 
Q 48.6875 17.390625 48.6875 27.296875 
z
" id="DejaVuSans-112"/>
     </defs>
     <g transform="translate(702.52377 349.353125)scale(0.2 -0.2)">
      <use xlink:href="#DejaVuSans-84"/>
      <use x="57.958984" xlink:href="#DejaVuSans-105"/>
      <use x="85.742188" xlink:href="#DejaVuSans-109"/>
      <use x="183.154297" xlink:href="#DejaVuSans-101"/>
      <use x="244.677734" xlink:href="#DejaVuSans-115"/>
      <use x="296.777344" xlink:href="#DejaVuSans-116"/>
      <use x="335.986328" xlink:href="#DejaVuSans-101"/>
      <use x="397.509766" xlink:href="#DejaVuSans-112"/>
     </g>
    </g>
   </g>
   <g id="matplotlib.axis_2">
    <g id="ytick_1">
     <g id="line2d_7">
      <defs>
       <path d="M 0 0 
L -3.5 0 
" id="m7aab1f8b00" style="stroke:#1f77b4;stroke-width:0.8;"/>
      </defs>
      <g>
       <use style="fill:#1f77b4;stroke:#1f77b4;stroke-width:0.8;" x="78.844414" xlink:href="#m7aab1f8b00" y="287.933766"/>
      </g>
     </g>
     <g id="text_8">
      <!-- 39 -->
      <defs>
       <path d="M 40.578125 39.3125 
Q 47.65625 37.796875 51.625 33 
Q 55.609375 28.21875 55.609375 21.1875 
Q 55.609375 10.40625 48.1875 4.484375 
Q 40.765625 -1.421875 27.09375 -1.421875 
Q 22.515625 -1.421875 17.65625 -0.515625 
Q 12.796875 0.390625 7.625 2.203125 
L 7.625 11.71875 
Q 11.71875 9.328125 16.59375 8.109375 
Q 21.484375 6.890625 26.8125 6.890625 
Q 36.078125 6.890625 40.9375 10.546875 
Q 45.796875 14.203125 45.796875 21.1875 
Q 45.796875 27.640625 41.28125 31.265625 
Q 36.765625 34.90625 28.71875 34.90625 
L 20.21875 34.90625 
L 20.21875 43.015625 
L 29.109375 43.015625 
Q 36.375 43.015625 40.234375 45.921875 
Q 44.09375 48.828125 44.09375 54.296875 
Q 44.09375 59.90625 40.109375 62.90625 
Q 36.140625 65.921875 28.71875 65.921875 
Q 24.65625 65.921875 20.015625 65.03125 
Q 15.375 64.15625 9.8125 62.3125 
L 9.8125 71.09375 
Q 15.4375 72.65625 20.34375 73.4375 
Q 25.25 74.21875 29.59375 74.21875 
Q 40.828125 74.21875 47.359375 69.109375 
Q 53.90625 64.015625 53.90625 55.328125 
Q 53.90625 49.265625 50.4375 45.09375 
Q 46.96875 40.921875 40.578125 39.3125 
z
" id="DejaVuSans-51"/>
       <path d="M 10.984375 1.515625 
L 10.984375 10.5 
Q 14.703125 8.734375 18.5 7.8125 
Q 22.3125 6.890625 25.984375 6.890625 
Q 35.75 6.890625 40.890625 13.453125 
Q 46.046875 20.015625 46.78125 33.40625 
Q 43.953125 29.203125 39.59375 26.953125 
Q 35.25 24.703125 29.984375 24.703125 
Q 19.046875 24.703125 12.671875 31.3125 
Q 6.296875 37.9375 6.296875 49.421875 
Q 6.296875 60.640625 12.9375 67.421875 
Q 19.578125 74.21875 30.609375 74.21875 
Q 43.265625 74.21875 49.921875 64.515625 
Q 56.59375 54.828125 56.59375 36.375 
Q 56.59375 19.140625 48.40625 8.859375 
Q 40.234375 -1.421875 26.421875 -1.421875 
Q 22.703125 -1.421875 18.890625 -0.6875 
Q 15.09375 0.046875 10.984375 1.515625 
z
M 30.609375 32.421875 
Q 37.25 32.421875 41.125 36.953125 
Q 45.015625 41.5 45.015625 49.421875 
Q 45.015625 57.28125 41.125 61.84375 
Q 37.25 66.40625 30.609375 66.40625 
Q 23.96875 66.40625 20.09375 61.84375 
Q 16.21875 57.28125 16.21875 49.421875 
Q 16.21875 41.5 20.09375 36.953125 
Q 23.96875 32.421875 30.609375 32.421875 
z
" id="DejaVuSans-57"/>
      </defs>
      <g style="fill:#1f77b4;" transform="translate(52.756914 293.632594)scale(0.15 -0.15)">
       <use xlink:href="#DejaVuSans-51"/>
       <use x="63.623047" xlink:href="#DejaVuSans-57"/>
      </g>
     </g>
    </g>
    <g id="ytick_2">
     <g id="line2d_8">
      <g>
       <use style="fill:#1f77b4;stroke:#1f77b4;stroke-width:0.8;" x="78.844414" xlink:href="#m7aab1f8b00" y="250.355844"/>
      </g>
     </g>
     <g id="text_9">
      <!-- 40 -->
      <g style="fill:#1f77b4;" transform="translate(52.756914 256.054672)scale(0.15 -0.15)">
       <use xlink:href="#DejaVuSans-52"/>
       <use x="63.623047" xlink:href="#DejaVuSans-48"/>
      </g>
     </g>
    </g>
    <g id="ytick_3">
     <g id="line2d_9">
      <g>
       <use style="fill:#1f77b4;stroke:#1f77b4;stroke-width:0.8;" x="78.844414" xlink:href="#m7aab1f8b00" y="212.777922"/>
      </g>
     </g>
     <g id="text_10">
      <!-- 41 -->
      <g style="fill:#1f77b4;" transform="translate(52.756914 218.47675)scale(0.15 -0.15)">
       <use xlink:href="#DejaVuSans-52"/>
       <use x="63.623047" xlink:href="#DejaVuSans-49"/>
      </g>
     </g>
    </g>
    <g id="ytick_4">
     <g id="line2d_10">
      <g>
       <use style="fill:#1f77b4;stroke:#1f77b4;stroke-width:0.8;" x="78.844414" xlink:href="#m7aab1f8b00" y="175.2"/>
      </g>
     </g>
     <g id="text_11">
      <!-- 42 -->
      <g style="fill:#1f77b4;" transform="translate(52.756914 180.898828)scale(0.15 -0.15)">
       <use xlink:href="#DejaVuSans-52"/>
       <use x="63.623047" xlink:href="#DejaVuSans-50"/>
      </g>
     </g>
    </g>
    <g id="ytick_5">
     <g id="line2d_11">
      <g>
       <use style="fill:#1f77b4;stroke:#1f77b4;stroke-width:0.8;" x="78.844414" xlink:href="#m7aab1f8b00" y="137.622078"/>
      </g>
     </g>
     <g id="text_12">
      <!-- 43 -->
      <g style="fill:#1f77b4;" transform="translate(52.756914 143.320906)scale(0.15 -0.15)">
       <use xlink:href="#DejaVuSans-52"/>
       <use x="63.623047" xlink:href="#DejaVuSans-51"/>
      </g>
     </g>
    </g>
    <g id="ytick_6">
     <g id="line2d_12">
      <g>
       <use style="fill:#1f77b4;stroke:#1f77b4;stroke-width:0.8;" x="78.844414" xlink:href="#m7aab1f8b00" y="100.044156"/>
      </g>
     </g>
     <g id="text_13">
      <!-- 44 -->
      <g style="fill:#1f77b4;" transform="translate(52.756914 105.742984)scale(0.15 -0.15)">
       <use xlink:href="#DejaVuSans-52"/>
       <use x="63.623047" xlink:href="#DejaVuSans-52"/>
      </g>
     </g>
    </g>
    <g id="ytick_7">
     <g id="line2d_13">
      <g>
       <use style="fill:#1f77b4;stroke:#1f77b4;stroke-width:0.8;" x="78.844414" xlink:href="#m7aab1f8b00" y="62.466234"/>
      </g>
     </g>
     <g id="text_14">
      <!-- 45 -->
      <g style="fill:#1f77b4;" transform="translate(52.756914 68.165062)scale(0.15 -0.15)">
       <use xlink:href="#DejaVuSans-52"/>
       <use x="63.623047" xlink:href="#DejaVuSans-53"/>
      </g>
     </g>
    </g>
    <g id="text_15">
     <!-- Reward -->
     <defs>
      <path d="M 44.390625 34.1875 
Q 47.5625 33.109375 50.5625 29.59375 
Q 53.5625 26.078125 56.59375 19.921875 
L 66.609375 0 
L 56 0 
L 46.6875 18.703125 
Q 43.0625 26.03125 39.671875 28.421875 
Q 36.28125 30.8125 30.421875 30.8125 
L 19.671875 30.8125 
L 19.671875 0 
L 9.8125 0 
L 9.8125 72.90625 
L 32.078125 72.90625 
Q 44.578125 72.90625 50.734375 67.671875 
Q 56.890625 62.453125 56.890625 51.90625 
Q 56.890625 45.015625 53.6875 40.46875 
Q 50.484375 35.9375 44.390625 34.1875 
z
M 19.671875 64.796875 
L 19.671875 38.921875 
L 32.078125 38.921875 
Q 39.203125 38.921875 42.84375 42.21875 
Q 46.484375 45.515625 46.484375 51.90625 
Q 46.484375 58.296875 42.84375 61.546875 
Q 39.203125 64.796875 32.078125 64.796875 
z
" id="DejaVuSans-82"/>
      <path d="M 4.203125 54.6875 
L 13.1875 54.6875 
L 24.421875 12.015625 
L 35.59375 54.6875 
L 46.1875 54.6875 
L 57.421875 12.015625 
L 68.609375 54.6875 
L 77.59375 54.6875 
L 63.28125 0 
L 52.6875 0 
L 40.921875 44.828125 
L 29.109375 0 
L 18.5 0 
z
" id="DejaVuSans-119"/>
      <path d="M 34.28125 27.484375 
Q 23.390625 27.484375 19.1875 25 
Q 14.984375 22.515625 14.984375 16.5 
Q 14.984375 11.71875 18.140625 8.90625 
Q 21.296875 6.109375 26.703125 6.109375 
Q 34.1875 6.109375 38.703125 11.40625 
Q 43.21875 16.703125 43.21875 25.484375 
L 43.21875 27.484375 
z
M 52.203125 31.203125 
L 52.203125 0 
L 43.21875 0 
L 43.21875 8.296875 
Q 40.140625 3.328125 35.546875 0.953125 
Q 30.953125 -1.421875 24.3125 -1.421875 
Q 15.921875 -1.421875 10.953125 3.296875 
Q 6 8.015625 6 15.921875 
Q 6 25.140625 12.171875 29.828125 
Q 18.359375 34.515625 30.609375 34.515625 
L 43.21875 34.515625 
L 43.21875 35.40625 
Q 43.21875 41.609375 39.140625 45 
Q 35.0625 48.390625 27.6875 48.390625 
Q 23 48.390625 18.546875 47.265625 
Q 14.109375 46.140625 10.015625 43.890625 
L 10.015625 52.203125 
Q 14.9375 54.109375 19.578125 55.046875 
Q 24.21875 56 28.609375 56 
Q 40.484375 56 46.34375 49.84375 
Q 52.203125 43.703125 52.203125 31.203125 
z
" id="DejaVuSans-97"/>
      <path d="M 41.109375 46.296875 
Q 39.59375 47.171875 37.8125 47.578125 
Q 36.03125 48 33.890625 48 
Q 26.265625 48 22.1875 43.046875 
Q 18.109375 38.09375 18.109375 28.8125 
L 18.109375 0 
L 9.078125 0 
L 9.078125 54.6875 
L 18.109375 54.6875 
L 18.109375 46.1875 
Q 20.953125 51.171875 25.484375 53.578125 
Q 30.03125 56 36.53125 56 
Q 37.453125 56 38.578125 55.875 
Q 39.703125 55.765625 41.0625 55.515625 
z
" id="DejaVuSans-114"/>
      <path d="M 45.40625 46.390625 
L 45.40625 75.984375 
L 54.390625 75.984375 
L 54.390625 0 
L 45.40625 0 
L 45.40625 8.203125 
Q 42.578125 3.328125 38.25 0.953125 
Q 33.9375 -1.421875 27.875 -1.421875 
Q 17.96875 -1.421875 11.734375 6.484375 
Q 5.515625 14.40625 5.515625 27.296875 
Q 5.515625 40.1875 11.734375 48.09375 
Q 17.96875 56 27.875 56 
Q 33.9375 56 38.25 53.625 
Q 42.578125 51.265625 45.40625 46.390625 
z
M 14.796875 27.296875 
Q 14.796875 17.390625 18.875 11.75 
Q 22.953125 6.109375 30.078125 6.109375 
Q 37.203125 6.109375 41.296875 11.75 
Q 45.40625 17.390625 45.40625 27.296875 
Q 45.40625 37.203125 41.296875 42.84375 
Q 37.203125 48.484375 30.078125 48.484375 
Q 22.953125 48.484375 18.875 42.84375 
Q 14.796875 37.203125 14.796875 27.296875 
z
" id="DejaVuSans-100"/>
     </defs>
     <g style="fill:#1f77b4;" transform="translate(44.597539 212.442188)rotate(-90)scale(0.2 -0.2)">
      <use xlink:href="#DejaVuSans-82"/>
      <use x="64.982422" xlink:href="#DejaVuSans-101"/>
      <use x="126.505859" xlink:href="#DejaVuSans-119"/>
      <use x="208.292969" xlink:href="#DejaVuSans-97"/>
      <use x="269.572266" xlink:href="#DejaVuSans-114"/>
      <use x="308.935547" xlink:href="#DejaVuSans-100"/>
     </g>
    </g>
   </g>
   <g id="line2d_14">
    <path clip-path="url(#pcc6e1775a7)" d="M 78.844414 292.109091 
L 80.288804 100.044156 
L 80.475177 100.044156 
L 80.708144 129.271429 
L 80.80133 127.601299 
L 80.94111 125.096104 
L 80.964406 126.348701 
L 81.278911 148.895455 
L 81.407042 162.674026 
L 81.465284 157.45487 
L 81.640008 141.797403 
L 81.674953 146.181494 
L 82.024403 176.452597 
L 82.117589 181.880519 
L 82.45539 231.566883 
L 82.571873 233.654545 
L 82.583521 232.819481 
L 82.804839 216.953247 
L 82.851433 221.128571 
L 83.037805 237.82987 
L 83.119344 236.368506 
L 83.270772 233.654545 
L 83.28242 234.48961 
L 83.725056 274.155195 
L 83.736704 275.407792 
L 83.760001 269.144805 
L 84.237581 168.519481 
L 85.134501 108.394805 
L 85.169446 109.021104 
L 85.472302 116.327922 
L 85.600434 120.920779 
L 85.612082 118.833117 
L 85.8334 79.167532 
L 85.891641 87.518182 
L 86.287684 160.168831 
L 86.299332 162.674026 
L 86.392519 159.333766 
L 86.532298 154.323377 
L 86.578892 155.993506 
L 86.811858 167.684416 
L 87.464163 233.654545 
L 87.522405 232.610714 
L 87.697129 229.479221 
L 87.732074 230.731818 
L 88.151413 241.796429 
L 88.163062 242.005195 
L 88.186358 240.752597 
L 88.396028 229.479221 
L 88.419324 233.237013 
L 88.628994 267.057143 
L 88.710532 262.673052 
L 89.980198 200.251948 
L 90.026791 200.251948 
L 90.492724 229.479221 
L 90.58591 224.468831 
L 90.72569 216.953247 
L 90.807228 218.41461 
L 90.958656 221.128571 
L 90.970304 220.293506 
L 91.27316 191.275 
L 91.529423 166.849351 
L 91.890521 166.849351 
L 92.123487 145.972727 
L 92.193377 148.477922 
L 92.356453 154.323377 
L 92.368101 152.026948 
L 92.752496 96.703896 
L 92.962165 89.188312 
L 93.055352 87.518182 
L 93.067 88.353247 
L 93.521284 125.096104 
L 93.61447 120.085714 
L 93.75425 112.57013 
L 93.800843 115.075325 
L 94.068755 135.325649 
L 94.220183 154.323377 
L 94.255127 146.807792 
L 94.557984 104.219481 
L 94.686115 104.219481 
L 94.919081 100.044156 
L 94.965674 100.879221 
L 95.152047 104.219481 
L 95.198641 103.384416 
L 95.385013 100.044156 
L 95.419958 101.296753 
L 95.61798 108.394805 
L 95.641276 105.88961 
L 96.083912 58.290909 
L 96.16545 61.213636 
L 96.363471 71.651948 
L 96.677976 93.989935 
L 97.015777 100.044156 
L 97.027425 99.209091 
L 97.248743 83.342857 
L 97.306985 86.474351 
L 97.481709 95.868831 
L 97.516654 92.737338 
L 97.714675 74.992208 
L 97.796214 76.453571 
L 97.95929 81.046429 
L 98.180608 116.745455 
L 98.262146 113.822727 
L 98.518409 108.394805 
L 98.64654 108.394805 
L 99.100824 169.980844 
L 99.112472 171.024675 
L 99.182362 168.519481 
L 99.345439 162.674026 
L 99.380384 165.179221 
L 99.636646 190.857468 
L 100.044337 250.355844 
L 100.277303 246.180519 
L 100.288952 247.224351 
L 100.51027 267.057143 
L 100.545215 260.794156 
L 100.871367 183.968182 
L 100.976202 150.148052 
L 100.976202 150.148052 
" style="fill:none;stroke:#1f77b4;stroke-linecap:square;stroke-width:1.5;"/>
   </g>
   <g id="patch_3">
    <path d="M 78.844414 303.8 
L 78.844414 46.6 
" style="fill:none;stroke:#000000;stroke-linecap:square;stroke-linejoin:miter;stroke-width:0.8;"/>
   </g>
   <g id="patch_4">
    <path d="M 1418.4 303.8 
L 1418.4 46.6 
" style="fill:none;stroke:#000000;stroke-linecap:square;stroke-linejoin:miter;stroke-width:0.8;"/>
   </g>
   <g id="patch_5">
    <path d="M 78.844414 303.8 
L 1418.4 303.8 
" style="fill:none;stroke:#000000;stroke-linecap:square;stroke-linejoin:miter;stroke-width:0.8;"/>
   </g>
   <g id="patch_6">
    <path d="M 78.844414 46.6 
L 1418.4 46.6 
" style="fill:none;stroke:#000000;stroke-linecap:square;stroke-linejoin:miter;stroke-width:0.8;"/>
   </g>
   <g id="text_16">
    <!-- Avg. Last 10 Rewards: 42.0 || env_2_0 || Elapsed Time: 0:07:55 -->
    <defs>
     <path d="M 34.1875 63.1875 
L 20.796875 26.90625 
L 47.609375 26.90625 
z
M 28.609375 72.90625 
L 39.796875 72.90625 
L 67.578125 0 
L 57.328125 0 
L 50.6875 18.703125 
L 17.828125 18.703125 
L 11.1875 0 
L 0.78125 0 
z
" id="DejaVuSans-65"/>
     <path d="M 2.984375 54.6875 
L 12.5 54.6875 
L 29.59375 8.796875 
L 46.6875 54.6875 
L 56.203125 54.6875 
L 35.6875 0 
L 23.484375 0 
z
" id="DejaVuSans-118"/>
     <path d="M 45.40625 27.984375 
Q 45.40625 37.75 41.375 43.109375 
Q 37.359375 48.484375 30.078125 48.484375 
Q 22.859375 48.484375 18.828125 43.109375 
Q 14.796875 37.75 14.796875 27.984375 
Q 14.796875 18.265625 18.828125 12.890625 
Q 22.859375 7.515625 30.078125 7.515625 
Q 37.359375 7.515625 41.375 12.890625 
Q 45.40625 18.265625 45.40625 27.984375 
z
M 54.390625 6.78125 
Q 54.390625 -7.171875 48.1875 -13.984375 
Q 42 -20.796875 29.203125 -20.796875 
Q 24.46875 -20.796875 20.265625 -20.09375 
Q 16.0625 -19.390625 12.109375 -17.921875 
L 12.109375 -9.1875 
Q 16.0625 -11.328125 19.921875 -12.34375 
Q 23.78125 -13.375 27.78125 -13.375 
Q 36.625 -13.375 41.015625 -8.765625 
Q 45.40625 -4.15625 45.40625 5.171875 
L 45.40625 9.625 
Q 42.625 4.78125 38.28125 2.390625 
Q 33.9375 0 27.875 0 
Q 17.828125 0 11.671875 7.65625 
Q 5.515625 15.328125 5.515625 27.984375 
Q 5.515625 40.671875 11.671875 48.328125 
Q 17.828125 56 27.875 56 
Q 33.9375 56 38.28125 53.609375 
Q 42.625 51.21875 45.40625 46.390625 
L 45.40625 54.6875 
L 54.390625 54.6875 
z
" id="DejaVuSans-103"/>
     <path d="M 10.6875 12.40625 
L 21 12.40625 
L 21 0 
L 10.6875 0 
z
" id="DejaVuSans-46"/>
     <path id="DejaVuSans-32"/>
     <path d="M 9.8125 72.90625 
L 19.671875 72.90625 
L 19.671875 8.296875 
L 55.171875 8.296875 
L 55.171875 0 
L 9.8125 0 
z
" id="DejaVuSans-76"/>
     <path d="M 11.71875 12.40625 
L 22.015625 12.40625 
L 22.015625 0 
L 11.71875 0 
z
M 11.71875 51.703125 
L 22.015625 51.703125 
L 22.015625 39.3125 
L 11.71875 39.3125 
z
" id="DejaVuSans-58"/>
     <path d="M 21 76.421875 
L 21 -23.578125 
L 12.703125 -23.578125 
L 12.703125 76.421875 
z
" id="DejaVuSans-124"/>
     <path d="M 54.890625 33.015625 
L 54.890625 0 
L 45.90625 0 
L 45.90625 32.71875 
Q 45.90625 40.484375 42.875 44.328125 
Q 39.84375 48.1875 33.796875 48.1875 
Q 26.515625 48.1875 22.3125 43.546875 
Q 18.109375 38.921875 18.109375 30.90625 
L 18.109375 0 
L 9.078125 0 
L 9.078125 54.6875 
L 18.109375 54.6875 
L 18.109375 46.1875 
Q 21.34375 51.125 25.703125 53.5625 
Q 30.078125 56 35.796875 56 
Q 45.21875 56 50.046875 50.171875 
Q 54.890625 44.34375 54.890625 33.015625 
z
" id="DejaVuSans-110"/>
     <path d="M 50.984375 -16.609375 
L 50.984375 -23.578125 
L -0.984375 -23.578125 
L -0.984375 -16.609375 
z
" id="DejaVuSans-95"/>
     <path d="M 9.8125 72.90625 
L 55.90625 72.90625 
L 55.90625 64.59375 
L 19.671875 64.59375 
L 19.671875 43.015625 
L 54.390625 43.015625 
L 54.390625 34.71875 
L 19.671875 34.71875 
L 19.671875 8.296875 
L 56.78125 8.296875 
L 56.78125 0 
L 9.8125 0 
z
" id="DejaVuSans-69"/>
     <path d="M 9.421875 75.984375 
L 18.40625 75.984375 
L 18.40625 0 
L 9.421875 0 
z
" id="DejaVuSans-108"/>
     <path d="M 8.203125 72.90625 
L 55.078125 72.90625 
L 55.078125 68.703125 
L 28.609375 0 
L 18.3125 0 
L 43.21875 64.59375 
L 8.203125 64.59375 
z
" id="DejaVuSans-55"/>
    </defs>
    <g transform="translate(370.142207 40.6)scale(0.24 -0.24)">
     <use xlink:href="#DejaVuSans-65"/>
     <use x="62.533203" xlink:href="#DejaVuSans-118"/>
     <use x="121.712891" xlink:href="#DejaVuSans-103"/>
     <use x="185.189453" xlink:href="#DejaVuSans-46"/>
     <use x="216.976562" xlink:href="#DejaVuSans-32"/>
     <use x="248.763672" xlink:href="#DejaVuSans-76"/>
     <use x="304.476562" xlink:href="#DejaVuSans-97"/>
     <use x="365.755859" xlink:href="#DejaVuSans-115"/>
     <use x="417.855469" xlink:href="#DejaVuSans-116"/>
     <use x="457.064453" xlink:href="#DejaVuSans-32"/>
     <use x="488.851562" xlink:href="#DejaVuSans-49"/>
     <use x="552.474609" xlink:href="#DejaVuSans-48"/>
     <use x="616.097656" xlink:href="#DejaVuSans-32"/>
     <use x="647.884766" xlink:href="#DejaVuSans-82"/>
     <use x="712.867188" xlink:href="#DejaVuSans-101"/>
     <use x="774.390625" xlink:href="#DejaVuSans-119"/>
     <use x="856.177734" xlink:href="#DejaVuSans-97"/>
     <use x="917.457031" xlink:href="#DejaVuSans-114"/>
     <use x="956.820312" xlink:href="#DejaVuSans-100"/>
     <use x="1020.296875" xlink:href="#DejaVuSans-115"/>
     <use x="1072.396484" xlink:href="#DejaVuSans-58"/>
     <use x="1106.087891" xlink:href="#DejaVuSans-32"/>
     <use x="1137.875" xlink:href="#DejaVuSans-52"/>
     <use x="1201.498047" xlink:href="#DejaVuSans-50"/>
     <use x="1265.121094" xlink:href="#DejaVuSans-46"/>
     <use x="1296.908203" xlink:href="#DejaVuSans-48"/>
     <use x="1360.53125" xlink:href="#DejaVuSans-32"/>
     <use x="1392.318359" xlink:href="#DejaVuSans-124"/>
     <use x="1426.009766" xlink:href="#DejaVuSans-124"/>
     <use x="1459.701172" xlink:href="#DejaVuSans-32"/>
     <use x="1491.488281" xlink:href="#DejaVuSans-101"/>
     <use x="1553.011719" xlink:href="#DejaVuSans-110"/>
     <use x="1616.390625" xlink:href="#DejaVuSans-118"/>
     <use x="1675.570312" xlink:href="#DejaVuSans-95"/>
     <use x="1725.570312" xlink:href="#DejaVuSans-50"/>
     <use x="1789.193359" xlink:href="#DejaVuSans-95"/>
     <use x="1839.193359" xlink:href="#DejaVuSans-48"/>
     <use x="1902.816406" xlink:href="#DejaVuSans-32"/>
     <use x="1934.603516" xlink:href="#DejaVuSans-124"/>
     <use x="1968.294922" xlink:href="#DejaVuSans-124"/>
     <use x="2001.986328" xlink:href="#DejaVuSans-32"/>
     <use x="2033.773438" xlink:href="#DejaVuSans-69"/>
     <use x="2096.957031" xlink:href="#DejaVuSans-108"/>
     <use x="2124.740234" xlink:href="#DejaVuSans-97"/>
     <use x="2186.019531" xlink:href="#DejaVuSans-112"/>
     <use x="2249.496094" xlink:href="#DejaVuSans-115"/>
     <use x="2301.595703" xlink:href="#DejaVuSans-101"/>
     <use x="2363.119141" xlink:href="#DejaVuSans-100"/>
     <use x="2426.595703" xlink:href="#DejaVuSans-32"/>
     <use x="2458.382812" xlink:href="#DejaVuSans-84"/>
     <use x="2516.341797" xlink:href="#DejaVuSans-105"/>
     <use x="2544.125" xlink:href="#DejaVuSans-109"/>
     <use x="2641.537109" xlink:href="#DejaVuSans-101"/>
     <use x="2703.060547" xlink:href="#DejaVuSans-58"/>
     <use x="2736.751953" xlink:href="#DejaVuSans-32"/>
     <use x="2768.539062" xlink:href="#DejaVuSans-48"/>
     <use x="2832.162109" xlink:href="#DejaVuSans-58"/>
     <use x="2865.853516" xlink:href="#DejaVuSans-48"/>
     <use x="2929.476562" xlink:href="#DejaVuSans-55"/>
     <use x="2993.099609" xlink:href="#DejaVuSans-58"/>
     <use x="3026.791016" xlink:href="#DejaVuSans-53"/>
     <use x="3090.414062" xlink:href="#DejaVuSans-53"/>
    </g>
   </g>
   <g id="legend_1">
    <g id="patch_7">
     <path d="M 1304.036719 296.3 
L 1407.9 296.3 
Q 1410.9 296.3 1410.9 293.3 
L 1410.9 272.782813 
Q 1410.9 269.782813 1407.9 269.782813 
L 1304.036719 269.782813 
Q 1301.036719 269.782813 1301.036719 272.782813 
L 1301.036719 293.3 
Q 1301.036719 296.3 1304.036719 296.3 
z
" style="fill:#ffffff;opacity:0.8;stroke:#cccccc;stroke-linejoin:miter;"/>
    </g>
    <g id="line2d_15">
     <path d="M 1307.036719 281.930469 
L 1337.036719 281.930469 
" style="fill:none;stroke:#1f77b4;stroke-linecap:square;stroke-width:1.5;"/>
    </g>
    <g id="line2d_16"/>
    <g id="text_17">
     <!-- Reward -->
     <g transform="translate(1349.036719 287.180469)scale(0.15 -0.15)">
      <use xlink:href="#DejaVuSans-82"/>
      <use x="64.982422" xlink:href="#DejaVuSans-101"/>
      <use x="126.505859" xlink:href="#DejaVuSans-119"/>
      <use x="208.292969" xlink:href="#DejaVuSans-97"/>
      <use x="269.572266" xlink:href="#DejaVuSans-114"/>
      <use x="308.935547" xlink:href="#DejaVuSans-100"/>
     </g>
    </g>
   </g>
  </g>
  <g id="axes_2">
   <g id="patch_8">
    <path d="M 78.844414 656.6 
L 1418.4 656.6 
L 1418.4 399.4 
L 78.844414 399.4 
z
" style="fill:#ffffff;"/>
   </g>
   <g id="matplotlib.axis_3">
    <g id="xtick_7">
     <g id="line2d_17">
      <g>
       <use style="stroke:#000000;stroke-width:0.8;" x="195.327508" xlink:href="#m6daae67429" y="656.6"/>
      </g>
     </g>
     <g id="text_18">
      <!-- 1e+05 -->
      <g transform="translate(161.707196 678.796875)scale(0.2 -0.2)">
       <use xlink:href="#DejaVuSans-49"/>
       <use x="63.623047" xlink:href="#DejaVuSans-101"/>
       <use x="125.146484" xlink:href="#DejaVuSans-43"/>
       <use x="208.935547" xlink:href="#DejaVuSans-48"/>
       <use x="272.558594" xlink:href="#DejaVuSans-53"/>
      </g>
     </g>
    </g>
    <g id="xtick_8">
     <g id="line2d_18">
      <g>
       <use style="stroke:#000000;stroke-width:0.8;" x="311.810603" xlink:href="#m6daae67429" y="656.6"/>
      </g>
     </g>
     <g id="text_19">
      <!-- 2e+05 -->
      <g transform="translate(278.19029 678.796875)scale(0.2 -0.2)">
       <use xlink:href="#DejaVuSans-50"/>
       <use x="63.623047" xlink:href="#DejaVuSans-101"/>
       <use x="125.146484" xlink:href="#DejaVuSans-43"/>
       <use x="208.935547" xlink:href="#DejaVuSans-48"/>
       <use x="272.558594" xlink:href="#DejaVuSans-53"/>
      </g>
     </g>
    </g>
    <g id="xtick_9">
     <g id="line2d_19">
      <g>
       <use style="stroke:#000000;stroke-width:0.8;" x="544.776792" xlink:href="#m6daae67429" y="656.6"/>
      </g>
     </g>
     <g id="text_20">
      <!-- 4e+05 -->
      <g transform="translate(511.156479 678.796875)scale(0.2 -0.2)">
       <use xlink:href="#DejaVuSans-52"/>
       <use x="63.623047" xlink:href="#DejaVuSans-101"/>
       <use x="125.146484" xlink:href="#DejaVuSans-43"/>
       <use x="208.935547" xlink:href="#DejaVuSans-48"/>
       <use x="272.558594" xlink:href="#DejaVuSans-53"/>
      </g>
     </g>
    </g>
    <g id="xtick_10">
     <g id="line2d_20">
      <g>
       <use style="stroke:#000000;stroke-width:0.8;" x="777.742981" xlink:href="#m6daae67429" y="656.6"/>
      </g>
     </g>
     <g id="text_21">
      <!-- 6e+05 -->
      <g transform="translate(744.122668 678.796875)scale(0.2 -0.2)">
       <use xlink:href="#DejaVuSans-54"/>
       <use x="63.623047" xlink:href="#DejaVuSans-101"/>
       <use x="125.146484" xlink:href="#DejaVuSans-43"/>
       <use x="208.935547" xlink:href="#DejaVuSans-48"/>
       <use x="272.558594" xlink:href="#DejaVuSans-53"/>
      </g>
     </g>
    </g>
    <g id="xtick_11">
     <g id="line2d_21">
      <g>
       <use style="stroke:#000000;stroke-width:0.8;" x="1010.709169" xlink:href="#m6daae67429" y="656.6"/>
      </g>
     </g>
     <g id="text_22">
      <!-- 8e+05 -->
      <g transform="translate(977.088857 678.796875)scale(0.2 -0.2)">
       <use xlink:href="#DejaVuSans-56"/>
       <use x="63.623047" xlink:href="#DejaVuSans-101"/>
       <use x="125.146484" xlink:href="#DejaVuSans-43"/>
       <use x="208.935547" xlink:href="#DejaVuSans-48"/>
       <use x="272.558594" xlink:href="#DejaVuSans-53"/>
      </g>
     </g>
    </g>
    <g id="xtick_12">
     <g id="line2d_22">
      <g>
       <use style="stroke:#000000;stroke-width:0.8;" x="1243.675358" xlink:href="#m6daae67429" y="656.6"/>
      </g>
     </g>
     <g id="text_23">
      <!-- 1e+06 -->
      <g transform="translate(1210.055046 678.796875)scale(0.2 -0.2)">
       <use xlink:href="#DejaVuSans-49"/>
       <use x="63.623047" xlink:href="#DejaVuSans-101"/>
       <use x="125.146484" xlink:href="#DejaVuSans-43"/>
       <use x="208.935547" xlink:href="#DejaVuSans-48"/>
       <use x="272.558594" xlink:href="#DejaVuSans-54"/>
      </g>
     </g>
    </g>
    <g id="text_24">
     <!-- Timestep -->
     <g transform="translate(702.52377 702.153125)scale(0.2 -0.2)">
      <use xlink:href="#DejaVuSans-84"/>
      <use x="57.958984" xlink:href="#DejaVuSans-105"/>
      <use x="85.742188" xlink:href="#DejaVuSans-109"/>
      <use x="183.154297" xlink:href="#DejaVuSans-101"/>
      <use x="244.677734" xlink:href="#DejaVuSans-115"/>
      <use x="296.777344" xlink:href="#DejaVuSans-116"/>
      <use x="335.986328" xlink:href="#DejaVuSans-101"/>
      <use x="397.509766" xlink:href="#DejaVuSans-112"/>
     </g>
    </g>
   </g>
   <g id="matplotlib.axis_4">
    <g id="ytick_8">
     <g id="line2d_23">
      <defs>
       <path d="M 0 0 
L -3.5 0 
" id="md95757358b" style="stroke:#ff0000;stroke-width:0.8;"/>
      </defs>
      <g>
       <use style="fill:#ff0000;stroke:#ff0000;stroke-width:0.8;" x="78.844414" xlink:href="#md95757358b" y="486.691135"/>
      </g>
     </g>
     <g id="text_25">
      <!-- $\mathdefault{10^{0}}$ -->
      <g style="fill:#ff0000;" transform="translate(45.444414 492.389963)scale(0.15 -0.15)">
       <use transform="translate(0 0.765625)" xlink:href="#DejaVuSans-49"/>
       <use transform="translate(63.623047 0.765625)" xlink:href="#DejaVuSans-48"/>
       <use transform="translate(128.203125 39.046875)scale(0.7)" xlink:href="#DejaVuSans-48"/>
      </g>
     </g>
    </g>
    <g id="ytick_9">
     <g id="line2d_24">
      <defs>
       <path d="M 0 0 
L -2 0 
" id="m31e636d23c" style="stroke:#000000;stroke-width:0.6;"/>
      </defs>
      <g>
       <use style="stroke:#000000;stroke-width:0.6;" x="78.844414" xlink:href="#m31e636d23c" y="648.139148"/>
      </g>
     </g>
    </g>
    <g id="ytick_10">
     <g id="line2d_25">
      <g>
       <use style="stroke:#000000;stroke-width:0.6;" x="78.844414" xlink:href="#m31e636d23c" y="607.465609"/>
      </g>
     </g>
    </g>
    <g id="ytick_11">
     <g id="line2d_26">
      <g>
       <use style="stroke:#000000;stroke-width:0.6;" x="78.844414" xlink:href="#m31e636d23c" y="578.607273"/>
      </g>
     </g>
    </g>
    <g id="ytick_12">
     <g id="line2d_27">
      <g>
       <use style="stroke:#000000;stroke-width:0.6;" x="78.844414" xlink:href="#m31e636d23c" y="556.22301"/>
      </g>
     </g>
    </g>
    <g id="ytick_13">
     <g id="line2d_28">
      <g>
       <use style="stroke:#000000;stroke-width:0.6;" x="78.844414" xlink:href="#m31e636d23c" y="537.933734"/>
      </g>
     </g>
    </g>
    <g id="ytick_14">
     <g id="line2d_29">
      <g>
       <use style="stroke:#000000;stroke-width:0.6;" x="78.844414" xlink:href="#m31e636d23c" y="522.470372"/>
      </g>
     </g>
    </g>
    <g id="ytick_15">
     <g id="line2d_30">
      <g>
       <use style="stroke:#000000;stroke-width:0.6;" x="78.844414" xlink:href="#m31e636d23c" y="509.075399"/>
      </g>
     </g>
    </g>
    <g id="ytick_16">
     <g id="line2d_31">
      <g>
       <use style="stroke:#000000;stroke-width:0.6;" x="78.844414" xlink:href="#m31e636d23c" y="497.260195"/>
      </g>
     </g>
    </g>
    <g id="ytick_17">
     <g id="line2d_32">
      <g>
       <use style="stroke:#000000;stroke-width:0.6;" x="78.844414" xlink:href="#m31e636d23c" y="417.159261"/>
      </g>
     </g>
    </g>
    <g id="text_26">
     <!-- Avg .Temporal Difference -->
     <defs>
      <path d="M 30.609375 48.390625 
Q 23.390625 48.390625 19.1875 42.75 
Q 14.984375 37.109375 14.984375 27.296875 
Q 14.984375 17.484375 19.15625 11.84375 
Q 23.34375 6.203125 30.609375 6.203125 
Q 37.796875 6.203125 41.984375 11.859375 
Q 46.1875 17.53125 46.1875 27.296875 
Q 46.1875 37.015625 41.984375 42.703125 
Q 37.796875 48.390625 30.609375 48.390625 
z
M 30.609375 56 
Q 42.328125 56 49.015625 48.375 
Q 55.71875 40.765625 55.71875 27.296875 
Q 55.71875 13.875 49.015625 6.21875 
Q 42.328125 -1.421875 30.609375 -1.421875 
Q 18.84375 -1.421875 12.171875 6.21875 
Q 5.515625 13.875 5.515625 27.296875 
Q 5.515625 40.765625 12.171875 48.375 
Q 18.84375 56 30.609375 56 
z
" id="DejaVuSans-111"/>
      <path d="M 19.671875 64.796875 
L 19.671875 8.109375 
L 31.59375 8.109375 
Q 46.6875 8.109375 53.6875 14.9375 
Q 60.6875 21.78125 60.6875 36.53125 
Q 60.6875 51.171875 53.6875 57.984375 
Q 46.6875 64.796875 31.59375 64.796875 
z
M 9.8125 72.90625 
L 30.078125 72.90625 
Q 51.265625 72.90625 61.171875 64.09375 
Q 71.09375 55.28125 71.09375 36.53125 
Q 71.09375 17.671875 61.125 8.828125 
Q 51.171875 0 30.078125 0 
L 9.8125 0 
z
" id="DejaVuSans-68"/>
      <path d="M 37.109375 75.984375 
L 37.109375 68.5 
L 28.515625 68.5 
Q 23.6875 68.5 21.796875 66.546875 
Q 19.921875 64.59375 19.921875 59.515625 
L 19.921875 54.6875 
L 34.71875 54.6875 
L 34.71875 47.703125 
L 19.921875 47.703125 
L 19.921875 0 
L 10.890625 0 
L 10.890625 47.703125 
L 2.296875 47.703125 
L 2.296875 54.6875 
L 10.890625 54.6875 
L 10.890625 58.5 
Q 10.890625 67.625 15.140625 71.796875 
Q 19.390625 75.984375 28.609375 75.984375 
z
" id="DejaVuSans-102"/>
      <path d="M 48.78125 52.59375 
L 48.78125 44.1875 
Q 44.96875 46.296875 41.140625 47.34375 
Q 37.3125 48.390625 33.40625 48.390625 
Q 24.65625 48.390625 19.8125 42.84375 
Q 14.984375 37.3125 14.984375 27.296875 
Q 14.984375 17.28125 19.8125 11.734375 
Q 24.65625 6.203125 33.40625 6.203125 
Q 37.3125 6.203125 41.140625 7.25 
Q 44.96875 8.296875 48.78125 10.40625 
L 48.78125 2.09375 
Q 45.015625 0.34375 40.984375 -0.53125 
Q 36.96875 -1.421875 32.421875 -1.421875 
Q 20.0625 -1.421875 12.78125 6.34375 
Q 5.515625 14.109375 5.515625 27.296875 
Q 5.515625 40.671875 12.859375 48.328125 
Q 20.21875 56 33.015625 56 
Q 37.15625 56 41.109375 55.140625 
Q 45.0625 54.296875 48.78125 52.59375 
z
" id="DejaVuSans-99"/>
     </defs>
     <g style="fill:#ff0000;" transform="translate(37.285039 653.540625)rotate(-90)scale(0.2 -0.2)">
      <use xlink:href="#DejaVuSans-65"/>
      <use x="62.533203" xlink:href="#DejaVuSans-118"/>
      <use x="121.712891" xlink:href="#DejaVuSans-103"/>
      <use x="185.189453" xlink:href="#DejaVuSans-32"/>
      <use x="216.976562" xlink:href="#DejaVuSans-46"/>
      <use x="248.763672" xlink:href="#DejaVuSans-84"/>
      <use x="292.847656" xlink:href="#DejaVuSans-101"/>
      <use x="354.371094" xlink:href="#DejaVuSans-109"/>
      <use x="451.783203" xlink:href="#DejaVuSans-112"/>
      <use x="515.259766" xlink:href="#DejaVuSans-111"/>
      <use x="576.441406" xlink:href="#DejaVuSans-114"/>
      <use x="617.554688" xlink:href="#DejaVuSans-97"/>
      <use x="678.833984" xlink:href="#DejaVuSans-108"/>
      <use x="706.617188" xlink:href="#DejaVuSans-32"/>
      <use x="738.404297" xlink:href="#DejaVuSans-68"/>
      <use x="815.40625" xlink:href="#DejaVuSans-105"/>
      <use x="843.189453" xlink:href="#DejaVuSans-102"/>
      <use x="878.394531" xlink:href="#DejaVuSans-102"/>
      <use x="913.599609" xlink:href="#DejaVuSans-101"/>
      <use x="975.123047" xlink:href="#DejaVuSans-114"/>
      <use x="1013.986328" xlink:href="#DejaVuSans-101"/>
      <use x="1075.509766" xlink:href="#DejaVuSans-110"/>
      <use x="1138.888672" xlink:href="#DejaVuSans-99"/>
      <use x="1193.869141" xlink:href="#DejaVuSans-101"/>
     </g>
    </g>
   </g>
   <g id="line2d_33">
    <path clip-path="url(#pd287dd3e33)" d="M 78.844414 411.090909 
L 79.193863 643.254218 
L 79.310346 615.392971 
L 79.42683 614.322895 
L 79.659796 635.042426 
L 79.776279 642.065727 
L 79.892762 637.568798 
L 80.009245 644.909091 
L 80.242211 579.004169 
L 80.358694 557.697897 
L 80.475177 585.624534 
L 80.708144 568.614013 
L 80.824627 582.145484 
L 80.94111 582.147781 
L 81.174076 587.11223 
L 81.407042 555.532787 
L 81.872975 565.062902 
L 81.989458 556.400688 
L 82.105941 566.676069 
L 82.222424 562.337941 
L 82.338907 570.385554 
L 82.45539 542.016441 
L 82.571873 541.898693 
L 82.688356 540.884812 
L 82.804839 549.286481 
L 82.921322 540.905937 
L 83.037805 546.336527 
L 83.154289 543.04669 
L 83.270772 550.653279 
L 83.387255 545.662429 
L 83.503738 546.372019 
L 83.736704 525.467083 
L 83.853187 529.931079 
L 84.086153 528.464592 
L 84.202636 533.761995 
L 84.31912 532.595928 
L 84.435603 528.784598 
L 84.668569 532.585019 
L 84.901535 519.1632 
L 85.018018 515.908832 
L 85.134501 520.403042 
L 85.367467 509.235246 
L 85.48395 516.363681 
L 85.716917 513.821478 
L 85.8334 521.154633 
L 86.066366 498.123947 
L 86.299332 509.055391 
L 86.415815 506.206231 
L 86.532298 511.377353 
L 86.648781 507.297706 
L 86.765264 512.199568 
L 86.881748 507.402845 
L 86.998231 512.559569 
L 87.114714 500.147933 
L 87.231197 501.275217 
L 87.34768 504.085618 
L 87.464163 501.965017 
L 87.580646 496.017482 
L 87.697129 506.037557 
L 87.813612 497.787534 
L 88.046579 503.114892 
L 88.279545 498.285235 
L 88.396028 494.086962 
L 88.512511 498.575733 
L 88.628994 498.46814 
L 88.86196 489.250365 
L 89.094926 498.941354 
L 89.211409 486.942448 
L 89.327893 502.867856 
L 89.560859 481.761243 
L 89.677342 482.96934 
L 89.910308 496.256262 
L 90.026791 494.89467 
L 90.143274 497.06725 
L 90.259757 490.046931 
L 90.37624 491.778714 
L 90.492724 498.75815 
L 90.609207 495.020785 
L 90.72569 502.123952 
L 91.075139 483.527454 
L 91.191622 487.794142 
L 91.424588 478.058574 
L 91.541071 484.308743 
L 91.657554 477.432123 
L 91.774038 487.466946 
L 91.890521 473.00995 
L 92.007004 478.123114 
L 92.123487 473.610282 
L 92.23997 473.948848 
L 92.356453 469.70056 
L 92.472936 475.893534 
L 92.589419 471.96969 
L 92.822385 478.229393 
L 92.938868 474.209483 
L 93.055352 474.95144 
L 93.171835 470.026409 
L 93.288318 471.387116 
L 93.404801 471.003263 
L 93.521284 475.210839 
L 93.637767 471.105798 
L 93.75425 479.196128 
L 93.870733 468.624453 
L 93.987216 468.787937 
L 94.103699 471.643278 
L 94.220183 460.96753 
L 94.336666 461.104451 
L 94.453149 459.806927 
L 94.569632 463.889887 
L 94.686115 457.056101 
L 94.802598 469.734251 
L 94.919081 463.117023 
L 95.152047 473.425626 
L 95.385013 458.858192 
L 95.501497 467.671796 
L 95.61798 466.988606 
L 95.850946 470.353271 
L 95.967429 463.247462 
L 96.083912 469.522738 
L 96.200395 464.01283 
L 96.433361 471.935609 
L 96.549844 460.093482 
L 96.782811 467.31952 
L 97.13226 461.81342 
L 97.248743 460.282733 
L 97.365226 476.422035 
L 97.481709 474.706282 
L 97.598192 469.164156 
L 97.714675 471.419336 
L 97.831158 468.485906 
L 97.947642 471.078609 
L 98.180608 466.577688 
L 98.297091 467.5381 
L 98.413574 471.932166 
L 98.530057 464.038857 
L 98.64654 470.804653 
L 98.763023 463.244187 
L 98.879506 463.529794 
L 98.995989 462.667281 
L 99.112472 464.128642 
L 99.228956 459.852861 
L 99.345439 467.822857 
L 99.461922 456.891922 
L 99.694888 467.846312 
L 99.811371 455.928097 
L 99.927854 457.596256 
L 100.044337 454.135539 
L 100.16082 462.010789 
L 100.277303 458.563804 
L 100.393787 460.933221 
L 100.626753 449.67403 
L 100.743236 462.002858 
L 100.859719 458.984239 
L 101.092685 459.351178 
L 101.209168 457.669655 
L 101.325651 459.311053 
L 101.442134 451.827243 
L 101.675101 463.364065 
L 101.791584 457.933577 
L 101.908067 459.534905 
L 102.02455 455.728095 
L 102.02455 455.728095 
" style="fill:none;stroke:#ff0000;stroke-linecap:square;stroke-width:1.5;"/>
   </g>
   <g id="patch_9">
    <path d="M 78.844414 656.6 
L 78.844414 399.4 
" style="fill:none;stroke:#000000;stroke-linecap:square;stroke-linejoin:miter;stroke-width:0.8;"/>
   </g>
   <g id="patch_10">
    <path d="M 1418.4 656.6 
L 1418.4 399.4 
" style="fill:none;stroke:#000000;stroke-linecap:square;stroke-linejoin:miter;stroke-width:0.8;"/>
   </g>
   <g id="patch_11">
    <path d="M 78.844414 656.6 
L 1418.4 656.6 
" style="fill:none;stroke:#000000;stroke-linecap:square;stroke-linejoin:miter;stroke-width:0.8;"/>
   </g>
   <g id="patch_12">
    <path d="M 78.844414 399.4 
L 1418.4 399.4 
" style="fill:none;stroke:#000000;stroke-linecap:square;stroke-linejoin:miter;stroke-width:0.8;"/>
   </g>
   <g id="text_27">
    <!-- Loss vs Timestep -->
    <g transform="translate(646.001582 393.4)scale(0.24 -0.24)">
     <use xlink:href="#DejaVuSans-76"/>
     <use x="53.962891" xlink:href="#DejaVuSans-111"/>
     <use x="115.144531" xlink:href="#DejaVuSans-115"/>
     <use x="167.244141" xlink:href="#DejaVuSans-115"/>
     <use x="219.34375" xlink:href="#DejaVuSans-32"/>
     <use x="251.130859" xlink:href="#DejaVuSans-118"/>
     <use x="310.310547" xlink:href="#DejaVuSans-115"/>
     <use x="362.410156" xlink:href="#DejaVuSans-32"/>
     <use x="394.197266" xlink:href="#DejaVuSans-84"/>
     <use x="452.15625" xlink:href="#DejaVuSans-105"/>
     <use x="479.939453" xlink:href="#DejaVuSans-109"/>
     <use x="577.351562" xlink:href="#DejaVuSans-101"/>
     <use x="638.875" xlink:href="#DejaVuSans-115"/>
     <use x="690.974609" xlink:href="#DejaVuSans-116"/>
     <use x="730.183594" xlink:href="#DejaVuSans-101"/>
     <use x="791.707031" xlink:href="#DejaVuSans-112"/>
    </g>
   </g>
   <g id="legend_2">
    <g id="patch_13">
     <path d="M 1301.873438 649.1 
L 1407.9 649.1 
Q 1410.9 649.1 1410.9 646.1 
L 1410.9 625.582813 
Q 1410.9 622.582813 1407.9 622.582813 
L 1301.873438 622.582813 
Q 1298.873438 622.582813 1298.873438 625.582813 
L 1298.873438 646.1 
Q 1298.873438 649.1 1301.873438 649.1 
z
" style="fill:#ffffff;opacity:0.8;stroke:#cccccc;stroke-linejoin:miter;"/>
    </g>
    <g id="line2d_34">
     <path d="M 1304.873438 634.730469 
L 1334.873438 634.730469 
" style="fill:none;stroke:#ff0000;stroke-linecap:square;stroke-width:1.5;"/>
    </g>
    <g id="line2d_35"/>
    <g id="text_28">
     <!-- Avg. TD -->
     <g transform="translate(1346.873438 639.980469)scale(0.15 -0.15)">
      <use xlink:href="#DejaVuSans-65"/>
      <use x="62.533203" xlink:href="#DejaVuSans-118"/>
      <use x="121.712891" xlink:href="#DejaVuSans-103"/>
      <use x="185.189453" xlink:href="#DejaVuSans-46"/>
      <use x="216.976562" xlink:href="#DejaVuSans-32"/>
      <use x="248.763672" xlink:href="#DejaVuSans-84"/>
      <use x="309.847656" xlink:href="#DejaVuSans-68"/>
     </g>
    </g>
   </g>
  </g>
  <g id="axes_3">
   <g id="patch_14">
    <path d="M 78.844414 1009.4 
L 1418.4 1009.4 
L 1418.4 752.2 
L 78.844414 752.2 
z
" style="fill:#ffffff;"/>
   </g>
   <g id="matplotlib.axis_5">
    <g id="xtick_13">
     <g id="line2d_36">
      <g>
       <use style="stroke:#000000;stroke-width:0.8;" x="195.327508" xlink:href="#m6daae67429" y="1009.4"/>
      </g>
     </g>
     <g id="text_29">
      <!-- 1e+05 -->
      <g transform="translate(161.707196 1031.596875)scale(0.2 -0.2)">
       <use xlink:href="#DejaVuSans-49"/>
       <use x="63.623047" xlink:href="#DejaVuSans-101"/>
       <use x="125.146484" xlink:href="#DejaVuSans-43"/>
       <use x="208.935547" xlink:href="#DejaVuSans-48"/>
       <use x="272.558594" xlink:href="#DejaVuSans-53"/>
      </g>
     </g>
    </g>
    <g id="xtick_14">
     <g id="line2d_37">
      <g>
       <use style="stroke:#000000;stroke-width:0.8;" x="311.810603" xlink:href="#m6daae67429" y="1009.4"/>
      </g>
     </g>
     <g id="text_30">
      <!-- 2e+05 -->
      <g transform="translate(278.19029 1031.596875)scale(0.2 -0.2)">
       <use xlink:href="#DejaVuSans-50"/>
       <use x="63.623047" xlink:href="#DejaVuSans-101"/>
       <use x="125.146484" xlink:href="#DejaVuSans-43"/>
       <use x="208.935547" xlink:href="#DejaVuSans-48"/>
       <use x="272.558594" xlink:href="#DejaVuSans-53"/>
      </g>
     </g>
    </g>
    <g id="xtick_15">
     <g id="line2d_38">
      <g>
       <use style="stroke:#000000;stroke-width:0.8;" x="544.776792" xlink:href="#m6daae67429" y="1009.4"/>
      </g>
     </g>
     <g id="text_31">
      <!-- 4e+05 -->
      <g transform="translate(511.156479 1031.596875)scale(0.2 -0.2)">
       <use xlink:href="#DejaVuSans-52"/>
       <use x="63.623047" xlink:href="#DejaVuSans-101"/>
       <use x="125.146484" xlink:href="#DejaVuSans-43"/>
       <use x="208.935547" xlink:href="#DejaVuSans-48"/>
       <use x="272.558594" xlink:href="#DejaVuSans-53"/>
      </g>
     </g>
    </g>
    <g id="xtick_16">
     <g id="line2d_39">
      <g>
       <use style="stroke:#000000;stroke-width:0.8;" x="777.742981" xlink:href="#m6daae67429" y="1009.4"/>
      </g>
     </g>
     <g id="text_32">
      <!-- 6e+05 -->
      <g transform="translate(744.122668 1031.596875)scale(0.2 -0.2)">
       <use xlink:href="#DejaVuSans-54"/>
       <use x="63.623047" xlink:href="#DejaVuSans-101"/>
       <use x="125.146484" xlink:href="#DejaVuSans-43"/>
       <use x="208.935547" xlink:href="#DejaVuSans-48"/>
       <use x="272.558594" xlink:href="#DejaVuSans-53"/>
      </g>
     </g>
    </g>
    <g id="xtick_17">
     <g id="line2d_40">
      <g>
       <use style="stroke:#000000;stroke-width:0.8;" x="1010.709169" xlink:href="#m6daae67429" y="1009.4"/>
      </g>
     </g>
     <g id="text_33">
      <!-- 8e+05 -->
      <g transform="translate(977.088857 1031.596875)scale(0.2 -0.2)">
       <use xlink:href="#DejaVuSans-56"/>
       <use x="63.623047" xlink:href="#DejaVuSans-101"/>
       <use x="125.146484" xlink:href="#DejaVuSans-43"/>
       <use x="208.935547" xlink:href="#DejaVuSans-48"/>
       <use x="272.558594" xlink:href="#DejaVuSans-53"/>
      </g>
     </g>
    </g>
    <g id="xtick_18">
     <g id="line2d_41">
      <g>
       <use style="stroke:#000000;stroke-width:0.8;" x="1243.675358" xlink:href="#m6daae67429" y="1009.4"/>
      </g>
     </g>
     <g id="text_34">
      <!-- 1e+06 -->
      <g transform="translate(1210.055046 1031.596875)scale(0.2 -0.2)">
       <use xlink:href="#DejaVuSans-49"/>
       <use x="63.623047" xlink:href="#DejaVuSans-101"/>
       <use x="125.146484" xlink:href="#DejaVuSans-43"/>
       <use x="208.935547" xlink:href="#DejaVuSans-48"/>
       <use x="272.558594" xlink:href="#DejaVuSans-54"/>
      </g>
     </g>
    </g>
    <g id="text_35">
     <!-- Timestep -->
     <g transform="translate(702.52377 1054.953125)scale(0.2 -0.2)">
      <use xlink:href="#DejaVuSans-84"/>
      <use x="57.958984" xlink:href="#DejaVuSans-105"/>
      <use x="85.742188" xlink:href="#DejaVuSans-109"/>
      <use x="183.154297" xlink:href="#DejaVuSans-101"/>
      <use x="244.677734" xlink:href="#DejaVuSans-115"/>
      <use x="296.777344" xlink:href="#DejaVuSans-116"/>
      <use x="335.986328" xlink:href="#DejaVuSans-101"/>
      <use x="397.509766" xlink:href="#DejaVuSans-112"/>
     </g>
    </g>
   </g>
   <g id="matplotlib.axis_6">
    <g id="ytick_18">
     <g id="line2d_42">
      <defs>
       <path d="M 0 0 
L -3.5 0 
" id="m3ce58acd62" style="stroke:#000000;stroke-width:0.8;"/>
      </defs>
      <g>
       <use style="stroke:#000000;stroke-width:0.8;" x="78.844414" xlink:href="#m3ce58acd62" y="1009.4"/>
      </g>
     </g>
     <g id="text_36">
      <!-- 0.0 -->
      <g transform="translate(47.989727 1015.098828)scale(0.15 -0.15)">
       <use xlink:href="#DejaVuSans-48"/>
       <use x="63.623047" xlink:href="#DejaVuSans-46"/>
       <use x="95.410156" xlink:href="#DejaVuSans-48"/>
      </g>
     </g>
    </g>
    <g id="ytick_19">
     <g id="line2d_43">
      <g>
       <use style="stroke:#000000;stroke-width:0.8;" x="78.844414" xlink:href="#m3ce58acd62" y="957.96"/>
      </g>
     </g>
     <g id="text_37">
      <!-- 0.2 -->
      <g transform="translate(47.989727 963.658828)scale(0.15 -0.15)">
       <use xlink:href="#DejaVuSans-48"/>
       <use x="63.623047" xlink:href="#DejaVuSans-46"/>
       <use x="95.410156" xlink:href="#DejaVuSans-50"/>
      </g>
     </g>
    </g>
    <g id="ytick_20">
     <g id="line2d_44">
      <g>
       <use style="stroke:#000000;stroke-width:0.8;" x="78.844414" xlink:href="#m3ce58acd62" y="906.52"/>
      </g>
     </g>
     <g id="text_38">
      <!-- 0.4 -->
      <g transform="translate(47.989727 912.218828)scale(0.15 -0.15)">
       <use xlink:href="#DejaVuSans-48"/>
       <use x="63.623047" xlink:href="#DejaVuSans-46"/>
       <use x="95.410156" xlink:href="#DejaVuSans-52"/>
      </g>
     </g>
    </g>
    <g id="ytick_21">
     <g id="line2d_45">
      <g>
       <use style="stroke:#000000;stroke-width:0.8;" x="78.844414" xlink:href="#m3ce58acd62" y="855.08"/>
      </g>
     </g>
     <g id="text_39">
      <!-- 0.6 -->
      <g transform="translate(47.989727 860.778828)scale(0.15 -0.15)">
       <use xlink:href="#DejaVuSans-48"/>
       <use x="63.623047" xlink:href="#DejaVuSans-46"/>
       <use x="95.410156" xlink:href="#DejaVuSans-54"/>
      </g>
     </g>
    </g>
    <g id="ytick_22">
     <g id="line2d_46">
      <g>
       <use style="stroke:#000000;stroke-width:0.8;" x="78.844414" xlink:href="#m3ce58acd62" y="803.64"/>
      </g>
     </g>
     <g id="text_40">
      <!-- 0.8 -->
      <g transform="translate(47.989727 809.338828)scale(0.15 -0.15)">
       <use xlink:href="#DejaVuSans-48"/>
       <use x="63.623047" xlink:href="#DejaVuSans-46"/>
       <use x="95.410156" xlink:href="#DejaVuSans-56"/>
      </g>
     </g>
    </g>
    <g id="ytick_23">
     <g id="line2d_47">
      <g>
       <use style="stroke:#000000;stroke-width:0.8;" x="78.844414" xlink:href="#m3ce58acd62" y="752.2"/>
      </g>
     </g>
     <g id="text_41">
      <!-- 1.0 -->
      <g transform="translate(47.989727 757.898828)scale(0.15 -0.15)">
       <use xlink:href="#DejaVuSans-49"/>
       <use x="63.623047" xlink:href="#DejaVuSans-46"/>
       <use x="95.410156" xlink:href="#DejaVuSans-48"/>
      </g>
     </g>
    </g>
   </g>
   <g id="patch_15">
    <path d="M 78.844414 1009.4 
L 78.844414 752.2 
" style="fill:none;stroke:#000000;stroke-linecap:square;stroke-linejoin:miter;stroke-width:0.8;"/>
   </g>
   <g id="patch_16">
    <path d="M 1418.4 1009.4 
L 1418.4 752.2 
" style="fill:none;stroke:#000000;stroke-linecap:square;stroke-linejoin:miter;stroke-width:0.8;"/>
   </g>
   <g id="patch_17">
    <path d="M 78.844414 1009.4 
L 1418.4 1009.4 
" style="fill:none;stroke:#000000;stroke-linecap:square;stroke-linejoin:miter;stroke-width:0.8;"/>
   </g>
   <g id="patch_18">
    <path d="M 78.844414 752.2 
L 1418.4 752.2 
" style="fill:none;stroke:#000000;stroke-linecap:square;stroke-linejoin:miter;stroke-width:0.8;"/>
   </g>
   <g id="text_42">
    <!-- Action Selection Frequency(%) vs Timestep -->
    <defs>
     <path d="M 53.515625 70.515625 
L 53.515625 60.890625 
Q 47.90625 63.578125 42.921875 64.890625 
Q 37.9375 66.21875 33.296875 66.21875 
Q 25.25 66.21875 20.875 63.09375 
Q 16.5 59.96875 16.5 54.203125 
Q 16.5 49.359375 19.40625 46.890625 
Q 22.3125 44.4375 30.421875 42.921875 
L 36.375 41.703125 
Q 47.40625 39.59375 52.65625 34.296875 
Q 57.90625 29 57.90625 20.125 
Q 57.90625 9.515625 50.796875 4.046875 
Q 43.703125 -1.421875 29.984375 -1.421875 
Q 24.8125 -1.421875 18.96875 -0.25 
Q 13.140625 0.921875 6.890625 3.21875 
L 6.890625 13.375 
Q 12.890625 10.015625 18.65625 8.296875 
Q 24.421875 6.59375 29.984375 6.59375 
Q 38.421875 6.59375 43.015625 9.90625 
Q 47.609375 13.234375 47.609375 19.390625 
Q 47.609375 24.75 44.3125 27.78125 
Q 41.015625 30.8125 33.5 32.328125 
L 27.484375 33.5 
Q 16.453125 35.6875 11.515625 40.375 
Q 6.59375 45.0625 6.59375 53.421875 
Q 6.59375 63.09375 13.40625 68.65625 
Q 20.21875 74.21875 32.171875 74.21875 
Q 37.3125 74.21875 42.625 73.28125 
Q 47.953125 72.359375 53.515625 70.515625 
z
" id="DejaVuSans-83"/>
     <path d="M 9.8125 72.90625 
L 51.703125 72.90625 
L 51.703125 64.59375 
L 19.671875 64.59375 
L 19.671875 43.109375 
L 48.578125 43.109375 
L 48.578125 34.8125 
L 19.671875 34.8125 
L 19.671875 0 
L 9.8125 0 
z
" id="DejaVuSans-70"/>
     <path d="M 14.796875 27.296875 
Q 14.796875 17.390625 18.875 11.75 
Q 22.953125 6.109375 30.078125 6.109375 
Q 37.203125 6.109375 41.296875 11.75 
Q 45.40625 17.390625 45.40625 27.296875 
Q 45.40625 37.203125 41.296875 42.84375 
Q 37.203125 48.484375 30.078125 48.484375 
Q 22.953125 48.484375 18.875 42.84375 
Q 14.796875 37.203125 14.796875 27.296875 
z
M 45.40625 8.203125 
Q 42.578125 3.328125 38.25 0.953125 
Q 33.9375 -1.421875 27.875 -1.421875 
Q 17.96875 -1.421875 11.734375 6.484375 
Q 5.515625 14.40625 5.515625 27.296875 
Q 5.515625 40.1875 11.734375 48.09375 
Q 17.96875 56 27.875 56 
Q 33.9375 56 38.25 53.625 
Q 42.578125 51.265625 45.40625 46.390625 
L 45.40625 54.6875 
L 54.390625 54.6875 
L 54.390625 -20.796875 
L 45.40625 -20.796875 
z
" id="DejaVuSans-113"/>
     <path d="M 8.5 21.578125 
L 8.5 54.6875 
L 17.484375 54.6875 
L 17.484375 21.921875 
Q 17.484375 14.15625 20.5 10.265625 
Q 23.53125 6.390625 29.59375 6.390625 
Q 36.859375 6.390625 41.078125 11.03125 
Q 45.3125 15.671875 45.3125 23.6875 
L 45.3125 54.6875 
L 54.296875 54.6875 
L 54.296875 0 
L 45.3125 0 
L 45.3125 8.40625 
Q 42.046875 3.421875 37.71875 1 
Q 33.40625 -1.421875 27.6875 -1.421875 
Q 18.265625 -1.421875 13.375 4.4375 
Q 8.5 10.296875 8.5 21.578125 
z
M 31.109375 56 
z
" id="DejaVuSans-117"/>
     <path d="M 32.171875 -5.078125 
Q 28.375 -14.84375 24.75 -17.8125 
Q 21.140625 -20.796875 15.09375 -20.796875 
L 7.90625 -20.796875 
L 7.90625 -13.28125 
L 13.1875 -13.28125 
Q 16.890625 -13.28125 18.9375 -11.515625 
Q 21 -9.765625 23.484375 -3.21875 
L 25.09375 0.875 
L 2.984375 54.6875 
L 12.5 54.6875 
L 29.59375 11.921875 
L 46.6875 54.6875 
L 56.203125 54.6875 
z
" id="DejaVuSans-121"/>
     <path d="M 31 75.875 
Q 24.46875 64.65625 21.28125 53.65625 
Q 18.109375 42.671875 18.109375 31.390625 
Q 18.109375 20.125 21.3125 9.0625 
Q 24.515625 -2 31 -13.1875 
L 23.1875 -13.1875 
Q 15.875 -1.703125 12.234375 9.375 
Q 8.59375 20.453125 8.59375 31.390625 
Q 8.59375 42.28125 12.203125 53.3125 
Q 15.828125 64.359375 23.1875 75.875 
z
" id="DejaVuSans-40"/>
     <path d="M 72.703125 32.078125 
Q 68.453125 32.078125 66.03125 28.46875 
Q 63.625 24.859375 63.625 18.40625 
Q 63.625 12.0625 66.03125 8.421875 
Q 68.453125 4.78125 72.703125 4.78125 
Q 76.859375 4.78125 79.265625 8.421875 
Q 81.6875 12.0625 81.6875 18.40625 
Q 81.6875 24.8125 79.265625 28.4375 
Q 76.859375 32.078125 72.703125 32.078125 
z
M 72.703125 38.28125 
Q 80.421875 38.28125 84.953125 32.90625 
Q 89.5 27.546875 89.5 18.40625 
Q 89.5 9.28125 84.9375 3.921875 
Q 80.375 -1.421875 72.703125 -1.421875 
Q 64.890625 -1.421875 60.34375 3.921875 
Q 55.8125 9.28125 55.8125 18.40625 
Q 55.8125 27.59375 60.375 32.9375 
Q 64.9375 38.28125 72.703125 38.28125 
z
M 22.3125 68.015625 
Q 18.109375 68.015625 15.6875 64.375 
Q 13.28125 60.75 13.28125 54.390625 
Q 13.28125 47.953125 15.671875 44.328125 
Q 18.0625 40.71875 22.3125 40.71875 
Q 26.5625 40.71875 28.96875 44.328125 
Q 31.390625 47.953125 31.390625 54.390625 
Q 31.390625 60.6875 28.953125 64.34375 
Q 26.515625 68.015625 22.3125 68.015625 
z
M 66.40625 74.21875 
L 74.21875 74.21875 
L 28.609375 -1.421875 
L 20.796875 -1.421875 
z
M 22.3125 74.21875 
Q 30.03125 74.21875 34.609375 68.875 
Q 39.203125 63.53125 39.203125 54.390625 
Q 39.203125 45.171875 34.640625 39.84375 
Q 30.078125 34.515625 22.3125 34.515625 
Q 14.546875 34.515625 10.03125 39.859375 
Q 5.515625 45.21875 5.515625 54.390625 
Q 5.515625 63.484375 10.046875 68.84375 
Q 14.59375 74.21875 22.3125 74.21875 
z
" id="DejaVuSans-37"/>
     <path d="M 8.015625 75.875 
L 15.828125 75.875 
Q 23.140625 64.359375 26.78125 53.3125 
Q 30.421875 42.28125 30.421875 31.390625 
Q 30.421875 20.453125 26.78125 9.375 
Q 23.140625 -1.703125 15.828125 -13.1875 
L 8.015625 -13.1875 
Q 14.5 -2 17.703125 9.0625 
Q 20.90625 20.125 20.90625 31.390625 
Q 20.90625 42.671875 17.703125 53.65625 
Q 14.5 64.65625 8.015625 75.875 
z
" id="DejaVuSans-41"/>
    </defs>
    <g transform="translate(489.052832 746.2)scale(0.24 -0.24)">
     <use xlink:href="#DejaVuSans-65"/>
     <use x="66.658203" xlink:href="#DejaVuSans-99"/>
     <use x="121.638672" xlink:href="#DejaVuSans-116"/>
     <use x="160.847656" xlink:href="#DejaVuSans-105"/>
     <use x="188.630859" xlink:href="#DejaVuSans-111"/>
     <use x="249.8125" xlink:href="#DejaVuSans-110"/>
     <use x="313.191406" xlink:href="#DejaVuSans-32"/>
     <use x="344.978516" xlink:href="#DejaVuSans-83"/>
     <use x="408.455078" xlink:href="#DejaVuSans-101"/>
     <use x="469.978516" xlink:href="#DejaVuSans-108"/>
     <use x="497.761719" xlink:href="#DejaVuSans-101"/>
     <use x="559.285156" xlink:href="#DejaVuSans-99"/>
     <use x="614.265625" xlink:href="#DejaVuSans-116"/>
     <use x="653.474609" xlink:href="#DejaVuSans-105"/>
     <use x="681.257812" xlink:href="#DejaVuSans-111"/>
     <use x="742.439453" xlink:href="#DejaVuSans-110"/>
     <use x="805.818359" xlink:href="#DejaVuSans-32"/>
     <use x="837.605469" xlink:href="#DejaVuSans-70"/>
     <use x="887.875" xlink:href="#DejaVuSans-114"/>
     <use x="926.738281" xlink:href="#DejaVuSans-101"/>
     <use x="988.261719" xlink:href="#DejaVuSans-113"/>
     <use x="1051.738281" xlink:href="#DejaVuSans-117"/>
     <use x="1115.117188" xlink:href="#DejaVuSans-101"/>
     <use x="1176.640625" xlink:href="#DejaVuSans-110"/>
     <use x="1240.019531" xlink:href="#DejaVuSans-99"/>
     <use x="1295" xlink:href="#DejaVuSans-121"/>
     <use x="1354.179688" xlink:href="#DejaVuSans-40"/>
     <use x="1393.193359" xlink:href="#DejaVuSans-37"/>
     <use x="1488.212891" xlink:href="#DejaVuSans-41"/>
     <use x="1527.226562" xlink:href="#DejaVuSans-32"/>
     <use x="1559.013672" xlink:href="#DejaVuSans-118"/>
     <use x="1618.193359" xlink:href="#DejaVuSans-115"/>
     <use x="1670.292969" xlink:href="#DejaVuSans-32"/>
     <use x="1702.080078" xlink:href="#DejaVuSans-84"/>
     <use x="1760.039062" xlink:href="#DejaVuSans-105"/>
     <use x="1787.822266" xlink:href="#DejaVuSans-109"/>
     <use x="1885.234375" xlink:href="#DejaVuSans-101"/>
     <use x="1946.757812" xlink:href="#DejaVuSans-115"/>
     <use x="1998.857422" xlink:href="#DejaVuSans-116"/>
     <use x="2038.066406" xlink:href="#DejaVuSans-101"/>
     <use x="2099.589844" xlink:href="#DejaVuSans-112"/>
    </g>
   </g>
  </g>
 </g>
 <defs>
  <clipPath id="pcc6e1775a7">
   <rect height="257.2" width="1339.555586" x="78.844414" y="46.6"/>
  </clipPath>
  <clipPath id="pd287dd3e33">
   <rect height="257.2" width="1339.555586" x="78.844414" y="399.4"/>
  </clipPath>
 </defs>
</svg>
