<?xml version="1.0" encoding="utf-8" standalone="no"?>
<!DOCTYPE svg PUBLIC "-//W3C//DTD SVG 1.1//EN"
  "http://www.w3.org/Graphics/SVG/1.1/DTD/svg11.dtd">
<!-- Created with matplotlib (https://matplotlib.org/) -->
<svg height="1080pt" version="1.1" viewBox="0 0 1440 1080" width="1440pt" xmlns="http://www.w3.org/2000/svg" xmlns:xlink="http://www.w3.org/1999/xlink">
 <defs>
  <style type="text/css">
*{stroke-linecap:butt;stroke-linejoin:round;}
  </style>
 </defs>
 <g id="figure_1">
  <g id="patch_1">
   <path d="M 0 1080 
L 1440 1080 
L 1440 0 
L 0 0 
z
" style="fill:#ffffff;"/>
  </g>
  <g id="axes_1">
   <g id="patch_2">
    <path d="M 87.329766 303.8 
L 1418.4 303.8 
L 1418.4 46.6 
L 87.329766 46.6 
z
" style="fill:#ffffff;"/>
   </g>
   <g id="matplotlib.axis_1">
    <g id="xtick_1">
     <g id="line2d_1">
      <defs>
       <path d="M 0 0 
L 0 3.5 
" id="m77c5ca4084" style="stroke:#000000;stroke-width:0.8;"/>
      </defs>
      <g>
       <use style="stroke:#000000;stroke-width:0.8;" x="203.075003" xlink:href="#m77c5ca4084" y="303.8"/>
      </g>
     </g>
     <g id="text_1">
      <!-- 1e+04 -->
      <defs>
       <path d="M 12.40625 8.296875 
L 28.515625 8.296875 
L 28.515625 63.921875 
L 10.984375 60.40625 
L 10.984375 69.390625 
L 28.421875 72.90625 
L 38.28125 72.90625 
L 38.28125 8.296875 
L 54.390625 8.296875 
L 54.390625 0 
L 12.40625 0 
z
" id="DejaVuSans-49"/>
       <path d="M 56.203125 29.59375 
L 56.203125 25.203125 
L 14.890625 25.203125 
Q 15.484375 15.921875 20.484375 11.0625 
Q 25.484375 6.203125 34.421875 6.203125 
Q 39.59375 6.203125 44.453125 7.46875 
Q 49.3125 8.734375 54.109375 11.28125 
L 54.109375 2.78125 
Q 49.265625 0.734375 44.1875 -0.34375 
Q 39.109375 -1.421875 33.890625 -1.421875 
Q 20.796875 -1.421875 13.15625 6.1875 
Q 5.515625 13.8125 5.515625 26.8125 
Q 5.515625 40.234375 12.765625 48.109375 
Q 20.015625 56 32.328125 56 
Q 43.359375 56 49.78125 48.890625 
Q 56.203125 41.796875 56.203125 29.59375 
z
M 47.21875 32.234375 
Q 47.125 39.59375 43.09375 43.984375 
Q 39.0625 48.390625 32.421875 48.390625 
Q 24.90625 48.390625 20.390625 44.140625 
Q 15.875 39.890625 15.1875 32.171875 
z
" id="DejaVuSans-101"/>
       <path d="M 46 62.703125 
L 46 35.5 
L 73.1875 35.5 
L 73.1875 27.203125 
L 46 27.203125 
L 46 0 
L 37.796875 0 
L 37.796875 27.203125 
L 10.59375 27.203125 
L 10.59375 35.5 
L 37.796875 35.5 
L 37.796875 62.703125 
z
" id="DejaVuSans-43"/>
       <path d="M 31.78125 66.40625 
Q 24.171875 66.40625 20.328125 58.90625 
Q 16.5 51.421875 16.5 36.375 
Q 16.5 21.390625 20.328125 13.890625 
Q 24.171875 6.390625 31.78125 6.390625 
Q 39.453125 6.390625 43.28125 13.890625 
Q 47.125 21.390625 47.125 36.375 
Q 47.125 51.421875 43.28125 58.90625 
Q 39.453125 66.40625 31.78125 66.40625 
z
M 31.78125 74.21875 
Q 44.046875 74.21875 50.515625 64.515625 
Q 56.984375 54.828125 56.984375 36.375 
Q 56.984375 17.96875 50.515625 8.265625 
Q 44.046875 -1.421875 31.78125 -1.421875 
Q 19.53125 -1.421875 13.0625 8.265625 
Q 6.59375 17.96875 6.59375 36.375 
Q 6.59375 54.828125 13.0625 64.515625 
Q 19.53125 74.21875 31.78125 74.21875 
z
" id="DejaVuSans-48"/>
       <path d="M 37.796875 64.3125 
L 12.890625 25.390625 
L 37.796875 25.390625 
z
M 35.203125 72.90625 
L 47.609375 72.90625 
L 47.609375 25.390625 
L 58.015625 25.390625 
L 58.015625 17.1875 
L 47.609375 17.1875 
L 47.609375 0 
L 37.796875 0 
L 37.796875 17.1875 
L 4.890625 17.1875 
L 4.890625 26.703125 
z
" id="DejaVuSans-52"/>
      </defs>
      <g transform="translate(169.454691 325.996875)scale(0.2 -0.2)">
       <use xlink:href="#DejaVuSans-49"/>
       <use x="63.623047" xlink:href="#DejaVuSans-101"/>
       <use x="125.146484" xlink:href="#DejaVuSans-43"/>
       <use x="208.935547" xlink:href="#DejaVuSans-48"/>
       <use x="272.558594" xlink:href="#DejaVuSans-52"/>
      </g>
     </g>
    </g>
    <g id="xtick_2">
     <g id="line2d_2">
      <g>
       <use style="stroke:#000000;stroke-width:0.8;" x="318.820241" xlink:href="#m77c5ca4084" y="303.8"/>
      </g>
     </g>
     <g id="text_2">
      <!-- 2e+04 -->
      <defs>
       <path d="M 19.1875 8.296875 
L 53.609375 8.296875 
L 53.609375 0 
L 7.328125 0 
L 7.328125 8.296875 
Q 12.9375 14.109375 22.625 23.890625 
Q 32.328125 33.6875 34.8125 36.53125 
Q 39.546875 41.84375 41.421875 45.53125 
Q 43.3125 49.21875 43.3125 52.78125 
Q 43.3125 58.59375 39.234375 62.25 
Q 35.15625 65.921875 28.609375 65.921875 
Q 23.96875 65.921875 18.8125 64.3125 
Q 13.671875 62.703125 7.8125 59.421875 
L 7.8125 69.390625 
Q 13.765625 71.78125 18.9375 73 
Q 24.125 74.21875 28.421875 74.21875 
Q 39.75 74.21875 46.484375 68.546875 
Q 53.21875 62.890625 53.21875 53.421875 
Q 53.21875 48.921875 51.53125 44.890625 
Q 49.859375 40.875 45.40625 35.40625 
Q 44.1875 33.984375 37.640625 27.21875 
Q 31.109375 20.453125 19.1875 8.296875 
z
" id="DejaVuSans-50"/>
      </defs>
      <g transform="translate(285.199929 325.996875)scale(0.2 -0.2)">
       <use xlink:href="#DejaVuSans-50"/>
       <use x="63.623047" xlink:href="#DejaVuSans-101"/>
       <use x="125.146484" xlink:href="#DejaVuSans-43"/>
       <use x="208.935547" xlink:href="#DejaVuSans-48"/>
       <use x="272.558594" xlink:href="#DejaVuSans-52"/>
      </g>
     </g>
    </g>
    <g id="xtick_3">
     <g id="line2d_3">
      <g>
       <use style="stroke:#000000;stroke-width:0.8;" x="550.310717" xlink:href="#m77c5ca4084" y="303.8"/>
      </g>
     </g>
     <g id="text_3">
      <!-- 4e+04 -->
      <g transform="translate(516.690404 325.996875)scale(0.2 -0.2)">
       <use xlink:href="#DejaVuSans-52"/>
       <use x="63.623047" xlink:href="#DejaVuSans-101"/>
       <use x="125.146484" xlink:href="#DejaVuSans-43"/>
       <use x="208.935547" xlink:href="#DejaVuSans-48"/>
       <use x="272.558594" xlink:href="#DejaVuSans-52"/>
      </g>
     </g>
    </g>
    <g id="xtick_4">
     <g id="line2d_4">
      <g>
       <use style="stroke:#000000;stroke-width:0.8;" x="781.801192" xlink:href="#m77c5ca4084" y="303.8"/>
      </g>
     </g>
     <g id="text_4">
      <!-- 6e+04 -->
      <defs>
       <path d="M 33.015625 40.375 
Q 26.375 40.375 22.484375 35.828125 
Q 18.609375 31.296875 18.609375 23.390625 
Q 18.609375 15.53125 22.484375 10.953125 
Q 26.375 6.390625 33.015625 6.390625 
Q 39.65625 6.390625 43.53125 10.953125 
Q 47.40625 15.53125 47.40625 23.390625 
Q 47.40625 31.296875 43.53125 35.828125 
Q 39.65625 40.375 33.015625 40.375 
z
M 52.59375 71.296875 
L 52.59375 62.3125 
Q 48.875 64.0625 45.09375 64.984375 
Q 41.3125 65.921875 37.59375 65.921875 
Q 27.828125 65.921875 22.671875 59.328125 
Q 17.53125 52.734375 16.796875 39.40625 
Q 19.671875 43.65625 24.015625 45.921875 
Q 28.375 48.1875 33.59375 48.1875 
Q 44.578125 48.1875 50.953125 41.515625 
Q 57.328125 34.859375 57.328125 23.390625 
Q 57.328125 12.15625 50.6875 5.359375 
Q 44.046875 -1.421875 33.015625 -1.421875 
Q 20.359375 -1.421875 13.671875 8.265625 
Q 6.984375 17.96875 6.984375 36.375 
Q 6.984375 53.65625 15.1875 63.9375 
Q 23.390625 74.21875 37.203125 74.21875 
Q 40.921875 74.21875 44.703125 73.484375 
Q 48.484375 72.75 52.59375 71.296875 
z
" id="DejaVuSans-54"/>
      </defs>
      <g transform="translate(748.18088 325.996875)scale(0.2 -0.2)">
       <use xlink:href="#DejaVuSans-54"/>
       <use x="63.623047" xlink:href="#DejaVuSans-101"/>
       <use x="125.146484" xlink:href="#DejaVuSans-43"/>
       <use x="208.935547" xlink:href="#DejaVuSans-48"/>
       <use x="272.558594" xlink:href="#DejaVuSans-52"/>
      </g>
     </g>
    </g>
    <g id="xtick_5">
     <g id="line2d_5">
      <g>
       <use style="stroke:#000000;stroke-width:0.8;" x="1013.291668" xlink:href="#m77c5ca4084" y="303.8"/>
      </g>
     </g>
     <g id="text_5">
      <!-- 8e+04 -->
      <defs>
       <path d="M 31.78125 34.625 
Q 24.75 34.625 20.71875 30.859375 
Q 16.703125 27.09375 16.703125 20.515625 
Q 16.703125 13.921875 20.71875 10.15625 
Q 24.75 6.390625 31.78125 6.390625 
Q 38.8125 6.390625 42.859375 10.171875 
Q 46.921875 13.96875 46.921875 20.515625 
Q 46.921875 27.09375 42.890625 30.859375 
Q 38.875 34.625 31.78125 34.625 
z
M 21.921875 38.8125 
Q 15.578125 40.375 12.03125 44.71875 
Q 8.5 49.078125 8.5 55.328125 
Q 8.5 64.0625 14.71875 69.140625 
Q 20.953125 74.21875 31.78125 74.21875 
Q 42.671875 74.21875 48.875 69.140625 
Q 55.078125 64.0625 55.078125 55.328125 
Q 55.078125 49.078125 51.53125 44.71875 
Q 48 40.375 41.703125 38.8125 
Q 48.828125 37.15625 52.796875 32.3125 
Q 56.78125 27.484375 56.78125 20.515625 
Q 56.78125 9.90625 50.3125 4.234375 
Q 43.84375 -1.421875 31.78125 -1.421875 
Q 19.734375 -1.421875 13.25 4.234375 
Q 6.78125 9.90625 6.78125 20.515625 
Q 6.78125 27.484375 10.78125 32.3125 
Q 14.796875 37.15625 21.921875 38.8125 
z
M 18.3125 54.390625 
Q 18.3125 48.734375 21.84375 45.5625 
Q 25.390625 42.390625 31.78125 42.390625 
Q 38.140625 42.390625 41.71875 45.5625 
Q 45.3125 48.734375 45.3125 54.390625 
Q 45.3125 60.0625 41.71875 63.234375 
Q 38.140625 66.40625 31.78125 66.40625 
Q 25.390625 66.40625 21.84375 63.234375 
Q 18.3125 60.0625 18.3125 54.390625 
z
" id="DejaVuSans-56"/>
      </defs>
      <g transform="translate(979.671355 325.996875)scale(0.2 -0.2)">
       <use xlink:href="#DejaVuSans-56"/>
       <use x="63.623047" xlink:href="#DejaVuSans-101"/>
       <use x="125.146484" xlink:href="#DejaVuSans-43"/>
       <use x="208.935547" xlink:href="#DejaVuSans-48"/>
       <use x="272.558594" xlink:href="#DejaVuSans-52"/>
      </g>
     </g>
    </g>
    <g id="xtick_6">
     <g id="line2d_6">
      <g>
       <use style="stroke:#000000;stroke-width:0.8;" x="1244.782143" xlink:href="#m77c5ca4084" y="303.8"/>
      </g>
     </g>
     <g id="text_6">
      <!-- 1e+05 -->
      <defs>
       <path d="M 10.796875 72.90625 
L 49.515625 72.90625 
L 49.515625 64.59375 
L 19.828125 64.59375 
L 19.828125 46.734375 
Q 21.96875 47.46875 24.109375 47.828125 
Q 26.265625 48.1875 28.421875 48.1875 
Q 40.625 48.1875 47.75 41.5 
Q 54.890625 34.8125 54.890625 23.390625 
Q 54.890625 11.625 47.5625 5.09375 
Q 40.234375 -1.421875 26.90625 -1.421875 
Q 22.3125 -1.421875 17.546875 -0.640625 
Q 12.796875 0.140625 7.71875 1.703125 
L 7.71875 11.625 
Q 12.109375 9.234375 16.796875 8.0625 
Q 21.484375 6.890625 26.703125 6.890625 
Q 35.15625 6.890625 40.078125 11.328125 
Q 45.015625 15.765625 45.015625 23.390625 
Q 45.015625 31 40.078125 35.4375 
Q 35.15625 39.890625 26.703125 39.890625 
Q 22.75 39.890625 18.8125 39.015625 
Q 14.890625 38.140625 10.796875 36.28125 
z
" id="DejaVuSans-53"/>
      </defs>
      <g transform="translate(1211.161831 325.996875)scale(0.2 -0.2)">
       <use xlink:href="#DejaVuSans-49"/>
       <use x="63.623047" xlink:href="#DejaVuSans-101"/>
       <use x="125.146484" xlink:href="#DejaVuSans-43"/>
       <use x="208.935547" xlink:href="#DejaVuSans-48"/>
       <use x="272.558594" xlink:href="#DejaVuSans-53"/>
      </g>
     </g>
    </g>
    <g id="text_7">
     <!-- Timestep -->
     <defs>
      <path d="M -0.296875 72.90625 
L 61.375 72.90625 
L 61.375 64.59375 
L 35.5 64.59375 
L 35.5 0 
L 25.59375 0 
L 25.59375 64.59375 
L -0.296875 64.59375 
z
" id="DejaVuSans-84"/>
      <path d="M 9.421875 54.6875 
L 18.40625 54.6875 
L 18.40625 0 
L 9.421875 0 
z
M 9.421875 75.984375 
L 18.40625 75.984375 
L 18.40625 64.59375 
L 9.421875 64.59375 
z
" id="DejaVuSans-105"/>
      <path d="M 52 44.1875 
Q 55.375 50.25 60.0625 53.125 
Q 64.75 56 71.09375 56 
Q 79.640625 56 84.28125 50.015625 
Q 88.921875 44.046875 88.921875 33.015625 
L 88.921875 0 
L 79.890625 0 
L 79.890625 32.71875 
Q 79.890625 40.578125 77.09375 44.375 
Q 74.3125 48.1875 68.609375 48.1875 
Q 61.625 48.1875 57.5625 43.546875 
Q 53.515625 38.921875 53.515625 30.90625 
L 53.515625 0 
L 44.484375 0 
L 44.484375 32.71875 
Q 44.484375 40.625 41.703125 44.40625 
Q 38.921875 48.1875 33.109375 48.1875 
Q 26.21875 48.1875 22.15625 43.53125 
Q 18.109375 38.875 18.109375 30.90625 
L 18.109375 0 
L 9.078125 0 
L 9.078125 54.6875 
L 18.109375 54.6875 
L 18.109375 46.1875 
Q 21.1875 51.21875 25.484375 53.609375 
Q 29.78125 56 35.6875 56 
Q 41.65625 56 45.828125 52.96875 
Q 50 49.953125 52 44.1875 
z
" id="DejaVuSans-109"/>
      <path d="M 44.28125 53.078125 
L 44.28125 44.578125 
Q 40.484375 46.53125 36.375 47.5 
Q 32.28125 48.484375 27.875 48.484375 
Q 21.1875 48.484375 17.84375 46.4375 
Q 14.5 44.390625 14.5 40.28125 
Q 14.5 37.15625 16.890625 35.375 
Q 19.28125 33.59375 26.515625 31.984375 
L 29.59375 31.296875 
Q 39.15625 29.25 43.1875 25.515625 
Q 47.21875 21.78125 47.21875 15.09375 
Q 47.21875 7.46875 41.1875 3.015625 
Q 35.15625 -1.421875 24.609375 -1.421875 
Q 20.21875 -1.421875 15.453125 -0.5625 
Q 10.6875 0.296875 5.421875 2 
L 5.421875 11.28125 
Q 10.40625 8.6875 15.234375 7.390625 
Q 20.0625 6.109375 24.8125 6.109375 
Q 31.15625 6.109375 34.5625 8.28125 
Q 37.984375 10.453125 37.984375 14.40625 
Q 37.984375 18.0625 35.515625 20.015625 
Q 33.0625 21.96875 24.703125 23.78125 
L 21.578125 24.515625 
Q 13.234375 26.265625 9.515625 29.90625 
Q 5.8125 33.546875 5.8125 39.890625 
Q 5.8125 47.609375 11.28125 51.796875 
Q 16.75 56 26.8125 56 
Q 31.78125 56 36.171875 55.265625 
Q 40.578125 54.546875 44.28125 53.078125 
z
" id="DejaVuSans-115"/>
      <path d="M 18.3125 70.21875 
L 18.3125 54.6875 
L 36.8125 54.6875 
L 36.8125 47.703125 
L 18.3125 47.703125 
L 18.3125 18.015625 
Q 18.3125 11.328125 20.140625 9.421875 
Q 21.96875 7.515625 27.59375 7.515625 
L 36.8125 7.515625 
L 36.8125 0 
L 27.59375 0 
Q 17.1875 0 13.234375 3.875 
Q 9.28125 7.765625 9.28125 18.015625 
L 9.28125 47.703125 
L 2.6875 47.703125 
L 2.6875 54.6875 
L 9.28125 54.6875 
L 9.28125 70.21875 
z
" id="DejaVuSans-116"/>
      <path d="M 18.109375 8.203125 
L 18.109375 -20.796875 
L 9.078125 -20.796875 
L 9.078125 54.6875 
L 18.109375 54.6875 
L 18.109375 46.390625 
Q 20.953125 51.265625 25.265625 53.625 
Q 29.59375 56 35.59375 56 
Q 45.5625 56 51.78125 48.09375 
Q 58.015625 40.1875 58.015625 27.296875 
Q 58.015625 14.40625 51.78125 6.484375 
Q 45.5625 -1.421875 35.59375 -1.421875 
Q 29.59375 -1.421875 25.265625 0.953125 
Q 20.953125 3.328125 18.109375 8.203125 
z
M 48.6875 27.296875 
Q 48.6875 37.203125 44.609375 42.84375 
Q 40.53125 48.484375 33.40625 48.484375 
Q 26.265625 48.484375 22.1875 42.84375 
Q 18.109375 37.203125 18.109375 27.296875 
Q 18.109375 17.390625 22.1875 11.75 
Q 26.265625 6.109375 33.40625 6.109375 
Q 40.53125 6.109375 44.609375 11.75 
Q 48.6875 17.390625 48.6875 27.296875 
z
" id="DejaVuSans-112"/>
     </defs>
     <g transform="translate(706.766445 349.353125)scale(0.2 -0.2)">
      <use xlink:href="#DejaVuSans-84"/>
      <use x="57.958984" xlink:href="#DejaVuSans-105"/>
      <use x="85.742188" xlink:href="#DejaVuSans-109"/>
      <use x="183.154297" xlink:href="#DejaVuSans-101"/>
      <use x="244.677734" xlink:href="#DejaVuSans-115"/>
      <use x="296.777344" xlink:href="#DejaVuSans-116"/>
      <use x="335.986328" xlink:href="#DejaVuSans-101"/>
      <use x="397.509766" xlink:href="#DejaVuSans-112"/>
     </g>
    </g>
   </g>
   <g id="matplotlib.axis_2">
    <g id="ytick_1">
     <g id="line2d_7">
      <defs>
       <path d="M 0 0 
L -3.5 0 
" id="m17c87ed961" style="stroke:#1f77b4;stroke-width:0.8;"/>
      </defs>
      <g>
       <use style="fill:#1f77b4;stroke:#1f77b4;stroke-width:0.8;" x="87.329766" xlink:href="#m17c87ed961" y="293.394905"/>
      </g>
     </g>
     <g id="text_8">
      <!-- 10 -->
      <g style="fill:#1f77b4;" transform="translate(61.242266 299.093734)scale(0.15 -0.15)">
       <use xlink:href="#DejaVuSans-49"/>
       <use x="63.623047" xlink:href="#DejaVuSans-48"/>
      </g>
     </g>
    </g>
    <g id="ytick_2">
     <g id="line2d_8">
      <g>
       <use style="fill:#1f77b4;stroke:#1f77b4;stroke-width:0.8;" x="87.329766" xlink:href="#m17c87ed961" y="243.557133"/>
      </g>
     </g>
     <g id="text_9">
      <!-- 20 -->
      <g style="fill:#1f77b4;" transform="translate(61.242266 249.255961)scale(0.15 -0.15)">
       <use xlink:href="#DejaVuSans-50"/>
       <use x="63.623047" xlink:href="#DejaVuSans-48"/>
      </g>
     </g>
    </g>
    <g id="ytick_3">
     <g id="line2d_9">
      <g>
       <use style="fill:#1f77b4;stroke:#1f77b4;stroke-width:0.8;" x="87.329766" xlink:href="#m17c87ed961" y="193.71936"/>
      </g>
     </g>
     <g id="text_10">
      <!-- 30 -->
      <defs>
       <path d="M 40.578125 39.3125 
Q 47.65625 37.796875 51.625 33 
Q 55.609375 28.21875 55.609375 21.1875 
Q 55.609375 10.40625 48.1875 4.484375 
Q 40.765625 -1.421875 27.09375 -1.421875 
Q 22.515625 -1.421875 17.65625 -0.515625 
Q 12.796875 0.390625 7.625 2.203125 
L 7.625 11.71875 
Q 11.71875 9.328125 16.59375 8.109375 
Q 21.484375 6.890625 26.8125 6.890625 
Q 36.078125 6.890625 40.9375 10.546875 
Q 45.796875 14.203125 45.796875 21.1875 
Q 45.796875 27.640625 41.28125 31.265625 
Q 36.765625 34.90625 28.71875 34.90625 
L 20.21875 34.90625 
L 20.21875 43.015625 
L 29.109375 43.015625 
Q 36.375 43.015625 40.234375 45.921875 
Q 44.09375 48.828125 44.09375 54.296875 
Q 44.09375 59.90625 40.109375 62.90625 
Q 36.140625 65.921875 28.71875 65.921875 
Q 24.65625 65.921875 20.015625 65.03125 
Q 15.375 64.15625 9.8125 62.3125 
L 9.8125 71.09375 
Q 15.4375 72.65625 20.34375 73.4375 
Q 25.25 74.21875 29.59375 74.21875 
Q 40.828125 74.21875 47.359375 69.109375 
Q 53.90625 64.015625 53.90625 55.328125 
Q 53.90625 49.265625 50.4375 45.09375 
Q 46.96875 40.921875 40.578125 39.3125 
z
" id="DejaVuSans-51"/>
      </defs>
      <g style="fill:#1f77b4;" transform="translate(61.242266 199.418188)scale(0.15 -0.15)">
       <use xlink:href="#DejaVuSans-51"/>
       <use x="63.623047" xlink:href="#DejaVuSans-48"/>
      </g>
     </g>
    </g>
    <g id="ytick_4">
     <g id="line2d_10">
      <g>
       <use style="fill:#1f77b4;stroke:#1f77b4;stroke-width:0.8;" x="87.329766" xlink:href="#m17c87ed961" y="143.881588"/>
      </g>
     </g>
     <g id="text_11">
      <!-- 40 -->
      <g style="fill:#1f77b4;" transform="translate(61.242266 149.580416)scale(0.15 -0.15)">
       <use xlink:href="#DejaVuSans-52"/>
       <use x="63.623047" xlink:href="#DejaVuSans-48"/>
      </g>
     </g>
    </g>
    <g id="ytick_5">
     <g id="line2d_11">
      <g>
       <use style="fill:#1f77b4;stroke:#1f77b4;stroke-width:0.8;" x="87.329766" xlink:href="#m17c87ed961" y="94.043815"/>
      </g>
     </g>
     <g id="text_12">
      <!-- 50 -->
      <g style="fill:#1f77b4;" transform="translate(61.242266 99.742643)scale(0.15 -0.15)">
       <use xlink:href="#DejaVuSans-53"/>
       <use x="63.623047" xlink:href="#DejaVuSans-48"/>
      </g>
     </g>
    </g>
    <g id="text_13">
     <!-- Reward -->
     <defs>
      <path d="M 44.390625 34.1875 
Q 47.5625 33.109375 50.5625 29.59375 
Q 53.5625 26.078125 56.59375 19.921875 
L 66.609375 0 
L 56 0 
L 46.6875 18.703125 
Q 43.0625 26.03125 39.671875 28.421875 
Q 36.28125 30.8125 30.421875 30.8125 
L 19.671875 30.8125 
L 19.671875 0 
L 9.8125 0 
L 9.8125 72.90625 
L 32.078125 72.90625 
Q 44.578125 72.90625 50.734375 67.671875 
Q 56.890625 62.453125 56.890625 51.90625 
Q 56.890625 45.015625 53.6875 40.46875 
Q 50.484375 35.9375 44.390625 34.1875 
z
M 19.671875 64.796875 
L 19.671875 38.921875 
L 32.078125 38.921875 
Q 39.203125 38.921875 42.84375 42.21875 
Q 46.484375 45.515625 46.484375 51.90625 
Q 46.484375 58.296875 42.84375 61.546875 
Q 39.203125 64.796875 32.078125 64.796875 
z
" id="DejaVuSans-82"/>
      <path d="M 4.203125 54.6875 
L 13.1875 54.6875 
L 24.421875 12.015625 
L 35.59375 54.6875 
L 46.1875 54.6875 
L 57.421875 12.015625 
L 68.609375 54.6875 
L 77.59375 54.6875 
L 63.28125 0 
L 52.6875 0 
L 40.921875 44.828125 
L 29.109375 0 
L 18.5 0 
z
" id="DejaVuSans-119"/>
      <path d="M 34.28125 27.484375 
Q 23.390625 27.484375 19.1875 25 
Q 14.984375 22.515625 14.984375 16.5 
Q 14.984375 11.71875 18.140625 8.90625 
Q 21.296875 6.109375 26.703125 6.109375 
Q 34.1875 6.109375 38.703125 11.40625 
Q 43.21875 16.703125 43.21875 25.484375 
L 43.21875 27.484375 
z
M 52.203125 31.203125 
L 52.203125 0 
L 43.21875 0 
L 43.21875 8.296875 
Q 40.140625 3.328125 35.546875 0.953125 
Q 30.953125 -1.421875 24.3125 -1.421875 
Q 15.921875 -1.421875 10.953125 3.296875 
Q 6 8.015625 6 15.921875 
Q 6 25.140625 12.171875 29.828125 
Q 18.359375 34.515625 30.609375 34.515625 
L 43.21875 34.515625 
L 43.21875 35.40625 
Q 43.21875 41.609375 39.140625 45 
Q 35.0625 48.390625 27.6875 48.390625 
Q 23 48.390625 18.546875 47.265625 
Q 14.109375 46.140625 10.015625 43.890625 
L 10.015625 52.203125 
Q 14.9375 54.109375 19.578125 55.046875 
Q 24.21875 56 28.609375 56 
Q 40.484375 56 46.34375 49.84375 
Q 52.203125 43.703125 52.203125 31.203125 
z
" id="DejaVuSans-97"/>
      <path d="M 41.109375 46.296875 
Q 39.59375 47.171875 37.8125 47.578125 
Q 36.03125 48 33.890625 48 
Q 26.265625 48 22.1875 43.046875 
Q 18.109375 38.09375 18.109375 28.8125 
L 18.109375 0 
L 9.078125 0 
L 9.078125 54.6875 
L 18.109375 54.6875 
L 18.109375 46.1875 
Q 20.953125 51.171875 25.484375 53.578125 
Q 30.03125 56 36.53125 56 
Q 37.453125 56 38.578125 55.875 
Q 39.703125 55.765625 41.0625 55.515625 
z
" id="DejaVuSans-114"/>
      <path d="M 45.40625 46.390625 
L 45.40625 75.984375 
L 54.390625 75.984375 
L 54.390625 0 
L 45.40625 0 
L 45.40625 8.203125 
Q 42.578125 3.328125 38.25 0.953125 
Q 33.9375 -1.421875 27.875 -1.421875 
Q 17.96875 -1.421875 11.734375 6.484375 
Q 5.515625 14.40625 5.515625 27.296875 
Q 5.515625 40.1875 11.734375 48.09375 
Q 17.96875 56 27.875 56 
Q 33.9375 56 38.25 53.625 
Q 42.578125 51.265625 45.40625 46.390625 
z
M 14.796875 27.296875 
Q 14.796875 17.390625 18.875 11.75 
Q 22.953125 6.109375 30.078125 6.109375 
Q 37.203125 6.109375 41.296875 11.75 
Q 45.40625 17.390625 45.40625 27.296875 
Q 45.40625 37.203125 41.296875 42.84375 
Q 37.203125 48.484375 30.078125 48.484375 
Q 22.953125 48.484375 18.875 42.84375 
Q 14.796875 37.203125 14.796875 27.296875 
z
" id="DejaVuSans-100"/>
     </defs>
     <g style="fill:#1f77b4;" transform="translate(53.082891 212.442188)rotate(-90)scale(0.2 -0.2)">
      <use xlink:href="#DejaVuSans-82"/>
      <use x="64.982422" xlink:href="#DejaVuSans-101"/>
      <use x="126.505859" xlink:href="#DejaVuSans-119"/>
      <use x="208.292969" xlink:href="#DejaVuSans-97"/>
      <use x="269.572266" xlink:href="#DejaVuSans-114"/>
      <use x="308.935547" xlink:href="#DejaVuSans-100"/>
     </g>
    </g>
   </g>
   <g id="line2d_12">
    <path clip-path="url(#p1d96edfbcb)" d="M 87.329766 58.290909 
L 128.419325 237.365858 
L 130.618485 243.599851 
L 132.817644 246.348048 
L 135.59553 252.938026 
L 137.447454 256.670875 
L 140.225339 268.654723 
L 145.202385 285.766166 
L 146.822818 289.92762 
L 149.253468 291.308127 
L 151.568373 291.653431 
L 153.767532 291.447672 
L 156.198182 292.080612 
L 158.628832 291.875565 
L 160.943737 292.066373 
L 164.647584 291.719644 
L 166.962489 291.46832 
L 167.888451 291.260425 
L 169.85612 290.566256 
L 172.171025 291.81576 
L 177.726796 289.647105 
L 179.231484 288.980703 
L 181.893625 288.888859 
L 183.861294 288.5998 
L 186.291944 289.26549 
L 188.606849 289.183614 
L 190.806008 288.581289 
L 193.815384 289.032676 
L 195.667308 289.240571 
L 197.750722 289.798042 
L 200.181372 289.118113 
L 202.380532 288.002458 
L 206.31587 288.377666 
L 207.357577 288.349899 
L 209.556737 288.173331 
L 211.755896 288.362002 
L 213.955056 288.048736 
L 216.501451 289.051188 
L 218.932101 289.407884 
L 221.247006 289.499728 
L 224.835108 290.052927 
L 225.876815 290.089237 
L 228.19172 289.855 
L 231.779822 289.08109 
L 233.168765 288.720834 
L 235.020689 288.05728 
L 237.104103 286.987192 
L 240.113479 286.883244 
L 242.081149 286.549331 
L 244.048818 286.018203 
L 246.710958 286.417617 
L 249.373099 286.521565 
L 250.993532 286.656127 
L 253.424182 285.990436 
L 255.854832 286.084416 
L 258.053991 286.723764 
L 260.253151 287.974692 
L 262.799546 287.912038 
L 264.88296 288.213201 
L 267.197865 287.432884 
L 269.51277 287.634371 
L 271.827675 286.71166 
L 274.258325 286.779297 
L 277.151956 286.171276 
L 278.772389 286.036714 
L 283.402198 287.368095 
L 285.832848 286.735155 
L 289.652441 287.096123 
L 294.976722 287.349584 
L 297.523117 286.370627 
L 299.953767 286.163445 
L 303.54187 286.275224 
L 304.236341 286.210435 
L 306.551246 285.324746 
L 308.866151 285.96267 
L 313.380215 285.15957 
L 315.810865 286.720916 
L 318.241515 286.938066 
L 321.135146 286.508037 
L 323.102815 286.478847 
L 325.070484 286.637615 
L 327.385389 285.72416 
L 329.931784 285.943446 
L 332.70967 285.705649 
L 334.330103 285.770438 
L 336.645008 286.683893 
L 338.959913 286.334317 
L 341.737798 284.909669 
L 343.821213 284.258218 
L 346.251863 284.200548 
L 348.914003 284.424106 
L 350.534436 284.488895 
L 352.849341 285.402351 
L 355.858717 285.136075 
L 358.173622 285.032127 
L 359.909801 284.73666 
L 362.10896 283.863787 
L 364.771101 283.935696 
L 367.086005 283.742753 
L 369.748146 283.802558 
L 372.063051 283.764112 
L 373.914974 283.972007 
L 377.734567 285.030703 
L 379.933727 285.68073 
L 380.628198 285.783254 
L 383.174593 284.804297 
L 386.878441 284.239707 
L 389.887817 283.786183 
L 392.665703 285.039959 
L 394.633372 285.530505 
L 396.832531 285.324746 
L 399.147436 285.925647 
L 406.09215 283.027937 
L 408.5228 283.3946 
L 410.837705 283.191689 
L 413.3841 283.569745 
L 416.972203 283.460813 
L 417.898165 283.497836 
L 420.67605 283.906506 
L 422.527974 284.1144 
L 425.074369 284.784362 
L 427.273529 285.146754 
L 429.241198 285.668627 
L 431.556103 285.173097 
L 434.102498 285.705649 
L 437.806346 285.81458 
L 438.616562 285.96267 
L 441.047212 286.915283 
L 443.130627 287.234957 
L 445.445531 286.730171 
L 447.760436 287.092563 
L 450.075341 286.587778 
L 452.505991 286.954441 
L 455.052386 286.733019 
L 457.020055 286.789265 
L 459.56645 285.943446 
L 461.649865 285.761183 
L 464.42775 286.673214 
L 467.900107 287.205054 
L 469.28905 287.479874 
L 470.909484 287.78602 
L 477.275472 285.552576 
L 478.085688 285.209407 
L 480.053357 284.149999 
L 482.599753 284.851287 
L 484.798912 284.916076 
L 487.229562 285.848043 
L 489.544467 285.766166 
L 495.79471 283.727801 
L 498.109614 282.757389 
L 499.498557 282.277522 
L 501.234736 281.837526 
L 503.665386 281.596169 
L 506.096036 281.111318 
L 507.94796 280.932614 
L 510.262864 279.86751 
L 512.80926 279.77353 
L 515.008419 279.314311 
L 517.207579 279.37554 
L 519.638229 278.427198 
L 523.457822 278.083318 
L 524.499529 278.047007 
L 526.582943 278.093285 
L 528.897848 277.441834 
L 531.097007 276.298414 
L 533.411912 276.081975 
L 535.958307 274.789753 
L 538.504702 274.276424 
L 542.787276 273.914744 
L 545.217926 272.985626 
L 547.301341 272.803362 
L 549.847736 273.625685 
L 554.593291 274.009436 
L 556.56096 274.41953 
L 558.875864 273.933255 
L 562.926948 275.29525 
L 564.31589 275.689681 
L 565.936324 276.006507 
L 568.482719 275.75803 
L 570.681879 275.310914 
L 573.112529 275.402758 
L 575.195943 275.885472 
L 577.626593 277.113617 
L 579.941498 277.589212 
L 582.719383 277.485265 
L 584.339817 277.359958 
L 586.886212 278.182281 
L 590.590059 278.30118 
L 591.516021 278.39516 
L 593.599436 278.833732 
L 595.91434 278.338202 
L 598.692226 279.134895 
L 600.54415 279.830488 
L 603.553526 278.986093 
L 605.40545 278.396584 
L 607.720355 278.205776 
L 609.803769 278.554641 
L 612.002928 280.139482 
L 614.433578 279.316447 
L 616.864228 279.517222 
L 619.063388 279.040915 
L 621.378293 279.394051 
L 623.577452 278.745448 
L 626.123847 279.883885 
L 629.017478 279.95793 
L 630.637912 279.78421 
L 632.952816 278.613734 
L 635.499212 278.989653 
L 637.582626 278.935544 
L 640.129021 279.937995 
L 642.212436 280.257669 
L 644.758831 279.537157 
L 647.073735 278.515482 
L 649.15715 278.205064 
L 651.703545 278.89425 
L 653.786959 278.939104 
L 656.4491 277.506624 
L 658.416769 276.146764 
L 660.963164 275.927478 
L 663.046578 276.257831 
L 665.245738 277.574261 
L 668.139369 276.441519 
L 670.685764 275.918935 
L 673.000669 275.5302 
L 674.621102 275.205542 
L 676.936007 275.701072 
L 683.880721 274.057138 
L 688.626276 274.850982 
L 692.445869 274.490014 
L 693.487576 274.517781 
L 695.57099 274.872341 
L 697.77015 275.880488 
L 701.705488 275.771557 
L 702.515704 275.803596 
L 704.714864 276.233624 
L 707.49275 274.979848 
L 709.576164 274.433057 
L 711.659578 274.378947 
L 713.974483 275.273891 
L 719.298764 274.067817 
L 722.539631 273.560184 
L 724.854535 273.241934 
L 725.549007 273.239798 
L 728.095402 274.218754 
L 730.873288 274.456552 
L 732.493721 274.521341 
L 735.618842 275.748774 
L 737.586511 276.240744 
L 741.058869 276.558994 
L 741.869085 276.51058 
L 744.762716 275.516672 
L 746.383149 274.892988 
L 750.318488 275.243989 
L 751.70743 275.310914 
L 753.675099 275.402758 
L 755.874259 275.7146 
L 758.304909 275.65693 
L 761.893011 275.989419 
L 762.818973 276.140357 
L 766.638566 277.431155 
L 767.333038 277.572837 
L 770.226668 277.498792 
L 773.467535 277.807074 
L 774.393497 277.827009 
L 777.171383 277.589212 
L 778.791816 277.663257 
L 781.106721 278.70985 
L 785.968021 278.205776 
L 788.051435 278.545385 
L 790.250595 279.997088 
L 793.144226 278.815933 
L 794.996149 277.901766 
L 797.65829 278.484868 
L 799.741704 279.155542 
L 801.940864 279.090753 
L 805.991947 277.462482 
L 808.306852 276.492069 
L 810.621756 275.611364 
L 813.746878 274.551956 
L 816.061783 274.361148 
L 818.260942 274.713572 
L 820.460102 275.567934 
L 823.006497 275.192015 
L 825.089911 275.25538 
L 827.520561 274.456552 
L 830.414192 274.352605 
L 832.266116 274.218754 
L 834.696766 274.425937 
L 840.599773 273.953902 
L 842.914678 273.778046 
L 844.303621 273.796557 
L 846.039799 273.805101 
L 848.238959 273.202776 
L 852.174297 274.037915 
L 853.56324 274.275712 
L 855.878144 274.456552 
L 857.614323 274.374676 
L 861.549661 273.048279 
L 862.128387 272.945755 
L 864.443292 273.716817 
L 867.452668 273.265429 
L 869.073102 273.073198 
L 871.272261 271.617223 
L 876.017816 272.692295 
L 880.068899 271.081111 
L 880.647625 270.952244 
L 883.078275 271.751073 
L 885.39318 271.832949 
L 889.328518 272.927244 
L 890.02299 273.01624 
L 892.916621 272.942196 
L 895.231525 272.980642 
L 896.967704 272.972098 
L 899.282609 273.60219 
L 902.17624 273.498243 
L 906.111578 273.10666 
L 908.773718 274.294223 
L 911.204368 274.779073 
L 914.676725 274.883733 
L 915.486942 274.801856 
L 917.917592 273.96031 
L 920.232497 272.796242 
L 923.010382 272.2167 
L 924.630816 272.082138 
L 926.94572 272.710806 
L 929.37637 272.014501 
L 931.691275 270.705192 
L 933.890435 270.234581 
L 936.205339 268.930967 
L 939.214716 269.382355 
L 942.455582 269.472775 
L 943.150054 269.407986 
L 945.580704 268.476019 
L 948.011354 268.569999 
L 951.715201 269.372387 
L 954.840323 269.867205 
L 957.039482 269.698469 
L 959.470132 270.945837 
L 961.553547 271.302533 
L 963.984197 269.927722 
L 966.299101 270.290114 
L 968.614006 269.813095 
L 973.359561 271.466286 
L 976.253192 271.362338 
L 977.98937 271.066871 
L 980.304275 270.184743 
L 982.503435 270.268043 
L 985.04983 271.560265 
L 987.133244 272.008093 
L 990.14262 271.348811 
L 992.457525 270.532895 
L 994.193704 269.899956 
L 997.087335 270.003903 
L 998.707768 270.268043 
L 1001.485654 271.692691 
L 1004.147794 272.793394 
L 1005.652482 273.43203 
L 1007.967387 273.10666 
L 1010.745273 274.360436 
L 1012.712942 274.883733 
L 1015.027846 274.965609 
L 1017.227006 275.567934 
L 1019.657656 275.201271 
L 1022.204051 275.60638 
L 1024.403211 276.18877 
L 1028.107058 276.307669 
L 1030.421963 276.4166 
L 1031.23218 276.548314 
L 1033.315594 277.278794 
L 1035.746244 275.614212 
L 1038.061149 275.787932 
L 1040.376053 274.493574 
L 1043.153939 275.063861 
L 1045.121608 275.266772 
L 1048.130984 276.259255 
L 1049.635672 276.536923 
L 1056.001661 274.303479 
L 1056.580387 274.208787 
L 1059.358272 274.779073 
L 1062.83063 275.101595 
L 1063.409356 275.145025 
L 1065.840006 273.60219 
L 1069.775344 273.711121 
L 1072.900465 273.985229 
L 1075.331115 274.788329 
L 1077.41453 274.979848 
L 1079.84518 274.314158 
L 1081.928594 274.284256 
L 1084.474989 272.20602 
L 1087.484365 271.028425 
L 1089.104799 270.644674 
L 1092.924391 271.223504 
L 1094.313334 271.375866 
L 1096.281003 271.405056 
L 1098.364418 271.246999 
L 1100.563577 271.695539 
L 1102.994227 270.896711 
L 1106.81382 270.78778 
L 1107.624037 270.819818 
L 1109.938941 271.307517 
L 1112.253846 271.066871 
L 1114.33726 270.210374 
L 1116.76791 271.874955 
L 1119.082815 271.664213 
L 1121.281975 272.435274 
L 1123.712625 270.584157 
L 1127.647963 269.749018 
L 1128.805415 269.351028 
L 1130.657339 268.636924 
L 1133.319479 269.056273 
L 1135.518639 269.638663 
L 1137.602053 269.702028 
L 1140.032703 268.9032 
L 1142.926334 268.799253 
L 1145.241239 268.618413 
L 1146.977417 268.536536 
L 1149.408067 267.88295 
L 1152.185953 267.816025 
L 1156.815763 267.996865 
L 1158.551941 267.988321 
L 1160.751101 268.553624 
L 1162.95026 267.647288 
L 1165.265165 269.323973 
L 1168.390286 268.851226 
L 1172.44137 268.503786 
L 1174.756274 267.621657 
L 1177.649905 267.51771 
L 1179.96481 267.128975 
L 1181.585244 266.804318 
L 1183.900148 267.262825 
L 1186.330798 266.16497 
L 1190.150391 265.58614 
L 1191.539334 265.433779 
L 1193.391258 265.225884 
L 1195.474672 264.501813 
L 1197.673832 262.644288 
L 1200.220227 263.015935 
L 1202.187896 262.652831 
L 1202.187896 262.652831 
" style="fill:none;stroke:#1f77b4;stroke-linecap:square;stroke-width:1.5;"/>
   </g>
   <g id="patch_3">
    <path d="M 87.329766 303.8 
L 87.329766 46.6 
" style="fill:none;stroke:#000000;stroke-linecap:square;stroke-linejoin:miter;stroke-width:0.8;"/>
   </g>
   <g id="patch_4">
    <path d="M 1418.4 303.8 
L 1418.4 46.6 
" style="fill:none;stroke:#000000;stroke-linecap:square;stroke-linejoin:miter;stroke-width:0.8;"/>
   </g>
   <g id="patch_5">
    <path d="M 87.329766 303.8 
L 1418.4 303.8 
" style="fill:none;stroke:#000000;stroke-linecap:square;stroke-linejoin:miter;stroke-width:0.8;"/>
   </g>
   <g id="patch_6">
    <path d="M 87.329766 46.6 
L 1418.4 46.6 
" style="fill:none;stroke:#000000;stroke-linecap:square;stroke-linejoin:miter;stroke-width:0.8;"/>
   </g>
   <g id="text_14">
    <!-- Avg. Last 10 Rewards: 16.0 || env_2_0 || Elapsed Time: 0:20:05 -->
    <defs>
     <path d="M 34.1875 63.1875 
L 20.796875 26.90625 
L 47.609375 26.90625 
z
M 28.609375 72.90625 
L 39.796875 72.90625 
L 67.578125 0 
L 57.328125 0 
L 50.6875 18.703125 
L 17.828125 18.703125 
L 11.1875 0 
L 0.78125 0 
z
" id="DejaVuSans-65"/>
     <path d="M 2.984375 54.6875 
L 12.5 54.6875 
L 29.59375 8.796875 
L 46.6875 54.6875 
L 56.203125 54.6875 
L 35.6875 0 
L 23.484375 0 
z
" id="DejaVuSans-118"/>
     <path d="M 45.40625 27.984375 
Q 45.40625 37.75 41.375 43.109375 
Q 37.359375 48.484375 30.078125 48.484375 
Q 22.859375 48.484375 18.828125 43.109375 
Q 14.796875 37.75 14.796875 27.984375 
Q 14.796875 18.265625 18.828125 12.890625 
Q 22.859375 7.515625 30.078125 7.515625 
Q 37.359375 7.515625 41.375 12.890625 
Q 45.40625 18.265625 45.40625 27.984375 
z
M 54.390625 6.78125 
Q 54.390625 -7.171875 48.1875 -13.984375 
Q 42 -20.796875 29.203125 -20.796875 
Q 24.46875 -20.796875 20.265625 -20.09375 
Q 16.0625 -19.390625 12.109375 -17.921875 
L 12.109375 -9.1875 
Q 16.0625 -11.328125 19.921875 -12.34375 
Q 23.78125 -13.375 27.78125 -13.375 
Q 36.625 -13.375 41.015625 -8.765625 
Q 45.40625 -4.15625 45.40625 5.171875 
L 45.40625 9.625 
Q 42.625 4.78125 38.28125 2.390625 
Q 33.9375 0 27.875 0 
Q 17.828125 0 11.671875 7.65625 
Q 5.515625 15.328125 5.515625 27.984375 
Q 5.515625 40.671875 11.671875 48.328125 
Q 17.828125 56 27.875 56 
Q 33.9375 56 38.28125 53.609375 
Q 42.625 51.21875 45.40625 46.390625 
L 45.40625 54.6875 
L 54.390625 54.6875 
z
" id="DejaVuSans-103"/>
     <path d="M 10.6875 12.40625 
L 21 12.40625 
L 21 0 
L 10.6875 0 
z
" id="DejaVuSans-46"/>
     <path id="DejaVuSans-32"/>
     <path d="M 9.8125 72.90625 
L 19.671875 72.90625 
L 19.671875 8.296875 
L 55.171875 8.296875 
L 55.171875 0 
L 9.8125 0 
z
" id="DejaVuSans-76"/>
     <path d="M 11.71875 12.40625 
L 22.015625 12.40625 
L 22.015625 0 
L 11.71875 0 
z
M 11.71875 51.703125 
L 22.015625 51.703125 
L 22.015625 39.3125 
L 11.71875 39.3125 
z
" id="DejaVuSans-58"/>
     <path d="M 21 76.421875 
L 21 -23.578125 
L 12.703125 -23.578125 
L 12.703125 76.421875 
z
" id="DejaVuSans-124"/>
     <path d="M 54.890625 33.015625 
L 54.890625 0 
L 45.90625 0 
L 45.90625 32.71875 
Q 45.90625 40.484375 42.875 44.328125 
Q 39.84375 48.1875 33.796875 48.1875 
Q 26.515625 48.1875 22.3125 43.546875 
Q 18.109375 38.921875 18.109375 30.90625 
L 18.109375 0 
L 9.078125 0 
L 9.078125 54.6875 
L 18.109375 54.6875 
L 18.109375 46.1875 
Q 21.34375 51.125 25.703125 53.5625 
Q 30.078125 56 35.796875 56 
Q 45.21875 56 50.046875 50.171875 
Q 54.890625 44.34375 54.890625 33.015625 
z
" id="DejaVuSans-110"/>
     <path d="M 50.984375 -16.609375 
L 50.984375 -23.578125 
L -0.984375 -23.578125 
L -0.984375 -16.609375 
z
" id="DejaVuSans-95"/>
     <path d="M 9.8125 72.90625 
L 55.90625 72.90625 
L 55.90625 64.59375 
L 19.671875 64.59375 
L 19.671875 43.015625 
L 54.390625 43.015625 
L 54.390625 34.71875 
L 19.671875 34.71875 
L 19.671875 8.296875 
L 56.78125 8.296875 
L 56.78125 0 
L 9.8125 0 
z
" id="DejaVuSans-69"/>
     <path d="M 9.421875 75.984375 
L 18.40625 75.984375 
L 18.40625 0 
L 9.421875 0 
z
" id="DejaVuSans-108"/>
    </defs>
    <g transform="translate(374.384883 40.6)scale(0.24 -0.24)">
     <use xlink:href="#DejaVuSans-65"/>
     <use x="62.533203" xlink:href="#DejaVuSans-118"/>
     <use x="121.712891" xlink:href="#DejaVuSans-103"/>
     <use x="185.189453" xlink:href="#DejaVuSans-46"/>
     <use x="216.976562" xlink:href="#DejaVuSans-32"/>
     <use x="248.763672" xlink:href="#DejaVuSans-76"/>
     <use x="304.476562" xlink:href="#DejaVuSans-97"/>
     <use x="365.755859" xlink:href="#DejaVuSans-115"/>
     <use x="417.855469" xlink:href="#DejaVuSans-116"/>
     <use x="457.064453" xlink:href="#DejaVuSans-32"/>
     <use x="488.851562" xlink:href="#DejaVuSans-49"/>
     <use x="552.474609" xlink:href="#DejaVuSans-48"/>
     <use x="616.097656" xlink:href="#DejaVuSans-32"/>
     <use x="647.884766" xlink:href="#DejaVuSans-82"/>
     <use x="712.867188" xlink:href="#DejaVuSans-101"/>
     <use x="774.390625" xlink:href="#DejaVuSans-119"/>
     <use x="856.177734" xlink:href="#DejaVuSans-97"/>
     <use x="917.457031" xlink:href="#DejaVuSans-114"/>
     <use x="956.820312" xlink:href="#DejaVuSans-100"/>
     <use x="1020.296875" xlink:href="#DejaVuSans-115"/>
     <use x="1072.396484" xlink:href="#DejaVuSans-58"/>
     <use x="1106.087891" xlink:href="#DejaVuSans-32"/>
     <use x="1137.875" xlink:href="#DejaVuSans-49"/>
     <use x="1201.498047" xlink:href="#DejaVuSans-54"/>
     <use x="1265.121094" xlink:href="#DejaVuSans-46"/>
     <use x="1296.908203" xlink:href="#DejaVuSans-48"/>
     <use x="1360.53125" xlink:href="#DejaVuSans-32"/>
     <use x="1392.318359" xlink:href="#DejaVuSans-124"/>
     <use x="1426.009766" xlink:href="#DejaVuSans-124"/>
     <use x="1459.701172" xlink:href="#DejaVuSans-32"/>
     <use x="1491.488281" xlink:href="#DejaVuSans-101"/>
     <use x="1553.011719" xlink:href="#DejaVuSans-110"/>
     <use x="1616.390625" xlink:href="#DejaVuSans-118"/>
     <use x="1675.570312" xlink:href="#DejaVuSans-95"/>
     <use x="1725.570312" xlink:href="#DejaVuSans-50"/>
     <use x="1789.193359" xlink:href="#DejaVuSans-95"/>
     <use x="1839.193359" xlink:href="#DejaVuSans-48"/>
     <use x="1902.816406" xlink:href="#DejaVuSans-32"/>
     <use x="1934.603516" xlink:href="#DejaVuSans-124"/>
     <use x="1968.294922" xlink:href="#DejaVuSans-124"/>
     <use x="2001.986328" xlink:href="#DejaVuSans-32"/>
     <use x="2033.773438" xlink:href="#DejaVuSans-69"/>
     <use x="2096.957031" xlink:href="#DejaVuSans-108"/>
     <use x="2124.740234" xlink:href="#DejaVuSans-97"/>
     <use x="2186.019531" xlink:href="#DejaVuSans-112"/>
     <use x="2249.496094" xlink:href="#DejaVuSans-115"/>
     <use x="2301.595703" xlink:href="#DejaVuSans-101"/>
     <use x="2363.119141" xlink:href="#DejaVuSans-100"/>
     <use x="2426.595703" xlink:href="#DejaVuSans-32"/>
     <use x="2458.382812" xlink:href="#DejaVuSans-84"/>
     <use x="2516.341797" xlink:href="#DejaVuSans-105"/>
     <use x="2544.125" xlink:href="#DejaVuSans-109"/>
     <use x="2641.537109" xlink:href="#DejaVuSans-101"/>
     <use x="2703.060547" xlink:href="#DejaVuSans-58"/>
     <use x="2736.751953" xlink:href="#DejaVuSans-32"/>
     <use x="2768.539062" xlink:href="#DejaVuSans-48"/>
     <use x="2832.162109" xlink:href="#DejaVuSans-58"/>
     <use x="2865.853516" xlink:href="#DejaVuSans-50"/>
     <use x="2929.476562" xlink:href="#DejaVuSans-48"/>
     <use x="2993.099609" xlink:href="#DejaVuSans-58"/>
     <use x="3026.791016" xlink:href="#DejaVuSans-48"/>
     <use x="3090.414062" xlink:href="#DejaVuSans-53"/>
    </g>
   </g>
   <g id="legend_1">
    <g id="patch_7">
     <path d="M 1304.036719 296.3 
L 1407.9 296.3 
Q 1410.9 296.3 1410.9 293.3 
L 1410.9 272.782813 
Q 1410.9 269.782813 1407.9 269.782813 
L 1304.036719 269.782813 
Q 1301.036719 269.782813 1301.036719 272.782813 
L 1301.036719 293.3 
Q 1301.036719 296.3 1304.036719 296.3 
z
" style="fill:#ffffff;opacity:0.8;stroke:#cccccc;stroke-linejoin:miter;"/>
    </g>
    <g id="line2d_13">
     <path d="M 1307.036719 281.930469 
L 1337.036719 281.930469 
" style="fill:none;stroke:#1f77b4;stroke-linecap:square;stroke-width:1.5;"/>
    </g>
    <g id="line2d_14"/>
    <g id="text_15">
     <!-- Reward -->
     <g transform="translate(1349.036719 287.180469)scale(0.15 -0.15)">
      <use xlink:href="#DejaVuSans-82"/>
      <use x="64.982422" xlink:href="#DejaVuSans-101"/>
      <use x="126.505859" xlink:href="#DejaVuSans-119"/>
      <use x="208.292969" xlink:href="#DejaVuSans-97"/>
      <use x="269.572266" xlink:href="#DejaVuSans-114"/>
      <use x="308.935547" xlink:href="#DejaVuSans-100"/>
     </g>
    </g>
   </g>
  </g>
  <g id="axes_2">
   <g id="patch_8">
    <path d="M 87.329766 656.6 
L 1418.4 656.6 
L 1418.4 399.4 
L 87.329766 399.4 
z
" style="fill:#ffffff;"/>
   </g>
   <g id="matplotlib.axis_3">
    <g id="xtick_7">
     <g id="line2d_15">
      <g>
       <use style="stroke:#000000;stroke-width:0.8;" x="203.075003" xlink:href="#m77c5ca4084" y="656.6"/>
      </g>
     </g>
     <g id="text_16">
      <!-- 1e+04 -->
      <g transform="translate(169.454691 678.796875)scale(0.2 -0.2)">
       <use xlink:href="#DejaVuSans-49"/>
       <use x="63.623047" xlink:href="#DejaVuSans-101"/>
       <use x="125.146484" xlink:href="#DejaVuSans-43"/>
       <use x="208.935547" xlink:href="#DejaVuSans-48"/>
       <use x="272.558594" xlink:href="#DejaVuSans-52"/>
      </g>
     </g>
    </g>
    <g id="xtick_8">
     <g id="line2d_16">
      <g>
       <use style="stroke:#000000;stroke-width:0.8;" x="318.820241" xlink:href="#m77c5ca4084" y="656.6"/>
      </g>
     </g>
     <g id="text_17">
      <!-- 2e+04 -->
      <g transform="translate(285.199929 678.796875)scale(0.2 -0.2)">
       <use xlink:href="#DejaVuSans-50"/>
       <use x="63.623047" xlink:href="#DejaVuSans-101"/>
       <use x="125.146484" xlink:href="#DejaVuSans-43"/>
       <use x="208.935547" xlink:href="#DejaVuSans-48"/>
       <use x="272.558594" xlink:href="#DejaVuSans-52"/>
      </g>
     </g>
    </g>
    <g id="xtick_9">
     <g id="line2d_17">
      <g>
       <use style="stroke:#000000;stroke-width:0.8;" x="550.310717" xlink:href="#m77c5ca4084" y="656.6"/>
      </g>
     </g>
     <g id="text_18">
      <!-- 4e+04 -->
      <g transform="translate(516.690404 678.796875)scale(0.2 -0.2)">
       <use xlink:href="#DejaVuSans-52"/>
       <use x="63.623047" xlink:href="#DejaVuSans-101"/>
       <use x="125.146484" xlink:href="#DejaVuSans-43"/>
       <use x="208.935547" xlink:href="#DejaVuSans-48"/>
       <use x="272.558594" xlink:href="#DejaVuSans-52"/>
      </g>
     </g>
    </g>
    <g id="xtick_10">
     <g id="line2d_18">
      <g>
       <use style="stroke:#000000;stroke-width:0.8;" x="781.801192" xlink:href="#m77c5ca4084" y="656.6"/>
      </g>
     </g>
     <g id="text_19">
      <!-- 6e+04 -->
      <g transform="translate(748.18088 678.796875)scale(0.2 -0.2)">
       <use xlink:href="#DejaVuSans-54"/>
       <use x="63.623047" xlink:href="#DejaVuSans-101"/>
       <use x="125.146484" xlink:href="#DejaVuSans-43"/>
       <use x="208.935547" xlink:href="#DejaVuSans-48"/>
       <use x="272.558594" xlink:href="#DejaVuSans-52"/>
      </g>
     </g>
    </g>
    <g id="xtick_11">
     <g id="line2d_19">
      <g>
       <use style="stroke:#000000;stroke-width:0.8;" x="1013.291668" xlink:href="#m77c5ca4084" y="656.6"/>
      </g>
     </g>
     <g id="text_20">
      <!-- 8e+04 -->
      <g transform="translate(979.671355 678.796875)scale(0.2 -0.2)">
       <use xlink:href="#DejaVuSans-56"/>
       <use x="63.623047" xlink:href="#DejaVuSans-101"/>
       <use x="125.146484" xlink:href="#DejaVuSans-43"/>
       <use x="208.935547" xlink:href="#DejaVuSans-48"/>
       <use x="272.558594" xlink:href="#DejaVuSans-52"/>
      </g>
     </g>
    </g>
    <g id="xtick_12">
     <g id="line2d_20">
      <g>
       <use style="stroke:#000000;stroke-width:0.8;" x="1244.782143" xlink:href="#m77c5ca4084" y="656.6"/>
      </g>
     </g>
     <g id="text_21">
      <!-- 1e+05 -->
      <g transform="translate(1211.161831 678.796875)scale(0.2 -0.2)">
       <use xlink:href="#DejaVuSans-49"/>
       <use x="63.623047" xlink:href="#DejaVuSans-101"/>
       <use x="125.146484" xlink:href="#DejaVuSans-43"/>
       <use x="208.935547" xlink:href="#DejaVuSans-48"/>
       <use x="272.558594" xlink:href="#DejaVuSans-53"/>
      </g>
     </g>
    </g>
    <g id="text_22">
     <!-- Timestep -->
     <g transform="translate(706.766445 702.153125)scale(0.2 -0.2)">
      <use xlink:href="#DejaVuSans-84"/>
      <use x="57.958984" xlink:href="#DejaVuSans-105"/>
      <use x="85.742188" xlink:href="#DejaVuSans-109"/>
      <use x="183.154297" xlink:href="#DejaVuSans-101"/>
      <use x="244.677734" xlink:href="#DejaVuSans-115"/>
      <use x="296.777344" xlink:href="#DejaVuSans-116"/>
      <use x="335.986328" xlink:href="#DejaVuSans-101"/>
      <use x="397.509766" xlink:href="#DejaVuSans-112"/>
     </g>
    </g>
   </g>
   <g id="matplotlib.axis_4">
    <g id="ytick_6">
     <g id="line2d_21">
      <defs>
       <path d="M 0 0 
L -3.5 0 
" id="m4fdbd0663c" style="stroke:#ff0000;stroke-width:0.8;"/>
      </defs>
      <g>
       <use style="fill:#ff0000;stroke:#ff0000;stroke-width:0.8;" x="87.329766" xlink:href="#m4fdbd0663c" y="542.755698"/>
      </g>
     </g>
     <g id="text_23">
      <!-- $\mathdefault{10^{-2}}$ -->
      <defs>
       <path d="M 10.59375 35.5 
L 73.1875 35.5 
L 73.1875 27.203125 
L 10.59375 27.203125 
z
" id="DejaVuSans-8722"/>
      </defs>
      <g style="fill:#ff0000;" transform="translate(45.079766 548.454526)scale(0.15 -0.15)">
       <use transform="translate(0 0.765625)" xlink:href="#DejaVuSans-49"/>
       <use transform="translate(63.623047 0.765625)" xlink:href="#DejaVuSans-48"/>
       <use transform="translate(128.203125 39.046875)scale(0.7)" xlink:href="#DejaVuSans-8722"/>
       <use transform="translate(186.855469 39.046875)scale(0.7)" xlink:href="#DejaVuSans-50"/>
      </g>
     </g>
    </g>
    <g id="ytick_7">
     <g id="line2d_22">
      <g>
       <use style="fill:#ff0000;stroke:#ff0000;stroke-width:0.8;" x="87.329766" xlink:href="#m4fdbd0663c" y="426.400944"/>
      </g>
     </g>
     <g id="text_24">
      <!-- $\mathdefault{10^{-1}}$ -->
      <g style="fill:#ff0000;" transform="translate(45.079766 432.099772)scale(0.15 -0.15)">
       <use transform="translate(0 0.684375)" xlink:href="#DejaVuSans-49"/>
       <use transform="translate(63.623047 0.684375)" xlink:href="#DejaVuSans-48"/>
       <use transform="translate(128.203125 38.965625)scale(0.7)" xlink:href="#DejaVuSans-8722"/>
       <use transform="translate(186.855469 38.965625)scale(0.7)" xlink:href="#DejaVuSans-49"/>
      </g>
     </g>
    </g>
    <g id="ytick_8">
     <g id="line2d_23">
      <defs>
       <path d="M 0 0 
L -2 0 
" id="m388da3e070" style="stroke:#000000;stroke-width:0.6;"/>
      </defs>
      <g>
       <use style="stroke:#000000;stroke-width:0.6;" x="87.329766" xlink:href="#m388da3e070" y="624.08418"/>
      </g>
     </g>
    </g>
    <g id="ytick_9">
     <g id="line2d_24">
      <g>
       <use style="stroke:#000000;stroke-width:0.6;" x="87.329766" xlink:href="#m388da3e070" y="603.595125"/>
      </g>
     </g>
    </g>
    <g id="ytick_10">
     <g id="line2d_25">
      <g>
       <use style="stroke:#000000;stroke-width:0.6;" x="87.329766" xlink:href="#m388da3e070" y="589.05791"/>
      </g>
     </g>
    </g>
    <g id="ytick_11">
     <g id="line2d_26">
      <g>
       <use style="stroke:#000000;stroke-width:0.6;" x="87.329766" xlink:href="#m388da3e070" y="577.781969"/>
      </g>
     </g>
    </g>
    <g id="ytick_12">
     <g id="line2d_27">
      <g>
       <use style="stroke:#000000;stroke-width:0.6;" x="87.329766" xlink:href="#m388da3e070" y="568.568854"/>
      </g>
     </g>
    </g>
    <g id="ytick_13">
     <g id="line2d_28">
      <g>
       <use style="stroke:#000000;stroke-width:0.6;" x="87.329766" xlink:href="#m388da3e070" y="560.779277"/>
      </g>
     </g>
    </g>
    <g id="ytick_14">
     <g id="line2d_29">
      <g>
       <use style="stroke:#000000;stroke-width:0.6;" x="87.329766" xlink:href="#m388da3e070" y="554.031639"/>
      </g>
     </g>
    </g>
    <g id="ytick_15">
     <g id="line2d_30">
      <g>
       <use style="stroke:#000000;stroke-width:0.6;" x="87.329766" xlink:href="#m388da3e070" y="548.079799"/>
      </g>
     </g>
    </g>
    <g id="ytick_16">
     <g id="line2d_31">
      <g>
       <use style="stroke:#000000;stroke-width:0.6;" x="87.329766" xlink:href="#m388da3e070" y="507.729427"/>
      </g>
     </g>
    </g>
    <g id="ytick_17">
     <g id="line2d_32">
      <g>
       <use style="stroke:#000000;stroke-width:0.6;" x="87.329766" xlink:href="#m388da3e070" y="487.240372"/>
      </g>
     </g>
    </g>
    <g id="ytick_18">
     <g id="line2d_33">
      <g>
       <use style="stroke:#000000;stroke-width:0.6;" x="87.329766" xlink:href="#m388da3e070" y="472.703156"/>
      </g>
     </g>
    </g>
    <g id="ytick_19">
     <g id="line2d_34">
      <g>
       <use style="stroke:#000000;stroke-width:0.6;" x="87.329766" xlink:href="#m388da3e070" y="461.427215"/>
      </g>
     </g>
    </g>
    <g id="ytick_20">
     <g id="line2d_35">
      <g>
       <use style="stroke:#000000;stroke-width:0.6;" x="87.329766" xlink:href="#m388da3e070" y="452.214101"/>
      </g>
     </g>
    </g>
    <g id="ytick_21">
     <g id="line2d_36">
      <g>
       <use style="stroke:#000000;stroke-width:0.6;" x="87.329766" xlink:href="#m388da3e070" y="444.424524"/>
      </g>
     </g>
    </g>
    <g id="ytick_22">
     <g id="line2d_37">
      <g>
       <use style="stroke:#000000;stroke-width:0.6;" x="87.329766" xlink:href="#m388da3e070" y="437.676885"/>
      </g>
     </g>
    </g>
    <g id="ytick_23">
     <g id="line2d_38">
      <g>
       <use style="stroke:#000000;stroke-width:0.6;" x="87.329766" xlink:href="#m388da3e070" y="431.725046"/>
      </g>
     </g>
    </g>
    <g id="text_25">
     <!-- Avg .Temporal Difference -->
     <defs>
      <path d="M 30.609375 48.390625 
Q 23.390625 48.390625 19.1875 42.75 
Q 14.984375 37.109375 14.984375 27.296875 
Q 14.984375 17.484375 19.15625 11.84375 
Q 23.34375 6.203125 30.609375 6.203125 
Q 37.796875 6.203125 41.984375 11.859375 
Q 46.1875 17.53125 46.1875 27.296875 
Q 46.1875 37.015625 41.984375 42.703125 
Q 37.796875 48.390625 30.609375 48.390625 
z
M 30.609375 56 
Q 42.328125 56 49.015625 48.375 
Q 55.71875 40.765625 55.71875 27.296875 
Q 55.71875 13.875 49.015625 6.21875 
Q 42.328125 -1.421875 30.609375 -1.421875 
Q 18.84375 -1.421875 12.171875 6.21875 
Q 5.515625 13.875 5.515625 27.296875 
Q 5.515625 40.765625 12.171875 48.375 
Q 18.84375 56 30.609375 56 
z
" id="DejaVuSans-111"/>
      <path d="M 19.671875 64.796875 
L 19.671875 8.109375 
L 31.59375 8.109375 
Q 46.6875 8.109375 53.6875 14.9375 
Q 60.6875 21.78125 60.6875 36.53125 
Q 60.6875 51.171875 53.6875 57.984375 
Q 46.6875 64.796875 31.59375 64.796875 
z
M 9.8125 72.90625 
L 30.078125 72.90625 
Q 51.265625 72.90625 61.171875 64.09375 
Q 71.09375 55.28125 71.09375 36.53125 
Q 71.09375 17.671875 61.125 8.828125 
Q 51.171875 0 30.078125 0 
L 9.8125 0 
z
" id="DejaVuSans-68"/>
      <path d="M 37.109375 75.984375 
L 37.109375 68.5 
L 28.515625 68.5 
Q 23.6875 68.5 21.796875 66.546875 
Q 19.921875 64.59375 19.921875 59.515625 
L 19.921875 54.6875 
L 34.71875 54.6875 
L 34.71875 47.703125 
L 19.921875 47.703125 
L 19.921875 0 
L 10.890625 0 
L 10.890625 47.703125 
L 2.296875 47.703125 
L 2.296875 54.6875 
L 10.890625 54.6875 
L 10.890625 58.5 
Q 10.890625 67.625 15.140625 71.796875 
Q 19.390625 75.984375 28.609375 75.984375 
z
" id="DejaVuSans-102"/>
      <path d="M 48.78125 52.59375 
L 48.78125 44.1875 
Q 44.96875 46.296875 41.140625 47.34375 
Q 37.3125 48.390625 33.40625 48.390625 
Q 24.65625 48.390625 19.8125 42.84375 
Q 14.984375 37.3125 14.984375 27.296875 
Q 14.984375 17.28125 19.8125 11.734375 
Q 24.65625 6.203125 33.40625 6.203125 
Q 37.3125 6.203125 41.140625 7.25 
Q 44.96875 8.296875 48.78125 10.40625 
L 48.78125 2.09375 
Q 45.015625 0.34375 40.984375 -0.53125 
Q 36.96875 -1.421875 32.421875 -1.421875 
Q 20.0625 -1.421875 12.78125 6.34375 
Q 5.515625 14.109375 5.515625 27.296875 
Q 5.515625 40.671875 12.859375 48.328125 
Q 20.21875 56 33.015625 56 
Q 37.15625 56 41.109375 55.140625 
Q 45.0625 54.296875 48.78125 52.59375 
z
" id="DejaVuSans-99"/>
     </defs>
     <g style="fill:#ff0000;" transform="translate(36.920391 653.540625)rotate(-90)scale(0.2 -0.2)">
      <use xlink:href="#DejaVuSans-65"/>
      <use x="62.533203" xlink:href="#DejaVuSans-118"/>
      <use x="121.712891" xlink:href="#DejaVuSans-103"/>
      <use x="185.189453" xlink:href="#DejaVuSans-32"/>
      <use x="216.976562" xlink:href="#DejaVuSans-46"/>
      <use x="248.763672" xlink:href="#DejaVuSans-84"/>
      <use x="292.847656" xlink:href="#DejaVuSans-101"/>
      <use x="354.371094" xlink:href="#DejaVuSans-109"/>
      <use x="451.783203" xlink:href="#DejaVuSans-112"/>
      <use x="515.259766" xlink:href="#DejaVuSans-111"/>
      <use x="576.441406" xlink:href="#DejaVuSans-114"/>
      <use x="617.554688" xlink:href="#DejaVuSans-97"/>
      <use x="678.833984" xlink:href="#DejaVuSans-108"/>
      <use x="706.617188" xlink:href="#DejaVuSans-32"/>
      <use x="738.404297" xlink:href="#DejaVuSans-68"/>
      <use x="815.40625" xlink:href="#DejaVuSans-105"/>
      <use x="843.189453" xlink:href="#DejaVuSans-102"/>
      <use x="878.394531" xlink:href="#DejaVuSans-102"/>
      <use x="913.599609" xlink:href="#DejaVuSans-101"/>
      <use x="975.123047" xlink:href="#DejaVuSans-114"/>
      <use x="1013.986328" xlink:href="#DejaVuSans-101"/>
      <use x="1075.509766" xlink:href="#DejaVuSans-110"/>
      <use x="1138.888672" xlink:href="#DejaVuSans-99"/>
      <use x="1193.869141" xlink:href="#DejaVuSans-101"/>
     </g>
    </g>
   </g>
   <g id="line2d_39">
    <path clip-path="url(#p2e27df7080)" d="M 87.329766 411.090909 
L 88.487218 426.970818 
L 89.64467 450.257275 
L 90.802123 454.581963 
L 91.959575 465.284595 
L 93.117028 480.354813 
L 94.27448 483.987284 
L 95.431932 483.288713 
L 96.589385 483.116365 
L 97.746837 486.828367 
L 98.904289 488.307622 
L 100.061742 443.120187 
L 101.219194 442.322009 
L 102.376647 448.396001 
L 103.534099 449.424226 
L 104.691551 452.026137 
L 107.006456 444.33774 
L 108.163908 446.679689 
L 109.321361 447.22967 
L 110.478813 454.325361 
L 111.636266 441.181325 
L 112.793718 439.649016 
L 113.95117 458.165833 
L 115.108623 458.080603 
L 116.266075 459.934227 
L 117.423527 469.021988 
L 118.58098 477.154863 
L 119.738432 462.113388 
L 120.895885 468.124857 
L 122.053337 471.693125 
L 123.210789 457.668294 
L 124.368242 455.461812 
L 125.525694 458.162546 
L 126.683146 458.389249 
L 127.840599 460.477103 
L 128.998051 465.979261 
L 130.155504 468.054054 
L 131.312956 474.371971 
L 132.470408 474.533627 
L 133.627861 473.41664 
L 134.785313 467.66684 
L 135.942765 461.161974 
L 138.25767 468.927456 
L 139.415123 469.231459 
L 140.572575 468.79974 
L 141.730027 472.227353 
L 142.88748 473.680629 
L 144.044932 474.502551 
L 146.359837 471.110912 
L 147.517289 470.140448 
L 148.674742 477.816505 
L 149.832194 483.381275 
L 150.989646 486.320622 
L 152.147099 487.138831 
L 153.304551 487.415303 
L 154.462004 488.080037 
L 155.619456 488.165044 
L 156.776908 488.835806 
L 159.091813 480.308028 
L 160.249265 480.323585 
L 161.406718 475.316503 
L 162.56417 477.545388 
L 163.721623 476.999762 
L 164.879075 477.541692 
L 166.036527 477.54636 
L 167.19398 476.694592 
L 168.351432 477.223553 
L 169.508884 478.404826 
L 170.666337 476.693106 
L 171.823789 477.168445 
L 172.981242 477.868838 
L 174.138694 476.541897 
L 175.296146 478.063187 
L 176.453599 480.767444 
L 177.611051 478.905547 
L 178.768503 481.44105 
L 179.925956 481.975563 
L 181.083408 480.899735 
L 182.240861 478.118806 
L 183.398313 478.382996 
L 184.555765 475.023586 
L 185.713218 479.428743 
L 186.87067 482.72735 
L 188.028122 483.408493 
L 189.185575 486.491586 
L 190.343027 486.379168 
L 191.50048 488.003847 
L 192.657932 484.459814 
L 193.815384 482.332699 
L 194.972837 482.769411 
L 196.130289 484.034976 
L 197.287742 488.927604 
L 198.445194 489.859234 
L 199.602646 488.386362 
L 200.760099 489.820987 
L 201.917551 490.696628 
L 203.075003 490.301481 
L 204.232456 486.631815 
L 205.389908 485.156628 
L 206.547361 486.232909 
L 207.704813 484.933028 
L 208.862265 487.738991 
L 211.17717 489.414733 
L 212.334622 492.315878 
L 214.649527 485.71618 
L 215.80698 484.619322 
L 216.964432 485.787105 
L 218.121884 486.593001 
L 219.279337 483.607672 
L 220.436789 487.387357 
L 221.594241 488.427379 
L 222.751694 489.71628 
L 223.909146 489.146235 
L 226.224051 491.955666 
L 227.381503 487.225477 
L 228.538956 485.046649 
L 229.696408 491.54859 
L 232.011313 491.944136 
L 233.168765 490.89536 
L 234.326218 491.099025 
L 235.48367 492.785961 
L 236.641122 492.744078 
L 237.798575 485.912773 
L 238.956027 495.637542 
L 240.113479 490.172018 
L 241.270932 487.709215 
L 242.428384 488.230858 
L 243.585837 493.976323 
L 244.743289 488.499792 
L 245.900741 490.346152 
L 247.058194 487.343107 
L 248.215646 489.513343 
L 249.373099 490.145898 
L 250.530551 489.29072 
L 251.688003 487.356029 
L 252.845456 491.132031 
L 254.002908 488.041902 
L 255.16036 484.107367 
L 256.317813 490.351284 
L 257.475265 490.121486 
L 258.632718 492.087131 
L 259.79017 487.510631 
L 260.947622 492.462268 
L 262.105075 491.607059 
L 263.262527 491.011747 
L 264.419979 490.184106 
L 265.577432 495.651262 
L 266.734884 494.147904 
L 267.892337 492.131342 
L 269.049789 494.015045 
L 270.207241 490.833755 
L 271.364694 490.497544 
L 272.522146 494.939647 
L 273.679598 493.156616 
L 274.837051 492.172299 
L 275.994503 495.92649 
L 277.151956 495.605302 
L 279.46686 492.086438 
L 280.624313 489.854055 
L 281.781765 492.029994 
L 282.939217 493.735315 
L 284.09667 496.001292 
L 285.254122 493.527471 
L 286.411575 490.631643 
L 288.726479 496.845343 
L 289.883932 496.432595 
L 291.041384 498.298978 
L 292.198836 498.2995 
L 293.356289 496.827611 
L 294.513741 495.00954 
L 295.671194 496.561455 
L 296.828646 496.447197 
L 297.986098 494.045462 
L 299.143551 495.503265 
L 300.301003 496.43125 
L 301.458456 493.812033 
L 302.615908 493.131826 
L 303.77336 494.647195 
L 304.930813 493.596101 
L 306.088265 495.223804 
L 307.245717 497.694885 
L 309.560622 492.113608 
L 310.718075 495.261284 
L 311.875527 497.435735 
L 313.032979 494.867388 
L 316.505336 504.861595 
L 317.662789 505.780243 
L 318.820241 504.052109 
L 319.977694 496.480083 
L 321.135146 485.252715 
L 322.292598 485.470843 
L 323.450051 490.432032 
L 324.607503 498.889773 
L 326.922408 506.926208 
L 328.07986 506.945091 
L 329.237313 507.110924 
L 330.394765 508.810771 
L 331.552217 506.678311 
L 332.70967 504.798185 
L 333.867122 506.590132 
L 335.024574 504.890784 
L 336.182027 504.545837 
L 337.339479 505.01694 
L 338.496932 506.686706 
L 339.654384 509.415452 
L 340.811836 509.343675 
L 341.969289 510.753931 
L 343.126741 506.476879 
L 344.284193 503.87286 
L 345.441646 501.96035 
L 346.599098 507.486576 
L 347.756551 501.53788 
L 348.914003 508.934059 
L 350.071455 498.46864 
L 351.228908 503.104601 
L 352.38636 505.198577 
L 353.543813 509.058874 
L 354.701265 499.755826 
L 355.858717 502.844752 
L 357.01617 503.756812 
L 358.173622 499.576183 
L 359.331074 498.128107 
L 360.488527 502.332933 
L 361.645979 512.060624 
L 362.803432 512.814243 
L 363.960884 514.626941 
L 365.118336 513.220471 
L 366.275789 514.537753 
L 367.433241 511.844477 
L 368.590693 514.556982 
L 369.748146 514.433022 
L 370.905598 515.553257 
L 372.063051 515.016223 
L 373.220503 515.231243 
L 374.377955 518.413234 
L 375.535408 518.472808 
L 376.69286 522.389033 
L 377.850312 517.02312 
L 379.007765 506.568943 
L 380.165217 503.671831 
L 381.32267 510.519345 
L 382.480122 512.457687 
L 383.637574 512.788096 
L 384.795027 512.019841 
L 387.109931 517.335348 
L 388.267384 517.16241 
L 389.424836 523.268125 
L 390.582289 518.806593 
L 391.739741 514.839582 
L 392.897193 518.511647 
L 394.054646 519.547473 
L 395.212098 515.819457 
L 397.527003 512.514898 
L 398.684455 513.290795 
L 399.841908 515.78839 
L 400.99936 512.992919 
L 402.156812 506.44273 
L 403.314265 505.736645 
L 404.471717 510.180096 
L 405.629169 506.902995 
L 406.786622 504.049682 
L 407.944074 507.99377 
L 409.101527 507.361894 
L 410.258979 508.86677 
L 411.416431 512.941101 
L 412.573884 511.177163 
L 413.731336 511.164665 
L 414.888789 514.745907 
L 416.046241 515.105567 
L 417.203693 514.279528 
L 418.361146 517.270763 
L 419.518598 515.864691 
L 420.67605 519.696343 
L 421.833503 526.66223 
L 422.990955 520.247223 
L 424.148408 512.524457 
L 425.30586 511.39775 
L 426.463312 519.486872 
L 427.620765 517.542139 
L 428.778217 517.691953 
L 429.935669 522.431806 
L 431.093122 518.724696 
L 432.250574 523.389323 
L 433.408027 522.932121 
L 434.565479 516.917366 
L 435.722931 512.928165 
L 436.880384 510.347937 
L 438.037836 510.480588 
L 439.195288 503.211567 
L 440.352741 513.409291 
L 441.510193 515.925076 
L 442.667646 514.550291 
L 443.825098 514.83385 
L 444.98255 512.819509 
L 446.140003 514.842479 
L 447.297455 520.514429 
L 448.454907 520.042571 
L 449.61236 516.129435 
L 450.769812 517.31177 
L 451.927265 518.772664 
L 453.084717 519.570799 
L 454.242169 515.04621 
L 455.399622 520.211099 
L 456.557074 519.352628 
L 457.714526 519.839813 
L 458.871979 523.039667 
L 460.029431 520.171517 
L 461.186884 521.624476 
L 462.344336 524.282847 
L 463.501788 524.45028 
L 464.659241 525.601194 
L 465.816693 519.23909 
L 466.974146 526.111628 
L 468.131598 523.032338 
L 469.28905 525.961465 
L 470.446503 520.041136 
L 471.603955 521.203855 
L 472.761407 517.409072 
L 473.91886 521.072191 
L 475.076312 524.337444 
L 476.233765 524.441571 
L 477.391217 523.672852 
L 478.548669 525.786789 
L 479.706122 526.370684 
L 480.863574 528.008981 
L 482.021026 521.63474 
L 483.178479 523.928129 
L 484.335931 523.276371 
L 485.493384 519.476645 
L 486.650836 525.5878 
L 487.808288 529.034486 
L 488.965741 529.018315 
L 490.123193 532.233107 
L 491.280645 527.413065 
L 492.438098 519.486388 
L 493.59555 518.776206 
L 494.753003 524.57078 
L 495.910455 527.38956 
L 497.067907 525.663263 
L 498.22536 530.197343 
L 499.382812 526.92749 
L 500.540264 528.442273 
L 501.697717 527.100385 
L 502.855169 531.07331 
L 504.012622 526.015175 
L 505.170074 523.296174 
L 506.327526 524.603438 
L 507.484979 524.309253 
L 508.642431 521.952363 
L 509.799883 519.253861 
L 510.957336 518.572015 
L 512.114788 520.042371 
L 513.272241 527.264278 
L 514.429693 526.840736 
L 515.587145 527.418346 
L 516.744598 522.157844 
L 517.90205 512.406629 
L 519.059503 514.17061 
L 520.216955 517.243727 
L 521.374407 521.186669 
L 522.53186 521.105758 
L 523.689312 520.699164 
L 524.846764 524.347208 
L 526.004217 524.366315 
L 527.161669 525.459218 
L 528.319122 524.248995 
L 529.476574 525.02049 
L 530.634026 526.76967 
L 531.791479 524.221415 
L 532.948931 526.763857 
L 534.106383 527.9488 
L 535.263836 524.748416 
L 536.421288 524.040508 
L 537.578741 534.701059 
L 538.736193 542.958254 
L 539.893645 541.351346 
L 541.051098 538.186113 
L 542.20855 536.322858 
L 543.366002 539.568936 
L 544.523455 542.3621 
L 545.680907 538.568786 
L 546.83836 540.994536 
L 547.995812 541.548267 
L 549.153264 538.976939 
L 550.310717 538.142084 
L 551.468169 533.510605 
L 552.625621 534.628949 
L 553.783074 536.595217 
L 554.940526 537.84923 
L 556.097979 543.549967 
L 557.255431 536.438752 
L 558.412883 535.805885 
L 559.570336 534.074647 
L 560.727788 535.74142 
L 561.88524 543.986442 
L 563.042693 545.506592 
L 564.200145 537.603085 
L 565.357598 537.457762 
L 566.51505 540.9109 
L 567.672502 541.867339 
L 568.829955 546.177387 
L 569.987407 547.05101 
L 571.14486 542.625239 
L 572.302312 540.37438 
L 573.459764 539.627201 
L 574.617217 546.51954 
L 575.774669 543.945116 
L 576.932121 543.277297 
L 578.089574 540.744422 
L 579.247026 548.359681 
L 581.561931 544.287458 
L 582.719383 544.268803 
L 583.876836 540.679257 
L 585.034288 548.132101 
L 586.19174 545.408215 
L 587.349193 538.66455 
L 588.506645 541.295666 
L 589.664098 546.434757 
L 590.82155 544.297729 
L 591.979002 541.830443 
L 593.136455 545.323751 
L 594.293907 542.510971 
L 595.451359 548.064028 
L 596.608812 544.106037 
L 597.766264 549.033376 
L 598.923717 537.835861 
L 600.081169 545.799335 
L 601.238621 542.134963 
L 602.396074 547.527594 
L 603.553526 546.537205 
L 604.710978 546.29385 
L 605.868431 546.262848 
L 607.025883 544.820585 
L 608.183336 546.81233 
L 609.340788 545.724847 
L 610.49824 549.348247 
L 611.655693 552.08223 
L 612.813145 558.915362 
L 615.12805 550.959361 
L 616.285502 550.0479 
L 617.442955 556.035266 
L 618.600407 555.380239 
L 619.757859 557.302122 
L 620.915312 558.307692 
L 622.072764 552.779716 
L 623.230217 551.620075 
L 624.387669 552.607462 
L 625.545121 553.063888 
L 626.702574 555.209681 
L 627.860026 555.637396 
L 629.017478 554.268651 
L 630.174931 553.83415 
L 631.332383 553.544908 
L 632.489836 545.203056 
L 633.647288 540.074194 
L 634.80474 545.528258 
L 635.962193 545.723139 
L 637.119645 547.104564 
L 638.277097 548.758242 
L 639.43455 552.428796 
L 640.592002 553.407673 
L 641.749455 543.952191 
L 642.906907 542.096509 
L 644.064359 547.429527 
L 645.221812 547.364341 
L 646.379264 549.313355 
L 647.536716 546.243595 
L 648.694169 546.396309 
L 649.851621 551.333951 
L 651.009074 549.25269 
L 652.166526 544.944042 
L 653.323978 545.445078 
L 654.481431 550.090987 
L 655.638883 553.276949 
L 656.796335 550.78683 
L 657.953788 549.270157 
L 659.11124 543.600944 
L 660.268693 542.888299 
L 661.426145 548.225287 
L 662.583597 550.969868 
L 663.74105 549.641201 
L 664.898502 550.982905 
L 666.055954 551.68889 
L 667.213407 548.972413 
L 668.370859 553.053469 
L 669.528312 558.664271 
L 670.685764 555.570994 
L 671.843216 553.779105 
L 673.000669 554.668369 
L 674.158121 554.68937 
L 675.315574 555.665727 
L 676.473026 556.991261 
L 677.630478 560.790576 
L 678.787931 558.4106 
L 679.945383 559.098574 
L 681.102835 570.628092 
L 682.260288 565.570963 
L 683.41774 556.762587 
L 684.575193 572.267592 
L 685.732645 575.145717 
L 686.890097 578.659431 
L 688.04755 575.86514 
L 689.205002 576.955185 
L 690.362454 578.310481 
L 691.519907 583.807325 
L 692.677359 583.799782 
L 693.834812 579.174355 
L 694.992264 584.713176 
L 696.149716 584.282943 
L 697.307169 584.990361 
L 698.464621 582.453941 
L 699.622073 581.014871 
L 700.779526 585.582685 
L 701.936978 583.091835 
L 703.094431 586.842799 
L 704.251883 587.198222 
L 705.409335 586.815095 
L 706.566788 586.103613 
L 707.72424 583.475105 
L 708.881692 584.177021 
L 710.039145 588.267175 
L 711.196597 582.866826 
L 712.35405 587.448627 
L 713.511502 582.519157 
L 714.668954 589.272854 
L 715.826407 587.292886 
L 716.983859 588.06541 
L 718.141311 587.891989 
L 719.298764 586.574845 
L 720.456216 587.78618 
L 721.613669 588.281891 
L 722.771121 585.777873 
L 723.928573 588.40095 
L 725.086026 585.8892 
L 726.243478 589.321436 
L 727.400931 590.72229 
L 728.558383 586.60224 
L 729.715835 587.146843 
L 730.873288 587.405144 
L 732.03074 588.821772 
L 733.188192 588.534414 
L 734.345645 590.098609 
L 736.66055 589.891431 
L 737.818002 590.928855 
L 738.975454 590.99907 
L 740.132907 592.45157 
L 741.290359 588.253874 
L 742.447811 586.752842 
L 743.605264 589.696842 
L 744.762716 588.889632 
L 745.920169 588.688778 
L 747.077621 589.222451 
L 748.235073 589.423953 
L 749.392526 591.685579 
L 750.549978 591.830925 
L 751.70743 591.04228 
L 752.864883 589.916813 
L 754.022335 590.105936 
L 755.179788 591.822293 
L 756.33724 592.670758 
L 757.494692 594.436098 
L 758.652145 592.26618 
L 760.967049 591.680466 
L 763.281954 595.763189 
L 764.439407 595.964837 
L 765.596859 595.385897 
L 766.754311 594.151209 
L 767.911764 592.726287 
L 769.069216 594.71783 
L 770.226668 594.166914 
L 771.384121 588.914261 
L 772.541573 588.816773 
L 773.699026 587.586055 
L 774.856478 590.308939 
L 776.01393 588.036231 
L 777.171383 590.505283 
L 778.328835 589.794647 
L 779.486288 591.912448 
L 780.64374 591.804399 
L 781.801192 595.557717 
L 782.958645 590.596239 
L 784.116097 592.024233 
L 785.273549 594.557728 
L 786.431002 592.284626 
L 787.588454 595.484071 
L 788.745907 594.142671 
L 789.903359 591.221162 
L 791.060811 592.363424 
L 792.218264 591.34943 
L 793.375716 590.941354 
L 794.533168 588.413991 
L 795.690621 593.890289 
L 796.848073 594.27528 
L 798.005526 589.389646 
L 799.162978 593.503819 
L 800.32043 592.869359 
L 801.477883 596.40156 
L 802.635335 595.927088 
L 803.792787 592.502401 
L 804.95024 594.597584 
L 806.107692 591.871005 
L 807.265145 594.053123 
L 808.422597 594.605348 
L 809.580049 592.726687 
L 810.737502 592.808103 
L 811.894954 596.150342 
L 813.052406 598.199327 
L 814.209859 602.984343 
L 815.367311 595.805169 
L 816.524764 599.894331 
L 817.682216 592.44569 
L 818.839668 599.965841 
L 819.997121 594.888967 
L 821.154573 592.545135 
L 822.312025 599.416575 
L 823.469478 599.355702 
L 824.62693 596.764879 
L 825.784383 596.672274 
L 826.941835 596.95605 
L 828.099287 598.189642 
L 829.25674 594.970993 
L 830.414192 597.381823 
L 831.571644 596.377538 
L 832.729097 601.079353 
L 833.886549 599.091811 
L 835.044002 598.857584 
L 836.201454 595.690616 
L 837.358906 598.891004 
L 838.516359 598.874145 
L 839.673811 598.726348 
L 840.831264 599.778532 
L 841.988716 599.605856 
L 843.146168 598.54921 
L 844.303621 595.773844 
L 845.461073 602.168026 
L 846.618525 598.14814 
L 847.775978 598.917523 
L 848.93343 600.92851 
L 850.090883 598.292952 
L 851.248335 597.236058 
L 852.405787 598.644702 
L 853.56324 598.56964 
L 854.720692 591.744885 
L 855.878144 580.626226 
L 857.035597 582.604155 
L 858.193049 583.98969 
L 859.350502 583.494069 
L 860.507954 580.556021 
L 861.665406 580.855624 
L 862.822859 583.447599 
L 863.980311 581.874182 
L 865.137763 577.81838 
L 866.295216 579.999822 
L 867.452668 584.020051 
L 868.610121 583.25895 
L 869.767573 581.467281 
L 870.925025 581.230223 
L 872.082478 581.1511 
L 873.23993 583.681059 
L 875.554835 582.16859 
L 876.712287 584.316313 
L 877.86974 584.73445 
L 879.027192 581.972108 
L 880.184644 578.356109 
L 881.342097 579.039545 
L 882.499549 579.318935 
L 883.657001 580.971445 
L 884.814454 578.191415 
L 885.971906 580.997684 
L 887.129359 584.608993 
L 888.286811 585.589899 
L 889.444263 587.679366 
L 890.601716 584.56959 
L 891.759168 582.234701 
L 892.916621 582.731308 
L 894.074073 583.546385 
L 895.231525 583.244775 
L 896.388978 583.752916 
L 897.54643 586.091572 
L 898.703882 582.742617 
L 899.861335 582.200139 
L 901.018787 585.527264 
L 902.17624 582.893374 
L 903.333692 582.675798 
L 904.491144 582.15138 
L 905.648597 578.599662 
L 906.806049 583.851122 
L 907.963501 584.204466 
L 909.120954 580.960512 
L 911.435859 589.969474 
L 912.593311 582.898794 
L 913.750763 584.902001 
L 914.908216 587.590913 
L 916.065668 581.726283 
L 917.22312 587.409579 
L 918.380573 581.817722 
L 919.538025 586.989028 
L 920.695478 588.387921 
L 923.010382 584.906416 
L 924.167835 588.669055 
L 925.325287 579.479414 
L 926.482739 585.922107 
L 927.640192 586.99562 
L 928.797644 584.033365 
L 931.112549 586.504303 
L 932.270001 589.787579 
L 933.427454 588.666245 
L 934.584906 592.477588 
L 935.742358 592.46857 
L 936.899811 594.119342 
L 938.057263 592.625161 
L 939.214716 593.863236 
L 940.372168 589.629903 
L 941.52962 593.9657 
L 942.687073 594.449586 
L 943.844525 591.549547 
L 945.001978 594.920888 
L 946.15943 596.576799 
L 947.316882 594.021195 
L 948.474335 594.959782 
L 949.631787 596.245307 
L 950.789239 600.21102 
L 951.946692 595.199532 
L 953.104144 599.328302 
L 954.261597 601.391124 
L 955.419049 598.588448 
L 956.576501 600.932599 
L 957.733954 602.907423 
L 958.891406 600.650825 
L 960.048858 599.674411 
L 961.206311 604.565684 
L 962.363763 602.305431 
L 963.521216 598.942379 
L 964.678668 600.914039 
L 965.83612 601.953667 
L 966.993573 601.989735 
L 968.151025 602.332921 
L 969.308477 601.858427 
L 970.46593 604.691675 
L 971.623382 602.077952 
L 972.780835 599.865457 
L 973.938287 600.564236 
L 975.095739 601.437996 
L 976.253192 600.835621 
L 977.410644 600.749723 
L 978.568096 601.244399 
L 979.725549 604.190915 
L 980.883001 603.103578 
L 982.040454 603.86096 
L 983.197906 605.878671 
L 984.355358 606.380684 
L 985.512811 607.889578 
L 986.670263 605.377445 
L 987.827715 606.205327 
L 988.985168 608.72118 
L 990.14262 609.043984 
L 991.300073 604.807418 
L 992.457525 605.9478 
L 993.614977 609.654928 
L 994.77243 606.141798 
L 995.929882 606.695943 
L 997.087335 606.906279 
L 998.244787 602.752238 
L 999.402239 607.199341 
L 1000.559692 608.622902 
L 1001.717144 607.647593 
L 1002.874596 605.942644 
L 1004.032049 605.498261 
L 1005.189501 606.853101 
L 1006.346954 605.538498 
L 1007.504406 605.827709 
L 1008.661858 604.193376 
L 1009.819311 607.483505 
L 1010.976763 608.770652 
L 1012.134215 610.71762 
L 1013.291668 606.581711 
L 1014.44912 603.347322 
L 1015.606573 606.489072 
L 1016.764025 603.807842 
L 1017.921477 605.934085 
L 1019.07893 600.185792 
L 1021.393834 607.484595 
L 1022.551287 602.249561 
L 1023.708739 604.268387 
L 1024.866192 603.964285 
L 1026.023644 604.161341 
L 1027.181096 606.554637 
L 1028.338549 612.500827 
L 1029.496001 605.403306 
L 1030.653453 605.750907 
L 1031.810906 605.347044 
L 1032.968358 606.776524 
L 1034.125811 607.964267 
L 1035.283263 608.012574 
L 1036.440715 601.433373 
L 1037.598168 601.577122 
L 1038.75562 597.344221 
L 1039.913072 600.796144 
L 1041.070525 602.471228 
L 1042.227977 604.811931 
L 1043.38543 603.73049 
L 1044.542882 607.271611 
L 1045.700334 602.01377 
L 1046.857787 606.71857 
L 1048.015239 604.027862 
L 1049.172692 603.805351 
L 1050.330144 603.246528 
L 1051.487596 603.563438 
L 1052.645049 598.33304 
L 1053.802501 604.215145 
L 1054.959953 603.935597 
L 1056.117406 604.243299 
L 1057.274858 604.333654 
L 1058.432311 602.032797 
L 1059.589763 601.950818 
L 1060.747215 608.790285 
L 1061.904668 601.999542 
L 1063.06212 603.782671 
L 1064.219572 601.450787 
L 1065.377025 605.874305 
L 1066.534477 603.973949 
L 1067.69193 603.592901 
L 1068.849382 600.922601 
L 1070.006834 604.726858 
L 1071.164287 605.122139 
L 1072.321739 606.784144 
L 1073.479191 609.446724 
L 1074.636644 606.849633 
L 1075.794096 606.091662 
L 1076.951549 605.166718 
L 1078.109001 606.42389 
L 1079.266453 607.481926 
L 1080.423906 607.274455 
L 1081.581358 606.619851 
L 1082.73881 607.340961 
L 1083.896263 608.273224 
L 1085.053715 606.228887 
L 1086.211168 605.068042 
L 1087.36862 607.919829 
L 1088.526072 608.806827 
L 1089.683525 608.013259 
L 1090.840977 607.053777 
L 1091.998429 604.876573 
L 1093.155882 606.883686 
L 1094.313334 610.324925 
L 1095.470787 610.841541 
L 1096.628239 608.422916 
L 1097.785691 603.402994 
L 1098.943144 603.156802 
L 1100.100596 607.77627 
L 1101.258049 610.588068 
L 1102.415501 610.594637 
L 1103.572953 611.207107 
L 1104.730406 610.792902 
L 1105.887858 609.511093 
L 1107.04531 605.712306 
L 1108.202763 608.039328 
L 1109.360215 608.399589 
L 1110.517668 607.533053 
L 1111.67512 608.222686 
L 1112.832572 608.048579 
L 1113.990025 605.326207 
L 1115.147477 607.017564 
L 1116.304929 609.173171 
L 1117.462382 607.135548 
L 1118.619834 606.071142 
L 1119.777287 604.304762 
L 1120.934739 607.267663 
L 1122.092191 610.620831 
L 1123.249644 609.888278 
L 1124.407096 605.132691 
L 1125.564548 610.472415 
L 1126.722001 608.19006 
L 1127.879453 609.948234 
L 1129.036906 612.337449 
L 1130.194358 608.245934 
L 1131.35181 606.851505 
L 1132.509263 609.39396 
L 1133.666715 610.112188 
L 1134.824167 614.070382 
L 1135.98162 609.579475 
L 1137.139072 610.424564 
L 1138.296525 612.963573 
L 1139.453977 610.403376 
L 1140.611429 610.688157 
L 1141.768882 611.102578 
L 1142.926334 610.38626 
L 1144.083786 610.916966 
L 1145.241239 611.265581 
L 1146.398691 613.923697 
L 1147.556144 614.997492 
L 1148.713596 616.541759 
L 1149.871048 616.753028 
L 1151.028501 612.125688 
L 1152.185953 621.019533 
L 1153.343406 617.654071 
L 1154.500858 615.697449 
L 1155.65831 612.569442 
L 1156.815763 611.137583 
L 1157.973215 613.749822 
L 1159.130667 610.050026 
L 1160.28812 620.906717 
L 1161.445572 627.177863 
L 1162.603025 627.663481 
L 1163.760477 627.387187 
L 1164.917929 627.96434 
L 1166.075382 632.871043 
L 1167.232834 627.995419 
L 1168.390286 628.263031 
L 1169.547739 628.288439 
L 1170.705191 631.292054 
L 1171.862644 627.418061 
L 1173.020096 630.739791 
L 1174.177548 631.573482 
L 1175.335001 631.251994 
L 1176.492453 631.388168 
L 1177.649905 628.903373 
L 1178.807358 629.146035 
L 1179.96481 630.124158 
L 1181.122263 630.851161 
L 1182.279715 630.505637 
L 1183.437167 633.077592 
L 1184.59462 632.680494 
L 1185.752072 625.509035 
L 1186.909524 632.087406 
L 1188.066977 634.236455 
L 1189.224429 627.984791 
L 1190.381882 629.811745 
L 1191.539334 628.406983 
L 1192.696786 632.576821 
L 1193.854239 627.095656 
L 1195.011691 626.255896 
L 1196.169143 634.058735 
L 1197.326596 633.970906 
L 1198.484048 633.586447 
L 1200.798953 629.430187 
L 1201.956405 629.615943 
L 1203.113858 627.795606 
L 1204.27131 627.805439 
L 1205.428763 633.766199 
L 1206.586215 634.579528 
L 1207.743667 630.761496 
L 1208.90112 628.954851 
L 1210.058572 630.647623 
L 1212.373477 634.899492 
L 1213.530929 635.508822 
L 1214.688382 634.589718 
L 1215.845834 633.523225 
L 1217.003286 634.689302 
L 1218.160739 632.248294 
L 1219.318191 633.455491 
L 1220.475643 635.832005 
L 1221.633096 634.154716 
L 1222.790548 634.875029 
L 1223.948001 636.3007 
L 1225.105453 635.742247 
L 1226.262905 635.009597 
L 1227.420358 635.162769 
L 1228.57781 636.491313 
L 1229.735262 636.700948 
L 1230.892715 638.234065 
L 1232.050167 637.675166 
L 1233.20762 638.63075 
L 1234.365072 637.272156 
L 1235.522524 639.98879 
L 1236.679977 641.944554 
L 1237.837429 642.406761 
L 1238.994881 644.909091 
L 1240.152334 643.860129 
L 1241.309786 641.649373 
L 1242.467239 641.336663 
L 1243.624691 643.721385 
L 1243.624691 643.721385 
" style="fill:none;stroke:#ff0000;stroke-linecap:square;stroke-width:1.5;"/>
   </g>
   <g id="patch_9">
    <path d="M 87.329766 656.6 
L 87.329766 399.4 
" style="fill:none;stroke:#000000;stroke-linecap:square;stroke-linejoin:miter;stroke-width:0.8;"/>
   </g>
   <g id="patch_10">
    <path d="M 1418.4 656.6 
L 1418.4 399.4 
" style="fill:none;stroke:#000000;stroke-linecap:square;stroke-linejoin:miter;stroke-width:0.8;"/>
   </g>
   <g id="patch_11">
    <path d="M 87.329766 656.6 
L 1418.4 656.6 
" style="fill:none;stroke:#000000;stroke-linecap:square;stroke-linejoin:miter;stroke-width:0.8;"/>
   </g>
   <g id="patch_12">
    <path d="M 87.329766 399.4 
L 1418.4 399.4 
" style="fill:none;stroke:#000000;stroke-linecap:square;stroke-linejoin:miter;stroke-width:0.8;"/>
   </g>
   <g id="text_26">
    <!-- Loss vs Timestep -->
    <g transform="translate(650.244258 393.4)scale(0.24 -0.24)">
     <use xlink:href="#DejaVuSans-76"/>
     <use x="53.962891" xlink:href="#DejaVuSans-111"/>
     <use x="115.144531" xlink:href="#DejaVuSans-115"/>
     <use x="167.244141" xlink:href="#DejaVuSans-115"/>
     <use x="219.34375" xlink:href="#DejaVuSans-32"/>
     <use x="251.130859" xlink:href="#DejaVuSans-118"/>
     <use x="310.310547" xlink:href="#DejaVuSans-115"/>
     <use x="362.410156" xlink:href="#DejaVuSans-32"/>
     <use x="394.197266" xlink:href="#DejaVuSans-84"/>
     <use x="452.15625" xlink:href="#DejaVuSans-105"/>
     <use x="479.939453" xlink:href="#DejaVuSans-109"/>
     <use x="577.351562" xlink:href="#DejaVuSans-101"/>
     <use x="638.875" xlink:href="#DejaVuSans-115"/>
     <use x="690.974609" xlink:href="#DejaVuSans-116"/>
     <use x="730.183594" xlink:href="#DejaVuSans-101"/>
     <use x="791.707031" xlink:href="#DejaVuSans-112"/>
    </g>
   </g>
   <g id="legend_2">
    <g id="patch_13">
     <path d="M 1301.873438 649.1 
L 1407.9 649.1 
Q 1410.9 649.1 1410.9 646.1 
L 1410.9 625.582813 
Q 1410.9 622.582813 1407.9 622.582813 
L 1301.873438 622.582813 
Q 1298.873438 622.582813 1298.873438 625.582813 
L 1298.873438 646.1 
Q 1298.873438 649.1 1301.873438 649.1 
z
" style="fill:#ffffff;opacity:0.8;stroke:#cccccc;stroke-linejoin:miter;"/>
    </g>
    <g id="line2d_40">
     <path d="M 1304.873438 634.730469 
L 1334.873438 634.730469 
" style="fill:none;stroke:#ff0000;stroke-linecap:square;stroke-width:1.5;"/>
    </g>
    <g id="line2d_41"/>
    <g id="text_27">
     <!-- Avg. TD -->
     <g transform="translate(1346.873438 639.980469)scale(0.15 -0.15)">
      <use xlink:href="#DejaVuSans-65"/>
      <use x="62.533203" xlink:href="#DejaVuSans-118"/>
      <use x="121.712891" xlink:href="#DejaVuSans-103"/>
      <use x="185.189453" xlink:href="#DejaVuSans-46"/>
      <use x="216.976562" xlink:href="#DejaVuSans-32"/>
      <use x="248.763672" xlink:href="#DejaVuSans-84"/>
      <use x="309.847656" xlink:href="#DejaVuSans-68"/>
     </g>
    </g>
   </g>
  </g>
  <g id="axes_3">
   <g id="patch_14">
    <path d="M 87.329766 1009.4 
L 1418.4 1009.4 
L 1418.4 752.2 
L 87.329766 752.2 
z
" style="fill:#ffffff;"/>
   </g>
   <g id="matplotlib.axis_5">
    <g id="xtick_13">
     <g id="line2d_42">
      <g>
       <use style="stroke:#000000;stroke-width:0.8;" x="203.075003" xlink:href="#m77c5ca4084" y="1009.4"/>
      </g>
     </g>
     <g id="text_28">
      <!-- 1e+04 -->
      <g transform="translate(169.454691 1031.596875)scale(0.2 -0.2)">
       <use xlink:href="#DejaVuSans-49"/>
       <use x="63.623047" xlink:href="#DejaVuSans-101"/>
       <use x="125.146484" xlink:href="#DejaVuSans-43"/>
       <use x="208.935547" xlink:href="#DejaVuSans-48"/>
       <use x="272.558594" xlink:href="#DejaVuSans-52"/>
      </g>
     </g>
    </g>
    <g id="xtick_14">
     <g id="line2d_43">
      <g>
       <use style="stroke:#000000;stroke-width:0.8;" x="318.820241" xlink:href="#m77c5ca4084" y="1009.4"/>
      </g>
     </g>
     <g id="text_29">
      <!-- 2e+04 -->
      <g transform="translate(285.199929 1031.596875)scale(0.2 -0.2)">
       <use xlink:href="#DejaVuSans-50"/>
       <use x="63.623047" xlink:href="#DejaVuSans-101"/>
       <use x="125.146484" xlink:href="#DejaVuSans-43"/>
       <use x="208.935547" xlink:href="#DejaVuSans-48"/>
       <use x="272.558594" xlink:href="#DejaVuSans-52"/>
      </g>
     </g>
    </g>
    <g id="xtick_15">
     <g id="line2d_44">
      <g>
       <use style="stroke:#000000;stroke-width:0.8;" x="550.310717" xlink:href="#m77c5ca4084" y="1009.4"/>
      </g>
     </g>
     <g id="text_30">
      <!-- 4e+04 -->
      <g transform="translate(516.690404 1031.596875)scale(0.2 -0.2)">
       <use xlink:href="#DejaVuSans-52"/>
       <use x="63.623047" xlink:href="#DejaVuSans-101"/>
       <use x="125.146484" xlink:href="#DejaVuSans-43"/>
       <use x="208.935547" xlink:href="#DejaVuSans-48"/>
       <use x="272.558594" xlink:href="#DejaVuSans-52"/>
      </g>
     </g>
    </g>
    <g id="xtick_16">
     <g id="line2d_45">
      <g>
       <use style="stroke:#000000;stroke-width:0.8;" x="781.801192" xlink:href="#m77c5ca4084" y="1009.4"/>
      </g>
     </g>
     <g id="text_31">
      <!-- 6e+04 -->
      <g transform="translate(748.18088 1031.596875)scale(0.2 -0.2)">
       <use xlink:href="#DejaVuSans-54"/>
       <use x="63.623047" xlink:href="#DejaVuSans-101"/>
       <use x="125.146484" xlink:href="#DejaVuSans-43"/>
       <use x="208.935547" xlink:href="#DejaVuSans-48"/>
       <use x="272.558594" xlink:href="#DejaVuSans-52"/>
      </g>
     </g>
    </g>
    <g id="xtick_17">
     <g id="line2d_46">
      <g>
       <use style="stroke:#000000;stroke-width:0.8;" x="1013.291668" xlink:href="#m77c5ca4084" y="1009.4"/>
      </g>
     </g>
     <g id="text_32">
      <!-- 8e+04 -->
      <g transform="translate(979.671355 1031.596875)scale(0.2 -0.2)">
       <use xlink:href="#DejaVuSans-56"/>
       <use x="63.623047" xlink:href="#DejaVuSans-101"/>
       <use x="125.146484" xlink:href="#DejaVuSans-43"/>
       <use x="208.935547" xlink:href="#DejaVuSans-48"/>
       <use x="272.558594" xlink:href="#DejaVuSans-52"/>
      </g>
     </g>
    </g>
    <g id="xtick_18">
     <g id="line2d_47">
      <g>
       <use style="stroke:#000000;stroke-width:0.8;" x="1244.782143" xlink:href="#m77c5ca4084" y="1009.4"/>
      </g>
     </g>
     <g id="text_33">
      <!-- 1e+05 -->
      <g transform="translate(1211.161831 1031.596875)scale(0.2 -0.2)">
       <use xlink:href="#DejaVuSans-49"/>
       <use x="63.623047" xlink:href="#DejaVuSans-101"/>
       <use x="125.146484" xlink:href="#DejaVuSans-43"/>
       <use x="208.935547" xlink:href="#DejaVuSans-48"/>
       <use x="272.558594" xlink:href="#DejaVuSans-53"/>
      </g>
     </g>
    </g>
    <g id="text_34">
     <!-- Timestep -->
     <g transform="translate(706.766445 1054.953125)scale(0.2 -0.2)">
      <use xlink:href="#DejaVuSans-84"/>
      <use x="57.958984" xlink:href="#DejaVuSans-105"/>
      <use x="85.742188" xlink:href="#DejaVuSans-109"/>
      <use x="183.154297" xlink:href="#DejaVuSans-101"/>
      <use x="244.677734" xlink:href="#DejaVuSans-115"/>
      <use x="296.777344" xlink:href="#DejaVuSans-116"/>
      <use x="335.986328" xlink:href="#DejaVuSans-101"/>
      <use x="397.509766" xlink:href="#DejaVuSans-112"/>
     </g>
    </g>
   </g>
   <g id="matplotlib.axis_6">
    <g id="ytick_24">
     <g id="line2d_48">
      <defs>
       <path d="M 0 0 
L -3.5 0 
" id="m5388698542" style="stroke:#000000;stroke-width:0.8;"/>
      </defs>
      <g>
       <use style="stroke:#000000;stroke-width:0.8;" x="87.329766" xlink:href="#m5388698542" y="1009.4"/>
      </g>
     </g>
     <g id="text_35">
      <!-- 0.0 -->
      <g transform="translate(56.475078 1015.098828)scale(0.15 -0.15)">
       <use xlink:href="#DejaVuSans-48"/>
       <use x="63.623047" xlink:href="#DejaVuSans-46"/>
       <use x="95.410156" xlink:href="#DejaVuSans-48"/>
      </g>
     </g>
    </g>
    <g id="ytick_25">
     <g id="line2d_49">
      <g>
       <use style="stroke:#000000;stroke-width:0.8;" x="87.329766" xlink:href="#m5388698542" y="957.96"/>
      </g>
     </g>
     <g id="text_36">
      <!-- 0.2 -->
      <g transform="translate(56.475078 963.658828)scale(0.15 -0.15)">
       <use xlink:href="#DejaVuSans-48"/>
       <use x="63.623047" xlink:href="#DejaVuSans-46"/>
       <use x="95.410156" xlink:href="#DejaVuSans-50"/>
      </g>
     </g>
    </g>
    <g id="ytick_26">
     <g id="line2d_50">
      <g>
       <use style="stroke:#000000;stroke-width:0.8;" x="87.329766" xlink:href="#m5388698542" y="906.52"/>
      </g>
     </g>
     <g id="text_37">
      <!-- 0.4 -->
      <g transform="translate(56.475078 912.218828)scale(0.15 -0.15)">
       <use xlink:href="#DejaVuSans-48"/>
       <use x="63.623047" xlink:href="#DejaVuSans-46"/>
       <use x="95.410156" xlink:href="#DejaVuSans-52"/>
      </g>
     </g>
    </g>
    <g id="ytick_27">
     <g id="line2d_51">
      <g>
       <use style="stroke:#000000;stroke-width:0.8;" x="87.329766" xlink:href="#m5388698542" y="855.08"/>
      </g>
     </g>
     <g id="text_38">
      <!-- 0.6 -->
      <g transform="translate(56.475078 860.778828)scale(0.15 -0.15)">
       <use xlink:href="#DejaVuSans-48"/>
       <use x="63.623047" xlink:href="#DejaVuSans-46"/>
       <use x="95.410156" xlink:href="#DejaVuSans-54"/>
      </g>
     </g>
    </g>
    <g id="ytick_28">
     <g id="line2d_52">
      <g>
       <use style="stroke:#000000;stroke-width:0.8;" x="87.329766" xlink:href="#m5388698542" y="803.64"/>
      </g>
     </g>
     <g id="text_39">
      <!-- 0.8 -->
      <g transform="translate(56.475078 809.338828)scale(0.15 -0.15)">
       <use xlink:href="#DejaVuSans-48"/>
       <use x="63.623047" xlink:href="#DejaVuSans-46"/>
       <use x="95.410156" xlink:href="#DejaVuSans-56"/>
      </g>
     </g>
    </g>
    <g id="ytick_29">
     <g id="line2d_53">
      <g>
       <use style="stroke:#000000;stroke-width:0.8;" x="87.329766" xlink:href="#m5388698542" y="752.2"/>
      </g>
     </g>
     <g id="text_40">
      <!-- 1.0 -->
      <g transform="translate(56.475078 757.898828)scale(0.15 -0.15)">
       <use xlink:href="#DejaVuSans-49"/>
       <use x="63.623047" xlink:href="#DejaVuSans-46"/>
       <use x="95.410156" xlink:href="#DejaVuSans-48"/>
      </g>
     </g>
    </g>
   </g>
   <g id="patch_15">
    <path d="M 87.329766 1009.4 
L 87.329766 752.2 
" style="fill:none;stroke:#000000;stroke-linecap:square;stroke-linejoin:miter;stroke-width:0.8;"/>
   </g>
   <g id="patch_16">
    <path d="M 1418.4 1009.4 
L 1418.4 752.2 
" style="fill:none;stroke:#000000;stroke-linecap:square;stroke-linejoin:miter;stroke-width:0.8;"/>
   </g>
   <g id="patch_17">
    <path d="M 87.329766 1009.4 
L 1418.4 1009.4 
" style="fill:none;stroke:#000000;stroke-linecap:square;stroke-linejoin:miter;stroke-width:0.8;"/>
   </g>
   <g id="patch_18">
    <path d="M 87.329766 752.2 
L 1418.4 752.2 
" style="fill:none;stroke:#000000;stroke-linecap:square;stroke-linejoin:miter;stroke-width:0.8;"/>
   </g>
   <g id="text_41">
    <!-- Action Selection Frequency(%) vs Timestep -->
    <defs>
     <path d="M 53.515625 70.515625 
L 53.515625 60.890625 
Q 47.90625 63.578125 42.921875 64.890625 
Q 37.9375 66.21875 33.296875 66.21875 
Q 25.25 66.21875 20.875 63.09375 
Q 16.5 59.96875 16.5 54.203125 
Q 16.5 49.359375 19.40625 46.890625 
Q 22.3125 44.4375 30.421875 42.921875 
L 36.375 41.703125 
Q 47.40625 39.59375 52.65625 34.296875 
Q 57.90625 29 57.90625 20.125 
Q 57.90625 9.515625 50.796875 4.046875 
Q 43.703125 -1.421875 29.984375 -1.421875 
Q 24.8125 -1.421875 18.96875 -0.25 
Q 13.140625 0.921875 6.890625 3.21875 
L 6.890625 13.375 
Q 12.890625 10.015625 18.65625 8.296875 
Q 24.421875 6.59375 29.984375 6.59375 
Q 38.421875 6.59375 43.015625 9.90625 
Q 47.609375 13.234375 47.609375 19.390625 
Q 47.609375 24.75 44.3125 27.78125 
Q 41.015625 30.8125 33.5 32.328125 
L 27.484375 33.5 
Q 16.453125 35.6875 11.515625 40.375 
Q 6.59375 45.0625 6.59375 53.421875 
Q 6.59375 63.09375 13.40625 68.65625 
Q 20.21875 74.21875 32.171875 74.21875 
Q 37.3125 74.21875 42.625 73.28125 
Q 47.953125 72.359375 53.515625 70.515625 
z
" id="DejaVuSans-83"/>
     <path d="M 9.8125 72.90625 
L 51.703125 72.90625 
L 51.703125 64.59375 
L 19.671875 64.59375 
L 19.671875 43.109375 
L 48.578125 43.109375 
L 48.578125 34.8125 
L 19.671875 34.8125 
L 19.671875 0 
L 9.8125 0 
z
" id="DejaVuSans-70"/>
     <path d="M 14.796875 27.296875 
Q 14.796875 17.390625 18.875 11.75 
Q 22.953125 6.109375 30.078125 6.109375 
Q 37.203125 6.109375 41.296875 11.75 
Q 45.40625 17.390625 45.40625 27.296875 
Q 45.40625 37.203125 41.296875 42.84375 
Q 37.203125 48.484375 30.078125 48.484375 
Q 22.953125 48.484375 18.875 42.84375 
Q 14.796875 37.203125 14.796875 27.296875 
z
M 45.40625 8.203125 
Q 42.578125 3.328125 38.25 0.953125 
Q 33.9375 -1.421875 27.875 -1.421875 
Q 17.96875 -1.421875 11.734375 6.484375 
Q 5.515625 14.40625 5.515625 27.296875 
Q 5.515625 40.1875 11.734375 48.09375 
Q 17.96875 56 27.875 56 
Q 33.9375 56 38.25 53.625 
Q 42.578125 51.265625 45.40625 46.390625 
L 45.40625 54.6875 
L 54.390625 54.6875 
L 54.390625 -20.796875 
L 45.40625 -20.796875 
z
" id="DejaVuSans-113"/>
     <path d="M 8.5 21.578125 
L 8.5 54.6875 
L 17.484375 54.6875 
L 17.484375 21.921875 
Q 17.484375 14.15625 20.5 10.265625 
Q 23.53125 6.390625 29.59375 6.390625 
Q 36.859375 6.390625 41.078125 11.03125 
Q 45.3125 15.671875 45.3125 23.6875 
L 45.3125 54.6875 
L 54.296875 54.6875 
L 54.296875 0 
L 45.3125 0 
L 45.3125 8.40625 
Q 42.046875 3.421875 37.71875 1 
Q 33.40625 -1.421875 27.6875 -1.421875 
Q 18.265625 -1.421875 13.375 4.4375 
Q 8.5 10.296875 8.5 21.578125 
z
M 31.109375 56 
z
" id="DejaVuSans-117"/>
     <path d="M 32.171875 -5.078125 
Q 28.375 -14.84375 24.75 -17.8125 
Q 21.140625 -20.796875 15.09375 -20.796875 
L 7.90625 -20.796875 
L 7.90625 -13.28125 
L 13.1875 -13.28125 
Q 16.890625 -13.28125 18.9375 -11.515625 
Q 21 -9.765625 23.484375 -3.21875 
L 25.09375 0.875 
L 2.984375 54.6875 
L 12.5 54.6875 
L 29.59375 11.921875 
L 46.6875 54.6875 
L 56.203125 54.6875 
z
" id="DejaVuSans-121"/>
     <path d="M 31 75.875 
Q 24.46875 64.65625 21.28125 53.65625 
Q 18.109375 42.671875 18.109375 31.390625 
Q 18.109375 20.125 21.3125 9.0625 
Q 24.515625 -2 31 -13.1875 
L 23.1875 -13.1875 
Q 15.875 -1.703125 12.234375 9.375 
Q 8.59375 20.453125 8.59375 31.390625 
Q 8.59375 42.28125 12.203125 53.3125 
Q 15.828125 64.359375 23.1875 75.875 
z
" id="DejaVuSans-40"/>
     <path d="M 72.703125 32.078125 
Q 68.453125 32.078125 66.03125 28.46875 
Q 63.625 24.859375 63.625 18.40625 
Q 63.625 12.0625 66.03125 8.421875 
Q 68.453125 4.78125 72.703125 4.78125 
Q 76.859375 4.78125 79.265625 8.421875 
Q 81.6875 12.0625 81.6875 18.40625 
Q 81.6875 24.8125 79.265625 28.4375 
Q 76.859375 32.078125 72.703125 32.078125 
z
M 72.703125 38.28125 
Q 80.421875 38.28125 84.953125 32.90625 
Q 89.5 27.546875 89.5 18.40625 
Q 89.5 9.28125 84.9375 3.921875 
Q 80.375 -1.421875 72.703125 -1.421875 
Q 64.890625 -1.421875 60.34375 3.921875 
Q 55.8125 9.28125 55.8125 18.40625 
Q 55.8125 27.59375 60.375 32.9375 
Q 64.9375 38.28125 72.703125 38.28125 
z
M 22.3125 68.015625 
Q 18.109375 68.015625 15.6875 64.375 
Q 13.28125 60.75 13.28125 54.390625 
Q 13.28125 47.953125 15.671875 44.328125 
Q 18.0625 40.71875 22.3125 40.71875 
Q 26.5625 40.71875 28.96875 44.328125 
Q 31.390625 47.953125 31.390625 54.390625 
Q 31.390625 60.6875 28.953125 64.34375 
Q 26.515625 68.015625 22.3125 68.015625 
z
M 66.40625 74.21875 
L 74.21875 74.21875 
L 28.609375 -1.421875 
L 20.796875 -1.421875 
z
M 22.3125 74.21875 
Q 30.03125 74.21875 34.609375 68.875 
Q 39.203125 63.53125 39.203125 54.390625 
Q 39.203125 45.171875 34.640625 39.84375 
Q 30.078125 34.515625 22.3125 34.515625 
Q 14.546875 34.515625 10.03125 39.859375 
Q 5.515625 45.21875 5.515625 54.390625 
Q 5.515625 63.484375 10.046875 68.84375 
Q 14.59375 74.21875 22.3125 74.21875 
z
" id="DejaVuSans-37"/>
     <path d="M 8.015625 75.875 
L 15.828125 75.875 
Q 23.140625 64.359375 26.78125 53.3125 
Q 30.421875 42.28125 30.421875 31.390625 
Q 30.421875 20.453125 26.78125 9.375 
Q 23.140625 -1.703125 15.828125 -13.1875 
L 8.015625 -13.1875 
Q 14.5 -2 17.703125 9.0625 
Q 20.90625 20.125 20.90625 31.390625 
Q 20.90625 42.671875 17.703125 53.65625 
Q 14.5 64.65625 8.015625 75.875 
z
" id="DejaVuSans-41"/>
    </defs>
    <g transform="translate(493.295508 746.2)scale(0.24 -0.24)">
     <use xlink:href="#DejaVuSans-65"/>
     <use x="66.658203" xlink:href="#DejaVuSans-99"/>
     <use x="121.638672" xlink:href="#DejaVuSans-116"/>
     <use x="160.847656" xlink:href="#DejaVuSans-105"/>
     <use x="188.630859" xlink:href="#DejaVuSans-111"/>
     <use x="249.8125" xlink:href="#DejaVuSans-110"/>
     <use x="313.191406" xlink:href="#DejaVuSans-32"/>
     <use x="344.978516" xlink:href="#DejaVuSans-83"/>
     <use x="408.455078" xlink:href="#DejaVuSans-101"/>
     <use x="469.978516" xlink:href="#DejaVuSans-108"/>
     <use x="497.761719" xlink:href="#DejaVuSans-101"/>
     <use x="559.285156" xlink:href="#DejaVuSans-99"/>
     <use x="614.265625" xlink:href="#DejaVuSans-116"/>
     <use x="653.474609" xlink:href="#DejaVuSans-105"/>
     <use x="681.257812" xlink:href="#DejaVuSans-111"/>
     <use x="742.439453" xlink:href="#DejaVuSans-110"/>
     <use x="805.818359" xlink:href="#DejaVuSans-32"/>
     <use x="837.605469" xlink:href="#DejaVuSans-70"/>
     <use x="887.875" xlink:href="#DejaVuSans-114"/>
     <use x="926.738281" xlink:href="#DejaVuSans-101"/>
     <use x="988.261719" xlink:href="#DejaVuSans-113"/>
     <use x="1051.738281" xlink:href="#DejaVuSans-117"/>
     <use x="1115.117188" xlink:href="#DejaVuSans-101"/>
     <use x="1176.640625" xlink:href="#DejaVuSans-110"/>
     <use x="1240.019531" xlink:href="#DejaVuSans-99"/>
     <use x="1295" xlink:href="#DejaVuSans-121"/>
     <use x="1354.179688" xlink:href="#DejaVuSans-40"/>
     <use x="1393.193359" xlink:href="#DejaVuSans-37"/>
     <use x="1488.212891" xlink:href="#DejaVuSans-41"/>
     <use x="1527.226562" xlink:href="#DejaVuSans-32"/>
     <use x="1559.013672" xlink:href="#DejaVuSans-118"/>
     <use x="1618.193359" xlink:href="#DejaVuSans-115"/>
     <use x="1670.292969" xlink:href="#DejaVuSans-32"/>
     <use x="1702.080078" xlink:href="#DejaVuSans-84"/>
     <use x="1760.039062" xlink:href="#DejaVuSans-105"/>
     <use x="1787.822266" xlink:href="#DejaVuSans-109"/>
     <use x="1885.234375" xlink:href="#DejaVuSans-101"/>
     <use x="1946.757812" xlink:href="#DejaVuSans-115"/>
     <use x="1998.857422" xlink:href="#DejaVuSans-116"/>
     <use x="2038.066406" xlink:href="#DejaVuSans-101"/>
     <use x="2099.589844" xlink:href="#DejaVuSans-112"/>
    </g>
   </g>
  </g>
 </g>
 <defs>
  <clipPath id="p1d96edfbcb">
   <rect height="257.2" width="1331.070234" x="87.329766" y="46.6"/>
  </clipPath>
  <clipPath id="p2e27df7080">
   <rect height="257.2" width="1331.070234" x="87.329766" y="399.4"/>
  </clipPath>
 </defs>
</svg>
