<?xml version="1.0" encoding="utf-8" standalone="no"?>
<!DOCTYPE svg PUBLIC "-//W3C//DTD SVG 1.1//EN"
  "http://www.w3.org/Graphics/SVG/1.1/DTD/svg11.dtd">
<!-- Created with matplotlib (https://matplotlib.org/) -->
<svg height="1080pt" version="1.1" viewBox="0 0 1440 1080" width="1440pt" xmlns="http://www.w3.org/2000/svg" xmlns:xlink="http://www.w3.org/1999/xlink">
 <defs>
  <style type="text/css">
*{stroke-linecap:butt;stroke-linejoin:round;}
  </style>
 </defs>
 <g id="figure_1">
  <g id="patch_1">
   <path d="M 0 1080 
L 1440 1080 
L 1440 0 
L 0 0 
z
" style="fill:#ffffff;"/>
  </g>
  <g id="axes_1">
   <g id="patch_2">
    <path d="M 87.329766 303.8 
L 1418.4 303.8 
L 1418.4 46.6 
L 87.329766 46.6 
z
" style="fill:#ffffff;"/>
   </g>
   <g id="matplotlib.axis_1">
    <g id="xtick_1">
     <g id="line2d_1">
      <defs>
       <path d="M 0 0 
L 0 3.5 
" id="m8c905dab83" style="stroke:#000000;stroke-width:0.8;"/>
      </defs>
      <g>
       <use style="stroke:#000000;stroke-width:0.8;" x="203.075003" xlink:href="#m8c905dab83" y="303.8"/>
      </g>
     </g>
     <g id="text_1">
      <!-- 1e+05 -->
      <defs>
       <path d="M 12.40625 8.296875 
L 28.515625 8.296875 
L 28.515625 63.921875 
L 10.984375 60.40625 
L 10.984375 69.390625 
L 28.421875 72.90625 
L 38.28125 72.90625 
L 38.28125 8.296875 
L 54.390625 8.296875 
L 54.390625 0 
L 12.40625 0 
z
" id="DejaVuSans-49"/>
       <path d="M 56.203125 29.59375 
L 56.203125 25.203125 
L 14.890625 25.203125 
Q 15.484375 15.921875 20.484375 11.0625 
Q 25.484375 6.203125 34.421875 6.203125 
Q 39.59375 6.203125 44.453125 7.46875 
Q 49.3125 8.734375 54.109375 11.28125 
L 54.109375 2.78125 
Q 49.265625 0.734375 44.1875 -0.34375 
Q 39.109375 -1.421875 33.890625 -1.421875 
Q 20.796875 -1.421875 13.15625 6.1875 
Q 5.515625 13.8125 5.515625 26.8125 
Q 5.515625 40.234375 12.765625 48.109375 
Q 20.015625 56 32.328125 56 
Q 43.359375 56 49.78125 48.890625 
Q 56.203125 41.796875 56.203125 29.59375 
z
M 47.21875 32.234375 
Q 47.125 39.59375 43.09375 43.984375 
Q 39.0625 48.390625 32.421875 48.390625 
Q 24.90625 48.390625 20.390625 44.140625 
Q 15.875 39.890625 15.1875 32.171875 
z
" id="DejaVuSans-101"/>
       <path d="M 46 62.703125 
L 46 35.5 
L 73.1875 35.5 
L 73.1875 27.203125 
L 46 27.203125 
L 46 0 
L 37.796875 0 
L 37.796875 27.203125 
L 10.59375 27.203125 
L 10.59375 35.5 
L 37.796875 35.5 
L 37.796875 62.703125 
z
" id="DejaVuSans-43"/>
       <path d="M 31.78125 66.40625 
Q 24.171875 66.40625 20.328125 58.90625 
Q 16.5 51.421875 16.5 36.375 
Q 16.5 21.390625 20.328125 13.890625 
Q 24.171875 6.390625 31.78125 6.390625 
Q 39.453125 6.390625 43.28125 13.890625 
Q 47.125 21.390625 47.125 36.375 
Q 47.125 51.421875 43.28125 58.90625 
Q 39.453125 66.40625 31.78125 66.40625 
z
M 31.78125 74.21875 
Q 44.046875 74.21875 50.515625 64.515625 
Q 56.984375 54.828125 56.984375 36.375 
Q 56.984375 17.96875 50.515625 8.265625 
Q 44.046875 -1.421875 31.78125 -1.421875 
Q 19.53125 -1.421875 13.0625 8.265625 
Q 6.59375 17.96875 6.59375 36.375 
Q 6.59375 54.828125 13.0625 64.515625 
Q 19.53125 74.21875 31.78125 74.21875 
z
" id="DejaVuSans-48"/>
       <path d="M 10.796875 72.90625 
L 49.515625 72.90625 
L 49.515625 64.59375 
L 19.828125 64.59375 
L 19.828125 46.734375 
Q 21.96875 47.46875 24.109375 47.828125 
Q 26.265625 48.1875 28.421875 48.1875 
Q 40.625 48.1875 47.75 41.5 
Q 54.890625 34.8125 54.890625 23.390625 
Q 54.890625 11.625 47.5625 5.09375 
Q 40.234375 -1.421875 26.90625 -1.421875 
Q 22.3125 -1.421875 17.546875 -0.640625 
Q 12.796875 0.140625 7.71875 1.703125 
L 7.71875 11.625 
Q 12.109375 9.234375 16.796875 8.0625 
Q 21.484375 6.890625 26.703125 6.890625 
Q 35.15625 6.890625 40.078125 11.328125 
Q 45.015625 15.765625 45.015625 23.390625 
Q 45.015625 31 40.078125 35.4375 
Q 35.15625 39.890625 26.703125 39.890625 
Q 22.75 39.890625 18.8125 39.015625 
Q 14.890625 38.140625 10.796875 36.28125 
z
" id="DejaVuSans-53"/>
      </defs>
      <g transform="translate(169.454691 325.996875)scale(0.2 -0.2)">
       <use xlink:href="#DejaVuSans-49"/>
       <use x="63.623047" xlink:href="#DejaVuSans-101"/>
       <use x="125.146484" xlink:href="#DejaVuSans-43"/>
       <use x="208.935547" xlink:href="#DejaVuSans-48"/>
       <use x="272.558594" xlink:href="#DejaVuSans-53"/>
      </g>
     </g>
    </g>
    <g id="xtick_2">
     <g id="line2d_2">
      <g>
       <use style="stroke:#000000;stroke-width:0.8;" x="318.820241" xlink:href="#m8c905dab83" y="303.8"/>
      </g>
     </g>
     <g id="text_2">
      <!-- 2e+05 -->
      <defs>
       <path d="M 19.1875 8.296875 
L 53.609375 8.296875 
L 53.609375 0 
L 7.328125 0 
L 7.328125 8.296875 
Q 12.9375 14.109375 22.625 23.890625 
Q 32.328125 33.6875 34.8125 36.53125 
Q 39.546875 41.84375 41.421875 45.53125 
Q 43.3125 49.21875 43.3125 52.78125 
Q 43.3125 58.59375 39.234375 62.25 
Q 35.15625 65.921875 28.609375 65.921875 
Q 23.96875 65.921875 18.8125 64.3125 
Q 13.671875 62.703125 7.8125 59.421875 
L 7.8125 69.390625 
Q 13.765625 71.78125 18.9375 73 
Q 24.125 74.21875 28.421875 74.21875 
Q 39.75 74.21875 46.484375 68.546875 
Q 53.21875 62.890625 53.21875 53.421875 
Q 53.21875 48.921875 51.53125 44.890625 
Q 49.859375 40.875 45.40625 35.40625 
Q 44.1875 33.984375 37.640625 27.21875 
Q 31.109375 20.453125 19.1875 8.296875 
z
" id="DejaVuSans-50"/>
      </defs>
      <g transform="translate(285.199929 325.996875)scale(0.2 -0.2)">
       <use xlink:href="#DejaVuSans-50"/>
       <use x="63.623047" xlink:href="#DejaVuSans-101"/>
       <use x="125.146484" xlink:href="#DejaVuSans-43"/>
       <use x="208.935547" xlink:href="#DejaVuSans-48"/>
       <use x="272.558594" xlink:href="#DejaVuSans-53"/>
      </g>
     </g>
    </g>
    <g id="xtick_3">
     <g id="line2d_3">
      <g>
       <use style="stroke:#000000;stroke-width:0.8;" x="550.310717" xlink:href="#m8c905dab83" y="303.8"/>
      </g>
     </g>
     <g id="text_3">
      <!-- 4e+05 -->
      <defs>
       <path d="M 37.796875 64.3125 
L 12.890625 25.390625 
L 37.796875 25.390625 
z
M 35.203125 72.90625 
L 47.609375 72.90625 
L 47.609375 25.390625 
L 58.015625 25.390625 
L 58.015625 17.1875 
L 47.609375 17.1875 
L 47.609375 0 
L 37.796875 0 
L 37.796875 17.1875 
L 4.890625 17.1875 
L 4.890625 26.703125 
z
" id="DejaVuSans-52"/>
      </defs>
      <g transform="translate(516.690404 325.996875)scale(0.2 -0.2)">
       <use xlink:href="#DejaVuSans-52"/>
       <use x="63.623047" xlink:href="#DejaVuSans-101"/>
       <use x="125.146484" xlink:href="#DejaVuSans-43"/>
       <use x="208.935547" xlink:href="#DejaVuSans-48"/>
       <use x="272.558594" xlink:href="#DejaVuSans-53"/>
      </g>
     </g>
    </g>
    <g id="xtick_4">
     <g id="line2d_4">
      <g>
       <use style="stroke:#000000;stroke-width:0.8;" x="781.801192" xlink:href="#m8c905dab83" y="303.8"/>
      </g>
     </g>
     <g id="text_4">
      <!-- 6e+05 -->
      <defs>
       <path d="M 33.015625 40.375 
Q 26.375 40.375 22.484375 35.828125 
Q 18.609375 31.296875 18.609375 23.390625 
Q 18.609375 15.53125 22.484375 10.953125 
Q 26.375 6.390625 33.015625 6.390625 
Q 39.65625 6.390625 43.53125 10.953125 
Q 47.40625 15.53125 47.40625 23.390625 
Q 47.40625 31.296875 43.53125 35.828125 
Q 39.65625 40.375 33.015625 40.375 
z
M 52.59375 71.296875 
L 52.59375 62.3125 
Q 48.875 64.0625 45.09375 64.984375 
Q 41.3125 65.921875 37.59375 65.921875 
Q 27.828125 65.921875 22.671875 59.328125 
Q 17.53125 52.734375 16.796875 39.40625 
Q 19.671875 43.65625 24.015625 45.921875 
Q 28.375 48.1875 33.59375 48.1875 
Q 44.578125 48.1875 50.953125 41.515625 
Q 57.328125 34.859375 57.328125 23.390625 
Q 57.328125 12.15625 50.6875 5.359375 
Q 44.046875 -1.421875 33.015625 -1.421875 
Q 20.359375 -1.421875 13.671875 8.265625 
Q 6.984375 17.96875 6.984375 36.375 
Q 6.984375 53.65625 15.1875 63.9375 
Q 23.390625 74.21875 37.203125 74.21875 
Q 40.921875 74.21875 44.703125 73.484375 
Q 48.484375 72.75 52.59375 71.296875 
z
" id="DejaVuSans-54"/>
      </defs>
      <g transform="translate(748.18088 325.996875)scale(0.2 -0.2)">
       <use xlink:href="#DejaVuSans-54"/>
       <use x="63.623047" xlink:href="#DejaVuSans-101"/>
       <use x="125.146484" xlink:href="#DejaVuSans-43"/>
       <use x="208.935547" xlink:href="#DejaVuSans-48"/>
       <use x="272.558594" xlink:href="#DejaVuSans-53"/>
      </g>
     </g>
    </g>
    <g id="xtick_5">
     <g id="line2d_5">
      <g>
       <use style="stroke:#000000;stroke-width:0.8;" x="1013.291668" xlink:href="#m8c905dab83" y="303.8"/>
      </g>
     </g>
     <g id="text_5">
      <!-- 8e+05 -->
      <defs>
       <path d="M 31.78125 34.625 
Q 24.75 34.625 20.71875 30.859375 
Q 16.703125 27.09375 16.703125 20.515625 
Q 16.703125 13.921875 20.71875 10.15625 
Q 24.75 6.390625 31.78125 6.390625 
Q 38.8125 6.390625 42.859375 10.171875 
Q 46.921875 13.96875 46.921875 20.515625 
Q 46.921875 27.09375 42.890625 30.859375 
Q 38.875 34.625 31.78125 34.625 
z
M 21.921875 38.8125 
Q 15.578125 40.375 12.03125 44.71875 
Q 8.5 49.078125 8.5 55.328125 
Q 8.5 64.0625 14.71875 69.140625 
Q 20.953125 74.21875 31.78125 74.21875 
Q 42.671875 74.21875 48.875 69.140625 
Q 55.078125 64.0625 55.078125 55.328125 
Q 55.078125 49.078125 51.53125 44.71875 
Q 48 40.375 41.703125 38.8125 
Q 48.828125 37.15625 52.796875 32.3125 
Q 56.78125 27.484375 56.78125 20.515625 
Q 56.78125 9.90625 50.3125 4.234375 
Q 43.84375 -1.421875 31.78125 -1.421875 
Q 19.734375 -1.421875 13.25 4.234375 
Q 6.78125 9.90625 6.78125 20.515625 
Q 6.78125 27.484375 10.78125 32.3125 
Q 14.796875 37.15625 21.921875 38.8125 
z
M 18.3125 54.390625 
Q 18.3125 48.734375 21.84375 45.5625 
Q 25.390625 42.390625 31.78125 42.390625 
Q 38.140625 42.390625 41.71875 45.5625 
Q 45.3125 48.734375 45.3125 54.390625 
Q 45.3125 60.0625 41.71875 63.234375 
Q 38.140625 66.40625 31.78125 66.40625 
Q 25.390625 66.40625 21.84375 63.234375 
Q 18.3125 60.0625 18.3125 54.390625 
z
" id="DejaVuSans-56"/>
      </defs>
      <g transform="translate(979.671355 325.996875)scale(0.2 -0.2)">
       <use xlink:href="#DejaVuSans-56"/>
       <use x="63.623047" xlink:href="#DejaVuSans-101"/>
       <use x="125.146484" xlink:href="#DejaVuSans-43"/>
       <use x="208.935547" xlink:href="#DejaVuSans-48"/>
       <use x="272.558594" xlink:href="#DejaVuSans-53"/>
      </g>
     </g>
    </g>
    <g id="xtick_6">
     <g id="line2d_6">
      <g>
       <use style="stroke:#000000;stroke-width:0.8;" x="1244.782143" xlink:href="#m8c905dab83" y="303.8"/>
      </g>
     </g>
     <g id="text_6">
      <!-- 1e+06 -->
      <g transform="translate(1211.161831 325.996875)scale(0.2 -0.2)">
       <use xlink:href="#DejaVuSans-49"/>
       <use x="63.623047" xlink:href="#DejaVuSans-101"/>
       <use x="125.146484" xlink:href="#DejaVuSans-43"/>
       <use x="208.935547" xlink:href="#DejaVuSans-48"/>
       <use x="272.558594" xlink:href="#DejaVuSans-54"/>
      </g>
     </g>
    </g>
    <g id="text_7">
     <!-- Timestep -->
     <defs>
      <path d="M -0.296875 72.90625 
L 61.375 72.90625 
L 61.375 64.59375 
L 35.5 64.59375 
L 35.5 0 
L 25.59375 0 
L 25.59375 64.59375 
L -0.296875 64.59375 
z
" id="DejaVuSans-84"/>
      <path d="M 9.421875 54.6875 
L 18.40625 54.6875 
L 18.40625 0 
L 9.421875 0 
z
M 9.421875 75.984375 
L 18.40625 75.984375 
L 18.40625 64.59375 
L 9.421875 64.59375 
z
" id="DejaVuSans-105"/>
      <path d="M 52 44.1875 
Q 55.375 50.25 60.0625 53.125 
Q 64.75 56 71.09375 56 
Q 79.640625 56 84.28125 50.015625 
Q 88.921875 44.046875 88.921875 33.015625 
L 88.921875 0 
L 79.890625 0 
L 79.890625 32.71875 
Q 79.890625 40.578125 77.09375 44.375 
Q 74.3125 48.1875 68.609375 48.1875 
Q 61.625 48.1875 57.5625 43.546875 
Q 53.515625 38.921875 53.515625 30.90625 
L 53.515625 0 
L 44.484375 0 
L 44.484375 32.71875 
Q 44.484375 40.625 41.703125 44.40625 
Q 38.921875 48.1875 33.109375 48.1875 
Q 26.21875 48.1875 22.15625 43.53125 
Q 18.109375 38.875 18.109375 30.90625 
L 18.109375 0 
L 9.078125 0 
L 9.078125 54.6875 
L 18.109375 54.6875 
L 18.109375 46.1875 
Q 21.1875 51.21875 25.484375 53.609375 
Q 29.78125 56 35.6875 56 
Q 41.65625 56 45.828125 52.96875 
Q 50 49.953125 52 44.1875 
z
" id="DejaVuSans-109"/>
      <path d="M 44.28125 53.078125 
L 44.28125 44.578125 
Q 40.484375 46.53125 36.375 47.5 
Q 32.28125 48.484375 27.875 48.484375 
Q 21.1875 48.484375 17.84375 46.4375 
Q 14.5 44.390625 14.5 40.28125 
Q 14.5 37.15625 16.890625 35.375 
Q 19.28125 33.59375 26.515625 31.984375 
L 29.59375 31.296875 
Q 39.15625 29.25 43.1875 25.515625 
Q 47.21875 21.78125 47.21875 15.09375 
Q 47.21875 7.46875 41.1875 3.015625 
Q 35.15625 -1.421875 24.609375 -1.421875 
Q 20.21875 -1.421875 15.453125 -0.5625 
Q 10.6875 0.296875 5.421875 2 
L 5.421875 11.28125 
Q 10.40625 8.6875 15.234375 7.390625 
Q 20.0625 6.109375 24.8125 6.109375 
Q 31.15625 6.109375 34.5625 8.28125 
Q 37.984375 10.453125 37.984375 14.40625 
Q 37.984375 18.0625 35.515625 20.015625 
Q 33.0625 21.96875 24.703125 23.78125 
L 21.578125 24.515625 
Q 13.234375 26.265625 9.515625 29.90625 
Q 5.8125 33.546875 5.8125 39.890625 
Q 5.8125 47.609375 11.28125 51.796875 
Q 16.75 56 26.8125 56 
Q 31.78125 56 36.171875 55.265625 
Q 40.578125 54.546875 44.28125 53.078125 
z
" id="DejaVuSans-115"/>
      <path d="M 18.3125 70.21875 
L 18.3125 54.6875 
L 36.8125 54.6875 
L 36.8125 47.703125 
L 18.3125 47.703125 
L 18.3125 18.015625 
Q 18.3125 11.328125 20.140625 9.421875 
Q 21.96875 7.515625 27.59375 7.515625 
L 36.8125 7.515625 
L 36.8125 0 
L 27.59375 0 
Q 17.1875 0 13.234375 3.875 
Q 9.28125 7.765625 9.28125 18.015625 
L 9.28125 47.703125 
L 2.6875 47.703125 
L 2.6875 54.6875 
L 9.28125 54.6875 
L 9.28125 70.21875 
z
" id="DejaVuSans-116"/>
      <path d="M 18.109375 8.203125 
L 18.109375 -20.796875 
L 9.078125 -20.796875 
L 9.078125 54.6875 
L 18.109375 54.6875 
L 18.109375 46.390625 
Q 20.953125 51.265625 25.265625 53.625 
Q 29.59375 56 35.59375 56 
Q 45.5625 56 51.78125 48.09375 
Q 58.015625 40.1875 58.015625 27.296875 
Q 58.015625 14.40625 51.78125 6.484375 
Q 45.5625 -1.421875 35.59375 -1.421875 
Q 29.59375 -1.421875 25.265625 0.953125 
Q 20.953125 3.328125 18.109375 8.203125 
z
M 48.6875 27.296875 
Q 48.6875 37.203125 44.609375 42.84375 
Q 40.53125 48.484375 33.40625 48.484375 
Q 26.265625 48.484375 22.1875 42.84375 
Q 18.109375 37.203125 18.109375 27.296875 
Q 18.109375 17.390625 22.1875 11.75 
Q 26.265625 6.109375 33.40625 6.109375 
Q 40.53125 6.109375 44.609375 11.75 
Q 48.6875 17.390625 48.6875 27.296875 
z
" id="DejaVuSans-112"/>
     </defs>
     <g transform="translate(706.766445 349.353125)scale(0.2 -0.2)">
      <use xlink:href="#DejaVuSans-84"/>
      <use x="57.958984" xlink:href="#DejaVuSans-105"/>
      <use x="85.742188" xlink:href="#DejaVuSans-109"/>
      <use x="183.154297" xlink:href="#DejaVuSans-101"/>
      <use x="244.677734" xlink:href="#DejaVuSans-115"/>
      <use x="296.777344" xlink:href="#DejaVuSans-116"/>
      <use x="335.986328" xlink:href="#DejaVuSans-101"/>
      <use x="397.509766" xlink:href="#DejaVuSans-112"/>
     </g>
    </g>
   </g>
   <g id="matplotlib.axis_2">
    <g id="ytick_1">
     <g id="line2d_7">
      <defs>
       <path d="M 0 0 
L -3.5 0 
" id="m9eba24b6cf" style="stroke:#1f77b4;stroke-width:0.8;"/>
      </defs>
      <g>
       <use style="fill:#1f77b4;stroke:#1f77b4;stroke-width:0.8;" x="87.329766" xlink:href="#m9eba24b6cf" y="275.085926"/>
      </g>
     </g>
     <g id="text_8">
      <!-- 40 -->
      <g style="fill:#1f77b4;" transform="translate(61.242266 280.784754)scale(0.15 -0.15)">
       <use xlink:href="#DejaVuSans-52"/>
       <use x="63.623047" xlink:href="#DejaVuSans-48"/>
      </g>
     </g>
    </g>
    <g id="ytick_2">
     <g id="line2d_8">
      <g>
       <use style="fill:#1f77b4;stroke:#1f77b4;stroke-width:0.8;" x="87.329766" xlink:href="#m9eba24b6cf" y="236.032782"/>
      </g>
     </g>
     <g id="text_9">
      <!-- 42 -->
      <g style="fill:#1f77b4;" transform="translate(61.242266 241.73161)scale(0.15 -0.15)">
       <use xlink:href="#DejaVuSans-52"/>
       <use x="63.623047" xlink:href="#DejaVuSans-50"/>
      </g>
     </g>
    </g>
    <g id="ytick_3">
     <g id="line2d_9">
      <g>
       <use style="fill:#1f77b4;stroke:#1f77b4;stroke-width:0.8;" x="87.329766" xlink:href="#m9eba24b6cf" y="196.979638"/>
      </g>
     </g>
     <g id="text_10">
      <!-- 44 -->
      <g style="fill:#1f77b4;" transform="translate(61.242266 202.678466)scale(0.15 -0.15)">
       <use xlink:href="#DejaVuSans-52"/>
       <use x="63.623047" xlink:href="#DejaVuSans-52"/>
      </g>
     </g>
    </g>
    <g id="ytick_4">
     <g id="line2d_10">
      <g>
       <use style="fill:#1f77b4;stroke:#1f77b4;stroke-width:0.8;" x="87.329766" xlink:href="#m9eba24b6cf" y="157.926494"/>
      </g>
     </g>
     <g id="text_11">
      <!-- 46 -->
      <g style="fill:#1f77b4;" transform="translate(61.242266 163.625322)scale(0.15 -0.15)">
       <use xlink:href="#DejaVuSans-52"/>
       <use x="63.623047" xlink:href="#DejaVuSans-54"/>
      </g>
     </g>
    </g>
    <g id="ytick_5">
     <g id="line2d_11">
      <g>
       <use style="fill:#1f77b4;stroke:#1f77b4;stroke-width:0.8;" x="87.329766" xlink:href="#m9eba24b6cf" y="118.87335"/>
      </g>
     </g>
     <g id="text_12">
      <!-- 48 -->
      <g style="fill:#1f77b4;" transform="translate(61.242266 124.572178)scale(0.15 -0.15)">
       <use xlink:href="#DejaVuSans-52"/>
       <use x="63.623047" xlink:href="#DejaVuSans-56"/>
      </g>
     </g>
    </g>
    <g id="ytick_6">
     <g id="line2d_12">
      <g>
       <use style="fill:#1f77b4;stroke:#1f77b4;stroke-width:0.8;" x="87.329766" xlink:href="#m9eba24b6cf" y="79.820206"/>
      </g>
     </g>
     <g id="text_13">
      <!-- 50 -->
      <g style="fill:#1f77b4;" transform="translate(61.242266 85.519034)scale(0.15 -0.15)">
       <use xlink:href="#DejaVuSans-53"/>
       <use x="63.623047" xlink:href="#DejaVuSans-48"/>
      </g>
     </g>
    </g>
    <g id="text_14">
     <!-- Reward -->
     <defs>
      <path d="M 44.390625 34.1875 
Q 47.5625 33.109375 50.5625 29.59375 
Q 53.5625 26.078125 56.59375 19.921875 
L 66.609375 0 
L 56 0 
L 46.6875 18.703125 
Q 43.0625 26.03125 39.671875 28.421875 
Q 36.28125 30.8125 30.421875 30.8125 
L 19.671875 30.8125 
L 19.671875 0 
L 9.8125 0 
L 9.8125 72.90625 
L 32.078125 72.90625 
Q 44.578125 72.90625 50.734375 67.671875 
Q 56.890625 62.453125 56.890625 51.90625 
Q 56.890625 45.015625 53.6875 40.46875 
Q 50.484375 35.9375 44.390625 34.1875 
z
M 19.671875 64.796875 
L 19.671875 38.921875 
L 32.078125 38.921875 
Q 39.203125 38.921875 42.84375 42.21875 
Q 46.484375 45.515625 46.484375 51.90625 
Q 46.484375 58.296875 42.84375 61.546875 
Q 39.203125 64.796875 32.078125 64.796875 
z
" id="DejaVuSans-82"/>
      <path d="M 4.203125 54.6875 
L 13.1875 54.6875 
L 24.421875 12.015625 
L 35.59375 54.6875 
L 46.1875 54.6875 
L 57.421875 12.015625 
L 68.609375 54.6875 
L 77.59375 54.6875 
L 63.28125 0 
L 52.6875 0 
L 40.921875 44.828125 
L 29.109375 0 
L 18.5 0 
z
" id="DejaVuSans-119"/>
      <path d="M 34.28125 27.484375 
Q 23.390625 27.484375 19.1875 25 
Q 14.984375 22.515625 14.984375 16.5 
Q 14.984375 11.71875 18.140625 8.90625 
Q 21.296875 6.109375 26.703125 6.109375 
Q 34.1875 6.109375 38.703125 11.40625 
Q 43.21875 16.703125 43.21875 25.484375 
L 43.21875 27.484375 
z
M 52.203125 31.203125 
L 52.203125 0 
L 43.21875 0 
L 43.21875 8.296875 
Q 40.140625 3.328125 35.546875 0.953125 
Q 30.953125 -1.421875 24.3125 -1.421875 
Q 15.921875 -1.421875 10.953125 3.296875 
Q 6 8.015625 6 15.921875 
Q 6 25.140625 12.171875 29.828125 
Q 18.359375 34.515625 30.609375 34.515625 
L 43.21875 34.515625 
L 43.21875 35.40625 
Q 43.21875 41.609375 39.140625 45 
Q 35.0625 48.390625 27.6875 48.390625 
Q 23 48.390625 18.546875 47.265625 
Q 14.109375 46.140625 10.015625 43.890625 
L 10.015625 52.203125 
Q 14.9375 54.109375 19.578125 55.046875 
Q 24.21875 56 28.609375 56 
Q 40.484375 56 46.34375 49.84375 
Q 52.203125 43.703125 52.203125 31.203125 
z
" id="DejaVuSans-97"/>
      <path d="M 41.109375 46.296875 
Q 39.59375 47.171875 37.8125 47.578125 
Q 36.03125 48 33.890625 48 
Q 26.265625 48 22.1875 43.046875 
Q 18.109375 38.09375 18.109375 28.8125 
L 18.109375 0 
L 9.078125 0 
L 9.078125 54.6875 
L 18.109375 54.6875 
L 18.109375 46.1875 
Q 20.953125 51.171875 25.484375 53.578125 
Q 30.03125 56 36.53125 56 
Q 37.453125 56 38.578125 55.875 
Q 39.703125 55.765625 41.0625 55.515625 
z
" id="DejaVuSans-114"/>
      <path d="M 45.40625 46.390625 
L 45.40625 75.984375 
L 54.390625 75.984375 
L 54.390625 0 
L 45.40625 0 
L 45.40625 8.203125 
Q 42.578125 3.328125 38.25 0.953125 
Q 33.9375 -1.421875 27.875 -1.421875 
Q 17.96875 -1.421875 11.734375 6.484375 
Q 5.515625 14.40625 5.515625 27.296875 
Q 5.515625 40.1875 11.734375 48.09375 
Q 17.96875 56 27.875 56 
Q 33.9375 56 38.25 53.625 
Q 42.578125 51.265625 45.40625 46.390625 
z
M 14.796875 27.296875 
Q 14.796875 17.390625 18.875 11.75 
Q 22.953125 6.109375 30.078125 6.109375 
Q 37.203125 6.109375 41.296875 11.75 
Q 45.40625 17.390625 45.40625 27.296875 
Q 45.40625 37.203125 41.296875 42.84375 
Q 37.203125 48.484375 30.078125 48.484375 
Q 22.953125 48.484375 18.875 42.84375 
Q 14.796875 37.203125 14.796875 27.296875 
z
" id="DejaVuSans-100"/>
     </defs>
     <g style="fill:#1f77b4;" transform="translate(53.082891 212.442188)rotate(-90)scale(0.2 -0.2)">
      <use xlink:href="#DejaVuSans-82"/>
      <use x="64.982422" xlink:href="#DejaVuSans-101"/>
      <use x="126.505859" xlink:href="#DejaVuSans-119"/>
      <use x="208.292969" xlink:href="#DejaVuSans-97"/>
      <use x="269.572266" xlink:href="#DejaVuSans-114"/>
      <use x="308.935547" xlink:href="#DejaVuSans-100"/>
     </g>
    </g>
   </g>
   <g id="line2d_13">
    <path clip-path="url(#p397fc2ee03)" d="M 87.329766 292.109091 
L 91.959575 242.040958 
L 92.052171 242.24123 
L 92.20264 242.716878 
L 92.422556 246.046408 
L 92.492003 245.595795 
L 92.654047 244.544364 
L 92.68877 244.919875 
L 92.885537 247.047771 
L 92.954984 246.747362 
L 93.117028 246.046408 
L 93.128602 246.471988 
L 93.452689 254.557991 
L 93.591583 254.457855 
L 93.811499 252.555266 
L 93.892521 252.730504 
L 94.054564 253.281254 
L 94.378651 257.562079 
L 94.552268 257.461943 
L 94.749035 256.836091 
L 95.130995 251.503835 
L 95.47823 248.649951 
L 95.802317 244.444228 
L 95.894913 244.043683 
L 95.929637 244.344092 
L 96.126404 246.046408 
L 96.172702 245.645863 
L 96.496788 243.743274 
L 96.70513 243.04232 
L 96.820875 242.541639 
L 96.890322 242.691843 
L 97.06394 243.317695 
L 97.619517 254.007242 
L 97.966753 255.033638 
L 98.209818 255.559354 
L 98.441308 263.570255 
L 98.52233 262.694063 
L 99.645059 249.551178 
L 99.934422 243.543002 
L 100.061742 243.543002 
L 100.571021 234.230329 
L 100.756213 229.023243 
L 100.802511 230.325015 
L 100.987704 235.5321 
L 101.0803 235.131555 
L 101.219194 234.530738 
L 101.288641 234.680942 
L 101.450685 235.031419 
L 101.462259 234.906249 
L 101.913666 229.023243 
L 102.017836 229.92447 
L 102.145156 231.025968 
L 102.156731 230.625423 
L 102.376647 223.015067 
L 102.480817 223.240374 
L 102.608137 223.515748 
L 102.631286 223.365544 
L 102.885926 221.112478 
L 103.186863 217.257232 
L 103.302608 217.006891 
L 103.360481 217.132062 
L 103.534099 217.507573 
L 103.568822 217.357368 
L 103.765589 216.50621 
L 103.800313 216.731516 
L 104.22857 219.009617 
L 104.251719 218.959548 
L 104.460061 218.508935 
L 104.471635 218.709208 
L 104.980914 225.643644 
L 105.247128 229.724197 
L 105.386023 233.028694 
L 105.478619 232.828421 
L 105.617513 232.528012 
L 105.629088 232.653183 
L 105.849004 235.031419 
L 105.895302 234.530738 
L 106.55505 228.522562 
L 106.774966 228.522562 
L 107.006456 232.528012 
L 107.087478 232.177536 
L 107.284245 230.925832 
L 107.469437 228.522562 
L 107.550459 228.873039 
L 107.920843 230.950866 
L 107.978716 231.927195 
L 108.163908 235.5321 
L 108.256505 235.331828 
L 108.511144 234.530738 
L 108.626889 234.030056 
L 108.661613 234.330465 
L 108.85838 236.032782 
L 108.939402 235.857543 
L 109.08987 235.5321 
L 109.147743 235.657271 
L 109.321361 236.032782 
L 109.34451 235.882577 
L 109.552851 234.530738 
L 109.587575 234.981351 
L 109.911662 237.810201 
L 110.131577 238.536188 
L 110.351493 239.03687 
L 110.478813 239.03687 
L 110.710304 242.040958 
L 110.791325 241.690481 
L 111.045965 241.039595 
L 111.173285 241.039595 
L 111.64784 246.597158 
L 111.879331 247.848861 
L 112.099247 253.556628 
L 112.157119 252.430095 
L 112.330737 249.050496 
L 112.38861 249.926689 
L 112.689547 252.83064 
L 112.793718 253.055947 
L 112.805292 252.855675 
L 113.407168 244.218922 
L 113.522913 243.743274 
L 113.823851 240.238505 
L 113.95117 238.035507 
L 114.032192 238.385984 
L 114.182661 239.03687 
L 114.194235 238.786529 
L 114.56462 233.053728 
L 114.645642 232.528012 
L 114.726663 232.703251 
L 114.911856 233.329103 
L 115.212793 235.031419 
L 115.340113 235.031419 
L 115.803094 243.04232 
L 115.860967 242.291298 
L 116.717481 232.603115 
L 116.729056 232.528012 
L 116.810078 232.703251 
L 116.960546 233.028694 
L 117.192037 227.521199 
L 117.284633 227.721472 
L 117.435102 228.197119 
L 117.886508 236.032782 
L 117.96753 234.806113 
L 118.303191 231.326377 
L 118.45366 231.025968 
L 118.58098 231.025968 
L 118.81247 234.030056 
L 118.835619 233.228966 
L 119.217579 223.766089 
L 119.495367 221.588125 
L 119.923625 219.510298 
L 120.247711 219.610434 
L 120.675969 220.686899 
L 120.895885 224.01643 
L 120.930608 223.115203 
L 121.127375 218.008254 
L 121.173673 219.209889 
L 121.358866 224.01643 
L 121.416738 222.889897 
L 121.590356 219.510298 
L 121.682952 219.71057 
L 121.833421 220.211252 
L 122.192231 228.222153 
L 122.400573 231.276309 
L 122.632063 232.027331 
L 122.967724 233.954954 
L 122.979299 234.030056 
L 123.014022 233.654545 
L 123.210789 231.52665 
L 123.303386 231.726922 
L 123.558025 232.528012 
L 123.67377 233.028694 
L 123.743217 232.878489 
L 124.021006 232.027331 
L 124.240922 231.52665 
L 124.368242 231.52665 
L 124.831223 224.01643 
L 124.946968 224.26677 
L 125.178458 224.517111 
L 125.317353 224.617247 
L 125.595141 226.269496 
L 126.220166 232.528012 
L 126.266464 232.427876 
L 126.451656 232.027331 
L 126.914637 221.513023 
L 126.949361 221.73833 
L 127.146127 223.015067 
L 127.180851 222.639556 
L 127.481789 220.511661 
L 127.620683 220.411524 
L 127.840599 218.508935 
L 127.875322 219.109753 
L 128.072089 222.514386 
L 128.153111 222.163909 
L 128.407751 220.611797 
L 128.53507 219.510298 
L 128.581368 219.910843 
L 128.824433 222.889897 
L 128.998051 227.020518 
L 129.067498 226.269496 
L 129.414734 221.312751 
L 129.808268 216.255869 
L 130.039758 216.005529 
L 130.155504 216.005529 
L 130.386994 210.998715 
L 130.47959 211.39926 
L 130.722655 212.901304 
L 130.849975 214.002803 
L 130.907848 213.627292 
L 131.116189 211.674635 
L 131.463425 206.016936 
L 131.544446 205.491221 
L 131.57917 205.866732 
L 131.775937 207.994627 
L 131.799086 207.39381 
L 132.123173 201.736111 
L 132.238918 201.48577 
L 132.273641 201.635974 
L 132.470408 202.487133 
L 132.481983 202.211758 
L 132.875517 195.477594 
L 133.072284 194.676504 
L 133.16488 194.476231 
L 133.222752 194.601402 
L 133.454243 195.352424 
L 133.789904 198.231341 
L 133.859351 198.982363 
L 133.917224 198.481682 
L 134.090842 196.979638 
L 134.148714 197.355149 
L 134.380205 199.483045 
L 134.657993 202.487133 
L 134.785313 202.487133 
L 135.23672 198.056103 
L 135.410337 197.630524 
L 135.479785 197.480319 
L 135.711275 202.487133 
L 135.803871 202.086588 
L 135.942765 201.48577 
L 135.965915 201.736111 
L 136.266852 206.192174 
L 136.579364 210.998715 
L 136.857153 212.450691 
L 136.868727 212.500759 
L 136.903451 212.275453 
L 137.100218 210.998715 
L 137.18124 211.173954 
L 137.331708 211.499397 
L 137.354857 211.299124 
L 137.586348 208.645513 
L 138.003031 197.380183 
L 138.199798 195.853105 
L 138.419714 193.725209 
L 138.489161 192.974187 
L 138.558608 193.4248 
L 138.720651 194.476231 
L 138.755375 194.10072 
L 139.646613 183.461242 
L 140.016998 175.550477 
L 140.109594 174.949659 
L 140.132743 175.450341 
L 140.341085 179.956473 
L 140.422106 179.430757 
L 140.607299 177.628304 
L 140.804065 172.946934 
L 140.850364 174.048433 
L 141.035556 178.454429 
L 141.093429 177.578236 
L 141.267046 174.949659 
L 141.336494 175.550477 
L 141.718453 177.903679 
L 141.730027 177.953747 
L 141.799475 177.803543 
L 141.961518 177.453066 
L 141.984667 177.60327 
L 142.193008 178.95511 
L 142.239306 178.654701 
L 142.655989 175.450341 
L 142.794884 175.750749 
L 142.88748 175.951022 
L 142.899054 175.825852 
L 143.257865 170.743936 
L 143.628249 165.636987 
L 143.813442 164.435351 
L 143.85974 164.835896 
L 144.264848 167.389371 
L 144.380593 168.340666 
L 144.727829 170.393459 
L 144.843574 170.443527 
L 144.982469 170.343391 
L 145.202385 168.440802 
L 145.260257 168.816313 
L 145.433875 169.942846 
L 145.468599 169.567335 
L 145.665365 167.439439 
L 145.734813 167.739848 
L 146.001027 168.440802 
L 146.128346 168.440802 
L 146.359837 161.931945 
L 146.452433 162.33249 
L 146.614476 163.433989 
L 146.938563 168.190461 
L 147.112181 168.816313 
L 147.447842 171.695231 
L 147.517289 172.446253 
L 147.586736 172.145844 
L 147.968696 170.017948 
L 147.98027 169.942846 
L 148.003419 170.393459 
L 148.350655 175.049796 
L 148.443251 175.450341 
L 148.4664 175.149932 
L 148.674742 172.446253 
L 148.72104 173.04707 
L 149.137723 177.453066 
L 149.149297 177.327896 
L 149.369213 174.949659 
L 149.43866 175.400273 
L 149.762747 178.204088 
L 149.832194 178.95511 
L 149.878492 178.254156 
L 150.063684 175.450341 
L 150.109983 176.151295 
L 150.295175 178.95511 
L 150.353048 178.204088 
L 150.758156 172.446253 
L 150.839178 173.322445 
L 150.989646 174.949659 
L 151.035944 174.348842 
L 151.348457 171.670197 
L 151.568373 171.44489 
L 151.684118 171.44489 
L 151.915608 168.440802 
L 151.961906 169.241892 
L 152.378589 175.450341 
L 152.413313 175.225034 
L 152.772123 173.59782 
L 152.864719 173.147207 
L 153.177231 170.443527 
L 153.304551 170.443527 
L 153.58234 166.438077 
L 153.871703 160.429901 
L 153.999023 160.429901 
L 154.230513 163.433989 
L 154.276811 162.632899 
L 154.462004 159.428538 
L 154.519876 160.17956 
L 154.693494 162.432626 
L 154.739792 161.831808 
L 154.924984 159.428538 
L 154.971283 160.229628 
L 155.27222 167.189099 
L 155.387965 170.944209 
L 155.457413 170.042982 
L 155.619456 167.940121 
L 155.677329 168.565972 
L 155.850946 170.443527 
L 155.908819 169.942846 
L 156.221331 168.140393 
L 156.348651 167.639712 
L 156.545418 165.937395 
L 156.591716 166.438077 
L 156.776908 168.440802 
L 156.811632 167.839984 
L 157.124144 164.185011 
L 157.239889 163.93467 
L 157.251464 164.134943 
L 157.70287 170.443527 
L 157.714445 170.368425 
L 157.934361 168.941483 
L 158.015382 169.116722 
L 158.165851 169.442165 
L 158.200575 169.29196 
L 158.432065 167.915087 
L 158.871897 162.858205 
L 159.138111 160.429901 
L 159.323304 156.42445 
L 159.4159 156.624723 
L 159.554794 156.925131 
L 159.786284 162.933307 
L 159.855732 162.032081 
L 160.017775 159.929219 
L 160.075648 160.429901 
L 160.480756 163.433989 
L 160.515479 163.283784 
L 160.758544 161.831808 
L 161.209951 157.350711 
L 161.429867 156.674791 
L 161.742379 154.421725 
L 161.915997 154.521861 
L 162.344254 155.62336 
L 162.795661 162.933307 
L 162.830384 162.33249 
L 163.027151 158.927857 
L 163.119747 159.128129 
L 163.293365 159.728947 
L 163.710048 164.285147 
L 163.721623 164.435351 
L 163.756346 163.534125 
L 164.080433 157.876426 
L 164.404519 155.998871 
L 164.416094 155.923769 
L 164.497116 156.099007 
L 164.647584 156.42445 
L 165.261034 139.952034 
L 165.342056 138.900603 
L 165.411503 139.351217 
L 165.573546 140.402647 
L 165.619844 140.002102 
L 165.805037 138.399922 
L 165.851335 138.900603 
L 166.349039 143.081293 
L 166.499508 143.406735 
L 166.534232 143.256531 
L 166.730999 142.405373 
L 166.777297 142.605645 
L 166.962489 143.406735 
L 166.997213 143.181429 
L 167.19398 141.904691 
L 167.251852 142.155032 
L 167.68011 144.408098 
L 168.073643 150.51641 
L 168.119942 150.916955 
L 168.200963 150.741717 
L 168.386156 150.115865 
L 168.802838 147.462254 
L 169.034329 146.936539 
L 169.161649 146.911505 
L 169.277394 146.911505 
L 169.508884 143.907417 
L 169.555183 144.508234 
L 170.365399 153.620635 
L 170.539017 154.82227 
L 170.666337 155.923769 
L 170.747358 155.74853 
L 170.920976 155.172747 
L 171.592299 148.413549 
L 171.638597 148.513685 
L 171.835364 149.189605 
L 172.05528 154.421725 
L 172.101578 153.119953 
L 172.41409 147.362118 
L 172.529835 146.435858 
L 172.749751 137.398559 
L 172.807624 139.150944 
L 173.085412 144.408098 
L 173.224307 144.307962 
L 173.444223 142.405373 
L 173.490521 142.906054 
L 173.860905 145.70987 
L 173.953502 146.51096 
L 174.370184 152.418999 
L 174.462781 151.818182 
L 174.601675 150.916955 
L 174.682697 151.092194 
L 174.833165 151.417637 
L 175.064656 157.425813 
L 175.122528 156.048939 
L 175.527637 148.413549 
L 175.550786 148.463617 
L 175.759127 148.91423 
L 175.770702 148.713958 
L 176.222108 141.40401 
L 176.256832 142.07993 
L 176.453599 145.910142 
L 176.53462 145.384427 
L 176.696664 143.932451 
L 176.91658 134.895153 
L 176.997601 136.121822 
L 177.252241 138.399922 
L 177.379561 138.399922 
L 177.842542 133.393109 
L 177.854116 133.493245 
L 178.513864 138.249718 
L 178.537013 138.399922 
L 178.594886 138.149581 
L 178.988419 136.922912 
L 178.999994 136.897878 
L 179.023143 137.048083 
L 179.231484 138.399922 
L 179.266208 137.949309 
L 179.462975 135.395834 
L 179.520848 136.021686 
L 179.879658 138.700331 
L 179.925956 138.900603 
L 179.93753 138.700331 
L 181.071834 120.90111 
L 181.083408 120.876076 
L 181.141281 121.001246 
L 181.314899 121.376757 
L 181.349622 121.226552 
L 181.546389 120.375394 
L 181.615836 120.525599 
L 181.77788 120.876076 
L 182.426053 106.756862 
L 182.692267 103.502433 
L 182.703842 103.352229 
L 182.75014 104.153319 
L 183.166823 111.36313 
L 183.224695 110.612108 
L 183.502484 108.359042 
L 183.861294 108.359042 
L 184.092784 101.349504 
L 184.139082 102.951684 
L 184.324275 109.360405 
L 184.405297 108.484213 
L 184.555765 106.856998 
L 184.590489 107.683122 
L 184.914576 112.915242 
L 185.250237 114.367218 
L 185.261811 114.016741 
L 185.481727 107.35768 
L 185.5396 108.734553 
L 185.909985 120.100019 
L 185.944708 121.376757 
L 186.014155 120.175122 
L 186.396115 115.468717 
L 186.407689 115.368581 
L 186.442413 115.819194 
L 186.63918 118.372669 
L 186.708627 117.922056 
L 186.974841 116.870625 
L 187.148459 116.970761 
L 187.333651 117.371306 
L 187.3568 117.221102 
L 187.588291 115.11824 
L 187.796632 108.359042 
L 187.900803 108.584349 
L 188.028122 108.859724 
L 188.259613 102.350866 
L 188.340635 102.876582 
L 188.491103 103.85291 
L 188.514252 103.452365 
L 188.954084 94.840646 
L 189.011957 96.34269 
L 189.451789 104.929375 
L 189.66013 105.580261 
L 189.880046 109.861086 
L 189.91477 108.884758 
L 190.412474 97.994939 
L 190.574518 94.840646 
L 190.620816 95.741873 
L 190.968052 100.398209 
L 191.037499 100.848822 
L 191.083797 100.548413 
L 191.268989 99.346778 
L 191.303713 99.797391 
L 191.627799 105.379988 
L 191.836141 107.858361 
L 191.963461 107.858361 
L 192.310696 113.115515 
L 192.426442 113.365856 
L 192.438016 113.165583 
L 192.912572 106.856998 
L 193.120913 106.856998 
L 193.491298 94.339965 
L 194.046875 88.331789 
L 194.139471 88.532062 
L 194.278365 88.83247 
L 194.336238 88.7073 
L 194.52143 88.081448 
L 194.972837 78.818844 
L 195.042284 78.969048 
L 195.215902 79.544832 
L 195.551563 84.075998 
L 195.690457 84.626747 
L 196.118715 88.757368 
L 196.130289 88.83247 
L 196.153438 88.331789 
L 196.36178 83.825657 
L 196.454376 84.226202 
L 196.627994 85.352735 
L 196.824761 88.331789 
L 196.905782 87.981312 
L 197.056251 87.330426 
L 197.090975 87.630835 
L 197.287742 89.333152 
L 197.33404 88.932607 
L 197.519232 87.330426 
L 197.542381 87.931244 
L 197.935915 95.341328 
L 197.982213 95.842009 
L 198.074809 95.641736 
L 198.225278 95.166089 
L 198.688259 89.783765 
L 198.908175 88.83247 
L 198.919749 89.107845 
L 199.371156 97.344053 
L 199.602646 99.346778 
L 199.625795 98.645824 
L 199.973031 91.436013 
L 200.065627 90.835196 
L 200.088776 91.285809 
L 200.297118 95.341328 
L 200.378139 94.990851 
L 200.540183 93.889352 
L 200.875844 85.07736 
L 200.991589 84.82702 
L 201.22308 77.817481 
L 201.304101 78.343196 
L 201.512443 80.320888 
L 201.686061 83.324976 
L 201.743933 82.573954 
L 201.917551 80.320888 
L 201.963849 81.121978 
L 202.612022 92.837921 
L 202.68147 91.936695 
L 202.843513 89.833833 
L 202.936109 90.034106 
L 203.190749 90.835196 
L 203.410665 91.335877 
L 203.537984 91.335877 
L 203.931518 95.040919 
L 204.000965 95.341328 
L 204.01254 94.965817 
L 204.394499 86.078723 
L 204.649139 84.526611 
L 204.915353 82.899397 
L 205.193141 80.370956 
L 205.389908 77.817481 
L 205.482504 78.017754 
L 205.621399 78.318162 
L 205.656122 78.167958 
L 205.876038 76.816118 
L 206.466339 66.30181 
L 206.547361 66.30181 
L 206.975618 58.66642 
L 207.010341 58.290909 
L 207.068214 58.79159 
L 207.577493 64.098813 
L 207.704813 66.30181 
L 207.762686 65.675959 
L 208.167794 61.795678 
L 208.214092 61.895815 
L 208.422433 62.5467 
L 208.677073 66.30181 
L 209.093756 79.319525 
L 209.174777 78.969048 
L 209.325246 78.318162 
L 209.348395 78.618571 
L 209.71878 82.023204 
L 209.788227 82.323613 
L 209.799802 82.048238 
L 210.216485 74.688223 
L 210.355379 74.312712 
L 210.505848 74.412848 
L 210.714189 75.314074 
L 210.760487 75.113802 
L 211.015127 73.56169 
L 211.17717 71.809305 
L 211.200319 72.510259 
L 211.408661 78.818844 
L 211.489682 77.942651 
L 211.640151 76.315437 
L 211.732747 76.51571 
L 212.103132 77.3168 
L 212.126281 77.116527 
L 212.473517 75.013666 
L 212.566113 74.813393 
L 212.959647 67.403309 
L 213.029094 66.802492 
L 213.040668 67.278139 
L 213.260584 76.315437 
L 213.341606 75.264006 
L 213.492075 73.311349 
L 213.573096 73.661826 
L 213.758289 74.838427 
L 213.955056 77.817481 
L 214.036077 77.467004 
L 214.290717 76.816118 
L 214.464335 76.715982 
L 214.649527 76.315437 
L 214.649527 76.315437 
" style="fill:none;stroke:#1f77b4;stroke-linecap:square;stroke-width:1.5;"/>
   </g>
   <g id="patch_3">
    <path d="M 87.329766 303.8 
L 87.329766 46.6 
" style="fill:none;stroke:#000000;stroke-linecap:square;stroke-linejoin:miter;stroke-width:0.8;"/>
   </g>
   <g id="patch_4">
    <path d="M 1418.4 303.8 
L 1418.4 46.6 
" style="fill:none;stroke:#000000;stroke-linecap:square;stroke-linejoin:miter;stroke-width:0.8;"/>
   </g>
   <g id="patch_5">
    <path d="M 87.329766 303.8 
L 1418.4 303.8 
" style="fill:none;stroke:#000000;stroke-linecap:square;stroke-linejoin:miter;stroke-width:0.8;"/>
   </g>
   <g id="patch_6">
    <path d="M 87.329766 46.6 
L 1418.4 46.6 
" style="fill:none;stroke:#000000;stroke-linecap:square;stroke-linejoin:miter;stroke-width:0.8;"/>
   </g>
   <g id="text_15">
    <!-- Avg. Last 10 Rewards: 50.0 || env_2_0 || Elapsed Time: 3:22:11 -->
    <defs>
     <path d="M 34.1875 63.1875 
L 20.796875 26.90625 
L 47.609375 26.90625 
z
M 28.609375 72.90625 
L 39.796875 72.90625 
L 67.578125 0 
L 57.328125 0 
L 50.6875 18.703125 
L 17.828125 18.703125 
L 11.1875 0 
L 0.78125 0 
z
" id="DejaVuSans-65"/>
     <path d="M 2.984375 54.6875 
L 12.5 54.6875 
L 29.59375 8.796875 
L 46.6875 54.6875 
L 56.203125 54.6875 
L 35.6875 0 
L 23.484375 0 
z
" id="DejaVuSans-118"/>
     <path d="M 45.40625 27.984375 
Q 45.40625 37.75 41.375 43.109375 
Q 37.359375 48.484375 30.078125 48.484375 
Q 22.859375 48.484375 18.828125 43.109375 
Q 14.796875 37.75 14.796875 27.984375 
Q 14.796875 18.265625 18.828125 12.890625 
Q 22.859375 7.515625 30.078125 7.515625 
Q 37.359375 7.515625 41.375 12.890625 
Q 45.40625 18.265625 45.40625 27.984375 
z
M 54.390625 6.78125 
Q 54.390625 -7.171875 48.1875 -13.984375 
Q 42 -20.796875 29.203125 -20.796875 
Q 24.46875 -20.796875 20.265625 -20.09375 
Q 16.0625 -19.390625 12.109375 -17.921875 
L 12.109375 -9.1875 
Q 16.0625 -11.328125 19.921875 -12.34375 
Q 23.78125 -13.375 27.78125 -13.375 
Q 36.625 -13.375 41.015625 -8.765625 
Q 45.40625 -4.15625 45.40625 5.171875 
L 45.40625 9.625 
Q 42.625 4.78125 38.28125 2.390625 
Q 33.9375 0 27.875 0 
Q 17.828125 0 11.671875 7.65625 
Q 5.515625 15.328125 5.515625 27.984375 
Q 5.515625 40.671875 11.671875 48.328125 
Q 17.828125 56 27.875 56 
Q 33.9375 56 38.28125 53.609375 
Q 42.625 51.21875 45.40625 46.390625 
L 45.40625 54.6875 
L 54.390625 54.6875 
z
" id="DejaVuSans-103"/>
     <path d="M 10.6875 12.40625 
L 21 12.40625 
L 21 0 
L 10.6875 0 
z
" id="DejaVuSans-46"/>
     <path id="DejaVuSans-32"/>
     <path d="M 9.8125 72.90625 
L 19.671875 72.90625 
L 19.671875 8.296875 
L 55.171875 8.296875 
L 55.171875 0 
L 9.8125 0 
z
" id="DejaVuSans-76"/>
     <path d="M 11.71875 12.40625 
L 22.015625 12.40625 
L 22.015625 0 
L 11.71875 0 
z
M 11.71875 51.703125 
L 22.015625 51.703125 
L 22.015625 39.3125 
L 11.71875 39.3125 
z
" id="DejaVuSans-58"/>
     <path d="M 21 76.421875 
L 21 -23.578125 
L 12.703125 -23.578125 
L 12.703125 76.421875 
z
" id="DejaVuSans-124"/>
     <path d="M 54.890625 33.015625 
L 54.890625 0 
L 45.90625 0 
L 45.90625 32.71875 
Q 45.90625 40.484375 42.875 44.328125 
Q 39.84375 48.1875 33.796875 48.1875 
Q 26.515625 48.1875 22.3125 43.546875 
Q 18.109375 38.921875 18.109375 30.90625 
L 18.109375 0 
L 9.078125 0 
L 9.078125 54.6875 
L 18.109375 54.6875 
L 18.109375 46.1875 
Q 21.34375 51.125 25.703125 53.5625 
Q 30.078125 56 35.796875 56 
Q 45.21875 56 50.046875 50.171875 
Q 54.890625 44.34375 54.890625 33.015625 
z
" id="DejaVuSans-110"/>
     <path d="M 50.984375 -16.609375 
L 50.984375 -23.578125 
L -0.984375 -23.578125 
L -0.984375 -16.609375 
z
" id="DejaVuSans-95"/>
     <path d="M 9.8125 72.90625 
L 55.90625 72.90625 
L 55.90625 64.59375 
L 19.671875 64.59375 
L 19.671875 43.015625 
L 54.390625 43.015625 
L 54.390625 34.71875 
L 19.671875 34.71875 
L 19.671875 8.296875 
L 56.78125 8.296875 
L 56.78125 0 
L 9.8125 0 
z
" id="DejaVuSans-69"/>
     <path d="M 9.421875 75.984375 
L 18.40625 75.984375 
L 18.40625 0 
L 9.421875 0 
z
" id="DejaVuSans-108"/>
     <path d="M 40.578125 39.3125 
Q 47.65625 37.796875 51.625 33 
Q 55.609375 28.21875 55.609375 21.1875 
Q 55.609375 10.40625 48.1875 4.484375 
Q 40.765625 -1.421875 27.09375 -1.421875 
Q 22.515625 -1.421875 17.65625 -0.515625 
Q 12.796875 0.390625 7.625 2.203125 
L 7.625 11.71875 
Q 11.71875 9.328125 16.59375 8.109375 
Q 21.484375 6.890625 26.8125 6.890625 
Q 36.078125 6.890625 40.9375 10.546875 
Q 45.796875 14.203125 45.796875 21.1875 
Q 45.796875 27.640625 41.28125 31.265625 
Q 36.765625 34.90625 28.71875 34.90625 
L 20.21875 34.90625 
L 20.21875 43.015625 
L 29.109375 43.015625 
Q 36.375 43.015625 40.234375 45.921875 
Q 44.09375 48.828125 44.09375 54.296875 
Q 44.09375 59.90625 40.109375 62.90625 
Q 36.140625 65.921875 28.71875 65.921875 
Q 24.65625 65.921875 20.015625 65.03125 
Q 15.375 64.15625 9.8125 62.3125 
L 9.8125 71.09375 
Q 15.4375 72.65625 20.34375 73.4375 
Q 25.25 74.21875 29.59375 74.21875 
Q 40.828125 74.21875 47.359375 69.109375 
Q 53.90625 64.015625 53.90625 55.328125 
Q 53.90625 49.265625 50.4375 45.09375 
Q 46.96875 40.921875 40.578125 39.3125 
z
" id="DejaVuSans-51"/>
    </defs>
    <g transform="translate(374.384883 40.6)scale(0.24 -0.24)">
     <use xlink:href="#DejaVuSans-65"/>
     <use x="62.533203" xlink:href="#DejaVuSans-118"/>
     <use x="121.712891" xlink:href="#DejaVuSans-103"/>
     <use x="185.189453" xlink:href="#DejaVuSans-46"/>
     <use x="216.976562" xlink:href="#DejaVuSans-32"/>
     <use x="248.763672" xlink:href="#DejaVuSans-76"/>
     <use x="304.476562" xlink:href="#DejaVuSans-97"/>
     <use x="365.755859" xlink:href="#DejaVuSans-115"/>
     <use x="417.855469" xlink:href="#DejaVuSans-116"/>
     <use x="457.064453" xlink:href="#DejaVuSans-32"/>
     <use x="488.851562" xlink:href="#DejaVuSans-49"/>
     <use x="552.474609" xlink:href="#DejaVuSans-48"/>
     <use x="616.097656" xlink:href="#DejaVuSans-32"/>
     <use x="647.884766" xlink:href="#DejaVuSans-82"/>
     <use x="712.867188" xlink:href="#DejaVuSans-101"/>
     <use x="774.390625" xlink:href="#DejaVuSans-119"/>
     <use x="856.177734" xlink:href="#DejaVuSans-97"/>
     <use x="917.457031" xlink:href="#DejaVuSans-114"/>
     <use x="956.820312" xlink:href="#DejaVuSans-100"/>
     <use x="1020.296875" xlink:href="#DejaVuSans-115"/>
     <use x="1072.396484" xlink:href="#DejaVuSans-58"/>
     <use x="1106.087891" xlink:href="#DejaVuSans-32"/>
     <use x="1137.875" xlink:href="#DejaVuSans-53"/>
     <use x="1201.498047" xlink:href="#DejaVuSans-48"/>
     <use x="1265.121094" xlink:href="#DejaVuSans-46"/>
     <use x="1296.908203" xlink:href="#DejaVuSans-48"/>
     <use x="1360.53125" xlink:href="#DejaVuSans-32"/>
     <use x="1392.318359" xlink:href="#DejaVuSans-124"/>
     <use x="1426.009766" xlink:href="#DejaVuSans-124"/>
     <use x="1459.701172" xlink:href="#DejaVuSans-32"/>
     <use x="1491.488281" xlink:href="#DejaVuSans-101"/>
     <use x="1553.011719" xlink:href="#DejaVuSans-110"/>
     <use x="1616.390625" xlink:href="#DejaVuSans-118"/>
     <use x="1675.570312" xlink:href="#DejaVuSans-95"/>
     <use x="1725.570312" xlink:href="#DejaVuSans-50"/>
     <use x="1789.193359" xlink:href="#DejaVuSans-95"/>
     <use x="1839.193359" xlink:href="#DejaVuSans-48"/>
     <use x="1902.816406" xlink:href="#DejaVuSans-32"/>
     <use x="1934.603516" xlink:href="#DejaVuSans-124"/>
     <use x="1968.294922" xlink:href="#DejaVuSans-124"/>
     <use x="2001.986328" xlink:href="#DejaVuSans-32"/>
     <use x="2033.773438" xlink:href="#DejaVuSans-69"/>
     <use x="2096.957031" xlink:href="#DejaVuSans-108"/>
     <use x="2124.740234" xlink:href="#DejaVuSans-97"/>
     <use x="2186.019531" xlink:href="#DejaVuSans-112"/>
     <use x="2249.496094" xlink:href="#DejaVuSans-115"/>
     <use x="2301.595703" xlink:href="#DejaVuSans-101"/>
     <use x="2363.119141" xlink:href="#DejaVuSans-100"/>
     <use x="2426.595703" xlink:href="#DejaVuSans-32"/>
     <use x="2458.382812" xlink:href="#DejaVuSans-84"/>
     <use x="2516.341797" xlink:href="#DejaVuSans-105"/>
     <use x="2544.125" xlink:href="#DejaVuSans-109"/>
     <use x="2641.537109" xlink:href="#DejaVuSans-101"/>
     <use x="2703.060547" xlink:href="#DejaVuSans-58"/>
     <use x="2736.751953" xlink:href="#DejaVuSans-32"/>
     <use x="2768.539062" xlink:href="#DejaVuSans-51"/>
     <use x="2832.162109" xlink:href="#DejaVuSans-58"/>
     <use x="2865.853516" xlink:href="#DejaVuSans-50"/>
     <use x="2929.476562" xlink:href="#DejaVuSans-50"/>
     <use x="2993.099609" xlink:href="#DejaVuSans-58"/>
     <use x="3026.791016" xlink:href="#DejaVuSans-49"/>
     <use x="3090.414062" xlink:href="#DejaVuSans-49"/>
    </g>
   </g>
   <g id="legend_1">
    <g id="patch_7">
     <path d="M 1304.036719 296.3 
L 1407.9 296.3 
Q 1410.9 296.3 1410.9 293.3 
L 1410.9 272.782813 
Q 1410.9 269.782813 1407.9 269.782813 
L 1304.036719 269.782813 
Q 1301.036719 269.782813 1301.036719 272.782813 
L 1301.036719 293.3 
Q 1301.036719 296.3 1304.036719 296.3 
z
" style="fill:#ffffff;opacity:0.8;stroke:#cccccc;stroke-linejoin:miter;"/>
    </g>
    <g id="line2d_14">
     <path d="M 1307.036719 281.930469 
L 1337.036719 281.930469 
" style="fill:none;stroke:#1f77b4;stroke-linecap:square;stroke-width:1.5;"/>
    </g>
    <g id="line2d_15"/>
    <g id="text_16">
     <!-- Reward -->
     <g transform="translate(1349.036719 287.180469)scale(0.15 -0.15)">
      <use xlink:href="#DejaVuSans-82"/>
      <use x="64.982422" xlink:href="#DejaVuSans-101"/>
      <use x="126.505859" xlink:href="#DejaVuSans-119"/>
      <use x="208.292969" xlink:href="#DejaVuSans-97"/>
      <use x="269.572266" xlink:href="#DejaVuSans-114"/>
      <use x="308.935547" xlink:href="#DejaVuSans-100"/>
     </g>
    </g>
   </g>
  </g>
  <g id="axes_2">
   <g id="patch_8">
    <path d="M 87.329766 656.6 
L 1418.4 656.6 
L 1418.4 399.4 
L 87.329766 399.4 
z
" style="fill:#ffffff;"/>
   </g>
   <g id="matplotlib.axis_3">
    <g id="xtick_7">
     <g id="line2d_16">
      <g>
       <use style="stroke:#000000;stroke-width:0.8;" x="203.075003" xlink:href="#m8c905dab83" y="656.6"/>
      </g>
     </g>
     <g id="text_17">
      <!-- 1e+05 -->
      <g transform="translate(169.454691 678.796875)scale(0.2 -0.2)">
       <use xlink:href="#DejaVuSans-49"/>
       <use x="63.623047" xlink:href="#DejaVuSans-101"/>
       <use x="125.146484" xlink:href="#DejaVuSans-43"/>
       <use x="208.935547" xlink:href="#DejaVuSans-48"/>
       <use x="272.558594" xlink:href="#DejaVuSans-53"/>
      </g>
     </g>
    </g>
    <g id="xtick_8">
     <g id="line2d_17">
      <g>
       <use style="stroke:#000000;stroke-width:0.8;" x="318.820241" xlink:href="#m8c905dab83" y="656.6"/>
      </g>
     </g>
     <g id="text_18">
      <!-- 2e+05 -->
      <g transform="translate(285.199929 678.796875)scale(0.2 -0.2)">
       <use xlink:href="#DejaVuSans-50"/>
       <use x="63.623047" xlink:href="#DejaVuSans-101"/>
       <use x="125.146484" xlink:href="#DejaVuSans-43"/>
       <use x="208.935547" xlink:href="#DejaVuSans-48"/>
       <use x="272.558594" xlink:href="#DejaVuSans-53"/>
      </g>
     </g>
    </g>
    <g id="xtick_9">
     <g id="line2d_18">
      <g>
       <use style="stroke:#000000;stroke-width:0.8;" x="550.310717" xlink:href="#m8c905dab83" y="656.6"/>
      </g>
     </g>
     <g id="text_19">
      <!-- 4e+05 -->
      <g transform="translate(516.690404 678.796875)scale(0.2 -0.2)">
       <use xlink:href="#DejaVuSans-52"/>
       <use x="63.623047" xlink:href="#DejaVuSans-101"/>
       <use x="125.146484" xlink:href="#DejaVuSans-43"/>
       <use x="208.935547" xlink:href="#DejaVuSans-48"/>
       <use x="272.558594" xlink:href="#DejaVuSans-53"/>
      </g>
     </g>
    </g>
    <g id="xtick_10">
     <g id="line2d_19">
      <g>
       <use style="stroke:#000000;stroke-width:0.8;" x="781.801192" xlink:href="#m8c905dab83" y="656.6"/>
      </g>
     </g>
     <g id="text_20">
      <!-- 6e+05 -->
      <g transform="translate(748.18088 678.796875)scale(0.2 -0.2)">
       <use xlink:href="#DejaVuSans-54"/>
       <use x="63.623047" xlink:href="#DejaVuSans-101"/>
       <use x="125.146484" xlink:href="#DejaVuSans-43"/>
       <use x="208.935547" xlink:href="#DejaVuSans-48"/>
       <use x="272.558594" xlink:href="#DejaVuSans-53"/>
      </g>
     </g>
    </g>
    <g id="xtick_11">
     <g id="line2d_20">
      <g>
       <use style="stroke:#000000;stroke-width:0.8;" x="1013.291668" xlink:href="#m8c905dab83" y="656.6"/>
      </g>
     </g>
     <g id="text_21">
      <!-- 8e+05 -->
      <g transform="translate(979.671355 678.796875)scale(0.2 -0.2)">
       <use xlink:href="#DejaVuSans-56"/>
       <use x="63.623047" xlink:href="#DejaVuSans-101"/>
       <use x="125.146484" xlink:href="#DejaVuSans-43"/>
       <use x="208.935547" xlink:href="#DejaVuSans-48"/>
       <use x="272.558594" xlink:href="#DejaVuSans-53"/>
      </g>
     </g>
    </g>
    <g id="xtick_12">
     <g id="line2d_21">
      <g>
       <use style="stroke:#000000;stroke-width:0.8;" x="1244.782143" xlink:href="#m8c905dab83" y="656.6"/>
      </g>
     </g>
     <g id="text_22">
      <!-- 1e+06 -->
      <g transform="translate(1211.161831 678.796875)scale(0.2 -0.2)">
       <use xlink:href="#DejaVuSans-49"/>
       <use x="63.623047" xlink:href="#DejaVuSans-101"/>
       <use x="125.146484" xlink:href="#DejaVuSans-43"/>
       <use x="208.935547" xlink:href="#DejaVuSans-48"/>
       <use x="272.558594" xlink:href="#DejaVuSans-54"/>
      </g>
     </g>
    </g>
    <g id="text_23">
     <!-- Timestep -->
     <g transform="translate(706.766445 702.153125)scale(0.2 -0.2)">
      <use xlink:href="#DejaVuSans-84"/>
      <use x="57.958984" xlink:href="#DejaVuSans-105"/>
      <use x="85.742188" xlink:href="#DejaVuSans-109"/>
      <use x="183.154297" xlink:href="#DejaVuSans-101"/>
      <use x="244.677734" xlink:href="#DejaVuSans-115"/>
      <use x="296.777344" xlink:href="#DejaVuSans-116"/>
      <use x="335.986328" xlink:href="#DejaVuSans-101"/>
      <use x="397.509766" xlink:href="#DejaVuSans-112"/>
     </g>
    </g>
   </g>
   <g id="matplotlib.axis_4">
    <g id="ytick_7">
     <g id="line2d_22">
      <defs>
       <path d="M 0 0 
L -3.5 0 
" id="mefa5f6956b" style="stroke:#ff0000;stroke-width:0.8;"/>
      </defs>
      <g>
       <use style="fill:#ff0000;stroke:#ff0000;stroke-width:0.8;" x="87.329766" xlink:href="#mefa5f6956b" y="606.867876"/>
      </g>
     </g>
     <g id="text_24">
      <!-- $\mathdefault{10^{-1}}$ -->
      <defs>
       <path d="M 10.59375 35.5 
L 73.1875 35.5 
L 73.1875 27.203125 
L 10.59375 27.203125 
z
" id="DejaVuSans-8722"/>
      </defs>
      <g style="fill:#ff0000;" transform="translate(45.079766 612.566704)scale(0.15 -0.15)">
       <use transform="translate(0 0.684375)" xlink:href="#DejaVuSans-49"/>
       <use transform="translate(63.623047 0.684375)" xlink:href="#DejaVuSans-48"/>
       <use transform="translate(128.203125 38.965625)scale(0.7)" xlink:href="#DejaVuSans-8722"/>
       <use transform="translate(186.855469 38.965625)scale(0.7)" xlink:href="#DejaVuSans-49"/>
      </g>
     </g>
    </g>
    <g id="ytick_8">
     <g id="line2d_23">
      <defs>
       <path d="M 0 0 
L -2 0 
" id="m44d7e579a3" style="stroke:#000000;stroke-width:0.6;"/>
      </defs>
      <g>
       <use style="stroke:#000000;stroke-width:0.6;" x="87.329766" xlink:href="#m44d7e579a3" y="655.869195"/>
      </g>
     </g>
    </g>
    <g id="ytick_9">
     <g id="line2d_24">
      <g>
       <use style="stroke:#000000;stroke-width:0.6;" x="87.329766" xlink:href="#m44d7e579a3" y="641.082179"/>
      </g>
     </g>
    </g>
    <g id="ytick_10">
     <g id="line2d_25">
      <g>
       <use style="stroke:#000000;stroke-width:0.6;" x="87.329766" xlink:href="#m44d7e579a3" y="628.273083"/>
      </g>
     </g>
    </g>
    <g id="ytick_11">
     <g id="line2d_26">
      <g>
       <use style="stroke:#000000;stroke-width:0.6;" x="87.329766" xlink:href="#m44d7e579a3" y="616.97466"/>
      </g>
     </g>
    </g>
    <g id="ytick_12">
     <g id="line2d_27">
      <g>
       <use style="stroke:#000000;stroke-width:0.6;" x="87.329766" xlink:href="#m44d7e579a3" y="540.377229"/>
      </g>
     </g>
    </g>
    <g id="ytick_13">
     <g id="line2d_28">
      <g>
       <use style="stroke:#000000;stroke-width:0.6;" x="87.329766" xlink:href="#m44d7e579a3" y="501.482694"/>
      </g>
     </g>
    </g>
    <g id="ytick_14">
     <g id="line2d_29">
      <g>
       <use style="stroke:#000000;stroke-width:0.6;" x="87.329766" xlink:href="#m44d7e579a3" y="473.886582"/>
      </g>
     </g>
    </g>
    <g id="ytick_15">
     <g id="line2d_30">
      <g>
       <use style="stroke:#000000;stroke-width:0.6;" x="87.329766" xlink:href="#m44d7e579a3" y="452.481374"/>
      </g>
     </g>
    </g>
    <g id="ytick_16">
     <g id="line2d_31">
      <g>
       <use style="stroke:#000000;stroke-width:0.6;" x="87.329766" xlink:href="#m44d7e579a3" y="434.992046"/>
      </g>
     </g>
    </g>
    <g id="ytick_17">
     <g id="line2d_32">
      <g>
       <use style="stroke:#000000;stroke-width:0.6;" x="87.329766" xlink:href="#m44d7e579a3" y="420.20503"/>
      </g>
     </g>
    </g>
    <g id="ytick_18">
     <g id="line2d_33">
      <g>
       <use style="stroke:#000000;stroke-width:0.6;" x="87.329766" xlink:href="#m44d7e579a3" y="407.395935"/>
      </g>
     </g>
    </g>
    <g id="text_25">
     <!-- Avg .Temporal Difference -->
     <defs>
      <path d="M 30.609375 48.390625 
Q 23.390625 48.390625 19.1875 42.75 
Q 14.984375 37.109375 14.984375 27.296875 
Q 14.984375 17.484375 19.15625 11.84375 
Q 23.34375 6.203125 30.609375 6.203125 
Q 37.796875 6.203125 41.984375 11.859375 
Q 46.1875 17.53125 46.1875 27.296875 
Q 46.1875 37.015625 41.984375 42.703125 
Q 37.796875 48.390625 30.609375 48.390625 
z
M 30.609375 56 
Q 42.328125 56 49.015625 48.375 
Q 55.71875 40.765625 55.71875 27.296875 
Q 55.71875 13.875 49.015625 6.21875 
Q 42.328125 -1.421875 30.609375 -1.421875 
Q 18.84375 -1.421875 12.171875 6.21875 
Q 5.515625 13.875 5.515625 27.296875 
Q 5.515625 40.765625 12.171875 48.375 
Q 18.84375 56 30.609375 56 
z
" id="DejaVuSans-111"/>
      <path d="M 19.671875 64.796875 
L 19.671875 8.109375 
L 31.59375 8.109375 
Q 46.6875 8.109375 53.6875 14.9375 
Q 60.6875 21.78125 60.6875 36.53125 
Q 60.6875 51.171875 53.6875 57.984375 
Q 46.6875 64.796875 31.59375 64.796875 
z
M 9.8125 72.90625 
L 30.078125 72.90625 
Q 51.265625 72.90625 61.171875 64.09375 
Q 71.09375 55.28125 71.09375 36.53125 
Q 71.09375 17.671875 61.125 8.828125 
Q 51.171875 0 30.078125 0 
L 9.8125 0 
z
" id="DejaVuSans-68"/>
      <path d="M 37.109375 75.984375 
L 37.109375 68.5 
L 28.515625 68.5 
Q 23.6875 68.5 21.796875 66.546875 
Q 19.921875 64.59375 19.921875 59.515625 
L 19.921875 54.6875 
L 34.71875 54.6875 
L 34.71875 47.703125 
L 19.921875 47.703125 
L 19.921875 0 
L 10.890625 0 
L 10.890625 47.703125 
L 2.296875 47.703125 
L 2.296875 54.6875 
L 10.890625 54.6875 
L 10.890625 58.5 
Q 10.890625 67.625 15.140625 71.796875 
Q 19.390625 75.984375 28.609375 75.984375 
z
" id="DejaVuSans-102"/>
      <path d="M 48.78125 52.59375 
L 48.78125 44.1875 
Q 44.96875 46.296875 41.140625 47.34375 
Q 37.3125 48.390625 33.40625 48.390625 
Q 24.65625 48.390625 19.8125 42.84375 
Q 14.984375 37.3125 14.984375 27.296875 
Q 14.984375 17.28125 19.8125 11.734375 
Q 24.65625 6.203125 33.40625 6.203125 
Q 37.3125 6.203125 41.140625 7.25 
Q 44.96875 8.296875 48.78125 10.40625 
L 48.78125 2.09375 
Q 45.015625 0.34375 40.984375 -0.53125 
Q 36.96875 -1.421875 32.421875 -1.421875 
Q 20.0625 -1.421875 12.78125 6.34375 
Q 5.515625 14.109375 5.515625 27.296875 
Q 5.515625 40.671875 12.859375 48.328125 
Q 20.21875 56 33.015625 56 
Q 37.15625 56 41.109375 55.140625 
Q 45.0625 54.296875 48.78125 52.59375 
z
" id="DejaVuSans-99"/>
     </defs>
     <g style="fill:#ff0000;" transform="translate(36.920391 653.540625)rotate(-90)scale(0.2 -0.2)">
      <use xlink:href="#DejaVuSans-65"/>
      <use x="62.533203" xlink:href="#DejaVuSans-118"/>
      <use x="121.712891" xlink:href="#DejaVuSans-103"/>
      <use x="185.189453" xlink:href="#DejaVuSans-32"/>
      <use x="216.976562" xlink:href="#DejaVuSans-46"/>
      <use x="248.763672" xlink:href="#DejaVuSans-84"/>
      <use x="292.847656" xlink:href="#DejaVuSans-101"/>
      <use x="354.371094" xlink:href="#DejaVuSans-109"/>
      <use x="451.783203" xlink:href="#DejaVuSans-112"/>
      <use x="515.259766" xlink:href="#DejaVuSans-111"/>
      <use x="576.441406" xlink:href="#DejaVuSans-114"/>
      <use x="617.554688" xlink:href="#DejaVuSans-97"/>
      <use x="678.833984" xlink:href="#DejaVuSans-108"/>
      <use x="706.617188" xlink:href="#DejaVuSans-32"/>
      <use x="738.404297" xlink:href="#DejaVuSans-68"/>
      <use x="815.40625" xlink:href="#DejaVuSans-105"/>
      <use x="843.189453" xlink:href="#DejaVuSans-102"/>
      <use x="878.394531" xlink:href="#DejaVuSans-102"/>
      <use x="913.599609" xlink:href="#DejaVuSans-101"/>
      <use x="975.123047" xlink:href="#DejaVuSans-114"/>
      <use x="1013.986328" xlink:href="#DejaVuSans-101"/>
      <use x="1075.509766" xlink:href="#DejaVuSans-110"/>
      <use x="1138.888672" xlink:href="#DejaVuSans-99"/>
      <use x="1193.869141" xlink:href="#DejaVuSans-101"/>
     </g>
    </g>
   </g>
   <g id="line2d_34">
    <path clip-path="url(#p7ea5e7777b)" d="M 87.329766 456.576618 
L 87.561256 558.162192 
L 87.792747 644.909091 
L 88.024237 621.069404 
L 88.139982 628.397511 
L 88.255728 624.741189 
L 88.371473 636.36602 
L 88.487218 631.852914 
L 88.718708 569.796807 
L 88.950199 617.607773 
L 89.181689 633.764147 
L 89.297435 611.508317 
L 89.41318 614.373274 
L 89.64467 633.77872 
L 89.876161 588.483738 
L 90.339142 624.05679 
L 90.454887 628.490294 
L 90.570632 628.465212 
L 90.686378 629.019567 
L 90.802123 624.586876 
L 91.033613 587.110391 
L 91.265104 604.569945 
L 91.496594 591.197767 
L 91.728085 597.725662 
L 91.84383 597.107312 
L 91.959575 591.382409 
L 92.07532 572.467618 
L 92.191066 573.290871 
L 92.306811 582.377093 
L 92.422556 576.674804 
L 92.654047 582.991832 
L 92.885537 575.130238 
L 93.001282 583.422946 
L 93.117028 576.161254 
L 93.232773 542.166674 
L 93.348518 544.345966 
L 93.580008 539.248043 
L 93.695754 542.709997 
L 93.811499 542.708934 
L 93.927244 539.941224 
L 94.042989 545.329777 
L 94.158735 543.081915 
L 94.27448 554.113686 
L 94.50597 525.289536 
L 94.621716 527.757115 
L 94.853206 520.413484 
L 94.968951 526.573356 
L 95.084697 526.487091 
L 95.200442 523.131957 
L 95.431932 529.837684 
L 95.663423 513.648076 
L 95.894913 521.529132 
L 96.010658 521.591565 
L 96.126404 517.738119 
L 96.357894 525.615286 
L 96.820875 493.972392 
L 96.93662 500.116893 
L 97.052366 493.423402 
L 97.168111 493.611705 
L 97.283856 494.915442 
L 97.399601 497.624451 
L 97.631092 487.703065 
L 97.746837 493.623611 
L 97.862582 490.098543 
L 97.978327 478.604297 
L 98.094073 489.244655 
L 98.209818 477.518021 
L 98.325563 479.758563 
L 98.441308 478.752195 
L 98.672799 482.193748 
L 98.904289 495.09788 
L 99.13578 478.137186 
L 99.251525 482.072755 
L 99.36727 481.932499 
L 99.483016 481.510714 
L 99.598761 479.621631 
L 99.714506 481.331076 
L 99.830251 480.344798 
L 99.945997 475.10508 
L 100.061742 475.318489 
L 100.177487 482.767607 
L 100.408977 475.232207 
L 100.640468 479.058328 
L 100.871958 468.812864 
L 100.987704 471.193812 
L 101.103449 477.690163 
L 101.219194 474.189184 
L 101.334939 463.313609 
L 101.56643 471.536121 
L 101.79792 466.646422 
L 101.913666 470.306432 
L 102.029411 469.082843 
L 102.145156 464.725543 
L 102.260901 467.944814 
L 102.376647 467.569813 
L 102.492392 459.82286 
L 102.608137 461.011923 
L 102.839627 454.170908 
L 102.955373 455.63553 
L 103.071118 455.103254 
L 103.186863 459.179042 
L 103.302608 452.501372 
L 103.534099 460.414247 
L 103.649844 461.844646 
L 103.881335 457.516186 
L 104.112825 464.743393 
L 104.22857 464.22945 
L 104.344316 448.64281 
L 104.460061 448.849546 
L 104.575806 453.403833 
L 104.691551 452.489799 
L 104.923042 446.22508 
L 105.038787 447.300696 
L 105.154532 449.897753 
L 105.386023 441.403018 
L 105.617513 448.245799 
L 105.849004 452.341459 
L 105.964749 449.269041 
L 106.196239 440.157237 
L 106.42773 433.202595 
L 106.65922 443.205058 
L 106.774966 440.257474 
L 107.006456 453.47363 
L 107.353692 435.49685 
L 107.469437 444.432852 
L 107.700927 432.743889 
L 107.932418 437.164543 
L 108.048163 435.76425 
L 108.163908 442.680702 
L 108.279654 434.71493 
L 108.395399 442.050789 
L 108.626889 433.569061 
L 108.742635 432.655905 
L 108.974125 423.961455 
L 109.205616 434.539479 
L 109.321361 426.494071 
L 109.437106 435.671723 
L 109.552851 430.544006 
L 109.668597 434.260314 
L 109.900087 430.077086 
L 110.015832 435.13422 
L 110.131577 433.194381 
L 110.247323 427.901192 
L 110.363068 435.399799 
L 110.478813 434.355209 
L 110.594558 437.32347 
L 110.826049 435.363531 
L 110.941794 436.840651 
L 111.057539 440.038245 
L 111.28903 454.76223 
L 111.52052 445.278781 
L 111.636266 447.466867 
L 111.867756 439.867437 
L 111.983501 441.137617 
L 112.099247 438.086736 
L 112.214992 443.080158 
L 112.330737 429.850624 
L 112.446482 444.406519 
L 112.562227 443.495989 
L 112.677973 449.077655 
L 112.909463 435.667565 
L 113.140954 442.8153 
L 113.256699 437.825682 
L 113.372444 439.434415 
L 113.488189 438.069915 
L 113.603935 435.384124 
L 113.835425 441.3816 
L 113.95117 441.482724 
L 114.066916 440.693029 
L 114.182661 428.505456 
L 114.414151 434.131248 
L 114.529897 434.75042 
L 114.645642 429.702821 
L 114.761387 434.980264 
L 114.877132 434.406808 
L 114.992877 429.911546 
L 115.108623 434.79073 
L 115.224368 433.144717 
L 115.340113 429.13815 
L 115.455858 440.406293 
L 115.571604 439.918031 
L 115.803094 436.715512 
L 116.034585 437.874598 
L 116.15033 436.263215 
L 116.266075 446.861159 
L 116.38182 431.04051 
L 116.497566 432.581827 
L 116.729056 445.545282 
L 116.960546 433.829285 
L 117.192037 440.069502 
L 117.307782 436.792166 
L 117.539273 412.676422 
L 117.655018 411.090909 
L 117.886508 419.256922 
L 118.002254 422.99473 
L 118.117999 436.992039 
L 118.233744 434.750968 
L 118.349489 418.860993 
L 118.465235 436.686934 
L 118.58098 434.230271 
L 118.81247 415.296531 
L 119.275451 430.471164 
L 119.506942 426.368494 
L 119.738432 419.743195 
L 119.969923 425.37414 
L 120.085668 426.156795 
L 120.201413 430.822716 
L 120.317158 425.400742 
L 120.432904 429.200308 
L 120.548649 423.742104 
L 120.664394 423.766776 
L 120.895885 435.215707 
L 121.01163 431.738399 
L 121.127375 436.20018 
L 121.24312 435.256475 
L 121.706101 453.674716 
L 121.937592 441.652464 
L 122.053337 443.453406 
L 122.169082 443.468997 
L 122.284827 432.345896 
L 122.516318 453.091486 
L 122.863554 438.438222 
L 122.979299 437.954912 
L 123.095044 435.416808 
L 123.210789 436.971007 
L 123.326535 443.599055 
L 123.558025 426.732318 
L 123.67377 427.632576 
L 123.789516 426.580143 
L 124.021006 429.318593 
L 124.136751 428.070816 
L 124.252496 428.332069 
L 124.368242 426.358442 
L 124.599732 420.102283 
L 125.062713 429.390077 
L 125.178458 429.727313 
L 125.294204 427.867283 
L 125.409949 428.984969 
L 125.525694 423.784951 
L 125.641439 434.175349 
L 125.757185 433.413496 
L 125.87293 434.80614 
L 125.988675 434.476495 
L 126.220166 426.144533 
L 126.335911 426.201886 
L 126.451656 440.833108 
L 126.683146 428.527037 
L 127.030382 438.312411 
L 127.146127 440.543357 
L 127.261873 439.10692 
L 127.377618 435.114143 
L 127.493363 439.103903 
L 127.609108 437.000675 
L 127.724854 432.242538 
L 127.840599 435.388054 
L 128.072089 443.377819 
L 128.187835 439.880097 
L 128.30358 441.539264 
L 128.419325 439.369228 
L 128.53507 432.148669 
L 128.998051 445.906811 
L 129.113796 442.280816 
L 129.229542 445.851895 
L 129.345287 443.498815 
L 129.576777 454.026719 
L 129.692523 453.708804 
L 129.924013 458.709378 
L 130.039758 457.826213 
L 130.155504 455.240546 
L 130.502739 440.042366 
L 130.618485 442.680973 
L 130.73423 436.444058 
L 130.849975 436.716467 
L 130.96572 440.371328 
L 131.081466 439.979726 
L 131.197211 438.771044 
L 131.312956 446.55285 
L 131.428701 446.052829 
L 131.544446 443.750018 
L 131.660192 437.222317 
L 131.891682 441.423395 
L 132.007427 441.616811 
L 132.238918 444.079884 
L 132.354663 443.371365 
L 132.470408 440.436737 
L 132.701899 448.571463 
L 132.817644 448.349815 
L 132.933389 453.033343 
L 133.049135 452.057301 
L 133.16488 445.055625 
L 133.39637 450.401191 
L 133.512115 453.040548 
L 133.743606 449.315623 
L 133.859351 452.228709 
L 134.090842 441.629326 
L 134.206587 445.228495 
L 134.322332 436.726884 
L 134.438077 436.413491 
L 134.785313 448.574982 
L 135.016804 437.834736 
L 135.132549 438.196871 
L 135.248294 441.210805 
L 135.364039 434.05897 
L 135.942765 450.527742 
L 136.174256 440.036387 
L 136.290001 448.94273 
L 136.405746 447.673428 
L 136.521492 441.519961 
L 136.637237 446.904447 
L 136.752982 445.199811 
L 136.868727 441.842354 
L 136.984473 441.85598 
L 137.100218 443.098066 
L 137.215963 440.37569 
L 137.447454 429.688629 
L 137.563199 441.603498 
L 137.678944 438.688293 
L 137.794689 447.697096 
L 138.02618 437.6632 
L 138.141925 440.837651 
L 138.25767 439.73101 
L 138.373415 446.50808 
L 138.489161 446.714003 
L 138.720651 435.235762 
L 138.836396 438.378918 
L 138.952142 437.671285 
L 139.067887 435.242439 
L 139.183632 437.47456 
L 139.415123 449.416644 
L 139.646613 423.473559 
L 139.878104 429.770862 
L 139.993849 429.440449 
L 140.225339 431.445188 
L 140.45683 425.002372 
L 140.804065 446.772938 
L 140.919811 448.999074 
L 141.035556 448.428895 
L 141.151301 445.100311 
L 141.382792 435.215118 
L 141.498537 445.15968 
L 141.614282 445.379521 
L 141.730027 444.153163 
L 141.961518 449.253168 
L 142.077263 447.127521 
L 142.193008 448.731059 
L 142.308754 452.158195 
L 142.424499 446.443735 
L 142.540244 460.18006 
L 142.655989 459.620429 
L 142.771735 456.542737 
L 143.003225 442.511527 
L 143.234715 444.680048 
L 143.350461 449.926069 
L 143.581951 445.44986 
L 143.929187 452.298946 
L 144.044932 450.522161 
L 144.160677 450.996712 
L 144.276423 457.667841 
L 144.392168 451.715445 
L 144.507913 461.068114 
L 144.623658 450.150555 
L 144.739404 456.153711 
L 144.855149 455.768546 
L 145.086639 460.249885 
L 145.202385 458.691818 
L 145.31813 459.68068 
L 145.54962 438.955877 
L 145.665365 440.190464 
L 145.781111 446.741073 
L 145.896856 446.611437 
L 146.012601 445.396452 
L 146.244092 451.909813 
L 146.359837 450.899973 
L 146.475582 451.218836 
L 146.591327 457.289589 
L 146.707073 452.704729 
L 146.822818 458.290261 
L 147.054308 447.26142 
L 147.170054 447.903514 
L 147.401544 453.933434 
L 147.517289 453.309614 
L 147.633035 455.435077 
L 147.74878 454.45785 
L 147.864525 454.534901 
L 148.096015 463.959457 
L 148.443251 479.960578 
L 148.558996 493.822407 
L 148.790487 466.661151 
L 148.906232 461.456441 
L 149.137723 462.505034 
L 149.253468 460.195877 
L 149.369213 460.629103 
L 149.484958 472.156255 
L 149.716449 458.870405 
L 150.063684 469.375776 
L 150.17943 470.714064 
L 150.41092 477.851805 
L 150.642411 466.897955 
L 150.873901 477.389591 
L 151.105392 474.885283 
L 151.336882 460.24798 
L 151.568373 472.725546 
L 151.684118 466.62662 
L 151.799863 469.983372 
L 151.915608 468.82878 
L 152.031354 470.367434 
L 152.262844 475.298957 
L 152.61008 464.233009 
L 152.84157 472.051127 
L 152.957315 471.992661 
L 153.073061 471.759535 
L 153.304551 482.117722 
L 153.420296 473.155675 
L 153.536042 475.805733 
L 153.651787 472.553126 
L 153.767532 476.33135 
L 153.883277 470.570617 
L 153.999023 472.638675 
L 154.346258 484.498179 
L 154.577749 480.673866 
L 154.693494 479.196662 
L 154.809239 483.051593 
L 154.924984 475.892704 
L 155.04073 477.950377 
L 155.156475 474.040258 
L 155.387965 448.889946 
L 155.619456 462.589557 
L 155.735201 460.17195 
L 155.850946 453.843045 
L 155.966692 455.706911 
L 156.313927 466.452279 
L 156.545418 459.201717 
L 156.661163 456.134123 
L 156.776908 460.020211 
L 157.124144 448.456483 
L 157.239889 448.304213 
L 157.47138 455.711726 
L 157.587125 456.444182 
L 157.818615 449.252177 
L 157.934361 446.534281 
L 158.165851 454.845598 
L 158.281596 451.999002 
L 158.513087 458.531041 
L 158.744577 455.250412 
L 158.860323 454.091291 
L 158.976068 454.845125 
L 159.091813 454.118532 
L 159.323304 449.868284 
L 159.439049 449.911445 
L 159.670539 454.445955 
L 159.786284 449.758031 
L 160.017775 456.410059 
L 160.13352 454.905395 
L 160.365011 468.270708 
L 160.596501 458.931844 
L 160.712246 463.876685 
L 160.827992 460.170594 
L 161.059482 470.175219 
L 161.290973 465.84446 
L 161.406718 456.593054 
L 161.638208 463.459546 
L 161.753954 462.509775 
L 161.869699 456.018857 
L 162.101189 464.807273 
L 162.33268 471.745444 
L 162.448425 466.631661 
L 162.56417 466.498997 
L 162.679915 458.768991 
L 162.795661 465.801319 
L 162.911406 457.360861 
L 163.027151 459.549573 
L 163.142896 459.250969 
L 163.258642 456.367731 
L 163.374387 459.264277 
L 163.490132 457.257857 
L 163.605877 442.636235 
L 163.721623 447.687443 
L 163.953113 460.518588 
L 164.300349 464.423519 
L 164.531839 455.865409 
L 164.647584 460.4067 
L 164.879075 476.16708 
L 164.99482 469.414965 
L 165.226311 479.683223 
L 165.457801 473.978137 
L 165.573546 481.665201 
L 165.689292 478.543513 
L 165.805037 470.134496 
L 165.920782 472.926395 
L 166.036527 471.311841 
L 166.268018 471.657293 
L 166.383763 469.885422 
L 166.499508 473.869327 
L 166.615253 472.055587 
L 166.730999 473.017322 
L 166.846744 477.269822 
L 167.19398 459.786104 
L 167.309725 459.93483 
L 167.42547 461.56558 
L 167.541215 467.040998 
L 167.656961 467.24959 
L 167.772706 473.757317 
L 168.119942 463.647423 
L 168.235687 463.558113 
L 168.467177 473.929908 
L 168.698668 465.549815 
L 168.814413 468.94236 
L 169.045903 462.282425 
L 169.161649 462.090982 
L 169.393139 463.206753 
L 169.508884 463.380348 
L 169.62463 472.619468 
L 169.740375 457.06112 
L 169.971865 470.197204 
L 170.087611 464.012696 
L 170.203356 466.082548 
L 170.319101 470.87036 
L 170.434846 467.854527 
L 170.550592 468.992727 
L 170.666337 463.636121 
L 170.782082 481.493723 
L 171.013573 455.725656 
L 171.360808 471.731754 
L 171.592299 461.258043 
L 171.708044 463.285705 
L 171.823789 472.426567 
L 171.939534 468.866242 
L 172.05528 475.03915 
L 172.171025 473.103041 
L 172.28677 467.628904 
L 172.634006 473.564767 
L 172.749751 477.78313 
L 172.865496 468.604999 
L 172.981242 472.557987 
L 173.096987 471.667116 
L 173.328477 478.075846 
L 173.444223 473.27098 
L 173.559968 475.722078 
L 173.675713 467.999725 
L 173.791458 476.166425 
L 173.907203 475.004588 
L 174.138694 467.167928 
L 174.370184 480.593881 
L 174.48593 477.931458 
L 174.601675 478.544369 
L 174.71742 474.066669 
L 174.833165 476.350748 
L 174.948911 472.32009 
L 175.180401 477.177471 
L 175.296146 477.24524 
L 175.411892 479.306054 
L 175.527637 476.461104 
L 175.643382 467.513222 
L 175.990618 475.250133 
L 176.222108 467.04118 
L 176.453599 470.252759 
L 176.569344 460.351859 
L 176.800834 476.688831 
L 177.032325 470.995844 
L 177.263815 471.880146 
L 177.379561 471.177911 
L 177.495306 469.745198 
L 177.611051 470.294795 
L 177.726796 477.547132 
L 177.842542 473.768744 
L 177.958287 460.140834 
L 178.189777 466.970134 
L 178.305523 464.649051 
L 178.421268 468.417994 
L 178.537013 476.068839 
L 178.652758 467.89186 
L 178.768503 486.104443 
L 178.884249 478.064544 
L 178.999994 480.827177 
L 179.115739 479.396638 
L 179.231484 473.732178 
L 179.34723 475.021517 
L 179.462975 480.789124 
L 179.694465 466.108746 
L 180.041701 481.178909 
L 180.157446 479.082063 
L 180.273192 474.320623 
L 180.504682 476.112308 
L 180.620427 470.316759 
L 180.736173 477.385573 
L 180.851918 476.424072 
L 180.967663 470.333207 
L 181.083408 476.531401 
L 181.314899 468.453362 
L 181.546389 475.195378 
L 181.662134 468.951725 
L 181.893625 475.356034 
L 182.00937 477.3358 
L 182.125115 476.020434 
L 182.240861 476.041494 
L 182.356606 479.576269 
L 182.472351 479.166678 
L 182.588096 470.942141 
L 182.819587 485.926132 
L 183.051077 479.070787 
L 183.282568 473.677272 
L 183.514058 478.857434 
L 183.629803 477.688853 
L 183.745549 481.375055 
L 183.861294 476.128323 
L 184.092784 480.868867 
L 184.20853 486.067068 
L 184.324275 486.122775 
L 184.44002 483.012086 
L 184.555765 483.152999 
L 184.671511 472.517864 
L 184.787256 477.950132 
L 184.903001 476.971969 
L 185.134492 485.065863 
L 185.365982 481.259939 
L 185.481727 482.216511 
L 185.597472 473.756848 
L 185.713218 477.443175 
L 185.828963 488.947985 
L 186.060453 473.406003 
L 186.291944 484.4573 
L 186.523434 477.283698 
L 186.986415 486.762617 
L 187.102161 481.863104 
L 187.217906 486.134992 
L 187.333651 485.745566 
L 187.449396 479.188034 
L 187.565142 484.003448 
L 187.796632 508.806458 
L 187.912377 501.505339 
L 188.028122 503.334504 
L 188.259613 510.728399 
L 188.375358 510.415606 
L 188.491103 508.391273 
L 188.606849 504.172142 
L 188.722594 507.182296 
L 188.838339 513.31254 
L 189.06983 503.865798 
L 189.532811 511.420495 
L 189.648556 524.639234 
L 189.764301 513.489548 
L 189.880046 520.180903 
L 190.111537 502.692753 
L 190.343027 513.315954 
L 190.458772 512.643912 
L 190.574518 511.045106 
L 190.690263 514.515747 
L 190.806008 513.869935 
L 190.921753 516.066094 
L 191.153244 508.97473 
L 191.268989 512.201589 
L 191.384734 512.075203 
L 191.50048 510.730303 
L 191.616225 514.09806 
L 191.847715 511.154438 
L 191.963461 511.767984 
L 192.079206 508.484591 
L 192.194951 508.710641 
L 192.310696 508.193393 
L 192.657932 505.092393 
L 192.889422 511.546251 
L 193.005168 512.181934 
L 193.120913 507.901647 
L 193.236658 509.712346 
L 193.468149 517.903576 
L 193.583894 513.388763 
L 193.699639 520.548261 
L 194.046875 512.392668 
L 194.16262 515.820715 
L 194.278365 515.004925 
L 194.394111 511.644636 
L 194.625601 517.013654 
L 194.741346 502.776011 
L 194.857092 510.447525 
L 194.972837 510.482794 
L 195.088582 511.53431 
L 195.204327 509.414739 
L 195.435818 515.945212 
L 195.551563 514.181548 
L 195.667308 517.632723 
L 195.783053 509.005839 
L 195.898799 515.765951 
L 196.130289 508.605953 
L 196.246034 504.59825 
L 196.36178 505.078926 
L 196.59327 509.291292 
L 196.824761 512.722539 
L 196.940506 512.065228 
L 197.056251 512.480492 
L 197.287742 504.738889 
L 197.519232 511.934278 
L 197.634977 511.650665 
L 197.866468 500.946663 
L 197.982213 512.925479 
L 198.097958 513.069777 
L 198.213703 514.439039 
L 198.445194 509.743837 
L 198.560939 510.033388 
L 198.79243 515.771298 
L 198.908175 511.478129 
L 199.02392 512.199308 
L 199.139665 510.147819 
L 199.255411 511.552155 
L 199.486901 506.33955 
L 199.602646 510.059623 
L 199.949882 491.370709 
L 200.181372 507.241798 
L 200.297118 505.741465 
L 200.528608 500.574141 
L 200.644353 502.789953 
L 200.760099 508.294048 
L 200.875844 498.250028 
L 200.991589 500.196922 
L 201.107334 506.634524 
L 201.22308 501.660527 
L 201.45457 503.234747 
L 201.570315 497.364626 
L 201.686061 497.884179 
L 202.033296 504.968815 
L 202.149041 498.776258 
L 202.380532 508.234075 
L 202.496277 505.157531 
L 202.612022 505.422484 
L 202.727768 508.228283 
L 202.843513 503.675779 
L 202.959258 503.528417 
L 203.075003 505.373134 
L 203.190749 499.062711 
L 203.306494 501.375682 
L 203.537984 493.303101 
L 203.65373 500.148846 
L 203.769475 499.332995 
L 203.88522 509.132179 
L 204.000965 498.57023 
L 204.232456 505.827556 
L 204.348201 505.790919 
L 204.695437 496.741861 
L 204.811182 497.912623 
L 204.926927 497.864072 
L 205.042672 495.405383 
L 205.389908 511.114445 
L 205.505653 510.803476 
L 205.737144 501.523509 
L 205.968634 505.741258 
L 206.08438 499.43847 
L 206.31587 506.142118 
L 206.547361 499.147262 
L 206.778851 502.067691 
L 206.894596 493.635004 
L 207.010341 507.332469 
L 207.241832 495.071014 
L 207.357577 497.025929 
L 207.589068 505.616438 
L 207.820558 508.961611 
L 207.936303 489.861163 
L 208.052049 498.484797 
L 208.167794 497.094533 
L 208.399284 506.61494 
L 208.51503 504.292731 
L 208.74652 496.835135 
L 208.978011 511.720831 
L 209.325246 497.898115 
L 209.556737 504.772836 
L 209.788227 500.993074 
L 209.903972 495.999402 
L 210.135463 502.903871 
L 210.251208 500.605873 
L 210.366953 501.025932 
L 210.482699 500.400087 
L 210.714189 492.514983 
L 210.829934 494.267218 
L 210.94568 494.153357 
L 211.061425 503.21292 
L 211.17717 493.761163 
L 211.408661 500.082431 
L 211.640151 492.988493 
L 211.755896 497.232637 
L 211.987387 484.948816 
L 212.103132 487.217696 
L 212.218877 492.567332 
L 212.450368 478.623544 
L 212.566113 480.187102 
L 212.681858 483.787847 
L 212.797603 476.208316 
L 212.913349 481.407483 
L 213.029094 479.750922 
L 213.144839 482.575302 
L 213.260584 482.292908 
L 213.37633 483.143106 
L 213.60782 486.404647 
L 213.723565 486.527939 
L 213.839311 487.391516 
L 213.955056 483.8409 
L 214.070801 493.540721 
L 214.302291 479.438074 
L 214.533782 488.860648 
L 214.649527 487.856705 
L 214.765272 477.515744 
L 214.881018 487.275805 
L 214.996763 483.595454 
L 215.112508 485.836794 
L 215.343999 477.718479 
L 215.575489 484.724004 
L 215.691234 484.380734 
L 215.80698 487.391593 
L 216.03847 476.857161 
L 216.154215 476.575095 
L 216.385706 471.746966 
L 216.617196 480.412807 
L 216.732941 475.463561 
L 216.848687 481.867006 
L 216.964432 473.736056 
L 217.080177 482.916927 
L 217.195922 482.667285 
L 217.311668 483.045472 
L 217.543158 478.28617 
L 217.658903 480.817438 
L 217.774649 477.70101 
L 217.890394 481.992833 
L 218.006139 469.983561 
L 218.23763 480.496503 
L 218.353375 481.372161 
L 218.584865 485.217523 
L 218.70061 483.726022 
L 218.816356 478.8162 
L 218.932101 479.378798 
L 219.047846 473.357523 
L 219.163591 487.580319 
L 219.163591 487.580319 
" style="fill:none;stroke:#ff0000;stroke-linecap:square;stroke-width:1.5;"/>
   </g>
   <g id="patch_9">
    <path d="M 87.329766 656.6 
L 87.329766 399.4 
" style="fill:none;stroke:#000000;stroke-linecap:square;stroke-linejoin:miter;stroke-width:0.8;"/>
   </g>
   <g id="patch_10">
    <path d="M 1418.4 656.6 
L 1418.4 399.4 
" style="fill:none;stroke:#000000;stroke-linecap:square;stroke-linejoin:miter;stroke-width:0.8;"/>
   </g>
   <g id="patch_11">
    <path d="M 87.329766 656.6 
L 1418.4 656.6 
" style="fill:none;stroke:#000000;stroke-linecap:square;stroke-linejoin:miter;stroke-width:0.8;"/>
   </g>
   <g id="patch_12">
    <path d="M 87.329766 399.4 
L 1418.4 399.4 
" style="fill:none;stroke:#000000;stroke-linecap:square;stroke-linejoin:miter;stroke-width:0.8;"/>
   </g>
   <g id="text_26">
    <!-- Loss vs Timestep -->
    <g transform="translate(650.244258 393.4)scale(0.24 -0.24)">
     <use xlink:href="#DejaVuSans-76"/>
     <use x="53.962891" xlink:href="#DejaVuSans-111"/>
     <use x="115.144531" xlink:href="#DejaVuSans-115"/>
     <use x="167.244141" xlink:href="#DejaVuSans-115"/>
     <use x="219.34375" xlink:href="#DejaVuSans-32"/>
     <use x="251.130859" xlink:href="#DejaVuSans-118"/>
     <use x="310.310547" xlink:href="#DejaVuSans-115"/>
     <use x="362.410156" xlink:href="#DejaVuSans-32"/>
     <use x="394.197266" xlink:href="#DejaVuSans-84"/>
     <use x="452.15625" xlink:href="#DejaVuSans-105"/>
     <use x="479.939453" xlink:href="#DejaVuSans-109"/>
     <use x="577.351562" xlink:href="#DejaVuSans-101"/>
     <use x="638.875" xlink:href="#DejaVuSans-115"/>
     <use x="690.974609" xlink:href="#DejaVuSans-116"/>
     <use x="730.183594" xlink:href="#DejaVuSans-101"/>
     <use x="791.707031" xlink:href="#DejaVuSans-112"/>
    </g>
   </g>
   <g id="legend_2">
    <g id="patch_13">
     <path d="M 1301.873438 649.1 
L 1407.9 649.1 
Q 1410.9 649.1 1410.9 646.1 
L 1410.9 625.582813 
Q 1410.9 622.582813 1407.9 622.582813 
L 1301.873438 622.582813 
Q 1298.873438 622.582813 1298.873438 625.582813 
L 1298.873438 646.1 
Q 1298.873438 649.1 1301.873438 649.1 
z
" style="fill:#ffffff;opacity:0.8;stroke:#cccccc;stroke-linejoin:miter;"/>
    </g>
    <g id="line2d_35">
     <path d="M 1304.873438 634.730469 
L 1334.873438 634.730469 
" style="fill:none;stroke:#ff0000;stroke-linecap:square;stroke-width:1.5;"/>
    </g>
    <g id="line2d_36"/>
    <g id="text_27">
     <!-- Avg. TD -->
     <g transform="translate(1346.873438 639.980469)scale(0.15 -0.15)">
      <use xlink:href="#DejaVuSans-65"/>
      <use x="62.533203" xlink:href="#DejaVuSans-118"/>
      <use x="121.712891" xlink:href="#DejaVuSans-103"/>
      <use x="185.189453" xlink:href="#DejaVuSans-46"/>
      <use x="216.976562" xlink:href="#DejaVuSans-32"/>
      <use x="248.763672" xlink:href="#DejaVuSans-84"/>
      <use x="309.847656" xlink:href="#DejaVuSans-68"/>
     </g>
    </g>
   </g>
  </g>
  <g id="axes_3">
   <g id="patch_14">
    <path d="M 87.329766 1009.4 
L 1418.4 1009.4 
L 1418.4 752.2 
L 87.329766 752.2 
z
" style="fill:#ffffff;"/>
   </g>
   <g id="matplotlib.axis_5">
    <g id="xtick_13">
     <g id="line2d_37">
      <g>
       <use style="stroke:#000000;stroke-width:0.8;" x="203.075003" xlink:href="#m8c905dab83" y="1009.4"/>
      </g>
     </g>
     <g id="text_28">
      <!-- 1e+05 -->
      <g transform="translate(169.454691 1031.596875)scale(0.2 -0.2)">
       <use xlink:href="#DejaVuSans-49"/>
       <use x="63.623047" xlink:href="#DejaVuSans-101"/>
       <use x="125.146484" xlink:href="#DejaVuSans-43"/>
       <use x="208.935547" xlink:href="#DejaVuSans-48"/>
       <use x="272.558594" xlink:href="#DejaVuSans-53"/>
      </g>
     </g>
    </g>
    <g id="xtick_14">
     <g id="line2d_38">
      <g>
       <use style="stroke:#000000;stroke-width:0.8;" x="318.820241" xlink:href="#m8c905dab83" y="1009.4"/>
      </g>
     </g>
     <g id="text_29">
      <!-- 2e+05 -->
      <g transform="translate(285.199929 1031.596875)scale(0.2 -0.2)">
       <use xlink:href="#DejaVuSans-50"/>
       <use x="63.623047" xlink:href="#DejaVuSans-101"/>
       <use x="125.146484" xlink:href="#DejaVuSans-43"/>
       <use x="208.935547" xlink:href="#DejaVuSans-48"/>
       <use x="272.558594" xlink:href="#DejaVuSans-53"/>
      </g>
     </g>
    </g>
    <g id="xtick_15">
     <g id="line2d_39">
      <g>
       <use style="stroke:#000000;stroke-width:0.8;" x="550.310717" xlink:href="#m8c905dab83" y="1009.4"/>
      </g>
     </g>
     <g id="text_30">
      <!-- 4e+05 -->
      <g transform="translate(516.690404 1031.596875)scale(0.2 -0.2)">
       <use xlink:href="#DejaVuSans-52"/>
       <use x="63.623047" xlink:href="#DejaVuSans-101"/>
       <use x="125.146484" xlink:href="#DejaVuSans-43"/>
       <use x="208.935547" xlink:href="#DejaVuSans-48"/>
       <use x="272.558594" xlink:href="#DejaVuSans-53"/>
      </g>
     </g>
    </g>
    <g id="xtick_16">
     <g id="line2d_40">
      <g>
       <use style="stroke:#000000;stroke-width:0.8;" x="781.801192" xlink:href="#m8c905dab83" y="1009.4"/>
      </g>
     </g>
     <g id="text_31">
      <!-- 6e+05 -->
      <g transform="translate(748.18088 1031.596875)scale(0.2 -0.2)">
       <use xlink:href="#DejaVuSans-54"/>
       <use x="63.623047" xlink:href="#DejaVuSans-101"/>
       <use x="125.146484" xlink:href="#DejaVuSans-43"/>
       <use x="208.935547" xlink:href="#DejaVuSans-48"/>
       <use x="272.558594" xlink:href="#DejaVuSans-53"/>
      </g>
     </g>
    </g>
    <g id="xtick_17">
     <g id="line2d_41">
      <g>
       <use style="stroke:#000000;stroke-width:0.8;" x="1013.291668" xlink:href="#m8c905dab83" y="1009.4"/>
      </g>
     </g>
     <g id="text_32">
      <!-- 8e+05 -->
      <g transform="translate(979.671355 1031.596875)scale(0.2 -0.2)">
       <use xlink:href="#DejaVuSans-56"/>
       <use x="63.623047" xlink:href="#DejaVuSans-101"/>
       <use x="125.146484" xlink:href="#DejaVuSans-43"/>
       <use x="208.935547" xlink:href="#DejaVuSans-48"/>
       <use x="272.558594" xlink:href="#DejaVuSans-53"/>
      </g>
     </g>
    </g>
    <g id="xtick_18">
     <g id="line2d_42">
      <g>
       <use style="stroke:#000000;stroke-width:0.8;" x="1244.782143" xlink:href="#m8c905dab83" y="1009.4"/>
      </g>
     </g>
     <g id="text_33">
      <!-- 1e+06 -->
      <g transform="translate(1211.161831 1031.596875)scale(0.2 -0.2)">
       <use xlink:href="#DejaVuSans-49"/>
       <use x="63.623047" xlink:href="#DejaVuSans-101"/>
       <use x="125.146484" xlink:href="#DejaVuSans-43"/>
       <use x="208.935547" xlink:href="#DejaVuSans-48"/>
       <use x="272.558594" xlink:href="#DejaVuSans-54"/>
      </g>
     </g>
    </g>
    <g id="text_34">
     <!-- Timestep -->
     <g transform="translate(706.766445 1054.953125)scale(0.2 -0.2)">
      <use xlink:href="#DejaVuSans-84"/>
      <use x="57.958984" xlink:href="#DejaVuSans-105"/>
      <use x="85.742188" xlink:href="#DejaVuSans-109"/>
      <use x="183.154297" xlink:href="#DejaVuSans-101"/>
      <use x="244.677734" xlink:href="#DejaVuSans-115"/>
      <use x="296.777344" xlink:href="#DejaVuSans-116"/>
      <use x="335.986328" xlink:href="#DejaVuSans-101"/>
      <use x="397.509766" xlink:href="#DejaVuSans-112"/>
     </g>
    </g>
   </g>
   <g id="matplotlib.axis_6">
    <g id="ytick_19">
     <g id="line2d_43">
      <defs>
       <path d="M 0 0 
L -3.5 0 
" id="m04961fbd12" style="stroke:#000000;stroke-width:0.8;"/>
      </defs>
      <g>
       <use style="stroke:#000000;stroke-width:0.8;" x="87.329766" xlink:href="#m04961fbd12" y="1009.4"/>
      </g>
     </g>
     <g id="text_35">
      <!-- 0.0 -->
      <g transform="translate(56.475078 1015.098828)scale(0.15 -0.15)">
       <use xlink:href="#DejaVuSans-48"/>
       <use x="63.623047" xlink:href="#DejaVuSans-46"/>
       <use x="95.410156" xlink:href="#DejaVuSans-48"/>
      </g>
     </g>
    </g>
    <g id="ytick_20">
     <g id="line2d_44">
      <g>
       <use style="stroke:#000000;stroke-width:0.8;" x="87.329766" xlink:href="#m04961fbd12" y="957.96"/>
      </g>
     </g>
     <g id="text_36">
      <!-- 0.2 -->
      <g transform="translate(56.475078 963.658828)scale(0.15 -0.15)">
       <use xlink:href="#DejaVuSans-48"/>
       <use x="63.623047" xlink:href="#DejaVuSans-46"/>
       <use x="95.410156" xlink:href="#DejaVuSans-50"/>
      </g>
     </g>
    </g>
    <g id="ytick_21">
     <g id="line2d_45">
      <g>
       <use style="stroke:#000000;stroke-width:0.8;" x="87.329766" xlink:href="#m04961fbd12" y="906.52"/>
      </g>
     </g>
     <g id="text_37">
      <!-- 0.4 -->
      <g transform="translate(56.475078 912.218828)scale(0.15 -0.15)">
       <use xlink:href="#DejaVuSans-48"/>
       <use x="63.623047" xlink:href="#DejaVuSans-46"/>
       <use x="95.410156" xlink:href="#DejaVuSans-52"/>
      </g>
     </g>
    </g>
    <g id="ytick_22">
     <g id="line2d_46">
      <g>
       <use style="stroke:#000000;stroke-width:0.8;" x="87.329766" xlink:href="#m04961fbd12" y="855.08"/>
      </g>
     </g>
     <g id="text_38">
      <!-- 0.6 -->
      <g transform="translate(56.475078 860.778828)scale(0.15 -0.15)">
       <use xlink:href="#DejaVuSans-48"/>
       <use x="63.623047" xlink:href="#DejaVuSans-46"/>
       <use x="95.410156" xlink:href="#DejaVuSans-54"/>
      </g>
     </g>
    </g>
    <g id="ytick_23">
     <g id="line2d_47">
      <g>
       <use style="stroke:#000000;stroke-width:0.8;" x="87.329766" xlink:href="#m04961fbd12" y="803.64"/>
      </g>
     </g>
     <g id="text_39">
      <!-- 0.8 -->
      <g transform="translate(56.475078 809.338828)scale(0.15 -0.15)">
       <use xlink:href="#DejaVuSans-48"/>
       <use x="63.623047" xlink:href="#DejaVuSans-46"/>
       <use x="95.410156" xlink:href="#DejaVuSans-56"/>
      </g>
     </g>
    </g>
    <g id="ytick_24">
     <g id="line2d_48">
      <g>
       <use style="stroke:#000000;stroke-width:0.8;" x="87.329766" xlink:href="#m04961fbd12" y="752.2"/>
      </g>
     </g>
     <g id="text_40">
      <!-- 1.0 -->
      <g transform="translate(56.475078 757.898828)scale(0.15 -0.15)">
       <use xlink:href="#DejaVuSans-49"/>
       <use x="63.623047" xlink:href="#DejaVuSans-46"/>
       <use x="95.410156" xlink:href="#DejaVuSans-48"/>
      </g>
     </g>
    </g>
   </g>
   <g id="patch_15">
    <path d="M 87.329766 1009.4 
L 87.329766 752.2 
" style="fill:none;stroke:#000000;stroke-linecap:square;stroke-linejoin:miter;stroke-width:0.8;"/>
   </g>
   <g id="patch_16">
    <path d="M 1418.4 1009.4 
L 1418.4 752.2 
" style="fill:none;stroke:#000000;stroke-linecap:square;stroke-linejoin:miter;stroke-width:0.8;"/>
   </g>
   <g id="patch_17">
    <path d="M 87.329766 1009.4 
L 1418.4 1009.4 
" style="fill:none;stroke:#000000;stroke-linecap:square;stroke-linejoin:miter;stroke-width:0.8;"/>
   </g>
   <g id="patch_18">
    <path d="M 87.329766 752.2 
L 1418.4 752.2 
" style="fill:none;stroke:#000000;stroke-linecap:square;stroke-linejoin:miter;stroke-width:0.8;"/>
   </g>
   <g id="text_41">
    <!-- Action Selection Frequency(%) vs Timestep -->
    <defs>
     <path d="M 53.515625 70.515625 
L 53.515625 60.890625 
Q 47.90625 63.578125 42.921875 64.890625 
Q 37.9375 66.21875 33.296875 66.21875 
Q 25.25 66.21875 20.875 63.09375 
Q 16.5 59.96875 16.5 54.203125 
Q 16.5 49.359375 19.40625 46.890625 
Q 22.3125 44.4375 30.421875 42.921875 
L 36.375 41.703125 
Q 47.40625 39.59375 52.65625 34.296875 
Q 57.90625 29 57.90625 20.125 
Q 57.90625 9.515625 50.796875 4.046875 
Q 43.703125 -1.421875 29.984375 -1.421875 
Q 24.8125 -1.421875 18.96875 -0.25 
Q 13.140625 0.921875 6.890625 3.21875 
L 6.890625 13.375 
Q 12.890625 10.015625 18.65625 8.296875 
Q 24.421875 6.59375 29.984375 6.59375 
Q 38.421875 6.59375 43.015625 9.90625 
Q 47.609375 13.234375 47.609375 19.390625 
Q 47.609375 24.75 44.3125 27.78125 
Q 41.015625 30.8125 33.5 32.328125 
L 27.484375 33.5 
Q 16.453125 35.6875 11.515625 40.375 
Q 6.59375 45.0625 6.59375 53.421875 
Q 6.59375 63.09375 13.40625 68.65625 
Q 20.21875 74.21875 32.171875 74.21875 
Q 37.3125 74.21875 42.625 73.28125 
Q 47.953125 72.359375 53.515625 70.515625 
z
" id="DejaVuSans-83"/>
     <path d="M 9.8125 72.90625 
L 51.703125 72.90625 
L 51.703125 64.59375 
L 19.671875 64.59375 
L 19.671875 43.109375 
L 48.578125 43.109375 
L 48.578125 34.8125 
L 19.671875 34.8125 
L 19.671875 0 
L 9.8125 0 
z
" id="DejaVuSans-70"/>
     <path d="M 14.796875 27.296875 
Q 14.796875 17.390625 18.875 11.75 
Q 22.953125 6.109375 30.078125 6.109375 
Q 37.203125 6.109375 41.296875 11.75 
Q 45.40625 17.390625 45.40625 27.296875 
Q 45.40625 37.203125 41.296875 42.84375 
Q 37.203125 48.484375 30.078125 48.484375 
Q 22.953125 48.484375 18.875 42.84375 
Q 14.796875 37.203125 14.796875 27.296875 
z
M 45.40625 8.203125 
Q 42.578125 3.328125 38.25 0.953125 
Q 33.9375 -1.421875 27.875 -1.421875 
Q 17.96875 -1.421875 11.734375 6.484375 
Q 5.515625 14.40625 5.515625 27.296875 
Q 5.515625 40.1875 11.734375 48.09375 
Q 17.96875 56 27.875 56 
Q 33.9375 56 38.25 53.625 
Q 42.578125 51.265625 45.40625 46.390625 
L 45.40625 54.6875 
L 54.390625 54.6875 
L 54.390625 -20.796875 
L 45.40625 -20.796875 
z
" id="DejaVuSans-113"/>
     <path d="M 8.5 21.578125 
L 8.5 54.6875 
L 17.484375 54.6875 
L 17.484375 21.921875 
Q 17.484375 14.15625 20.5 10.265625 
Q 23.53125 6.390625 29.59375 6.390625 
Q 36.859375 6.390625 41.078125 11.03125 
Q 45.3125 15.671875 45.3125 23.6875 
L 45.3125 54.6875 
L 54.296875 54.6875 
L 54.296875 0 
L 45.3125 0 
L 45.3125 8.40625 
Q 42.046875 3.421875 37.71875 1 
Q 33.40625 -1.421875 27.6875 -1.421875 
Q 18.265625 -1.421875 13.375 4.4375 
Q 8.5 10.296875 8.5 21.578125 
z
M 31.109375 56 
z
" id="DejaVuSans-117"/>
     <path d="M 32.171875 -5.078125 
Q 28.375 -14.84375 24.75 -17.8125 
Q 21.140625 -20.796875 15.09375 -20.796875 
L 7.90625 -20.796875 
L 7.90625 -13.28125 
L 13.1875 -13.28125 
Q 16.890625 -13.28125 18.9375 -11.515625 
Q 21 -9.765625 23.484375 -3.21875 
L 25.09375 0.875 
L 2.984375 54.6875 
L 12.5 54.6875 
L 29.59375 11.921875 
L 46.6875 54.6875 
L 56.203125 54.6875 
z
" id="DejaVuSans-121"/>
     <path d="M 31 75.875 
Q 24.46875 64.65625 21.28125 53.65625 
Q 18.109375 42.671875 18.109375 31.390625 
Q 18.109375 20.125 21.3125 9.0625 
Q 24.515625 -2 31 -13.1875 
L 23.1875 -13.1875 
Q 15.875 -1.703125 12.234375 9.375 
Q 8.59375 20.453125 8.59375 31.390625 
Q 8.59375 42.28125 12.203125 53.3125 
Q 15.828125 64.359375 23.1875 75.875 
z
" id="DejaVuSans-40"/>
     <path d="M 72.703125 32.078125 
Q 68.453125 32.078125 66.03125 28.46875 
Q 63.625 24.859375 63.625 18.40625 
Q 63.625 12.0625 66.03125 8.421875 
Q 68.453125 4.78125 72.703125 4.78125 
Q 76.859375 4.78125 79.265625 8.421875 
Q 81.6875 12.0625 81.6875 18.40625 
Q 81.6875 24.8125 79.265625 28.4375 
Q 76.859375 32.078125 72.703125 32.078125 
z
M 72.703125 38.28125 
Q 80.421875 38.28125 84.953125 32.90625 
Q 89.5 27.546875 89.5 18.40625 
Q 89.5 9.28125 84.9375 3.921875 
Q 80.375 -1.421875 72.703125 -1.421875 
Q 64.890625 -1.421875 60.34375 3.921875 
Q 55.8125 9.28125 55.8125 18.40625 
Q 55.8125 27.59375 60.375 32.9375 
Q 64.9375 38.28125 72.703125 38.28125 
z
M 22.3125 68.015625 
Q 18.109375 68.015625 15.6875 64.375 
Q 13.28125 60.75 13.28125 54.390625 
Q 13.28125 47.953125 15.671875 44.328125 
Q 18.0625 40.71875 22.3125 40.71875 
Q 26.5625 40.71875 28.96875 44.328125 
Q 31.390625 47.953125 31.390625 54.390625 
Q 31.390625 60.6875 28.953125 64.34375 
Q 26.515625 68.015625 22.3125 68.015625 
z
M 66.40625 74.21875 
L 74.21875 74.21875 
L 28.609375 -1.421875 
L 20.796875 -1.421875 
z
M 22.3125 74.21875 
Q 30.03125 74.21875 34.609375 68.875 
Q 39.203125 63.53125 39.203125 54.390625 
Q 39.203125 45.171875 34.640625 39.84375 
Q 30.078125 34.515625 22.3125 34.515625 
Q 14.546875 34.515625 10.03125 39.859375 
Q 5.515625 45.21875 5.515625 54.390625 
Q 5.515625 63.484375 10.046875 68.84375 
Q 14.59375 74.21875 22.3125 74.21875 
z
" id="DejaVuSans-37"/>
     <path d="M 8.015625 75.875 
L 15.828125 75.875 
Q 23.140625 64.359375 26.78125 53.3125 
Q 30.421875 42.28125 30.421875 31.390625 
Q 30.421875 20.453125 26.78125 9.375 
Q 23.140625 -1.703125 15.828125 -13.1875 
L 8.015625 -13.1875 
Q 14.5 -2 17.703125 9.0625 
Q 20.90625 20.125 20.90625 31.390625 
Q 20.90625 42.671875 17.703125 53.65625 
Q 14.5 64.65625 8.015625 75.875 
z
" id="DejaVuSans-41"/>
    </defs>
    <g transform="translate(493.295508 746.2)scale(0.24 -0.24)">
     <use xlink:href="#DejaVuSans-65"/>
     <use x="66.658203" xlink:href="#DejaVuSans-99"/>
     <use x="121.638672" xlink:href="#DejaVuSans-116"/>
     <use x="160.847656" xlink:href="#DejaVuSans-105"/>
     <use x="188.630859" xlink:href="#DejaVuSans-111"/>
     <use x="249.8125" xlink:href="#DejaVuSans-110"/>
     <use x="313.191406" xlink:href="#DejaVuSans-32"/>
     <use x="344.978516" xlink:href="#DejaVuSans-83"/>
     <use x="408.455078" xlink:href="#DejaVuSans-101"/>
     <use x="469.978516" xlink:href="#DejaVuSans-108"/>
     <use x="497.761719" xlink:href="#DejaVuSans-101"/>
     <use x="559.285156" xlink:href="#DejaVuSans-99"/>
     <use x="614.265625" xlink:href="#DejaVuSans-116"/>
     <use x="653.474609" xlink:href="#DejaVuSans-105"/>
     <use x="681.257812" xlink:href="#DejaVuSans-111"/>
     <use x="742.439453" xlink:href="#DejaVuSans-110"/>
     <use x="805.818359" xlink:href="#DejaVuSans-32"/>
     <use x="837.605469" xlink:href="#DejaVuSans-70"/>
     <use x="887.875" xlink:href="#DejaVuSans-114"/>
     <use x="926.738281" xlink:href="#DejaVuSans-101"/>
     <use x="988.261719" xlink:href="#DejaVuSans-113"/>
     <use x="1051.738281" xlink:href="#DejaVuSans-117"/>
     <use x="1115.117188" xlink:href="#DejaVuSans-101"/>
     <use x="1176.640625" xlink:href="#DejaVuSans-110"/>
     <use x="1240.019531" xlink:href="#DejaVuSans-99"/>
     <use x="1295" xlink:href="#DejaVuSans-121"/>
     <use x="1354.179688" xlink:href="#DejaVuSans-40"/>
     <use x="1393.193359" xlink:href="#DejaVuSans-37"/>
     <use x="1488.212891" xlink:href="#DejaVuSans-41"/>
     <use x="1527.226562" xlink:href="#DejaVuSans-32"/>
     <use x="1559.013672" xlink:href="#DejaVuSans-118"/>
     <use x="1618.193359" xlink:href="#DejaVuSans-115"/>
     <use x="1670.292969" xlink:href="#DejaVuSans-32"/>
     <use x="1702.080078" xlink:href="#DejaVuSans-84"/>
     <use x="1760.039062" xlink:href="#DejaVuSans-105"/>
     <use x="1787.822266" xlink:href="#DejaVuSans-109"/>
     <use x="1885.234375" xlink:href="#DejaVuSans-101"/>
     <use x="1946.757812" xlink:href="#DejaVuSans-115"/>
     <use x="1998.857422" xlink:href="#DejaVuSans-116"/>
     <use x="2038.066406" xlink:href="#DejaVuSans-101"/>
     <use x="2099.589844" xlink:href="#DejaVuSans-112"/>
    </g>
   </g>
  </g>
 </g>
 <defs>
  <clipPath id="p397fc2ee03">
   <rect height="257.2" width="1331.070234" x="87.329766" y="46.6"/>
  </clipPath>
  <clipPath id="p7ea5e7777b">
   <rect height="257.2" width="1331.070234" x="87.329766" y="399.4"/>
  </clipPath>
 </defs>
</svg>
