<?xml version="1.0" encoding="utf-8" standalone="no"?>
<!DOCTYPE svg PUBLIC "-//W3C//DTD SVG 1.1//EN"
  "http://www.w3.org/Graphics/SVG/1.1/DTD/svg11.dtd">
<!-- Created with matplotlib (https://matplotlib.org/) -->
<svg height="1080pt" version="1.1" viewBox="0 0 1440 1080" width="1440pt" xmlns="http://www.w3.org/2000/svg" xmlns:xlink="http://www.w3.org/1999/xlink">
 <defs>
  <style type="text/css">
*{stroke-linecap:butt;stroke-linejoin:round;}
  </style>
 </defs>
 <g id="figure_1">
  <g id="patch_1">
   <path d="M 0 1080 
L 1440 1080 
L 1440 0 
L 0 0 
z
" style="fill:#ffffff;"/>
  </g>
  <g id="axes_1">
   <g id="patch_2">
    <path d="M 87.517266 303.8 
L 1418.4 303.8 
L 1418.4 46.6 
L 87.517266 46.6 
z
" style="fill:#ffffff;"/>
   </g>
   <g id="matplotlib.axis_1">
    <g id="xtick_1">
     <g id="line2d_1">
      <defs>
       <path d="M 0 0 
L 0 3.5 
" id="med4dc7631d" style="stroke:#000000;stroke-width:0.8;"/>
      </defs>
      <g>
       <use style="stroke:#000000;stroke-width:0.8;" x="203.246199" xlink:href="#med4dc7631d" y="303.8"/>
      </g>
     </g>
     <g id="text_1">
      <!-- 1e+05 -->
      <defs>
       <path d="M 12.40625 8.296875 
L 28.515625 8.296875 
L 28.515625 63.921875 
L 10.984375 60.40625 
L 10.984375 69.390625 
L 28.421875 72.90625 
L 38.28125 72.90625 
L 38.28125 8.296875 
L 54.390625 8.296875 
L 54.390625 0 
L 12.40625 0 
z
" id="DejaVuSans-49"/>
       <path d="M 56.203125 29.59375 
L 56.203125 25.203125 
L 14.890625 25.203125 
Q 15.484375 15.921875 20.484375 11.0625 
Q 25.484375 6.203125 34.421875 6.203125 
Q 39.59375 6.203125 44.453125 7.46875 
Q 49.3125 8.734375 54.109375 11.28125 
L 54.109375 2.78125 
Q 49.265625 0.734375 44.1875 -0.34375 
Q 39.109375 -1.421875 33.890625 -1.421875 
Q 20.796875 -1.421875 13.15625 6.1875 
Q 5.515625 13.8125 5.515625 26.8125 
Q 5.515625 40.234375 12.765625 48.109375 
Q 20.015625 56 32.328125 56 
Q 43.359375 56 49.78125 48.890625 
Q 56.203125 41.796875 56.203125 29.59375 
z
M 47.21875 32.234375 
Q 47.125 39.59375 43.09375 43.984375 
Q 39.0625 48.390625 32.421875 48.390625 
Q 24.90625 48.390625 20.390625 44.140625 
Q 15.875 39.890625 15.1875 32.171875 
z
" id="DejaVuSans-101"/>
       <path d="M 46 62.703125 
L 46 35.5 
L 73.1875 35.5 
L 73.1875 27.203125 
L 46 27.203125 
L 46 0 
L 37.796875 0 
L 37.796875 27.203125 
L 10.59375 27.203125 
L 10.59375 35.5 
L 37.796875 35.5 
L 37.796875 62.703125 
z
" id="DejaVuSans-43"/>
       <path d="M 31.78125 66.40625 
Q 24.171875 66.40625 20.328125 58.90625 
Q 16.5 51.421875 16.5 36.375 
Q 16.5 21.390625 20.328125 13.890625 
Q 24.171875 6.390625 31.78125 6.390625 
Q 39.453125 6.390625 43.28125 13.890625 
Q 47.125 21.390625 47.125 36.375 
Q 47.125 51.421875 43.28125 58.90625 
Q 39.453125 66.40625 31.78125 66.40625 
z
M 31.78125 74.21875 
Q 44.046875 74.21875 50.515625 64.515625 
Q 56.984375 54.828125 56.984375 36.375 
Q 56.984375 17.96875 50.515625 8.265625 
Q 44.046875 -1.421875 31.78125 -1.421875 
Q 19.53125 -1.421875 13.0625 8.265625 
Q 6.59375 17.96875 6.59375 36.375 
Q 6.59375 54.828125 13.0625 64.515625 
Q 19.53125 74.21875 31.78125 74.21875 
z
" id="DejaVuSans-48"/>
       <path d="M 10.796875 72.90625 
L 49.515625 72.90625 
L 49.515625 64.59375 
L 19.828125 64.59375 
L 19.828125 46.734375 
Q 21.96875 47.46875 24.109375 47.828125 
Q 26.265625 48.1875 28.421875 48.1875 
Q 40.625 48.1875 47.75 41.5 
Q 54.890625 34.8125 54.890625 23.390625 
Q 54.890625 11.625 47.5625 5.09375 
Q 40.234375 -1.421875 26.90625 -1.421875 
Q 22.3125 -1.421875 17.546875 -0.640625 
Q 12.796875 0.140625 7.71875 1.703125 
L 7.71875 11.625 
Q 12.109375 9.234375 16.796875 8.0625 
Q 21.484375 6.890625 26.703125 6.890625 
Q 35.15625 6.890625 40.078125 11.328125 
Q 45.015625 15.765625 45.015625 23.390625 
Q 45.015625 31 40.078125 35.4375 
Q 35.15625 39.890625 26.703125 39.890625 
Q 22.75 39.890625 18.8125 39.015625 
Q 14.890625 38.140625 10.796875 36.28125 
z
" id="DejaVuSans-53"/>
      </defs>
      <g transform="translate(169.625887 325.996875)scale(0.2 -0.2)">
       <use xlink:href="#DejaVuSans-49"/>
       <use x="63.623047" xlink:href="#DejaVuSans-101"/>
       <use x="125.146484" xlink:href="#DejaVuSans-43"/>
       <use x="208.935547" xlink:href="#DejaVuSans-48"/>
       <use x="272.558594" xlink:href="#DejaVuSans-53"/>
      </g>
     </g>
    </g>
    <g id="xtick_2">
     <g id="line2d_2">
      <g>
       <use style="stroke:#000000;stroke-width:0.8;" x="318.975132" xlink:href="#med4dc7631d" y="303.8"/>
      </g>
     </g>
     <g id="text_2">
      <!-- 2e+05 -->
      <defs>
       <path d="M 19.1875 8.296875 
L 53.609375 8.296875 
L 53.609375 0 
L 7.328125 0 
L 7.328125 8.296875 
Q 12.9375 14.109375 22.625 23.890625 
Q 32.328125 33.6875 34.8125 36.53125 
Q 39.546875 41.84375 41.421875 45.53125 
Q 43.3125 49.21875 43.3125 52.78125 
Q 43.3125 58.59375 39.234375 62.25 
Q 35.15625 65.921875 28.609375 65.921875 
Q 23.96875 65.921875 18.8125 64.3125 
Q 13.671875 62.703125 7.8125 59.421875 
L 7.8125 69.390625 
Q 13.765625 71.78125 18.9375 73 
Q 24.125 74.21875 28.421875 74.21875 
Q 39.75 74.21875 46.484375 68.546875 
Q 53.21875 62.890625 53.21875 53.421875 
Q 53.21875 48.921875 51.53125 44.890625 
Q 49.859375 40.875 45.40625 35.40625 
Q 44.1875 33.984375 37.640625 27.21875 
Q 31.109375 20.453125 19.1875 8.296875 
z
" id="DejaVuSans-50"/>
      </defs>
      <g transform="translate(285.35482 325.996875)scale(0.2 -0.2)">
       <use xlink:href="#DejaVuSans-50"/>
       <use x="63.623047" xlink:href="#DejaVuSans-101"/>
       <use x="125.146484" xlink:href="#DejaVuSans-43"/>
       <use x="208.935547" xlink:href="#DejaVuSans-48"/>
       <use x="272.558594" xlink:href="#DejaVuSans-53"/>
      </g>
     </g>
    </g>
    <g id="xtick_3">
     <g id="line2d_3">
      <g>
       <use style="stroke:#000000;stroke-width:0.8;" x="550.432999" xlink:href="#med4dc7631d" y="303.8"/>
      </g>
     </g>
     <g id="text_3">
      <!-- 4e+05 -->
      <defs>
       <path d="M 37.796875 64.3125 
L 12.890625 25.390625 
L 37.796875 25.390625 
z
M 35.203125 72.90625 
L 47.609375 72.90625 
L 47.609375 25.390625 
L 58.015625 25.390625 
L 58.015625 17.1875 
L 47.609375 17.1875 
L 47.609375 0 
L 37.796875 0 
L 37.796875 17.1875 
L 4.890625 17.1875 
L 4.890625 26.703125 
z
" id="DejaVuSans-52"/>
      </defs>
      <g transform="translate(516.812687 325.996875)scale(0.2 -0.2)">
       <use xlink:href="#DejaVuSans-52"/>
       <use x="63.623047" xlink:href="#DejaVuSans-101"/>
       <use x="125.146484" xlink:href="#DejaVuSans-43"/>
       <use x="208.935547" xlink:href="#DejaVuSans-48"/>
       <use x="272.558594" xlink:href="#DejaVuSans-53"/>
      </g>
     </g>
    </g>
    <g id="xtick_4">
     <g id="line2d_4">
      <g>
       <use style="stroke:#000000;stroke-width:0.8;" x="781.890866" xlink:href="#med4dc7631d" y="303.8"/>
      </g>
     </g>
     <g id="text_4">
      <!-- 6e+05 -->
      <defs>
       <path d="M 33.015625 40.375 
Q 26.375 40.375 22.484375 35.828125 
Q 18.609375 31.296875 18.609375 23.390625 
Q 18.609375 15.53125 22.484375 10.953125 
Q 26.375 6.390625 33.015625 6.390625 
Q 39.65625 6.390625 43.53125 10.953125 
Q 47.40625 15.53125 47.40625 23.390625 
Q 47.40625 31.296875 43.53125 35.828125 
Q 39.65625 40.375 33.015625 40.375 
z
M 52.59375 71.296875 
L 52.59375 62.3125 
Q 48.875 64.0625 45.09375 64.984375 
Q 41.3125 65.921875 37.59375 65.921875 
Q 27.828125 65.921875 22.671875 59.328125 
Q 17.53125 52.734375 16.796875 39.40625 
Q 19.671875 43.65625 24.015625 45.921875 
Q 28.375 48.1875 33.59375 48.1875 
Q 44.578125 48.1875 50.953125 41.515625 
Q 57.328125 34.859375 57.328125 23.390625 
Q 57.328125 12.15625 50.6875 5.359375 
Q 44.046875 -1.421875 33.015625 -1.421875 
Q 20.359375 -1.421875 13.671875 8.265625 
Q 6.984375 17.96875 6.984375 36.375 
Q 6.984375 53.65625 15.1875 63.9375 
Q 23.390625 74.21875 37.203125 74.21875 
Q 40.921875 74.21875 44.703125 73.484375 
Q 48.484375 72.75 52.59375 71.296875 
z
" id="DejaVuSans-54"/>
      </defs>
      <g transform="translate(748.270554 325.996875)scale(0.2 -0.2)">
       <use xlink:href="#DejaVuSans-54"/>
       <use x="63.623047" xlink:href="#DejaVuSans-101"/>
       <use x="125.146484" xlink:href="#DejaVuSans-43"/>
       <use x="208.935547" xlink:href="#DejaVuSans-48"/>
       <use x="272.558594" xlink:href="#DejaVuSans-53"/>
      </g>
     </g>
    </g>
    <g id="xtick_5">
     <g id="line2d_5">
      <g>
       <use style="stroke:#000000;stroke-width:0.8;" x="1013.348733" xlink:href="#med4dc7631d" y="303.8"/>
      </g>
     </g>
     <g id="text_5">
      <!-- 8e+05 -->
      <defs>
       <path d="M 31.78125 34.625 
Q 24.75 34.625 20.71875 30.859375 
Q 16.703125 27.09375 16.703125 20.515625 
Q 16.703125 13.921875 20.71875 10.15625 
Q 24.75 6.390625 31.78125 6.390625 
Q 38.8125 6.390625 42.859375 10.171875 
Q 46.921875 13.96875 46.921875 20.515625 
Q 46.921875 27.09375 42.890625 30.859375 
Q 38.875 34.625 31.78125 34.625 
z
M 21.921875 38.8125 
Q 15.578125 40.375 12.03125 44.71875 
Q 8.5 49.078125 8.5 55.328125 
Q 8.5 64.0625 14.71875 69.140625 
Q 20.953125 74.21875 31.78125 74.21875 
Q 42.671875 74.21875 48.875 69.140625 
Q 55.078125 64.0625 55.078125 55.328125 
Q 55.078125 49.078125 51.53125 44.71875 
Q 48 40.375 41.703125 38.8125 
Q 48.828125 37.15625 52.796875 32.3125 
Q 56.78125 27.484375 56.78125 20.515625 
Q 56.78125 9.90625 50.3125 4.234375 
Q 43.84375 -1.421875 31.78125 -1.421875 
Q 19.734375 -1.421875 13.25 4.234375 
Q 6.78125 9.90625 6.78125 20.515625 
Q 6.78125 27.484375 10.78125 32.3125 
Q 14.796875 37.15625 21.921875 38.8125 
z
M 18.3125 54.390625 
Q 18.3125 48.734375 21.84375 45.5625 
Q 25.390625 42.390625 31.78125 42.390625 
Q 38.140625 42.390625 41.71875 45.5625 
Q 45.3125 48.734375 45.3125 54.390625 
Q 45.3125 60.0625 41.71875 63.234375 
Q 38.140625 66.40625 31.78125 66.40625 
Q 25.390625 66.40625 21.84375 63.234375 
Q 18.3125 60.0625 18.3125 54.390625 
z
" id="DejaVuSans-56"/>
      </defs>
      <g transform="translate(979.728421 325.996875)scale(0.2 -0.2)">
       <use xlink:href="#DejaVuSans-56"/>
       <use x="63.623047" xlink:href="#DejaVuSans-101"/>
       <use x="125.146484" xlink:href="#DejaVuSans-43"/>
       <use x="208.935547" xlink:href="#DejaVuSans-48"/>
       <use x="272.558594" xlink:href="#DejaVuSans-53"/>
      </g>
     </g>
    </g>
    <g id="xtick_6">
     <g id="line2d_6">
      <g>
       <use style="stroke:#000000;stroke-width:0.8;" x="1244.8066" xlink:href="#med4dc7631d" y="303.8"/>
      </g>
     </g>
     <g id="text_6">
      <!-- 1e+06 -->
      <g transform="translate(1211.186287 325.996875)scale(0.2 -0.2)">
       <use xlink:href="#DejaVuSans-49"/>
       <use x="63.623047" xlink:href="#DejaVuSans-101"/>
       <use x="125.146484" xlink:href="#DejaVuSans-43"/>
       <use x="208.935547" xlink:href="#DejaVuSans-48"/>
       <use x="272.558594" xlink:href="#DejaVuSans-54"/>
      </g>
     </g>
    </g>
    <g id="text_7">
     <!-- Timestep -->
     <defs>
      <path d="M -0.296875 72.90625 
L 61.375 72.90625 
L 61.375 64.59375 
L 35.5 64.59375 
L 35.5 0 
L 25.59375 0 
L 25.59375 64.59375 
L -0.296875 64.59375 
z
" id="DejaVuSans-84"/>
      <path d="M 9.421875 54.6875 
L 18.40625 54.6875 
L 18.40625 0 
L 9.421875 0 
z
M 9.421875 75.984375 
L 18.40625 75.984375 
L 18.40625 64.59375 
L 9.421875 64.59375 
z
" id="DejaVuSans-105"/>
      <path d="M 52 44.1875 
Q 55.375 50.25 60.0625 53.125 
Q 64.75 56 71.09375 56 
Q 79.640625 56 84.28125 50.015625 
Q 88.921875 44.046875 88.921875 33.015625 
L 88.921875 0 
L 79.890625 0 
L 79.890625 32.71875 
Q 79.890625 40.578125 77.09375 44.375 
Q 74.3125 48.1875 68.609375 48.1875 
Q 61.625 48.1875 57.5625 43.546875 
Q 53.515625 38.921875 53.515625 30.90625 
L 53.515625 0 
L 44.484375 0 
L 44.484375 32.71875 
Q 44.484375 40.625 41.703125 44.40625 
Q 38.921875 48.1875 33.109375 48.1875 
Q 26.21875 48.1875 22.15625 43.53125 
Q 18.109375 38.875 18.109375 30.90625 
L 18.109375 0 
L 9.078125 0 
L 9.078125 54.6875 
L 18.109375 54.6875 
L 18.109375 46.1875 
Q 21.1875 51.21875 25.484375 53.609375 
Q 29.78125 56 35.6875 56 
Q 41.65625 56 45.828125 52.96875 
Q 50 49.953125 52 44.1875 
z
" id="DejaVuSans-109"/>
      <path d="M 44.28125 53.078125 
L 44.28125 44.578125 
Q 40.484375 46.53125 36.375 47.5 
Q 32.28125 48.484375 27.875 48.484375 
Q 21.1875 48.484375 17.84375 46.4375 
Q 14.5 44.390625 14.5 40.28125 
Q 14.5 37.15625 16.890625 35.375 
Q 19.28125 33.59375 26.515625 31.984375 
L 29.59375 31.296875 
Q 39.15625 29.25 43.1875 25.515625 
Q 47.21875 21.78125 47.21875 15.09375 
Q 47.21875 7.46875 41.1875 3.015625 
Q 35.15625 -1.421875 24.609375 -1.421875 
Q 20.21875 -1.421875 15.453125 -0.5625 
Q 10.6875 0.296875 5.421875 2 
L 5.421875 11.28125 
Q 10.40625 8.6875 15.234375 7.390625 
Q 20.0625 6.109375 24.8125 6.109375 
Q 31.15625 6.109375 34.5625 8.28125 
Q 37.984375 10.453125 37.984375 14.40625 
Q 37.984375 18.0625 35.515625 20.015625 
Q 33.0625 21.96875 24.703125 23.78125 
L 21.578125 24.515625 
Q 13.234375 26.265625 9.515625 29.90625 
Q 5.8125 33.546875 5.8125 39.890625 
Q 5.8125 47.609375 11.28125 51.796875 
Q 16.75 56 26.8125 56 
Q 31.78125 56 36.171875 55.265625 
Q 40.578125 54.546875 44.28125 53.078125 
z
" id="DejaVuSans-115"/>
      <path d="M 18.3125 70.21875 
L 18.3125 54.6875 
L 36.8125 54.6875 
L 36.8125 47.703125 
L 18.3125 47.703125 
L 18.3125 18.015625 
Q 18.3125 11.328125 20.140625 9.421875 
Q 21.96875 7.515625 27.59375 7.515625 
L 36.8125 7.515625 
L 36.8125 0 
L 27.59375 0 
Q 17.1875 0 13.234375 3.875 
Q 9.28125 7.765625 9.28125 18.015625 
L 9.28125 47.703125 
L 2.6875 47.703125 
L 2.6875 54.6875 
L 9.28125 54.6875 
L 9.28125 70.21875 
z
" id="DejaVuSans-116"/>
      <path d="M 18.109375 8.203125 
L 18.109375 -20.796875 
L 9.078125 -20.796875 
L 9.078125 54.6875 
L 18.109375 54.6875 
L 18.109375 46.390625 
Q 20.953125 51.265625 25.265625 53.625 
Q 29.59375 56 35.59375 56 
Q 45.5625 56 51.78125 48.09375 
Q 58.015625 40.1875 58.015625 27.296875 
Q 58.015625 14.40625 51.78125 6.484375 
Q 45.5625 -1.421875 35.59375 -1.421875 
Q 29.59375 -1.421875 25.265625 0.953125 
Q 20.953125 3.328125 18.109375 8.203125 
z
M 48.6875 27.296875 
Q 48.6875 37.203125 44.609375 42.84375 
Q 40.53125 48.484375 33.40625 48.484375 
Q 26.265625 48.484375 22.1875 42.84375 
Q 18.109375 37.203125 18.109375 27.296875 
Q 18.109375 17.390625 22.1875 11.75 
Q 26.265625 6.109375 33.40625 6.109375 
Q 40.53125 6.109375 44.609375 11.75 
Q 48.6875 17.390625 48.6875 27.296875 
z
" id="DejaVuSans-112"/>
     </defs>
     <g transform="translate(706.860195 349.353125)scale(0.2 -0.2)">
      <use xlink:href="#DejaVuSans-84"/>
      <use x="57.958984" xlink:href="#DejaVuSans-105"/>
      <use x="85.742188" xlink:href="#DejaVuSans-109"/>
      <use x="183.154297" xlink:href="#DejaVuSans-101"/>
      <use x="244.677734" xlink:href="#DejaVuSans-115"/>
      <use x="296.777344" xlink:href="#DejaVuSans-116"/>
      <use x="335.986328" xlink:href="#DejaVuSans-101"/>
      <use x="397.509766" xlink:href="#DejaVuSans-112"/>
     </g>
    </g>
   </g>
   <g id="matplotlib.axis_2">
    <g id="ytick_1">
     <g id="line2d_7">
      <defs>
       <path d="M 0 0 
L -3.5 0 
" id="m27107f8cbd" style="stroke:#1f77b4;stroke-width:0.8;"/>
      </defs>
      <g>
       <use style="fill:#1f77b4;stroke:#1f77b4;stroke-width:0.8;" x="87.517266" xlink:href="#m27107f8cbd" y="278.300931"/>
      </g>
     </g>
     <g id="text_8">
      <!-- 42 -->
      <g style="fill:#1f77b4;" transform="translate(61.429766 283.999759)scale(0.15 -0.15)">
       <use xlink:href="#DejaVuSans-52"/>
       <use x="63.623047" xlink:href="#DejaVuSans-50"/>
      </g>
     </g>
    </g>
    <g id="ytick_2">
     <g id="line2d_8">
      <g>
       <use style="fill:#1f77b4;stroke:#1f77b4;stroke-width:0.8;" x="87.517266" xlink:href="#m27107f8cbd" y="224.909377"/>
      </g>
     </g>
     <g id="text_9">
      <!-- 44 -->
      <g style="fill:#1f77b4;" transform="translate(61.429766 230.608205)scale(0.15 -0.15)">
       <use xlink:href="#DejaVuSans-52"/>
       <use x="63.623047" xlink:href="#DejaVuSans-52"/>
      </g>
     </g>
    </g>
    <g id="ytick_3">
     <g id="line2d_9">
      <g>
       <use style="fill:#1f77b4;stroke:#1f77b4;stroke-width:0.8;" x="87.517266" xlink:href="#m27107f8cbd" y="171.517824"/>
      </g>
     </g>
     <g id="text_10">
      <!-- 46 -->
      <g style="fill:#1f77b4;" transform="translate(61.429766 177.216652)scale(0.15 -0.15)">
       <use xlink:href="#DejaVuSans-52"/>
       <use x="63.623047" xlink:href="#DejaVuSans-54"/>
      </g>
     </g>
    </g>
    <g id="ytick_4">
     <g id="line2d_10">
      <g>
       <use style="fill:#1f77b4;stroke:#1f77b4;stroke-width:0.8;" x="87.517266" xlink:href="#m27107f8cbd" y="118.126271"/>
      </g>
     </g>
     <g id="text_11">
      <!-- 48 -->
      <g style="fill:#1f77b4;" transform="translate(61.429766 123.825099)scale(0.15 -0.15)">
       <use xlink:href="#DejaVuSans-52"/>
       <use x="63.623047" xlink:href="#DejaVuSans-56"/>
      </g>
     </g>
    </g>
    <g id="ytick_5">
     <g id="line2d_11">
      <g>
       <use style="fill:#1f77b4;stroke:#1f77b4;stroke-width:0.8;" x="87.517266" xlink:href="#m27107f8cbd" y="64.734717"/>
      </g>
     </g>
     <g id="text_12">
      <!-- 50 -->
      <g style="fill:#1f77b4;" transform="translate(61.429766 70.433545)scale(0.15 -0.15)">
       <use xlink:href="#DejaVuSans-53"/>
       <use x="63.623047" xlink:href="#DejaVuSans-48"/>
      </g>
     </g>
    </g>
    <g id="text_13">
     <!-- Reward -->
     <defs>
      <path d="M 44.390625 34.1875 
Q 47.5625 33.109375 50.5625 29.59375 
Q 53.5625 26.078125 56.59375 19.921875 
L 66.609375 0 
L 56 0 
L 46.6875 18.703125 
Q 43.0625 26.03125 39.671875 28.421875 
Q 36.28125 30.8125 30.421875 30.8125 
L 19.671875 30.8125 
L 19.671875 0 
L 9.8125 0 
L 9.8125 72.90625 
L 32.078125 72.90625 
Q 44.578125 72.90625 50.734375 67.671875 
Q 56.890625 62.453125 56.890625 51.90625 
Q 56.890625 45.015625 53.6875 40.46875 
Q 50.484375 35.9375 44.390625 34.1875 
z
M 19.671875 64.796875 
L 19.671875 38.921875 
L 32.078125 38.921875 
Q 39.203125 38.921875 42.84375 42.21875 
Q 46.484375 45.515625 46.484375 51.90625 
Q 46.484375 58.296875 42.84375 61.546875 
Q 39.203125 64.796875 32.078125 64.796875 
z
" id="DejaVuSans-82"/>
      <path d="M 4.203125 54.6875 
L 13.1875 54.6875 
L 24.421875 12.015625 
L 35.59375 54.6875 
L 46.1875 54.6875 
L 57.421875 12.015625 
L 68.609375 54.6875 
L 77.59375 54.6875 
L 63.28125 0 
L 52.6875 0 
L 40.921875 44.828125 
L 29.109375 0 
L 18.5 0 
z
" id="DejaVuSans-119"/>
      <path d="M 34.28125 27.484375 
Q 23.390625 27.484375 19.1875 25 
Q 14.984375 22.515625 14.984375 16.5 
Q 14.984375 11.71875 18.140625 8.90625 
Q 21.296875 6.109375 26.703125 6.109375 
Q 34.1875 6.109375 38.703125 11.40625 
Q 43.21875 16.703125 43.21875 25.484375 
L 43.21875 27.484375 
z
M 52.203125 31.203125 
L 52.203125 0 
L 43.21875 0 
L 43.21875 8.296875 
Q 40.140625 3.328125 35.546875 0.953125 
Q 30.953125 -1.421875 24.3125 -1.421875 
Q 15.921875 -1.421875 10.953125 3.296875 
Q 6 8.015625 6 15.921875 
Q 6 25.140625 12.171875 29.828125 
Q 18.359375 34.515625 30.609375 34.515625 
L 43.21875 34.515625 
L 43.21875 35.40625 
Q 43.21875 41.609375 39.140625 45 
Q 35.0625 48.390625 27.6875 48.390625 
Q 23 48.390625 18.546875 47.265625 
Q 14.109375 46.140625 10.015625 43.890625 
L 10.015625 52.203125 
Q 14.9375 54.109375 19.578125 55.046875 
Q 24.21875 56 28.609375 56 
Q 40.484375 56 46.34375 49.84375 
Q 52.203125 43.703125 52.203125 31.203125 
z
" id="DejaVuSans-97"/>
      <path d="M 41.109375 46.296875 
Q 39.59375 47.171875 37.8125 47.578125 
Q 36.03125 48 33.890625 48 
Q 26.265625 48 22.1875 43.046875 
Q 18.109375 38.09375 18.109375 28.8125 
L 18.109375 0 
L 9.078125 0 
L 9.078125 54.6875 
L 18.109375 54.6875 
L 18.109375 46.1875 
Q 20.953125 51.171875 25.484375 53.578125 
Q 30.03125 56 36.53125 56 
Q 37.453125 56 38.578125 55.875 
Q 39.703125 55.765625 41.0625 55.515625 
z
" id="DejaVuSans-114"/>
      <path d="M 45.40625 46.390625 
L 45.40625 75.984375 
L 54.390625 75.984375 
L 54.390625 0 
L 45.40625 0 
L 45.40625 8.203125 
Q 42.578125 3.328125 38.25 0.953125 
Q 33.9375 -1.421875 27.875 -1.421875 
Q 17.96875 -1.421875 11.734375 6.484375 
Q 5.515625 14.40625 5.515625 27.296875 
Q 5.515625 40.1875 11.734375 48.09375 
Q 17.96875 56 27.875 56 
Q 33.9375 56 38.25 53.625 
Q 42.578125 51.265625 45.40625 46.390625 
z
M 14.796875 27.296875 
Q 14.796875 17.390625 18.875 11.75 
Q 22.953125 6.109375 30.078125 6.109375 
Q 37.203125 6.109375 41.296875 11.75 
Q 45.40625 17.390625 45.40625 27.296875 
Q 45.40625 37.203125 41.296875 42.84375 
Q 37.203125 48.484375 30.078125 48.484375 
Q 22.953125 48.484375 18.875 42.84375 
Q 14.796875 37.203125 14.796875 27.296875 
z
" id="DejaVuSans-100"/>
     </defs>
     <g style="fill:#1f77b4;" transform="translate(53.270391 212.442188)rotate(-90)scale(0.2 -0.2)">
      <use xlink:href="#DejaVuSans-82"/>
      <use x="64.982422" xlink:href="#DejaVuSans-101"/>
      <use x="126.505859" xlink:href="#DejaVuSans-119"/>
      <use x="208.292969" xlink:href="#DejaVuSans-97"/>
      <use x="269.572266" xlink:href="#DejaVuSans-114"/>
      <use x="308.935547" xlink:href="#DejaVuSans-100"/>
     </g>
    </g>
   </g>
   <g id="line2d_12">
    <path clip-path="url(#pcd04176cdf)" d="M 87.517266 196.372513 
L 91.209019 287.092126 
L 91.220591 287.506371 
L 91.290029 286.401718 
L 91.53306 280.924481 
L 91.845528 273.606156 
L 91.914965 272.777666 
L 91.938111 273.422047 
L 92.146423 279.221475 
L 92.227433 278.577094 
L 92.377881 277.380387 
L 92.447318 277.65655 
L 92.609339 278.300931 
L 92.644057 278.024767 
L 93.060682 273.836292 
L 93.234275 270.476306 
L 93.53517 265.413314 
L 93.558316 265.965641 
L 93.928649 272.22534 
L 93.998086 272.777666 
L 94.021232 272.22534 
L 94.229544 267.254402 
L 94.264262 268.635218 
L 94.738751 283.087759 
L 94.958636 284.376521 
L 95.29425 288.058697 
L 95.386833 288.426915 
L 95.409979 288.150752 
L 95.618291 285.665283 
L 95.664583 286.401718 
L 96.081207 292.109091 
L 96.104352 291.648819 
L 96.972319 276.459843 
L 97.007038 276.459843 
L 97.238496 267.254402 
L 97.331079 267.62262 
L 97.701412 269.09549 
L 98.048599 253.446242 
L 98.164327 252.525698 
L 98.1759 252.893916 
L 98.395785 259.89005 
L 98.488369 259.521832 
L 98.627243 258.969506 
L 98.650389 259.245669 
L 98.939711 263.986471 
L 99.090159 268.174946 
L 99.171169 267.530565 
L 99.344763 265.505369 
L 99.553075 258.048962 
L 99.634085 259.015533 
L 99.888689 263.296063 
L 100.247448 272.777666 
L 100.305313 270.936578 
L 100.583062 265.413314 
L 100.710364 265.413314 
L 100.941822 269.09549 
L 100.999686 268.405082 
L 101.497321 261.178812 
L 101.740352 255.655548 
L 101.867653 251.605154 
L 101.925518 252.755834 
L 102.099111 256.207874 
L 102.191694 255.839656 
L 102.330569 255.28733 
L 102.365288 255.563493 
L 102.781912 259.751969 
L 103.129099 262.651682 
L 103.256401 262.651682 
L 103.592014 270.016034 
L 103.742462 270.108089 
L 103.950774 270.936578 
L 103.985493 270.660415 
L 104.402117 266.47194 
L 104.41369 266.333858 
L 104.436836 267.162348 
L 104.645148 274.618754 
L 104.737731 274.250537 
L 104.876606 273.69821 
L 104.899751 273.974374 
L 105.108064 276.459843 
L 105.119636 275.769435 
L 105.524688 258.233071 
L 105.802437 252.525698 
L 105.848729 252.893916 
L 106.485238 258.831424 
L 106.600967 258.969506 
L 106.739841 259.06156 
L 107.179611 261.685111 
L 107.191184 261.731138 
L 107.225903 261.454975 
L 107.422642 259.89005 
L 107.468934 260.258268 
L 107.758256 261.731138 
L 107.885558 261.731138 
L 108.336901 269.877953 
L 108.383192 271.673014 
L 108.579932 281.062563 
L 108.649369 279.12942 
L 108.811389 274.618754 
L 108.857681 276.091625 
L 109.274305 287.506371 
L 109.297451 286.677881 
L 109.505763 279.221475 
L 109.5752 280.326127 
L 109.737221 282.903651 
L 109.795085 282.213243 
L 109.968679 280.142019 
L 110.003397 280.832427 
L 110.200137 284.744739 
L 110.234855 283.502004 
L 110.431594 276.459843 
L 110.512605 277.426414 
L 110.663052 279.221475 
L 110.686198 278.392985 
L 111.010239 270.476306 
L 111.125968 270.016034 
L 111.17226 270.200143 
L 111.357426 270.936578 
L 111.392145 270.660415 
L 111.600457 268.45111 
L 111.820342 256.207874 
L 111.889779 258.41718 
L 112.283257 268.174946 
L 112.29483 268.036865 
L 112.746173 261.731138 
L 112.804038 263.111954 
L 112.977631 267.254402 
L 113.058641 266.610021 
L 113.25538 264.308661 
L 114.736711 226.382248 
L 114.945023 220.766929 
L 115.060752 220.306657 
L 115.29221 209.260129 
L 115.361647 211.193271 
L 115.523668 215.703937 
L 115.581532 214.323121 
L 115.836136 205.670007 
L 115.986583 197.293057 
L 116.056021 199.502362 
L 116.356916 205.762062 
L 116.553655 206.498497 
L 116.680957 206.498497 
L 116.912415 197.293057 
L 117.004998 197.661274 
L 117.143873 198.213601 
L 117.155445 197.937437 
L 117.37533 192.690336 
L 117.398476 194.071152 
L 117.606788 206.498497 
L 117.699371 205.393844 
L 117.919256 201.481532 
L 118.069704 197.293057 
L 118.127569 198.443737 
L 118.555766 204.749463 
L 118.764078 205.577953 
L 118.775651 205.209735 
L 119.284858 192.4602 
L 119.458451 189.00816 
L 119.527889 189.83665 
L 119.689909 191.769792 
L 119.713055 191.033357 
L 119.921367 184.40544 
L 119.990804 185.510093 
L 120.152825 188.087616 
L 120.175971 187.075018 
L 120.384283 177.961632 
L 120.442147 180.032856 
L 121.055511 198.029492 
L 121.078656 198.213601 
L 121.101802 197.753329 
L 121.310114 193.61088 
L 121.33326 194.899642 
L 121.645728 206.498497 
L 121.77303 206.498497 
L 122.004488 214.783393 
L 122.073925 213.67874 
L 122.340102 211.101217 
L 122.698861 211.101217 
L 123.161777 191.769792 
L 123.184923 192.414173 
L 123.867724 208.431639 
L 124.087609 210.180673 
L 124.099181 209.766428 
L 124.319066 201.895777 
L 124.400077 202.862348 
L 124.781982 206.498497 
L 124.793555 206.360415 
L 125.01344 203.736865 
L 125.048159 204.427273 
L 125.476356 211.101217 
L 125.487929 211.009162 
L 125.742532 208.155476 
L 126.25174 195.451969 
L 126.402187 195.451969 
L 126.633645 198.213601 
L 126.69151 197.753329 
L 126.865103 196.372513 
L 126.876676 197.016893 
L 127.096561 209.260129 
L 127.177571 207.971367 
L 127.432175 202.263994 
L 127.73307 189.238296 
L 127.790934 186.246528 
L 127.860372 188.179671 
L 128.022392 192.690336 
L 128.114975 192.322119 
L 128.265423 191.493629 
L 128.716766 182.564352 
L 128.728339 182.886543 
L 128.948224 189.00816 
L 128.982942 187.351181 
L 129.179682 177.961632 
L 129.272265 178.698067 
L 129.515296 179.80272 
L 129.65417 179.710666 
L 129.885628 177.225197 
L 130.348544 154.625841 
L 130.672585 148.504223 
L 130.799887 148.504223 
L 131.031345 145.742591 
L 131.077636 146.294918 
L 131.262802 148.504223 
L 131.297521 147.813815 
L 131.922457 137.457695 
L 131.957176 137.457695 
L 132.327509 133.223193 
L 132.420092 132.854975 
L 132.431665 133.085111 
L 132.883008 143.901503 
L 133.010309 142.382606 
L 133.114465 141.139871 
L 133.137611 141.784252 
L 133.345923 147.583679 
L 133.392215 146.294918 
L 134.040297 131.013887 
L 134.294901 135.340444 
L 134.503213 149.424767 
L 134.584223 147.813815 
L 134.73467 144.822047 
L 134.804108 145.650537 
L 135.01242 149.240659 
L 135.197586 155.868576 
L 135.267024 154.487759 
L 135.857241 144.960129 
L 135.89196 144.822047 
L 135.915106 145.09821 
L 136.227574 147.583679 
L 136.354876 147.583679 
L 136.586333 141.139871 
L 136.678917 141.508089 
L 136.817791 142.060415 
L 137.29228 158.077881 
L 137.512165 165.074016 
L 137.593175 164.429635 
L 137.789914 162.128275 
L 138.194966 155.086113 
L 138.310695 154.948031 
L 138.437996 154.948031 
L 138.900912 142.980959 
L 138.958777 143.441231 
L 139.201807 146.202863 
L 139.595286 152.186399 
L 139.606859 152.140372 
L 140.058201 150.345311 
L 140.104493 150.52942 
L 140.289659 151.265855 
L 140.301232 150.897638 
L 140.521117 143.901503 
L 140.555836 145.696564 
L 140.752575 155.868576 
L 140.822012 154.211596 
L 141.111335 144.77602 
L 141.215491 140.219327 
L 141.308074 140.955762 
L 141.446949 142.060415 
L 141.470094 141.416034 
L 141.782563 129.81718 
L 142.060312 120.335576 
L 142.245478 119.046815 
L 142.37278 119.046815 
L 142.662102 125.260487 
L 142.951425 133.315247 
L 143.078727 134.189764 
L 143.530069 147.583679 
L 143.541642 146.847244 
L 143.877256 132.394703 
L 144.027704 131.382105 
L 144.675786 122.821045 
L 144.687359 122.728991 
L 144.722077 123.281317 
L 145.717346 137.457695 
L 145.844648 137.457695 
L 146.180262 140.219327 
L 146.307564 140.219327 
L 146.608459 132.026485 
L 147.001937 116.285183 
L 147.01351 116.33121 
L 147.233395 117.205727 
L 147.244968 116.975591 
L 147.696311 109.841374 
L 147.707884 109.933429 
L 147.962488 112.787115 
L 148.390685 124.570079 
L 148.436976 124.38597 
L 148.957756 121.900501 
L 149.085058 120.887903 
L 149.154496 121.164066 
L 149.316516 121.808447 
L 149.547974 107.079742 
L 149.605838 109.381102 
L 149.779432 116.285183 
L 149.848869 114.628203 
L 150.01089 110.761918 
L 150.068754 111.912598 
L 150.242348 115.364639 
L 150.311785 114.812312 
L 150.577961 111.866571 
L 150.925148 104.594273 
L 150.936721 104.31811 
L 151.006159 105.1466 
L 151.168179 107.079742 
L 151.191325 106.343307 
L 151.399637 99.71539 
L 151.457501 101.326342 
L 151.758397 112.741088 
L 151.862553 118.126271 
L 151.920417 116.285183 
L 152.383333 105.008518 
L 152.661082 103.489621 
L 153.008269 101.602505 
L 153.019842 101.556478 
L 153.031415 101.786614 
L 153.390175 111.130136 
L 153.876236 124.570079 
L 153.957246 124.478024 
L 154.408589 120.887903 
L 154.420162 121.25612 
L 154.640047 128.252255 
L 154.686339 126.411167 
L 155.102963 108.92083 
L 155.183973 110.853973 
L 155.496441 115.732856 
L 155.565878 116.285183 
L 155.589024 115.824911 
L 155.797336 111.682462 
L 155.889919 112.05068 
L 156.028794 112.603006 
L 156.063513 112.326843 
L 156.271825 110.117538 
L 156.49171 97.874302 
L 156.549574 99.945526 
L 156.723168 106.159198 
L 156.815751 105.790981 
L 156.954626 105.238654 
L 157.336531 116.239155 
L 157.579562 120.427631 
L 157.880457 128.252255 
L 158.111915 142.980959 
L 158.204498 142.244524 
L 158.366519 140.219327 
L 158.574831 131.934431 
L 158.655841 132.901002 
L 158.841007 136.353042 
L 159.037746 145.742591 
L 159.118757 144.45383 
L 159.489089 140.311382 
L 159.604818 138.562348 
L 159.952005 131.29005 
L 160.414921 117.712026 
L 160.426494 117.205727 
L 160.519077 117.573944 
L 160.69267 118.678597 
L 161.120867 124.570079 
L 161.13244 124.155834 
L 161.352325 116.285183 
L 161.398617 118.494488 
L 161.745804 129.909234 
L 161.815241 131.013887 
L 161.873105 130.323479 
L 162.150855 125.766786 
L 162.278157 122.728991 
L 162.336021 123.649535 
L 162.509614 126.411167 
L 162.555906 125.674732 
L 162.741072 122.728991 
L 162.822083 123.051181 
L 162.984103 123.925698 
L 163.203988 129.172799 
L 163.238707 127.653901 
L 163.863643 105.008518 
L 163.898362 104.31811 
L 163.944653 105.606872 
L 164.12982 110.761918 
L 164.21083 110.117538 
L 164.361277 108.92083 
L 164.37285 109.289048 
L 164.592735 116.285183 
L 164.6506 115.134503 
L 164.824193 111.682462 
L 164.916776 112.05068 
L 165.159807 113.431496 
L 165.287109 114.444094 
L 165.298682 114.075877 
L 165.750025 96.953758 
L 165.923618 97.644166 
L 165.981482 97.874302 
L 165.993055 97.552112 
L 166.340242 90.924195 
L 166.548554 90.50995 
L 166.699002 90.602004 
L 166.93046 91.890766 
L 167.37023 102.477022 
L 167.45124 100.221689 
L 167.601688 96.033214 
L 167.694271 96.401432 
L 167.833145 96.953758 
L 167.844718 96.631568 
L 168.377071 84.664495 
L 168.527519 84.066142 
L 168.539092 84.342305 
L 168.990435 96.033214 
L 169.083018 94.928561 
L 169.221893 93.271582 
L 169.302903 93.593772 
L 169.45335 94.192126 
L 169.476496 93.915963 
L 169.684808 91.430494 
L 169.742673 91.890766 
L 169.950985 94.376235 
L 170.61064 115.364639 
L 170.656931 113.52355 
L 170.842098 106.159198 
L 170.911535 107.263851 
L 171.073556 109.841374 
L 171.085128 108.92083 
L 171.305013 91.430494 
L 171.409169 91.844739 
L 171.536471 92.351038 
L 171.767929 84.066142 
L 171.848939 84.710523 
L 171.999387 85.90723 
L 172.022533 85.354903 
L 172.230845 80.383966 
L 172.300282 81.212455 
L 172.566459 85.631067 
L 172.994656 93.271582 
L 173.388134 93.271582 
L 174.082508 69.337437 
L 174.163518 71.59277 
L 174.441268 76.287545 
L 174.556996 77.070007 
L 174.776881 84.066142 
L 174.823173 82.593271 
L 175.69114 58.336936 
L 175.806869 58.290909 
L 175.934171 58.290909 
L 176.223493 67.726485 
L 176.397086 79.463422 
L 176.478097 77.85247 
L 176.628544 74.860702 
L 176.628544 74.860702 
" style="fill:none;stroke:#1f77b4;stroke-linecap:square;stroke-width:1.5;"/>
   </g>
   <g id="patch_3">
    <path d="M 87.517266 303.8 
L 87.517266 46.6 
" style="fill:none;stroke:#000000;stroke-linecap:square;stroke-linejoin:miter;stroke-width:0.8;"/>
   </g>
   <g id="patch_4">
    <path d="M 1418.4 303.8 
L 1418.4 46.6 
" style="fill:none;stroke:#000000;stroke-linecap:square;stroke-linejoin:miter;stroke-width:0.8;"/>
   </g>
   <g id="patch_5">
    <path d="M 87.517266 303.8 
L 1418.4 303.8 
" style="fill:none;stroke:#000000;stroke-linecap:square;stroke-linejoin:miter;stroke-width:0.8;"/>
   </g>
   <g id="patch_6">
    <path d="M 87.517266 46.6 
L 1418.4 46.6 
" style="fill:none;stroke:#000000;stroke-linecap:square;stroke-linejoin:miter;stroke-width:0.8;"/>
   </g>
   <g id="text_14">
    <!-- Avg. Last 10 Rewards: 50.0 || env_2_0 || Elapsed Time: 0:25:14 -->
    <defs>
     <path d="M 34.1875 63.1875 
L 20.796875 26.90625 
L 47.609375 26.90625 
z
M 28.609375 72.90625 
L 39.796875 72.90625 
L 67.578125 0 
L 57.328125 0 
L 50.6875 18.703125 
L 17.828125 18.703125 
L 11.1875 0 
L 0.78125 0 
z
" id="DejaVuSans-65"/>
     <path d="M 2.984375 54.6875 
L 12.5 54.6875 
L 29.59375 8.796875 
L 46.6875 54.6875 
L 56.203125 54.6875 
L 35.6875 0 
L 23.484375 0 
z
" id="DejaVuSans-118"/>
     <path d="M 45.40625 27.984375 
Q 45.40625 37.75 41.375 43.109375 
Q 37.359375 48.484375 30.078125 48.484375 
Q 22.859375 48.484375 18.828125 43.109375 
Q 14.796875 37.75 14.796875 27.984375 
Q 14.796875 18.265625 18.828125 12.890625 
Q 22.859375 7.515625 30.078125 7.515625 
Q 37.359375 7.515625 41.375 12.890625 
Q 45.40625 18.265625 45.40625 27.984375 
z
M 54.390625 6.78125 
Q 54.390625 -7.171875 48.1875 -13.984375 
Q 42 -20.796875 29.203125 -20.796875 
Q 24.46875 -20.796875 20.265625 -20.09375 
Q 16.0625 -19.390625 12.109375 -17.921875 
L 12.109375 -9.1875 
Q 16.0625 -11.328125 19.921875 -12.34375 
Q 23.78125 -13.375 27.78125 -13.375 
Q 36.625 -13.375 41.015625 -8.765625 
Q 45.40625 -4.15625 45.40625 5.171875 
L 45.40625 9.625 
Q 42.625 4.78125 38.28125 2.390625 
Q 33.9375 0 27.875 0 
Q 17.828125 0 11.671875 7.65625 
Q 5.515625 15.328125 5.515625 27.984375 
Q 5.515625 40.671875 11.671875 48.328125 
Q 17.828125 56 27.875 56 
Q 33.9375 56 38.28125 53.609375 
Q 42.625 51.21875 45.40625 46.390625 
L 45.40625 54.6875 
L 54.390625 54.6875 
z
" id="DejaVuSans-103"/>
     <path d="M 10.6875 12.40625 
L 21 12.40625 
L 21 0 
L 10.6875 0 
z
" id="DejaVuSans-46"/>
     <path id="DejaVuSans-32"/>
     <path d="M 9.8125 72.90625 
L 19.671875 72.90625 
L 19.671875 8.296875 
L 55.171875 8.296875 
L 55.171875 0 
L 9.8125 0 
z
" id="DejaVuSans-76"/>
     <path d="M 11.71875 12.40625 
L 22.015625 12.40625 
L 22.015625 0 
L 11.71875 0 
z
M 11.71875 51.703125 
L 22.015625 51.703125 
L 22.015625 39.3125 
L 11.71875 39.3125 
z
" id="DejaVuSans-58"/>
     <path d="M 21 76.421875 
L 21 -23.578125 
L 12.703125 -23.578125 
L 12.703125 76.421875 
z
" id="DejaVuSans-124"/>
     <path d="M 54.890625 33.015625 
L 54.890625 0 
L 45.90625 0 
L 45.90625 32.71875 
Q 45.90625 40.484375 42.875 44.328125 
Q 39.84375 48.1875 33.796875 48.1875 
Q 26.515625 48.1875 22.3125 43.546875 
Q 18.109375 38.921875 18.109375 30.90625 
L 18.109375 0 
L 9.078125 0 
L 9.078125 54.6875 
L 18.109375 54.6875 
L 18.109375 46.1875 
Q 21.34375 51.125 25.703125 53.5625 
Q 30.078125 56 35.796875 56 
Q 45.21875 56 50.046875 50.171875 
Q 54.890625 44.34375 54.890625 33.015625 
z
" id="DejaVuSans-110"/>
     <path d="M 50.984375 -16.609375 
L 50.984375 -23.578125 
L -0.984375 -23.578125 
L -0.984375 -16.609375 
z
" id="DejaVuSans-95"/>
     <path d="M 9.8125 72.90625 
L 55.90625 72.90625 
L 55.90625 64.59375 
L 19.671875 64.59375 
L 19.671875 43.015625 
L 54.390625 43.015625 
L 54.390625 34.71875 
L 19.671875 34.71875 
L 19.671875 8.296875 
L 56.78125 8.296875 
L 56.78125 0 
L 9.8125 0 
z
" id="DejaVuSans-69"/>
     <path d="M 9.421875 75.984375 
L 18.40625 75.984375 
L 18.40625 0 
L 9.421875 0 
z
" id="DejaVuSans-108"/>
    </defs>
    <g transform="translate(374.478633 40.6)scale(0.24 -0.24)">
     <use xlink:href="#DejaVuSans-65"/>
     <use x="62.533203" xlink:href="#DejaVuSans-118"/>
     <use x="121.712891" xlink:href="#DejaVuSans-103"/>
     <use x="185.189453" xlink:href="#DejaVuSans-46"/>
     <use x="216.976562" xlink:href="#DejaVuSans-32"/>
     <use x="248.763672" xlink:href="#DejaVuSans-76"/>
     <use x="304.476562" xlink:href="#DejaVuSans-97"/>
     <use x="365.755859" xlink:href="#DejaVuSans-115"/>
     <use x="417.855469" xlink:href="#DejaVuSans-116"/>
     <use x="457.064453" xlink:href="#DejaVuSans-32"/>
     <use x="488.851562" xlink:href="#DejaVuSans-49"/>
     <use x="552.474609" xlink:href="#DejaVuSans-48"/>
     <use x="616.097656" xlink:href="#DejaVuSans-32"/>
     <use x="647.884766" xlink:href="#DejaVuSans-82"/>
     <use x="712.867188" xlink:href="#DejaVuSans-101"/>
     <use x="774.390625" xlink:href="#DejaVuSans-119"/>
     <use x="856.177734" xlink:href="#DejaVuSans-97"/>
     <use x="917.457031" xlink:href="#DejaVuSans-114"/>
     <use x="956.820312" xlink:href="#DejaVuSans-100"/>
     <use x="1020.296875" xlink:href="#DejaVuSans-115"/>
     <use x="1072.396484" xlink:href="#DejaVuSans-58"/>
     <use x="1106.087891" xlink:href="#DejaVuSans-32"/>
     <use x="1137.875" xlink:href="#DejaVuSans-53"/>
     <use x="1201.498047" xlink:href="#DejaVuSans-48"/>
     <use x="1265.121094" xlink:href="#DejaVuSans-46"/>
     <use x="1296.908203" xlink:href="#DejaVuSans-48"/>
     <use x="1360.53125" xlink:href="#DejaVuSans-32"/>
     <use x="1392.318359" xlink:href="#DejaVuSans-124"/>
     <use x="1426.009766" xlink:href="#DejaVuSans-124"/>
     <use x="1459.701172" xlink:href="#DejaVuSans-32"/>
     <use x="1491.488281" xlink:href="#DejaVuSans-101"/>
     <use x="1553.011719" xlink:href="#DejaVuSans-110"/>
     <use x="1616.390625" xlink:href="#DejaVuSans-118"/>
     <use x="1675.570312" xlink:href="#DejaVuSans-95"/>
     <use x="1725.570312" xlink:href="#DejaVuSans-50"/>
     <use x="1789.193359" xlink:href="#DejaVuSans-95"/>
     <use x="1839.193359" xlink:href="#DejaVuSans-48"/>
     <use x="1902.816406" xlink:href="#DejaVuSans-32"/>
     <use x="1934.603516" xlink:href="#DejaVuSans-124"/>
     <use x="1968.294922" xlink:href="#DejaVuSans-124"/>
     <use x="2001.986328" xlink:href="#DejaVuSans-32"/>
     <use x="2033.773438" xlink:href="#DejaVuSans-69"/>
     <use x="2096.957031" xlink:href="#DejaVuSans-108"/>
     <use x="2124.740234" xlink:href="#DejaVuSans-97"/>
     <use x="2186.019531" xlink:href="#DejaVuSans-112"/>
     <use x="2249.496094" xlink:href="#DejaVuSans-115"/>
     <use x="2301.595703" xlink:href="#DejaVuSans-101"/>
     <use x="2363.119141" xlink:href="#DejaVuSans-100"/>
     <use x="2426.595703" xlink:href="#DejaVuSans-32"/>
     <use x="2458.382812" xlink:href="#DejaVuSans-84"/>
     <use x="2516.341797" xlink:href="#DejaVuSans-105"/>
     <use x="2544.125" xlink:href="#DejaVuSans-109"/>
     <use x="2641.537109" xlink:href="#DejaVuSans-101"/>
     <use x="2703.060547" xlink:href="#DejaVuSans-58"/>
     <use x="2736.751953" xlink:href="#DejaVuSans-32"/>
     <use x="2768.539062" xlink:href="#DejaVuSans-48"/>
     <use x="2832.162109" xlink:href="#DejaVuSans-58"/>
     <use x="2865.853516" xlink:href="#DejaVuSans-50"/>
     <use x="2929.476562" xlink:href="#DejaVuSans-53"/>
     <use x="2993.099609" xlink:href="#DejaVuSans-58"/>
     <use x="3026.791016" xlink:href="#DejaVuSans-49"/>
     <use x="3090.414062" xlink:href="#DejaVuSans-52"/>
    </g>
   </g>
   <g id="legend_1">
    <g id="patch_7">
     <path d="M 1304.036719 296.3 
L 1407.9 296.3 
Q 1410.9 296.3 1410.9 293.3 
L 1410.9 272.782813 
Q 1410.9 269.782813 1407.9 269.782813 
L 1304.036719 269.782813 
Q 1301.036719 269.782813 1301.036719 272.782813 
L 1301.036719 293.3 
Q 1301.036719 296.3 1304.036719 296.3 
z
" style="fill:#ffffff;opacity:0.8;stroke:#cccccc;stroke-linejoin:miter;"/>
    </g>
    <g id="line2d_13">
     <path d="M 1307.036719 281.930469 
L 1337.036719 281.930469 
" style="fill:none;stroke:#1f77b4;stroke-linecap:square;stroke-width:1.5;"/>
    </g>
    <g id="line2d_14"/>
    <g id="text_15">
     <!-- Reward -->
     <g transform="translate(1349.036719 287.180469)scale(0.15 -0.15)">
      <use xlink:href="#DejaVuSans-82"/>
      <use x="64.982422" xlink:href="#DejaVuSans-101"/>
      <use x="126.505859" xlink:href="#DejaVuSans-119"/>
      <use x="208.292969" xlink:href="#DejaVuSans-97"/>
      <use x="269.572266" xlink:href="#DejaVuSans-114"/>
      <use x="308.935547" xlink:href="#DejaVuSans-100"/>
     </g>
    </g>
   </g>
  </g>
  <g id="axes_2">
   <g id="patch_8">
    <path d="M 87.517266 656.6 
L 1418.4 656.6 
L 1418.4 399.4 
L 87.517266 399.4 
z
" style="fill:#ffffff;"/>
   </g>
   <g id="matplotlib.axis_3">
    <g id="xtick_7">
     <g id="line2d_15">
      <g>
       <use style="stroke:#000000;stroke-width:0.8;" x="203.246199" xlink:href="#med4dc7631d" y="656.6"/>
      </g>
     </g>
     <g id="text_16">
      <!-- 1e+05 -->
      <g transform="translate(169.625887 678.796875)scale(0.2 -0.2)">
       <use xlink:href="#DejaVuSans-49"/>
       <use x="63.623047" xlink:href="#DejaVuSans-101"/>
       <use x="125.146484" xlink:href="#DejaVuSans-43"/>
       <use x="208.935547" xlink:href="#DejaVuSans-48"/>
       <use x="272.558594" xlink:href="#DejaVuSans-53"/>
      </g>
     </g>
    </g>
    <g id="xtick_8">
     <g id="line2d_16">
      <g>
       <use style="stroke:#000000;stroke-width:0.8;" x="318.975132" xlink:href="#med4dc7631d" y="656.6"/>
      </g>
     </g>
     <g id="text_17">
      <!-- 2e+05 -->
      <g transform="translate(285.35482 678.796875)scale(0.2 -0.2)">
       <use xlink:href="#DejaVuSans-50"/>
       <use x="63.623047" xlink:href="#DejaVuSans-101"/>
       <use x="125.146484" xlink:href="#DejaVuSans-43"/>
       <use x="208.935547" xlink:href="#DejaVuSans-48"/>
       <use x="272.558594" xlink:href="#DejaVuSans-53"/>
      </g>
     </g>
    </g>
    <g id="xtick_9">
     <g id="line2d_17">
      <g>
       <use style="stroke:#000000;stroke-width:0.8;" x="550.432999" xlink:href="#med4dc7631d" y="656.6"/>
      </g>
     </g>
     <g id="text_18">
      <!-- 4e+05 -->
      <g transform="translate(516.812687 678.796875)scale(0.2 -0.2)">
       <use xlink:href="#DejaVuSans-52"/>
       <use x="63.623047" xlink:href="#DejaVuSans-101"/>
       <use x="125.146484" xlink:href="#DejaVuSans-43"/>
       <use x="208.935547" xlink:href="#DejaVuSans-48"/>
       <use x="272.558594" xlink:href="#DejaVuSans-53"/>
      </g>
     </g>
    </g>
    <g id="xtick_10">
     <g id="line2d_18">
      <g>
       <use style="stroke:#000000;stroke-width:0.8;" x="781.890866" xlink:href="#med4dc7631d" y="656.6"/>
      </g>
     </g>
     <g id="text_19">
      <!-- 6e+05 -->
      <g transform="translate(748.270554 678.796875)scale(0.2 -0.2)">
       <use xlink:href="#DejaVuSans-54"/>
       <use x="63.623047" xlink:href="#DejaVuSans-101"/>
       <use x="125.146484" xlink:href="#DejaVuSans-43"/>
       <use x="208.935547" xlink:href="#DejaVuSans-48"/>
       <use x="272.558594" xlink:href="#DejaVuSans-53"/>
      </g>
     </g>
    </g>
    <g id="xtick_11">
     <g id="line2d_19">
      <g>
       <use style="stroke:#000000;stroke-width:0.8;" x="1013.348733" xlink:href="#med4dc7631d" y="656.6"/>
      </g>
     </g>
     <g id="text_20">
      <!-- 8e+05 -->
      <g transform="translate(979.728421 678.796875)scale(0.2 -0.2)">
       <use xlink:href="#DejaVuSans-56"/>
       <use x="63.623047" xlink:href="#DejaVuSans-101"/>
       <use x="125.146484" xlink:href="#DejaVuSans-43"/>
       <use x="208.935547" xlink:href="#DejaVuSans-48"/>
       <use x="272.558594" xlink:href="#DejaVuSans-53"/>
      </g>
     </g>
    </g>
    <g id="xtick_12">
     <g id="line2d_20">
      <g>
       <use style="stroke:#000000;stroke-width:0.8;" x="1244.8066" xlink:href="#med4dc7631d" y="656.6"/>
      </g>
     </g>
     <g id="text_21">
      <!-- 1e+06 -->
      <g transform="translate(1211.186287 678.796875)scale(0.2 -0.2)">
       <use xlink:href="#DejaVuSans-49"/>
       <use x="63.623047" xlink:href="#DejaVuSans-101"/>
       <use x="125.146484" xlink:href="#DejaVuSans-43"/>
       <use x="208.935547" xlink:href="#DejaVuSans-48"/>
       <use x="272.558594" xlink:href="#DejaVuSans-54"/>
      </g>
     </g>
    </g>
    <g id="text_22">
     <!-- Timestep -->
     <g transform="translate(706.860195 702.153125)scale(0.2 -0.2)">
      <use xlink:href="#DejaVuSans-84"/>
      <use x="57.958984" xlink:href="#DejaVuSans-105"/>
      <use x="85.742188" xlink:href="#DejaVuSans-109"/>
      <use x="183.154297" xlink:href="#DejaVuSans-101"/>
      <use x="244.677734" xlink:href="#DejaVuSans-115"/>
      <use x="296.777344" xlink:href="#DejaVuSans-116"/>
      <use x="335.986328" xlink:href="#DejaVuSans-101"/>
      <use x="397.509766" xlink:href="#DejaVuSans-112"/>
     </g>
    </g>
   </g>
   <g id="matplotlib.axis_4">
    <g id="ytick_6">
     <g id="line2d_21">
      <defs>
       <path d="M 0 0 
L -3.5 0 
" id="m68aeba4dcb" style="stroke:#ff0000;stroke-width:0.8;"/>
      </defs>
      <g>
       <use style="fill:#ff0000;stroke:#ff0000;stroke-width:0.8;" x="87.517266" xlink:href="#m68aeba4dcb" y="624.329413"/>
      </g>
     </g>
     <g id="text_23">
      <!-- $\mathdefault{10^{-3}}$ -->
      <defs>
       <path d="M 10.59375 35.5 
L 73.1875 35.5 
L 73.1875 27.203125 
L 10.59375 27.203125 
z
" id="DejaVuSans-8722"/>
       <path d="M 40.578125 39.3125 
Q 47.65625 37.796875 51.625 33 
Q 55.609375 28.21875 55.609375 21.1875 
Q 55.609375 10.40625 48.1875 4.484375 
Q 40.765625 -1.421875 27.09375 -1.421875 
Q 22.515625 -1.421875 17.65625 -0.515625 
Q 12.796875 0.390625 7.625 2.203125 
L 7.625 11.71875 
Q 11.71875 9.328125 16.59375 8.109375 
Q 21.484375 6.890625 26.8125 6.890625 
Q 36.078125 6.890625 40.9375 10.546875 
Q 45.796875 14.203125 45.796875 21.1875 
Q 45.796875 27.640625 41.28125 31.265625 
Q 36.765625 34.90625 28.71875 34.90625 
L 20.21875 34.90625 
L 20.21875 43.015625 
L 29.109375 43.015625 
Q 36.375 43.015625 40.234375 45.921875 
Q 44.09375 48.828125 44.09375 54.296875 
Q 44.09375 59.90625 40.109375 62.90625 
Q 36.140625 65.921875 28.71875 65.921875 
Q 24.65625 65.921875 20.015625 65.03125 
Q 15.375 64.15625 9.8125 62.3125 
L 9.8125 71.09375 
Q 15.4375 72.65625 20.34375 73.4375 
Q 25.25 74.21875 29.59375 74.21875 
Q 40.828125 74.21875 47.359375 69.109375 
Q 53.90625 64.015625 53.90625 55.328125 
Q 53.90625 49.265625 50.4375 45.09375 
Q 46.96875 40.921875 40.578125 39.3125 
z
" id="DejaVuSans-51"/>
      </defs>
      <g style="fill:#ff0000;" transform="translate(45.267266 630.028241)scale(0.15 -0.15)">
       <use transform="translate(0 0.765625)" xlink:href="#DejaVuSans-49"/>
       <use transform="translate(63.623047 0.765625)" xlink:href="#DejaVuSans-48"/>
       <use transform="translate(128.203125 39.046875)scale(0.7)" xlink:href="#DejaVuSans-8722"/>
       <use transform="translate(186.855469 39.046875)scale(0.7)" xlink:href="#DejaVuSans-51"/>
      </g>
     </g>
    </g>
    <g id="ytick_7">
     <g id="line2d_22">
      <g>
       <use style="fill:#ff0000;stroke:#ff0000;stroke-width:0.8;" x="87.517266" xlink:href="#m68aeba4dcb" y="499.798222"/>
      </g>
     </g>
     <g id="text_24">
      <!-- $\mathdefault{10^{-2}}$ -->
      <g style="fill:#ff0000;" transform="translate(45.267266 505.49705)scale(0.15 -0.15)">
       <use transform="translate(0 0.765625)" xlink:href="#DejaVuSans-49"/>
       <use transform="translate(63.623047 0.765625)" xlink:href="#DejaVuSans-48"/>
       <use transform="translate(128.203125 39.046875)scale(0.7)" xlink:href="#DejaVuSans-8722"/>
       <use transform="translate(186.855469 39.046875)scale(0.7)" xlink:href="#DejaVuSans-50"/>
      </g>
     </g>
    </g>
    <g id="ytick_8">
     <g id="line2d_23">
      <defs>
       <path d="M 0 0 
L -2 0 
" id="md0d503a9ed" style="stroke:#000000;stroke-width:0.6;"/>
      </defs>
      <g>
       <use style="stroke:#000000;stroke-width:0.6;" x="87.517266" xlink:href="#md0d503a9ed" y="651.956502"/>
      </g>
     </g>
    </g>
    <g id="ytick_9">
     <g id="line2d_24">
      <g>
       <use style="stroke:#000000;stroke-width:0.6;" x="87.517266" xlink:href="#md0d503a9ed" y="643.619539"/>
      </g>
     </g>
    </g>
    <g id="ytick_10">
     <g id="line2d_25">
      <g>
       <use style="stroke:#000000;stroke-width:0.6;" x="87.517266" xlink:href="#md0d503a9ed" y="636.397733"/>
      </g>
     </g>
    </g>
    <g id="ytick_11">
     <g id="line2d_26">
      <g>
       <use style="stroke:#000000;stroke-width:0.6;" x="87.517266" xlink:href="#md0d503a9ed" y="630.027648"/>
      </g>
     </g>
    </g>
    <g id="ytick_12">
     <g id="line2d_27">
      <g>
       <use style="stroke:#000000;stroke-width:0.6;" x="87.517266" xlink:href="#md0d503a9ed" y="586.841789"/>
      </g>
     </g>
    </g>
    <g id="ytick_13">
     <g id="line2d_28">
      <g>
       <use style="stroke:#000000;stroke-width:0.6;" x="87.517266" xlink:href="#md0d503a9ed" y="564.912935"/>
      </g>
     </g>
    </g>
    <g id="ytick_14">
     <g id="line2d_29">
      <g>
       <use style="stroke:#000000;stroke-width:0.6;" x="87.517266" xlink:href="#md0d503a9ed" y="549.354165"/>
      </g>
     </g>
    </g>
    <g id="ytick_15">
     <g id="line2d_30">
      <g>
       <use style="stroke:#000000;stroke-width:0.6;" x="87.517266" xlink:href="#md0d503a9ed" y="537.285846"/>
      </g>
     </g>
    </g>
    <g id="ytick_16">
     <g id="line2d_31">
      <g>
       <use style="stroke:#000000;stroke-width:0.6;" x="87.517266" xlink:href="#md0d503a9ed" y="527.425311"/>
      </g>
     </g>
    </g>
    <g id="ytick_17">
     <g id="line2d_32">
      <g>
       <use style="stroke:#000000;stroke-width:0.6;" x="87.517266" xlink:href="#md0d503a9ed" y="519.088348"/>
      </g>
     </g>
    </g>
    <g id="ytick_18">
     <g id="line2d_33">
      <g>
       <use style="stroke:#000000;stroke-width:0.6;" x="87.517266" xlink:href="#md0d503a9ed" y="511.866542"/>
      </g>
     </g>
    </g>
    <g id="ytick_19">
     <g id="line2d_34">
      <g>
       <use style="stroke:#000000;stroke-width:0.6;" x="87.517266" xlink:href="#md0d503a9ed" y="505.496457"/>
      </g>
     </g>
    </g>
    <g id="ytick_20">
     <g id="line2d_35">
      <g>
       <use style="stroke:#000000;stroke-width:0.6;" x="87.517266" xlink:href="#md0d503a9ed" y="462.310598"/>
      </g>
     </g>
    </g>
    <g id="ytick_21">
     <g id="line2d_36">
      <g>
       <use style="stroke:#000000;stroke-width:0.6;" x="87.517266" xlink:href="#md0d503a9ed" y="440.381744"/>
      </g>
     </g>
    </g>
    <g id="ytick_22">
     <g id="line2d_37">
      <g>
       <use style="stroke:#000000;stroke-width:0.6;" x="87.517266" xlink:href="#md0d503a9ed" y="424.822974"/>
      </g>
     </g>
    </g>
    <g id="ytick_23">
     <g id="line2d_38">
      <g>
       <use style="stroke:#000000;stroke-width:0.6;" x="87.517266" xlink:href="#md0d503a9ed" y="412.754655"/>
      </g>
     </g>
    </g>
    <g id="ytick_24">
     <g id="line2d_39">
      <g>
       <use style="stroke:#000000;stroke-width:0.6;" x="87.517266" xlink:href="#md0d503a9ed" y="402.89412"/>
      </g>
     </g>
    </g>
    <g id="text_25">
     <!-- Avg .Temporal Difference -->
     <defs>
      <path d="M 30.609375 48.390625 
Q 23.390625 48.390625 19.1875 42.75 
Q 14.984375 37.109375 14.984375 27.296875 
Q 14.984375 17.484375 19.15625 11.84375 
Q 23.34375 6.203125 30.609375 6.203125 
Q 37.796875 6.203125 41.984375 11.859375 
Q 46.1875 17.53125 46.1875 27.296875 
Q 46.1875 37.015625 41.984375 42.703125 
Q 37.796875 48.390625 30.609375 48.390625 
z
M 30.609375 56 
Q 42.328125 56 49.015625 48.375 
Q 55.71875 40.765625 55.71875 27.296875 
Q 55.71875 13.875 49.015625 6.21875 
Q 42.328125 -1.421875 30.609375 -1.421875 
Q 18.84375 -1.421875 12.171875 6.21875 
Q 5.515625 13.875 5.515625 27.296875 
Q 5.515625 40.765625 12.171875 48.375 
Q 18.84375 56 30.609375 56 
z
" id="DejaVuSans-111"/>
      <path d="M 19.671875 64.796875 
L 19.671875 8.109375 
L 31.59375 8.109375 
Q 46.6875 8.109375 53.6875 14.9375 
Q 60.6875 21.78125 60.6875 36.53125 
Q 60.6875 51.171875 53.6875 57.984375 
Q 46.6875 64.796875 31.59375 64.796875 
z
M 9.8125 72.90625 
L 30.078125 72.90625 
Q 51.265625 72.90625 61.171875 64.09375 
Q 71.09375 55.28125 71.09375 36.53125 
Q 71.09375 17.671875 61.125 8.828125 
Q 51.171875 0 30.078125 0 
L 9.8125 0 
z
" id="DejaVuSans-68"/>
      <path d="M 37.109375 75.984375 
L 37.109375 68.5 
L 28.515625 68.5 
Q 23.6875 68.5 21.796875 66.546875 
Q 19.921875 64.59375 19.921875 59.515625 
L 19.921875 54.6875 
L 34.71875 54.6875 
L 34.71875 47.703125 
L 19.921875 47.703125 
L 19.921875 0 
L 10.890625 0 
L 10.890625 47.703125 
L 2.296875 47.703125 
L 2.296875 54.6875 
L 10.890625 54.6875 
L 10.890625 58.5 
Q 10.890625 67.625 15.140625 71.796875 
Q 19.390625 75.984375 28.609375 75.984375 
z
" id="DejaVuSans-102"/>
      <path d="M 48.78125 52.59375 
L 48.78125 44.1875 
Q 44.96875 46.296875 41.140625 47.34375 
Q 37.3125 48.390625 33.40625 48.390625 
Q 24.65625 48.390625 19.8125 42.84375 
Q 14.984375 37.3125 14.984375 27.296875 
Q 14.984375 17.28125 19.8125 11.734375 
Q 24.65625 6.203125 33.40625 6.203125 
Q 37.3125 6.203125 41.140625 7.25 
Q 44.96875 8.296875 48.78125 10.40625 
L 48.78125 2.09375 
Q 45.015625 0.34375 40.984375 -0.53125 
Q 36.96875 -1.421875 32.421875 -1.421875 
Q 20.0625 -1.421875 12.78125 6.34375 
Q 5.515625 14.109375 5.515625 27.296875 
Q 5.515625 40.671875 12.859375 48.328125 
Q 20.21875 56 33.015625 56 
Q 37.15625 56 41.109375 55.140625 
Q 45.0625 54.296875 48.78125 52.59375 
z
" id="DejaVuSans-99"/>
     </defs>
     <g style="fill:#ff0000;" transform="translate(37.107891 653.540625)rotate(-90)scale(0.2 -0.2)">
      <use xlink:href="#DejaVuSans-65"/>
      <use x="62.533203" xlink:href="#DejaVuSans-118"/>
      <use x="121.712891" xlink:href="#DejaVuSans-103"/>
      <use x="185.189453" xlink:href="#DejaVuSans-32"/>
      <use x="216.976562" xlink:href="#DejaVuSans-46"/>
      <use x="248.763672" xlink:href="#DejaVuSans-84"/>
      <use x="292.847656" xlink:href="#DejaVuSans-101"/>
      <use x="354.371094" xlink:href="#DejaVuSans-109"/>
      <use x="451.783203" xlink:href="#DejaVuSans-112"/>
      <use x="515.259766" xlink:href="#DejaVuSans-111"/>
      <use x="576.441406" xlink:href="#DejaVuSans-114"/>
      <use x="617.554688" xlink:href="#DejaVuSans-97"/>
      <use x="678.833984" xlink:href="#DejaVuSans-108"/>
      <use x="706.617188" xlink:href="#DejaVuSans-32"/>
      <use x="738.404297" xlink:href="#DejaVuSans-68"/>
      <use x="815.40625" xlink:href="#DejaVuSans-105"/>
      <use x="843.189453" xlink:href="#DejaVuSans-102"/>
      <use x="878.394531" xlink:href="#DejaVuSans-102"/>
      <use x="913.599609" xlink:href="#DejaVuSans-101"/>
      <use x="975.123047" xlink:href="#DejaVuSans-114"/>
      <use x="1013.986328" xlink:href="#DejaVuSans-101"/>
      <use x="1075.509766" xlink:href="#DejaVuSans-110"/>
      <use x="1138.888672" xlink:href="#DejaVuSans-99"/>
      <use x="1193.869141" xlink:href="#DejaVuSans-101"/>
     </g>
    </g>
   </g>
   <g id="line2d_40">
    <path clip-path="url(#p8a9ae6c455)" d="M 87.517266 411.090909 
L 87.864452 431.316827 
L 87.980181 424.746903 
L 88.211639 452.266492 
L 88.327368 450.95786 
L 88.558826 469.459052 
L 88.674555 470.713592 
L 88.906013 427.337119 
L 89.137471 444.083319 
L 89.368929 442.193988 
L 89.484657 442.614234 
L 89.600386 452.449899 
L 89.831844 448.712351 
L 89.947573 437.800902 
L 90.063302 442.217085 
L 90.29476 481.642643 
L 90.410489 476.533202 
L 90.641947 484.60308 
L 90.757676 486.9258 
L 90.989134 485.19567 
L 91.220591 458.71826 
L 91.452049 463.653211 
L 92.030694 472.58493 
L 92.146423 468.972094 
L 92.262152 451.570839 
L 92.377881 451.708395 
L 92.49361 450.598677 
L 92.609339 464.267299 
L 92.725068 460.951348 
L 92.956525 466.973092 
L 93.303712 473.376667 
L 93.53517 461.411876 
L 93.766628 464.128868 
L 93.882357 472.559071 
L 93.998086 465.959433 
L 94.229544 471.849004 
L 94.345273 470.793109 
L 94.461002 472.560253 
L 94.692459 457.983455 
L 94.808188 458.664339 
L 95.039646 462.867041 
L 95.271104 466.566933 
L 95.386833 465.790045 
L 95.502562 466.141143 
L 95.618291 470.867705 
L 95.73402 469.072994 
L 95.849749 476.441021 
L 95.965478 472.44242 
L 96.196936 477.048818 
L 96.428393 478.532832 
L 96.544122 483.164148 
L 96.659851 482.408085 
L 96.77558 478.857269 
L 96.891309 467.487277 
L 97.122767 472.588956 
L 97.238496 471.022164 
L 97.701412 473.669773 
L 97.817141 476.78351 
L 97.93287 475.183311 
L 98.048599 470.215682 
L 98.164327 470.957334 
L 98.280056 475.297152 
L 98.395785 489.644337 
L 98.511514 489.604203 
L 98.627243 487.249837 
L 98.858701 492.98175 
L 98.97443 492.13042 
L 99.090159 492.883997 
L 99.321617 478.630529 
L 99.553075 483.378426 
L 99.668804 484.020049 
L 100.01599 488.788064 
L 100.131719 488.872622 
L 100.247448 489.689641 
L 100.478906 480.971366 
L 100.710364 494.520956 
L 101.057551 490.203898 
L 101.17328 497.225928 
L 101.289009 494.779708 
L 101.404738 495.394565 
L 101.636196 482.108521 
L 101.751924 484.426431 
L 101.867653 484.38988 
L 101.983382 483.921867 
L 102.099111 486.878824 
L 102.21484 485.894653 
L 102.330569 489.005397 
L 102.446298 487.1001 
L 102.562027 488.777945 
L 103.024943 502.418245 
L 103.256401 499.346688 
L 103.37213 503.978187 
L 103.487858 502.702514 
L 103.603587 504.43919 
L 103.719316 501.198011 
L 103.835045 504.282049 
L 103.950774 504.076341 
L 104.066503 501.281139 
L 104.297961 505.616956 
L 104.41369 505.191676 
L 104.529419 506.81772 
L 104.645148 506.38586 
L 104.876606 509.993045 
L 105.108064 496.391137 
L 105.223792 501.629945 
L 105.45525 500.766647 
L 105.570979 501.298866 
L 105.686708 494.773771 
L 105.918166 507.42828 
L 106.265353 499.343043 
L 106.381082 502.917194 
L 106.496811 497.368766 
L 106.728269 504.106945 
L 106.843998 503.400092 
L 106.959726 503.395916 
L 107.191184 507.129931 
L 107.306913 499.581279 
L 107.422642 501.833762 
L 107.6541 498.812727 
L 107.885558 499.475013 
L 108.117016 505.865687 
L 108.232745 500.143573 
L 108.348474 502.907166 
L 108.464203 499.904578 
L 108.69566 500.499966 
L 108.927118 499.990297 
L 109.042847 501.807267 
L 109.158576 506.779225 
L 109.274305 503.467801 
L 109.390034 503.658208 
L 109.505763 505.099278 
L 109.737221 497.82158 
L 109.85295 501.131804 
L 109.968679 508.521108 
L 110.200137 506.553395 
L 110.315866 509.16102 
L 110.431594 507.847682 
L 110.663052 508.916568 
L 110.89451 505.310622 
L 111.125968 509.729728 
L 111.241697 503.261755 
L 111.473155 509.934773 
L 111.588884 508.830714 
L 111.704613 514.942715 
L 111.820342 513.179742 
L 112.167528 497.618872 
L 112.398986 504.908327 
L 112.514715 504.815108 
L 112.630444 509.983127 
L 112.746173 506.586295 
L 112.861902 506.961181 
L 112.977631 505.385083 
L 113.09336 502.225415 
L 113.209089 504.915849 
L 113.324818 504.81307 
L 113.440547 500.510857 
L 113.672005 508.781311 
L 113.787734 506.150503 
L 113.903462 506.75754 
L 114.13492 505.85263 
L 114.250649 505.924357 
L 114.366378 503.707465 
L 114.482107 503.72504 
L 114.713565 508.166818 
L 114.945023 504.884252 
L 115.060752 507.264397 
L 115.176481 512.778893 
L 115.29221 509.613673 
L 115.407939 509.926685 
L 115.523668 513.754427 
L 115.639396 510.356668 
L 115.755125 510.478084 
L 115.986583 512.170855 
L 116.102312 516.162052 
L 116.218041 512.706257 
L 116.33377 514.71527 
L 116.449499 513.660434 
L 116.565228 505.785183 
L 116.680957 508.070836 
L 116.796686 504.431526 
L 117.028144 515.397383 
L 117.143873 512.43798 
L 117.37533 519.228907 
L 117.838246 507.72199 
L 117.953975 508.045661 
L 118.069704 507.121666 
L 118.185433 507.541322 
L 118.301162 511.660949 
L 118.416891 509.330065 
L 118.53262 514.790326 
L 118.879807 514.293891 
L 118.995536 520.501164 
L 119.226993 512.123297 
L 119.342722 518.048769 
L 119.458451 517.37154 
L 119.57418 520.724096 
L 119.689909 518.014561 
L 119.921367 520.967372 
L 120.037096 520.941357 
L 120.152825 518.085744 
L 120.268554 521.025224 
L 120.384283 520.436038 
L 120.500012 523.439329 
L 120.615741 521.849895 
L 120.73147 522.659619 
L 120.962927 519.191724 
L 121.194385 521.722486 
L 121.310114 528.934137 
L 121.425843 526.01411 
L 121.657301 529.1281 
L 121.77303 529.817027 
L 122.004488 527.387218 
L 122.235946 532.187119 
L 122.351675 531.530912 
L 122.467404 529.560603 
L 122.583132 525.059439 
L 122.698861 533.174458 
L 122.81459 528.913533 
L 123.046048 533.144971 
L 123.161777 528.525113 
L 123.393235 531.184442 
L 123.508964 527.521131 
L 123.624693 532.061292 
L 123.740422 530.546027 
L 123.856151 531.087364 
L 123.97188 524.733625 
L 124.319066 533.791736 
L 124.434795 532.502877 
L 124.550524 533.316277 
L 124.781982 526.064572 
L 125.01344 533.518492 
L 125.129169 532.813836 
L 125.360627 530.080745 
L 125.592085 536.447618 
L 125.823543 531.659394 
L 126.055 526.935504 
L 126.170729 529.375228 
L 126.286458 525.452964 
L 126.402187 527.581771 
L 126.517916 533.341557 
L 126.633645 530.344697 
L 126.749374 530.543078 
L 126.865103 537.37562 
L 127.096561 525.385071 
L 127.21229 525.556519 
L 127.443748 531.85165 
L 127.559477 530.85806 
L 127.790934 533.278493 
L 127.906663 530.259485 
L 128.022392 534.235443 
L 128.138121 529.808491 
L 128.25385 520.554908 
L 128.485308 534.844272 
L 128.601037 532.165778 
L 128.716766 536.203433 
L 128.832495 534.306883 
L 129.063953 536.898952 
L 129.295411 535.671594 
L 129.526868 531.839262 
L 129.758326 534.150448 
L 129.874055 533.920199 
L 130.105513 534.823787 
L 130.221242 534.781471 
L 130.799887 550.447858 
L 130.915616 547.310284 
L 131.147074 553.701102 
L 131.262802 552.029118 
L 131.378531 552.415457 
L 131.725718 538.845999 
L 132.188634 544.350167 
L 132.304363 550.293144 
L 132.420092 549.627735 
L 132.535821 547.089399 
L 132.65155 553.750396 
L 132.883008 534.769414 
L 132.998736 540.354443 
L 133.114465 539.4984 
L 133.230194 536.644422 
L 133.345923 537.787613 
L 133.461652 535.521456 
L 133.577381 539.416026 
L 133.69311 538.696443 
L 133.808839 536.480191 
L 134.040297 552.17159 
L 134.156026 554.133193 
L 134.271755 549.857283 
L 134.503213 557.07788 
L 134.618942 556.373831 
L 134.73467 559.933611 
L 134.850399 554.276164 
L 134.966128 556.302393 
L 135.081857 553.993642 
L 135.197586 557.106703 
L 135.313315 555.534609 
L 135.429044 556.316058 
L 135.544773 561.554018 
L 135.776231 553.191478 
L 135.89196 561.389795 
L 136.007689 556.593083 
L 136.123418 560.562027 
L 136.239147 559.980003 
L 136.354876 555.408184 
L 136.586333 557.945552 
L 136.702062 561.428066 
L 136.817791 558.308911 
L 136.93352 558.31627 
L 137.049249 559.230003 
L 137.164978 563.197255 
L 137.280707 561.288432 
L 137.512165 554.906373 
L 137.743623 559.366577 
L 137.859352 554.667348 
L 137.975081 563.613143 
L 138.09081 563.315079 
L 138.322267 554.237446 
L 138.437996 555.060729 
L 138.669454 563.094974 
L 138.785183 556.91107 
L 139.016641 560.889571 
L 139.248099 561.565713 
L 139.479557 568.364506 
L 139.595286 562.928141 
L 139.711015 564.781664 
L 139.826744 563.333351 
L 139.942472 564.51605 
L 140.058201 563.718091 
L 140.17393 567.120732 
L 140.405388 567.217818 
L 140.521117 571.815819 
L 140.636846 566.85054 
L 140.752575 568.199092 
L 140.868304 564.272102 
L 140.984033 569.162423 
L 141.099762 564.492428 
L 141.215491 566.356755 
L 141.33122 566.267562 
L 141.446949 572.80429 
L 141.678406 565.998508 
L 141.794135 563.572673 
L 141.909864 571.8182 
L 142.025593 569.172845 
L 142.141322 562.926034 
L 142.37278 572.616053 
L 142.719967 574.044597 
L 142.835696 573.897036 
L 142.951425 576.615068 
L 143.067154 564.734369 
L 143.182883 570.65873 
L 143.298612 567.164566 
L 143.41434 570.900312 
L 143.530069 569.730902 
L 143.761527 572.83748 
L 143.877256 579.379689 
L 144.108714 571.427679 
L 144.224443 571.378025 
L 144.340172 573.363204 
L 144.455901 570.452951 
L 144.687359 575.520917 
L 144.803088 574.387519 
L 144.918817 571.203604 
L 145.034546 576.301165 
L 145.150274 573.03578 
L 145.266003 574.116959 
L 145.497461 570.889178 
L 145.61319 574.05153 
L 145.844648 567.767117 
L 145.960377 574.010767 
L 146.076106 572.3254 
L 146.191835 576.604648 
L 146.307564 576.190685 
L 146.423293 577.056105 
L 146.539022 575.44049 
L 146.77048 585.372105 
L 146.886208 586.661105 
L 147.001937 584.815593 
L 147.117666 588.234767 
L 147.233395 585.958549 
L 147.349124 587.358518 
L 147.464853 590.587426 
L 147.580582 588.311313 
L 147.696311 591.411846 
L 147.81204 590.645191 
L 148.159227 585.109209 
L 148.274956 586.705901 
L 148.506414 593.953467 
L 148.622142 592.731416 
L 148.8536 594.583347 
L 148.969329 590.301372 
L 149.085058 591.661166 
L 149.200787 587.295998 
L 149.316516 591.765981 
L 149.432245 590.636694 
L 149.547974 593.722319 
L 149.779432 590.528717 
L 150.01089 596.190276 
L 150.242348 593.570985 
L 150.358076 594.366595 
L 150.473805 589.657974 
L 150.589534 590.26595 
L 150.705263 587.308415 
L 151.05245 597.749346 
L 151.283908 589.553184 
L 151.515366 595.160455 
L 151.631095 592.548852 
L 151.746824 593.304271 
L 151.862553 587.90713 
L 152.09401 599.513068 
L 152.209739 595.750238 
L 152.325468 597.831259 
L 152.441197 590.089766 
L 152.556926 593.536012 
L 152.788384 589.423203 
L 153.135571 599.328356 
L 153.2513 598.390087 
L 153.367029 598.795572 
L 153.482758 595.079071 
L 153.598487 598.385877 
L 153.714216 592.141008 
L 153.829944 600.548345 
L 153.945673 597.585616 
L 154.061402 597.525025 
L 154.177131 602.300472 
L 154.29286 600.381435 
L 154.640047 603.721841 
L 154.755776 602.984882 
L 154.871505 604.32651 
L 154.987234 610.190457 
L 155.102963 607.981344 
L 155.218692 612.798727 
L 155.45015 609.527071 
L 155.565878 610.126102 
L 155.681607 611.934204 
L 155.797336 607.877113 
L 155.913065 608.98284 
L 156.144523 602.290278 
L 156.260252 603.629555 
L 156.375981 601.838562 
L 156.49171 605.896766 
L 156.607439 604.576498 
L 156.723168 605.143788 
L 156.838897 604.847048 
L 156.954626 600.202674 
L 157.186084 611.522008 
L 157.301812 610.166362 
L 157.417541 613.091689 
L 157.53327 609.814002 
L 157.764728 614.770191 
L 157.880457 613.025226 
L 157.996186 606.971668 
L 158.343373 619.43148 
L 158.459102 611.898624 
L 158.69056 615.140497 
L 158.806289 620.510421 
L 158.922018 614.463114 
L 159.037746 614.27898 
L 159.153475 617.461145 
L 159.269204 616.985007 
L 159.384933 615.108418 
L 159.500662 615.254213 
L 159.73212 613.770115 
L 159.847849 610.257204 
L 159.963578 615.321427 
L 160.079307 615.251672 
L 160.195036 611.276729 
L 160.310765 614.360041 
L 160.426494 610.662763 
L 160.542223 614.106561 
L 160.657952 612.18996 
L 160.77368 612.699665 
L 160.889409 611.116568 
L 161.005138 611.913103 
L 161.120867 610.112384 
L 161.236596 610.200169 
L 161.468054 614.578295 
L 161.583783 613.38582 
L 161.699512 614.804588 
L 161.815241 618.805445 
L 161.93097 615.131767 
L 162.046699 617.920818 
L 162.162428 616.929789 
L 162.278157 612.311822 
L 162.509614 618.739901 
L 162.625343 614.751407 
L 162.741072 615.957321 
L 162.856801 613.540104 
L 162.97253 613.503888 
L 163.088259 616.709361 
L 163.203988 610.358102 
L 163.435446 613.606084 
L 163.551175 614.411501 
L 163.666904 612.943745 
L 163.782633 614.047055 
L 163.898362 617.618036 
L 164.014091 613.128565 
L 164.12982 613.54433 
L 164.245548 609.445628 
L 164.477006 619.125327 
L 164.592735 616.517709 
L 164.708464 617.896431 
L 164.824193 615.258058 
L 164.939922 616.838952 
L 165.055651 602.111781 
L 165.17138 605.618415 
L 165.402838 619.667048 
L 165.518567 622.362605 
L 165.634296 617.798756 
L 165.865754 620.720477 
L 165.981482 619.971619 
L 166.097211 620.844999 
L 166.21294 610.726412 
L 166.328669 623.68389 
L 166.444398 618.226155 
L 166.560127 619.351034 
L 166.675856 621.920584 
L 166.907314 617.01496 
L 167.023043 622.491939 
L 167.138772 616.295787 
L 167.254501 621.852216 
L 167.37023 621.525516 
L 167.601688 619.11808 
L 167.717416 618.886342 
L 167.833145 621.324905 
L 167.948874 617.037627 
L 168.180332 619.929774 
L 168.296061 617.407779 
L 168.527519 623.57147 
L 168.643248 625.316263 
L 168.758977 618.92449 
L 168.874706 619.948007 
L 168.990435 625.263727 
L 169.106164 622.171465 
L 169.221893 623.485671 
L 169.337622 622.728923 
L 169.569079 625.893061 
L 169.684808 618.953793 
L 169.800537 621.520098 
L 169.916266 617.390273 
L 170.147724 617.241213 
L 170.263453 617.934719 
L 170.379182 617.522437 
L 170.494911 614.436389 
L 170.726369 623.580986 
L 171.073556 617.138978 
L 171.305013 622.798635 
L 171.420742 626.54236 
L 171.6522 617.899114 
L 171.767929 619.124167 
L 171.883658 626.394749 
L 171.999387 625.6938 
L 172.115116 624.11285 
L 172.230845 616.653276 
L 172.462303 623.387875 
L 172.578032 622.191553 
L 172.693761 618.953394 
L 172.80949 619.155916 
L 172.925218 619.841519 
L 173.156676 625.261326 
L 173.272405 620.316406 
L 173.619592 625.792285 
L 173.735321 629.866195 
L 173.966779 625.382638 
L 174.082508 625.385949 
L 174.198237 628.793968 
L 174.313966 627.761827 
L 174.429695 630.763301 
L 174.661152 626.636728 
L 174.89261 631.218203 
L 175.008339 625.971231 
L 175.124068 630.083562 
L 175.239797 615.837613 
L 175.355526 631.682005 
L 175.471255 631.436261 
L 175.586984 630.283694 
L 175.702713 634.665369 
L 175.818442 629.30626 
L 176.0499 630.663601 
L 176.165629 628.15868 
L 176.281358 638.408529 
L 176.397086 637.488054 
L 176.628544 633.998133 
L 176.744273 636.669753 
L 176.860002 635.327496 
L 176.975731 639.814477 
L 177.09146 631.789233 
L 177.207189 634.269555 
L 177.322918 634.140556 
L 177.438647 634.285299 
L 177.554376 635.54556 
L 177.670105 635.254682 
L 177.785834 635.890856 
L 177.901563 635.580865 
L 178.017292 633.839925 
L 178.248749 639.239473 
L 178.364478 638.299224 
L 178.480207 639.368985 
L 178.595936 634.845223 
L 178.711665 638.011707 
L 178.827394 644.909091 
L 178.943123 637.912308 
L 179.058852 638.561896 
L 179.174581 636.819702 
L 179.29031 642.532222 
L 179.521768 636.550767 
L 179.637497 637.144446 
L 179.753226 643.341434 
L 179.868954 639.71291 
L 179.984683 639.787845 
L 179.984683 639.787845 
" style="fill:none;stroke:#ff0000;stroke-linecap:square;stroke-width:1.5;"/>
   </g>
   <g id="patch_9">
    <path d="M 87.517266 656.6 
L 87.517266 399.4 
" style="fill:none;stroke:#000000;stroke-linecap:square;stroke-linejoin:miter;stroke-width:0.8;"/>
   </g>
   <g id="patch_10">
    <path d="M 1418.4 656.6 
L 1418.4 399.4 
" style="fill:none;stroke:#000000;stroke-linecap:square;stroke-linejoin:miter;stroke-width:0.8;"/>
   </g>
   <g id="patch_11">
    <path d="M 87.517266 656.6 
L 1418.4 656.6 
" style="fill:none;stroke:#000000;stroke-linecap:square;stroke-linejoin:miter;stroke-width:0.8;"/>
   </g>
   <g id="patch_12">
    <path d="M 87.517266 399.4 
L 1418.4 399.4 
" style="fill:none;stroke:#000000;stroke-linecap:square;stroke-linejoin:miter;stroke-width:0.8;"/>
   </g>
   <g id="text_26">
    <!-- Loss vs Timestep -->
    <g transform="translate(650.338008 393.4)scale(0.24 -0.24)">
     <use xlink:href="#DejaVuSans-76"/>
     <use x="53.962891" xlink:href="#DejaVuSans-111"/>
     <use x="115.144531" xlink:href="#DejaVuSans-115"/>
     <use x="167.244141" xlink:href="#DejaVuSans-115"/>
     <use x="219.34375" xlink:href="#DejaVuSans-32"/>
     <use x="251.130859" xlink:href="#DejaVuSans-118"/>
     <use x="310.310547" xlink:href="#DejaVuSans-115"/>
     <use x="362.410156" xlink:href="#DejaVuSans-32"/>
     <use x="394.197266" xlink:href="#DejaVuSans-84"/>
     <use x="452.15625" xlink:href="#DejaVuSans-105"/>
     <use x="479.939453" xlink:href="#DejaVuSans-109"/>
     <use x="577.351562" xlink:href="#DejaVuSans-101"/>
     <use x="638.875" xlink:href="#DejaVuSans-115"/>
     <use x="690.974609" xlink:href="#DejaVuSans-116"/>
     <use x="730.183594" xlink:href="#DejaVuSans-101"/>
     <use x="791.707031" xlink:href="#DejaVuSans-112"/>
    </g>
   </g>
   <g id="legend_2">
    <g id="patch_13">
     <path d="M 1301.873438 649.1 
L 1407.9 649.1 
Q 1410.9 649.1 1410.9 646.1 
L 1410.9 625.582813 
Q 1410.9 622.582813 1407.9 622.582813 
L 1301.873438 622.582813 
Q 1298.873438 622.582813 1298.873438 625.582813 
L 1298.873438 646.1 
Q 1298.873438 649.1 1301.873438 649.1 
z
" style="fill:#ffffff;opacity:0.8;stroke:#cccccc;stroke-linejoin:miter;"/>
    </g>
    <g id="line2d_41">
     <path d="M 1304.873438 634.730469 
L 1334.873438 634.730469 
" style="fill:none;stroke:#ff0000;stroke-linecap:square;stroke-width:1.5;"/>
    </g>
    <g id="line2d_42"/>
    <g id="text_27">
     <!-- Avg. TD -->
     <g transform="translate(1346.873438 639.980469)scale(0.15 -0.15)">
      <use xlink:href="#DejaVuSans-65"/>
      <use x="62.533203" xlink:href="#DejaVuSans-118"/>
      <use x="121.712891" xlink:href="#DejaVuSans-103"/>
      <use x="185.189453" xlink:href="#DejaVuSans-46"/>
      <use x="216.976562" xlink:href="#DejaVuSans-32"/>
      <use x="248.763672" xlink:href="#DejaVuSans-84"/>
      <use x="309.847656" xlink:href="#DejaVuSans-68"/>
     </g>
    </g>
   </g>
  </g>
  <g id="axes_3">
   <g id="patch_14">
    <path d="M 87.517266 1009.4 
L 1418.4 1009.4 
L 1418.4 752.2 
L 87.517266 752.2 
z
" style="fill:#ffffff;"/>
   </g>
   <g id="matplotlib.axis_5">
    <g id="xtick_13">
     <g id="line2d_43">
      <g>
       <use style="stroke:#000000;stroke-width:0.8;" x="203.246199" xlink:href="#med4dc7631d" y="1009.4"/>
      </g>
     </g>
     <g id="text_28">
      <!-- 1e+05 -->
      <g transform="translate(169.625887 1031.596875)scale(0.2 -0.2)">
       <use xlink:href="#DejaVuSans-49"/>
       <use x="63.623047" xlink:href="#DejaVuSans-101"/>
       <use x="125.146484" xlink:href="#DejaVuSans-43"/>
       <use x="208.935547" xlink:href="#DejaVuSans-48"/>
       <use x="272.558594" xlink:href="#DejaVuSans-53"/>
      </g>
     </g>
    </g>
    <g id="xtick_14">
     <g id="line2d_44">
      <g>
       <use style="stroke:#000000;stroke-width:0.8;" x="318.975132" xlink:href="#med4dc7631d" y="1009.4"/>
      </g>
     </g>
     <g id="text_29">
      <!-- 2e+05 -->
      <g transform="translate(285.35482 1031.596875)scale(0.2 -0.2)">
       <use xlink:href="#DejaVuSans-50"/>
       <use x="63.623047" xlink:href="#DejaVuSans-101"/>
       <use x="125.146484" xlink:href="#DejaVuSans-43"/>
       <use x="208.935547" xlink:href="#DejaVuSans-48"/>
       <use x="272.558594" xlink:href="#DejaVuSans-53"/>
      </g>
     </g>
    </g>
    <g id="xtick_15">
     <g id="line2d_45">
      <g>
       <use style="stroke:#000000;stroke-width:0.8;" x="550.432999" xlink:href="#med4dc7631d" y="1009.4"/>
      </g>
     </g>
     <g id="text_30">
      <!-- 4e+05 -->
      <g transform="translate(516.812687 1031.596875)scale(0.2 -0.2)">
       <use xlink:href="#DejaVuSans-52"/>
       <use x="63.623047" xlink:href="#DejaVuSans-101"/>
       <use x="125.146484" xlink:href="#DejaVuSans-43"/>
       <use x="208.935547" xlink:href="#DejaVuSans-48"/>
       <use x="272.558594" xlink:href="#DejaVuSans-53"/>
      </g>
     </g>
    </g>
    <g id="xtick_16">
     <g id="line2d_46">
      <g>
       <use style="stroke:#000000;stroke-width:0.8;" x="781.890866" xlink:href="#med4dc7631d" y="1009.4"/>
      </g>
     </g>
     <g id="text_31">
      <!-- 6e+05 -->
      <g transform="translate(748.270554 1031.596875)scale(0.2 -0.2)">
       <use xlink:href="#DejaVuSans-54"/>
       <use x="63.623047" xlink:href="#DejaVuSans-101"/>
       <use x="125.146484" xlink:href="#DejaVuSans-43"/>
       <use x="208.935547" xlink:href="#DejaVuSans-48"/>
       <use x="272.558594" xlink:href="#DejaVuSans-53"/>
      </g>
     </g>
    </g>
    <g id="xtick_17">
     <g id="line2d_47">
      <g>
       <use style="stroke:#000000;stroke-width:0.8;" x="1013.348733" xlink:href="#med4dc7631d" y="1009.4"/>
      </g>
     </g>
     <g id="text_32">
      <!-- 8e+05 -->
      <g transform="translate(979.728421 1031.596875)scale(0.2 -0.2)">
       <use xlink:href="#DejaVuSans-56"/>
       <use x="63.623047" xlink:href="#DejaVuSans-101"/>
       <use x="125.146484" xlink:href="#DejaVuSans-43"/>
       <use x="208.935547" xlink:href="#DejaVuSans-48"/>
       <use x="272.558594" xlink:href="#DejaVuSans-53"/>
      </g>
     </g>
    </g>
    <g id="xtick_18">
     <g id="line2d_48">
      <g>
       <use style="stroke:#000000;stroke-width:0.8;" x="1244.8066" xlink:href="#med4dc7631d" y="1009.4"/>
      </g>
     </g>
     <g id="text_33">
      <!-- 1e+06 -->
      <g transform="translate(1211.186287 1031.596875)scale(0.2 -0.2)">
       <use xlink:href="#DejaVuSans-49"/>
       <use x="63.623047" xlink:href="#DejaVuSans-101"/>
       <use x="125.146484" xlink:href="#DejaVuSans-43"/>
       <use x="208.935547" xlink:href="#DejaVuSans-48"/>
       <use x="272.558594" xlink:href="#DejaVuSans-54"/>
      </g>
     </g>
    </g>
    <g id="text_34">
     <!-- Timestep -->
     <g transform="translate(706.860195 1054.953125)scale(0.2 -0.2)">
      <use xlink:href="#DejaVuSans-84"/>
      <use x="57.958984" xlink:href="#DejaVuSans-105"/>
      <use x="85.742188" xlink:href="#DejaVuSans-109"/>
      <use x="183.154297" xlink:href="#DejaVuSans-101"/>
      <use x="244.677734" xlink:href="#DejaVuSans-115"/>
      <use x="296.777344" xlink:href="#DejaVuSans-116"/>
      <use x="335.986328" xlink:href="#DejaVuSans-101"/>
      <use x="397.509766" xlink:href="#DejaVuSans-112"/>
     </g>
    </g>
   </g>
   <g id="matplotlib.axis_6">
    <g id="ytick_25">
     <g id="line2d_49">
      <defs>
       <path d="M 0 0 
L -3.5 0 
" id="mc239afcf7b" style="stroke:#000000;stroke-width:0.8;"/>
      </defs>
      <g>
       <use style="stroke:#000000;stroke-width:0.8;" x="87.517266" xlink:href="#mc239afcf7b" y="1009.4"/>
      </g>
     </g>
     <g id="text_35">
      <!-- 0.0 -->
      <g transform="translate(56.662578 1015.098828)scale(0.15 -0.15)">
       <use xlink:href="#DejaVuSans-48"/>
       <use x="63.623047" xlink:href="#DejaVuSans-46"/>
       <use x="95.410156" xlink:href="#DejaVuSans-48"/>
      </g>
     </g>
    </g>
    <g id="ytick_26">
     <g id="line2d_50">
      <g>
       <use style="stroke:#000000;stroke-width:0.8;" x="87.517266" xlink:href="#mc239afcf7b" y="957.96"/>
      </g>
     </g>
     <g id="text_36">
      <!-- 0.2 -->
      <g transform="translate(56.662578 963.658828)scale(0.15 -0.15)">
       <use xlink:href="#DejaVuSans-48"/>
       <use x="63.623047" xlink:href="#DejaVuSans-46"/>
       <use x="95.410156" xlink:href="#DejaVuSans-50"/>
      </g>
     </g>
    </g>
    <g id="ytick_27">
     <g id="line2d_51">
      <g>
       <use style="stroke:#000000;stroke-width:0.8;" x="87.517266" xlink:href="#mc239afcf7b" y="906.52"/>
      </g>
     </g>
     <g id="text_37">
      <!-- 0.4 -->
      <g transform="translate(56.662578 912.218828)scale(0.15 -0.15)">
       <use xlink:href="#DejaVuSans-48"/>
       <use x="63.623047" xlink:href="#DejaVuSans-46"/>
       <use x="95.410156" xlink:href="#DejaVuSans-52"/>
      </g>
     </g>
    </g>
    <g id="ytick_28">
     <g id="line2d_52">
      <g>
       <use style="stroke:#000000;stroke-width:0.8;" x="87.517266" xlink:href="#mc239afcf7b" y="855.08"/>
      </g>
     </g>
     <g id="text_38">
      <!-- 0.6 -->
      <g transform="translate(56.662578 860.778828)scale(0.15 -0.15)">
       <use xlink:href="#DejaVuSans-48"/>
       <use x="63.623047" xlink:href="#DejaVuSans-46"/>
       <use x="95.410156" xlink:href="#DejaVuSans-54"/>
      </g>
     </g>
    </g>
    <g id="ytick_29">
     <g id="line2d_53">
      <g>
       <use style="stroke:#000000;stroke-width:0.8;" x="87.517266" xlink:href="#mc239afcf7b" y="803.64"/>
      </g>
     </g>
     <g id="text_39">
      <!-- 0.8 -->
      <g transform="translate(56.662578 809.338828)scale(0.15 -0.15)">
       <use xlink:href="#DejaVuSans-48"/>
       <use x="63.623047" xlink:href="#DejaVuSans-46"/>
       <use x="95.410156" xlink:href="#DejaVuSans-56"/>
      </g>
     </g>
    </g>
    <g id="ytick_30">
     <g id="line2d_54">
      <g>
       <use style="stroke:#000000;stroke-width:0.8;" x="87.517266" xlink:href="#mc239afcf7b" y="752.2"/>
      </g>
     </g>
     <g id="text_40">
      <!-- 1.0 -->
      <g transform="translate(56.662578 757.898828)scale(0.15 -0.15)">
       <use xlink:href="#DejaVuSans-49"/>
       <use x="63.623047" xlink:href="#DejaVuSans-46"/>
       <use x="95.410156" xlink:href="#DejaVuSans-48"/>
      </g>
     </g>
    </g>
   </g>
   <g id="patch_15">
    <path d="M 87.517266 1009.4 
L 87.517266 752.2 
" style="fill:none;stroke:#000000;stroke-linecap:square;stroke-linejoin:miter;stroke-width:0.8;"/>
   </g>
   <g id="patch_16">
    <path d="M 1418.4 1009.4 
L 1418.4 752.2 
" style="fill:none;stroke:#000000;stroke-linecap:square;stroke-linejoin:miter;stroke-width:0.8;"/>
   </g>
   <g id="patch_17">
    <path d="M 87.517266 1009.4 
L 1418.4 1009.4 
" style="fill:none;stroke:#000000;stroke-linecap:square;stroke-linejoin:miter;stroke-width:0.8;"/>
   </g>
   <g id="patch_18">
    <path d="M 87.517266 752.2 
L 1418.4 752.2 
" style="fill:none;stroke:#000000;stroke-linecap:square;stroke-linejoin:miter;stroke-width:0.8;"/>
   </g>
   <g id="text_41">
    <!-- Action Selection Frequency(%) vs Timestep -->
    <defs>
     <path d="M 53.515625 70.515625 
L 53.515625 60.890625 
Q 47.90625 63.578125 42.921875 64.890625 
Q 37.9375 66.21875 33.296875 66.21875 
Q 25.25 66.21875 20.875 63.09375 
Q 16.5 59.96875 16.5 54.203125 
Q 16.5 49.359375 19.40625 46.890625 
Q 22.3125 44.4375 30.421875 42.921875 
L 36.375 41.703125 
Q 47.40625 39.59375 52.65625 34.296875 
Q 57.90625 29 57.90625 20.125 
Q 57.90625 9.515625 50.796875 4.046875 
Q 43.703125 -1.421875 29.984375 -1.421875 
Q 24.8125 -1.421875 18.96875 -0.25 
Q 13.140625 0.921875 6.890625 3.21875 
L 6.890625 13.375 
Q 12.890625 10.015625 18.65625 8.296875 
Q 24.421875 6.59375 29.984375 6.59375 
Q 38.421875 6.59375 43.015625 9.90625 
Q 47.609375 13.234375 47.609375 19.390625 
Q 47.609375 24.75 44.3125 27.78125 
Q 41.015625 30.8125 33.5 32.328125 
L 27.484375 33.5 
Q 16.453125 35.6875 11.515625 40.375 
Q 6.59375 45.0625 6.59375 53.421875 
Q 6.59375 63.09375 13.40625 68.65625 
Q 20.21875 74.21875 32.171875 74.21875 
Q 37.3125 74.21875 42.625 73.28125 
Q 47.953125 72.359375 53.515625 70.515625 
z
" id="DejaVuSans-83"/>
     <path d="M 9.8125 72.90625 
L 51.703125 72.90625 
L 51.703125 64.59375 
L 19.671875 64.59375 
L 19.671875 43.109375 
L 48.578125 43.109375 
L 48.578125 34.8125 
L 19.671875 34.8125 
L 19.671875 0 
L 9.8125 0 
z
" id="DejaVuSans-70"/>
     <path d="M 14.796875 27.296875 
Q 14.796875 17.390625 18.875 11.75 
Q 22.953125 6.109375 30.078125 6.109375 
Q 37.203125 6.109375 41.296875 11.75 
Q 45.40625 17.390625 45.40625 27.296875 
Q 45.40625 37.203125 41.296875 42.84375 
Q 37.203125 48.484375 30.078125 48.484375 
Q 22.953125 48.484375 18.875 42.84375 
Q 14.796875 37.203125 14.796875 27.296875 
z
M 45.40625 8.203125 
Q 42.578125 3.328125 38.25 0.953125 
Q 33.9375 -1.421875 27.875 -1.421875 
Q 17.96875 -1.421875 11.734375 6.484375 
Q 5.515625 14.40625 5.515625 27.296875 
Q 5.515625 40.1875 11.734375 48.09375 
Q 17.96875 56 27.875 56 
Q 33.9375 56 38.25 53.625 
Q 42.578125 51.265625 45.40625 46.390625 
L 45.40625 54.6875 
L 54.390625 54.6875 
L 54.390625 -20.796875 
L 45.40625 -20.796875 
z
" id="DejaVuSans-113"/>
     <path d="M 8.5 21.578125 
L 8.5 54.6875 
L 17.484375 54.6875 
L 17.484375 21.921875 
Q 17.484375 14.15625 20.5 10.265625 
Q 23.53125 6.390625 29.59375 6.390625 
Q 36.859375 6.390625 41.078125 11.03125 
Q 45.3125 15.671875 45.3125 23.6875 
L 45.3125 54.6875 
L 54.296875 54.6875 
L 54.296875 0 
L 45.3125 0 
L 45.3125 8.40625 
Q 42.046875 3.421875 37.71875 1 
Q 33.40625 -1.421875 27.6875 -1.421875 
Q 18.265625 -1.421875 13.375 4.4375 
Q 8.5 10.296875 8.5 21.578125 
z
M 31.109375 56 
z
" id="DejaVuSans-117"/>
     <path d="M 32.171875 -5.078125 
Q 28.375 -14.84375 24.75 -17.8125 
Q 21.140625 -20.796875 15.09375 -20.796875 
L 7.90625 -20.796875 
L 7.90625 -13.28125 
L 13.1875 -13.28125 
Q 16.890625 -13.28125 18.9375 -11.515625 
Q 21 -9.765625 23.484375 -3.21875 
L 25.09375 0.875 
L 2.984375 54.6875 
L 12.5 54.6875 
L 29.59375 11.921875 
L 46.6875 54.6875 
L 56.203125 54.6875 
z
" id="DejaVuSans-121"/>
     <path d="M 31 75.875 
Q 24.46875 64.65625 21.28125 53.65625 
Q 18.109375 42.671875 18.109375 31.390625 
Q 18.109375 20.125 21.3125 9.0625 
Q 24.515625 -2 31 -13.1875 
L 23.1875 -13.1875 
Q 15.875 -1.703125 12.234375 9.375 
Q 8.59375 20.453125 8.59375 31.390625 
Q 8.59375 42.28125 12.203125 53.3125 
Q 15.828125 64.359375 23.1875 75.875 
z
" id="DejaVuSans-40"/>
     <path d="M 72.703125 32.078125 
Q 68.453125 32.078125 66.03125 28.46875 
Q 63.625 24.859375 63.625 18.40625 
Q 63.625 12.0625 66.03125 8.421875 
Q 68.453125 4.78125 72.703125 4.78125 
Q 76.859375 4.78125 79.265625 8.421875 
Q 81.6875 12.0625 81.6875 18.40625 
Q 81.6875 24.8125 79.265625 28.4375 
Q 76.859375 32.078125 72.703125 32.078125 
z
M 72.703125 38.28125 
Q 80.421875 38.28125 84.953125 32.90625 
Q 89.5 27.546875 89.5 18.40625 
Q 89.5 9.28125 84.9375 3.921875 
Q 80.375 -1.421875 72.703125 -1.421875 
Q 64.890625 -1.421875 60.34375 3.921875 
Q 55.8125 9.28125 55.8125 18.40625 
Q 55.8125 27.59375 60.375 32.9375 
Q 64.9375 38.28125 72.703125 38.28125 
z
M 22.3125 68.015625 
Q 18.109375 68.015625 15.6875 64.375 
Q 13.28125 60.75 13.28125 54.390625 
Q 13.28125 47.953125 15.671875 44.328125 
Q 18.0625 40.71875 22.3125 40.71875 
Q 26.5625 40.71875 28.96875 44.328125 
Q 31.390625 47.953125 31.390625 54.390625 
Q 31.390625 60.6875 28.953125 64.34375 
Q 26.515625 68.015625 22.3125 68.015625 
z
M 66.40625 74.21875 
L 74.21875 74.21875 
L 28.609375 -1.421875 
L 20.796875 -1.421875 
z
M 22.3125 74.21875 
Q 30.03125 74.21875 34.609375 68.875 
Q 39.203125 63.53125 39.203125 54.390625 
Q 39.203125 45.171875 34.640625 39.84375 
Q 30.078125 34.515625 22.3125 34.515625 
Q 14.546875 34.515625 10.03125 39.859375 
Q 5.515625 45.21875 5.515625 54.390625 
Q 5.515625 63.484375 10.046875 68.84375 
Q 14.59375 74.21875 22.3125 74.21875 
z
" id="DejaVuSans-37"/>
     <path d="M 8.015625 75.875 
L 15.828125 75.875 
Q 23.140625 64.359375 26.78125 53.3125 
Q 30.421875 42.28125 30.421875 31.390625 
Q 30.421875 20.453125 26.78125 9.375 
Q 23.140625 -1.703125 15.828125 -13.1875 
L 8.015625 -13.1875 
Q 14.5 -2 17.703125 9.0625 
Q 20.90625 20.125 20.90625 31.390625 
Q 20.90625 42.671875 17.703125 53.65625 
Q 14.5 64.65625 8.015625 75.875 
z
" id="DejaVuSans-41"/>
    </defs>
    <g transform="translate(493.389258 746.2)scale(0.24 -0.24)">
     <use xlink:href="#DejaVuSans-65"/>
     <use x="66.658203" xlink:href="#DejaVuSans-99"/>
     <use x="121.638672" xlink:href="#DejaVuSans-116"/>
     <use x="160.847656" xlink:href="#DejaVuSans-105"/>
     <use x="188.630859" xlink:href="#DejaVuSans-111"/>
     <use x="249.8125" xlink:href="#DejaVuSans-110"/>
     <use x="313.191406" xlink:href="#DejaVuSans-32"/>
     <use x="344.978516" xlink:href="#DejaVuSans-83"/>
     <use x="408.455078" xlink:href="#DejaVuSans-101"/>
     <use x="469.978516" xlink:href="#DejaVuSans-108"/>
     <use x="497.761719" xlink:href="#DejaVuSans-101"/>
     <use x="559.285156" xlink:href="#DejaVuSans-99"/>
     <use x="614.265625" xlink:href="#DejaVuSans-116"/>
     <use x="653.474609" xlink:href="#DejaVuSans-105"/>
     <use x="681.257812" xlink:href="#DejaVuSans-111"/>
     <use x="742.439453" xlink:href="#DejaVuSans-110"/>
     <use x="805.818359" xlink:href="#DejaVuSans-32"/>
     <use x="837.605469" xlink:href="#DejaVuSans-70"/>
     <use x="887.875" xlink:href="#DejaVuSans-114"/>
     <use x="926.738281" xlink:href="#DejaVuSans-101"/>
     <use x="988.261719" xlink:href="#DejaVuSans-113"/>
     <use x="1051.738281" xlink:href="#DejaVuSans-117"/>
     <use x="1115.117188" xlink:href="#DejaVuSans-101"/>
     <use x="1176.640625" xlink:href="#DejaVuSans-110"/>
     <use x="1240.019531" xlink:href="#DejaVuSans-99"/>
     <use x="1295" xlink:href="#DejaVuSans-121"/>
     <use x="1354.179688" xlink:href="#DejaVuSans-40"/>
     <use x="1393.193359" xlink:href="#DejaVuSans-37"/>
     <use x="1488.212891" xlink:href="#DejaVuSans-41"/>
     <use x="1527.226562" xlink:href="#DejaVuSans-32"/>
     <use x="1559.013672" xlink:href="#DejaVuSans-118"/>
     <use x="1618.193359" xlink:href="#DejaVuSans-115"/>
     <use x="1670.292969" xlink:href="#DejaVuSans-32"/>
     <use x="1702.080078" xlink:href="#DejaVuSans-84"/>
     <use x="1760.039062" xlink:href="#DejaVuSans-105"/>
     <use x="1787.822266" xlink:href="#DejaVuSans-109"/>
     <use x="1885.234375" xlink:href="#DejaVuSans-101"/>
     <use x="1946.757812" xlink:href="#DejaVuSans-115"/>
     <use x="1998.857422" xlink:href="#DejaVuSans-116"/>
     <use x="2038.066406" xlink:href="#DejaVuSans-101"/>
     <use x="2099.589844" xlink:href="#DejaVuSans-112"/>
    </g>
   </g>
  </g>
 </g>
 <defs>
  <clipPath id="pcd04176cdf">
   <rect height="257.2" width="1330.882734" x="87.517266" y="46.6"/>
  </clipPath>
  <clipPath id="p8a9ae6c455">
   <rect height="257.2" width="1330.882734" x="87.517266" y="399.4"/>
  </clipPath>
 </defs>
</svg>
