<?xml version="1.0" encoding="utf-8" standalone="no"?>
<!DOCTYPE svg PUBLIC "-//W3C//DTD SVG 1.1//EN"
  "http://www.w3.org/Graphics/SVG/1.1/DTD/svg11.dtd">
<!-- Created with matplotlib (https://matplotlib.org/) -->
<svg height="1080pt" version="1.1" viewBox="0 0 1440 1080" width="1440pt" xmlns="http://www.w3.org/2000/svg" xmlns:xlink="http://www.w3.org/1999/xlink">
 <defs>
  <style type="text/css">
*{stroke-linecap:butt;stroke-linejoin:round;}
  </style>
 </defs>
 <g id="figure_1">
  <g id="patch_1">
   <path d="M 0 1080 
L 1440 1080 
L 1440 0 
L 0 0 
z
" style="fill:#ffffff;"/>
  </g>
  <g id="axes_1">
   <g id="patch_2">
    <path d="M 87.329766 303.8 
L 1418.4 303.8 
L 1418.4 46.6 
L 87.329766 46.6 
z
" style="fill:#ffffff;"/>
   </g>
   <g id="matplotlib.axis_1">
    <g id="xtick_1">
     <g id="line2d_1">
      <defs>
       <path d="M 0 0 
L 0 3.5 
" id="m2a4f0320f3" style="stroke:#000000;stroke-width:0.8;"/>
      </defs>
      <g>
       <use style="stroke:#000000;stroke-width:0.8;" x="203.075003" xlink:href="#m2a4f0320f3" y="303.8"/>
      </g>
     </g>
     <g id="text_1">
      <!-- 1e+04 -->
      <defs>
       <path d="M 12.40625 8.296875 
L 28.515625 8.296875 
L 28.515625 63.921875 
L 10.984375 60.40625 
L 10.984375 69.390625 
L 28.421875 72.90625 
L 38.28125 72.90625 
L 38.28125 8.296875 
L 54.390625 8.296875 
L 54.390625 0 
L 12.40625 0 
z
" id="DejaVuSans-49"/>
       <path d="M 56.203125 29.59375 
L 56.203125 25.203125 
L 14.890625 25.203125 
Q 15.484375 15.921875 20.484375 11.0625 
Q 25.484375 6.203125 34.421875 6.203125 
Q 39.59375 6.203125 44.453125 7.46875 
Q 49.3125 8.734375 54.109375 11.28125 
L 54.109375 2.78125 
Q 49.265625 0.734375 44.1875 -0.34375 
Q 39.109375 -1.421875 33.890625 -1.421875 
Q 20.796875 -1.421875 13.15625 6.1875 
Q 5.515625 13.8125 5.515625 26.8125 
Q 5.515625 40.234375 12.765625 48.109375 
Q 20.015625 56 32.328125 56 
Q 43.359375 56 49.78125 48.890625 
Q 56.203125 41.796875 56.203125 29.59375 
z
M 47.21875 32.234375 
Q 47.125 39.59375 43.09375 43.984375 
Q 39.0625 48.390625 32.421875 48.390625 
Q 24.90625 48.390625 20.390625 44.140625 
Q 15.875 39.890625 15.1875 32.171875 
z
" id="DejaVuSans-101"/>
       <path d="M 46 62.703125 
L 46 35.5 
L 73.1875 35.5 
L 73.1875 27.203125 
L 46 27.203125 
L 46 0 
L 37.796875 0 
L 37.796875 27.203125 
L 10.59375 27.203125 
L 10.59375 35.5 
L 37.796875 35.5 
L 37.796875 62.703125 
z
" id="DejaVuSans-43"/>
       <path d="M 31.78125 66.40625 
Q 24.171875 66.40625 20.328125 58.90625 
Q 16.5 51.421875 16.5 36.375 
Q 16.5 21.390625 20.328125 13.890625 
Q 24.171875 6.390625 31.78125 6.390625 
Q 39.453125 6.390625 43.28125 13.890625 
Q 47.125 21.390625 47.125 36.375 
Q 47.125 51.421875 43.28125 58.90625 
Q 39.453125 66.40625 31.78125 66.40625 
z
M 31.78125 74.21875 
Q 44.046875 74.21875 50.515625 64.515625 
Q 56.984375 54.828125 56.984375 36.375 
Q 56.984375 17.96875 50.515625 8.265625 
Q 44.046875 -1.421875 31.78125 -1.421875 
Q 19.53125 -1.421875 13.0625 8.265625 
Q 6.59375 17.96875 6.59375 36.375 
Q 6.59375 54.828125 13.0625 64.515625 
Q 19.53125 74.21875 31.78125 74.21875 
z
" id="DejaVuSans-48"/>
       <path d="M 37.796875 64.3125 
L 12.890625 25.390625 
L 37.796875 25.390625 
z
M 35.203125 72.90625 
L 47.609375 72.90625 
L 47.609375 25.390625 
L 58.015625 25.390625 
L 58.015625 17.1875 
L 47.609375 17.1875 
L 47.609375 0 
L 37.796875 0 
L 37.796875 17.1875 
L 4.890625 17.1875 
L 4.890625 26.703125 
z
" id="DejaVuSans-52"/>
      </defs>
      <g transform="translate(169.454691 325.996875)scale(0.2 -0.2)">
       <use xlink:href="#DejaVuSans-49"/>
       <use x="63.623047" xlink:href="#DejaVuSans-101"/>
       <use x="125.146484" xlink:href="#DejaVuSans-43"/>
       <use x="208.935547" xlink:href="#DejaVuSans-48"/>
       <use x="272.558594" xlink:href="#DejaVuSans-52"/>
      </g>
     </g>
    </g>
    <g id="xtick_2">
     <g id="line2d_2">
      <g>
       <use style="stroke:#000000;stroke-width:0.8;" x="318.820241" xlink:href="#m2a4f0320f3" y="303.8"/>
      </g>
     </g>
     <g id="text_2">
      <!-- 2e+04 -->
      <defs>
       <path d="M 19.1875 8.296875 
L 53.609375 8.296875 
L 53.609375 0 
L 7.328125 0 
L 7.328125 8.296875 
Q 12.9375 14.109375 22.625 23.890625 
Q 32.328125 33.6875 34.8125 36.53125 
Q 39.546875 41.84375 41.421875 45.53125 
Q 43.3125 49.21875 43.3125 52.78125 
Q 43.3125 58.59375 39.234375 62.25 
Q 35.15625 65.921875 28.609375 65.921875 
Q 23.96875 65.921875 18.8125 64.3125 
Q 13.671875 62.703125 7.8125 59.421875 
L 7.8125 69.390625 
Q 13.765625 71.78125 18.9375 73 
Q 24.125 74.21875 28.421875 74.21875 
Q 39.75 74.21875 46.484375 68.546875 
Q 53.21875 62.890625 53.21875 53.421875 
Q 53.21875 48.921875 51.53125 44.890625 
Q 49.859375 40.875 45.40625 35.40625 
Q 44.1875 33.984375 37.640625 27.21875 
Q 31.109375 20.453125 19.1875 8.296875 
z
" id="DejaVuSans-50"/>
      </defs>
      <g transform="translate(285.199929 325.996875)scale(0.2 -0.2)">
       <use xlink:href="#DejaVuSans-50"/>
       <use x="63.623047" xlink:href="#DejaVuSans-101"/>
       <use x="125.146484" xlink:href="#DejaVuSans-43"/>
       <use x="208.935547" xlink:href="#DejaVuSans-48"/>
       <use x="272.558594" xlink:href="#DejaVuSans-52"/>
      </g>
     </g>
    </g>
    <g id="xtick_3">
     <g id="line2d_3">
      <g>
       <use style="stroke:#000000;stroke-width:0.8;" x="550.310717" xlink:href="#m2a4f0320f3" y="303.8"/>
      </g>
     </g>
     <g id="text_3">
      <!-- 4e+04 -->
      <g transform="translate(516.690404 325.996875)scale(0.2 -0.2)">
       <use xlink:href="#DejaVuSans-52"/>
       <use x="63.623047" xlink:href="#DejaVuSans-101"/>
       <use x="125.146484" xlink:href="#DejaVuSans-43"/>
       <use x="208.935547" xlink:href="#DejaVuSans-48"/>
       <use x="272.558594" xlink:href="#DejaVuSans-52"/>
      </g>
     </g>
    </g>
    <g id="xtick_4">
     <g id="line2d_4">
      <g>
       <use style="stroke:#000000;stroke-width:0.8;" x="781.801192" xlink:href="#m2a4f0320f3" y="303.8"/>
      </g>
     </g>
     <g id="text_4">
      <!-- 6e+04 -->
      <defs>
       <path d="M 33.015625 40.375 
Q 26.375 40.375 22.484375 35.828125 
Q 18.609375 31.296875 18.609375 23.390625 
Q 18.609375 15.53125 22.484375 10.953125 
Q 26.375 6.390625 33.015625 6.390625 
Q 39.65625 6.390625 43.53125 10.953125 
Q 47.40625 15.53125 47.40625 23.390625 
Q 47.40625 31.296875 43.53125 35.828125 
Q 39.65625 40.375 33.015625 40.375 
z
M 52.59375 71.296875 
L 52.59375 62.3125 
Q 48.875 64.0625 45.09375 64.984375 
Q 41.3125 65.921875 37.59375 65.921875 
Q 27.828125 65.921875 22.671875 59.328125 
Q 17.53125 52.734375 16.796875 39.40625 
Q 19.671875 43.65625 24.015625 45.921875 
Q 28.375 48.1875 33.59375 48.1875 
Q 44.578125 48.1875 50.953125 41.515625 
Q 57.328125 34.859375 57.328125 23.390625 
Q 57.328125 12.15625 50.6875 5.359375 
Q 44.046875 -1.421875 33.015625 -1.421875 
Q 20.359375 -1.421875 13.671875 8.265625 
Q 6.984375 17.96875 6.984375 36.375 
Q 6.984375 53.65625 15.1875 63.9375 
Q 23.390625 74.21875 37.203125 74.21875 
Q 40.921875 74.21875 44.703125 73.484375 
Q 48.484375 72.75 52.59375 71.296875 
z
" id="DejaVuSans-54"/>
      </defs>
      <g transform="translate(748.18088 325.996875)scale(0.2 -0.2)">
       <use xlink:href="#DejaVuSans-54"/>
       <use x="63.623047" xlink:href="#DejaVuSans-101"/>
       <use x="125.146484" xlink:href="#DejaVuSans-43"/>
       <use x="208.935547" xlink:href="#DejaVuSans-48"/>
       <use x="272.558594" xlink:href="#DejaVuSans-52"/>
      </g>
     </g>
    </g>
    <g id="xtick_5">
     <g id="line2d_5">
      <g>
       <use style="stroke:#000000;stroke-width:0.8;" x="1013.291668" xlink:href="#m2a4f0320f3" y="303.8"/>
      </g>
     </g>
     <g id="text_5">
      <!-- 8e+04 -->
      <defs>
       <path d="M 31.78125 34.625 
Q 24.75 34.625 20.71875 30.859375 
Q 16.703125 27.09375 16.703125 20.515625 
Q 16.703125 13.921875 20.71875 10.15625 
Q 24.75 6.390625 31.78125 6.390625 
Q 38.8125 6.390625 42.859375 10.171875 
Q 46.921875 13.96875 46.921875 20.515625 
Q 46.921875 27.09375 42.890625 30.859375 
Q 38.875 34.625 31.78125 34.625 
z
M 21.921875 38.8125 
Q 15.578125 40.375 12.03125 44.71875 
Q 8.5 49.078125 8.5 55.328125 
Q 8.5 64.0625 14.71875 69.140625 
Q 20.953125 74.21875 31.78125 74.21875 
Q 42.671875 74.21875 48.875 69.140625 
Q 55.078125 64.0625 55.078125 55.328125 
Q 55.078125 49.078125 51.53125 44.71875 
Q 48 40.375 41.703125 38.8125 
Q 48.828125 37.15625 52.796875 32.3125 
Q 56.78125 27.484375 56.78125 20.515625 
Q 56.78125 9.90625 50.3125 4.234375 
Q 43.84375 -1.421875 31.78125 -1.421875 
Q 19.734375 -1.421875 13.25 4.234375 
Q 6.78125 9.90625 6.78125 20.515625 
Q 6.78125 27.484375 10.78125 32.3125 
Q 14.796875 37.15625 21.921875 38.8125 
z
M 18.3125 54.390625 
Q 18.3125 48.734375 21.84375 45.5625 
Q 25.390625 42.390625 31.78125 42.390625 
Q 38.140625 42.390625 41.71875 45.5625 
Q 45.3125 48.734375 45.3125 54.390625 
Q 45.3125 60.0625 41.71875 63.234375 
Q 38.140625 66.40625 31.78125 66.40625 
Q 25.390625 66.40625 21.84375 63.234375 
Q 18.3125 60.0625 18.3125 54.390625 
z
" id="DejaVuSans-56"/>
      </defs>
      <g transform="translate(979.671355 325.996875)scale(0.2 -0.2)">
       <use xlink:href="#DejaVuSans-56"/>
       <use x="63.623047" xlink:href="#DejaVuSans-101"/>
       <use x="125.146484" xlink:href="#DejaVuSans-43"/>
       <use x="208.935547" xlink:href="#DejaVuSans-48"/>
       <use x="272.558594" xlink:href="#DejaVuSans-52"/>
      </g>
     </g>
    </g>
    <g id="xtick_6">
     <g id="line2d_6">
      <g>
       <use style="stroke:#000000;stroke-width:0.8;" x="1244.782143" xlink:href="#m2a4f0320f3" y="303.8"/>
      </g>
     </g>
     <g id="text_6">
      <!-- 1e+05 -->
      <defs>
       <path d="M 10.796875 72.90625 
L 49.515625 72.90625 
L 49.515625 64.59375 
L 19.828125 64.59375 
L 19.828125 46.734375 
Q 21.96875 47.46875 24.109375 47.828125 
Q 26.265625 48.1875 28.421875 48.1875 
Q 40.625 48.1875 47.75 41.5 
Q 54.890625 34.8125 54.890625 23.390625 
Q 54.890625 11.625 47.5625 5.09375 
Q 40.234375 -1.421875 26.90625 -1.421875 
Q 22.3125 -1.421875 17.546875 -0.640625 
Q 12.796875 0.140625 7.71875 1.703125 
L 7.71875 11.625 
Q 12.109375 9.234375 16.796875 8.0625 
Q 21.484375 6.890625 26.703125 6.890625 
Q 35.15625 6.890625 40.078125 11.328125 
Q 45.015625 15.765625 45.015625 23.390625 
Q 45.015625 31 40.078125 35.4375 
Q 35.15625 39.890625 26.703125 39.890625 
Q 22.75 39.890625 18.8125 39.015625 
Q 14.890625 38.140625 10.796875 36.28125 
z
" id="DejaVuSans-53"/>
      </defs>
      <g transform="translate(1211.161831 325.996875)scale(0.2 -0.2)">
       <use xlink:href="#DejaVuSans-49"/>
       <use x="63.623047" xlink:href="#DejaVuSans-101"/>
       <use x="125.146484" xlink:href="#DejaVuSans-43"/>
       <use x="208.935547" xlink:href="#DejaVuSans-48"/>
       <use x="272.558594" xlink:href="#DejaVuSans-53"/>
      </g>
     </g>
    </g>
    <g id="text_7">
     <!-- Timestep -->
     <defs>
      <path d="M -0.296875 72.90625 
L 61.375 72.90625 
L 61.375 64.59375 
L 35.5 64.59375 
L 35.5 0 
L 25.59375 0 
L 25.59375 64.59375 
L -0.296875 64.59375 
z
" id="DejaVuSans-84"/>
      <path d="M 9.421875 54.6875 
L 18.40625 54.6875 
L 18.40625 0 
L 9.421875 0 
z
M 9.421875 75.984375 
L 18.40625 75.984375 
L 18.40625 64.59375 
L 9.421875 64.59375 
z
" id="DejaVuSans-105"/>
      <path d="M 52 44.1875 
Q 55.375 50.25 60.0625 53.125 
Q 64.75 56 71.09375 56 
Q 79.640625 56 84.28125 50.015625 
Q 88.921875 44.046875 88.921875 33.015625 
L 88.921875 0 
L 79.890625 0 
L 79.890625 32.71875 
Q 79.890625 40.578125 77.09375 44.375 
Q 74.3125 48.1875 68.609375 48.1875 
Q 61.625 48.1875 57.5625 43.546875 
Q 53.515625 38.921875 53.515625 30.90625 
L 53.515625 0 
L 44.484375 0 
L 44.484375 32.71875 
Q 44.484375 40.625 41.703125 44.40625 
Q 38.921875 48.1875 33.109375 48.1875 
Q 26.21875 48.1875 22.15625 43.53125 
Q 18.109375 38.875 18.109375 30.90625 
L 18.109375 0 
L 9.078125 0 
L 9.078125 54.6875 
L 18.109375 54.6875 
L 18.109375 46.1875 
Q 21.1875 51.21875 25.484375 53.609375 
Q 29.78125 56 35.6875 56 
Q 41.65625 56 45.828125 52.96875 
Q 50 49.953125 52 44.1875 
z
" id="DejaVuSans-109"/>
      <path d="M 44.28125 53.078125 
L 44.28125 44.578125 
Q 40.484375 46.53125 36.375 47.5 
Q 32.28125 48.484375 27.875 48.484375 
Q 21.1875 48.484375 17.84375 46.4375 
Q 14.5 44.390625 14.5 40.28125 
Q 14.5 37.15625 16.890625 35.375 
Q 19.28125 33.59375 26.515625 31.984375 
L 29.59375 31.296875 
Q 39.15625 29.25 43.1875 25.515625 
Q 47.21875 21.78125 47.21875 15.09375 
Q 47.21875 7.46875 41.1875 3.015625 
Q 35.15625 -1.421875 24.609375 -1.421875 
Q 20.21875 -1.421875 15.453125 -0.5625 
Q 10.6875 0.296875 5.421875 2 
L 5.421875 11.28125 
Q 10.40625 8.6875 15.234375 7.390625 
Q 20.0625 6.109375 24.8125 6.109375 
Q 31.15625 6.109375 34.5625 8.28125 
Q 37.984375 10.453125 37.984375 14.40625 
Q 37.984375 18.0625 35.515625 20.015625 
Q 33.0625 21.96875 24.703125 23.78125 
L 21.578125 24.515625 
Q 13.234375 26.265625 9.515625 29.90625 
Q 5.8125 33.546875 5.8125 39.890625 
Q 5.8125 47.609375 11.28125 51.796875 
Q 16.75 56 26.8125 56 
Q 31.78125 56 36.171875 55.265625 
Q 40.578125 54.546875 44.28125 53.078125 
z
" id="DejaVuSans-115"/>
      <path d="M 18.3125 70.21875 
L 18.3125 54.6875 
L 36.8125 54.6875 
L 36.8125 47.703125 
L 18.3125 47.703125 
L 18.3125 18.015625 
Q 18.3125 11.328125 20.140625 9.421875 
Q 21.96875 7.515625 27.59375 7.515625 
L 36.8125 7.515625 
L 36.8125 0 
L 27.59375 0 
Q 17.1875 0 13.234375 3.875 
Q 9.28125 7.765625 9.28125 18.015625 
L 9.28125 47.703125 
L 2.6875 47.703125 
L 2.6875 54.6875 
L 9.28125 54.6875 
L 9.28125 70.21875 
z
" id="DejaVuSans-116"/>
      <path d="M 18.109375 8.203125 
L 18.109375 -20.796875 
L 9.078125 -20.796875 
L 9.078125 54.6875 
L 18.109375 54.6875 
L 18.109375 46.390625 
Q 20.953125 51.265625 25.265625 53.625 
Q 29.59375 56 35.59375 56 
Q 45.5625 56 51.78125 48.09375 
Q 58.015625 40.1875 58.015625 27.296875 
Q 58.015625 14.40625 51.78125 6.484375 
Q 45.5625 -1.421875 35.59375 -1.421875 
Q 29.59375 -1.421875 25.265625 0.953125 
Q 20.953125 3.328125 18.109375 8.203125 
z
M 48.6875 27.296875 
Q 48.6875 37.203125 44.609375 42.84375 
Q 40.53125 48.484375 33.40625 48.484375 
Q 26.265625 48.484375 22.1875 42.84375 
Q 18.109375 37.203125 18.109375 27.296875 
Q 18.109375 17.390625 22.1875 11.75 
Q 26.265625 6.109375 33.40625 6.109375 
Q 40.53125 6.109375 44.609375 11.75 
Q 48.6875 17.390625 48.6875 27.296875 
z
" id="DejaVuSans-112"/>
     </defs>
     <g transform="translate(706.766445 349.353125)scale(0.2 -0.2)">
      <use xlink:href="#DejaVuSans-84"/>
      <use x="57.958984" xlink:href="#DejaVuSans-105"/>
      <use x="85.742188" xlink:href="#DejaVuSans-109"/>
      <use x="183.154297" xlink:href="#DejaVuSans-101"/>
      <use x="244.677734" xlink:href="#DejaVuSans-115"/>
      <use x="296.777344" xlink:href="#DejaVuSans-116"/>
      <use x="335.986328" xlink:href="#DejaVuSans-101"/>
      <use x="397.509766" xlink:href="#DejaVuSans-112"/>
     </g>
    </g>
   </g>
   <g id="matplotlib.axis_2">
    <g id="ytick_1">
     <g id="line2d_7">
      <defs>
       <path d="M 0 0 
L -3.5 0 
" id="m61308a125c" style="stroke:#1f77b4;stroke-width:0.8;"/>
      </defs>
      <g>
       <use style="fill:#1f77b4;stroke:#1f77b4;stroke-width:0.8;" x="87.329766" xlink:href="#m61308a125c" y="287.714765"/>
      </g>
     </g>
     <g id="text_8">
      <!-- 10 -->
      <g style="fill:#1f77b4;" transform="translate(61.242266 293.413593)scale(0.15 -0.15)">
       <use xlink:href="#DejaVuSans-49"/>
       <use x="63.623047" xlink:href="#DejaVuSans-48"/>
      </g>
     </g>
    </g>
    <g id="ytick_2">
     <g id="line2d_8">
      <g>
       <use style="fill:#1f77b4;stroke:#1f77b4;stroke-width:0.8;" x="87.329766" xlink:href="#m61308a125c" y="232.785685"/>
      </g>
     </g>
     <g id="text_9">
      <!-- 20 -->
      <g style="fill:#1f77b4;" transform="translate(61.242266 238.484513)scale(0.15 -0.15)">
       <use xlink:href="#DejaVuSans-50"/>
       <use x="63.623047" xlink:href="#DejaVuSans-48"/>
      </g>
     </g>
    </g>
    <g id="ytick_3">
     <g id="line2d_9">
      <g>
       <use style="fill:#1f77b4;stroke:#1f77b4;stroke-width:0.8;" x="87.329766" xlink:href="#m61308a125c" y="177.856606"/>
      </g>
     </g>
     <g id="text_10">
      <!-- 30 -->
      <defs>
       <path d="M 40.578125 39.3125 
Q 47.65625 37.796875 51.625 33 
Q 55.609375 28.21875 55.609375 21.1875 
Q 55.609375 10.40625 48.1875 4.484375 
Q 40.765625 -1.421875 27.09375 -1.421875 
Q 22.515625 -1.421875 17.65625 -0.515625 
Q 12.796875 0.390625 7.625 2.203125 
L 7.625 11.71875 
Q 11.71875 9.328125 16.59375 8.109375 
Q 21.484375 6.890625 26.8125 6.890625 
Q 36.078125 6.890625 40.9375 10.546875 
Q 45.796875 14.203125 45.796875 21.1875 
Q 45.796875 27.640625 41.28125 31.265625 
Q 36.765625 34.90625 28.71875 34.90625 
L 20.21875 34.90625 
L 20.21875 43.015625 
L 29.109375 43.015625 
Q 36.375 43.015625 40.234375 45.921875 
Q 44.09375 48.828125 44.09375 54.296875 
Q 44.09375 59.90625 40.109375 62.90625 
Q 36.140625 65.921875 28.71875 65.921875 
Q 24.65625 65.921875 20.015625 65.03125 
Q 15.375 64.15625 9.8125 62.3125 
L 9.8125 71.09375 
Q 15.4375 72.65625 20.34375 73.4375 
Q 25.25 74.21875 29.59375 74.21875 
Q 40.828125 74.21875 47.359375 69.109375 
Q 53.90625 64.015625 53.90625 55.328125 
Q 53.90625 49.265625 50.4375 45.09375 
Q 46.96875 40.921875 40.578125 39.3125 
z
" id="DejaVuSans-51"/>
      </defs>
      <g style="fill:#1f77b4;" transform="translate(61.242266 183.555434)scale(0.15 -0.15)">
       <use xlink:href="#DejaVuSans-51"/>
       <use x="63.623047" xlink:href="#DejaVuSans-48"/>
      </g>
     </g>
    </g>
    <g id="ytick_4">
     <g id="line2d_10">
      <g>
       <use style="fill:#1f77b4;stroke:#1f77b4;stroke-width:0.8;" x="87.329766" xlink:href="#m61308a125c" y="122.927526"/>
      </g>
     </g>
     <g id="text_11">
      <!-- 40 -->
      <g style="fill:#1f77b4;" transform="translate(61.242266 128.626354)scale(0.15 -0.15)">
       <use xlink:href="#DejaVuSans-52"/>
       <use x="63.623047" xlink:href="#DejaVuSans-48"/>
      </g>
     </g>
    </g>
    <g id="ytick_5">
     <g id="line2d_11">
      <g>
       <use style="fill:#1f77b4;stroke:#1f77b4;stroke-width:0.8;" x="87.329766" xlink:href="#m61308a125c" y="67.998447"/>
      </g>
     </g>
     <g id="text_12">
      <!-- 50 -->
      <g style="fill:#1f77b4;" transform="translate(61.242266 73.697275)scale(0.15 -0.15)">
       <use xlink:href="#DejaVuSans-53"/>
       <use x="63.623047" xlink:href="#DejaVuSans-48"/>
      </g>
     </g>
    </g>
    <g id="text_13">
     <!-- Reward -->
     <defs>
      <path d="M 44.390625 34.1875 
Q 47.5625 33.109375 50.5625 29.59375 
Q 53.5625 26.078125 56.59375 19.921875 
L 66.609375 0 
L 56 0 
L 46.6875 18.703125 
Q 43.0625 26.03125 39.671875 28.421875 
Q 36.28125 30.8125 30.421875 30.8125 
L 19.671875 30.8125 
L 19.671875 0 
L 9.8125 0 
L 9.8125 72.90625 
L 32.078125 72.90625 
Q 44.578125 72.90625 50.734375 67.671875 
Q 56.890625 62.453125 56.890625 51.90625 
Q 56.890625 45.015625 53.6875 40.46875 
Q 50.484375 35.9375 44.390625 34.1875 
z
M 19.671875 64.796875 
L 19.671875 38.921875 
L 32.078125 38.921875 
Q 39.203125 38.921875 42.84375 42.21875 
Q 46.484375 45.515625 46.484375 51.90625 
Q 46.484375 58.296875 42.84375 61.546875 
Q 39.203125 64.796875 32.078125 64.796875 
z
" id="DejaVuSans-82"/>
      <path d="M 4.203125 54.6875 
L 13.1875 54.6875 
L 24.421875 12.015625 
L 35.59375 54.6875 
L 46.1875 54.6875 
L 57.421875 12.015625 
L 68.609375 54.6875 
L 77.59375 54.6875 
L 63.28125 0 
L 52.6875 0 
L 40.921875 44.828125 
L 29.109375 0 
L 18.5 0 
z
" id="DejaVuSans-119"/>
      <path d="M 34.28125 27.484375 
Q 23.390625 27.484375 19.1875 25 
Q 14.984375 22.515625 14.984375 16.5 
Q 14.984375 11.71875 18.140625 8.90625 
Q 21.296875 6.109375 26.703125 6.109375 
Q 34.1875 6.109375 38.703125 11.40625 
Q 43.21875 16.703125 43.21875 25.484375 
L 43.21875 27.484375 
z
M 52.203125 31.203125 
L 52.203125 0 
L 43.21875 0 
L 43.21875 8.296875 
Q 40.140625 3.328125 35.546875 0.953125 
Q 30.953125 -1.421875 24.3125 -1.421875 
Q 15.921875 -1.421875 10.953125 3.296875 
Q 6 8.015625 6 15.921875 
Q 6 25.140625 12.171875 29.828125 
Q 18.359375 34.515625 30.609375 34.515625 
L 43.21875 34.515625 
L 43.21875 35.40625 
Q 43.21875 41.609375 39.140625 45 
Q 35.0625 48.390625 27.6875 48.390625 
Q 23 48.390625 18.546875 47.265625 
Q 14.109375 46.140625 10.015625 43.890625 
L 10.015625 52.203125 
Q 14.9375 54.109375 19.578125 55.046875 
Q 24.21875 56 28.609375 56 
Q 40.484375 56 46.34375 49.84375 
Q 52.203125 43.703125 52.203125 31.203125 
z
" id="DejaVuSans-97"/>
      <path d="M 41.109375 46.296875 
Q 39.59375 47.171875 37.8125 47.578125 
Q 36.03125 48 33.890625 48 
Q 26.265625 48 22.1875 43.046875 
Q 18.109375 38.09375 18.109375 28.8125 
L 18.109375 0 
L 9.078125 0 
L 9.078125 54.6875 
L 18.109375 54.6875 
L 18.109375 46.1875 
Q 20.953125 51.171875 25.484375 53.578125 
Q 30.03125 56 36.53125 56 
Q 37.453125 56 38.578125 55.875 
Q 39.703125 55.765625 41.0625 55.515625 
z
" id="DejaVuSans-114"/>
      <path d="M 45.40625 46.390625 
L 45.40625 75.984375 
L 54.390625 75.984375 
L 54.390625 0 
L 45.40625 0 
L 45.40625 8.203125 
Q 42.578125 3.328125 38.25 0.953125 
Q 33.9375 -1.421875 27.875 -1.421875 
Q 17.96875 -1.421875 11.734375 6.484375 
Q 5.515625 14.40625 5.515625 27.296875 
Q 5.515625 40.1875 11.734375 48.09375 
Q 17.96875 56 27.875 56 
Q 33.9375 56 38.25 53.625 
Q 42.578125 51.265625 45.40625 46.390625 
z
M 14.796875 27.296875 
Q 14.796875 17.390625 18.875 11.75 
Q 22.953125 6.109375 30.078125 6.109375 
Q 37.203125 6.109375 41.296875 11.75 
Q 45.40625 17.390625 45.40625 27.296875 
Q 45.40625 37.203125 41.296875 42.84375 
Q 37.203125 48.484375 30.078125 48.484375 
Q 22.953125 48.484375 18.875 42.84375 
Q 14.796875 37.203125 14.796875 27.296875 
z
" id="DejaVuSans-100"/>
     </defs>
     <g style="fill:#1f77b4;" transform="translate(53.082891 212.442188)rotate(-90)scale(0.2 -0.2)">
      <use xlink:href="#DejaVuSans-82"/>
      <use x="64.982422" xlink:href="#DejaVuSans-101"/>
      <use x="126.505859" xlink:href="#DejaVuSans-119"/>
      <use x="208.292969" xlink:href="#DejaVuSans-97"/>
      <use x="269.572266" xlink:href="#DejaVuSans-114"/>
      <use x="308.935547" xlink:href="#DejaVuSans-100"/>
     </g>
    </g>
   </g>
   <g id="line2d_12">
    <path clip-path="url(#pef2424a1ac)" d="M 87.329766 58.290909 
L 128.30358 227.329658 
L 130.386994 233.219625 
L 132.586154 235.75421 
L 134.322332 241.262811 
L 135.248294 243.871943 
L 137.331708 248.639002 
L 142.193008 270.26772 
L 144.507913 278.37839 
L 146.591327 283.526815 
L 148.906232 284.512399 
L 151.221137 283.17056 
L 155.966692 283.417741 
L 158.860323 282.741329 
L 161.985444 282.426664 
L 163.142896 282.440004 
L 165.457801 282.662074 
L 168.119942 282.373304 
L 170.087611 282.064916 
L 173.559968 282.17399 
L 175.874873 282.221857 
L 176.800834 282.311313 
L 179.231484 283.186254 
L 181.430644 283.260801 
L 185.134492 282.14731 
L 186.060453 281.743974 
L 188.375358 280.121996 
L 190.690263 279.598601 
L 193.120913 280.183988 
L 195.320072 281.108366 
L 197.634977 280.84706 
L 200.297118 279.518561 
L 204.463946 278.162598 
L 207.126087 278.795851 
L 209.093756 279.504437 
L 212.103132 278.184569 
L 213.839311 277.700409 
L 217.543158 278.093544 
L 219.858063 278.359558 
L 221.362751 278.671869 
L 223.33042 279.113655 
L 225.99256 279.185848 
L 227.844484 278.96927 
L 229.927899 278.340725 
L 232.474294 279.262749 
L 236.988358 279.643329 
L 239.187518 280.467265 
L 241.733913 279.867753 
L 244.511799 279.759464 
L 246.247977 279.598601 
L 248.794372 280.208313 
L 250.993532 281.011847 
L 253.424182 281.433232 
L 255.507596 282.050007 
L 257.706756 281.823228 
L 260.02166 280.031756 
L 263.841253 280.181634 
L 264.88296 280.272659 
L 267.31361 280.839998 
L 269.628515 281.088748 
L 271.596184 281.565846 
L 275.415777 280.639114 
L 276.457484 280.51827 
L 278.656644 280.771729 
L 280.971548 281.937795 
L 283.517944 282.374873 
L 285.601358 282.976739 
L 287.916263 282.752315 
L 290.346913 283.502489 
L 292.893308 284.768212 
L 294.860977 285.330843 
L 297.407372 285.077384 
L 299.722277 285.326134 
L 302.384417 285.939771 
L 305.509539 286.254436 
L 306.666991 286.424716 
L 308.750405 286.900245 
L 313.958941 286.302303 
L 315.69512 286.376849 
L 318.588751 287.249437 
L 320.903655 287.611969 
L 324.028777 287.714765 
L 325.533465 287.823053 
L 327.84837 288.245223 
L 329.700294 288.63365 
L 332.478179 288.55361 
L 335.603301 288.656406 
L 336.645008 288.747431 
L 338.959913 289.466217 
L 341.506308 290.73194 
L 343.821213 291.40129 
L 346.020372 291.607667 
L 349.492729 291.263183 
L 350.997417 291.16745 
L 352.733596 291.256905 
L 355.048501 292.109091 
L 357.479151 292.018066 
L 359.794055 291.504086 
L 365.697062 291.79521 
L 366.854515 291.7034 
L 368.937929 291.190206 
L 371.368579 289.820902 
L 373.683484 289.284167 
L 376.114134 289.192357 
L 378.197548 288.843165 
L 380.628198 289.081714 
L 382.827358 288.708981 
L 387.572912 286.57067 
L 389.772072 286.376849 
L 392.434212 287.163904 
L 394.401881 287.341247 
L 398.105729 286.445903 
L 399.263181 286.302303 
L 401.462341 286.211277 
L 403.892991 285.643938 
L 407.365348 285.299454 
L 408.870036 284.987143 
L 410.837705 284.545357 
L 413.036865 284.305238 
L 419.055617 282.381936 
L 420.44456 281.89699 
L 423.685427 280.461772 
L 425.074369 279.910912 
L 428.315236 278.929251 
L 429.009708 278.832732 
L 431.556103 280.272659 
L 433.639517 280.781145 
L 436.070167 280.211452 
L 439.774015 280.604588 
L 440.699977 280.577908 
L 443.362117 279.790852 
L 445.329786 279.449508 
L 447.991927 278.30149 
L 449.84385 277.876966 
L 452.621736 279.079913 
L 454.589405 279.509145 
L 457.483036 279.028908 
L 459.103469 278.841364 
L 461.418374 277.064016 
L 465.237967 277.949944 
L 466.742655 278.249699 
L 468.478834 278.380745 
L 470.909484 277.465783 
L 473.108643 276.228309 
L 475.539293 275.98976 
L 478.317179 276.258128 
L 479.937612 276.194567 
L 482.136772 274.852728 
L 483.178479 275.54405 
L 484.798912 276.52885 
L 486.998072 277.169951 
L 489.544467 276.732872 
L 492.206607 275.938755 
L 495.331729 275.41222 
L 496.836417 275.316487 
L 498.572595 275.212121 
L 500.771755 274.23203 
L 503.08666 274.475287 
L 505.401564 273.283326 
L 509.221157 273.433204 
L 510.031374 273.362581 
L 512.80926 271.594649 
L 515.008419 270.67341 
L 518.480776 269.858106 
L 519.638229 269.636035 
L 521.721643 269.420242 
L 524.036548 268.582966 
L 530.0553 268.881937 
L 533.180422 268.790127 
L 535.611072 266.782077 
L 538.041722 266.213953 
L 541.629824 266.323027 
L 542.555786 266.296347 
L 544.986436 265.586193 
L 547.185595 265.660739 
L 552.394131 267.534605 
L 555.634998 269.18954 
L 556.445214 269.524608 
L 558.99161 269.605432 
L 560.959279 269.409256 
L 563.158438 270.602002 
L 564.31589 269.831426 
L 565.820579 268.925096 
L 568.019738 268.283995 
L 571.723586 268.895277 
L 574.03849 269.475171 
L 574.848707 269.638389 
L 577.279357 269.068696 
L 579.594262 269.486942 
L 581.909167 270.795039 
L 584.108326 271.156786 
L 586.654721 272.941981 
L 589.201117 273.862435 
L 591.400276 274.401525 
L 593.367945 275.138359 
L 598.692226 274.163761 
L 600.659895 273.938551 
L 602.627564 273.496765 
L 605.173959 274.936691 
L 607.257374 275.438115 
L 609.688024 274.703635 
L 611.887183 274.753856 
L 614.086343 272.815644 
L 614.896559 273.50932 
L 616.516993 274.824479 
L 618.947643 274.255571 
L 621.146802 273.147573 
L 624.156178 273.855373 
L 626.123847 274.030361 
L 628.785988 273.958169 
L 631.100893 274.223398 
L 632.837071 274.487058 
L 635.383466 274.060965 
L 639.897531 274.15199 
L 641.980945 274.63929 
L 644.52734 273.544631 
L 647.305226 273.059686 
L 650.430347 272.103135 
L 651.356309 271.89362 
L 653.671214 272.132954 
L 655.870374 271.749235 
L 658.185278 272.599067 
L 661.194654 271.062622 
L 662.930833 270.092731 
L 665.477228 269.483018 
L 668.139369 268.291842 
L 671.495981 266.346568 
L 672.537688 265.826311 
L 675.084083 264.898794 
L 677.398988 264.162745 
L 679.482402 263.430619 
L 682.028797 263.021005 
L 683.649231 262.847586 
L 686.311371 261.165186 
L 688.163295 260.411873 
L 689.320747 261.261705 
L 690.593945 262.084071 
L 692.90885 261.063175 
L 695.223754 261.577939 
L 697.538659 259.807653 
L 701.358252 260.952532 
L 702.168469 261.170679 
L 704.599119 260.780683 
L 707.49275 261.457095 
L 709.113183 261.613251 
L 711.891069 260.410304 
L 714.090228 259.722121 
L 717.678331 257.902399 
L 718.604292 257.513972 
L 720.803452 256.992146 
L 723.002611 255.884148 
L 725.549007 256.483659 
L 727.748166 256.573115 
L 730.410307 257.540652 
L 733.766919 258.114268 
L 737.007785 258.449336 
L 739.32269 257.769 
L 741.75334 258.007549 
L 744.18399 257.586164 
L 746.151659 256.996854 
L 748.466564 257.874935 
L 750.781469 257.467675 
L 753.212119 258.337123 
L 755.411278 258.095436 
L 757.957673 259.222266 
L 760.851304 261.060036 
L 762.818973 262.011879 
L 766.29133 263.07201 
L 768.49049 263.55931 
L 769.416452 263.658182 
L 771.615611 263.302712 
L 774.162007 264.915273 
L 777.865854 266.287715 
L 780.180759 267.112436 
L 781.338211 267.389436 
L 783.421626 267.762954 
L 785.50504 268.532745 
L 789.440378 267.315674 
L 790.134849 267.183844 
L 792.449754 267.73392 
L 794.880404 266.669865 
L 798.584252 266.527834 
L 800.08894 266.636123 
L 802.403845 267.058292 
L 804.024278 267.412977 
L 806.339183 266.242203 
L 808.654087 266.771091 
L 810.968992 265.314686 
L 813.283897 266.157455 
L 816.061783 264.76618 
L 817.913706 264.194917 
L 820.344356 264.599823 
L 822.543516 264.223167 
L 824.974166 265.287221 
L 827.173325 265.372754 
L 829.48823 264.209042 
L 831.803135 264.916058 
L 834.34953 263.994034 
L 839.095085 263.580496 
L 842.567442 262.747929 
L 844.07213 262.550184 
L 849.512156 262.072301 
L 851.016844 261.75999 
L 854.141966 260.803439 
L 857.730068 259.702503 
L 859.581992 259.394901 
L 861.896897 257.917308 
L 864.211802 258.324568 
L 866.989687 257.30995 
L 869.536082 256.900336 
L 871.503752 256.858747 
L 873.587166 257.051783 
L 875.786325 256.540158 
L 878.216975 257.769 
L 880.53188 258.008334 
L 884.235728 257.364094 
L 885.16169 257.327998 
L 890.370225 258.848749 
L 891.990659 259.394901 
L 894.421309 257.851393 
L 898.125156 257.207154 
L 900.440061 256.7842 
L 901.250278 256.682973 
L 903.565182 257.51868 
L 905.880087 256.169779 
L 908.889463 256.278068 
L 910.741387 256.438147 
L 912.940547 256.214507 
L 915.486942 256.82422 
L 917.454611 257.532805 
L 919.885261 256.498569 
L 922.08442 256.577039 
L 924.862306 254.997435 
L 926.71423 254.32887 
L 929.029135 255.206951 
L 931.459785 254.802045 
L 935.163632 255.664431 
L 937.478537 256.183119 
L 938.635989 256.326719 
L 940.603658 256.397342 
L 943.034308 257.911031 
L 945.349213 258.172336 
L 948.011354 259.500835 
L 949.863278 260.065035 
L 954.608832 258.867581 
L 958.31268 259.260717 
L 959.122897 259.259147 
L 961.785037 258.118192 
L 963.984197 257.761938 
L 968.614006 257.984793 
L 970.813166 257.626969 
L 973.359561 258.053062 
L 975.32723 258.10956 
L 977.642135 259.280334 
L 980.651511 258.572534 
L 982.387689 258.262577 
L 984.471104 257.273853 
L 985.628556 258.200585 
L 986.901754 259.123394 
L 989.563894 258.493279 
L 995.351156 258.210002 
L 997.666061 258.319075 
L 999.980965 258.585089 
L 1002.29587 259.008043 
L 1003.221832 259.300736 
L 1006.231208 261.216977 
L 1007.735896 261.941256 
L 1010.513782 261.114965 
L 1012.481451 260.952532 
L 1014.680611 261.627375 
L 1017.458496 260.801085 
L 1019.657656 260.411089 
L 1022.319796 259.400394 
L 1025.560663 257.745459 
L 1026.718115 257.233049 
L 1030.884944 255.905335 
L 1033.199849 256.912106 
L 1035.746244 255.967326 
L 1038.061149 255.744471 
L 1040.376053 256.149377 
L 1044.079901 257.539082 
L 1044.774372 257.682683 
L 1047.320768 256.41539 
L 1049.519927 256.072476 
L 1051.719087 256.591163 
L 1054.149737 255.556927 
L 1056.348896 255.649522 
L 1058.663801 254.628626 
L 1061.094451 255.198319 
L 1063.409356 254.988804 
L 1065.608515 255.656584 
L 1067.92342 254.806753 
L 1070.35407 255.870808 
L 1072.78472 256.12662 
L 1075.562606 257.17655 
L 1077.183039 257.846685 
L 1079.497944 256.811664 
L 1081.812849 257.054922 
L 1084.127753 255.862961 
L 1087.947346 256.230986 
L 1090.262251 256.435793 
L 1091.303958 256.41539 
L 1094.081844 255.742117 
L 1095.702277 255.263449 
L 1099.637615 256.714362 
L 1102.646991 257.86081 
L 1104.961896 257.153794 
L 1107.508291 258.075818 
L 1110.286177 258.155858 
L 1114.33726 257.985577 
L 1116.652165 259.016675 
L 1118.851325 260.699859 
L 1121.166229 260.292599 
L 1123.481134 261.128305 
L 1125.796039 259.842965 
L 1128.226689 261.221685 
L 1130.773084 261.475143 
L 1133.435225 261.402951 
L 1135.750129 261.66818 
L 1138.875251 262.194714 
L 1140.032703 262.443465 
L 1142.694844 263.45416 
L 1144.431022 264.18864 
L 1146.977417 264.269464 
L 1149.292322 264.047394 
L 1151.375736 264.114093 
L 1155.079584 263.000602 
L 1156.005546 262.791087 
L 1158.899177 263.291726 
L 1160.866846 263.733513 
L 1163.528986 264.022283 
L 1165.265165 264.271033 
L 1167.81156 263.488686 
L 1170.126465 262.512518 
L 1172.209879 262.163326 
L 1175.10351 262.447388 
L 1177.418415 262.339099 
L 1179.154594 262.029142 
L 1181.585244 260.989413 
L 1183.668658 260.777544 
L 1185.983563 261.95538 
L 1188.414213 261.565384 
L 1191.307843 262.458374 
L 1192.928277 263.025713 
L 1195.243182 261.990692 
L 1197.673832 262.24572 
L 1199.872991 261.854939 
L 1202.072151 262.600405 
L 1202.072151 262.600405 
" style="fill:none;stroke:#1f77b4;stroke-linecap:square;stroke-width:1.5;"/>
   </g>
   <g id="patch_3">
    <path d="M 87.329766 303.8 
L 87.329766 46.6 
" style="fill:none;stroke:#000000;stroke-linecap:square;stroke-linejoin:miter;stroke-width:0.8;"/>
   </g>
   <g id="patch_4">
    <path d="M 1418.4 303.8 
L 1418.4 46.6 
" style="fill:none;stroke:#000000;stroke-linecap:square;stroke-linejoin:miter;stroke-width:0.8;"/>
   </g>
   <g id="patch_5">
    <path d="M 87.329766 303.8 
L 1418.4 303.8 
" style="fill:none;stroke:#000000;stroke-linecap:square;stroke-linejoin:miter;stroke-width:0.8;"/>
   </g>
   <g id="patch_6">
    <path d="M 87.329766 46.6 
L 1418.4 46.6 
" style="fill:none;stroke:#000000;stroke-linecap:square;stroke-linejoin:miter;stroke-width:0.8;"/>
   </g>
   <g id="text_14">
    <!-- Avg. Last 10 Rewards: 15.0 || env_2_0 || Elapsed Time: 0:19:12 -->
    <defs>
     <path d="M 34.1875 63.1875 
L 20.796875 26.90625 
L 47.609375 26.90625 
z
M 28.609375 72.90625 
L 39.796875 72.90625 
L 67.578125 0 
L 57.328125 0 
L 50.6875 18.703125 
L 17.828125 18.703125 
L 11.1875 0 
L 0.78125 0 
z
" id="DejaVuSans-65"/>
     <path d="M 2.984375 54.6875 
L 12.5 54.6875 
L 29.59375 8.796875 
L 46.6875 54.6875 
L 56.203125 54.6875 
L 35.6875 0 
L 23.484375 0 
z
" id="DejaVuSans-118"/>
     <path d="M 45.40625 27.984375 
Q 45.40625 37.75 41.375 43.109375 
Q 37.359375 48.484375 30.078125 48.484375 
Q 22.859375 48.484375 18.828125 43.109375 
Q 14.796875 37.75 14.796875 27.984375 
Q 14.796875 18.265625 18.828125 12.890625 
Q 22.859375 7.515625 30.078125 7.515625 
Q 37.359375 7.515625 41.375 12.890625 
Q 45.40625 18.265625 45.40625 27.984375 
z
M 54.390625 6.78125 
Q 54.390625 -7.171875 48.1875 -13.984375 
Q 42 -20.796875 29.203125 -20.796875 
Q 24.46875 -20.796875 20.265625 -20.09375 
Q 16.0625 -19.390625 12.109375 -17.921875 
L 12.109375 -9.1875 
Q 16.0625 -11.328125 19.921875 -12.34375 
Q 23.78125 -13.375 27.78125 -13.375 
Q 36.625 -13.375 41.015625 -8.765625 
Q 45.40625 -4.15625 45.40625 5.171875 
L 45.40625 9.625 
Q 42.625 4.78125 38.28125 2.390625 
Q 33.9375 0 27.875 0 
Q 17.828125 0 11.671875 7.65625 
Q 5.515625 15.328125 5.515625 27.984375 
Q 5.515625 40.671875 11.671875 48.328125 
Q 17.828125 56 27.875 56 
Q 33.9375 56 38.28125 53.609375 
Q 42.625 51.21875 45.40625 46.390625 
L 45.40625 54.6875 
L 54.390625 54.6875 
z
" id="DejaVuSans-103"/>
     <path d="M 10.6875 12.40625 
L 21 12.40625 
L 21 0 
L 10.6875 0 
z
" id="DejaVuSans-46"/>
     <path id="DejaVuSans-32"/>
     <path d="M 9.8125 72.90625 
L 19.671875 72.90625 
L 19.671875 8.296875 
L 55.171875 8.296875 
L 55.171875 0 
L 9.8125 0 
z
" id="DejaVuSans-76"/>
     <path d="M 11.71875 12.40625 
L 22.015625 12.40625 
L 22.015625 0 
L 11.71875 0 
z
M 11.71875 51.703125 
L 22.015625 51.703125 
L 22.015625 39.3125 
L 11.71875 39.3125 
z
" id="DejaVuSans-58"/>
     <path d="M 21 76.421875 
L 21 -23.578125 
L 12.703125 -23.578125 
L 12.703125 76.421875 
z
" id="DejaVuSans-124"/>
     <path d="M 54.890625 33.015625 
L 54.890625 0 
L 45.90625 0 
L 45.90625 32.71875 
Q 45.90625 40.484375 42.875 44.328125 
Q 39.84375 48.1875 33.796875 48.1875 
Q 26.515625 48.1875 22.3125 43.546875 
Q 18.109375 38.921875 18.109375 30.90625 
L 18.109375 0 
L 9.078125 0 
L 9.078125 54.6875 
L 18.109375 54.6875 
L 18.109375 46.1875 
Q 21.34375 51.125 25.703125 53.5625 
Q 30.078125 56 35.796875 56 
Q 45.21875 56 50.046875 50.171875 
Q 54.890625 44.34375 54.890625 33.015625 
z
" id="DejaVuSans-110"/>
     <path d="M 50.984375 -16.609375 
L 50.984375 -23.578125 
L -0.984375 -23.578125 
L -0.984375 -16.609375 
z
" id="DejaVuSans-95"/>
     <path d="M 9.8125 72.90625 
L 55.90625 72.90625 
L 55.90625 64.59375 
L 19.671875 64.59375 
L 19.671875 43.015625 
L 54.390625 43.015625 
L 54.390625 34.71875 
L 19.671875 34.71875 
L 19.671875 8.296875 
L 56.78125 8.296875 
L 56.78125 0 
L 9.8125 0 
z
" id="DejaVuSans-69"/>
     <path d="M 9.421875 75.984375 
L 18.40625 75.984375 
L 18.40625 0 
L 9.421875 0 
z
" id="DejaVuSans-108"/>
     <path d="M 10.984375 1.515625 
L 10.984375 10.5 
Q 14.703125 8.734375 18.5 7.8125 
Q 22.3125 6.890625 25.984375 6.890625 
Q 35.75 6.890625 40.890625 13.453125 
Q 46.046875 20.015625 46.78125 33.40625 
Q 43.953125 29.203125 39.59375 26.953125 
Q 35.25 24.703125 29.984375 24.703125 
Q 19.046875 24.703125 12.671875 31.3125 
Q 6.296875 37.9375 6.296875 49.421875 
Q 6.296875 60.640625 12.9375 67.421875 
Q 19.578125 74.21875 30.609375 74.21875 
Q 43.265625 74.21875 49.921875 64.515625 
Q 56.59375 54.828125 56.59375 36.375 
Q 56.59375 19.140625 48.40625 8.859375 
Q 40.234375 -1.421875 26.421875 -1.421875 
Q 22.703125 -1.421875 18.890625 -0.6875 
Q 15.09375 0.046875 10.984375 1.515625 
z
M 30.609375 32.421875 
Q 37.25 32.421875 41.125 36.953125 
Q 45.015625 41.5 45.015625 49.421875 
Q 45.015625 57.28125 41.125 61.84375 
Q 37.25 66.40625 30.609375 66.40625 
Q 23.96875 66.40625 20.09375 61.84375 
Q 16.21875 57.28125 16.21875 49.421875 
Q 16.21875 41.5 20.09375 36.953125 
Q 23.96875 32.421875 30.609375 32.421875 
z
" id="DejaVuSans-57"/>
    </defs>
    <g transform="translate(374.384883 40.6)scale(0.24 -0.24)">
     <use xlink:href="#DejaVuSans-65"/>
     <use x="62.533203" xlink:href="#DejaVuSans-118"/>
     <use x="121.712891" xlink:href="#DejaVuSans-103"/>
     <use x="185.189453" xlink:href="#DejaVuSans-46"/>
     <use x="216.976562" xlink:href="#DejaVuSans-32"/>
     <use x="248.763672" xlink:href="#DejaVuSans-76"/>
     <use x="304.476562" xlink:href="#DejaVuSans-97"/>
     <use x="365.755859" xlink:href="#DejaVuSans-115"/>
     <use x="417.855469" xlink:href="#DejaVuSans-116"/>
     <use x="457.064453" xlink:href="#DejaVuSans-32"/>
     <use x="488.851562" xlink:href="#DejaVuSans-49"/>
     <use x="552.474609" xlink:href="#DejaVuSans-48"/>
     <use x="616.097656" xlink:href="#DejaVuSans-32"/>
     <use x="647.884766" xlink:href="#DejaVuSans-82"/>
     <use x="712.867188" xlink:href="#DejaVuSans-101"/>
     <use x="774.390625" xlink:href="#DejaVuSans-119"/>
     <use x="856.177734" xlink:href="#DejaVuSans-97"/>
     <use x="917.457031" xlink:href="#DejaVuSans-114"/>
     <use x="956.820312" xlink:href="#DejaVuSans-100"/>
     <use x="1020.296875" xlink:href="#DejaVuSans-115"/>
     <use x="1072.396484" xlink:href="#DejaVuSans-58"/>
     <use x="1106.087891" xlink:href="#DejaVuSans-32"/>
     <use x="1137.875" xlink:href="#DejaVuSans-49"/>
     <use x="1201.498047" xlink:href="#DejaVuSans-53"/>
     <use x="1265.121094" xlink:href="#DejaVuSans-46"/>
     <use x="1296.908203" xlink:href="#DejaVuSans-48"/>
     <use x="1360.53125" xlink:href="#DejaVuSans-32"/>
     <use x="1392.318359" xlink:href="#DejaVuSans-124"/>
     <use x="1426.009766" xlink:href="#DejaVuSans-124"/>
     <use x="1459.701172" xlink:href="#DejaVuSans-32"/>
     <use x="1491.488281" xlink:href="#DejaVuSans-101"/>
     <use x="1553.011719" xlink:href="#DejaVuSans-110"/>
     <use x="1616.390625" xlink:href="#DejaVuSans-118"/>
     <use x="1675.570312" xlink:href="#DejaVuSans-95"/>
     <use x="1725.570312" xlink:href="#DejaVuSans-50"/>
     <use x="1789.193359" xlink:href="#DejaVuSans-95"/>
     <use x="1839.193359" xlink:href="#DejaVuSans-48"/>
     <use x="1902.816406" xlink:href="#DejaVuSans-32"/>
     <use x="1934.603516" xlink:href="#DejaVuSans-124"/>
     <use x="1968.294922" xlink:href="#DejaVuSans-124"/>
     <use x="2001.986328" xlink:href="#DejaVuSans-32"/>
     <use x="2033.773438" xlink:href="#DejaVuSans-69"/>
     <use x="2096.957031" xlink:href="#DejaVuSans-108"/>
     <use x="2124.740234" xlink:href="#DejaVuSans-97"/>
     <use x="2186.019531" xlink:href="#DejaVuSans-112"/>
     <use x="2249.496094" xlink:href="#DejaVuSans-115"/>
     <use x="2301.595703" xlink:href="#DejaVuSans-101"/>
     <use x="2363.119141" xlink:href="#DejaVuSans-100"/>
     <use x="2426.595703" xlink:href="#DejaVuSans-32"/>
     <use x="2458.382812" xlink:href="#DejaVuSans-84"/>
     <use x="2516.341797" xlink:href="#DejaVuSans-105"/>
     <use x="2544.125" xlink:href="#DejaVuSans-109"/>
     <use x="2641.537109" xlink:href="#DejaVuSans-101"/>
     <use x="2703.060547" xlink:href="#DejaVuSans-58"/>
     <use x="2736.751953" xlink:href="#DejaVuSans-32"/>
     <use x="2768.539062" xlink:href="#DejaVuSans-48"/>
     <use x="2832.162109" xlink:href="#DejaVuSans-58"/>
     <use x="2865.853516" xlink:href="#DejaVuSans-49"/>
     <use x="2929.476562" xlink:href="#DejaVuSans-57"/>
     <use x="2993.099609" xlink:href="#DejaVuSans-58"/>
     <use x="3026.791016" xlink:href="#DejaVuSans-49"/>
     <use x="3090.414062" xlink:href="#DejaVuSans-50"/>
    </g>
   </g>
   <g id="legend_1">
    <g id="patch_7">
     <path d="M 1304.036719 296.3 
L 1407.9 296.3 
Q 1410.9 296.3 1410.9 293.3 
L 1410.9 272.782813 
Q 1410.9 269.782813 1407.9 269.782813 
L 1304.036719 269.782813 
Q 1301.036719 269.782813 1301.036719 272.782813 
L 1301.036719 293.3 
Q 1301.036719 296.3 1304.036719 296.3 
z
" style="fill:#ffffff;opacity:0.8;stroke:#cccccc;stroke-linejoin:miter;"/>
    </g>
    <g id="line2d_13">
     <path d="M 1307.036719 281.930469 
L 1337.036719 281.930469 
" style="fill:none;stroke:#1f77b4;stroke-linecap:square;stroke-width:1.5;"/>
    </g>
    <g id="line2d_14"/>
    <g id="text_15">
     <!-- Reward -->
     <g transform="translate(1349.036719 287.180469)scale(0.15 -0.15)">
      <use xlink:href="#DejaVuSans-82"/>
      <use x="64.982422" xlink:href="#DejaVuSans-101"/>
      <use x="126.505859" xlink:href="#DejaVuSans-119"/>
      <use x="208.292969" xlink:href="#DejaVuSans-97"/>
      <use x="269.572266" xlink:href="#DejaVuSans-114"/>
      <use x="308.935547" xlink:href="#DejaVuSans-100"/>
     </g>
    </g>
   </g>
  </g>
  <g id="axes_2">
   <g id="patch_8">
    <path d="M 87.329766 656.6 
L 1418.4 656.6 
L 1418.4 399.4 
L 87.329766 399.4 
z
" style="fill:#ffffff;"/>
   </g>
   <g id="matplotlib.axis_3">
    <g id="xtick_7">
     <g id="line2d_15">
      <g>
       <use style="stroke:#000000;stroke-width:0.8;" x="203.075003" xlink:href="#m2a4f0320f3" y="656.6"/>
      </g>
     </g>
     <g id="text_16">
      <!-- 1e+04 -->
      <g transform="translate(169.454691 678.796875)scale(0.2 -0.2)">
       <use xlink:href="#DejaVuSans-49"/>
       <use x="63.623047" xlink:href="#DejaVuSans-101"/>
       <use x="125.146484" xlink:href="#DejaVuSans-43"/>
       <use x="208.935547" xlink:href="#DejaVuSans-48"/>
       <use x="272.558594" xlink:href="#DejaVuSans-52"/>
      </g>
     </g>
    </g>
    <g id="xtick_8">
     <g id="line2d_16">
      <g>
       <use style="stroke:#000000;stroke-width:0.8;" x="318.820241" xlink:href="#m2a4f0320f3" y="656.6"/>
      </g>
     </g>
     <g id="text_17">
      <!-- 2e+04 -->
      <g transform="translate(285.199929 678.796875)scale(0.2 -0.2)">
       <use xlink:href="#DejaVuSans-50"/>
       <use x="63.623047" xlink:href="#DejaVuSans-101"/>
       <use x="125.146484" xlink:href="#DejaVuSans-43"/>
       <use x="208.935547" xlink:href="#DejaVuSans-48"/>
       <use x="272.558594" xlink:href="#DejaVuSans-52"/>
      </g>
     </g>
    </g>
    <g id="xtick_9">
     <g id="line2d_17">
      <g>
       <use style="stroke:#000000;stroke-width:0.8;" x="550.310717" xlink:href="#m2a4f0320f3" y="656.6"/>
      </g>
     </g>
     <g id="text_18">
      <!-- 4e+04 -->
      <g transform="translate(516.690404 678.796875)scale(0.2 -0.2)">
       <use xlink:href="#DejaVuSans-52"/>
       <use x="63.623047" xlink:href="#DejaVuSans-101"/>
       <use x="125.146484" xlink:href="#DejaVuSans-43"/>
       <use x="208.935547" xlink:href="#DejaVuSans-48"/>
       <use x="272.558594" xlink:href="#DejaVuSans-52"/>
      </g>
     </g>
    </g>
    <g id="xtick_10">
     <g id="line2d_18">
      <g>
       <use style="stroke:#000000;stroke-width:0.8;" x="781.801192" xlink:href="#m2a4f0320f3" y="656.6"/>
      </g>
     </g>
     <g id="text_19">
      <!-- 6e+04 -->
      <g transform="translate(748.18088 678.796875)scale(0.2 -0.2)">
       <use xlink:href="#DejaVuSans-54"/>
       <use x="63.623047" xlink:href="#DejaVuSans-101"/>
       <use x="125.146484" xlink:href="#DejaVuSans-43"/>
       <use x="208.935547" xlink:href="#DejaVuSans-48"/>
       <use x="272.558594" xlink:href="#DejaVuSans-52"/>
      </g>
     </g>
    </g>
    <g id="xtick_11">
     <g id="line2d_19">
      <g>
       <use style="stroke:#000000;stroke-width:0.8;" x="1013.291668" xlink:href="#m2a4f0320f3" y="656.6"/>
      </g>
     </g>
     <g id="text_20">
      <!-- 8e+04 -->
      <g transform="translate(979.671355 678.796875)scale(0.2 -0.2)">
       <use xlink:href="#DejaVuSans-56"/>
       <use x="63.623047" xlink:href="#DejaVuSans-101"/>
       <use x="125.146484" xlink:href="#DejaVuSans-43"/>
       <use x="208.935547" xlink:href="#DejaVuSans-48"/>
       <use x="272.558594" xlink:href="#DejaVuSans-52"/>
      </g>
     </g>
    </g>
    <g id="xtick_12">
     <g id="line2d_20">
      <g>
       <use style="stroke:#000000;stroke-width:0.8;" x="1244.782143" xlink:href="#m2a4f0320f3" y="656.6"/>
      </g>
     </g>
     <g id="text_21">
      <!-- 1e+05 -->
      <g transform="translate(1211.161831 678.796875)scale(0.2 -0.2)">
       <use xlink:href="#DejaVuSans-49"/>
       <use x="63.623047" xlink:href="#DejaVuSans-101"/>
       <use x="125.146484" xlink:href="#DejaVuSans-43"/>
       <use x="208.935547" xlink:href="#DejaVuSans-48"/>
       <use x="272.558594" xlink:href="#DejaVuSans-53"/>
      </g>
     </g>
    </g>
    <g id="text_22">
     <!-- Timestep -->
     <g transform="translate(706.766445 702.153125)scale(0.2 -0.2)">
      <use xlink:href="#DejaVuSans-84"/>
      <use x="57.958984" xlink:href="#DejaVuSans-105"/>
      <use x="85.742188" xlink:href="#DejaVuSans-109"/>
      <use x="183.154297" xlink:href="#DejaVuSans-101"/>
      <use x="244.677734" xlink:href="#DejaVuSans-115"/>
      <use x="296.777344" xlink:href="#DejaVuSans-116"/>
      <use x="335.986328" xlink:href="#DejaVuSans-101"/>
      <use x="397.509766" xlink:href="#DejaVuSans-112"/>
     </g>
    </g>
   </g>
   <g id="matplotlib.axis_4">
    <g id="ytick_6">
     <g id="line2d_21">
      <defs>
       <path d="M 0 0 
L -3.5 0 
" id="md9044abb30" style="stroke:#ff0000;stroke-width:0.8;"/>
      </defs>
      <g>
       <use style="fill:#ff0000;stroke:#ff0000;stroke-width:0.8;" x="87.329766" xlink:href="#md9044abb30" y="556.233435"/>
      </g>
     </g>
     <g id="text_23">
      <!-- $\mathdefault{10^{-2}}$ -->
      <defs>
       <path d="M 10.59375 35.5 
L 73.1875 35.5 
L 73.1875 27.203125 
L 10.59375 27.203125 
z
" id="DejaVuSans-8722"/>
      </defs>
      <g style="fill:#ff0000;" transform="translate(45.079766 561.932263)scale(0.15 -0.15)">
       <use transform="translate(0 0.765625)" xlink:href="#DejaVuSans-49"/>
       <use transform="translate(63.623047 0.765625)" xlink:href="#DejaVuSans-48"/>
       <use transform="translate(128.203125 39.046875)scale(0.7)" xlink:href="#DejaVuSans-8722"/>
       <use transform="translate(186.855469 39.046875)scale(0.7)" xlink:href="#DejaVuSans-50"/>
      </g>
     </g>
    </g>
    <g id="ytick_7">
     <g id="line2d_22">
      <g>
       <use style="fill:#ff0000;stroke:#ff0000;stroke-width:0.8;" x="87.329766" xlink:href="#md9044abb30" y="441.713536"/>
      </g>
     </g>
     <g id="text_24">
      <!-- $\mathdefault{10^{-1}}$ -->
      <g style="fill:#ff0000;" transform="translate(45.079766 447.412364)scale(0.15 -0.15)">
       <use transform="translate(0 0.684375)" xlink:href="#DejaVuSans-49"/>
       <use transform="translate(63.623047 0.684375)" xlink:href="#DejaVuSans-48"/>
       <use transform="translate(128.203125 38.965625)scale(0.7)" xlink:href="#DejaVuSans-8722"/>
       <use transform="translate(186.855469 38.965625)scale(0.7)" xlink:href="#DejaVuSans-49"/>
      </g>
     </g>
    </g>
    <g id="ytick_8">
     <g id="line2d_23">
      <defs>
       <path d="M 0 0 
L -2 0 
" id="m501d37109a" style="stroke:#000000;stroke-width:0.6;"/>
      </defs>
      <g>
       <use style="stroke:#000000;stroke-width:0.6;" x="87.329766" xlink:href="#m501d37109a" y="636.27941"/>
      </g>
     </g>
    </g>
    <g id="ytick_9">
     <g id="line2d_24">
      <g>
       <use style="stroke:#000000;stroke-width:0.6;" x="87.329766" xlink:href="#m501d37109a" y="616.113457"/>
      </g>
     </g>
    </g>
    <g id="ytick_10">
     <g id="line2d_25">
      <g>
       <use style="stroke:#000000;stroke-width:0.6;" x="87.329766" xlink:href="#m501d37109a" y="601.805485"/>
      </g>
     </g>
    </g>
    <g id="ytick_11">
     <g id="line2d_26">
      <g>
       <use style="stroke:#000000;stroke-width:0.6;" x="87.329766" xlink:href="#m501d37109a" y="590.70736"/>
      </g>
     </g>
    </g>
    <g id="ytick_12">
     <g id="line2d_27">
      <g>
       <use style="stroke:#000000;stroke-width:0.6;" x="87.329766" xlink:href="#m501d37109a" y="581.639532"/>
      </g>
     </g>
    </g>
    <g id="ytick_13">
     <g id="line2d_28">
      <g>
       <use style="stroke:#000000;stroke-width:0.6;" x="87.329766" xlink:href="#m501d37109a" y="573.972792"/>
      </g>
     </g>
    </g>
    <g id="ytick_14">
     <g id="line2d_29">
      <g>
       <use style="stroke:#000000;stroke-width:0.6;" x="87.329766" xlink:href="#m501d37109a" y="567.33156"/>
      </g>
     </g>
    </g>
    <g id="ytick_15">
     <g id="line2d_30">
      <g>
       <use style="stroke:#000000;stroke-width:0.6;" x="87.329766" xlink:href="#m501d37109a" y="561.473578"/>
      </g>
     </g>
    </g>
    <g id="ytick_16">
     <g id="line2d_31">
      <g>
       <use style="stroke:#000000;stroke-width:0.6;" x="87.329766" xlink:href="#m501d37109a" y="521.75951"/>
      </g>
     </g>
    </g>
    <g id="ytick_17">
     <g id="line2d_32">
      <g>
       <use style="stroke:#000000;stroke-width:0.6;" x="87.329766" xlink:href="#m501d37109a" y="501.593557"/>
      </g>
     </g>
    </g>
    <g id="ytick_18">
     <g id="line2d_33">
      <g>
       <use style="stroke:#000000;stroke-width:0.6;" x="87.329766" xlink:href="#m501d37109a" y="487.285585"/>
      </g>
     </g>
    </g>
    <g id="ytick_19">
     <g id="line2d_34">
      <g>
       <use style="stroke:#000000;stroke-width:0.6;" x="87.329766" xlink:href="#m501d37109a" y="476.18746"/>
      </g>
     </g>
    </g>
    <g id="ytick_20">
     <g id="line2d_35">
      <g>
       <use style="stroke:#000000;stroke-width:0.6;" x="87.329766" xlink:href="#m501d37109a" y="467.119632"/>
      </g>
     </g>
    </g>
    <g id="ytick_21">
     <g id="line2d_36">
      <g>
       <use style="stroke:#000000;stroke-width:0.6;" x="87.329766" xlink:href="#m501d37109a" y="459.452892"/>
      </g>
     </g>
    </g>
    <g id="ytick_22">
     <g id="line2d_37">
      <g>
       <use style="stroke:#000000;stroke-width:0.6;" x="87.329766" xlink:href="#m501d37109a" y="452.811661"/>
      </g>
     </g>
    </g>
    <g id="ytick_23">
     <g id="line2d_38">
      <g>
       <use style="stroke:#000000;stroke-width:0.6;" x="87.329766" xlink:href="#m501d37109a" y="446.953679"/>
      </g>
     </g>
    </g>
    <g id="ytick_24">
     <g id="line2d_39">
      <g>
       <use style="stroke:#000000;stroke-width:0.6;" x="87.329766" xlink:href="#m501d37109a" y="407.239611"/>
      </g>
     </g>
    </g>
    <g id="text_25">
     <!-- Avg .Temporal Difference -->
     <defs>
      <path d="M 30.609375 48.390625 
Q 23.390625 48.390625 19.1875 42.75 
Q 14.984375 37.109375 14.984375 27.296875 
Q 14.984375 17.484375 19.15625 11.84375 
Q 23.34375 6.203125 30.609375 6.203125 
Q 37.796875 6.203125 41.984375 11.859375 
Q 46.1875 17.53125 46.1875 27.296875 
Q 46.1875 37.015625 41.984375 42.703125 
Q 37.796875 48.390625 30.609375 48.390625 
z
M 30.609375 56 
Q 42.328125 56 49.015625 48.375 
Q 55.71875 40.765625 55.71875 27.296875 
Q 55.71875 13.875 49.015625 6.21875 
Q 42.328125 -1.421875 30.609375 -1.421875 
Q 18.84375 -1.421875 12.171875 6.21875 
Q 5.515625 13.875 5.515625 27.296875 
Q 5.515625 40.765625 12.171875 48.375 
Q 18.84375 56 30.609375 56 
z
" id="DejaVuSans-111"/>
      <path d="M 19.671875 64.796875 
L 19.671875 8.109375 
L 31.59375 8.109375 
Q 46.6875 8.109375 53.6875 14.9375 
Q 60.6875 21.78125 60.6875 36.53125 
Q 60.6875 51.171875 53.6875 57.984375 
Q 46.6875 64.796875 31.59375 64.796875 
z
M 9.8125 72.90625 
L 30.078125 72.90625 
Q 51.265625 72.90625 61.171875 64.09375 
Q 71.09375 55.28125 71.09375 36.53125 
Q 71.09375 17.671875 61.125 8.828125 
Q 51.171875 0 30.078125 0 
L 9.8125 0 
z
" id="DejaVuSans-68"/>
      <path d="M 37.109375 75.984375 
L 37.109375 68.5 
L 28.515625 68.5 
Q 23.6875 68.5 21.796875 66.546875 
Q 19.921875 64.59375 19.921875 59.515625 
L 19.921875 54.6875 
L 34.71875 54.6875 
L 34.71875 47.703125 
L 19.921875 47.703125 
L 19.921875 0 
L 10.890625 0 
L 10.890625 47.703125 
L 2.296875 47.703125 
L 2.296875 54.6875 
L 10.890625 54.6875 
L 10.890625 58.5 
Q 10.890625 67.625 15.140625 71.796875 
Q 19.390625 75.984375 28.609375 75.984375 
z
" id="DejaVuSans-102"/>
      <path d="M 48.78125 52.59375 
L 48.78125 44.1875 
Q 44.96875 46.296875 41.140625 47.34375 
Q 37.3125 48.390625 33.40625 48.390625 
Q 24.65625 48.390625 19.8125 42.84375 
Q 14.984375 37.3125 14.984375 27.296875 
Q 14.984375 17.28125 19.8125 11.734375 
Q 24.65625 6.203125 33.40625 6.203125 
Q 37.3125 6.203125 41.140625 7.25 
Q 44.96875 8.296875 48.78125 10.40625 
L 48.78125 2.09375 
Q 45.015625 0.34375 40.984375 -0.53125 
Q 36.96875 -1.421875 32.421875 -1.421875 
Q 20.0625 -1.421875 12.78125 6.34375 
Q 5.515625 14.109375 5.515625 27.296875 
Q 5.515625 40.671875 12.859375 48.328125 
Q 20.21875 56 33.015625 56 
Q 37.15625 56 41.109375 55.140625 
Q 45.0625 54.296875 48.78125 52.59375 
z
" id="DejaVuSans-99"/>
     </defs>
     <g style="fill:#ff0000;" transform="translate(36.920391 653.540625)rotate(-90)scale(0.2 -0.2)">
      <use xlink:href="#DejaVuSans-65"/>
      <use x="62.533203" xlink:href="#DejaVuSans-118"/>
      <use x="121.712891" xlink:href="#DejaVuSans-103"/>
      <use x="185.189453" xlink:href="#DejaVuSans-32"/>
      <use x="216.976562" xlink:href="#DejaVuSans-46"/>
      <use x="248.763672" xlink:href="#DejaVuSans-84"/>
      <use x="292.847656" xlink:href="#DejaVuSans-101"/>
      <use x="354.371094" xlink:href="#DejaVuSans-109"/>
      <use x="451.783203" xlink:href="#DejaVuSans-112"/>
      <use x="515.259766" xlink:href="#DejaVuSans-111"/>
      <use x="576.441406" xlink:href="#DejaVuSans-114"/>
      <use x="617.554688" xlink:href="#DejaVuSans-97"/>
      <use x="678.833984" xlink:href="#DejaVuSans-108"/>
      <use x="706.617188" xlink:href="#DejaVuSans-32"/>
      <use x="738.404297" xlink:href="#DejaVuSans-68"/>
      <use x="815.40625" xlink:href="#DejaVuSans-105"/>
      <use x="843.189453" xlink:href="#DejaVuSans-102"/>
      <use x="878.394531" xlink:href="#DejaVuSans-102"/>
      <use x="913.599609" xlink:href="#DejaVuSans-101"/>
      <use x="975.123047" xlink:href="#DejaVuSans-114"/>
      <use x="1013.986328" xlink:href="#DejaVuSans-101"/>
      <use x="1075.509766" xlink:href="#DejaVuSans-110"/>
      <use x="1138.888672" xlink:href="#DejaVuSans-99"/>
      <use x="1193.869141" xlink:href="#DejaVuSans-101"/>
     </g>
    </g>
   </g>
   <g id="line2d_40">
    <path clip-path="url(#pcd65d287df)" d="M 87.329766 472.322152 
L 88.487218 452.56228 
L 89.64467 438.458599 
L 90.802123 412.88758 
L 91.959575 411.090909 
L 93.117028 417.29638 
L 94.27448 418.771006 
L 95.431932 415.822831 
L 96.589385 417.731003 
L 97.746837 417.113605 
L 98.904289 422.004716 
L 100.061742 438.437693 
L 101.219194 456.526503 
L 102.376647 460.592009 
L 103.534099 458.217958 
L 105.849004 462.583216 
L 107.006456 461.402331 
L 108.163908 464.755662 
L 110.478813 469.491822 
L 111.636266 466.947225 
L 112.793718 467.352147 
L 113.95117 472.638354 
L 115.108623 473.499951 
L 116.266075 474.591101 
L 117.423527 474.208638 
L 119.738432 480.218035 
L 120.895885 478.718622 
L 122.053337 481.648362 
L 123.210789 474.911722 
L 124.368242 475.741981 
L 125.525694 476.117411 
L 127.840599 483.189094 
L 128.998051 483.62859 
L 130.155504 481.88876 
L 131.312956 485.281758 
L 132.470408 487.299511 
L 133.627861 482.133234 
L 134.785313 473.110002 
L 135.942765 471.620061 
L 137.100218 472.476204 
L 138.25767 475.166046 
L 139.415123 476.03726 
L 140.572575 478.755566 
L 141.730027 483.292712 
L 142.88748 482.515904 
L 144.044932 482.795865 
L 145.202385 482.075829 
L 146.359837 478.173561 
L 147.517289 472.613222 
L 148.674742 476.043835 
L 149.832194 477.280711 
L 150.989646 485.382941 
L 152.147099 484.23735 
L 153.304551 487.013866 
L 154.462004 487.794191 
L 155.619456 488.298111 
L 156.776908 487.635637 
L 159.091813 481.17982 
L 160.249265 481.241016 
L 161.406718 481.886865 
L 162.56417 487.031412 
L 163.721623 489.69746 
L 164.879075 489.472406 
L 166.036527 487.482471 
L 168.351432 487.343072 
L 170.666337 482.148732 
L 171.823789 482.929246 
L 172.981242 482.807908 
L 174.138694 485.186488 
L 175.296146 487.260014 
L 176.453599 485.730344 
L 177.611051 486.354607 
L 178.768503 486.152653 
L 179.925956 483.840507 
L 181.083408 484.921672 
L 182.240861 486.630966 
L 183.398313 490.28897 
L 184.555765 493.220587 
L 185.713218 492.860498 
L 186.87067 493.668 
L 188.028122 492.019553 
L 189.185575 494.342274 
L 190.343027 495.71824 
L 191.50048 493.365287 
L 193.815384 490.486209 
L 196.130289 490.512685 
L 197.287742 494.360454 
L 198.445194 492.340563 
L 199.602646 491.064733 
L 201.917551 492.27951 
L 203.075003 494.401169 
L 204.232456 493.689637 
L 205.389908 489.538693 
L 206.547361 490.553401 
L 207.704813 490.369897 
L 208.862265 493.570808 
L 210.019718 489.125747 
L 211.17717 492.999033 
L 212.334622 494.011101 
L 213.492075 496.407514 
L 214.649527 493.2577 
L 215.80698 488.282232 
L 216.964432 490.130709 
L 218.121884 485.047671 
L 219.279337 486.441737 
L 220.436789 487.656212 
L 221.594241 490.108936 
L 222.751694 490.161719 
L 223.909146 492.486864 
L 225.066599 490.837416 
L 226.224051 494.095359 
L 227.381503 490.520899 
L 228.538956 494.12739 
L 229.696408 489.503275 
L 230.85386 490.853192 
L 232.011313 487.110213 
L 233.168765 491.855562 
L 234.326218 491.795916 
L 235.48367 480.428113 
L 236.641122 479.789155 
L 237.798575 481.157664 
L 238.956027 482.878945 
L 240.113479 474.24579 
L 241.270932 477.641396 
L 242.428384 479.226251 
L 243.585837 476.408211 
L 244.743289 479.893822 
L 245.900741 477.531554 
L 247.058194 481.874764 
L 248.215646 476.888892 
L 249.373099 475.210244 
L 250.530551 478.89905 
L 251.688003 478.202007 
L 252.845456 475.161803 
L 254.002908 475.950934 
L 255.16036 471.929607 
L 256.317813 476.299812 
L 257.475265 475.756174 
L 258.632718 474.501903 
L 259.79017 479.24776 
L 260.947622 477.198586 
L 262.105075 476.700535 
L 263.262527 473.137357 
L 264.419979 475.564938 
L 265.577432 477.330021 
L 266.734884 476.162226 
L 267.892337 479.185776 
L 269.049789 474.737602 
L 270.207241 475.350601 
L 271.364694 478.245154 
L 272.522146 477.906466 
L 273.679598 476.941206 
L 274.837051 474.555976 
L 275.994503 473.023827 
L 277.151956 472.535675 
L 278.309408 475.864875 
L 279.46686 476.521993 
L 280.624313 474.235061 
L 281.781765 475.334638 
L 282.939217 476.040734 
L 284.09667 477.754041 
L 285.254122 477.846472 
L 286.411575 473.764461 
L 287.569027 473.012329 
L 288.726479 473.481327 
L 289.883932 474.100174 
L 291.041384 472.476116 
L 292.198836 475.613352 
L 293.356289 477.756277 
L 295.671194 476.1561 
L 296.828646 476.684059 
L 297.986098 477.030466 
L 299.143551 476.627556 
L 300.301003 476.94552 
L 301.458456 475.977335 
L 302.615908 478.323153 
L 303.77336 478.809302 
L 304.930813 476.951009 
L 306.088265 478.286655 
L 307.245717 479.16661 
L 308.40317 476.584585 
L 309.560622 473.561702 
L 310.718075 474.136394 
L 311.875527 477.276246 
L 313.032979 481.273606 
L 314.190432 483.237719 
L 315.347884 482.204536 
L 316.505336 482.794119 
L 317.662789 480.262918 
L 318.820241 481.505136 
L 319.977694 483.3167 
L 321.135146 481.870852 
L 322.292598 482.190027 
L 323.450051 485.966891 
L 324.607503 489.110632 
L 325.764955 484.494326 
L 326.922408 485.215595 
L 328.07986 485.01221 
L 329.237313 487.284389 
L 330.394765 482.201852 
L 331.552217 488.160655 
L 332.70967 487.937003 
L 333.867122 483.46163 
L 335.024574 485.586111 
L 336.182027 489.238381 
L 337.339479 485.320844 
L 338.496932 488.204687 
L 339.654384 487.850278 
L 340.811836 488.290699 
L 341.969289 491.954112 
L 343.126741 494.319184 
L 344.284193 487.642562 
L 345.441646 485.670345 
L 346.599098 485.741304 
L 347.756551 488.89108 
L 348.914003 491.091109 
L 350.071455 490.599262 
L 351.228908 486.567638 
L 352.38636 492.812785 
L 353.543813 492.346042 
L 354.701265 488.404178 
L 355.858717 488.630747 
L 357.01617 489.275139 
L 358.173622 491.699523 
L 359.331074 483.053736 
L 360.488527 491.172618 
L 361.645979 490.983639 
L 362.803432 489.831063 
L 363.960884 489.72576 
L 365.118336 489.293037 
L 366.275789 489.44036 
L 367.433241 495.512271 
L 368.590693 489.513261 
L 369.748146 494.159722 
L 370.905598 492.46708 
L 372.063051 489.407539 
L 373.220503 498.193148 
L 374.377955 494.281489 
L 375.535408 491.048767 
L 376.69286 493.553436 
L 377.850312 492.706928 
L 379.007765 496.272695 
L 380.165217 491.290832 
L 381.32267 490.179316 
L 382.480122 490.793333 
L 383.637574 494.74752 
L 384.795027 494.124837 
L 385.952479 497.413528 
L 387.109931 498.184187 
L 388.267384 495.361662 
L 389.424836 497.596211 
L 390.582289 498.36495 
L 391.739741 496.191491 
L 392.897193 495.158905 
L 394.054646 492.601127 
L 395.212098 493.424403 
L 396.36955 493.940151 
L 397.527003 497.48546 
L 398.684455 495.056611 
L 399.841908 489.753989 
L 400.99936 489.36309 
L 402.156812 487.957009 
L 403.314265 489.569989 
L 404.471717 487.470948 
L 405.629169 488.72458 
L 406.786622 487.688138 
L 407.944074 486.915165 
L 409.101527 492.507953 
L 410.258979 494.494573 
L 411.416431 494.787062 
L 412.573884 495.676638 
L 413.731336 495.073399 
L 414.888789 494.158389 
L 416.046241 494.676009 
L 417.203693 493.909439 
L 418.361146 493.7833 
L 419.518598 490.121196 
L 420.67605 492.915225 
L 421.833503 498.154306 
L 422.990955 496.807227 
L 424.148408 494.233595 
L 425.30586 492.599225 
L 426.463312 491.578827 
L 427.620765 497.904076 
L 428.778217 499.748818 
L 429.935669 498.227538 
L 431.093122 498.571464 
L 432.250574 495.117997 
L 433.408027 495.110706 
L 434.565479 497.458461 
L 435.722931 496.279756 
L 436.880384 491.5157 
L 439.195288 491.7998 
L 440.352741 493.444356 
L 441.510193 488.764838 
L 442.667646 494.029687 
L 443.825098 492.535768 
L 444.98255 493.95797 
L 446.140003 493.211063 
L 447.297455 490.068612 
L 448.454907 492.773968 
L 449.61236 490.834361 
L 450.769812 491.791333 
L 451.927265 493.068018 
L 453.084717 492.712634 
L 454.242169 496.73124 
L 455.399622 491.639627 
L 456.557074 495.93793 
L 457.714526 488.40384 
L 458.871979 490.327411 
L 460.029431 498.200808 
L 461.186884 498.680467 
L 462.344336 497.863801 
L 463.501788 498.013592 
L 464.659241 496.421552 
L 465.816693 499.776991 
L 466.974146 499.539178 
L 468.131598 497.320473 
L 469.28905 496.920688 
L 470.446503 503.168003 
L 471.603955 497.039025 
L 472.761407 502.932029 
L 475.076312 496.003944 
L 476.233765 499.310066 
L 477.391217 495.132678 
L 478.548669 501.470505 
L 479.706122 504.857962 
L 480.863574 502.495932 
L 482.021026 496.819104 
L 483.178479 498.028204 
L 484.335931 499.853951 
L 485.493384 500.968079 
L 486.650836 496.685696 
L 487.808288 504.351188 
L 488.965741 502.459388 
L 490.123193 498.21548 
L 491.280645 499.265438 
L 492.438098 505.736312 
L 493.59555 503.104494 
L 494.753003 504.25486 
L 495.910455 499.827381 
L 497.067907 505.938809 
L 498.22536 506.376464 
L 500.540264 503.612705 
L 501.697717 495.541407 
L 502.855169 494.690025 
L 504.012622 498.458823 
L 505.170074 495.059341 
L 506.327526 500.7339 
L 507.484979 501.621691 
L 508.642431 502.775693 
L 509.799883 504.41261 
L 513.272241 501.23433 
L 514.429693 501.879279 
L 515.587145 504.245888 
L 516.744598 504.196942 
L 517.90205 503.665516 
L 519.059503 507.144438 
L 520.216955 508.605315 
L 521.374407 505.963028 
L 522.53186 503.602116 
L 523.689312 505.119012 
L 524.846764 506.14869 
L 526.004217 505.956468 
L 527.161669 507.314953 
L 528.319122 510.207524 
L 529.476574 507.236524 
L 530.634026 503.422396 
L 531.791479 502.584912 
L 532.948931 506.559864 
L 534.106383 507.923909 
L 535.263836 506.559439 
L 536.421288 505.714648 
L 537.578741 505.499514 
L 538.736193 505.889526 
L 539.893645 508.2081 
L 541.051098 507.784116 
L 542.20855 509.968299 
L 543.366002 513.422503 
L 544.523455 513.334702 
L 545.680907 509.080543 
L 546.83836 508.261753 
L 547.995812 509.134355 
L 549.153264 514.56342 
L 550.310717 511.740143 
L 551.468169 504.20012 
L 552.625621 505.573068 
L 553.783074 507.713533 
L 554.940526 507.417288 
L 556.097979 507.509079 
L 557.255431 508.126579 
L 558.412883 507.132586 
L 559.570336 506.649956 
L 560.727788 507.069807 
L 561.88524 504.70082 
L 563.042693 509.316678 
L 564.200145 509.976594 
L 565.357598 509.735363 
L 567.672502 515.52551 
L 568.829955 512.412726 
L 569.987407 511.298486 
L 571.14486 515.18671 
L 572.302312 514.178817 
L 574.617217 513.492217 
L 575.774669 515.222688 
L 576.932121 505.574547 
L 579.247026 513.211909 
L 580.404479 512.539212 
L 581.561931 513.018782 
L 582.719383 511.807103 
L 583.876836 513.6084 
L 585.034288 512.438676 
L 586.19174 510.171579 
L 587.349193 512.435098 
L 588.506645 512.129446 
L 590.82155 507.719781 
L 591.979002 513.549795 
L 593.136455 512.813982 
L 594.293907 512.346609 
L 595.451359 507.822208 
L 596.608812 514.497067 
L 597.766264 511.828676 
L 598.923717 513.025232 
L 600.081169 511.427135 
L 601.238621 517.880986 
L 602.396074 519.734166 
L 603.553526 512.325835 
L 604.710978 517.068625 
L 607.025883 517.305175 
L 608.183336 514.811438 
L 609.340788 517.008143 
L 610.49824 515.789097 
L 611.655693 522.144956 
L 612.813145 524.824614 
L 613.970597 520.589011 
L 615.12805 522.742327 
L 616.285502 518.921645 
L 617.442955 517.827291 
L 618.600407 517.380386 
L 619.757859 514.901098 
L 620.915312 519.710799 
L 623.230217 519.901326 
L 624.387669 522.210541 
L 625.545121 521.31527 
L 626.702574 519.370751 
L 627.860026 522.185068 
L 629.017478 521.405616 
L 630.174931 522.454594 
L 631.332383 526.155684 
L 632.489836 523.807872 
L 634.80474 521.041954 
L 635.962193 523.487439 
L 637.119645 524.707614 
L 638.277097 521.865178 
L 639.43455 524.017824 
L 640.592002 521.65841 
L 641.749455 521.31383 
L 642.906907 523.903365 
L 644.064359 520.514864 
L 645.221812 522.04099 
L 647.536716 519.98882 
L 648.694169 518.413794 
L 649.851621 518.94655 
L 651.009074 521.33436 
L 652.166526 520.857294 
L 654.481431 520.361051 
L 655.638883 522.633405 
L 656.796335 520.011237 
L 657.953788 523.819629 
L 659.11124 520.40281 
L 660.268693 518.072318 
L 661.426145 520.956933 
L 662.583597 524.811453 
L 663.74105 523.471331 
L 664.898502 521.35433 
L 666.055954 522.562185 
L 667.213407 527.74119 
L 668.370859 521.458839 
L 669.528312 527.381033 
L 670.685764 528.092152 
L 671.843216 530.503818 
L 673.000669 528.155435 
L 674.158121 534.366055 
L 675.315574 527.934194 
L 676.473026 534.024651 
L 677.630478 541.138263 
L 678.787931 539.488815 
L 679.945383 543.538501 
L 681.102835 543.069325 
L 682.260288 549.212285 
L 683.41774 557.008847 
L 684.575193 555.787366 
L 685.732645 562.103212 
L 686.890097 559.482318 
L 688.04755 559.338371 
L 689.205002 560.304503 
L 690.362454 568.716999 
L 691.519907 572.893199 
L 692.677359 574.310153 
L 694.992264 571.474136 
L 696.149716 570.538759 
L 697.307169 574.950001 
L 698.464621 574.613948 
L 699.622073 578.765313 
L 700.779526 575.559376 
L 701.936978 578.587435 
L 703.094431 574.00441 
L 704.251883 580.043099 
L 705.409335 578.656288 
L 706.566788 573.880672 
L 707.72424 578.27365 
L 708.881692 572.079296 
L 710.039145 574.842024 
L 711.196597 573.596158 
L 712.35405 576.731697 
L 713.511502 573.142266 
L 714.668954 574.600853 
L 715.826407 573.141559 
L 716.983859 580.001375 
L 718.141311 581.605486 
L 719.298764 589.080419 
L 720.456216 592.247495 
L 721.613669 592.196163 
L 722.771121 588.979532 
L 723.928573 587.883827 
L 725.086026 585.279282 
L 726.243478 585.987501 
L 727.400931 584.952706 
L 728.558383 587.79923 
L 729.715835 586.691846 
L 730.873288 586.290077 
L 732.03074 586.248667 
L 733.188192 586.51125 
L 734.345645 585.635711 
L 735.503097 584.489965 
L 736.66055 584.840534 
L 737.818002 587.923951 
L 738.975454 587.266284 
L 740.132907 585.727209 
L 741.290359 585.563954 
L 742.447811 585.808112 
L 743.605264 586.297805 
L 744.762716 583.449256 
L 745.920169 584.347737 
L 747.077621 585.571583 
L 748.235073 587.003571 
L 749.392526 589.185064 
L 750.549978 587.648395 
L 751.70743 590.25626 
L 752.864883 590.158785 
L 754.022335 588.597026 
L 755.179788 586.332417 
L 756.33724 584.565504 
L 757.494692 586.933731 
L 759.809597 589.063925 
L 760.967049 587.392409 
L 762.124502 587.15926 
L 763.281954 587.390849 
L 764.439407 587.241039 
L 765.596859 587.288683 
L 766.754311 585.78494 
L 767.911764 586.799194 
L 769.069216 588.623934 
L 770.226668 586.983754 
L 771.384121 589.544534 
L 772.541573 590.752037 
L 773.699026 588.055774 
L 774.856478 589.766884 
L 776.01393 588.969522 
L 777.171383 592.375202 
L 778.328835 592.162492 
L 780.64374 591.294823 
L 781.801192 589.438925 
L 782.958645 589.196856 
L 784.116097 590.132052 
L 785.273549 588.653635 
L 786.431002 590.187831 
L 787.588454 589.276601 
L 788.745907 590.441547 
L 789.903359 590.775379 
L 791.060811 592.292352 
L 792.218264 587.35006 
L 793.375716 592.086595 
L 794.533168 594.419265 
L 795.690621 593.788489 
L 796.848073 592.236846 
L 798.005526 593.243276 
L 799.162978 593.811735 
L 800.32043 591.150457 
L 801.477883 594.462708 
L 802.635335 593.33646 
L 803.792787 590.897274 
L 804.95024 595.198398 
L 806.107692 594.172392 
L 807.265145 593.768443 
L 808.422597 594.791644 
L 809.580049 596.03037 
L 810.737502 594.890048 
L 811.894954 600.642652 
L 813.052406 593.59825 
L 814.209859 597.45617 
L 815.367311 597.917984 
L 816.524764 599.156882 
L 817.682216 592.971266 
L 818.839668 593.700149 
L 819.997121 599.013348 
L 821.154573 593.873612 
L 822.312025 596.149211 
L 824.62693 598.662743 
L 825.784383 601.564644 
L 826.941835 601.014593 
L 828.099287 598.162114 
L 829.25674 596.487836 
L 830.414192 598.81577 
L 831.571644 600.660468 
L 832.729097 600.603131 
L 833.886549 599.637659 
L 835.044002 600.15932 
L 836.201454 597.60937 
L 837.358906 598.230936 
L 839.673811 600.005378 
L 840.831264 600.390083 
L 841.988716 599.785055 
L 843.146168 598.613592 
L 844.303621 597.267606 
L 845.461073 600.332708 
L 846.618525 598.470701 
L 847.775978 595.153416 
L 848.93343 596.819035 
L 850.090883 597.910606 
L 851.248335 598.30769 
L 852.405787 597.933482 
L 853.56324 599.005177 
L 854.720692 598.605931 
L 855.878144 600.904674 
L 857.035597 600.785033 
L 858.193049 601.650329 
L 859.350502 601.425091 
L 861.665406 601.56192 
L 862.822859 601.096599 
L 863.980311 599.62818 
L 865.137763 600.2006 
L 866.295216 599.686034 
L 867.452668 597.971466 
L 868.610121 597.964845 
L 869.767573 598.169392 
L 870.925025 600.231902 
L 872.082478 600.737062 
L 873.23993 598.875104 
L 874.397382 600.638561 
L 875.554835 601.701446 
L 876.712287 601.535167 
L 877.86974 603.952387 
L 879.027192 602.428514 
L 880.184644 602.285068 
L 881.342097 604.545949 
L 882.499549 603.229652 
L 883.657001 604.450505 
L 884.814454 604.358376 
L 885.971906 602.387755 
L 887.129359 602.422949 
L 888.286811 603.646148 
L 889.444263 603.812767 
L 890.601716 602.398753 
L 891.759168 600.389543 
L 892.916621 602.053765 
L 894.074073 600.668753 
L 895.231525 603.000057 
L 897.54643 600.521286 
L 898.703882 602.905298 
L 901.018787 600.907323 
L 902.17624 600.486994 
L 903.333692 601.989146 
L 904.491144 602.65666 
L 905.648597 601.320643 
L 906.806049 599.796857 
L 907.963501 599.691862 
L 909.120954 601.402561 
L 910.278406 600.110038 
L 911.435859 601.032357 
L 912.593311 604.444588 
L 913.750763 603.460222 
L 914.908216 602.090662 
L 916.065668 603.248066 
L 917.22312 603.30588 
L 918.380573 602.786084 
L 919.538025 604.574639 
L 920.695478 606.893853 
L 921.85293 603.584795 
L 923.010382 605.547202 
L 924.167835 607.129358 
L 925.325287 602.77083 
L 926.482739 601.31821 
L 927.640192 605.640601 
L 928.797644 603.552307 
L 929.955097 602.245307 
L 931.112549 600.674057 
L 932.270001 605.016299 
L 933.427454 603.016714 
L 934.584906 601.771643 
L 935.742358 607.050076 
L 936.899811 603.552769 
L 938.057263 603.865158 
L 939.214716 601.365476 
L 940.372168 604.590575 
L 941.52962 604.618986 
L 942.687073 603.791168 
L 943.844525 605.471954 
L 945.001978 605.114873 
L 946.15943 605.672027 
L 947.316882 604.141227 
L 948.474335 603.521548 
L 949.631787 606.933329 
L 950.789239 605.093941 
L 951.946692 606.552602 
L 953.104144 602.841488 
L 954.261597 604.249623 
L 955.419049 605.371383 
L 956.576501 606.976317 
L 957.733954 604.929098 
L 958.891406 605.044451 
L 960.048858 605.282942 
L 961.206311 606.267283 
L 962.363763 608.538654 
L 963.521216 607.860635 
L 964.678668 608.197494 
L 965.83612 607.552601 
L 966.993573 608.812904 
L 968.151025 608.240108 
L 969.308477 605.364883 
L 970.46593 605.974266 
L 971.623382 608.37766 
L 972.780835 606.820706 
L 973.938287 606.920975 
L 975.095739 606.411898 
L 976.253192 606.186276 
L 977.410644 608.498955 
L 979.725549 608.681839 
L 980.883001 606.426643 
L 982.040454 605.066234 
L 983.197906 607.310752 
L 984.355358 608.134972 
L 985.512811 610.089535 
L 986.670263 609.789351 
L 987.827715 607.129365 
L 988.985168 608.799066 
L 990.14262 608.481038 
L 991.300073 607.962917 
L 992.457525 608.36905 
L 993.614977 606.741655 
L 994.77243 606.380246 
L 995.929882 607.935198 
L 997.087335 610.917314 
L 1000.559692 611.163599 
L 1001.717144 610.619862 
L 1002.874596 609.904417 
L 1004.032049 611.857484 
L 1005.189501 610.094089 
L 1006.346954 607.529426 
L 1007.504406 609.86415 
L 1008.661858 610.512423 
L 1009.819311 611.854601 
L 1010.976763 611.570567 
L 1012.134215 610.101111 
L 1013.291668 608.990887 
L 1014.44912 608.792072 
L 1015.606573 609.749302 
L 1016.764025 609.509003 
L 1017.921477 611.544669 
L 1019.07893 609.575592 
L 1020.236382 610.77347 
L 1021.393834 609.978809 
L 1022.551287 611.77264 
L 1023.708739 611.312756 
L 1024.866192 613.650614 
L 1026.023644 613.965816 
L 1027.181096 613.938296 
L 1028.338549 608.611192 
L 1029.496001 611.615669 
L 1030.653453 613.63026 
L 1031.810906 612.996585 
L 1032.968358 611.499618 
L 1034.125811 612.995788 
L 1035.283263 613.276856 
L 1036.440715 613.139935 
L 1037.598168 615.302365 
L 1038.75562 611.676114 
L 1039.913072 615.75101 
L 1041.070525 612.706887 
L 1042.227977 615.796501 
L 1043.38543 613.678644 
L 1044.542882 615.601604 
L 1045.700334 615.180069 
L 1046.857787 616.638063 
L 1048.015239 616.652857 
L 1049.172692 615.479569 
L 1050.330144 613.678344 
L 1051.487596 614.652745 
L 1052.645049 615.372251 
L 1053.802501 613.589217 
L 1054.959953 615.671756 
L 1056.117406 615.94275 
L 1057.274858 612.607671 
L 1058.432311 612.571326 
L 1059.589763 612.284545 
L 1060.747215 616.916658 
L 1061.904668 616.66919 
L 1063.06212 614.513724 
L 1064.219572 615.089519 
L 1065.377025 611.178548 
L 1066.534477 612.779644 
L 1067.69193 615.041196 
L 1068.849382 615.331878 
L 1070.006834 615.234611 
L 1071.164287 612.562104 
L 1072.321739 613.74312 
L 1073.479191 617.070606 
L 1074.636644 614.797588 
L 1075.794096 616.919709 
L 1076.951549 618.43898 
L 1078.109001 614.822056 
L 1079.266453 616.442393 
L 1080.423906 617.522697 
L 1081.581358 617.273513 
L 1082.73881 618.44417 
L 1083.896263 616.216172 
L 1085.053715 616.06435 
L 1086.211168 617.93514 
L 1087.36862 617.509321 
L 1088.526072 616.498172 
L 1089.683525 617.533806 
L 1090.840977 619.886504 
L 1091.998429 620.025684 
L 1093.155882 619.736186 
L 1094.313334 618.545769 
L 1095.470787 618.157116 
L 1096.628239 618.903494 
L 1097.785691 618.085915 
L 1098.943144 618.004059 
L 1100.100596 617.164574 
L 1101.258049 617.245644 
L 1102.415501 617.839352 
L 1103.572953 617.211238 
L 1104.730406 616.831067 
L 1105.887858 618.344099 
L 1107.04531 617.601196 
L 1108.202763 617.42072 
L 1109.360215 618.466458 
L 1110.517668 618.608067 
L 1111.67512 618.221025 
L 1112.832572 617.655116 
L 1113.990025 617.751528 
L 1115.147477 620.573853 
L 1116.304929 619.240275 
L 1117.462382 619.942344 
L 1118.619834 619.480714 
L 1119.777287 619.176927 
L 1120.934739 618.602172 
L 1122.092191 619.242054 
L 1123.249644 618.544262 
L 1124.407096 618.837785 
L 1125.564548 615.509004 
L 1126.722001 616.314955 
L 1127.879453 619.084494 
L 1129.036906 616.480018 
L 1130.194358 620.184916 
L 1131.35181 621.393298 
L 1132.509263 621.28449 
L 1133.666715 623.192786 
L 1134.824167 628.612349 
L 1135.98162 630.255769 
L 1137.139072 629.307335 
L 1138.296525 629.881571 
L 1139.453977 631.307824 
L 1140.611429 631.38718 
L 1141.768882 630.49596 
L 1142.926334 628.674546 
L 1144.083786 633.377725 
L 1145.241239 630.547099 
L 1146.398691 631.156342 
L 1147.556144 628.39648 
L 1148.713596 631.429266 
L 1149.871048 633.431882 
L 1151.028501 626.045536 
L 1152.185953 627.35459 
L 1153.343406 629.842209 
L 1154.500858 631.241226 
L 1155.65831 633.716045 
L 1156.815763 626.946655 
L 1157.973215 628.953121 
L 1159.130667 629.134824 
L 1160.28812 631.541622 
L 1161.445572 633.068658 
L 1162.603025 630.8688 
L 1163.760477 630.940317 
L 1164.917929 631.72075 
L 1166.075382 627.300444 
L 1167.232834 628.335753 
L 1168.390286 627.353096 
L 1169.547739 626.666793 
L 1170.705191 630.717895 
L 1171.862644 628.49823 
L 1173.020096 631.352211 
L 1174.177548 631.598854 
L 1175.335001 631.402498 
L 1176.492453 632.196409 
L 1177.649905 630.69888 
L 1178.807358 632.487965 
L 1179.96481 633.882272 
L 1181.122263 632.534867 
L 1182.279715 634.394201 
L 1183.437167 635.457375 
L 1184.59462 634.282576 
L 1185.752072 632.261791 
L 1186.909524 631.780819 
L 1188.066977 633.251719 
L 1189.224429 632.692397 
L 1190.381882 632.913255 
L 1191.539334 636.73102 
L 1192.696786 638.249736 
L 1193.854239 638.484787 
L 1195.011691 642.158214 
L 1196.169143 640.877648 
L 1197.326596 640.56273 
L 1198.484048 639.425713 
L 1199.641501 640.969946 
L 1200.798953 642.017731 
L 1201.956405 639.694468 
L 1203.113858 637.622601 
L 1204.27131 639.236411 
L 1205.428763 640.348351 
L 1206.586215 640.190411 
L 1207.743667 641.338341 
L 1208.90112 640.341169 
L 1210.058572 639.963939 
L 1211.216024 639.413737 
L 1212.373477 640.904115 
L 1213.530929 640.194494 
L 1214.688382 638.380485 
L 1215.845834 640.058821 
L 1217.003286 637.960211 
L 1218.160739 636.487884 
L 1219.318191 639.008586 
L 1220.475643 640.528434 
L 1222.790548 642.11723 
L 1225.105453 640.960672 
L 1226.262905 642.92091 
L 1227.420358 640.714907 
L 1228.57781 639.67954 
L 1229.735262 641.599763 
L 1230.892715 640.526807 
L 1232.050167 641.237414 
L 1233.20762 642.387104 
L 1234.365072 644.625363 
L 1235.522524 643.278381 
L 1236.679977 644.909091 
L 1237.837429 643.115331 
L 1238.994881 641.585302 
L 1240.152334 643.309341 
L 1241.309786 642.996316 
L 1243.624691 643.386245 
L 1243.624691 643.386245 
" style="fill:none;stroke:#ff0000;stroke-linecap:square;stroke-width:1.5;"/>
   </g>
   <g id="patch_9">
    <path d="M 87.329766 656.6 
L 87.329766 399.4 
" style="fill:none;stroke:#000000;stroke-linecap:square;stroke-linejoin:miter;stroke-width:0.8;"/>
   </g>
   <g id="patch_10">
    <path d="M 1418.4 656.6 
L 1418.4 399.4 
" style="fill:none;stroke:#000000;stroke-linecap:square;stroke-linejoin:miter;stroke-width:0.8;"/>
   </g>
   <g id="patch_11">
    <path d="M 87.329766 656.6 
L 1418.4 656.6 
" style="fill:none;stroke:#000000;stroke-linecap:square;stroke-linejoin:miter;stroke-width:0.8;"/>
   </g>
   <g id="patch_12">
    <path d="M 87.329766 399.4 
L 1418.4 399.4 
" style="fill:none;stroke:#000000;stroke-linecap:square;stroke-linejoin:miter;stroke-width:0.8;"/>
   </g>
   <g id="text_26">
    <!-- Loss vs Timestep -->
    <g transform="translate(650.244258 393.4)scale(0.24 -0.24)">
     <use xlink:href="#DejaVuSans-76"/>
     <use x="53.962891" xlink:href="#DejaVuSans-111"/>
     <use x="115.144531" xlink:href="#DejaVuSans-115"/>
     <use x="167.244141" xlink:href="#DejaVuSans-115"/>
     <use x="219.34375" xlink:href="#DejaVuSans-32"/>
     <use x="251.130859" xlink:href="#DejaVuSans-118"/>
     <use x="310.310547" xlink:href="#DejaVuSans-115"/>
     <use x="362.410156" xlink:href="#DejaVuSans-32"/>
     <use x="394.197266" xlink:href="#DejaVuSans-84"/>
     <use x="452.15625" xlink:href="#DejaVuSans-105"/>
     <use x="479.939453" xlink:href="#DejaVuSans-109"/>
     <use x="577.351562" xlink:href="#DejaVuSans-101"/>
     <use x="638.875" xlink:href="#DejaVuSans-115"/>
     <use x="690.974609" xlink:href="#DejaVuSans-116"/>
     <use x="730.183594" xlink:href="#DejaVuSans-101"/>
     <use x="791.707031" xlink:href="#DejaVuSans-112"/>
    </g>
   </g>
   <g id="legend_2">
    <g id="patch_13">
     <path d="M 1301.873438 649.1 
L 1407.9 649.1 
Q 1410.9 649.1 1410.9 646.1 
L 1410.9 625.582813 
Q 1410.9 622.582813 1407.9 622.582813 
L 1301.873438 622.582813 
Q 1298.873438 622.582813 1298.873438 625.582813 
L 1298.873438 646.1 
Q 1298.873438 649.1 1301.873438 649.1 
z
" style="fill:#ffffff;opacity:0.8;stroke:#cccccc;stroke-linejoin:miter;"/>
    </g>
    <g id="line2d_41">
     <path d="M 1304.873438 634.730469 
L 1334.873438 634.730469 
" style="fill:none;stroke:#ff0000;stroke-linecap:square;stroke-width:1.5;"/>
    </g>
    <g id="line2d_42"/>
    <g id="text_27">
     <!-- Avg. TD -->
     <g transform="translate(1346.873438 639.980469)scale(0.15 -0.15)">
      <use xlink:href="#DejaVuSans-65"/>
      <use x="62.533203" xlink:href="#DejaVuSans-118"/>
      <use x="121.712891" xlink:href="#DejaVuSans-103"/>
      <use x="185.189453" xlink:href="#DejaVuSans-46"/>
      <use x="216.976562" xlink:href="#DejaVuSans-32"/>
      <use x="248.763672" xlink:href="#DejaVuSans-84"/>
      <use x="309.847656" xlink:href="#DejaVuSans-68"/>
     </g>
    </g>
   </g>
  </g>
  <g id="axes_3">
   <g id="patch_14">
    <path d="M 87.329766 1009.4 
L 1418.4 1009.4 
L 1418.4 752.2 
L 87.329766 752.2 
z
" style="fill:#ffffff;"/>
   </g>
   <g id="matplotlib.axis_5">
    <g id="xtick_13">
     <g id="line2d_43">
      <g>
       <use style="stroke:#000000;stroke-width:0.8;" x="203.075003" xlink:href="#m2a4f0320f3" y="1009.4"/>
      </g>
     </g>
     <g id="text_28">
      <!-- 1e+04 -->
      <g transform="translate(169.454691 1031.596875)scale(0.2 -0.2)">
       <use xlink:href="#DejaVuSans-49"/>
       <use x="63.623047" xlink:href="#DejaVuSans-101"/>
       <use x="125.146484" xlink:href="#DejaVuSans-43"/>
       <use x="208.935547" xlink:href="#DejaVuSans-48"/>
       <use x="272.558594" xlink:href="#DejaVuSans-52"/>
      </g>
     </g>
    </g>
    <g id="xtick_14">
     <g id="line2d_44">
      <g>
       <use style="stroke:#000000;stroke-width:0.8;" x="318.820241" xlink:href="#m2a4f0320f3" y="1009.4"/>
      </g>
     </g>
     <g id="text_29">
      <!-- 2e+04 -->
      <g transform="translate(285.199929 1031.596875)scale(0.2 -0.2)">
       <use xlink:href="#DejaVuSans-50"/>
       <use x="63.623047" xlink:href="#DejaVuSans-101"/>
       <use x="125.146484" xlink:href="#DejaVuSans-43"/>
       <use x="208.935547" xlink:href="#DejaVuSans-48"/>
       <use x="272.558594" xlink:href="#DejaVuSans-52"/>
      </g>
     </g>
    </g>
    <g id="xtick_15">
     <g id="line2d_45">
      <g>
       <use style="stroke:#000000;stroke-width:0.8;" x="550.310717" xlink:href="#m2a4f0320f3" y="1009.4"/>
      </g>
     </g>
     <g id="text_30">
      <!-- 4e+04 -->
      <g transform="translate(516.690404 1031.596875)scale(0.2 -0.2)">
       <use xlink:href="#DejaVuSans-52"/>
       <use x="63.623047" xlink:href="#DejaVuSans-101"/>
       <use x="125.146484" xlink:href="#DejaVuSans-43"/>
       <use x="208.935547" xlink:href="#DejaVuSans-48"/>
       <use x="272.558594" xlink:href="#DejaVuSans-52"/>
      </g>
     </g>
    </g>
    <g id="xtick_16">
     <g id="line2d_46">
      <g>
       <use style="stroke:#000000;stroke-width:0.8;" x="781.801192" xlink:href="#m2a4f0320f3" y="1009.4"/>
      </g>
     </g>
     <g id="text_31">
      <!-- 6e+04 -->
      <g transform="translate(748.18088 1031.596875)scale(0.2 -0.2)">
       <use xlink:href="#DejaVuSans-54"/>
       <use x="63.623047" xlink:href="#DejaVuSans-101"/>
       <use x="125.146484" xlink:href="#DejaVuSans-43"/>
       <use x="208.935547" xlink:href="#DejaVuSans-48"/>
       <use x="272.558594" xlink:href="#DejaVuSans-52"/>
      </g>
     </g>
    </g>
    <g id="xtick_17">
     <g id="line2d_47">
      <g>
       <use style="stroke:#000000;stroke-width:0.8;" x="1013.291668" xlink:href="#m2a4f0320f3" y="1009.4"/>
      </g>
     </g>
     <g id="text_32">
      <!-- 8e+04 -->
      <g transform="translate(979.671355 1031.596875)scale(0.2 -0.2)">
       <use xlink:href="#DejaVuSans-56"/>
       <use x="63.623047" xlink:href="#DejaVuSans-101"/>
       <use x="125.146484" xlink:href="#DejaVuSans-43"/>
       <use x="208.935547" xlink:href="#DejaVuSans-48"/>
       <use x="272.558594" xlink:href="#DejaVuSans-52"/>
      </g>
     </g>
    </g>
    <g id="xtick_18">
     <g id="line2d_48">
      <g>
       <use style="stroke:#000000;stroke-width:0.8;" x="1244.782143" xlink:href="#m2a4f0320f3" y="1009.4"/>
      </g>
     </g>
     <g id="text_33">
      <!-- 1e+05 -->
      <g transform="translate(1211.161831 1031.596875)scale(0.2 -0.2)">
       <use xlink:href="#DejaVuSans-49"/>
       <use x="63.623047" xlink:href="#DejaVuSans-101"/>
       <use x="125.146484" xlink:href="#DejaVuSans-43"/>
       <use x="208.935547" xlink:href="#DejaVuSans-48"/>
       <use x="272.558594" xlink:href="#DejaVuSans-53"/>
      </g>
     </g>
    </g>
    <g id="text_34">
     <!-- Timestep -->
     <g transform="translate(706.766445 1054.953125)scale(0.2 -0.2)">
      <use xlink:href="#DejaVuSans-84"/>
      <use x="57.958984" xlink:href="#DejaVuSans-105"/>
      <use x="85.742188" xlink:href="#DejaVuSans-109"/>
      <use x="183.154297" xlink:href="#DejaVuSans-101"/>
      <use x="244.677734" xlink:href="#DejaVuSans-115"/>
      <use x="296.777344" xlink:href="#DejaVuSans-116"/>
      <use x="335.986328" xlink:href="#DejaVuSans-101"/>
      <use x="397.509766" xlink:href="#DejaVuSans-112"/>
     </g>
    </g>
   </g>
   <g id="matplotlib.axis_6">
    <g id="ytick_25">
     <g id="line2d_49">
      <defs>
       <path d="M 0 0 
L -3.5 0 
" id="m13d83517fe" style="stroke:#000000;stroke-width:0.8;"/>
      </defs>
      <g>
       <use style="stroke:#000000;stroke-width:0.8;" x="87.329766" xlink:href="#m13d83517fe" y="1009.4"/>
      </g>
     </g>
     <g id="text_35">
      <!-- 0.0 -->
      <g transform="translate(56.475078 1015.098828)scale(0.15 -0.15)">
       <use xlink:href="#DejaVuSans-48"/>
       <use x="63.623047" xlink:href="#DejaVuSans-46"/>
       <use x="95.410156" xlink:href="#DejaVuSans-48"/>
      </g>
     </g>
    </g>
    <g id="ytick_26">
     <g id="line2d_50">
      <g>
       <use style="stroke:#000000;stroke-width:0.8;" x="87.329766" xlink:href="#m13d83517fe" y="957.96"/>
      </g>
     </g>
     <g id="text_36">
      <!-- 0.2 -->
      <g transform="translate(56.475078 963.658828)scale(0.15 -0.15)">
       <use xlink:href="#DejaVuSans-48"/>
       <use x="63.623047" xlink:href="#DejaVuSans-46"/>
       <use x="95.410156" xlink:href="#DejaVuSans-50"/>
      </g>
     </g>
    </g>
    <g id="ytick_27">
     <g id="line2d_51">
      <g>
       <use style="stroke:#000000;stroke-width:0.8;" x="87.329766" xlink:href="#m13d83517fe" y="906.52"/>
      </g>
     </g>
     <g id="text_37">
      <!-- 0.4 -->
      <g transform="translate(56.475078 912.218828)scale(0.15 -0.15)">
       <use xlink:href="#DejaVuSans-48"/>
       <use x="63.623047" xlink:href="#DejaVuSans-46"/>
       <use x="95.410156" xlink:href="#DejaVuSans-52"/>
      </g>
     </g>
    </g>
    <g id="ytick_28">
     <g id="line2d_52">
      <g>
       <use style="stroke:#000000;stroke-width:0.8;" x="87.329766" xlink:href="#m13d83517fe" y="855.08"/>
      </g>
     </g>
     <g id="text_38">
      <!-- 0.6 -->
      <g transform="translate(56.475078 860.778828)scale(0.15 -0.15)">
       <use xlink:href="#DejaVuSans-48"/>
       <use x="63.623047" xlink:href="#DejaVuSans-46"/>
       <use x="95.410156" xlink:href="#DejaVuSans-54"/>
      </g>
     </g>
    </g>
    <g id="ytick_29">
     <g id="line2d_53">
      <g>
       <use style="stroke:#000000;stroke-width:0.8;" x="87.329766" xlink:href="#m13d83517fe" y="803.64"/>
      </g>
     </g>
     <g id="text_39">
      <!-- 0.8 -->
      <g transform="translate(56.475078 809.338828)scale(0.15 -0.15)">
       <use xlink:href="#DejaVuSans-48"/>
       <use x="63.623047" xlink:href="#DejaVuSans-46"/>
       <use x="95.410156" xlink:href="#DejaVuSans-56"/>
      </g>
     </g>
    </g>
    <g id="ytick_30">
     <g id="line2d_54">
      <g>
       <use style="stroke:#000000;stroke-width:0.8;" x="87.329766" xlink:href="#m13d83517fe" y="752.2"/>
      </g>
     </g>
     <g id="text_40">
      <!-- 1.0 -->
      <g transform="translate(56.475078 757.898828)scale(0.15 -0.15)">
       <use xlink:href="#DejaVuSans-49"/>
       <use x="63.623047" xlink:href="#DejaVuSans-46"/>
       <use x="95.410156" xlink:href="#DejaVuSans-48"/>
      </g>
     </g>
    </g>
   </g>
   <g id="patch_15">
    <path d="M 87.329766 1009.4 
L 87.329766 752.2 
" style="fill:none;stroke:#000000;stroke-linecap:square;stroke-linejoin:miter;stroke-width:0.8;"/>
   </g>
   <g id="patch_16">
    <path d="M 1418.4 1009.4 
L 1418.4 752.2 
" style="fill:none;stroke:#000000;stroke-linecap:square;stroke-linejoin:miter;stroke-width:0.8;"/>
   </g>
   <g id="patch_17">
    <path d="M 87.329766 1009.4 
L 1418.4 1009.4 
" style="fill:none;stroke:#000000;stroke-linecap:square;stroke-linejoin:miter;stroke-width:0.8;"/>
   </g>
   <g id="patch_18">
    <path d="M 87.329766 752.2 
L 1418.4 752.2 
" style="fill:none;stroke:#000000;stroke-linecap:square;stroke-linejoin:miter;stroke-width:0.8;"/>
   </g>
   <g id="text_41">
    <!-- Action Selection Frequency(%) vs Timestep -->
    <defs>
     <path d="M 53.515625 70.515625 
L 53.515625 60.890625 
Q 47.90625 63.578125 42.921875 64.890625 
Q 37.9375 66.21875 33.296875 66.21875 
Q 25.25 66.21875 20.875 63.09375 
Q 16.5 59.96875 16.5 54.203125 
Q 16.5 49.359375 19.40625 46.890625 
Q 22.3125 44.4375 30.421875 42.921875 
L 36.375 41.703125 
Q 47.40625 39.59375 52.65625 34.296875 
Q 57.90625 29 57.90625 20.125 
Q 57.90625 9.515625 50.796875 4.046875 
Q 43.703125 -1.421875 29.984375 -1.421875 
Q 24.8125 -1.421875 18.96875 -0.25 
Q 13.140625 0.921875 6.890625 3.21875 
L 6.890625 13.375 
Q 12.890625 10.015625 18.65625 8.296875 
Q 24.421875 6.59375 29.984375 6.59375 
Q 38.421875 6.59375 43.015625 9.90625 
Q 47.609375 13.234375 47.609375 19.390625 
Q 47.609375 24.75 44.3125 27.78125 
Q 41.015625 30.8125 33.5 32.328125 
L 27.484375 33.5 
Q 16.453125 35.6875 11.515625 40.375 
Q 6.59375 45.0625 6.59375 53.421875 
Q 6.59375 63.09375 13.40625 68.65625 
Q 20.21875 74.21875 32.171875 74.21875 
Q 37.3125 74.21875 42.625 73.28125 
Q 47.953125 72.359375 53.515625 70.515625 
z
" id="DejaVuSans-83"/>
     <path d="M 9.8125 72.90625 
L 51.703125 72.90625 
L 51.703125 64.59375 
L 19.671875 64.59375 
L 19.671875 43.109375 
L 48.578125 43.109375 
L 48.578125 34.8125 
L 19.671875 34.8125 
L 19.671875 0 
L 9.8125 0 
z
" id="DejaVuSans-70"/>
     <path d="M 14.796875 27.296875 
Q 14.796875 17.390625 18.875 11.75 
Q 22.953125 6.109375 30.078125 6.109375 
Q 37.203125 6.109375 41.296875 11.75 
Q 45.40625 17.390625 45.40625 27.296875 
Q 45.40625 37.203125 41.296875 42.84375 
Q 37.203125 48.484375 30.078125 48.484375 
Q 22.953125 48.484375 18.875 42.84375 
Q 14.796875 37.203125 14.796875 27.296875 
z
M 45.40625 8.203125 
Q 42.578125 3.328125 38.25 0.953125 
Q 33.9375 -1.421875 27.875 -1.421875 
Q 17.96875 -1.421875 11.734375 6.484375 
Q 5.515625 14.40625 5.515625 27.296875 
Q 5.515625 40.1875 11.734375 48.09375 
Q 17.96875 56 27.875 56 
Q 33.9375 56 38.25 53.625 
Q 42.578125 51.265625 45.40625 46.390625 
L 45.40625 54.6875 
L 54.390625 54.6875 
L 54.390625 -20.796875 
L 45.40625 -20.796875 
z
" id="DejaVuSans-113"/>
     <path d="M 8.5 21.578125 
L 8.5 54.6875 
L 17.484375 54.6875 
L 17.484375 21.921875 
Q 17.484375 14.15625 20.5 10.265625 
Q 23.53125 6.390625 29.59375 6.390625 
Q 36.859375 6.390625 41.078125 11.03125 
Q 45.3125 15.671875 45.3125 23.6875 
L 45.3125 54.6875 
L 54.296875 54.6875 
L 54.296875 0 
L 45.3125 0 
L 45.3125 8.40625 
Q 42.046875 3.421875 37.71875 1 
Q 33.40625 -1.421875 27.6875 -1.421875 
Q 18.265625 -1.421875 13.375 4.4375 
Q 8.5 10.296875 8.5 21.578125 
z
M 31.109375 56 
z
" id="DejaVuSans-117"/>
     <path d="M 32.171875 -5.078125 
Q 28.375 -14.84375 24.75 -17.8125 
Q 21.140625 -20.796875 15.09375 -20.796875 
L 7.90625 -20.796875 
L 7.90625 -13.28125 
L 13.1875 -13.28125 
Q 16.890625 -13.28125 18.9375 -11.515625 
Q 21 -9.765625 23.484375 -3.21875 
L 25.09375 0.875 
L 2.984375 54.6875 
L 12.5 54.6875 
L 29.59375 11.921875 
L 46.6875 54.6875 
L 56.203125 54.6875 
z
" id="DejaVuSans-121"/>
     <path d="M 31 75.875 
Q 24.46875 64.65625 21.28125 53.65625 
Q 18.109375 42.671875 18.109375 31.390625 
Q 18.109375 20.125 21.3125 9.0625 
Q 24.515625 -2 31 -13.1875 
L 23.1875 -13.1875 
Q 15.875 -1.703125 12.234375 9.375 
Q 8.59375 20.453125 8.59375 31.390625 
Q 8.59375 42.28125 12.203125 53.3125 
Q 15.828125 64.359375 23.1875 75.875 
z
" id="DejaVuSans-40"/>
     <path d="M 72.703125 32.078125 
Q 68.453125 32.078125 66.03125 28.46875 
Q 63.625 24.859375 63.625 18.40625 
Q 63.625 12.0625 66.03125 8.421875 
Q 68.453125 4.78125 72.703125 4.78125 
Q 76.859375 4.78125 79.265625 8.421875 
Q 81.6875 12.0625 81.6875 18.40625 
Q 81.6875 24.8125 79.265625 28.4375 
Q 76.859375 32.078125 72.703125 32.078125 
z
M 72.703125 38.28125 
Q 80.421875 38.28125 84.953125 32.90625 
Q 89.5 27.546875 89.5 18.40625 
Q 89.5 9.28125 84.9375 3.921875 
Q 80.375 -1.421875 72.703125 -1.421875 
Q 64.890625 -1.421875 60.34375 3.921875 
Q 55.8125 9.28125 55.8125 18.40625 
Q 55.8125 27.59375 60.375 32.9375 
Q 64.9375 38.28125 72.703125 38.28125 
z
M 22.3125 68.015625 
Q 18.109375 68.015625 15.6875 64.375 
Q 13.28125 60.75 13.28125 54.390625 
Q 13.28125 47.953125 15.671875 44.328125 
Q 18.0625 40.71875 22.3125 40.71875 
Q 26.5625 40.71875 28.96875 44.328125 
Q 31.390625 47.953125 31.390625 54.390625 
Q 31.390625 60.6875 28.953125 64.34375 
Q 26.515625 68.015625 22.3125 68.015625 
z
M 66.40625 74.21875 
L 74.21875 74.21875 
L 28.609375 -1.421875 
L 20.796875 -1.421875 
z
M 22.3125 74.21875 
Q 30.03125 74.21875 34.609375 68.875 
Q 39.203125 63.53125 39.203125 54.390625 
Q 39.203125 45.171875 34.640625 39.84375 
Q 30.078125 34.515625 22.3125 34.515625 
Q 14.546875 34.515625 10.03125 39.859375 
Q 5.515625 45.21875 5.515625 54.390625 
Q 5.515625 63.484375 10.046875 68.84375 
Q 14.59375 74.21875 22.3125 74.21875 
z
" id="DejaVuSans-37"/>
     <path d="M 8.015625 75.875 
L 15.828125 75.875 
Q 23.140625 64.359375 26.78125 53.3125 
Q 30.421875 42.28125 30.421875 31.390625 
Q 30.421875 20.453125 26.78125 9.375 
Q 23.140625 -1.703125 15.828125 -13.1875 
L 8.015625 -13.1875 
Q 14.5 -2 17.703125 9.0625 
Q 20.90625 20.125 20.90625 31.390625 
Q 20.90625 42.671875 17.703125 53.65625 
Q 14.5 64.65625 8.015625 75.875 
z
" id="DejaVuSans-41"/>
    </defs>
    <g transform="translate(493.295508 746.2)scale(0.24 -0.24)">
     <use xlink:href="#DejaVuSans-65"/>
     <use x="66.658203" xlink:href="#DejaVuSans-99"/>
     <use x="121.638672" xlink:href="#DejaVuSans-116"/>
     <use x="160.847656" xlink:href="#DejaVuSans-105"/>
     <use x="188.630859" xlink:href="#DejaVuSans-111"/>
     <use x="249.8125" xlink:href="#DejaVuSans-110"/>
     <use x="313.191406" xlink:href="#DejaVuSans-32"/>
     <use x="344.978516" xlink:href="#DejaVuSans-83"/>
     <use x="408.455078" xlink:href="#DejaVuSans-101"/>
     <use x="469.978516" xlink:href="#DejaVuSans-108"/>
     <use x="497.761719" xlink:href="#DejaVuSans-101"/>
     <use x="559.285156" xlink:href="#DejaVuSans-99"/>
     <use x="614.265625" xlink:href="#DejaVuSans-116"/>
     <use x="653.474609" xlink:href="#DejaVuSans-105"/>
     <use x="681.257812" xlink:href="#DejaVuSans-111"/>
     <use x="742.439453" xlink:href="#DejaVuSans-110"/>
     <use x="805.818359" xlink:href="#DejaVuSans-32"/>
     <use x="837.605469" xlink:href="#DejaVuSans-70"/>
     <use x="887.875" xlink:href="#DejaVuSans-114"/>
     <use x="926.738281" xlink:href="#DejaVuSans-101"/>
     <use x="988.261719" xlink:href="#DejaVuSans-113"/>
     <use x="1051.738281" xlink:href="#DejaVuSans-117"/>
     <use x="1115.117188" xlink:href="#DejaVuSans-101"/>
     <use x="1176.640625" xlink:href="#DejaVuSans-110"/>
     <use x="1240.019531" xlink:href="#DejaVuSans-99"/>
     <use x="1295" xlink:href="#DejaVuSans-121"/>
     <use x="1354.179688" xlink:href="#DejaVuSans-40"/>
     <use x="1393.193359" xlink:href="#DejaVuSans-37"/>
     <use x="1488.212891" xlink:href="#DejaVuSans-41"/>
     <use x="1527.226562" xlink:href="#DejaVuSans-32"/>
     <use x="1559.013672" xlink:href="#DejaVuSans-118"/>
     <use x="1618.193359" xlink:href="#DejaVuSans-115"/>
     <use x="1670.292969" xlink:href="#DejaVuSans-32"/>
     <use x="1702.080078" xlink:href="#DejaVuSans-84"/>
     <use x="1760.039062" xlink:href="#DejaVuSans-105"/>
     <use x="1787.822266" xlink:href="#DejaVuSans-109"/>
     <use x="1885.234375" xlink:href="#DejaVuSans-101"/>
     <use x="1946.757812" xlink:href="#DejaVuSans-115"/>
     <use x="1998.857422" xlink:href="#DejaVuSans-116"/>
     <use x="2038.066406" xlink:href="#DejaVuSans-101"/>
     <use x="2099.589844" xlink:href="#DejaVuSans-112"/>
    </g>
   </g>
  </g>
 </g>
 <defs>
  <clipPath id="pef2424a1ac">
   <rect height="257.2" width="1331.070234" x="87.329766" y="46.6"/>
  </clipPath>
  <clipPath id="pcd65d287df">
   <rect height="257.2" width="1331.070234" x="87.329766" y="399.4"/>
  </clipPath>
 </defs>
</svg>
