<?xml version="1.0" encoding="utf-8" standalone="no"?>
<!DOCTYPE svg PUBLIC "-//W3C//DTD SVG 1.1//EN"
  "http://www.w3.org/Graphics/SVG/1.1/DTD/svg11.dtd">
<!-- Created with matplotlib (https://matplotlib.org/) -->
<svg height="1080pt" version="1.1" viewBox="0 0 1440 1080" width="1440pt" xmlns="http://www.w3.org/2000/svg" xmlns:xlink="http://www.w3.org/1999/xlink">
 <defs>
  <style type="text/css">
*{stroke-linecap:butt;stroke-linejoin:round;}
  </style>
 </defs>
 <g id="figure_1">
  <g id="patch_1">
   <path d="M 0 1080 
L 1440 1080 
L 1440 0 
L 0 0 
z
" style="fill:#ffffff;"/>
  </g>
  <g id="axes_1">
   <g id="patch_2">
    <path d="M 87.329766 303.8 
L 1418.4 303.8 
L 1418.4 46.6 
L 87.329766 46.6 
z
" style="fill:#ffffff;"/>
   </g>
   <g id="matplotlib.axis_1">
    <g id="xtick_1">
     <g id="line2d_1">
      <defs>
       <path d="M 0 0 
L 0 3.5 
" id="m2a0d63b1f4" style="stroke:#000000;stroke-width:0.8;"/>
      </defs>
      <g>
       <use style="stroke:#000000;stroke-width:0.8;" x="203.075003" xlink:href="#m2a0d63b1f4" y="303.8"/>
      </g>
     </g>
     <g id="text_1">
      <!-- 1e+04 -->
      <defs>
       <path d="M 12.40625 8.296875 
L 28.515625 8.296875 
L 28.515625 63.921875 
L 10.984375 60.40625 
L 10.984375 69.390625 
L 28.421875 72.90625 
L 38.28125 72.90625 
L 38.28125 8.296875 
L 54.390625 8.296875 
L 54.390625 0 
L 12.40625 0 
z
" id="DejaVuSans-49"/>
       <path d="M 56.203125 29.59375 
L 56.203125 25.203125 
L 14.890625 25.203125 
Q 15.484375 15.921875 20.484375 11.0625 
Q 25.484375 6.203125 34.421875 6.203125 
Q 39.59375 6.203125 44.453125 7.46875 
Q 49.3125 8.734375 54.109375 11.28125 
L 54.109375 2.78125 
Q 49.265625 0.734375 44.1875 -0.34375 
Q 39.109375 -1.421875 33.890625 -1.421875 
Q 20.796875 -1.421875 13.15625 6.1875 
Q 5.515625 13.8125 5.515625 26.8125 
Q 5.515625 40.234375 12.765625 48.109375 
Q 20.015625 56 32.328125 56 
Q 43.359375 56 49.78125 48.890625 
Q 56.203125 41.796875 56.203125 29.59375 
z
M 47.21875 32.234375 
Q 47.125 39.59375 43.09375 43.984375 
Q 39.0625 48.390625 32.421875 48.390625 
Q 24.90625 48.390625 20.390625 44.140625 
Q 15.875 39.890625 15.1875 32.171875 
z
" id="DejaVuSans-101"/>
       <path d="M 46 62.703125 
L 46 35.5 
L 73.1875 35.5 
L 73.1875 27.203125 
L 46 27.203125 
L 46 0 
L 37.796875 0 
L 37.796875 27.203125 
L 10.59375 27.203125 
L 10.59375 35.5 
L 37.796875 35.5 
L 37.796875 62.703125 
z
" id="DejaVuSans-43"/>
       <path d="M 31.78125 66.40625 
Q 24.171875 66.40625 20.328125 58.90625 
Q 16.5 51.421875 16.5 36.375 
Q 16.5 21.390625 20.328125 13.890625 
Q 24.171875 6.390625 31.78125 6.390625 
Q 39.453125 6.390625 43.28125 13.890625 
Q 47.125 21.390625 47.125 36.375 
Q 47.125 51.421875 43.28125 58.90625 
Q 39.453125 66.40625 31.78125 66.40625 
z
M 31.78125 74.21875 
Q 44.046875 74.21875 50.515625 64.515625 
Q 56.984375 54.828125 56.984375 36.375 
Q 56.984375 17.96875 50.515625 8.265625 
Q 44.046875 -1.421875 31.78125 -1.421875 
Q 19.53125 -1.421875 13.0625 8.265625 
Q 6.59375 17.96875 6.59375 36.375 
Q 6.59375 54.828125 13.0625 64.515625 
Q 19.53125 74.21875 31.78125 74.21875 
z
" id="DejaVuSans-48"/>
       <path d="M 37.796875 64.3125 
L 12.890625 25.390625 
L 37.796875 25.390625 
z
M 35.203125 72.90625 
L 47.609375 72.90625 
L 47.609375 25.390625 
L 58.015625 25.390625 
L 58.015625 17.1875 
L 47.609375 17.1875 
L 47.609375 0 
L 37.796875 0 
L 37.796875 17.1875 
L 4.890625 17.1875 
L 4.890625 26.703125 
z
" id="DejaVuSans-52"/>
      </defs>
      <g transform="translate(169.454691 325.996875)scale(0.2 -0.2)">
       <use xlink:href="#DejaVuSans-49"/>
       <use x="63.623047" xlink:href="#DejaVuSans-101"/>
       <use x="125.146484" xlink:href="#DejaVuSans-43"/>
       <use x="208.935547" xlink:href="#DejaVuSans-48"/>
       <use x="272.558594" xlink:href="#DejaVuSans-52"/>
      </g>
     </g>
    </g>
    <g id="xtick_2">
     <g id="line2d_2">
      <g>
       <use style="stroke:#000000;stroke-width:0.8;" x="318.820241" xlink:href="#m2a0d63b1f4" y="303.8"/>
      </g>
     </g>
     <g id="text_2">
      <!-- 2e+04 -->
      <defs>
       <path d="M 19.1875 8.296875 
L 53.609375 8.296875 
L 53.609375 0 
L 7.328125 0 
L 7.328125 8.296875 
Q 12.9375 14.109375 22.625 23.890625 
Q 32.328125 33.6875 34.8125 36.53125 
Q 39.546875 41.84375 41.421875 45.53125 
Q 43.3125 49.21875 43.3125 52.78125 
Q 43.3125 58.59375 39.234375 62.25 
Q 35.15625 65.921875 28.609375 65.921875 
Q 23.96875 65.921875 18.8125 64.3125 
Q 13.671875 62.703125 7.8125 59.421875 
L 7.8125 69.390625 
Q 13.765625 71.78125 18.9375 73 
Q 24.125 74.21875 28.421875 74.21875 
Q 39.75 74.21875 46.484375 68.546875 
Q 53.21875 62.890625 53.21875 53.421875 
Q 53.21875 48.921875 51.53125 44.890625 
Q 49.859375 40.875 45.40625 35.40625 
Q 44.1875 33.984375 37.640625 27.21875 
Q 31.109375 20.453125 19.1875 8.296875 
z
" id="DejaVuSans-50"/>
      </defs>
      <g transform="translate(285.199929 325.996875)scale(0.2 -0.2)">
       <use xlink:href="#DejaVuSans-50"/>
       <use x="63.623047" xlink:href="#DejaVuSans-101"/>
       <use x="125.146484" xlink:href="#DejaVuSans-43"/>
       <use x="208.935547" xlink:href="#DejaVuSans-48"/>
       <use x="272.558594" xlink:href="#DejaVuSans-52"/>
      </g>
     </g>
    </g>
    <g id="xtick_3">
     <g id="line2d_3">
      <g>
       <use style="stroke:#000000;stroke-width:0.8;" x="550.310717" xlink:href="#m2a0d63b1f4" y="303.8"/>
      </g>
     </g>
     <g id="text_3">
      <!-- 4e+04 -->
      <g transform="translate(516.690404 325.996875)scale(0.2 -0.2)">
       <use xlink:href="#DejaVuSans-52"/>
       <use x="63.623047" xlink:href="#DejaVuSans-101"/>
       <use x="125.146484" xlink:href="#DejaVuSans-43"/>
       <use x="208.935547" xlink:href="#DejaVuSans-48"/>
       <use x="272.558594" xlink:href="#DejaVuSans-52"/>
      </g>
     </g>
    </g>
    <g id="xtick_4">
     <g id="line2d_4">
      <g>
       <use style="stroke:#000000;stroke-width:0.8;" x="781.801192" xlink:href="#m2a0d63b1f4" y="303.8"/>
      </g>
     </g>
     <g id="text_4">
      <!-- 6e+04 -->
      <defs>
       <path d="M 33.015625 40.375 
Q 26.375 40.375 22.484375 35.828125 
Q 18.609375 31.296875 18.609375 23.390625 
Q 18.609375 15.53125 22.484375 10.953125 
Q 26.375 6.390625 33.015625 6.390625 
Q 39.65625 6.390625 43.53125 10.953125 
Q 47.40625 15.53125 47.40625 23.390625 
Q 47.40625 31.296875 43.53125 35.828125 
Q 39.65625 40.375 33.015625 40.375 
z
M 52.59375 71.296875 
L 52.59375 62.3125 
Q 48.875 64.0625 45.09375 64.984375 
Q 41.3125 65.921875 37.59375 65.921875 
Q 27.828125 65.921875 22.671875 59.328125 
Q 17.53125 52.734375 16.796875 39.40625 
Q 19.671875 43.65625 24.015625 45.921875 
Q 28.375 48.1875 33.59375 48.1875 
Q 44.578125 48.1875 50.953125 41.515625 
Q 57.328125 34.859375 57.328125 23.390625 
Q 57.328125 12.15625 50.6875 5.359375 
Q 44.046875 -1.421875 33.015625 -1.421875 
Q 20.359375 -1.421875 13.671875 8.265625 
Q 6.984375 17.96875 6.984375 36.375 
Q 6.984375 53.65625 15.1875 63.9375 
Q 23.390625 74.21875 37.203125 74.21875 
Q 40.921875 74.21875 44.703125 73.484375 
Q 48.484375 72.75 52.59375 71.296875 
z
" id="DejaVuSans-54"/>
      </defs>
      <g transform="translate(748.18088 325.996875)scale(0.2 -0.2)">
       <use xlink:href="#DejaVuSans-54"/>
       <use x="63.623047" xlink:href="#DejaVuSans-101"/>
       <use x="125.146484" xlink:href="#DejaVuSans-43"/>
       <use x="208.935547" xlink:href="#DejaVuSans-48"/>
       <use x="272.558594" xlink:href="#DejaVuSans-52"/>
      </g>
     </g>
    </g>
    <g id="xtick_5">
     <g id="line2d_5">
      <g>
       <use style="stroke:#000000;stroke-width:0.8;" x="1013.291668" xlink:href="#m2a0d63b1f4" y="303.8"/>
      </g>
     </g>
     <g id="text_5">
      <!-- 8e+04 -->
      <defs>
       <path d="M 31.78125 34.625 
Q 24.75 34.625 20.71875 30.859375 
Q 16.703125 27.09375 16.703125 20.515625 
Q 16.703125 13.921875 20.71875 10.15625 
Q 24.75 6.390625 31.78125 6.390625 
Q 38.8125 6.390625 42.859375 10.171875 
Q 46.921875 13.96875 46.921875 20.515625 
Q 46.921875 27.09375 42.890625 30.859375 
Q 38.875 34.625 31.78125 34.625 
z
M 21.921875 38.8125 
Q 15.578125 40.375 12.03125 44.71875 
Q 8.5 49.078125 8.5 55.328125 
Q 8.5 64.0625 14.71875 69.140625 
Q 20.953125 74.21875 31.78125 74.21875 
Q 42.671875 74.21875 48.875 69.140625 
Q 55.078125 64.0625 55.078125 55.328125 
Q 55.078125 49.078125 51.53125 44.71875 
Q 48 40.375 41.703125 38.8125 
Q 48.828125 37.15625 52.796875 32.3125 
Q 56.78125 27.484375 56.78125 20.515625 
Q 56.78125 9.90625 50.3125 4.234375 
Q 43.84375 -1.421875 31.78125 -1.421875 
Q 19.734375 -1.421875 13.25 4.234375 
Q 6.78125 9.90625 6.78125 20.515625 
Q 6.78125 27.484375 10.78125 32.3125 
Q 14.796875 37.15625 21.921875 38.8125 
z
M 18.3125 54.390625 
Q 18.3125 48.734375 21.84375 45.5625 
Q 25.390625 42.390625 31.78125 42.390625 
Q 38.140625 42.390625 41.71875 45.5625 
Q 45.3125 48.734375 45.3125 54.390625 
Q 45.3125 60.0625 41.71875 63.234375 
Q 38.140625 66.40625 31.78125 66.40625 
Q 25.390625 66.40625 21.84375 63.234375 
Q 18.3125 60.0625 18.3125 54.390625 
z
" id="DejaVuSans-56"/>
      </defs>
      <g transform="translate(979.671355 325.996875)scale(0.2 -0.2)">
       <use xlink:href="#DejaVuSans-56"/>
       <use x="63.623047" xlink:href="#DejaVuSans-101"/>
       <use x="125.146484" xlink:href="#DejaVuSans-43"/>
       <use x="208.935547" xlink:href="#DejaVuSans-48"/>
       <use x="272.558594" xlink:href="#DejaVuSans-52"/>
      </g>
     </g>
    </g>
    <g id="xtick_6">
     <g id="line2d_6">
      <g>
       <use style="stroke:#000000;stroke-width:0.8;" x="1244.782143" xlink:href="#m2a0d63b1f4" y="303.8"/>
      </g>
     </g>
     <g id="text_6">
      <!-- 1e+05 -->
      <defs>
       <path d="M 10.796875 72.90625 
L 49.515625 72.90625 
L 49.515625 64.59375 
L 19.828125 64.59375 
L 19.828125 46.734375 
Q 21.96875 47.46875 24.109375 47.828125 
Q 26.265625 48.1875 28.421875 48.1875 
Q 40.625 48.1875 47.75 41.5 
Q 54.890625 34.8125 54.890625 23.390625 
Q 54.890625 11.625 47.5625 5.09375 
Q 40.234375 -1.421875 26.90625 -1.421875 
Q 22.3125 -1.421875 17.546875 -0.640625 
Q 12.796875 0.140625 7.71875 1.703125 
L 7.71875 11.625 
Q 12.109375 9.234375 16.796875 8.0625 
Q 21.484375 6.890625 26.703125 6.890625 
Q 35.15625 6.890625 40.078125 11.328125 
Q 45.015625 15.765625 45.015625 23.390625 
Q 45.015625 31 40.078125 35.4375 
Q 35.15625 39.890625 26.703125 39.890625 
Q 22.75 39.890625 18.8125 39.015625 
Q 14.890625 38.140625 10.796875 36.28125 
z
" id="DejaVuSans-53"/>
      </defs>
      <g transform="translate(1211.161831 325.996875)scale(0.2 -0.2)">
       <use xlink:href="#DejaVuSans-49"/>
       <use x="63.623047" xlink:href="#DejaVuSans-101"/>
       <use x="125.146484" xlink:href="#DejaVuSans-43"/>
       <use x="208.935547" xlink:href="#DejaVuSans-48"/>
       <use x="272.558594" xlink:href="#DejaVuSans-53"/>
      </g>
     </g>
    </g>
    <g id="text_7">
     <!-- Timestep -->
     <defs>
      <path d="M -0.296875 72.90625 
L 61.375 72.90625 
L 61.375 64.59375 
L 35.5 64.59375 
L 35.5 0 
L 25.59375 0 
L 25.59375 64.59375 
L -0.296875 64.59375 
z
" id="DejaVuSans-84"/>
      <path d="M 9.421875 54.6875 
L 18.40625 54.6875 
L 18.40625 0 
L 9.421875 0 
z
M 9.421875 75.984375 
L 18.40625 75.984375 
L 18.40625 64.59375 
L 9.421875 64.59375 
z
" id="DejaVuSans-105"/>
      <path d="M 52 44.1875 
Q 55.375 50.25 60.0625 53.125 
Q 64.75 56 71.09375 56 
Q 79.640625 56 84.28125 50.015625 
Q 88.921875 44.046875 88.921875 33.015625 
L 88.921875 0 
L 79.890625 0 
L 79.890625 32.71875 
Q 79.890625 40.578125 77.09375 44.375 
Q 74.3125 48.1875 68.609375 48.1875 
Q 61.625 48.1875 57.5625 43.546875 
Q 53.515625 38.921875 53.515625 30.90625 
L 53.515625 0 
L 44.484375 0 
L 44.484375 32.71875 
Q 44.484375 40.625 41.703125 44.40625 
Q 38.921875 48.1875 33.109375 48.1875 
Q 26.21875 48.1875 22.15625 43.53125 
Q 18.109375 38.875 18.109375 30.90625 
L 18.109375 0 
L 9.078125 0 
L 9.078125 54.6875 
L 18.109375 54.6875 
L 18.109375 46.1875 
Q 21.1875 51.21875 25.484375 53.609375 
Q 29.78125 56 35.6875 56 
Q 41.65625 56 45.828125 52.96875 
Q 50 49.953125 52 44.1875 
z
" id="DejaVuSans-109"/>
      <path d="M 44.28125 53.078125 
L 44.28125 44.578125 
Q 40.484375 46.53125 36.375 47.5 
Q 32.28125 48.484375 27.875 48.484375 
Q 21.1875 48.484375 17.84375 46.4375 
Q 14.5 44.390625 14.5 40.28125 
Q 14.5 37.15625 16.890625 35.375 
Q 19.28125 33.59375 26.515625 31.984375 
L 29.59375 31.296875 
Q 39.15625 29.25 43.1875 25.515625 
Q 47.21875 21.78125 47.21875 15.09375 
Q 47.21875 7.46875 41.1875 3.015625 
Q 35.15625 -1.421875 24.609375 -1.421875 
Q 20.21875 -1.421875 15.453125 -0.5625 
Q 10.6875 0.296875 5.421875 2 
L 5.421875 11.28125 
Q 10.40625 8.6875 15.234375 7.390625 
Q 20.0625 6.109375 24.8125 6.109375 
Q 31.15625 6.109375 34.5625 8.28125 
Q 37.984375 10.453125 37.984375 14.40625 
Q 37.984375 18.0625 35.515625 20.015625 
Q 33.0625 21.96875 24.703125 23.78125 
L 21.578125 24.515625 
Q 13.234375 26.265625 9.515625 29.90625 
Q 5.8125 33.546875 5.8125 39.890625 
Q 5.8125 47.609375 11.28125 51.796875 
Q 16.75 56 26.8125 56 
Q 31.78125 56 36.171875 55.265625 
Q 40.578125 54.546875 44.28125 53.078125 
z
" id="DejaVuSans-115"/>
      <path d="M 18.3125 70.21875 
L 18.3125 54.6875 
L 36.8125 54.6875 
L 36.8125 47.703125 
L 18.3125 47.703125 
L 18.3125 18.015625 
Q 18.3125 11.328125 20.140625 9.421875 
Q 21.96875 7.515625 27.59375 7.515625 
L 36.8125 7.515625 
L 36.8125 0 
L 27.59375 0 
Q 17.1875 0 13.234375 3.875 
Q 9.28125 7.765625 9.28125 18.015625 
L 9.28125 47.703125 
L 2.6875 47.703125 
L 2.6875 54.6875 
L 9.28125 54.6875 
L 9.28125 70.21875 
z
" id="DejaVuSans-116"/>
      <path d="M 18.109375 8.203125 
L 18.109375 -20.796875 
L 9.078125 -20.796875 
L 9.078125 54.6875 
L 18.109375 54.6875 
L 18.109375 46.390625 
Q 20.953125 51.265625 25.265625 53.625 
Q 29.59375 56 35.59375 56 
Q 45.5625 56 51.78125 48.09375 
Q 58.015625 40.1875 58.015625 27.296875 
Q 58.015625 14.40625 51.78125 6.484375 
Q 45.5625 -1.421875 35.59375 -1.421875 
Q 29.59375 -1.421875 25.265625 0.953125 
Q 20.953125 3.328125 18.109375 8.203125 
z
M 48.6875 27.296875 
Q 48.6875 37.203125 44.609375 42.84375 
Q 40.53125 48.484375 33.40625 48.484375 
Q 26.265625 48.484375 22.1875 42.84375 
Q 18.109375 37.203125 18.109375 27.296875 
Q 18.109375 17.390625 22.1875 11.75 
Q 26.265625 6.109375 33.40625 6.109375 
Q 40.53125 6.109375 44.609375 11.75 
Q 48.6875 17.390625 48.6875 27.296875 
z
" id="DejaVuSans-112"/>
     </defs>
     <g transform="translate(706.766445 349.353125)scale(0.2 -0.2)">
      <use xlink:href="#DejaVuSans-84"/>
      <use x="57.958984" xlink:href="#DejaVuSans-105"/>
      <use x="85.742188" xlink:href="#DejaVuSans-109"/>
      <use x="183.154297" xlink:href="#DejaVuSans-101"/>
      <use x="244.677734" xlink:href="#DejaVuSans-115"/>
      <use x="296.777344" xlink:href="#DejaVuSans-116"/>
      <use x="335.986328" xlink:href="#DejaVuSans-101"/>
      <use x="397.509766" xlink:href="#DejaVuSans-112"/>
     </g>
    </g>
   </g>
   <g id="matplotlib.axis_2">
    <g id="ytick_1">
     <g id="line2d_7">
      <defs>
       <path d="M 0 0 
L -3.5 0 
" id="ma8d3a15c22" style="stroke:#1f77b4;stroke-width:0.8;"/>
      </defs>
      <g>
       <use style="fill:#1f77b4;stroke:#1f77b4;stroke-width:0.8;" x="87.329766" xlink:href="#ma8d3a15c22" y="297.636592"/>
      </g>
     </g>
     <g id="text_8">
      <!-- 10 -->
      <g style="fill:#1f77b4;" transform="translate(61.242266 303.33542)scale(0.15 -0.15)">
       <use xlink:href="#DejaVuSans-49"/>
       <use x="63.623047" xlink:href="#DejaVuSans-48"/>
      </g>
     </g>
    </g>
    <g id="ytick_2">
     <g id="line2d_8">
      <g>
       <use style="fill:#1f77b4;stroke:#1f77b4;stroke-width:0.8;" x="87.329766" xlink:href="#ma8d3a15c22" y="246.732093"/>
      </g>
     </g>
     <g id="text_9">
      <!-- 20 -->
      <g style="fill:#1f77b4;" transform="translate(61.242266 252.430921)scale(0.15 -0.15)">
       <use xlink:href="#DejaVuSans-50"/>
       <use x="63.623047" xlink:href="#DejaVuSans-48"/>
      </g>
     </g>
    </g>
    <g id="ytick_3">
     <g id="line2d_9">
      <g>
       <use style="fill:#1f77b4;stroke:#1f77b4;stroke-width:0.8;" x="87.329766" xlink:href="#ma8d3a15c22" y="195.827594"/>
      </g>
     </g>
     <g id="text_10">
      <!-- 30 -->
      <defs>
       <path d="M 40.578125 39.3125 
Q 47.65625 37.796875 51.625 33 
Q 55.609375 28.21875 55.609375 21.1875 
Q 55.609375 10.40625 48.1875 4.484375 
Q 40.765625 -1.421875 27.09375 -1.421875 
Q 22.515625 -1.421875 17.65625 -0.515625 
Q 12.796875 0.390625 7.625 2.203125 
L 7.625 11.71875 
Q 11.71875 9.328125 16.59375 8.109375 
Q 21.484375 6.890625 26.8125 6.890625 
Q 36.078125 6.890625 40.9375 10.546875 
Q 45.796875 14.203125 45.796875 21.1875 
Q 45.796875 27.640625 41.28125 31.265625 
Q 36.765625 34.90625 28.71875 34.90625 
L 20.21875 34.90625 
L 20.21875 43.015625 
L 29.109375 43.015625 
Q 36.375 43.015625 40.234375 45.921875 
Q 44.09375 48.828125 44.09375 54.296875 
Q 44.09375 59.90625 40.109375 62.90625 
Q 36.140625 65.921875 28.71875 65.921875 
Q 24.65625 65.921875 20.015625 65.03125 
Q 15.375 64.15625 9.8125 62.3125 
L 9.8125 71.09375 
Q 15.4375 72.65625 20.34375 73.4375 
Q 25.25 74.21875 29.59375 74.21875 
Q 40.828125 74.21875 47.359375 69.109375 
Q 53.90625 64.015625 53.90625 55.328125 
Q 53.90625 49.265625 50.4375 45.09375 
Q 46.96875 40.921875 40.578125 39.3125 
z
" id="DejaVuSans-51"/>
      </defs>
      <g style="fill:#1f77b4;" transform="translate(61.242266 201.526422)scale(0.15 -0.15)">
       <use xlink:href="#DejaVuSans-51"/>
       <use x="63.623047" xlink:href="#DejaVuSans-48"/>
      </g>
     </g>
    </g>
    <g id="ytick_4">
     <g id="line2d_10">
      <g>
       <use style="fill:#1f77b4;stroke:#1f77b4;stroke-width:0.8;" x="87.329766" xlink:href="#ma8d3a15c22" y="144.923095"/>
      </g>
     </g>
     <g id="text_11">
      <!-- 40 -->
      <g style="fill:#1f77b4;" transform="translate(61.242266 150.621923)scale(0.15 -0.15)">
       <use xlink:href="#DejaVuSans-52"/>
       <use x="63.623047" xlink:href="#DejaVuSans-48"/>
      </g>
     </g>
    </g>
    <g id="ytick_5">
     <g id="line2d_11">
      <g>
       <use style="fill:#1f77b4;stroke:#1f77b4;stroke-width:0.8;" x="87.329766" xlink:href="#ma8d3a15c22" y="94.018595"/>
      </g>
     </g>
     <g id="text_12">
      <!-- 50 -->
      <g style="fill:#1f77b4;" transform="translate(61.242266 99.717424)scale(0.15 -0.15)">
       <use xlink:href="#DejaVuSans-53"/>
       <use x="63.623047" xlink:href="#DejaVuSans-48"/>
      </g>
     </g>
    </g>
    <g id="text_13">
     <!-- Reward -->
     <defs>
      <path d="M 44.390625 34.1875 
Q 47.5625 33.109375 50.5625 29.59375 
Q 53.5625 26.078125 56.59375 19.921875 
L 66.609375 0 
L 56 0 
L 46.6875 18.703125 
Q 43.0625 26.03125 39.671875 28.421875 
Q 36.28125 30.8125 30.421875 30.8125 
L 19.671875 30.8125 
L 19.671875 0 
L 9.8125 0 
L 9.8125 72.90625 
L 32.078125 72.90625 
Q 44.578125 72.90625 50.734375 67.671875 
Q 56.890625 62.453125 56.890625 51.90625 
Q 56.890625 45.015625 53.6875 40.46875 
Q 50.484375 35.9375 44.390625 34.1875 
z
M 19.671875 64.796875 
L 19.671875 38.921875 
L 32.078125 38.921875 
Q 39.203125 38.921875 42.84375 42.21875 
Q 46.484375 45.515625 46.484375 51.90625 
Q 46.484375 58.296875 42.84375 61.546875 
Q 39.203125 64.796875 32.078125 64.796875 
z
" id="DejaVuSans-82"/>
      <path d="M 4.203125 54.6875 
L 13.1875 54.6875 
L 24.421875 12.015625 
L 35.59375 54.6875 
L 46.1875 54.6875 
L 57.421875 12.015625 
L 68.609375 54.6875 
L 77.59375 54.6875 
L 63.28125 0 
L 52.6875 0 
L 40.921875 44.828125 
L 29.109375 0 
L 18.5 0 
z
" id="DejaVuSans-119"/>
      <path d="M 34.28125 27.484375 
Q 23.390625 27.484375 19.1875 25 
Q 14.984375 22.515625 14.984375 16.5 
Q 14.984375 11.71875 18.140625 8.90625 
Q 21.296875 6.109375 26.703125 6.109375 
Q 34.1875 6.109375 38.703125 11.40625 
Q 43.21875 16.703125 43.21875 25.484375 
L 43.21875 27.484375 
z
M 52.203125 31.203125 
L 52.203125 0 
L 43.21875 0 
L 43.21875 8.296875 
Q 40.140625 3.328125 35.546875 0.953125 
Q 30.953125 -1.421875 24.3125 -1.421875 
Q 15.921875 -1.421875 10.953125 3.296875 
Q 6 8.015625 6 15.921875 
Q 6 25.140625 12.171875 29.828125 
Q 18.359375 34.515625 30.609375 34.515625 
L 43.21875 34.515625 
L 43.21875 35.40625 
Q 43.21875 41.609375 39.140625 45 
Q 35.0625 48.390625 27.6875 48.390625 
Q 23 48.390625 18.546875 47.265625 
Q 14.109375 46.140625 10.015625 43.890625 
L 10.015625 52.203125 
Q 14.9375 54.109375 19.578125 55.046875 
Q 24.21875 56 28.609375 56 
Q 40.484375 56 46.34375 49.84375 
Q 52.203125 43.703125 52.203125 31.203125 
z
" id="DejaVuSans-97"/>
      <path d="M 41.109375 46.296875 
Q 39.59375 47.171875 37.8125 47.578125 
Q 36.03125 48 33.890625 48 
Q 26.265625 48 22.1875 43.046875 
Q 18.109375 38.09375 18.109375 28.8125 
L 18.109375 0 
L 9.078125 0 
L 9.078125 54.6875 
L 18.109375 54.6875 
L 18.109375 46.1875 
Q 20.953125 51.171875 25.484375 53.578125 
Q 30.03125 56 36.53125 56 
Q 37.453125 56 38.578125 55.875 
Q 39.703125 55.765625 41.0625 55.515625 
z
" id="DejaVuSans-114"/>
      <path d="M 45.40625 46.390625 
L 45.40625 75.984375 
L 54.390625 75.984375 
L 54.390625 0 
L 45.40625 0 
L 45.40625 8.203125 
Q 42.578125 3.328125 38.25 0.953125 
Q 33.9375 -1.421875 27.875 -1.421875 
Q 17.96875 -1.421875 11.734375 6.484375 
Q 5.515625 14.40625 5.515625 27.296875 
Q 5.515625 40.1875 11.734375 48.09375 
Q 17.96875 56 27.875 56 
Q 33.9375 56 38.25 53.625 
Q 42.578125 51.265625 45.40625 46.390625 
z
M 14.796875 27.296875 
Q 14.796875 17.390625 18.875 11.75 
Q 22.953125 6.109375 30.078125 6.109375 
Q 37.203125 6.109375 41.296875 11.75 
Q 45.40625 17.390625 45.40625 27.296875 
Q 45.40625 37.203125 41.296875 42.84375 
Q 37.203125 48.484375 30.078125 48.484375 
Q 22.953125 48.484375 18.875 42.84375 
Q 14.796875 37.203125 14.796875 27.296875 
z
" id="DejaVuSans-100"/>
     </defs>
     <g style="fill:#1f77b4;" transform="translate(53.082891 212.442188)rotate(-90)scale(0.2 -0.2)">
      <use xlink:href="#DejaVuSans-82"/>
      <use x="64.982422" xlink:href="#DejaVuSans-101"/>
      <use x="126.505859" xlink:href="#DejaVuSans-119"/>
      <use x="208.292969" xlink:href="#DejaVuSans-97"/>
      <use x="269.572266" xlink:href="#DejaVuSans-114"/>
      <use x="308.935547" xlink:href="#DejaVuSans-100"/>
     </g>
    </g>
   </g>
   <g id="line2d_12">
    <path clip-path="url(#p9411b8283d)" d="M 87.329766 58.290909 
L 128.30358 238.049967 
L 130.618485 243.768724 
L 132.817644 247.334948 
L 135.364039 253.326407 
L 137.331708 256.822092 
L 142.424499 280.335607 
L 144.970894 287.864383 
L 146.591327 292.109091 
L 151.452627 291.727307 
L 153.883277 290.9012 
L 156.661163 290.448877 
L 158.397342 290.104181 
L 162.216934 290.474329 
L 163.605877 290.458331 
L 166.846744 290.144904 
L 167.656961 290.119452 
L 169.971865 290.464148 
L 172.865496 289.81548 
L 174.71742 289.14354 
L 176.91658 288.006915 
L 179.115739 287.80257 
L 181.430644 288.756666 
L 185.365982 288.399607 
L 189.06983 288.037458 
L 193.120913 287.930559 
L 195.435818 287.004097 
L 199.255411 286.873927 
L 200.297118 286.78448 
L 204.811182 286.046365 
L 207.357577 286.255073 
L 209.325246 286.238348 
L 211.524406 286.99537 
L 214.302291 286.583044 
L 216.501451 286.493597 
L 218.70061 285.988916 
L 220.784025 285.136629 
L 225.876815 285.567863 
L 229.349172 286.330703 
L 230.275134 286.392516 
L 237.104103 285.641311 
L 239.303263 286.268163 
L 241.733913 285.901651 
L 244.048818 286.231076 
L 246.479468 285.710395 
L 250.183315 285.820204 
L 251.572258 286.010732 
L 255.739087 286.908833 
L 257.938246 287.892017 
L 260.253151 287.81566 
L 262.683801 287.16481 
L 266.387648 287.055001 
L 267.31361 287.086998 
L 269.51277 287.409878 
L 272.406401 286.967736 
L 274.026834 286.937921 
L 276.341739 288.005461 
L 279.351115 287.145902 
L 282.707727 285.997642 
L 283.402198 285.886379 
L 285.601358 286.090725 
L 288.263498 285.039183 
L 290.462658 284.534501 
L 292.546072 283.682215 
L 294.976722 283.7433 
L 297.407372 283.09245 
L 301.11122 283.202258 
L 302.268672 283.163716 
L 305.741029 282.8372 
L 307.129972 282.646672 
L 309.444877 282.313611 
L 312.685744 282.000185 
L 313.843196 281.966006 
L 316.389591 282.229255 
L 318.241515 282.488141 
L 321.019401 282.416874 
L 324.260267 282.730301 
L 324.954739 282.88156 
L 327.269644 284.231983 
L 329.700294 283.682215 
L 332.015198 282.480141 
L 334.677339 282.256889 
L 336.645008 282.273614 
L 338.844167 281.516592 
L 341.622053 281.928918 
L 343.821213 282.018365 
L 346.020372 282.320156 
L 348.335277 282.119447 
L 350.650182 282.320156 
L 352.849341 282.150716 
L 354.932755 282.793568 
L 357.24766 281.207529 
L 359.67831 282.341245 
L 362.10896 281.990004 
L 364.53961 282.488141 
L 366.623024 282.437236 
L 370.789853 284.669035 
L 371.137089 284.831929 
L 373.683484 283.674215 
L 376.229879 283.763662 
L 378.313293 284.263253 
L 380.628198 285.610768 
L 383.521829 286.05291 
L 386.762696 286.14672 
L 388.151639 286.043456 
L 389.887817 285.901651 
L 392.318467 286.269618 
L 396.022315 285.927103 
L 397.179767 285.670399 
L 399.726162 284.973735 
L 406.670877 283.561498 
L 408.985781 282.937555 
L 410.606215 282.728119 
L 412.921119 283.917103 
L 415.467515 283.047363 
L 418.2454 282.801567 
L 420.213069 282.71212 
L 422.180738 282.429237 
L 424.495643 283.512775 
L 427.042038 283.282978 
L 429.241198 283.48296 
L 431.903338 283.09245 
L 433.871008 283.016093 
L 436.301658 282.342699 
L 438.385072 282.139808 
L 440.699977 280.805383 
L 443.709353 281.647489 
L 445.792767 281.928918 
L 447.760436 281.83729 
L 450.075341 281.071541 
L 452.390246 281.308611 
L 454.70515 282.219801 
L 458.524743 282.329609 
L 459.682196 282.291067 
L 463.154553 281.964551 
L 464.543496 281.774023 
L 466.8584 281.440962 
L 469.173305 281.398784 
L 471.48821 281.440962 
L 475.886529 281.053361 
L 477.969943 280.642489 
L 480.284848 280.697757 
L 482.599753 280.374149 
L 485.377638 280.619945 
L 487.692543 280.516682 
L 489.428722 280.390148 
L 491.859372 280.888285 
L 493.942786 280.829381 
L 496.257691 281.880923 
L 498.688341 281.071541 
L 501.350481 281.350061 
L 503.202405 281.735481 
L 505.980291 280.799566 
L 508.295195 280.474504 
L 510.841591 280.577767 
L 514.082457 281.094812 
L 515.008419 281.179168 
L 517.091833 281.120264 
L 519.406738 282.203803 
L 521.953133 281.793658 
L 524.499529 280.945007 
L 526.582943 280.439598 
L 528.666357 279.49641 
L 530.981262 280.127626 
L 533.296167 279.205528 
L 535.611072 279.860741 
L 538.620448 279.001182 
L 541.051098 277.967094 
L 542.555786 277.314789 
L 545.333671 278.076175 
L 548.806029 278.402691 
L 550.194971 278.386692 
L 551.93115 278.353968 
L 554.3618 278.852105 
L 556.56096 278.805564 
L 558.875864 279.425871 
L 562.695457 279.055723 
L 563.505674 278.928462 
L 566.51505 277.911826 
L 568.251229 277.588219 
L 571.029114 277.659485 
L 573.344019 277.617307 
L 575.195943 277.823834 
L 577.510848 278.460867 
L 580.057243 278.50959 
L 582.372148 278.107445 
L 584.687052 277.4915 
L 587.233448 277.274793 
L 588.969626 277.198436 
L 591.400276 276.525042 
L 595.104124 276.182528 
L 596.261576 275.925823 
L 598.34499 275.384054 
L 600.54415 275.490954 
L 604.479488 277.104626 
L 605.173959 277.274793 
L 608.993552 277.384601 
L 609.803769 277.359149 
L 612.118674 276.869011 
L 614.317833 277.081356 
L 616.748483 276.256703 
L 621.494038 276.346876 
L 623.461707 276.830469 
L 626.008102 275.162256 
L 628.323007 274.541948 
L 630.985147 274.765201 
L 632.952816 274.565219 
L 635.151976 273.800197 
L 637.698371 274.029994 
L 639.781786 273.832194 
L 642.09669 274.632849 
L 644.411595 274.308515 
L 646.7265 275.836377 
L 650.661838 276.221069 
L 653.671214 276.322151 
L 657.838043 273.828558 
L 658.416769 273.623486 
L 661.078909 273.567491 
L 663.046578 273.723113 
L 665.477228 273.224976 
L 667.560643 273.291879 
L 670.685764 272.035265 
L 672.421943 271.399686 
L 676.357281 269.05008 
L 676.820262 268.831191 
L 679.135166 268.613756 
L 683.301995 266.120162 
L 683.880721 265.91509 
L 686.311371 265.672203 
L 688.626276 265.057713 
L 691.404162 264.954449 
L 694.645028 264.437405 
L 695.57099 264.375593 
L 698.117385 264.584301 
L 700.43229 264.550122 
L 702.515704 264.721743 
L 705.29359 264.475947 
L 707.608495 264.372684 
L 710.849362 264.075256 
L 711.775323 263.926906 
L 713.858738 263.344413 
L 716.173642 263.862184 
L 718.488547 263.384409 
L 720.803452 264.573393 
L 723.234102 263.74874 
L 725.780497 263.659294 
L 727.863911 263.35823 
L 730.294561 263.703653 
L 733.072447 263.457857 
L 734.808626 263.534214 
L 738.628219 264.624297 
L 739.55418 264.744287 
L 744.646971 264.527579 
L 746.961876 264.776284 
L 751.591685 265.545669 
L 754.832552 265.639479 
L 766.407076 265.749287 
L 770.110923 265.87873 
L 771.847102 265.678021 
L 774.162007 264.751559 
L 776.824147 264.473038 
L 778.907561 264.039623 
L 781.106721 264.146522 
L 783.421626 265.057713 
L 785.852276 265.147887 
L 790.250595 266.173249 
L 792.449754 265.355141 
L 794.880404 266.633571 
L 797.311054 266.28233 
L 799.510214 266.739016 
L 801.940864 265.624207 
L 805.760456 265.274421 
L 806.917909 265.017716 
L 809.464304 264.114525 
L 811.200483 263.442586 
L 814.094114 263.157521 
L 818.723923 262.181609 
L 820.807337 261.638385 
L 823.353733 261.21515 
L 825.205656 260.862455 
L 827.404816 260.924267 
L 829.719721 260.449401 
L 832.034625 260.794097 
L 834.233785 260.459582 
L 836.78018 261.466764 
L 839.095085 261.847821 
L 842.914678 263.17061 
L 844.187875 263.467311 
L 845.808309 263.708744 
L 848.123213 263.05353 
L 850.901099 263.640386 
L 853.216004 263.89709 
L 855.067928 264.298509 
L 857.614323 263.771283 
L 859.929228 263.826551 
L 862.244133 263.300053 
L 864.327547 262.463765 
L 866.758197 262.815006 
L 870.57779 261.745284 
L 871.735242 261.492943 
L 873.702911 261.154065 
L 876.017816 260.097433 
L 878.448466 259.854546 
L 880.647625 259.072071 
L 882.846785 257.624202 
L 885.277435 257.425674 
L 887.59234 258.045982 
L 890.25448 257.822729 
L 892.222149 257.839455 
L 894.652799 257.035891 
L 897.430685 256.758098 
L 899.166863 256.537754 
L 901.481768 257.027892 
L 903.680928 256.823546 
L 906.343068 257.875088 
L 908.773718 258.221966 
L 910.857132 258.131792 
L 912.940547 257.720193 
L 915.255451 259.062617 
L 917.686101 258.558663 
L 920.116751 258.926629 
L 922.431656 258.691014 
L 924.630816 258.091796 
L 927.292956 258.370316 
L 929.37637 258.781188 
L 931.922766 258.732465 
L 933.890435 258.903359 
L 936.321085 258.535392 
L 939.09897 258.606658 
L 940.835149 258.573934 
L 943.150054 259.0488 
L 945.580704 258.500486 
L 947.895608 257.595113 
L 950.442004 257.386405 
L 953.914361 257.714375 
L 954.724577 257.739827 
L 957.155227 257.191513 
L 959.238642 256.339227 
L 961.785037 256.589386 
L 964.099942 257.203876 
L 966.530592 257.293322 
L 969.192732 257.691832 
L 970.928911 257.724556 
L 973.591051 257.166788 
L 977.063408 256.838818 
L 977.98937 256.812638 
L 980.072785 256.99444 
L 982.387689 255.950898 
L 984.702594 256.872997 
L 987.133244 256.017801 
L 989.448149 254.509573 
L 991.878799 253.858723 
L 994.077958 253.767095 
L 996.740099 252.874812 
L 1001.138418 252.158513 
L 1003.684813 252.367221 
L 1006.231208 252.310499 
L 1007.967387 252.312681 
L 1012.944432 250.547749 
L 1015.027846 250.267774 
L 1018.731694 250.842995 
L 1019.889146 250.949894 
L 1021.856815 250.873538 
L 1025.676408 249.563838 
L 1026.37088 249.398034 
L 1028.80153 250.405944 
L 1031.116434 252.013799 
L 1035.861989 252.795546 
L 1038.061149 252.626107 
L 1040.260308 253.212963 
L 1042.575213 252.129424 
L 1045.005863 252.511208 
L 1047.205022 253.358404 
L 1049.519927 252.290864 
L 1052.066322 252.840633 
L 1054.496972 252.930079 
L 1056.464641 253.212963 
L 1059.589763 251.760003 
L 1061.210196 251.240777 
L 1063.409356 251.152785 
L 1065.840006 249.564565 
L 1068.502146 248.839539 
L 1070.58556 248.667918 
L 1073.131956 248.876627 
L 1075.678351 248.819905 
L 1078.919218 248.913714 
L 1079.729434 248.806815 
L 1082.391575 247.747274 
L 1084.243499 247.345856 
L 1086.558403 247.823631 
L 1088.873308 246.586652 
L 1096.512494 246.483388 
L 1100.447832 245.916894 
L 1102.762737 244.421029 
L 1107.276801 244.974433 
L 1109.823196 242.407392 
L 1112.253846 241.451115 
L 1115.957694 240.875894 
L 1116.76791 240.83008 
L 1119.082815 241.320218 
L 1121.39772 241.120963 
L 1123.596879 241.577649 
L 1126.027529 240.447569 
L 1128.342434 240.233043 
L 1130.541594 240.583557 
L 1132.856498 239.936342 
L 1135.402894 240.623553 
L 1137.370563 240.635189 
L 1140.148448 243.278586 
L 1142.694844 244.905349 
L 1145.241239 246.303041 
L 1146.745927 247.13642 
L 1148.945086 246.596105 
L 1151.375736 248.485389 
L 1153.806386 248.561746 
L 1156.121291 248.08688 
L 1158.551941 248.454847 
L 1160.635355 248.395943 
L 1162.95026 249.455484 
L 1165.265165 248.792271 
L 1171.515408 250.080155 
L 1177.53416 251.489482 
L 1179.386084 251.632015 
L 1181.353753 251.394945 
L 1183.784403 253.099519 
L 1186.330798 252.572294 
L 1188.414213 252.767185 
L 1190.844863 254.034707 
L 1193.044022 254.231053 
L 1196.169143 252.778093 
L 1197.789577 252.274139 
L 1200.451717 252.330134 
L 1202.072151 252.126516 
L 1202.072151 252.126516 
" style="fill:none;stroke:#1f77b4;stroke-linecap:square;stroke-width:1.5;"/>
   </g>
   <g id="patch_3">
    <path d="M 87.329766 303.8 
L 87.329766 46.6 
" style="fill:none;stroke:#000000;stroke-linecap:square;stroke-linejoin:miter;stroke-width:0.8;"/>
   </g>
   <g id="patch_4">
    <path d="M 1418.4 303.8 
L 1418.4 46.6 
" style="fill:none;stroke:#000000;stroke-linecap:square;stroke-linejoin:miter;stroke-width:0.8;"/>
   </g>
   <g id="patch_5">
    <path d="M 87.329766 303.8 
L 1418.4 303.8 
" style="fill:none;stroke:#000000;stroke-linecap:square;stroke-linejoin:miter;stroke-width:0.8;"/>
   </g>
   <g id="patch_6">
    <path d="M 87.329766 46.6 
L 1418.4 46.6 
" style="fill:none;stroke:#000000;stroke-linecap:square;stroke-linejoin:miter;stroke-width:0.8;"/>
   </g>
   <g id="text_14">
    <!-- Avg. Last 10 Rewards: 19.0 || env_2_0 || Elapsed Time: 0:30:02 -->
    <defs>
     <path d="M 34.1875 63.1875 
L 20.796875 26.90625 
L 47.609375 26.90625 
z
M 28.609375 72.90625 
L 39.796875 72.90625 
L 67.578125 0 
L 57.328125 0 
L 50.6875 18.703125 
L 17.828125 18.703125 
L 11.1875 0 
L 0.78125 0 
z
" id="DejaVuSans-65"/>
     <path d="M 2.984375 54.6875 
L 12.5 54.6875 
L 29.59375 8.796875 
L 46.6875 54.6875 
L 56.203125 54.6875 
L 35.6875 0 
L 23.484375 0 
z
" id="DejaVuSans-118"/>
     <path d="M 45.40625 27.984375 
Q 45.40625 37.75 41.375 43.109375 
Q 37.359375 48.484375 30.078125 48.484375 
Q 22.859375 48.484375 18.828125 43.109375 
Q 14.796875 37.75 14.796875 27.984375 
Q 14.796875 18.265625 18.828125 12.890625 
Q 22.859375 7.515625 30.078125 7.515625 
Q 37.359375 7.515625 41.375 12.890625 
Q 45.40625 18.265625 45.40625 27.984375 
z
M 54.390625 6.78125 
Q 54.390625 -7.171875 48.1875 -13.984375 
Q 42 -20.796875 29.203125 -20.796875 
Q 24.46875 -20.796875 20.265625 -20.09375 
Q 16.0625 -19.390625 12.109375 -17.921875 
L 12.109375 -9.1875 
Q 16.0625 -11.328125 19.921875 -12.34375 
Q 23.78125 -13.375 27.78125 -13.375 
Q 36.625 -13.375 41.015625 -8.765625 
Q 45.40625 -4.15625 45.40625 5.171875 
L 45.40625 9.625 
Q 42.625 4.78125 38.28125 2.390625 
Q 33.9375 0 27.875 0 
Q 17.828125 0 11.671875 7.65625 
Q 5.515625 15.328125 5.515625 27.984375 
Q 5.515625 40.671875 11.671875 48.328125 
Q 17.828125 56 27.875 56 
Q 33.9375 56 38.28125 53.609375 
Q 42.625 51.21875 45.40625 46.390625 
L 45.40625 54.6875 
L 54.390625 54.6875 
z
" id="DejaVuSans-103"/>
     <path d="M 10.6875 12.40625 
L 21 12.40625 
L 21 0 
L 10.6875 0 
z
" id="DejaVuSans-46"/>
     <path id="DejaVuSans-32"/>
     <path d="M 9.8125 72.90625 
L 19.671875 72.90625 
L 19.671875 8.296875 
L 55.171875 8.296875 
L 55.171875 0 
L 9.8125 0 
z
" id="DejaVuSans-76"/>
     <path d="M 11.71875 12.40625 
L 22.015625 12.40625 
L 22.015625 0 
L 11.71875 0 
z
M 11.71875 51.703125 
L 22.015625 51.703125 
L 22.015625 39.3125 
L 11.71875 39.3125 
z
" id="DejaVuSans-58"/>
     <path d="M 10.984375 1.515625 
L 10.984375 10.5 
Q 14.703125 8.734375 18.5 7.8125 
Q 22.3125 6.890625 25.984375 6.890625 
Q 35.75 6.890625 40.890625 13.453125 
Q 46.046875 20.015625 46.78125 33.40625 
Q 43.953125 29.203125 39.59375 26.953125 
Q 35.25 24.703125 29.984375 24.703125 
Q 19.046875 24.703125 12.671875 31.3125 
Q 6.296875 37.9375 6.296875 49.421875 
Q 6.296875 60.640625 12.9375 67.421875 
Q 19.578125 74.21875 30.609375 74.21875 
Q 43.265625 74.21875 49.921875 64.515625 
Q 56.59375 54.828125 56.59375 36.375 
Q 56.59375 19.140625 48.40625 8.859375 
Q 40.234375 -1.421875 26.421875 -1.421875 
Q 22.703125 -1.421875 18.890625 -0.6875 
Q 15.09375 0.046875 10.984375 1.515625 
z
M 30.609375 32.421875 
Q 37.25 32.421875 41.125 36.953125 
Q 45.015625 41.5 45.015625 49.421875 
Q 45.015625 57.28125 41.125 61.84375 
Q 37.25 66.40625 30.609375 66.40625 
Q 23.96875 66.40625 20.09375 61.84375 
Q 16.21875 57.28125 16.21875 49.421875 
Q 16.21875 41.5 20.09375 36.953125 
Q 23.96875 32.421875 30.609375 32.421875 
z
" id="DejaVuSans-57"/>
     <path d="M 21 76.421875 
L 21 -23.578125 
L 12.703125 -23.578125 
L 12.703125 76.421875 
z
" id="DejaVuSans-124"/>
     <path d="M 54.890625 33.015625 
L 54.890625 0 
L 45.90625 0 
L 45.90625 32.71875 
Q 45.90625 40.484375 42.875 44.328125 
Q 39.84375 48.1875 33.796875 48.1875 
Q 26.515625 48.1875 22.3125 43.546875 
Q 18.109375 38.921875 18.109375 30.90625 
L 18.109375 0 
L 9.078125 0 
L 9.078125 54.6875 
L 18.109375 54.6875 
L 18.109375 46.1875 
Q 21.34375 51.125 25.703125 53.5625 
Q 30.078125 56 35.796875 56 
Q 45.21875 56 50.046875 50.171875 
Q 54.890625 44.34375 54.890625 33.015625 
z
" id="DejaVuSans-110"/>
     <path d="M 50.984375 -16.609375 
L 50.984375 -23.578125 
L -0.984375 -23.578125 
L -0.984375 -16.609375 
z
" id="DejaVuSans-95"/>
     <path d="M 9.8125 72.90625 
L 55.90625 72.90625 
L 55.90625 64.59375 
L 19.671875 64.59375 
L 19.671875 43.015625 
L 54.390625 43.015625 
L 54.390625 34.71875 
L 19.671875 34.71875 
L 19.671875 8.296875 
L 56.78125 8.296875 
L 56.78125 0 
L 9.8125 0 
z
" id="DejaVuSans-69"/>
     <path d="M 9.421875 75.984375 
L 18.40625 75.984375 
L 18.40625 0 
L 9.421875 0 
z
" id="DejaVuSans-108"/>
    </defs>
    <g transform="translate(374.384883 40.6)scale(0.24 -0.24)">
     <use xlink:href="#DejaVuSans-65"/>
     <use x="62.533203" xlink:href="#DejaVuSans-118"/>
     <use x="121.712891" xlink:href="#DejaVuSans-103"/>
     <use x="185.189453" xlink:href="#DejaVuSans-46"/>
     <use x="216.976562" xlink:href="#DejaVuSans-32"/>
     <use x="248.763672" xlink:href="#DejaVuSans-76"/>
     <use x="304.476562" xlink:href="#DejaVuSans-97"/>
     <use x="365.755859" xlink:href="#DejaVuSans-115"/>
     <use x="417.855469" xlink:href="#DejaVuSans-116"/>
     <use x="457.064453" xlink:href="#DejaVuSans-32"/>
     <use x="488.851562" xlink:href="#DejaVuSans-49"/>
     <use x="552.474609" xlink:href="#DejaVuSans-48"/>
     <use x="616.097656" xlink:href="#DejaVuSans-32"/>
     <use x="647.884766" xlink:href="#DejaVuSans-82"/>
     <use x="712.867188" xlink:href="#DejaVuSans-101"/>
     <use x="774.390625" xlink:href="#DejaVuSans-119"/>
     <use x="856.177734" xlink:href="#DejaVuSans-97"/>
     <use x="917.457031" xlink:href="#DejaVuSans-114"/>
     <use x="956.820312" xlink:href="#DejaVuSans-100"/>
     <use x="1020.296875" xlink:href="#DejaVuSans-115"/>
     <use x="1072.396484" xlink:href="#DejaVuSans-58"/>
     <use x="1106.087891" xlink:href="#DejaVuSans-32"/>
     <use x="1137.875" xlink:href="#DejaVuSans-49"/>
     <use x="1201.498047" xlink:href="#DejaVuSans-57"/>
     <use x="1265.121094" xlink:href="#DejaVuSans-46"/>
     <use x="1296.908203" xlink:href="#DejaVuSans-48"/>
     <use x="1360.53125" xlink:href="#DejaVuSans-32"/>
     <use x="1392.318359" xlink:href="#DejaVuSans-124"/>
     <use x="1426.009766" xlink:href="#DejaVuSans-124"/>
     <use x="1459.701172" xlink:href="#DejaVuSans-32"/>
     <use x="1491.488281" xlink:href="#DejaVuSans-101"/>
     <use x="1553.011719" xlink:href="#DejaVuSans-110"/>
     <use x="1616.390625" xlink:href="#DejaVuSans-118"/>
     <use x="1675.570312" xlink:href="#DejaVuSans-95"/>
     <use x="1725.570312" xlink:href="#DejaVuSans-50"/>
     <use x="1789.193359" xlink:href="#DejaVuSans-95"/>
     <use x="1839.193359" xlink:href="#DejaVuSans-48"/>
     <use x="1902.816406" xlink:href="#DejaVuSans-32"/>
     <use x="1934.603516" xlink:href="#DejaVuSans-124"/>
     <use x="1968.294922" xlink:href="#DejaVuSans-124"/>
     <use x="2001.986328" xlink:href="#DejaVuSans-32"/>
     <use x="2033.773438" xlink:href="#DejaVuSans-69"/>
     <use x="2096.957031" xlink:href="#DejaVuSans-108"/>
     <use x="2124.740234" xlink:href="#DejaVuSans-97"/>
     <use x="2186.019531" xlink:href="#DejaVuSans-112"/>
     <use x="2249.496094" xlink:href="#DejaVuSans-115"/>
     <use x="2301.595703" xlink:href="#DejaVuSans-101"/>
     <use x="2363.119141" xlink:href="#DejaVuSans-100"/>
     <use x="2426.595703" xlink:href="#DejaVuSans-32"/>
     <use x="2458.382812" xlink:href="#DejaVuSans-84"/>
     <use x="2516.341797" xlink:href="#DejaVuSans-105"/>
     <use x="2544.125" xlink:href="#DejaVuSans-109"/>
     <use x="2641.537109" xlink:href="#DejaVuSans-101"/>
     <use x="2703.060547" xlink:href="#DejaVuSans-58"/>
     <use x="2736.751953" xlink:href="#DejaVuSans-32"/>
     <use x="2768.539062" xlink:href="#DejaVuSans-48"/>
     <use x="2832.162109" xlink:href="#DejaVuSans-58"/>
     <use x="2865.853516" xlink:href="#DejaVuSans-51"/>
     <use x="2929.476562" xlink:href="#DejaVuSans-48"/>
     <use x="2993.099609" xlink:href="#DejaVuSans-58"/>
     <use x="3026.791016" xlink:href="#DejaVuSans-48"/>
     <use x="3090.414062" xlink:href="#DejaVuSans-50"/>
    </g>
   </g>
   <g id="legend_1">
    <g id="patch_7">
     <path d="M 1304.036719 296.3 
L 1407.9 296.3 
Q 1410.9 296.3 1410.9 293.3 
L 1410.9 272.782813 
Q 1410.9 269.782813 1407.9 269.782813 
L 1304.036719 269.782813 
Q 1301.036719 269.782813 1301.036719 272.782813 
L 1301.036719 293.3 
Q 1301.036719 296.3 1304.036719 296.3 
z
" style="fill:#ffffff;opacity:0.8;stroke:#cccccc;stroke-linejoin:miter;"/>
    </g>
    <g id="line2d_13">
     <path d="M 1307.036719 281.930469 
L 1337.036719 281.930469 
" style="fill:none;stroke:#1f77b4;stroke-linecap:square;stroke-width:1.5;"/>
    </g>
    <g id="line2d_14"/>
    <g id="text_15">
     <!-- Reward -->
     <g transform="translate(1349.036719 287.180469)scale(0.15 -0.15)">
      <use xlink:href="#DejaVuSans-82"/>
      <use x="64.982422" xlink:href="#DejaVuSans-101"/>
      <use x="126.505859" xlink:href="#DejaVuSans-119"/>
      <use x="208.292969" xlink:href="#DejaVuSans-97"/>
      <use x="269.572266" xlink:href="#DejaVuSans-114"/>
      <use x="308.935547" xlink:href="#DejaVuSans-100"/>
     </g>
    </g>
   </g>
  </g>
  <g id="axes_2">
   <g id="patch_8">
    <path d="M 87.329766 656.6 
L 1418.4 656.6 
L 1418.4 399.4 
L 87.329766 399.4 
z
" style="fill:#ffffff;"/>
   </g>
   <g id="matplotlib.axis_3">
    <g id="xtick_7">
     <g id="line2d_15">
      <g>
       <use style="stroke:#000000;stroke-width:0.8;" x="203.075003" xlink:href="#m2a0d63b1f4" y="656.6"/>
      </g>
     </g>
     <g id="text_16">
      <!-- 1e+04 -->
      <g transform="translate(169.454691 678.796875)scale(0.2 -0.2)">
       <use xlink:href="#DejaVuSans-49"/>
       <use x="63.623047" xlink:href="#DejaVuSans-101"/>
       <use x="125.146484" xlink:href="#DejaVuSans-43"/>
       <use x="208.935547" xlink:href="#DejaVuSans-48"/>
       <use x="272.558594" xlink:href="#DejaVuSans-52"/>
      </g>
     </g>
    </g>
    <g id="xtick_8">
     <g id="line2d_16">
      <g>
       <use style="stroke:#000000;stroke-width:0.8;" x="318.820241" xlink:href="#m2a0d63b1f4" y="656.6"/>
      </g>
     </g>
     <g id="text_17">
      <!-- 2e+04 -->
      <g transform="translate(285.199929 678.796875)scale(0.2 -0.2)">
       <use xlink:href="#DejaVuSans-50"/>
       <use x="63.623047" xlink:href="#DejaVuSans-101"/>
       <use x="125.146484" xlink:href="#DejaVuSans-43"/>
       <use x="208.935547" xlink:href="#DejaVuSans-48"/>
       <use x="272.558594" xlink:href="#DejaVuSans-52"/>
      </g>
     </g>
    </g>
    <g id="xtick_9">
     <g id="line2d_17">
      <g>
       <use style="stroke:#000000;stroke-width:0.8;" x="550.310717" xlink:href="#m2a0d63b1f4" y="656.6"/>
      </g>
     </g>
     <g id="text_18">
      <!-- 4e+04 -->
      <g transform="translate(516.690404 678.796875)scale(0.2 -0.2)">
       <use xlink:href="#DejaVuSans-52"/>
       <use x="63.623047" xlink:href="#DejaVuSans-101"/>
       <use x="125.146484" xlink:href="#DejaVuSans-43"/>
       <use x="208.935547" xlink:href="#DejaVuSans-48"/>
       <use x="272.558594" xlink:href="#DejaVuSans-52"/>
      </g>
     </g>
    </g>
    <g id="xtick_10">
     <g id="line2d_18">
      <g>
       <use style="stroke:#000000;stroke-width:0.8;" x="781.801192" xlink:href="#m2a0d63b1f4" y="656.6"/>
      </g>
     </g>
     <g id="text_19">
      <!-- 6e+04 -->
      <g transform="translate(748.18088 678.796875)scale(0.2 -0.2)">
       <use xlink:href="#DejaVuSans-54"/>
       <use x="63.623047" xlink:href="#DejaVuSans-101"/>
       <use x="125.146484" xlink:href="#DejaVuSans-43"/>
       <use x="208.935547" xlink:href="#DejaVuSans-48"/>
       <use x="272.558594" xlink:href="#DejaVuSans-52"/>
      </g>
     </g>
    </g>
    <g id="xtick_11">
     <g id="line2d_19">
      <g>
       <use style="stroke:#000000;stroke-width:0.8;" x="1013.291668" xlink:href="#m2a0d63b1f4" y="656.6"/>
      </g>
     </g>
     <g id="text_20">
      <!-- 8e+04 -->
      <g transform="translate(979.671355 678.796875)scale(0.2 -0.2)">
       <use xlink:href="#DejaVuSans-56"/>
       <use x="63.623047" xlink:href="#DejaVuSans-101"/>
       <use x="125.146484" xlink:href="#DejaVuSans-43"/>
       <use x="208.935547" xlink:href="#DejaVuSans-48"/>
       <use x="272.558594" xlink:href="#DejaVuSans-52"/>
      </g>
     </g>
    </g>
    <g id="xtick_12">
     <g id="line2d_20">
      <g>
       <use style="stroke:#000000;stroke-width:0.8;" x="1244.782143" xlink:href="#m2a0d63b1f4" y="656.6"/>
      </g>
     </g>
     <g id="text_21">
      <!-- 1e+05 -->
      <g transform="translate(1211.161831 678.796875)scale(0.2 -0.2)">
       <use xlink:href="#DejaVuSans-49"/>
       <use x="63.623047" xlink:href="#DejaVuSans-101"/>
       <use x="125.146484" xlink:href="#DejaVuSans-43"/>
       <use x="208.935547" xlink:href="#DejaVuSans-48"/>
       <use x="272.558594" xlink:href="#DejaVuSans-53"/>
      </g>
     </g>
    </g>
    <g id="text_22">
     <!-- Timestep -->
     <g transform="translate(706.766445 702.153125)scale(0.2 -0.2)">
      <use xlink:href="#DejaVuSans-84"/>
      <use x="57.958984" xlink:href="#DejaVuSans-105"/>
      <use x="85.742188" xlink:href="#DejaVuSans-109"/>
      <use x="183.154297" xlink:href="#DejaVuSans-101"/>
      <use x="244.677734" xlink:href="#DejaVuSans-115"/>
      <use x="296.777344" xlink:href="#DejaVuSans-116"/>
      <use x="335.986328" xlink:href="#DejaVuSans-101"/>
      <use x="397.509766" xlink:href="#DejaVuSans-112"/>
     </g>
    </g>
   </g>
   <g id="matplotlib.axis_4">
    <g id="ytick_6">
     <g id="line2d_21">
      <defs>
       <path d="M 0 0 
L -3.5 0 
" id="me0f0223a4b" style="stroke:#ff0000;stroke-width:0.8;"/>
      </defs>
      <g>
       <use style="fill:#ff0000;stroke:#ff0000;stroke-width:0.8;" x="87.329766" xlink:href="#me0f0223a4b" y="569.384791"/>
      </g>
     </g>
     <g id="text_23">
      <!-- $\mathdefault{10^{-2}}$ -->
      <defs>
       <path d="M 10.59375 35.5 
L 73.1875 35.5 
L 73.1875 27.203125 
L 10.59375 27.203125 
z
" id="DejaVuSans-8722"/>
      </defs>
      <g style="fill:#ff0000;" transform="translate(45.079766 575.08362)scale(0.15 -0.15)">
       <use transform="translate(0 0.765625)" xlink:href="#DejaVuSans-49"/>
       <use transform="translate(63.623047 0.765625)" xlink:href="#DejaVuSans-48"/>
       <use transform="translate(128.203125 39.046875)scale(0.7)" xlink:href="#DejaVuSans-8722"/>
       <use transform="translate(186.855469 39.046875)scale(0.7)" xlink:href="#DejaVuSans-50"/>
      </g>
     </g>
    </g>
    <g id="ytick_7">
     <g id="line2d_22">
      <g>
       <use style="fill:#ff0000;stroke:#ff0000;stroke-width:0.8;" x="87.329766" xlink:href="#me0f0223a4b" y="450.362014"/>
      </g>
     </g>
     <g id="text_24">
      <!-- $\mathdefault{10^{-1}}$ -->
      <g style="fill:#ff0000;" transform="translate(45.079766 456.060842)scale(0.15 -0.15)">
       <use transform="translate(0 0.684375)" xlink:href="#DejaVuSans-49"/>
       <use transform="translate(63.623047 0.684375)" xlink:href="#DejaVuSans-48"/>
       <use transform="translate(128.203125 38.965625)scale(0.7)" xlink:href="#DejaVuSans-8722"/>
       <use transform="translate(186.855469 38.965625)scale(0.7)" xlink:href="#DejaVuSans-49"/>
      </g>
     </g>
    </g>
    <g id="ytick_8">
     <g id="line2d_23">
      <defs>
       <path d="M 0 0 
L -2 0 
" id="m3133bf9ceb" style="stroke:#000000;stroke-width:0.6;"/>
      </defs>
      <g>
       <use style="stroke:#000000;stroke-width:0.6;" x="87.329766" xlink:href="#m3133bf9ceb" y="652.578143"/>
      </g>
     </g>
    </g>
    <g id="ytick_9">
     <g id="line2d_24">
      <g>
       <use style="stroke:#000000;stroke-width:0.6;" x="87.329766" xlink:href="#m3133bf9ceb" y="631.619272"/>
      </g>
     </g>
    </g>
    <g id="ytick_10">
     <g id="line2d_25">
      <g>
       <use style="stroke:#000000;stroke-width:0.6;" x="87.329766" xlink:href="#m3133bf9ceb" y="616.748716"/>
      </g>
     </g>
    </g>
    <g id="ytick_11">
     <g id="line2d_26">
      <g>
       <use style="stroke:#000000;stroke-width:0.6;" x="87.329766" xlink:href="#m3133bf9ceb" y="605.214218"/>
      </g>
     </g>
    </g>
    <g id="ytick_12">
     <g id="line2d_27">
      <g>
       <use style="stroke:#000000;stroke-width:0.6;" x="87.329766" xlink:href="#m3133bf9ceb" y="595.789846"/>
      </g>
     </g>
    </g>
    <g id="ytick_13">
     <g id="line2d_28">
      <g>
       <use style="stroke:#000000;stroke-width:0.6;" x="87.329766" xlink:href="#m3133bf9ceb" y="587.821653"/>
      </g>
     </g>
    </g>
    <g id="ytick_14">
     <g id="line2d_29">
      <g>
       <use style="stroke:#000000;stroke-width:0.6;" x="87.329766" xlink:href="#m3133bf9ceb" y="580.91929"/>
      </g>
     </g>
    </g>
    <g id="ytick_15">
     <g id="line2d_30">
      <g>
       <use style="stroke:#000000;stroke-width:0.6;" x="87.329766" xlink:href="#m3133bf9ceb" y="574.830975"/>
      </g>
     </g>
    </g>
    <g id="ytick_16">
     <g id="line2d_31">
      <g>
       <use style="stroke:#000000;stroke-width:0.6;" x="87.329766" xlink:href="#m3133bf9ceb" y="533.555365"/>
      </g>
     </g>
    </g>
    <g id="ytick_17">
     <g id="line2d_32">
      <g>
       <use style="stroke:#000000;stroke-width:0.6;" x="87.329766" xlink:href="#m3133bf9ceb" y="512.596495"/>
      </g>
     </g>
    </g>
    <g id="ytick_18">
     <g id="line2d_33">
      <g>
       <use style="stroke:#000000;stroke-width:0.6;" x="87.329766" xlink:href="#m3133bf9ceb" y="497.725939"/>
      </g>
     </g>
    </g>
    <g id="ytick_19">
     <g id="line2d_34">
      <g>
       <use style="stroke:#000000;stroke-width:0.6;" x="87.329766" xlink:href="#m3133bf9ceb" y="486.19144"/>
      </g>
     </g>
    </g>
    <g id="ytick_20">
     <g id="line2d_35">
      <g>
       <use style="stroke:#000000;stroke-width:0.6;" x="87.329766" xlink:href="#m3133bf9ceb" y="476.767068"/>
      </g>
     </g>
    </g>
    <g id="ytick_21">
     <g id="line2d_36">
      <g>
       <use style="stroke:#000000;stroke-width:0.6;" x="87.329766" xlink:href="#m3133bf9ceb" y="468.798876"/>
      </g>
     </g>
    </g>
    <g id="ytick_22">
     <g id="line2d_37">
      <g>
       <use style="stroke:#000000;stroke-width:0.6;" x="87.329766" xlink:href="#m3133bf9ceb" y="461.896513"/>
      </g>
     </g>
    </g>
    <g id="ytick_23">
     <g id="line2d_38">
      <g>
       <use style="stroke:#000000;stroke-width:0.6;" x="87.329766" xlink:href="#m3133bf9ceb" y="455.808198"/>
      </g>
     </g>
    </g>
    <g id="ytick_24">
     <g id="line2d_39">
      <g>
       <use style="stroke:#000000;stroke-width:0.6;" x="87.329766" xlink:href="#m3133bf9ceb" y="414.532588"/>
      </g>
     </g>
    </g>
    <g id="text_25">
     <!-- Avg .Temporal Difference -->
     <defs>
      <path d="M 30.609375 48.390625 
Q 23.390625 48.390625 19.1875 42.75 
Q 14.984375 37.109375 14.984375 27.296875 
Q 14.984375 17.484375 19.15625 11.84375 
Q 23.34375 6.203125 30.609375 6.203125 
Q 37.796875 6.203125 41.984375 11.859375 
Q 46.1875 17.53125 46.1875 27.296875 
Q 46.1875 37.015625 41.984375 42.703125 
Q 37.796875 48.390625 30.609375 48.390625 
z
M 30.609375 56 
Q 42.328125 56 49.015625 48.375 
Q 55.71875 40.765625 55.71875 27.296875 
Q 55.71875 13.875 49.015625 6.21875 
Q 42.328125 -1.421875 30.609375 -1.421875 
Q 18.84375 -1.421875 12.171875 6.21875 
Q 5.515625 13.875 5.515625 27.296875 
Q 5.515625 40.765625 12.171875 48.375 
Q 18.84375 56 30.609375 56 
z
" id="DejaVuSans-111"/>
      <path d="M 19.671875 64.796875 
L 19.671875 8.109375 
L 31.59375 8.109375 
Q 46.6875 8.109375 53.6875 14.9375 
Q 60.6875 21.78125 60.6875 36.53125 
Q 60.6875 51.171875 53.6875 57.984375 
Q 46.6875 64.796875 31.59375 64.796875 
z
M 9.8125 72.90625 
L 30.078125 72.90625 
Q 51.265625 72.90625 61.171875 64.09375 
Q 71.09375 55.28125 71.09375 36.53125 
Q 71.09375 17.671875 61.125 8.828125 
Q 51.171875 0 30.078125 0 
L 9.8125 0 
z
" id="DejaVuSans-68"/>
      <path d="M 37.109375 75.984375 
L 37.109375 68.5 
L 28.515625 68.5 
Q 23.6875 68.5 21.796875 66.546875 
Q 19.921875 64.59375 19.921875 59.515625 
L 19.921875 54.6875 
L 34.71875 54.6875 
L 34.71875 47.703125 
L 19.921875 47.703125 
L 19.921875 0 
L 10.890625 0 
L 10.890625 47.703125 
L 2.296875 47.703125 
L 2.296875 54.6875 
L 10.890625 54.6875 
L 10.890625 58.5 
Q 10.890625 67.625 15.140625 71.796875 
Q 19.390625 75.984375 28.609375 75.984375 
z
" id="DejaVuSans-102"/>
      <path d="M 48.78125 52.59375 
L 48.78125 44.1875 
Q 44.96875 46.296875 41.140625 47.34375 
Q 37.3125 48.390625 33.40625 48.390625 
Q 24.65625 48.390625 19.8125 42.84375 
Q 14.984375 37.3125 14.984375 27.296875 
Q 14.984375 17.28125 19.8125 11.734375 
Q 24.65625 6.203125 33.40625 6.203125 
Q 37.3125 6.203125 41.140625 7.25 
Q 44.96875 8.296875 48.78125 10.40625 
L 48.78125 2.09375 
Q 45.015625 0.34375 40.984375 -0.53125 
Q 36.96875 -1.421875 32.421875 -1.421875 
Q 20.0625 -1.421875 12.78125 6.34375 
Q 5.515625 14.109375 5.515625 27.296875 
Q 5.515625 40.671875 12.859375 48.328125 
Q 20.21875 56 33.015625 56 
Q 37.15625 56 41.109375 55.140625 
Q 45.0625 54.296875 48.78125 52.59375 
z
" id="DejaVuSans-99"/>
     </defs>
     <g style="fill:#ff0000;" transform="translate(36.920391 653.540625)rotate(-90)scale(0.2 -0.2)">
      <use xlink:href="#DejaVuSans-65"/>
      <use x="62.533203" xlink:href="#DejaVuSans-118"/>
      <use x="121.712891" xlink:href="#DejaVuSans-103"/>
      <use x="185.189453" xlink:href="#DejaVuSans-32"/>
      <use x="216.976562" xlink:href="#DejaVuSans-46"/>
      <use x="248.763672" xlink:href="#DejaVuSans-84"/>
      <use x="292.847656" xlink:href="#DejaVuSans-101"/>
      <use x="354.371094" xlink:href="#DejaVuSans-109"/>
      <use x="451.783203" xlink:href="#DejaVuSans-112"/>
      <use x="515.259766" xlink:href="#DejaVuSans-111"/>
      <use x="576.441406" xlink:href="#DejaVuSans-114"/>
      <use x="617.554688" xlink:href="#DejaVuSans-97"/>
      <use x="678.833984" xlink:href="#DejaVuSans-108"/>
      <use x="706.617188" xlink:href="#DejaVuSans-32"/>
      <use x="738.404297" xlink:href="#DejaVuSans-68"/>
      <use x="815.40625" xlink:href="#DejaVuSans-105"/>
      <use x="843.189453" xlink:href="#DejaVuSans-102"/>
      <use x="878.394531" xlink:href="#DejaVuSans-102"/>
      <use x="913.599609" xlink:href="#DejaVuSans-101"/>
      <use x="975.123047" xlink:href="#DejaVuSans-114"/>
      <use x="1013.986328" xlink:href="#DejaVuSans-101"/>
      <use x="1075.509766" xlink:href="#DejaVuSans-110"/>
      <use x="1138.888672" xlink:href="#DejaVuSans-99"/>
      <use x="1193.869141" xlink:href="#DejaVuSans-101"/>
     </g>
    </g>
   </g>
   <g id="line2d_40">
    <path clip-path="url(#p8f4bce74ef)" d="M 87.329766 470.110305 
L 88.487218 437.888864 
L 89.64467 418.190875 
L 90.802123 411.090909 
L 91.959575 414.496895 
L 95.431932 421.353155 
L 96.589385 422.755655 
L 97.746837 422.903733 
L 98.904289 427.684591 
L 100.061742 449.000333 
L 101.219194 466.690641 
L 102.376647 472.057984 
L 103.534099 470.972739 
L 104.691551 467.167439 
L 105.849004 470.755068 
L 107.006456 470.292765 
L 108.163908 470.860337 
L 109.321361 469.707785 
L 110.478813 472.099398 
L 111.636266 475.175724 
L 112.793718 480.665924 
L 113.95117 479.293586 
L 115.108623 480.933925 
L 116.266075 486.703118 
L 117.423527 484.577732 
L 118.58098 484.975825 
L 119.738432 481.432206 
L 120.895885 483.879841 
L 122.053337 484.189411 
L 123.210789 484.19049 
L 124.368242 489.420984 
L 125.525694 491.605891 
L 126.683146 494.852893 
L 127.840599 492.882654 
L 128.998051 495.966677 
L 130.155504 500.532248 
L 131.312956 499.876369 
L 132.470408 489.03486 
L 133.627861 491.811726 
L 134.785313 493.194961 
L 135.942765 490.980833 
L 137.100218 491.857695 
L 138.25767 495.298253 
L 139.415123 502.769695 
L 141.730027 507.114241 
L 142.88748 505.134787 
L 144.044932 508.038156 
L 145.202385 506.027096 
L 146.359837 504.66887 
L 147.517289 504.190758 
L 148.674742 505.161719 
L 150.989646 509.945889 
L 152.147099 511.503588 
L 153.304551 511.284742 
L 154.462004 508.400699 
L 155.619456 501.891364 
L 156.776908 499.592914 
L 157.934361 498.277547 
L 159.091813 496.737279 
L 160.249265 501.745234 
L 161.406718 505.790823 
L 163.721623 505.882055 
L 164.879075 505.544099 
L 166.036527 506.433178 
L 167.19398 507.110552 
L 168.351432 505.388362 
L 169.508884 506.105704 
L 170.666337 505.711963 
L 171.823789 502.706334 
L 172.981242 502.312767 
L 174.138694 506.879467 
L 175.296146 507.223955 
L 176.453599 508.279055 
L 177.611051 510.765699 
L 178.768503 510.03611 
L 181.083408 511.1534 
L 182.240861 510.783415 
L 183.398313 511.329862 
L 185.713218 517.61506 
L 186.87067 518.464118 
L 188.028122 518.921765 
L 190.343027 520.572355 
L 191.50048 521.315703 
L 193.815384 515.975582 
L 194.972837 517.547724 
L 196.130289 521.538376 
L 197.287742 526.281238 
L 198.445194 523.202337 
L 199.602646 524.800452 
L 200.760099 524.329801 
L 201.917551 525.187779 
L 203.075003 526.222244 
L 204.232456 519.819919 
L 205.389908 518.201859 
L 206.547361 517.856924 
L 207.704813 521.102147 
L 208.862265 526.434285 
L 210.019718 522.406098 
L 211.17717 522.421505 
L 212.334622 526.049213 
L 213.492075 527.244656 
L 214.649527 525.645608 
L 215.80698 522.548379 
L 216.964432 525.274328 
L 218.121884 528.459525 
L 219.279337 525.893859 
L 220.436789 527.516019 
L 221.594241 532.303241 
L 222.751694 532.720445 
L 223.909146 525.759993 
L 225.066599 530.961913 
L 226.224051 531.361814 
L 227.381503 527.997244 
L 228.538956 521.881365 
L 229.696408 527.012531 
L 230.85386 530.934368 
L 232.011313 527.64363 
L 233.168765 527.339508 
L 234.326218 525.547279 
L 235.48367 532.728889 
L 237.798575 530.358837 
L 238.956027 531.422706 
L 240.113479 523.754085 
L 241.270932 525.791462 
L 243.585837 532.601426 
L 244.743289 530.448758 
L 245.900741 530.86143 
L 247.058194 538.633634 
L 248.215646 536.547046 
L 249.373099 537.899861 
L 250.530551 532.067328 
L 251.688003 528.157911 
L 252.845456 530.431926 
L 254.002908 526.184086 
L 255.16036 525.64222 
L 256.317813 533.025455 
L 257.475265 533.618032 
L 258.632718 533.81005 
L 259.79017 533.633782 
L 260.947622 531.460988 
L 262.105075 531.077019 
L 263.262527 531.687138 
L 264.419979 533.53883 
L 265.577432 529.873738 
L 266.734884 530.704278 
L 267.892337 529.561188 
L 269.049789 533.791473 
L 270.207241 546.147055 
L 271.364694 550.754522 
L 272.522146 550.597472 
L 273.679598 549.808707 
L 274.837051 544.263504 
L 275.994503 549.535682 
L 277.151956 551.09487 
L 278.309408 551.472364 
L 279.46686 551.189099 
L 280.624313 551.540014 
L 281.781765 550.393162 
L 282.939217 552.599116 
L 284.09667 556.904709 
L 285.254122 552.903949 
L 286.411575 546.676281 
L 287.569027 548.40804 
L 288.726479 550.981465 
L 289.883932 551.710837 
L 291.041384 553.161745 
L 292.198836 552.461365 
L 293.356289 550.185627 
L 294.513741 549.167269 
L 295.671194 550.542199 
L 296.828646 550.260671 
L 297.986098 549.184091 
L 299.143551 552.009854 
L 300.301003 551.797478 
L 301.458456 552.455745 
L 302.615908 549.709487 
L 303.77336 547.434413 
L 304.930813 550.402483 
L 306.088265 555.201649 
L 307.245717 555.948662 
L 308.40317 549.229275 
L 309.560622 551.172981 
L 310.718075 549.270445 
L 311.875527 548.639795 
L 313.032979 551.242549 
L 314.190432 551.056391 
L 316.505336 552.769975 
L 317.662789 553.156383 
L 318.820241 553.986154 
L 319.977694 548.017351 
L 321.135146 545.784027 
L 322.292598 548.794359 
L 323.450051 552.637078 
L 324.607503 552.46433 
L 325.764955 550.678649 
L 326.922408 546.216104 
L 328.07986 551.405652 
L 329.237313 554.426112 
L 330.394765 550.915005 
L 331.552217 549.236938 
L 333.867122 548.761709 
L 335.024574 549.800625 
L 336.182027 552.022925 
L 337.339479 555.101559 
L 338.496932 554.283533 
L 339.654384 551.799793 
L 340.811836 554.297836 
L 341.969289 550.602992 
L 343.126741 548.179401 
L 344.284193 546.253752 
L 345.441646 548.721877 
L 346.599098 550.115167 
L 347.756551 549.43707 
L 348.914003 549.855816 
L 350.071455 547.638141 
L 351.228908 534.866445 
L 352.38636 536.253635 
L 353.543813 545.733991 
L 354.701265 546.784957 
L 355.858717 545.982091 
L 357.01617 548.528336 
L 358.173622 544.977826 
L 359.331074 549.963365 
L 360.488527 550.48173 
L 361.645979 550.148138 
L 362.803432 553.256091 
L 363.960884 549.238876 
L 365.118336 555.975596 
L 366.275789 552.045007 
L 367.433241 542.189635 
L 368.590693 545.912633 
L 369.748146 545.507795 
L 370.905598 548.980883 
L 372.063051 546.211796 
L 373.220503 548.087207 
L 374.377955 545.771914 
L 375.535408 549.821887 
L 376.69286 549.755844 
L 377.850312 546.819004 
L 379.007765 540.686937 
L 380.165217 541.077264 
L 381.32267 547.469339 
L 382.480122 543.454354 
L 383.637574 549.61178 
L 384.795027 551.807097 
L 385.952479 547.152972 
L 387.109931 543.358899 
L 388.267384 546.381892 
L 389.424836 540.110038 
L 390.582289 544.693544 
L 391.739741 548.455496 
L 392.897193 549.404924 
L 395.212098 549.634057 
L 396.36955 549.52439 
L 397.527003 549.824563 
L 398.684455 551.465186 
L 399.841908 551.064126 
L 400.99936 544.965104 
L 402.156812 545.184572 
L 404.471717 549.086291 
L 405.629169 554.049432 
L 407.944074 549.51906 
L 409.101527 553.093648 
L 410.258979 552.228125 
L 411.416431 548.028628 
L 412.573884 551.316402 
L 413.731336 555.519536 
L 414.888789 552.535683 
L 416.046241 550.952164 
L 417.203693 554.71418 
L 418.361146 551.482342 
L 419.518598 554.616756 
L 420.67605 558.101829 
L 421.833503 559.718177 
L 422.990955 559.377057 
L 424.148408 554.993094 
L 425.30586 555.400852 
L 426.463312 552.020161 
L 427.620765 552.504662 
L 428.778217 556.278842 
L 429.935669 557.735957 
L 431.093122 560.242001 
L 432.250574 553.378372 
L 433.408027 557.632237 
L 434.565479 558.923182 
L 435.722931 552.462132 
L 436.880384 550.063892 
L 438.037836 553.622732 
L 439.195288 556.51284 
L 440.352741 556.759259 
L 441.510193 557.264012 
L 442.667646 559.673819 
L 443.825098 560.605165 
L 447.297455 552.931991 
L 448.454907 549.015109 
L 449.61236 553.397376 
L 450.769812 552.933638 
L 451.927265 558.220399 
L 453.084717 559.760168 
L 454.242169 558.948289 
L 455.399622 560.236588 
L 456.557074 558.335684 
L 457.714526 555.963907 
L 458.871979 551.505299 
L 460.029431 552.031302 
L 461.186884 554.541368 
L 462.344336 551.909663 
L 463.501788 558.247689 
L 464.659241 557.974392 
L 465.816693 551.971593 
L 468.131598 562.248094 
L 469.28905 557.634268 
L 470.446503 556.309282 
L 471.603955 546.813971 
L 472.761407 549.6187 
L 473.91886 550.091197 
L 475.076312 553.74648 
L 476.233765 549.671123 
L 477.391217 555.120705 
L 478.548669 558.056586 
L 479.706122 560.141521 
L 480.863574 558.037525 
L 482.021026 556.393895 
L 483.178479 552.737294 
L 484.335931 551.927849 
L 485.493384 556.258196 
L 486.650836 558.208004 
L 487.808288 560.879726 
L 488.965741 551.182031 
L 490.123193 548.066009 
L 491.280645 557.268193 
L 492.438098 553.965875 
L 493.59555 554.507296 
L 494.753003 546.993587 
L 495.910455 552.504927 
L 497.067907 556.545726 
L 498.22536 555.581586 
L 499.382812 556.428142 
L 500.540264 553.568525 
L 501.697717 553.80609 
L 502.855169 555.871132 
L 504.012622 557.520318 
L 505.170074 560.686556 
L 506.327526 559.168776 
L 507.484979 556.938884 
L 508.642431 559.463651 
L 510.957336 559.759861 
L 512.114788 559.572754 
L 513.272241 558.05521 
L 514.429693 555.284488 
L 515.587145 559.210654 
L 516.744598 559.180855 
L 519.059503 557.745025 
L 520.216955 554.895837 
L 521.374407 559.661821 
L 522.53186 561.178625 
L 523.689312 560.713461 
L 524.846764 563.556663 
L 526.004217 563.780373 
L 527.161669 561.196835 
L 528.319122 561.305997 
L 529.476574 562.034729 
L 530.634026 561.81434 
L 531.791479 563.82184 
L 532.948931 565.032273 
L 534.106383 562.612417 
L 535.263836 560.705608 
L 536.421288 563.584919 
L 537.578741 557.64185 
L 538.736193 561.260291 
L 539.893645 560.649835 
L 541.051098 560.254318 
L 542.20855 560.459944 
L 543.366002 561.763572 
L 544.523455 563.936052 
L 545.680907 560.754073 
L 546.83836 566.140546 
L 547.995812 568.45873 
L 549.153264 568.149715 
L 550.310717 560.403663 
L 551.468169 559.882564 
L 552.625621 555.311443 
L 553.783074 558.816096 
L 554.940526 564.362228 
L 556.097979 565.55517 
L 557.255431 563.647494 
L 558.412883 567.798189 
L 559.570336 566.17401 
L 560.727788 567.185646 
L 561.88524 564.995911 
L 563.042693 558.926711 
L 564.200145 557.035466 
L 566.51505 562.454916 
L 567.672502 561.644624 
L 568.829955 569.391636 
L 569.987407 566.548429 
L 571.14486 561.531389 
L 572.302312 567.658399 
L 573.459764 571.279101 
L 574.617217 565.980182 
L 575.774669 561.400344 
L 576.932121 559.842614 
L 578.089574 567.494853 
L 579.247026 566.11476 
L 580.404479 561.752129 
L 581.561931 562.575462 
L 582.719383 563.02913 
L 583.876836 564.707813 
L 585.034288 567.34485 
L 586.19174 567.465711 
L 587.349193 560.143366 
L 588.506645 571.018479 
L 589.664098 569.221651 
L 590.82155 570.478142 
L 591.979002 569.23478 
L 593.136455 566.838805 
L 594.293907 571.023312 
L 595.451359 570.375621 
L 596.608812 567.981594 
L 597.766264 561.485112 
L 598.923717 566.373016 
L 600.081169 565.958116 
L 601.238621 559.322636 
L 602.396074 570.560668 
L 603.553526 571.425242 
L 604.710978 571.829154 
L 605.868431 570.389036 
L 607.025883 570.852127 
L 608.183336 572.173484 
L 609.340788 568.85658 
L 610.49824 564.168851 
L 611.655693 568.87102 
L 612.813145 576.50642 
L 613.970597 572.757685 
L 615.12805 568.352795 
L 616.285502 568.327249 
L 617.442955 569.225565 
L 618.600407 568.916746 
L 619.757859 567.422629 
L 620.915312 569.949972 
L 622.072764 566.795888 
L 623.230217 567.820207 
L 624.387669 569.117462 
L 625.545121 568.692829 
L 626.702574 572.392549 
L 627.860026 573.144157 
L 629.017478 573.095823 
L 630.174931 568.743505 
L 631.332383 569.004412 
L 632.489836 570.457297 
L 633.647288 567.019221 
L 634.80474 567.119293 
L 635.962193 568.801503 
L 637.119645 571.667202 
L 638.277097 573.635342 
L 639.43455 569.639603 
L 640.592002 570.351129 
L 641.749455 576.731758 
L 642.906907 576.05459 
L 644.064359 572.495337 
L 645.221812 573.690463 
L 646.379264 576.163077 
L 647.536716 575.040249 
L 648.694169 569.720675 
L 649.851621 569.139671 
L 651.009074 575.112571 
L 652.166526 572.899418 
L 653.323978 573.043054 
L 654.481431 576.857042 
L 655.638883 569.165472 
L 656.796335 571.318427 
L 657.953788 572.905859 
L 659.11124 575.273275 
L 660.268693 572.628258 
L 661.426145 574.73255 
L 662.583597 574.277673 
L 663.74105 574.826255 
L 664.898502 568.624908 
L 666.055954 569.554007 
L 667.213407 572.078342 
L 668.370859 572.060381 
L 669.528312 575.681599 
L 670.685764 575.220878 
L 671.843216 574.585127 
L 673.000669 578.90772 
L 674.158121 581.101405 
L 675.315574 579.744356 
L 676.473026 573.666362 
L 677.630478 580.960929 
L 678.787931 576.747319 
L 679.945383 579.443125 
L 682.260288 580.852182 
L 683.41774 582.347826 
L 684.575193 581.686676 
L 685.732645 585.561332 
L 686.890097 589.915812 
L 688.04755 590.184202 
L 689.205002 584.552148 
L 690.362454 589.341544 
L 691.519907 586.440565 
L 692.677359 584.678282 
L 693.834812 590.113364 
L 694.992264 587.359759 
L 696.149716 589.010984 
L 697.307169 590.192877 
L 698.464621 587.26676 
L 699.622073 586.542422 
L 700.779526 591.800317 
L 701.936978 592.308115 
L 703.094431 587.724787 
L 704.251883 585.271109 
L 705.409335 588.139926 
L 706.566788 589.607437 
L 707.72424 588.905862 
L 708.881692 595.431293 
L 710.039145 589.1351 
L 711.196597 590.07159 
L 712.35405 589.516573 
L 713.511502 589.689283 
L 714.668954 588.24604 
L 715.826407 591.568163 
L 716.983859 591.684648 
L 718.141311 591.550338 
L 719.298764 589.112089 
L 720.456216 589.874242 
L 721.613669 588.760716 
L 722.771121 591.848613 
L 723.928573 592.058421 
L 725.086026 588.169127 
L 726.243478 586.290199 
L 727.400931 590.558284 
L 728.558383 587.781774 
L 729.715835 588.59619 
L 730.873288 590.511734 
L 732.03074 591.609682 
L 733.188192 593.64205 
L 734.345645 591.1785 
L 735.503097 592.073579 
L 736.66055 590.811637 
L 737.818002 593.007669 
L 738.975454 591.149227 
L 740.132907 592.109366 
L 741.290359 594.299423 
L 742.447811 594.977221 
L 743.605264 592.588628 
L 744.762716 595.348343 
L 745.920169 595.446818 
L 747.077621 596.548062 
L 749.392526 598.203401 
L 750.549978 598.037132 
L 751.70743 596.626693 
L 752.864883 597.655612 
L 754.022335 599.481875 
L 755.179788 600.529727 
L 756.33724 603.03439 
L 757.494692 603.405602 
L 758.652145 601.250063 
L 759.809597 600.084292 
L 760.967049 600.541008 
L 762.124502 602.108385 
L 763.281954 598.873967 
L 764.439407 600.074012 
L 765.596859 602.381752 
L 766.754311 602.338104 
L 767.911764 602.730197 
L 769.069216 600.796477 
L 770.226668 600.343653 
L 771.384121 599.426666 
L 772.541573 599.246136 
L 773.699026 600.509886 
L 774.856478 598.697183 
L 776.01393 600.329096 
L 778.328835 583.436405 
L 779.486288 584.098848 
L 780.64374 586.970601 
L 781.801192 586.380027 
L 782.958645 586.446723 
L 784.116097 583.476034 
L 785.273549 583.304583 
L 786.431002 584.695407 
L 787.588454 582.922866 
L 788.745907 585.348414 
L 789.903359 586.625378 
L 791.060811 582.699606 
L 792.218264 590.378274 
L 793.375716 584.873088 
L 794.533168 585.763762 
L 795.690621 584.34906 
L 796.848073 582.650146 
L 798.005526 582.84007 
L 799.162978 584.85165 
L 800.32043 586.359815 
L 801.477883 586.590881 
L 802.635335 584.814576 
L 803.792787 584.651815 
L 804.95024 589.47656 
L 806.107692 585.372441 
L 807.265145 588.628083 
L 808.422597 588.536599 
L 809.580049 586.556879 
L 810.737502 587.452056 
L 811.894954 586.201628 
L 813.052406 587.590718 
L 814.209859 591.021131 
L 815.367311 588.039041 
L 816.524764 590.212189 
L 817.682216 590.468678 
L 818.839668 595.164661 
L 819.997121 589.025929 
L 821.154573 591.283483 
L 822.312025 591.026015 
L 823.469478 586.643858 
L 825.784383 591.292534 
L 826.941835 592.111684 
L 828.099287 590.237167 
L 829.25674 590.142384 
L 830.414192 587.914214 
L 831.571644 588.10236 
L 832.729097 591.801728 
L 833.886549 590.803713 
L 835.044002 590.641187 
L 836.201454 593.564546 
L 837.358906 594.500835 
L 838.516359 593.901883 
L 839.673811 592.789803 
L 840.831264 592.129016 
L 841.988716 592.369705 
L 843.146168 593.41059 
L 844.303621 591.45736 
L 845.461073 598.252635 
L 846.618525 593.370508 
L 847.775978 590.53699 
L 848.93343 591.099225 
L 850.090883 593.906273 
L 851.248335 593.38089 
L 852.405787 588.488672 
L 853.56324 589.869931 
L 854.720692 593.655985 
L 855.878144 594.830541 
L 857.035597 594.954286 
L 858.193049 594.437417 
L 859.350502 594.395874 
L 860.507954 591.271181 
L 861.665406 588.856287 
L 862.822859 590.142582 
L 863.980311 588.535959 
L 865.137763 585.178445 
L 866.295216 585.372907 
L 868.610121 586.044434 
L 869.767573 586.370123 
L 870.925025 587.40489 
L 872.082478 586.901751 
L 873.23993 586.844189 
L 874.397382 587.731224 
L 875.554835 587.252023 
L 876.712287 587.898433 
L 877.86974 588.933041 
L 879.027192 589.331956 
L 880.184644 587.904348 
L 881.342097 590.501356 
L 882.499549 593.543141 
L 883.657001 591.644469 
L 884.814454 588.641565 
L 885.971906 588.678038 
L 887.129359 590.856329 
L 888.286811 591.183776 
L 889.444263 588.648094 
L 890.601716 588.967787 
L 891.759168 590.306866 
L 892.916621 593.075342 
L 894.074073 591.99217 
L 895.231525 591.252914 
L 896.388978 592.780343 
L 897.54643 593.07029 
L 898.703882 588.424523 
L 899.861335 587.117967 
L 901.018787 588.51187 
L 902.17624 591.334999 
L 903.333692 587.205362 
L 904.491144 591.047653 
L 905.648597 589.928189 
L 906.806049 593.195567 
L 907.963501 590.648784 
L 909.120954 592.495791 
L 910.278406 591.374097 
L 911.435859 591.230683 
L 912.593311 592.358479 
L 913.750763 592.066751 
L 914.908216 591.330483 
L 916.065668 590.810873 
L 917.22312 592.276362 
L 918.380573 590.458361 
L 919.538025 597.923501 
L 920.695478 593.582475 
L 921.85293 591.282043 
L 923.010382 595.288611 
L 924.167835 595.324386 
L 925.325287 592.838147 
L 926.482739 596.350099 
L 927.640192 594.755614 
L 928.797644 594.566607 
L 929.955097 595.923458 
L 931.112549 596.239106 
L 932.270001 599.539555 
L 934.584906 594.722266 
L 935.742358 594.924068 
L 936.899811 593.62933 
L 938.057263 597.103358 
L 939.214716 595.93371 
L 940.372168 593.401293 
L 941.52962 594.289306 
L 942.687073 595.748276 
L 943.844525 593.237041 
L 945.001978 592.1125 
L 946.15943 593.676678 
L 947.316882 597.11141 
L 948.474335 595.353184 
L 949.631787 596.029565 
L 950.789239 597.640971 
L 951.946692 595.999401 
L 953.104144 594.788734 
L 954.261597 597.916341 
L 955.419049 597.392011 
L 956.576501 595.532126 
L 957.733954 594.336361 
L 958.891406 597.28925 
L 960.048858 596.431345 
L 961.206311 598.130986 
L 962.363763 598.316963 
L 963.521216 599.049551 
L 964.678668 598.941924 
L 965.83612 596.236035 
L 966.993573 597.318511 
L 968.151025 598.6419 
L 969.308477 596.903427 
L 970.46593 598.007415 
L 971.623382 599.401142 
L 972.780835 599.801464 
L 973.938287 599.416529 
L 975.095739 601.393542 
L 976.253192 600.856071 
L 977.410644 600.557199 
L 978.568096 601.094409 
L 979.725549 599.49407 
L 980.883001 599.354058 
L 982.040454 598.411008 
L 983.197906 599.157494 
L 984.355358 601.48261 
L 985.512811 599.540526 
L 986.670263 598.206797 
L 987.827715 600.407716 
L 988.985168 601.847439 
L 990.14262 600.754028 
L 991.300073 600.343405 
L 992.457525 598.329613 
L 993.614977 598.471327 
L 994.77243 599.945211 
L 995.929882 600.196179 
L 997.087335 600.910452 
L 998.244787 599.222097 
L 999.402239 598.839866 
L 1000.559692 599.498678 
L 1001.717144 602.912685 
L 1002.874596 599.994865 
L 1004.032049 600.734981 
L 1005.189501 600.826797 
L 1006.346954 602.850556 
L 1007.504406 601.7772 
L 1008.661858 603.450556 
L 1009.819311 603.280105 
L 1010.976763 602.705451 
L 1012.134215 604.14815 
L 1013.291668 621.388498 
L 1014.44912 626.783598 
L 1015.606573 627.126667 
L 1016.764025 625.39079 
L 1017.921477 629.722943 
L 1019.07893 626.328243 
L 1020.236382 625.277394 
L 1021.393834 628.58545 
L 1022.551287 628.226829 
L 1026.023644 626.133714 
L 1027.181096 625.344948 
L 1028.338549 625.608782 
L 1029.496001 628.657554 
L 1030.653453 626.137769 
L 1031.810906 625.24963 
L 1032.968358 629.939535 
L 1034.125811 629.446956 
L 1035.283263 628.290916 
L 1036.440715 625.648371 
L 1037.598168 627.544746 
L 1038.75562 622.561088 
L 1039.913072 625.387338 
L 1041.070525 629.250411 
L 1042.227977 632.099121 
L 1043.38543 632.869365 
L 1044.542882 633.191903 
L 1045.700334 630.33964 
L 1046.857787 630.577625 
L 1048.015239 632.374156 
L 1049.172692 629.768353 
L 1050.330144 629.524145 
L 1051.487596 630.414521 
L 1052.645049 631.572333 
L 1053.802501 631.483934 
L 1054.959953 627.881463 
L 1056.117406 629.362077 
L 1057.274858 634.482831 
L 1058.432311 629.841004 
L 1059.589763 629.479001 
L 1060.747215 631.409721 
L 1061.904668 630.727471 
L 1063.06212 632.268056 
L 1064.219572 633.180478 
L 1065.377025 632.632779 
L 1066.534477 634.179349 
L 1067.69193 632.680768 
L 1068.849382 633.388179 
L 1071.164287 635.449159 
L 1072.321739 633.687094 
L 1073.479191 629.481858 
L 1074.636644 630.683013 
L 1075.794096 632.104301 
L 1076.951549 635.429705 
L 1078.109001 629.112765 
L 1079.266453 619.552908 
L 1080.423906 622.030528 
L 1081.581358 625.259528 
L 1082.73881 623.629862 
L 1083.896263 625.461651 
L 1085.053715 624.700365 
L 1086.211168 627.049816 
L 1087.36862 625.551937 
L 1088.526072 623.860393 
L 1089.683525 623.668556 
L 1090.840977 624.672793 
L 1091.998429 628.014767 
L 1093.155882 627.512179 
L 1094.313334 627.620974 
L 1095.470787 625.853151 
L 1096.628239 624.698602 
L 1097.785691 627.270592 
L 1098.943144 627.526899 
L 1100.100596 626.818742 
L 1101.258049 625.905174 
L 1103.572953 626.289471 
L 1104.730406 626.487711 
L 1105.887858 624.984773 
L 1107.04531 622.304125 
L 1108.202763 624.091859 
L 1109.360215 626.881229 
L 1110.517668 624.985391 
L 1111.67512 625.128389 
L 1112.832572 625.128926 
L 1113.990025 624.219842 
L 1115.147477 624.26636 
L 1116.304929 625.88324 
L 1117.462382 627.764087 
L 1118.619834 625.839903 
L 1119.777287 626.608282 
L 1120.934739 627.225633 
L 1122.092191 625.342404 
L 1123.249644 626.604778 
L 1124.407096 629.709569 
L 1125.564548 626.540734 
L 1126.722001 626.622763 
L 1129.036906 629.569994 
L 1130.194358 625.492471 
L 1131.35181 627.572648 
L 1132.509263 631.214658 
L 1133.666715 630.017112 
L 1134.824167 629.235373 
L 1135.98162 630.773833 
L 1137.139072 626.61673 
L 1138.296525 632.216962 
L 1139.453977 635.223189 
L 1140.611429 635.009986 
L 1141.768882 629.766017 
L 1142.926334 630.621558 
L 1144.083786 633.191279 
L 1145.241239 632.122746 
L 1146.398691 631.813466 
L 1147.556144 632.195428 
L 1148.713596 635.637632 
L 1149.871048 634.421931 
L 1151.028501 628.761145 
L 1152.185953 631.944712 
L 1153.343406 629.828425 
L 1155.65831 632.751984 
L 1156.815763 633.669183 
L 1157.973215 633.987133 
L 1159.130667 634.060357 
L 1160.28812 630.811378 
L 1161.445572 636.124699 
L 1162.603025 637.314406 
L 1163.760477 632.442639 
L 1164.917929 632.179643 
L 1166.075382 632.461214 
L 1167.232834 629.467266 
L 1168.390286 632.509776 
L 1169.547739 632.450064 
L 1170.705191 634.757817 
L 1171.862644 633.824563 
L 1173.020096 634.67917 
L 1174.177548 635.074382 
L 1175.335001 635.629373 
L 1176.492453 633.818866 
L 1177.649905 631.033745 
L 1178.807358 630.552104 
L 1179.96481 633.944815 
L 1181.122263 633.039632 
L 1182.279715 634.944789 
L 1183.437167 633.854851 
L 1184.59462 636.134347 
L 1185.752072 640.430928 
L 1186.909524 639.705988 
L 1188.066977 636.627192 
L 1189.224429 636.471175 
L 1190.381882 635.203897 
L 1191.539334 634.666937 
L 1192.696786 634.519311 
L 1193.854239 636.963561 
L 1195.011691 634.650326 
L 1196.169143 631.401672 
L 1197.326596 634.448432 
L 1198.484048 637.030618 
L 1199.641501 637.361483 
L 1200.798953 634.968972 
L 1201.956405 634.981033 
L 1203.113858 635.170091 
L 1204.27131 636.445682 
L 1205.428763 637.155726 
L 1206.586215 637.627435 
L 1207.743667 638.43673 
L 1208.90112 637.594622 
L 1210.058572 639.041654 
L 1211.216024 636.772119 
L 1212.373477 635.099539 
L 1213.530929 637.815518 
L 1214.688382 638.278983 
L 1215.845834 636.786658 
L 1217.003286 638.447953 
L 1218.160739 637.885877 
L 1219.318191 637.750401 
L 1220.475643 636.872656 
L 1221.633096 637.247702 
L 1222.790548 636.889217 
L 1223.948001 635.452842 
L 1225.105453 636.317017 
L 1226.262905 638.005469 
L 1227.420358 639.31928 
L 1228.57781 641.560488 
L 1229.735262 641.294826 
L 1230.892715 641.480026 
L 1232.050167 642.314678 
L 1233.20762 641.183236 
L 1234.365072 641.064587 
L 1235.522524 640.102494 
L 1236.679977 641.957078 
L 1237.837429 642.620518 
L 1238.994881 642.395536 
L 1240.152334 643.959085 
L 1241.309786 643.604823 
L 1242.467239 644.54097 
L 1243.624691 644.909091 
L 1243.624691 644.909091 
" style="fill:none;stroke:#ff0000;stroke-linecap:square;stroke-width:1.5;"/>
   </g>
   <g id="patch_9">
    <path d="M 87.329766 656.6 
L 87.329766 399.4 
" style="fill:none;stroke:#000000;stroke-linecap:square;stroke-linejoin:miter;stroke-width:0.8;"/>
   </g>
   <g id="patch_10">
    <path d="M 1418.4 656.6 
L 1418.4 399.4 
" style="fill:none;stroke:#000000;stroke-linecap:square;stroke-linejoin:miter;stroke-width:0.8;"/>
   </g>
   <g id="patch_11">
    <path d="M 87.329766 656.6 
L 1418.4 656.6 
" style="fill:none;stroke:#000000;stroke-linecap:square;stroke-linejoin:miter;stroke-width:0.8;"/>
   </g>
   <g id="patch_12">
    <path d="M 87.329766 399.4 
L 1418.4 399.4 
" style="fill:none;stroke:#000000;stroke-linecap:square;stroke-linejoin:miter;stroke-width:0.8;"/>
   </g>
   <g id="text_26">
    <!-- Loss vs Timestep -->
    <g transform="translate(650.244258 393.4)scale(0.24 -0.24)">
     <use xlink:href="#DejaVuSans-76"/>
     <use x="53.962891" xlink:href="#DejaVuSans-111"/>
     <use x="115.144531" xlink:href="#DejaVuSans-115"/>
     <use x="167.244141" xlink:href="#DejaVuSans-115"/>
     <use x="219.34375" xlink:href="#DejaVuSans-32"/>
     <use x="251.130859" xlink:href="#DejaVuSans-118"/>
     <use x="310.310547" xlink:href="#DejaVuSans-115"/>
     <use x="362.410156" xlink:href="#DejaVuSans-32"/>
     <use x="394.197266" xlink:href="#DejaVuSans-84"/>
     <use x="452.15625" xlink:href="#DejaVuSans-105"/>
     <use x="479.939453" xlink:href="#DejaVuSans-109"/>
     <use x="577.351562" xlink:href="#DejaVuSans-101"/>
     <use x="638.875" xlink:href="#DejaVuSans-115"/>
     <use x="690.974609" xlink:href="#DejaVuSans-116"/>
     <use x="730.183594" xlink:href="#DejaVuSans-101"/>
     <use x="791.707031" xlink:href="#DejaVuSans-112"/>
    </g>
   </g>
   <g id="legend_2">
    <g id="patch_13">
     <path d="M 1301.873438 649.1 
L 1407.9 649.1 
Q 1410.9 649.1 1410.9 646.1 
L 1410.9 625.582813 
Q 1410.9 622.582813 1407.9 622.582813 
L 1301.873438 622.582813 
Q 1298.873438 622.582813 1298.873438 625.582813 
L 1298.873438 646.1 
Q 1298.873438 649.1 1301.873438 649.1 
z
" style="fill:#ffffff;opacity:0.8;stroke:#cccccc;stroke-linejoin:miter;"/>
    </g>
    <g id="line2d_41">
     <path d="M 1304.873438 634.730469 
L 1334.873438 634.730469 
" style="fill:none;stroke:#ff0000;stroke-linecap:square;stroke-width:1.5;"/>
    </g>
    <g id="line2d_42"/>
    <g id="text_27">
     <!-- Avg. TD -->
     <g transform="translate(1346.873438 639.980469)scale(0.15 -0.15)">
      <use xlink:href="#DejaVuSans-65"/>
      <use x="62.533203" xlink:href="#DejaVuSans-118"/>
      <use x="121.712891" xlink:href="#DejaVuSans-103"/>
      <use x="185.189453" xlink:href="#DejaVuSans-46"/>
      <use x="216.976562" xlink:href="#DejaVuSans-32"/>
      <use x="248.763672" xlink:href="#DejaVuSans-84"/>
      <use x="309.847656" xlink:href="#DejaVuSans-68"/>
     </g>
    </g>
   </g>
  </g>
  <g id="axes_3">
   <g id="patch_14">
    <path d="M 87.329766 1009.4 
L 1418.4 1009.4 
L 1418.4 752.2 
L 87.329766 752.2 
z
" style="fill:#ffffff;"/>
   </g>
   <g id="matplotlib.axis_5">
    <g id="xtick_13">
     <g id="line2d_43">
      <g>
       <use style="stroke:#000000;stroke-width:0.8;" x="203.075003" xlink:href="#m2a0d63b1f4" y="1009.4"/>
      </g>
     </g>
     <g id="text_28">
      <!-- 1e+04 -->
      <g transform="translate(169.454691 1031.596875)scale(0.2 -0.2)">
       <use xlink:href="#DejaVuSans-49"/>
       <use x="63.623047" xlink:href="#DejaVuSans-101"/>
       <use x="125.146484" xlink:href="#DejaVuSans-43"/>
       <use x="208.935547" xlink:href="#DejaVuSans-48"/>
       <use x="272.558594" xlink:href="#DejaVuSans-52"/>
      </g>
     </g>
    </g>
    <g id="xtick_14">
     <g id="line2d_44">
      <g>
       <use style="stroke:#000000;stroke-width:0.8;" x="318.820241" xlink:href="#m2a0d63b1f4" y="1009.4"/>
      </g>
     </g>
     <g id="text_29">
      <!-- 2e+04 -->
      <g transform="translate(285.199929 1031.596875)scale(0.2 -0.2)">
       <use xlink:href="#DejaVuSans-50"/>
       <use x="63.623047" xlink:href="#DejaVuSans-101"/>
       <use x="125.146484" xlink:href="#DejaVuSans-43"/>
       <use x="208.935547" xlink:href="#DejaVuSans-48"/>
       <use x="272.558594" xlink:href="#DejaVuSans-52"/>
      </g>
     </g>
    </g>
    <g id="xtick_15">
     <g id="line2d_45">
      <g>
       <use style="stroke:#000000;stroke-width:0.8;" x="550.310717" xlink:href="#m2a0d63b1f4" y="1009.4"/>
      </g>
     </g>
     <g id="text_30">
      <!-- 4e+04 -->
      <g transform="translate(516.690404 1031.596875)scale(0.2 -0.2)">
       <use xlink:href="#DejaVuSans-52"/>
       <use x="63.623047" xlink:href="#DejaVuSans-101"/>
       <use x="125.146484" xlink:href="#DejaVuSans-43"/>
       <use x="208.935547" xlink:href="#DejaVuSans-48"/>
       <use x="272.558594" xlink:href="#DejaVuSans-52"/>
      </g>
     </g>
    </g>
    <g id="xtick_16">
     <g id="line2d_46">
      <g>
       <use style="stroke:#000000;stroke-width:0.8;" x="781.801192" xlink:href="#m2a0d63b1f4" y="1009.4"/>
      </g>
     </g>
     <g id="text_31">
      <!-- 6e+04 -->
      <g transform="translate(748.18088 1031.596875)scale(0.2 -0.2)">
       <use xlink:href="#DejaVuSans-54"/>
       <use x="63.623047" xlink:href="#DejaVuSans-101"/>
       <use x="125.146484" xlink:href="#DejaVuSans-43"/>
       <use x="208.935547" xlink:href="#DejaVuSans-48"/>
       <use x="272.558594" xlink:href="#DejaVuSans-52"/>
      </g>
     </g>
    </g>
    <g id="xtick_17">
     <g id="line2d_47">
      <g>
       <use style="stroke:#000000;stroke-width:0.8;" x="1013.291668" xlink:href="#m2a0d63b1f4" y="1009.4"/>
      </g>
     </g>
     <g id="text_32">
      <!-- 8e+04 -->
      <g transform="translate(979.671355 1031.596875)scale(0.2 -0.2)">
       <use xlink:href="#DejaVuSans-56"/>
       <use x="63.623047" xlink:href="#DejaVuSans-101"/>
       <use x="125.146484" xlink:href="#DejaVuSans-43"/>
       <use x="208.935547" xlink:href="#DejaVuSans-48"/>
       <use x="272.558594" xlink:href="#DejaVuSans-52"/>
      </g>
     </g>
    </g>
    <g id="xtick_18">
     <g id="line2d_48">
      <g>
       <use style="stroke:#000000;stroke-width:0.8;" x="1244.782143" xlink:href="#m2a0d63b1f4" y="1009.4"/>
      </g>
     </g>
     <g id="text_33">
      <!-- 1e+05 -->
      <g transform="translate(1211.161831 1031.596875)scale(0.2 -0.2)">
       <use xlink:href="#DejaVuSans-49"/>
       <use x="63.623047" xlink:href="#DejaVuSans-101"/>
       <use x="125.146484" xlink:href="#DejaVuSans-43"/>
       <use x="208.935547" xlink:href="#DejaVuSans-48"/>
       <use x="272.558594" xlink:href="#DejaVuSans-53"/>
      </g>
     </g>
    </g>
    <g id="text_34">
     <!-- Timestep -->
     <g transform="translate(706.766445 1054.953125)scale(0.2 -0.2)">
      <use xlink:href="#DejaVuSans-84"/>
      <use x="57.958984" xlink:href="#DejaVuSans-105"/>
      <use x="85.742188" xlink:href="#DejaVuSans-109"/>
      <use x="183.154297" xlink:href="#DejaVuSans-101"/>
      <use x="244.677734" xlink:href="#DejaVuSans-115"/>
      <use x="296.777344" xlink:href="#DejaVuSans-116"/>
      <use x="335.986328" xlink:href="#DejaVuSans-101"/>
      <use x="397.509766" xlink:href="#DejaVuSans-112"/>
     </g>
    </g>
   </g>
   <g id="matplotlib.axis_6">
    <g id="ytick_25">
     <g id="line2d_49">
      <defs>
       <path d="M 0 0 
L -3.5 0 
" id="me5884c0234" style="stroke:#000000;stroke-width:0.8;"/>
      </defs>
      <g>
       <use style="stroke:#000000;stroke-width:0.8;" x="87.329766" xlink:href="#me5884c0234" y="1009.4"/>
      </g>
     </g>
     <g id="text_35">
      <!-- 0.0 -->
      <g transform="translate(56.475078 1015.098828)scale(0.15 -0.15)">
       <use xlink:href="#DejaVuSans-48"/>
       <use x="63.623047" xlink:href="#DejaVuSans-46"/>
       <use x="95.410156" xlink:href="#DejaVuSans-48"/>
      </g>
     </g>
    </g>
    <g id="ytick_26">
     <g id="line2d_50">
      <g>
       <use style="stroke:#000000;stroke-width:0.8;" x="87.329766" xlink:href="#me5884c0234" y="957.96"/>
      </g>
     </g>
     <g id="text_36">
      <!-- 0.2 -->
      <g transform="translate(56.475078 963.658828)scale(0.15 -0.15)">
       <use xlink:href="#DejaVuSans-48"/>
       <use x="63.623047" xlink:href="#DejaVuSans-46"/>
       <use x="95.410156" xlink:href="#DejaVuSans-50"/>
      </g>
     </g>
    </g>
    <g id="ytick_27">
     <g id="line2d_51">
      <g>
       <use style="stroke:#000000;stroke-width:0.8;" x="87.329766" xlink:href="#me5884c0234" y="906.52"/>
      </g>
     </g>
     <g id="text_37">
      <!-- 0.4 -->
      <g transform="translate(56.475078 912.218828)scale(0.15 -0.15)">
       <use xlink:href="#DejaVuSans-48"/>
       <use x="63.623047" xlink:href="#DejaVuSans-46"/>
       <use x="95.410156" xlink:href="#DejaVuSans-52"/>
      </g>
     </g>
    </g>
    <g id="ytick_28">
     <g id="line2d_52">
      <g>
       <use style="stroke:#000000;stroke-width:0.8;" x="87.329766" xlink:href="#me5884c0234" y="855.08"/>
      </g>
     </g>
     <g id="text_38">
      <!-- 0.6 -->
      <g transform="translate(56.475078 860.778828)scale(0.15 -0.15)">
       <use xlink:href="#DejaVuSans-48"/>
       <use x="63.623047" xlink:href="#DejaVuSans-46"/>
       <use x="95.410156" xlink:href="#DejaVuSans-54"/>
      </g>
     </g>
    </g>
    <g id="ytick_29">
     <g id="line2d_53">
      <g>
       <use style="stroke:#000000;stroke-width:0.8;" x="87.329766" xlink:href="#me5884c0234" y="803.64"/>
      </g>
     </g>
     <g id="text_39">
      <!-- 0.8 -->
      <g transform="translate(56.475078 809.338828)scale(0.15 -0.15)">
       <use xlink:href="#DejaVuSans-48"/>
       <use x="63.623047" xlink:href="#DejaVuSans-46"/>
       <use x="95.410156" xlink:href="#DejaVuSans-56"/>
      </g>
     </g>
    </g>
    <g id="ytick_30">
     <g id="line2d_54">
      <g>
       <use style="stroke:#000000;stroke-width:0.8;" x="87.329766" xlink:href="#me5884c0234" y="752.2"/>
      </g>
     </g>
     <g id="text_40">
      <!-- 1.0 -->
      <g transform="translate(56.475078 757.898828)scale(0.15 -0.15)">
       <use xlink:href="#DejaVuSans-49"/>
       <use x="63.623047" xlink:href="#DejaVuSans-46"/>
       <use x="95.410156" xlink:href="#DejaVuSans-48"/>
      </g>
     </g>
    </g>
   </g>
   <g id="patch_15">
    <path d="M 87.329766 1009.4 
L 87.329766 752.2 
" style="fill:none;stroke:#000000;stroke-linecap:square;stroke-linejoin:miter;stroke-width:0.8;"/>
   </g>
   <g id="patch_16">
    <path d="M 1418.4 1009.4 
L 1418.4 752.2 
" style="fill:none;stroke:#000000;stroke-linecap:square;stroke-linejoin:miter;stroke-width:0.8;"/>
   </g>
   <g id="patch_17">
    <path d="M 87.329766 1009.4 
L 1418.4 1009.4 
" style="fill:none;stroke:#000000;stroke-linecap:square;stroke-linejoin:miter;stroke-width:0.8;"/>
   </g>
   <g id="patch_18">
    <path d="M 87.329766 752.2 
L 1418.4 752.2 
" style="fill:none;stroke:#000000;stroke-linecap:square;stroke-linejoin:miter;stroke-width:0.8;"/>
   </g>
   <g id="text_41">
    <!-- Action Selection Frequency(%) vs Timestep -->
    <defs>
     <path d="M 53.515625 70.515625 
L 53.515625 60.890625 
Q 47.90625 63.578125 42.921875 64.890625 
Q 37.9375 66.21875 33.296875 66.21875 
Q 25.25 66.21875 20.875 63.09375 
Q 16.5 59.96875 16.5 54.203125 
Q 16.5 49.359375 19.40625 46.890625 
Q 22.3125 44.4375 30.421875 42.921875 
L 36.375 41.703125 
Q 47.40625 39.59375 52.65625 34.296875 
Q 57.90625 29 57.90625 20.125 
Q 57.90625 9.515625 50.796875 4.046875 
Q 43.703125 -1.421875 29.984375 -1.421875 
Q 24.8125 -1.421875 18.96875 -0.25 
Q 13.140625 0.921875 6.890625 3.21875 
L 6.890625 13.375 
Q 12.890625 10.015625 18.65625 8.296875 
Q 24.421875 6.59375 29.984375 6.59375 
Q 38.421875 6.59375 43.015625 9.90625 
Q 47.609375 13.234375 47.609375 19.390625 
Q 47.609375 24.75 44.3125 27.78125 
Q 41.015625 30.8125 33.5 32.328125 
L 27.484375 33.5 
Q 16.453125 35.6875 11.515625 40.375 
Q 6.59375 45.0625 6.59375 53.421875 
Q 6.59375 63.09375 13.40625 68.65625 
Q 20.21875 74.21875 32.171875 74.21875 
Q 37.3125 74.21875 42.625 73.28125 
Q 47.953125 72.359375 53.515625 70.515625 
z
" id="DejaVuSans-83"/>
     <path d="M 9.8125 72.90625 
L 51.703125 72.90625 
L 51.703125 64.59375 
L 19.671875 64.59375 
L 19.671875 43.109375 
L 48.578125 43.109375 
L 48.578125 34.8125 
L 19.671875 34.8125 
L 19.671875 0 
L 9.8125 0 
z
" id="DejaVuSans-70"/>
     <path d="M 14.796875 27.296875 
Q 14.796875 17.390625 18.875 11.75 
Q 22.953125 6.109375 30.078125 6.109375 
Q 37.203125 6.109375 41.296875 11.75 
Q 45.40625 17.390625 45.40625 27.296875 
Q 45.40625 37.203125 41.296875 42.84375 
Q 37.203125 48.484375 30.078125 48.484375 
Q 22.953125 48.484375 18.875 42.84375 
Q 14.796875 37.203125 14.796875 27.296875 
z
M 45.40625 8.203125 
Q 42.578125 3.328125 38.25 0.953125 
Q 33.9375 -1.421875 27.875 -1.421875 
Q 17.96875 -1.421875 11.734375 6.484375 
Q 5.515625 14.40625 5.515625 27.296875 
Q 5.515625 40.1875 11.734375 48.09375 
Q 17.96875 56 27.875 56 
Q 33.9375 56 38.25 53.625 
Q 42.578125 51.265625 45.40625 46.390625 
L 45.40625 54.6875 
L 54.390625 54.6875 
L 54.390625 -20.796875 
L 45.40625 -20.796875 
z
" id="DejaVuSans-113"/>
     <path d="M 8.5 21.578125 
L 8.5 54.6875 
L 17.484375 54.6875 
L 17.484375 21.921875 
Q 17.484375 14.15625 20.5 10.265625 
Q 23.53125 6.390625 29.59375 6.390625 
Q 36.859375 6.390625 41.078125 11.03125 
Q 45.3125 15.671875 45.3125 23.6875 
L 45.3125 54.6875 
L 54.296875 54.6875 
L 54.296875 0 
L 45.3125 0 
L 45.3125 8.40625 
Q 42.046875 3.421875 37.71875 1 
Q 33.40625 -1.421875 27.6875 -1.421875 
Q 18.265625 -1.421875 13.375 4.4375 
Q 8.5 10.296875 8.5 21.578125 
z
M 31.109375 56 
z
" id="DejaVuSans-117"/>
     <path d="M 32.171875 -5.078125 
Q 28.375 -14.84375 24.75 -17.8125 
Q 21.140625 -20.796875 15.09375 -20.796875 
L 7.90625 -20.796875 
L 7.90625 -13.28125 
L 13.1875 -13.28125 
Q 16.890625 -13.28125 18.9375 -11.515625 
Q 21 -9.765625 23.484375 -3.21875 
L 25.09375 0.875 
L 2.984375 54.6875 
L 12.5 54.6875 
L 29.59375 11.921875 
L 46.6875 54.6875 
L 56.203125 54.6875 
z
" id="DejaVuSans-121"/>
     <path d="M 31 75.875 
Q 24.46875 64.65625 21.28125 53.65625 
Q 18.109375 42.671875 18.109375 31.390625 
Q 18.109375 20.125 21.3125 9.0625 
Q 24.515625 -2 31 -13.1875 
L 23.1875 -13.1875 
Q 15.875 -1.703125 12.234375 9.375 
Q 8.59375 20.453125 8.59375 31.390625 
Q 8.59375 42.28125 12.203125 53.3125 
Q 15.828125 64.359375 23.1875 75.875 
z
" id="DejaVuSans-40"/>
     <path d="M 72.703125 32.078125 
Q 68.453125 32.078125 66.03125 28.46875 
Q 63.625 24.859375 63.625 18.40625 
Q 63.625 12.0625 66.03125 8.421875 
Q 68.453125 4.78125 72.703125 4.78125 
Q 76.859375 4.78125 79.265625 8.421875 
Q 81.6875 12.0625 81.6875 18.40625 
Q 81.6875 24.8125 79.265625 28.4375 
Q 76.859375 32.078125 72.703125 32.078125 
z
M 72.703125 38.28125 
Q 80.421875 38.28125 84.953125 32.90625 
Q 89.5 27.546875 89.5 18.40625 
Q 89.5 9.28125 84.9375 3.921875 
Q 80.375 -1.421875 72.703125 -1.421875 
Q 64.890625 -1.421875 60.34375 3.921875 
Q 55.8125 9.28125 55.8125 18.40625 
Q 55.8125 27.59375 60.375 32.9375 
Q 64.9375 38.28125 72.703125 38.28125 
z
M 22.3125 68.015625 
Q 18.109375 68.015625 15.6875 64.375 
Q 13.28125 60.75 13.28125 54.390625 
Q 13.28125 47.953125 15.671875 44.328125 
Q 18.0625 40.71875 22.3125 40.71875 
Q 26.5625 40.71875 28.96875 44.328125 
Q 31.390625 47.953125 31.390625 54.390625 
Q 31.390625 60.6875 28.953125 64.34375 
Q 26.515625 68.015625 22.3125 68.015625 
z
M 66.40625 74.21875 
L 74.21875 74.21875 
L 28.609375 -1.421875 
L 20.796875 -1.421875 
z
M 22.3125 74.21875 
Q 30.03125 74.21875 34.609375 68.875 
Q 39.203125 63.53125 39.203125 54.390625 
Q 39.203125 45.171875 34.640625 39.84375 
Q 30.078125 34.515625 22.3125 34.515625 
Q 14.546875 34.515625 10.03125 39.859375 
Q 5.515625 45.21875 5.515625 54.390625 
Q 5.515625 63.484375 10.046875 68.84375 
Q 14.59375 74.21875 22.3125 74.21875 
z
" id="DejaVuSans-37"/>
     <path d="M 8.015625 75.875 
L 15.828125 75.875 
Q 23.140625 64.359375 26.78125 53.3125 
Q 30.421875 42.28125 30.421875 31.390625 
Q 30.421875 20.453125 26.78125 9.375 
Q 23.140625 -1.703125 15.828125 -13.1875 
L 8.015625 -13.1875 
Q 14.5 -2 17.703125 9.0625 
Q 20.90625 20.125 20.90625 31.390625 
Q 20.90625 42.671875 17.703125 53.65625 
Q 14.5 64.65625 8.015625 75.875 
z
" id="DejaVuSans-41"/>
    </defs>
    <g transform="translate(493.295508 746.2)scale(0.24 -0.24)">
     <use xlink:href="#DejaVuSans-65"/>
     <use x="66.658203" xlink:href="#DejaVuSans-99"/>
     <use x="121.638672" xlink:href="#DejaVuSans-116"/>
     <use x="160.847656" xlink:href="#DejaVuSans-105"/>
     <use x="188.630859" xlink:href="#DejaVuSans-111"/>
     <use x="249.8125" xlink:href="#DejaVuSans-110"/>
     <use x="313.191406" xlink:href="#DejaVuSans-32"/>
     <use x="344.978516" xlink:href="#DejaVuSans-83"/>
     <use x="408.455078" xlink:href="#DejaVuSans-101"/>
     <use x="469.978516" xlink:href="#DejaVuSans-108"/>
     <use x="497.761719" xlink:href="#DejaVuSans-101"/>
     <use x="559.285156" xlink:href="#DejaVuSans-99"/>
     <use x="614.265625" xlink:href="#DejaVuSans-116"/>
     <use x="653.474609" xlink:href="#DejaVuSans-105"/>
     <use x="681.257812" xlink:href="#DejaVuSans-111"/>
     <use x="742.439453" xlink:href="#DejaVuSans-110"/>
     <use x="805.818359" xlink:href="#DejaVuSans-32"/>
     <use x="837.605469" xlink:href="#DejaVuSans-70"/>
     <use x="887.875" xlink:href="#DejaVuSans-114"/>
     <use x="926.738281" xlink:href="#DejaVuSans-101"/>
     <use x="988.261719" xlink:href="#DejaVuSans-113"/>
     <use x="1051.738281" xlink:href="#DejaVuSans-117"/>
     <use x="1115.117188" xlink:href="#DejaVuSans-101"/>
     <use x="1176.640625" xlink:href="#DejaVuSans-110"/>
     <use x="1240.019531" xlink:href="#DejaVuSans-99"/>
     <use x="1295" xlink:href="#DejaVuSans-121"/>
     <use x="1354.179688" xlink:href="#DejaVuSans-40"/>
     <use x="1393.193359" xlink:href="#DejaVuSans-37"/>
     <use x="1488.212891" xlink:href="#DejaVuSans-41"/>
     <use x="1527.226562" xlink:href="#DejaVuSans-32"/>
     <use x="1559.013672" xlink:href="#DejaVuSans-118"/>
     <use x="1618.193359" xlink:href="#DejaVuSans-115"/>
     <use x="1670.292969" xlink:href="#DejaVuSans-32"/>
     <use x="1702.080078" xlink:href="#DejaVuSans-84"/>
     <use x="1760.039062" xlink:href="#DejaVuSans-105"/>
     <use x="1787.822266" xlink:href="#DejaVuSans-109"/>
     <use x="1885.234375" xlink:href="#DejaVuSans-101"/>
     <use x="1946.757812" xlink:href="#DejaVuSans-115"/>
     <use x="1998.857422" xlink:href="#DejaVuSans-116"/>
     <use x="2038.066406" xlink:href="#DejaVuSans-101"/>
     <use x="2099.589844" xlink:href="#DejaVuSans-112"/>
    </g>
   </g>
  </g>
 </g>
 <defs>
  <clipPath id="p9411b8283d">
   <rect height="257.2" width="1331.070234" x="87.329766" y="46.6"/>
  </clipPath>
  <clipPath id="p8f4bce74ef">
   <rect height="257.2" width="1331.070234" x="87.329766" y="399.4"/>
  </clipPath>
 </defs>
</svg>
