<?xml version="1.0" encoding="utf-8" standalone="no"?>
<!DOCTYPE svg PUBLIC "-//W3C//DTD SVG 1.1//EN"
  "http://www.w3.org/Graphics/SVG/1.1/DTD/svg11.dtd">
<!-- Created with matplotlib (https://matplotlib.org/) -->
<svg height="1080pt" version="1.1" viewBox="0 0 1440 1080" width="1440pt" xmlns="http://www.w3.org/2000/svg" xmlns:xlink="http://www.w3.org/1999/xlink">
 <defs>
  <style type="text/css">
*{stroke-linecap:butt;stroke-linejoin:round;}
  </style>
 </defs>
 <g id="figure_1">
  <g id="patch_1">
   <path d="M 0 1080 
L 1440 1080 
L 1440 0 
L 0 0 
z
" style="fill:#ffffff;"/>
  </g>
  <g id="axes_1">
   <g id="patch_2">
    <path d="M 87.329766 303.8 
L 1418.4 303.8 
L 1418.4 46.6 
L 87.329766 46.6 
z
" style="fill:#ffffff;"/>
   </g>
   <g id="matplotlib.axis_1">
    <g id="xtick_1">
     <g id="line2d_1">
      <defs>
       <path d="M 0 0 
L 0 3.5 
" id="mfa196ad4cc" style="stroke:#000000;stroke-width:0.8;"/>
      </defs>
      <g>
       <use style="stroke:#000000;stroke-width:0.8;" x="203.075003" xlink:href="#mfa196ad4cc" y="303.8"/>
      </g>
     </g>
     <g id="text_1">
      <!-- 1e+05 -->
      <defs>
       <path d="M 12.40625 8.296875 
L 28.515625 8.296875 
L 28.515625 63.921875 
L 10.984375 60.40625 
L 10.984375 69.390625 
L 28.421875 72.90625 
L 38.28125 72.90625 
L 38.28125 8.296875 
L 54.390625 8.296875 
L 54.390625 0 
L 12.40625 0 
z
" id="DejaVuSans-49"/>
       <path d="M 56.203125 29.59375 
L 56.203125 25.203125 
L 14.890625 25.203125 
Q 15.484375 15.921875 20.484375 11.0625 
Q 25.484375 6.203125 34.421875 6.203125 
Q 39.59375 6.203125 44.453125 7.46875 
Q 49.3125 8.734375 54.109375 11.28125 
L 54.109375 2.78125 
Q 49.265625 0.734375 44.1875 -0.34375 
Q 39.109375 -1.421875 33.890625 -1.421875 
Q 20.796875 -1.421875 13.15625 6.1875 
Q 5.515625 13.8125 5.515625 26.8125 
Q 5.515625 40.234375 12.765625 48.109375 
Q 20.015625 56 32.328125 56 
Q 43.359375 56 49.78125 48.890625 
Q 56.203125 41.796875 56.203125 29.59375 
z
M 47.21875 32.234375 
Q 47.125 39.59375 43.09375 43.984375 
Q 39.0625 48.390625 32.421875 48.390625 
Q 24.90625 48.390625 20.390625 44.140625 
Q 15.875 39.890625 15.1875 32.171875 
z
" id="DejaVuSans-101"/>
       <path d="M 46 62.703125 
L 46 35.5 
L 73.1875 35.5 
L 73.1875 27.203125 
L 46 27.203125 
L 46 0 
L 37.796875 0 
L 37.796875 27.203125 
L 10.59375 27.203125 
L 10.59375 35.5 
L 37.796875 35.5 
L 37.796875 62.703125 
z
" id="DejaVuSans-43"/>
       <path d="M 31.78125 66.40625 
Q 24.171875 66.40625 20.328125 58.90625 
Q 16.5 51.421875 16.5 36.375 
Q 16.5 21.390625 20.328125 13.890625 
Q 24.171875 6.390625 31.78125 6.390625 
Q 39.453125 6.390625 43.28125 13.890625 
Q 47.125 21.390625 47.125 36.375 
Q 47.125 51.421875 43.28125 58.90625 
Q 39.453125 66.40625 31.78125 66.40625 
z
M 31.78125 74.21875 
Q 44.046875 74.21875 50.515625 64.515625 
Q 56.984375 54.828125 56.984375 36.375 
Q 56.984375 17.96875 50.515625 8.265625 
Q 44.046875 -1.421875 31.78125 -1.421875 
Q 19.53125 -1.421875 13.0625 8.265625 
Q 6.59375 17.96875 6.59375 36.375 
Q 6.59375 54.828125 13.0625 64.515625 
Q 19.53125 74.21875 31.78125 74.21875 
z
" id="DejaVuSans-48"/>
       <path d="M 10.796875 72.90625 
L 49.515625 72.90625 
L 49.515625 64.59375 
L 19.828125 64.59375 
L 19.828125 46.734375 
Q 21.96875 47.46875 24.109375 47.828125 
Q 26.265625 48.1875 28.421875 48.1875 
Q 40.625 48.1875 47.75 41.5 
Q 54.890625 34.8125 54.890625 23.390625 
Q 54.890625 11.625 47.5625 5.09375 
Q 40.234375 -1.421875 26.90625 -1.421875 
Q 22.3125 -1.421875 17.546875 -0.640625 
Q 12.796875 0.140625 7.71875 1.703125 
L 7.71875 11.625 
Q 12.109375 9.234375 16.796875 8.0625 
Q 21.484375 6.890625 26.703125 6.890625 
Q 35.15625 6.890625 40.078125 11.328125 
Q 45.015625 15.765625 45.015625 23.390625 
Q 45.015625 31 40.078125 35.4375 
Q 35.15625 39.890625 26.703125 39.890625 
Q 22.75 39.890625 18.8125 39.015625 
Q 14.890625 38.140625 10.796875 36.28125 
z
" id="DejaVuSans-53"/>
      </defs>
      <g transform="translate(169.454691 325.996875)scale(0.2 -0.2)">
       <use xlink:href="#DejaVuSans-49"/>
       <use x="63.623047" xlink:href="#DejaVuSans-101"/>
       <use x="125.146484" xlink:href="#DejaVuSans-43"/>
       <use x="208.935547" xlink:href="#DejaVuSans-48"/>
       <use x="272.558594" xlink:href="#DejaVuSans-53"/>
      </g>
     </g>
    </g>
    <g id="xtick_2">
     <g id="line2d_2">
      <g>
       <use style="stroke:#000000;stroke-width:0.8;" x="318.820241" xlink:href="#mfa196ad4cc" y="303.8"/>
      </g>
     </g>
     <g id="text_2">
      <!-- 2e+05 -->
      <defs>
       <path d="M 19.1875 8.296875 
L 53.609375 8.296875 
L 53.609375 0 
L 7.328125 0 
L 7.328125 8.296875 
Q 12.9375 14.109375 22.625 23.890625 
Q 32.328125 33.6875 34.8125 36.53125 
Q 39.546875 41.84375 41.421875 45.53125 
Q 43.3125 49.21875 43.3125 52.78125 
Q 43.3125 58.59375 39.234375 62.25 
Q 35.15625 65.921875 28.609375 65.921875 
Q 23.96875 65.921875 18.8125 64.3125 
Q 13.671875 62.703125 7.8125 59.421875 
L 7.8125 69.390625 
Q 13.765625 71.78125 18.9375 73 
Q 24.125 74.21875 28.421875 74.21875 
Q 39.75 74.21875 46.484375 68.546875 
Q 53.21875 62.890625 53.21875 53.421875 
Q 53.21875 48.921875 51.53125 44.890625 
Q 49.859375 40.875 45.40625 35.40625 
Q 44.1875 33.984375 37.640625 27.21875 
Q 31.109375 20.453125 19.1875 8.296875 
z
" id="DejaVuSans-50"/>
      </defs>
      <g transform="translate(285.199929 325.996875)scale(0.2 -0.2)">
       <use xlink:href="#DejaVuSans-50"/>
       <use x="63.623047" xlink:href="#DejaVuSans-101"/>
       <use x="125.146484" xlink:href="#DejaVuSans-43"/>
       <use x="208.935547" xlink:href="#DejaVuSans-48"/>
       <use x="272.558594" xlink:href="#DejaVuSans-53"/>
      </g>
     </g>
    </g>
    <g id="xtick_3">
     <g id="line2d_3">
      <g>
       <use style="stroke:#000000;stroke-width:0.8;" x="550.310717" xlink:href="#mfa196ad4cc" y="303.8"/>
      </g>
     </g>
     <g id="text_3">
      <!-- 4e+05 -->
      <defs>
       <path d="M 37.796875 64.3125 
L 12.890625 25.390625 
L 37.796875 25.390625 
z
M 35.203125 72.90625 
L 47.609375 72.90625 
L 47.609375 25.390625 
L 58.015625 25.390625 
L 58.015625 17.1875 
L 47.609375 17.1875 
L 47.609375 0 
L 37.796875 0 
L 37.796875 17.1875 
L 4.890625 17.1875 
L 4.890625 26.703125 
z
" id="DejaVuSans-52"/>
      </defs>
      <g transform="translate(516.690404 325.996875)scale(0.2 -0.2)">
       <use xlink:href="#DejaVuSans-52"/>
       <use x="63.623047" xlink:href="#DejaVuSans-101"/>
       <use x="125.146484" xlink:href="#DejaVuSans-43"/>
       <use x="208.935547" xlink:href="#DejaVuSans-48"/>
       <use x="272.558594" xlink:href="#DejaVuSans-53"/>
      </g>
     </g>
    </g>
    <g id="xtick_4">
     <g id="line2d_4">
      <g>
       <use style="stroke:#000000;stroke-width:0.8;" x="781.801192" xlink:href="#mfa196ad4cc" y="303.8"/>
      </g>
     </g>
     <g id="text_4">
      <!-- 6e+05 -->
      <defs>
       <path d="M 33.015625 40.375 
Q 26.375 40.375 22.484375 35.828125 
Q 18.609375 31.296875 18.609375 23.390625 
Q 18.609375 15.53125 22.484375 10.953125 
Q 26.375 6.390625 33.015625 6.390625 
Q 39.65625 6.390625 43.53125 10.953125 
Q 47.40625 15.53125 47.40625 23.390625 
Q 47.40625 31.296875 43.53125 35.828125 
Q 39.65625 40.375 33.015625 40.375 
z
M 52.59375 71.296875 
L 52.59375 62.3125 
Q 48.875 64.0625 45.09375 64.984375 
Q 41.3125 65.921875 37.59375 65.921875 
Q 27.828125 65.921875 22.671875 59.328125 
Q 17.53125 52.734375 16.796875 39.40625 
Q 19.671875 43.65625 24.015625 45.921875 
Q 28.375 48.1875 33.59375 48.1875 
Q 44.578125 48.1875 50.953125 41.515625 
Q 57.328125 34.859375 57.328125 23.390625 
Q 57.328125 12.15625 50.6875 5.359375 
Q 44.046875 -1.421875 33.015625 -1.421875 
Q 20.359375 -1.421875 13.671875 8.265625 
Q 6.984375 17.96875 6.984375 36.375 
Q 6.984375 53.65625 15.1875 63.9375 
Q 23.390625 74.21875 37.203125 74.21875 
Q 40.921875 74.21875 44.703125 73.484375 
Q 48.484375 72.75 52.59375 71.296875 
z
" id="DejaVuSans-54"/>
      </defs>
      <g transform="translate(748.18088 325.996875)scale(0.2 -0.2)">
       <use xlink:href="#DejaVuSans-54"/>
       <use x="63.623047" xlink:href="#DejaVuSans-101"/>
       <use x="125.146484" xlink:href="#DejaVuSans-43"/>
       <use x="208.935547" xlink:href="#DejaVuSans-48"/>
       <use x="272.558594" xlink:href="#DejaVuSans-53"/>
      </g>
     </g>
    </g>
    <g id="xtick_5">
     <g id="line2d_5">
      <g>
       <use style="stroke:#000000;stroke-width:0.8;" x="1013.291668" xlink:href="#mfa196ad4cc" y="303.8"/>
      </g>
     </g>
     <g id="text_5">
      <!-- 8e+05 -->
      <defs>
       <path d="M 31.78125 34.625 
Q 24.75 34.625 20.71875 30.859375 
Q 16.703125 27.09375 16.703125 20.515625 
Q 16.703125 13.921875 20.71875 10.15625 
Q 24.75 6.390625 31.78125 6.390625 
Q 38.8125 6.390625 42.859375 10.171875 
Q 46.921875 13.96875 46.921875 20.515625 
Q 46.921875 27.09375 42.890625 30.859375 
Q 38.875 34.625 31.78125 34.625 
z
M 21.921875 38.8125 
Q 15.578125 40.375 12.03125 44.71875 
Q 8.5 49.078125 8.5 55.328125 
Q 8.5 64.0625 14.71875 69.140625 
Q 20.953125 74.21875 31.78125 74.21875 
Q 42.671875 74.21875 48.875 69.140625 
Q 55.078125 64.0625 55.078125 55.328125 
Q 55.078125 49.078125 51.53125 44.71875 
Q 48 40.375 41.703125 38.8125 
Q 48.828125 37.15625 52.796875 32.3125 
Q 56.78125 27.484375 56.78125 20.515625 
Q 56.78125 9.90625 50.3125 4.234375 
Q 43.84375 -1.421875 31.78125 -1.421875 
Q 19.734375 -1.421875 13.25 4.234375 
Q 6.78125 9.90625 6.78125 20.515625 
Q 6.78125 27.484375 10.78125 32.3125 
Q 14.796875 37.15625 21.921875 38.8125 
z
M 18.3125 54.390625 
Q 18.3125 48.734375 21.84375 45.5625 
Q 25.390625 42.390625 31.78125 42.390625 
Q 38.140625 42.390625 41.71875 45.5625 
Q 45.3125 48.734375 45.3125 54.390625 
Q 45.3125 60.0625 41.71875 63.234375 
Q 38.140625 66.40625 31.78125 66.40625 
Q 25.390625 66.40625 21.84375 63.234375 
Q 18.3125 60.0625 18.3125 54.390625 
z
" id="DejaVuSans-56"/>
      </defs>
      <g transform="translate(979.671355 325.996875)scale(0.2 -0.2)">
       <use xlink:href="#DejaVuSans-56"/>
       <use x="63.623047" xlink:href="#DejaVuSans-101"/>
       <use x="125.146484" xlink:href="#DejaVuSans-43"/>
       <use x="208.935547" xlink:href="#DejaVuSans-48"/>
       <use x="272.558594" xlink:href="#DejaVuSans-53"/>
      </g>
     </g>
    </g>
    <g id="xtick_6">
     <g id="line2d_6">
      <g>
       <use style="stroke:#000000;stroke-width:0.8;" x="1244.782143" xlink:href="#mfa196ad4cc" y="303.8"/>
      </g>
     </g>
     <g id="text_6">
      <!-- 1e+06 -->
      <g transform="translate(1211.161831 325.996875)scale(0.2 -0.2)">
       <use xlink:href="#DejaVuSans-49"/>
       <use x="63.623047" xlink:href="#DejaVuSans-101"/>
       <use x="125.146484" xlink:href="#DejaVuSans-43"/>
       <use x="208.935547" xlink:href="#DejaVuSans-48"/>
       <use x="272.558594" xlink:href="#DejaVuSans-54"/>
      </g>
     </g>
    </g>
    <g id="text_7">
     <!-- Timestep -->
     <defs>
      <path d="M -0.296875 72.90625 
L 61.375 72.90625 
L 61.375 64.59375 
L 35.5 64.59375 
L 35.5 0 
L 25.59375 0 
L 25.59375 64.59375 
L -0.296875 64.59375 
z
" id="DejaVuSans-84"/>
      <path d="M 9.421875 54.6875 
L 18.40625 54.6875 
L 18.40625 0 
L 9.421875 0 
z
M 9.421875 75.984375 
L 18.40625 75.984375 
L 18.40625 64.59375 
L 9.421875 64.59375 
z
" id="DejaVuSans-105"/>
      <path d="M 52 44.1875 
Q 55.375 50.25 60.0625 53.125 
Q 64.75 56 71.09375 56 
Q 79.640625 56 84.28125 50.015625 
Q 88.921875 44.046875 88.921875 33.015625 
L 88.921875 0 
L 79.890625 0 
L 79.890625 32.71875 
Q 79.890625 40.578125 77.09375 44.375 
Q 74.3125 48.1875 68.609375 48.1875 
Q 61.625 48.1875 57.5625 43.546875 
Q 53.515625 38.921875 53.515625 30.90625 
L 53.515625 0 
L 44.484375 0 
L 44.484375 32.71875 
Q 44.484375 40.625 41.703125 44.40625 
Q 38.921875 48.1875 33.109375 48.1875 
Q 26.21875 48.1875 22.15625 43.53125 
Q 18.109375 38.875 18.109375 30.90625 
L 18.109375 0 
L 9.078125 0 
L 9.078125 54.6875 
L 18.109375 54.6875 
L 18.109375 46.1875 
Q 21.1875 51.21875 25.484375 53.609375 
Q 29.78125 56 35.6875 56 
Q 41.65625 56 45.828125 52.96875 
Q 50 49.953125 52 44.1875 
z
" id="DejaVuSans-109"/>
      <path d="M 44.28125 53.078125 
L 44.28125 44.578125 
Q 40.484375 46.53125 36.375 47.5 
Q 32.28125 48.484375 27.875 48.484375 
Q 21.1875 48.484375 17.84375 46.4375 
Q 14.5 44.390625 14.5 40.28125 
Q 14.5 37.15625 16.890625 35.375 
Q 19.28125 33.59375 26.515625 31.984375 
L 29.59375 31.296875 
Q 39.15625 29.25 43.1875 25.515625 
Q 47.21875 21.78125 47.21875 15.09375 
Q 47.21875 7.46875 41.1875 3.015625 
Q 35.15625 -1.421875 24.609375 -1.421875 
Q 20.21875 -1.421875 15.453125 -0.5625 
Q 10.6875 0.296875 5.421875 2 
L 5.421875 11.28125 
Q 10.40625 8.6875 15.234375 7.390625 
Q 20.0625 6.109375 24.8125 6.109375 
Q 31.15625 6.109375 34.5625 8.28125 
Q 37.984375 10.453125 37.984375 14.40625 
Q 37.984375 18.0625 35.515625 20.015625 
Q 33.0625 21.96875 24.703125 23.78125 
L 21.578125 24.515625 
Q 13.234375 26.265625 9.515625 29.90625 
Q 5.8125 33.546875 5.8125 39.890625 
Q 5.8125 47.609375 11.28125 51.796875 
Q 16.75 56 26.8125 56 
Q 31.78125 56 36.171875 55.265625 
Q 40.578125 54.546875 44.28125 53.078125 
z
" id="DejaVuSans-115"/>
      <path d="M 18.3125 70.21875 
L 18.3125 54.6875 
L 36.8125 54.6875 
L 36.8125 47.703125 
L 18.3125 47.703125 
L 18.3125 18.015625 
Q 18.3125 11.328125 20.140625 9.421875 
Q 21.96875 7.515625 27.59375 7.515625 
L 36.8125 7.515625 
L 36.8125 0 
L 27.59375 0 
Q 17.1875 0 13.234375 3.875 
Q 9.28125 7.765625 9.28125 18.015625 
L 9.28125 47.703125 
L 2.6875 47.703125 
L 2.6875 54.6875 
L 9.28125 54.6875 
L 9.28125 70.21875 
z
" id="DejaVuSans-116"/>
      <path d="M 18.109375 8.203125 
L 18.109375 -20.796875 
L 9.078125 -20.796875 
L 9.078125 54.6875 
L 18.109375 54.6875 
L 18.109375 46.390625 
Q 20.953125 51.265625 25.265625 53.625 
Q 29.59375 56 35.59375 56 
Q 45.5625 56 51.78125 48.09375 
Q 58.015625 40.1875 58.015625 27.296875 
Q 58.015625 14.40625 51.78125 6.484375 
Q 45.5625 -1.421875 35.59375 -1.421875 
Q 29.59375 -1.421875 25.265625 0.953125 
Q 20.953125 3.328125 18.109375 8.203125 
z
M 48.6875 27.296875 
Q 48.6875 37.203125 44.609375 42.84375 
Q 40.53125 48.484375 33.40625 48.484375 
Q 26.265625 48.484375 22.1875 42.84375 
Q 18.109375 37.203125 18.109375 27.296875 
Q 18.109375 17.390625 22.1875 11.75 
Q 26.265625 6.109375 33.40625 6.109375 
Q 40.53125 6.109375 44.609375 11.75 
Q 48.6875 17.390625 48.6875 27.296875 
z
" id="DejaVuSans-112"/>
     </defs>
     <g transform="translate(706.766445 349.353125)scale(0.2 -0.2)">
      <use xlink:href="#DejaVuSans-84"/>
      <use x="57.958984" xlink:href="#DejaVuSans-105"/>
      <use x="85.742188" xlink:href="#DejaVuSans-109"/>
      <use x="183.154297" xlink:href="#DejaVuSans-101"/>
      <use x="244.677734" xlink:href="#DejaVuSans-115"/>
      <use x="296.777344" xlink:href="#DejaVuSans-116"/>
      <use x="335.986328" xlink:href="#DejaVuSans-101"/>
      <use x="397.509766" xlink:href="#DejaVuSans-112"/>
     </g>
    </g>
   </g>
   <g id="matplotlib.axis_2">
    <g id="ytick_1">
     <g id="line2d_7">
      <defs>
       <path d="M 0 0 
L -3.5 0 
" id="mee740ff1be" style="stroke:#1f77b4;stroke-width:0.8;"/>
      </defs>
      <g>
       <use style="fill:#1f77b4;stroke:#1f77b4;stroke-width:0.8;" x="87.329766" xlink:href="#mee740ff1be" y="267.973021"/>
      </g>
     </g>
     <g id="text_8">
      <!-- 39 -->
      <defs>
       <path d="M 40.578125 39.3125 
Q 47.65625 37.796875 51.625 33 
Q 55.609375 28.21875 55.609375 21.1875 
Q 55.609375 10.40625 48.1875 4.484375 
Q 40.765625 -1.421875 27.09375 -1.421875 
Q 22.515625 -1.421875 17.65625 -0.515625 
Q 12.796875 0.390625 7.625 2.203125 
L 7.625 11.71875 
Q 11.71875 9.328125 16.59375 8.109375 
Q 21.484375 6.890625 26.8125 6.890625 
Q 36.078125 6.890625 40.9375 10.546875 
Q 45.796875 14.203125 45.796875 21.1875 
Q 45.796875 27.640625 41.28125 31.265625 
Q 36.765625 34.90625 28.71875 34.90625 
L 20.21875 34.90625 
L 20.21875 43.015625 
L 29.109375 43.015625 
Q 36.375 43.015625 40.234375 45.921875 
Q 44.09375 48.828125 44.09375 54.296875 
Q 44.09375 59.90625 40.109375 62.90625 
Q 36.140625 65.921875 28.71875 65.921875 
Q 24.65625 65.921875 20.015625 65.03125 
Q 15.375 64.15625 9.8125 62.3125 
L 9.8125 71.09375 
Q 15.4375 72.65625 20.34375 73.4375 
Q 25.25 74.21875 29.59375 74.21875 
Q 40.828125 74.21875 47.359375 69.109375 
Q 53.90625 64.015625 53.90625 55.328125 
Q 53.90625 49.265625 50.4375 45.09375 
Q 46.96875 40.921875 40.578125 39.3125 
z
" id="DejaVuSans-51"/>
       <path d="M 10.984375 1.515625 
L 10.984375 10.5 
Q 14.703125 8.734375 18.5 7.8125 
Q 22.3125 6.890625 25.984375 6.890625 
Q 35.75 6.890625 40.890625 13.453125 
Q 46.046875 20.015625 46.78125 33.40625 
Q 43.953125 29.203125 39.59375 26.953125 
Q 35.25 24.703125 29.984375 24.703125 
Q 19.046875 24.703125 12.671875 31.3125 
Q 6.296875 37.9375 6.296875 49.421875 
Q 6.296875 60.640625 12.9375 67.421875 
Q 19.578125 74.21875 30.609375 74.21875 
Q 43.265625 74.21875 49.921875 64.515625 
Q 56.59375 54.828125 56.59375 36.375 
Q 56.59375 19.140625 48.40625 8.859375 
Q 40.234375 -1.421875 26.421875 -1.421875 
Q 22.703125 -1.421875 18.890625 -0.6875 
Q 15.09375 0.046875 10.984375 1.515625 
z
M 30.609375 32.421875 
Q 37.25 32.421875 41.125 36.953125 
Q 45.015625 41.5 45.015625 49.421875 
Q 45.015625 57.28125 41.125 61.84375 
Q 37.25 66.40625 30.609375 66.40625 
Q 23.96875 66.40625 20.09375 61.84375 
Q 16.21875 57.28125 16.21875 49.421875 
Q 16.21875 41.5 20.09375 36.953125 
Q 23.96875 32.421875 30.609375 32.421875 
z
" id="DejaVuSans-57"/>
      </defs>
      <g style="fill:#1f77b4;" transform="translate(61.242266 273.671849)scale(0.15 -0.15)">
       <use xlink:href="#DejaVuSans-51"/>
       <use x="63.623047" xlink:href="#DejaVuSans-57"/>
      </g>
     </g>
    </g>
    <g id="ytick_2">
     <g id="line2d_8">
      <g>
       <use style="fill:#1f77b4;stroke:#1f77b4;stroke-width:0.8;" x="87.329766" xlink:href="#mee740ff1be" y="227.243402"/>
      </g>
     </g>
     <g id="text_9">
      <!-- 40 -->
      <g style="fill:#1f77b4;" transform="translate(61.242266 232.94223)scale(0.15 -0.15)">
       <use xlink:href="#DejaVuSans-52"/>
       <use x="63.623047" xlink:href="#DejaVuSans-48"/>
      </g>
     </g>
    </g>
    <g id="ytick_3">
     <g id="line2d_9">
      <g>
       <use style="fill:#1f77b4;stroke:#1f77b4;stroke-width:0.8;" x="87.329766" xlink:href="#mee740ff1be" y="186.513783"/>
      </g>
     </g>
     <g id="text_10">
      <!-- 41 -->
      <g style="fill:#1f77b4;" transform="translate(61.242266 192.212611)scale(0.15 -0.15)">
       <use xlink:href="#DejaVuSans-52"/>
       <use x="63.623047" xlink:href="#DejaVuSans-49"/>
      </g>
     </g>
    </g>
    <g id="ytick_4">
     <g id="line2d_10">
      <g>
       <use style="fill:#1f77b4;stroke:#1f77b4;stroke-width:0.8;" x="87.329766" xlink:href="#mee740ff1be" y="145.784164"/>
      </g>
     </g>
     <g id="text_11">
      <!-- 42 -->
      <g style="fill:#1f77b4;" transform="translate(61.242266 151.482992)scale(0.15 -0.15)">
       <use xlink:href="#DejaVuSans-52"/>
       <use x="63.623047" xlink:href="#DejaVuSans-50"/>
      </g>
     </g>
    </g>
    <g id="ytick_5">
     <g id="line2d_11">
      <g>
       <use style="fill:#1f77b4;stroke:#1f77b4;stroke-width:0.8;" x="87.329766" xlink:href="#mee740ff1be" y="105.054545"/>
      </g>
     </g>
     <g id="text_12">
      <!-- 43 -->
      <g style="fill:#1f77b4;" transform="translate(61.242266 110.753374)scale(0.15 -0.15)">
       <use xlink:href="#DejaVuSans-52"/>
       <use x="63.623047" xlink:href="#DejaVuSans-51"/>
      </g>
     </g>
    </g>
    <g id="ytick_6">
     <g id="line2d_12">
      <g>
       <use style="fill:#1f77b4;stroke:#1f77b4;stroke-width:0.8;" x="87.329766" xlink:href="#mee740ff1be" y="64.324927"/>
      </g>
     </g>
     <g id="text_13">
      <!-- 44 -->
      <g style="fill:#1f77b4;" transform="translate(61.242266 70.023755)scale(0.15 -0.15)">
       <use xlink:href="#DejaVuSans-52"/>
       <use x="63.623047" xlink:href="#DejaVuSans-52"/>
      </g>
     </g>
    </g>
    <g id="text_14">
     <!-- Reward -->
     <defs>
      <path d="M 44.390625 34.1875 
Q 47.5625 33.109375 50.5625 29.59375 
Q 53.5625 26.078125 56.59375 19.921875 
L 66.609375 0 
L 56 0 
L 46.6875 18.703125 
Q 43.0625 26.03125 39.671875 28.421875 
Q 36.28125 30.8125 30.421875 30.8125 
L 19.671875 30.8125 
L 19.671875 0 
L 9.8125 0 
L 9.8125 72.90625 
L 32.078125 72.90625 
Q 44.578125 72.90625 50.734375 67.671875 
Q 56.890625 62.453125 56.890625 51.90625 
Q 56.890625 45.015625 53.6875 40.46875 
Q 50.484375 35.9375 44.390625 34.1875 
z
M 19.671875 64.796875 
L 19.671875 38.921875 
L 32.078125 38.921875 
Q 39.203125 38.921875 42.84375 42.21875 
Q 46.484375 45.515625 46.484375 51.90625 
Q 46.484375 58.296875 42.84375 61.546875 
Q 39.203125 64.796875 32.078125 64.796875 
z
" id="DejaVuSans-82"/>
      <path d="M 4.203125 54.6875 
L 13.1875 54.6875 
L 24.421875 12.015625 
L 35.59375 54.6875 
L 46.1875 54.6875 
L 57.421875 12.015625 
L 68.609375 54.6875 
L 77.59375 54.6875 
L 63.28125 0 
L 52.6875 0 
L 40.921875 44.828125 
L 29.109375 0 
L 18.5 0 
z
" id="DejaVuSans-119"/>
      <path d="M 34.28125 27.484375 
Q 23.390625 27.484375 19.1875 25 
Q 14.984375 22.515625 14.984375 16.5 
Q 14.984375 11.71875 18.140625 8.90625 
Q 21.296875 6.109375 26.703125 6.109375 
Q 34.1875 6.109375 38.703125 11.40625 
Q 43.21875 16.703125 43.21875 25.484375 
L 43.21875 27.484375 
z
M 52.203125 31.203125 
L 52.203125 0 
L 43.21875 0 
L 43.21875 8.296875 
Q 40.140625 3.328125 35.546875 0.953125 
Q 30.953125 -1.421875 24.3125 -1.421875 
Q 15.921875 -1.421875 10.953125 3.296875 
Q 6 8.015625 6 15.921875 
Q 6 25.140625 12.171875 29.828125 
Q 18.359375 34.515625 30.609375 34.515625 
L 43.21875 34.515625 
L 43.21875 35.40625 
Q 43.21875 41.609375 39.140625 45 
Q 35.0625 48.390625 27.6875 48.390625 
Q 23 48.390625 18.546875 47.265625 
Q 14.109375 46.140625 10.015625 43.890625 
L 10.015625 52.203125 
Q 14.9375 54.109375 19.578125 55.046875 
Q 24.21875 56 28.609375 56 
Q 40.484375 56 46.34375 49.84375 
Q 52.203125 43.703125 52.203125 31.203125 
z
" id="DejaVuSans-97"/>
      <path d="M 41.109375 46.296875 
Q 39.59375 47.171875 37.8125 47.578125 
Q 36.03125 48 33.890625 48 
Q 26.265625 48 22.1875 43.046875 
Q 18.109375 38.09375 18.109375 28.8125 
L 18.109375 0 
L 9.078125 0 
L 9.078125 54.6875 
L 18.109375 54.6875 
L 18.109375 46.1875 
Q 20.953125 51.171875 25.484375 53.578125 
Q 30.03125 56 36.53125 56 
Q 37.453125 56 38.578125 55.875 
Q 39.703125 55.765625 41.0625 55.515625 
z
" id="DejaVuSans-114"/>
      <path d="M 45.40625 46.390625 
L 45.40625 75.984375 
L 54.390625 75.984375 
L 54.390625 0 
L 45.40625 0 
L 45.40625 8.203125 
Q 42.578125 3.328125 38.25 0.953125 
Q 33.9375 -1.421875 27.875 -1.421875 
Q 17.96875 -1.421875 11.734375 6.484375 
Q 5.515625 14.40625 5.515625 27.296875 
Q 5.515625 40.1875 11.734375 48.09375 
Q 17.96875 56 27.875 56 
Q 33.9375 56 38.25 53.625 
Q 42.578125 51.265625 45.40625 46.390625 
z
M 14.796875 27.296875 
Q 14.796875 17.390625 18.875 11.75 
Q 22.953125 6.109375 30.078125 6.109375 
Q 37.203125 6.109375 41.296875 11.75 
Q 45.40625 17.390625 45.40625 27.296875 
Q 45.40625 37.203125 41.296875 42.84375 
Q 37.203125 48.484375 30.078125 48.484375 
Q 22.953125 48.484375 18.875 42.84375 
Q 14.796875 37.203125 14.796875 27.296875 
z
" id="DejaVuSans-100"/>
     </defs>
     <g style="fill:#1f77b4;" transform="translate(53.082891 212.442188)rotate(-90)scale(0.2 -0.2)">
      <use xlink:href="#DejaVuSans-82"/>
      <use x="64.982422" xlink:href="#DejaVuSans-101"/>
      <use x="126.505859" xlink:href="#DejaVuSans-119"/>
      <use x="208.292969" xlink:href="#DejaVuSans-97"/>
      <use x="269.572266" xlink:href="#DejaVuSans-114"/>
      <use x="308.935547" xlink:href="#DejaVuSans-100"/>
     </g>
    </g>
   </g>
   <g id="line2d_13">
    <path clip-path="url(#pb3d9c0bdad)" d="M 87.329766 180.479765 
L 90.802123 88.460997 
L 90.859995 90.723754 
L 91.253529 101.811261 
L 91.265104 102.037537 
L 91.322976 101.283284 
L 91.496594 99.020528 
L 91.531318 99.92563 
L 91.994299 114.859824 
L 92.410982 134.847507 
L 92.677196 147.141818 
L 92.885537 159.360704 
L 92.931835 156.645396 
L 93.348518 129.190616 
L 93.42954 132.886452 
L 93.765201 143.370557 
L 94.054564 151.139355 
L 94.27448 166.903226 
L 94.332353 164.263343 
L 94.50597 156.343695 
L 94.598567 156.947097 
L 94.737461 157.852199 
L 94.749035 157.399648 
L 94.968951 148.801173 
L 95.061548 149.404575 
L 95.223591 151.06393 
L 95.431932 157.852199 
L 95.524528 157.248798 
L 95.674997 155.740293 
L 96.126404 136.733138 
L 96.137978 136.808563 
L 96.357894 138.241642 
L 96.404192 137.939941 
L 96.624108 135.828035 
L 96.820875 130.69912 
L 96.855599 132.056774 
L 97.052366 139.750147 
L 97.098664 137.63824 
L 97.515347 121.648094 
L 97.538496 122.402346 
L 97.978327 133.716129 
L 98.302414 119.536188 
L 98.730672 96.757771 
L 99.13578 83.935484 
L 99.147354 84.538886 
L 99.679782 106.56305 
L 99.830251 106.56305 
L 100.165912 97.964575 
L 100.293232 92.98651 
L 100.385828 93.589912 
L 100.547872 95.249267 
L 100.756213 102.037537 
L 100.802511 100.529032 
L 100.987704 94.495015 
L 101.057151 95.400117 
L 101.43911 98.945103 
L 101.554855 100.378182 
L 101.682175 102.037537 
L 101.751622 101.584985 
L 101.913666 100.529032 
L 101.92524 100.906158 
L 102.376647 114.105572 
L 102.388221 113.125044 
L 102.608137 94.495015 
L 102.677584 96.757771 
L 103.02482 111.691965 
L 103.071118 114.105572 
L 103.140565 112.295367 
L 103.302608 108.071554 
L 103.372056 108.976657 
L 103.568822 112.672493 
L 103.765589 121.648094 
L 103.823462 119.385337 
L 104.425337 91.553431 
L 104.460061 89.969501 
L 104.506359 92.684809 
L 104.888318 108.674956 
L 104.980914 113.728446 
L 105.258703 126.173607 
L 105.386023 126.173607 
L 105.617513 120.139589 
L 105.663811 121.648094 
L 105.849004 127.682111 
L 105.918451 126.324457 
L 106.080494 123.156598 
L 106.126792 124.363402 
L 106.450879 135.526334 
L 106.543475 139.750147 
L 106.624497 138.694194 
L 106.994882 135.300059 
L 107.006456 135.224633 
L 107.237947 150.309677 
L 107.330543 149.706276 
L 107.481012 148.122346 
L 107.700927 135.224633 
L 107.781949 136.808563 
L 108.036589 139.750147 
L 108.626889 139.750147 
L 108.9857 158.00305 
L 109.08987 159.360704 
L 109.124594 158.681877 
L 109.321361 154.835191 
L 109.356084 155.966569 
L 109.657022 162.377713 
L 109.784342 162.377713 
L 110.015832 156.343695 
L 110.096854 156.871672 
L 110.258897 158.455601 
L 110.710304 181.98827 
L 110.745027 179.272962 
L 111.057539 163.131965 
L 111.196434 161.62346 
L 111.636266 145.784164 
L 111.705713 148.046921 
L 111.867756 153.326686 
L 111.914054 151.818182 
L 112.099247 145.784164 
L 112.13397 148.273196 
L 112.562227 172.937243 
L 112.573802 172.182991 
L 112.793718 157.852199 
L 112.863165 160.114956 
L 113.407168 174.445748 
L 113.488189 174.445748 
L 113.71968 165.394721 
L 113.754403 167.883754 
L 114.182661 191.039296 
L 114.553046 178.66956 
L 114.911856 157.324223 
L 115.30539 127.832962 
L 115.467433 123.005748 
L 115.571604 121.648094 
L 115.617902 122.251496 
L 115.837818 126.249032 
L 116.138755 135.224633 
L 116.266075 135.224633 
L 116.497566 147.292669 
L 116.532289 144.351085 
L 116.856376 126.022757 
L 116.960546 124.665103 
L 116.983696 125.721056 
L 117.423527 142.767155 
L 117.458251 142.54088 
L 117.701316 140.353548 
L 117.96753 133.037302 
L 118.81247 89.969501 
L 118.905066 94.796716 
L 119.043961 102.037537 
L 119.090259 99.322229 
L 119.472218 83.332082 
L 119.587963 77.675191 
L 119.738432 68.85044 
L 119.78473 71.565748 
L 119.969923 82.426979 
L 120.016221 79.711672 
L 120.363456 65.682581 
L 120.432904 64.324927 
L 120.456053 65.984282 
L 121.300993 118.631085 
L 121.810272 129.039765 
L 121.821846 129.190616 
L 121.85657 128.285513 
L 122.053337 123.156598 
L 122.099635 124.363402 
L 122.284827 129.190616 
L 122.319551 127.380411 
L 122.747808 105.054545 
L 122.794106 108.071554 
L 123.129768 123.081173 
L 123.44228 129.190616 
L 123.477003 127.832962 
L 123.67377 120.139589 
L 123.754792 121.195543 
L 124.240922 128.888915 
L 124.368242 132.207625 
L 124.437689 131.302522 
L 124.831223 126.173607 
L 124.865946 126.852434 
L 125.062713 130.69912 
L 125.085862 129.190616 
L 125.294204 115.614076 
L 125.3868 116.82088 
L 125.525694 118.631085 
L 125.548843 117.575132 
L 125.757185 108.071554 
L 125.803483 110.485161 
L 125.988675 120.139589 
L 126.046548 117.499707 
L 126.220166 109.580059 
L 126.266464 111.691965 
L 126.451656 120.139589 
L 126.544252 119.536188 
L 126.706296 117.876833 
L 127.157702 99.77478 
L 127.493363 84.689736 
L 127.609108 83.935484 
L 127.620683 84.237185 
L 127.840599 89.969501 
L 127.886897 88.460997 
L 128.072089 82.426979 
L 128.129962 83.935484 
L 128.30358 88.460997 
L 128.338303 87.103343 
L 128.53507 79.409971 
L 128.558219 81.521877 
L 128.928604 105.808798 
L 128.998051 108.071554 
L 129.055924 106.56305 
L 129.449458 93.439062 
L 129.692523 86.952493 
L 129.704097 87.555894 
L 129.924013 99.020528 
L 129.99346 97.210323 
L 130.155504 92.98651 
L 130.213376 94.117889 
L 130.549037 98.567977 
L 130.618485 99.020528 
L 130.977295 120.29044 
L 131.081466 121.648094 
L 131.116189 120.742991 
L 131.312956 115.614076 
L 131.336105 117.575132 
L 131.694915 139.146745 
L 131.83381 145.407038 
L 132.007427 157.852199 
L 132.076875 155.589443 
L 132.238918 150.309677 
L 132.262067 152.421584 
L 132.470408 171.428739 
L 132.563005 170.221935 
L 132.771346 166.148974 
L 132.933389 160.869208 
L 133.002836 162.226862 
L 133.222752 168.41173 
L 134.079267 207.331144 
L 134.310758 216.23132 
L 134.322332 216.683871 
L 134.380205 214.79824 
L 134.553823 209.141349 
L 134.600121 211.253255 
L 134.785313 219.70088 
L 134.843186 217.815249 
L 135.016804 212.158358 
L 135.086251 213.516012 
L 135.410337 221.963636 
L 135.850169 232.674018 
L 135.942765 233.277419 
L 135.965915 232.824868 
L 136.174256 228.751906 
L 136.255278 229.279883 
L 136.405746 230.260411 
L 136.428895 229.807859 
L 136.868727 219.70088 
L 136.961324 221.511085 
L 137.15809 227.243402 
L 138.02618 269.481525 
L 138.072478 269.179824 
L 138.25767 267.973021 
L 138.489161 292.109091 
L 138.535459 287.583578 
L 138.847971 267.82217 
L 139.056312 266.464516 
L 139.183632 266.464516 
L 139.415123 278.532551 
L 139.472995 276.269795 
L 139.646613 269.481525 
L 139.739209 270.084927 
L 139.878104 270.990029 
L 140.236914 251.228622 
L 140.572575 246.853959 
L 140.607299 247.532786 
L 140.804065 251.379472 
L 140.838789 250.248094 
L 141.544835 230.863812 
L 141.730027 227.243402 
L 141.7879 227.997654 
L 141.961518 230.260411 
L 141.973092 229.506158 
L 142.412924 208.009971 
L 142.655989 203.107331 
L 143.327312 217.739824 
L 143.350461 218.192375 
L 143.362035 217.287273 
L 143.581951 200.090323 
L 143.674547 200.693724 
L 143.813442 201.598827 
L 144.160677 184.251026 
L 144.276423 183.496774 
L 144.287997 183.798475 
L 144.507913 189.530792 
L 144.531062 187.569736 
L 144.739404 169.920235 
L 144.785702 173.540645 
L 144.970894 188.022287 
L 145.06349 187.418886 
L 145.202385 186.513783 
L 145.213959 186.890909 
L 145.433875 194.056305 
L 145.468599 192.019824 
L 145.665365 180.479765 
L 145.746387 181.535718 
L 146.116772 187.796012 
L 146.232517 192.095249 
L 146.359837 197.073314 
L 146.382986 194.961408 
L 146.591327 175.954252 
L 146.683924 176.557654 
L 146.822818 177.462757 
L 146.834392 177.010205 
L 147.181628 167.582053 
L 147.285799 166.903226 
L 147.320522 167.355777 
L 147.517289 169.920235 
L 147.586736 169.467683 
L 147.783503 167.506628 
L 148.211761 154.835191 
L 148.246484 158.229326 
L 148.628444 184.703578 
L 148.674742 186.513783 
L 148.755763 185.45783 
L 149.126148 179.197537 
L 149.554405 168.713431 
L 149.600704 166.903226 
L 149.658576 168.41173 
L 149.832194 172.937243 
L 149.855343 171.277889 
L 150.214153 153.402111 
L 150.526665 145.784164 
L 150.619262 147.59437 
L 150.862327 150.309677 
L 150.989646 150.309677 
L 151.25586 143.295132 
L 151.568373 128.436364 
L 151.684118 127.682111 
L 151.695692 128.134663 
L 152.019779 136.733138 
L 152.147099 136.733138 
L 152.378589 132.207625 
L 152.401738 133.263578 
L 153.304551 172.937243 
L 153.362424 172.560117 
L 153.640212 171.428739 
L 153.767532 171.428739 
L 154.17264 186.890909 
L 154.230513 188.022287 
L 154.276811 187.117185 
L 154.462004 183.496774 
L 154.519876 184.251026 
L 154.693494 186.513783 
L 154.739792 185.910381 
L 154.924984 183.496774 
L 154.948134 184.251026 
L 155.619456 203.107331 
L 155.989841 194.659707 
L 156.082437 194.056305 
L 156.128735 194.358006 
L 156.418098 195.564809 
L 156.545418 195.564809 
L 156.811632 183.949326 
L 157.112569 160.869208 
L 157.239889 160.869208 
L 157.47138 145.784164 
L 157.517678 148.801173 
L 157.70287 160.869208 
L 157.795466 160.265806 
L 157.934361 159.360704 
L 157.969084 159.813255 
L 158.165851 162.377713 
L 158.200575 161.698886 
L 158.397342 157.852199 
L 158.44364 159.059003 
L 158.628832 163.886217 
L 158.663556 162.076012 
L 158.860323 151.818182 
L 158.941344 152.874135 
L 159.091813 154.835191 
L 159.126537 153.930088 
L 159.323304 148.801173 
L 159.369602 150.007977 
L 159.554794 154.835191 
L 159.635816 154.307214 
L 159.786284 153.326686 
L 159.797859 153.628387 
L 160.017775 159.360704 
L 160.064073 158.1539 
L 160.469181 144.728211 
L 160.480756 144.27566 
L 160.538629 146.16129 
L 160.712246 151.818182 
L 160.735395 148.952023 
L 161.082631 119.536188 
L 161.175227 117.122581 
L 161.221525 118.329384 
L 161.406718 123.156598 
L 161.441441 121.798944 
L 161.742379 114.105572 
L 161.869699 114.105572 
L 162.101189 100.529032 
L 162.170636 102.339238 
L 162.56417 111.088563 
L 162.587319 110.334311 
L 162.795661 103.546041 
L 162.888257 104.149443 
L 163.027151 105.054545 
L 163.258642 127.682111 
L 163.316514 123.156598 
L 163.490132 109.580059 
L 163.582728 110.18346 
L 163.721623 111.088563 
L 163.767921 110.786862 
L 163.953113 109.580059 
L 163.999411 109.88176 
L 164.184604 111.088563 
L 164.416094 83.935484 
L 164.485541 87.555894 
L 164.786479 97.813724 
L 164.983246 101.735836 
L 165.110565 105.054545 
L 165.191587 104.526569 
L 165.388354 102.640938 
L 165.619844 96.30522 
L 165.96708 82.276129 
L 166.0944 77.901466 
L 166.522657 61.006217 
L 166.730999 58.290909 
L 166.800446 58.74346 
L 166.962489 59.799413 
L 167.321299 79.560821 
L 167.645386 82.351554 
L 167.668535 82.954956 
L 168.073643 96.606921 
L 168.131516 99.020528 
L 168.478752 130.171144 
L 168.860711 139.750147 
L 169.277394 166.903226 
L 169.346841 165.093021 
L 169.508884 160.869208 
L 169.543608 162.679413 
L 169.995014 180.630616 
L 170.249654 182.893372 
L 170.666337 192.547801 
L 170.735784 190.737595 
L 171.036722 185.60868 
L 171.140892 184.477302 
L 171.360808 174.445748 
L 171.430255 176.255953 
L 171.592299 180.479765 
L 171.638597 179.272962 
L 171.823789 174.445748 
L 171.881662 175.577126 
L 172.576133 191.039296 
L 172.981242 216.683871 
L 173.073838 211.253255 
L 173.212732 203.107331 
L 173.270605 205.370088 
L 173.664138 225.05607 
L 173.675713 225.734897 
L 173.74516 223.472141 
L 174.092396 215.778768 
L 174.184992 213.365161 
L 174.370184 206.12434 
L 174.370184 206.12434 
" style="fill:none;stroke:#1f77b4;stroke-linecap:square;stroke-width:1.5;"/>
   </g>
   <g id="patch_3">
    <path d="M 87.329766 303.8 
L 87.329766 46.6 
" style="fill:none;stroke:#000000;stroke-linecap:square;stroke-linejoin:miter;stroke-width:0.8;"/>
   </g>
   <g id="patch_4">
    <path d="M 1418.4 303.8 
L 1418.4 46.6 
" style="fill:none;stroke:#000000;stroke-linecap:square;stroke-linejoin:miter;stroke-width:0.8;"/>
   </g>
   <g id="patch_5">
    <path d="M 87.329766 303.8 
L 1418.4 303.8 
" style="fill:none;stroke:#000000;stroke-linecap:square;stroke-linejoin:miter;stroke-width:0.8;"/>
   </g>
   <g id="patch_6">
    <path d="M 87.329766 46.6 
L 1418.4 46.6 
" style="fill:none;stroke:#000000;stroke-linecap:square;stroke-linejoin:miter;stroke-width:0.8;"/>
   </g>
   <g id="text_15">
    <!-- Avg. Last 10 Rewards: 40.0 || env_2_0 || Elapsed Time: 0:26:16 -->
    <defs>
     <path d="M 34.1875 63.1875 
L 20.796875 26.90625 
L 47.609375 26.90625 
z
M 28.609375 72.90625 
L 39.796875 72.90625 
L 67.578125 0 
L 57.328125 0 
L 50.6875 18.703125 
L 17.828125 18.703125 
L 11.1875 0 
L 0.78125 0 
z
" id="DejaVuSans-65"/>
     <path d="M 2.984375 54.6875 
L 12.5 54.6875 
L 29.59375 8.796875 
L 46.6875 54.6875 
L 56.203125 54.6875 
L 35.6875 0 
L 23.484375 0 
z
" id="DejaVuSans-118"/>
     <path d="M 45.40625 27.984375 
Q 45.40625 37.75 41.375 43.109375 
Q 37.359375 48.484375 30.078125 48.484375 
Q 22.859375 48.484375 18.828125 43.109375 
Q 14.796875 37.75 14.796875 27.984375 
Q 14.796875 18.265625 18.828125 12.890625 
Q 22.859375 7.515625 30.078125 7.515625 
Q 37.359375 7.515625 41.375 12.890625 
Q 45.40625 18.265625 45.40625 27.984375 
z
M 54.390625 6.78125 
Q 54.390625 -7.171875 48.1875 -13.984375 
Q 42 -20.796875 29.203125 -20.796875 
Q 24.46875 -20.796875 20.265625 -20.09375 
Q 16.0625 -19.390625 12.109375 -17.921875 
L 12.109375 -9.1875 
Q 16.0625 -11.328125 19.921875 -12.34375 
Q 23.78125 -13.375 27.78125 -13.375 
Q 36.625 -13.375 41.015625 -8.765625 
Q 45.40625 -4.15625 45.40625 5.171875 
L 45.40625 9.625 
Q 42.625 4.78125 38.28125 2.390625 
Q 33.9375 0 27.875 0 
Q 17.828125 0 11.671875 7.65625 
Q 5.515625 15.328125 5.515625 27.984375 
Q 5.515625 40.671875 11.671875 48.328125 
Q 17.828125 56 27.875 56 
Q 33.9375 56 38.28125 53.609375 
Q 42.625 51.21875 45.40625 46.390625 
L 45.40625 54.6875 
L 54.390625 54.6875 
z
" id="DejaVuSans-103"/>
     <path d="M 10.6875 12.40625 
L 21 12.40625 
L 21 0 
L 10.6875 0 
z
" id="DejaVuSans-46"/>
     <path id="DejaVuSans-32"/>
     <path d="M 9.8125 72.90625 
L 19.671875 72.90625 
L 19.671875 8.296875 
L 55.171875 8.296875 
L 55.171875 0 
L 9.8125 0 
z
" id="DejaVuSans-76"/>
     <path d="M 11.71875 12.40625 
L 22.015625 12.40625 
L 22.015625 0 
L 11.71875 0 
z
M 11.71875 51.703125 
L 22.015625 51.703125 
L 22.015625 39.3125 
L 11.71875 39.3125 
z
" id="DejaVuSans-58"/>
     <path d="M 21 76.421875 
L 21 -23.578125 
L 12.703125 -23.578125 
L 12.703125 76.421875 
z
" id="DejaVuSans-124"/>
     <path d="M 54.890625 33.015625 
L 54.890625 0 
L 45.90625 0 
L 45.90625 32.71875 
Q 45.90625 40.484375 42.875 44.328125 
Q 39.84375 48.1875 33.796875 48.1875 
Q 26.515625 48.1875 22.3125 43.546875 
Q 18.109375 38.921875 18.109375 30.90625 
L 18.109375 0 
L 9.078125 0 
L 9.078125 54.6875 
L 18.109375 54.6875 
L 18.109375 46.1875 
Q 21.34375 51.125 25.703125 53.5625 
Q 30.078125 56 35.796875 56 
Q 45.21875 56 50.046875 50.171875 
Q 54.890625 44.34375 54.890625 33.015625 
z
" id="DejaVuSans-110"/>
     <path d="M 50.984375 -16.609375 
L 50.984375 -23.578125 
L -0.984375 -23.578125 
L -0.984375 -16.609375 
z
" id="DejaVuSans-95"/>
     <path d="M 9.8125 72.90625 
L 55.90625 72.90625 
L 55.90625 64.59375 
L 19.671875 64.59375 
L 19.671875 43.015625 
L 54.390625 43.015625 
L 54.390625 34.71875 
L 19.671875 34.71875 
L 19.671875 8.296875 
L 56.78125 8.296875 
L 56.78125 0 
L 9.8125 0 
z
" id="DejaVuSans-69"/>
     <path d="M 9.421875 75.984375 
L 18.40625 75.984375 
L 18.40625 0 
L 9.421875 0 
z
" id="DejaVuSans-108"/>
    </defs>
    <g transform="translate(374.384883 40.6)scale(0.24 -0.24)">
     <use xlink:href="#DejaVuSans-65"/>
     <use x="62.533203" xlink:href="#DejaVuSans-118"/>
     <use x="121.712891" xlink:href="#DejaVuSans-103"/>
     <use x="185.189453" xlink:href="#DejaVuSans-46"/>
     <use x="216.976562" xlink:href="#DejaVuSans-32"/>
     <use x="248.763672" xlink:href="#DejaVuSans-76"/>
     <use x="304.476562" xlink:href="#DejaVuSans-97"/>
     <use x="365.755859" xlink:href="#DejaVuSans-115"/>
     <use x="417.855469" xlink:href="#DejaVuSans-116"/>
     <use x="457.064453" xlink:href="#DejaVuSans-32"/>
     <use x="488.851562" xlink:href="#DejaVuSans-49"/>
     <use x="552.474609" xlink:href="#DejaVuSans-48"/>
     <use x="616.097656" xlink:href="#DejaVuSans-32"/>
     <use x="647.884766" xlink:href="#DejaVuSans-82"/>
     <use x="712.867188" xlink:href="#DejaVuSans-101"/>
     <use x="774.390625" xlink:href="#DejaVuSans-119"/>
     <use x="856.177734" xlink:href="#DejaVuSans-97"/>
     <use x="917.457031" xlink:href="#DejaVuSans-114"/>
     <use x="956.820312" xlink:href="#DejaVuSans-100"/>
     <use x="1020.296875" xlink:href="#DejaVuSans-115"/>
     <use x="1072.396484" xlink:href="#DejaVuSans-58"/>
     <use x="1106.087891" xlink:href="#DejaVuSans-32"/>
     <use x="1137.875" xlink:href="#DejaVuSans-52"/>
     <use x="1201.498047" xlink:href="#DejaVuSans-48"/>
     <use x="1265.121094" xlink:href="#DejaVuSans-46"/>
     <use x="1296.908203" xlink:href="#DejaVuSans-48"/>
     <use x="1360.53125" xlink:href="#DejaVuSans-32"/>
     <use x="1392.318359" xlink:href="#DejaVuSans-124"/>
     <use x="1426.009766" xlink:href="#DejaVuSans-124"/>
     <use x="1459.701172" xlink:href="#DejaVuSans-32"/>
     <use x="1491.488281" xlink:href="#DejaVuSans-101"/>
     <use x="1553.011719" xlink:href="#DejaVuSans-110"/>
     <use x="1616.390625" xlink:href="#DejaVuSans-118"/>
     <use x="1675.570312" xlink:href="#DejaVuSans-95"/>
     <use x="1725.570312" xlink:href="#DejaVuSans-50"/>
     <use x="1789.193359" xlink:href="#DejaVuSans-95"/>
     <use x="1839.193359" xlink:href="#DejaVuSans-48"/>
     <use x="1902.816406" xlink:href="#DejaVuSans-32"/>
     <use x="1934.603516" xlink:href="#DejaVuSans-124"/>
     <use x="1968.294922" xlink:href="#DejaVuSans-124"/>
     <use x="2001.986328" xlink:href="#DejaVuSans-32"/>
     <use x="2033.773438" xlink:href="#DejaVuSans-69"/>
     <use x="2096.957031" xlink:href="#DejaVuSans-108"/>
     <use x="2124.740234" xlink:href="#DejaVuSans-97"/>
     <use x="2186.019531" xlink:href="#DejaVuSans-112"/>
     <use x="2249.496094" xlink:href="#DejaVuSans-115"/>
     <use x="2301.595703" xlink:href="#DejaVuSans-101"/>
     <use x="2363.119141" xlink:href="#DejaVuSans-100"/>
     <use x="2426.595703" xlink:href="#DejaVuSans-32"/>
     <use x="2458.382812" xlink:href="#DejaVuSans-84"/>
     <use x="2516.341797" xlink:href="#DejaVuSans-105"/>
     <use x="2544.125" xlink:href="#DejaVuSans-109"/>
     <use x="2641.537109" xlink:href="#DejaVuSans-101"/>
     <use x="2703.060547" xlink:href="#DejaVuSans-58"/>
     <use x="2736.751953" xlink:href="#DejaVuSans-32"/>
     <use x="2768.539062" xlink:href="#DejaVuSans-48"/>
     <use x="2832.162109" xlink:href="#DejaVuSans-58"/>
     <use x="2865.853516" xlink:href="#DejaVuSans-50"/>
     <use x="2929.476562" xlink:href="#DejaVuSans-54"/>
     <use x="2993.099609" xlink:href="#DejaVuSans-58"/>
     <use x="3026.791016" xlink:href="#DejaVuSans-49"/>
     <use x="3090.414062" xlink:href="#DejaVuSans-54"/>
    </g>
   </g>
   <g id="legend_1">
    <g id="patch_7">
     <path d="M 1304.036719 296.3 
L 1407.9 296.3 
Q 1410.9 296.3 1410.9 293.3 
L 1410.9 272.782813 
Q 1410.9 269.782813 1407.9 269.782813 
L 1304.036719 269.782813 
Q 1301.036719 269.782813 1301.036719 272.782813 
L 1301.036719 293.3 
Q 1301.036719 296.3 1304.036719 296.3 
z
" style="fill:#ffffff;opacity:0.8;stroke:#cccccc;stroke-linejoin:miter;"/>
    </g>
    <g id="line2d_14">
     <path d="M 1307.036719 281.930469 
L 1337.036719 281.930469 
" style="fill:none;stroke:#1f77b4;stroke-linecap:square;stroke-width:1.5;"/>
    </g>
    <g id="line2d_15"/>
    <g id="text_16">
     <!-- Reward -->
     <g transform="translate(1349.036719 287.180469)scale(0.15 -0.15)">
      <use xlink:href="#DejaVuSans-82"/>
      <use x="64.982422" xlink:href="#DejaVuSans-101"/>
      <use x="126.505859" xlink:href="#DejaVuSans-119"/>
      <use x="208.292969" xlink:href="#DejaVuSans-97"/>
      <use x="269.572266" xlink:href="#DejaVuSans-114"/>
      <use x="308.935547" xlink:href="#DejaVuSans-100"/>
     </g>
    </g>
   </g>
  </g>
  <g id="axes_2">
   <g id="patch_8">
    <path d="M 87.329766 656.6 
L 1418.4 656.6 
L 1418.4 399.4 
L 87.329766 399.4 
z
" style="fill:#ffffff;"/>
   </g>
   <g id="matplotlib.axis_3">
    <g id="xtick_7">
     <g id="line2d_16">
      <g>
       <use style="stroke:#000000;stroke-width:0.8;" x="203.075003" xlink:href="#mfa196ad4cc" y="656.6"/>
      </g>
     </g>
     <g id="text_17">
      <!-- 1e+05 -->
      <g transform="translate(169.454691 678.796875)scale(0.2 -0.2)">
       <use xlink:href="#DejaVuSans-49"/>
       <use x="63.623047" xlink:href="#DejaVuSans-101"/>
       <use x="125.146484" xlink:href="#DejaVuSans-43"/>
       <use x="208.935547" xlink:href="#DejaVuSans-48"/>
       <use x="272.558594" xlink:href="#DejaVuSans-53"/>
      </g>
     </g>
    </g>
    <g id="xtick_8">
     <g id="line2d_17">
      <g>
       <use style="stroke:#000000;stroke-width:0.8;" x="318.820241" xlink:href="#mfa196ad4cc" y="656.6"/>
      </g>
     </g>
     <g id="text_18">
      <!-- 2e+05 -->
      <g transform="translate(285.199929 678.796875)scale(0.2 -0.2)">
       <use xlink:href="#DejaVuSans-50"/>
       <use x="63.623047" xlink:href="#DejaVuSans-101"/>
       <use x="125.146484" xlink:href="#DejaVuSans-43"/>
       <use x="208.935547" xlink:href="#DejaVuSans-48"/>
       <use x="272.558594" xlink:href="#DejaVuSans-53"/>
      </g>
     </g>
    </g>
    <g id="xtick_9">
     <g id="line2d_18">
      <g>
       <use style="stroke:#000000;stroke-width:0.8;" x="550.310717" xlink:href="#mfa196ad4cc" y="656.6"/>
      </g>
     </g>
     <g id="text_19">
      <!-- 4e+05 -->
      <g transform="translate(516.690404 678.796875)scale(0.2 -0.2)">
       <use xlink:href="#DejaVuSans-52"/>
       <use x="63.623047" xlink:href="#DejaVuSans-101"/>
       <use x="125.146484" xlink:href="#DejaVuSans-43"/>
       <use x="208.935547" xlink:href="#DejaVuSans-48"/>
       <use x="272.558594" xlink:href="#DejaVuSans-53"/>
      </g>
     </g>
    </g>
    <g id="xtick_10">
     <g id="line2d_19">
      <g>
       <use style="stroke:#000000;stroke-width:0.8;" x="781.801192" xlink:href="#mfa196ad4cc" y="656.6"/>
      </g>
     </g>
     <g id="text_20">
      <!-- 6e+05 -->
      <g transform="translate(748.18088 678.796875)scale(0.2 -0.2)">
       <use xlink:href="#DejaVuSans-54"/>
       <use x="63.623047" xlink:href="#DejaVuSans-101"/>
       <use x="125.146484" xlink:href="#DejaVuSans-43"/>
       <use x="208.935547" xlink:href="#DejaVuSans-48"/>
       <use x="272.558594" xlink:href="#DejaVuSans-53"/>
      </g>
     </g>
    </g>
    <g id="xtick_11">
     <g id="line2d_20">
      <g>
       <use style="stroke:#000000;stroke-width:0.8;" x="1013.291668" xlink:href="#mfa196ad4cc" y="656.6"/>
      </g>
     </g>
     <g id="text_21">
      <!-- 8e+05 -->
      <g transform="translate(979.671355 678.796875)scale(0.2 -0.2)">
       <use xlink:href="#DejaVuSans-56"/>
       <use x="63.623047" xlink:href="#DejaVuSans-101"/>
       <use x="125.146484" xlink:href="#DejaVuSans-43"/>
       <use x="208.935547" xlink:href="#DejaVuSans-48"/>
       <use x="272.558594" xlink:href="#DejaVuSans-53"/>
      </g>
     </g>
    </g>
    <g id="xtick_12">
     <g id="line2d_21">
      <g>
       <use style="stroke:#000000;stroke-width:0.8;" x="1244.782143" xlink:href="#mfa196ad4cc" y="656.6"/>
      </g>
     </g>
     <g id="text_22">
      <!-- 1e+06 -->
      <g transform="translate(1211.161831 678.796875)scale(0.2 -0.2)">
       <use xlink:href="#DejaVuSans-49"/>
       <use x="63.623047" xlink:href="#DejaVuSans-101"/>
       <use x="125.146484" xlink:href="#DejaVuSans-43"/>
       <use x="208.935547" xlink:href="#DejaVuSans-48"/>
       <use x="272.558594" xlink:href="#DejaVuSans-54"/>
      </g>
     </g>
    </g>
    <g id="text_23">
     <!-- Timestep -->
     <g transform="translate(706.766445 702.153125)scale(0.2 -0.2)">
      <use xlink:href="#DejaVuSans-84"/>
      <use x="57.958984" xlink:href="#DejaVuSans-105"/>
      <use x="85.742188" xlink:href="#DejaVuSans-109"/>
      <use x="183.154297" xlink:href="#DejaVuSans-101"/>
      <use x="244.677734" xlink:href="#DejaVuSans-115"/>
      <use x="296.777344" xlink:href="#DejaVuSans-116"/>
      <use x="335.986328" xlink:href="#DejaVuSans-101"/>
      <use x="397.509766" xlink:href="#DejaVuSans-112"/>
     </g>
    </g>
   </g>
   <g id="matplotlib.axis_4">
    <g id="ytick_7">
     <g id="line2d_22">
      <defs>
       <path d="M 0 0 
L -3.5 0 
" id="m4c665284fc" style="stroke:#ff0000;stroke-width:0.8;"/>
      </defs>
      <g>
       <use style="fill:#ff0000;stroke:#ff0000;stroke-width:0.8;" x="87.329766" xlink:href="#m4c665284fc" y="457.266022"/>
      </g>
     </g>
     <g id="text_24">
      <!-- $\mathdefault{10^{-1}}$ -->
      <defs>
       <path d="M 10.59375 35.5 
L 73.1875 35.5 
L 73.1875 27.203125 
L 10.59375 27.203125 
z
" id="DejaVuSans-8722"/>
      </defs>
      <g style="fill:#ff0000;" transform="translate(45.079766 462.96485)scale(0.15 -0.15)">
       <use transform="translate(0 0.684375)" xlink:href="#DejaVuSans-49"/>
       <use transform="translate(63.623047 0.684375)" xlink:href="#DejaVuSans-48"/>
       <use transform="translate(128.203125 38.965625)scale(0.7)" xlink:href="#DejaVuSans-8722"/>
       <use transform="translate(186.855469 38.965625)scale(0.7)" xlink:href="#DejaVuSans-49"/>
      </g>
     </g>
    </g>
    <g id="ytick_8">
     <g id="line2d_23">
      <defs>
       <path d="M 0 0 
L -2 0 
" id="m5d0f808f96" style="stroke:#000000;stroke-width:0.6;"/>
      </defs>
      <g>
       <use style="stroke:#000000;stroke-width:0.6;" x="87.329766" xlink:href="#m5d0f808f96" y="625.495728"/>
      </g>
     </g>
    </g>
    <g id="ytick_9">
     <g id="line2d_24">
      <g>
       <use style="stroke:#000000;stroke-width:0.6;" x="87.329766" xlink:href="#m5d0f808f96" y="583.113679"/>
      </g>
     </g>
    </g>
    <g id="ytick_10">
     <g id="line2d_25">
      <g>
       <use style="stroke:#000000;stroke-width:0.6;" x="87.329766" xlink:href="#m5d0f808f96" y="553.043137"/>
      </g>
     </g>
    </g>
    <g id="ytick_11">
     <g id="line2d_26">
      <g>
       <use style="stroke:#000000;stroke-width:0.6;" x="87.329766" xlink:href="#m5d0f808f96" y="529.718613"/>
      </g>
     </g>
    </g>
    <g id="ytick_12">
     <g id="line2d_27">
      <g>
       <use style="stroke:#000000;stroke-width:0.6;" x="87.329766" xlink:href="#m5d0f808f96" y="510.661088"/>
      </g>
     </g>
    </g>
    <g id="ytick_13">
     <g id="line2d_28">
      <g>
       <use style="stroke:#000000;stroke-width:0.6;" x="87.329766" xlink:href="#m5d0f808f96" y="494.548181"/>
      </g>
     </g>
    </g>
    <g id="ytick_14">
     <g id="line2d_29">
      <g>
       <use style="stroke:#000000;stroke-width:0.6;" x="87.329766" xlink:href="#m5d0f808f96" y="480.590546"/>
      </g>
     </g>
    </g>
    <g id="ytick_15">
     <g id="line2d_30">
      <g>
       <use style="stroke:#000000;stroke-width:0.6;" x="87.329766" xlink:href="#m5d0f808f96" y="468.27904"/>
      </g>
     </g>
    </g>
    <g id="text_25">
     <!-- Avg .Temporal Difference -->
     <defs>
      <path d="M 30.609375 48.390625 
Q 23.390625 48.390625 19.1875 42.75 
Q 14.984375 37.109375 14.984375 27.296875 
Q 14.984375 17.484375 19.15625 11.84375 
Q 23.34375 6.203125 30.609375 6.203125 
Q 37.796875 6.203125 41.984375 11.859375 
Q 46.1875 17.53125 46.1875 27.296875 
Q 46.1875 37.015625 41.984375 42.703125 
Q 37.796875 48.390625 30.609375 48.390625 
z
M 30.609375 56 
Q 42.328125 56 49.015625 48.375 
Q 55.71875 40.765625 55.71875 27.296875 
Q 55.71875 13.875 49.015625 6.21875 
Q 42.328125 -1.421875 30.609375 -1.421875 
Q 18.84375 -1.421875 12.171875 6.21875 
Q 5.515625 13.875 5.515625 27.296875 
Q 5.515625 40.765625 12.171875 48.375 
Q 18.84375 56 30.609375 56 
z
" id="DejaVuSans-111"/>
      <path d="M 19.671875 64.796875 
L 19.671875 8.109375 
L 31.59375 8.109375 
Q 46.6875 8.109375 53.6875 14.9375 
Q 60.6875 21.78125 60.6875 36.53125 
Q 60.6875 51.171875 53.6875 57.984375 
Q 46.6875 64.796875 31.59375 64.796875 
z
M 9.8125 72.90625 
L 30.078125 72.90625 
Q 51.265625 72.90625 61.171875 64.09375 
Q 71.09375 55.28125 71.09375 36.53125 
Q 71.09375 17.671875 61.125 8.828125 
Q 51.171875 0 30.078125 0 
L 9.8125 0 
z
" id="DejaVuSans-68"/>
      <path d="M 37.109375 75.984375 
L 37.109375 68.5 
L 28.515625 68.5 
Q 23.6875 68.5 21.796875 66.546875 
Q 19.921875 64.59375 19.921875 59.515625 
L 19.921875 54.6875 
L 34.71875 54.6875 
L 34.71875 47.703125 
L 19.921875 47.703125 
L 19.921875 0 
L 10.890625 0 
L 10.890625 47.703125 
L 2.296875 47.703125 
L 2.296875 54.6875 
L 10.890625 54.6875 
L 10.890625 58.5 
Q 10.890625 67.625 15.140625 71.796875 
Q 19.390625 75.984375 28.609375 75.984375 
z
" id="DejaVuSans-102"/>
      <path d="M 48.78125 52.59375 
L 48.78125 44.1875 
Q 44.96875 46.296875 41.140625 47.34375 
Q 37.3125 48.390625 33.40625 48.390625 
Q 24.65625 48.390625 19.8125 42.84375 
Q 14.984375 37.3125 14.984375 27.296875 
Q 14.984375 17.28125 19.8125 11.734375 
Q 24.65625 6.203125 33.40625 6.203125 
Q 37.3125 6.203125 41.140625 7.25 
Q 44.96875 8.296875 48.78125 10.40625 
L 48.78125 2.09375 
Q 45.015625 0.34375 40.984375 -0.53125 
Q 36.96875 -1.421875 32.421875 -1.421875 
Q 20.0625 -1.421875 12.78125 6.34375 
Q 5.515625 14.109375 5.515625 27.296875 
Q 5.515625 40.671875 12.859375 48.328125 
Q 20.21875 56 33.015625 56 
Q 37.15625 56 41.109375 55.140625 
Q 45.0625 54.296875 48.78125 52.59375 
z
" id="DejaVuSans-99"/>
     </defs>
     <g style="fill:#ff0000;" transform="translate(36.920391 653.540625)rotate(-90)scale(0.2 -0.2)">
      <use xlink:href="#DejaVuSans-65"/>
      <use x="62.533203" xlink:href="#DejaVuSans-118"/>
      <use x="121.712891" xlink:href="#DejaVuSans-103"/>
      <use x="185.189453" xlink:href="#DejaVuSans-32"/>
      <use x="216.976562" xlink:href="#DejaVuSans-46"/>
      <use x="248.763672" xlink:href="#DejaVuSans-84"/>
      <use x="292.847656" xlink:href="#DejaVuSans-101"/>
      <use x="354.371094" xlink:href="#DejaVuSans-109"/>
      <use x="451.783203" xlink:href="#DejaVuSans-112"/>
      <use x="515.259766" xlink:href="#DejaVuSans-111"/>
      <use x="576.441406" xlink:href="#DejaVuSans-114"/>
      <use x="617.554688" xlink:href="#DejaVuSans-97"/>
      <use x="678.833984" xlink:href="#DejaVuSans-108"/>
      <use x="706.617188" xlink:href="#DejaVuSans-32"/>
      <use x="738.404297" xlink:href="#DejaVuSans-68"/>
      <use x="815.40625" xlink:href="#DejaVuSans-105"/>
      <use x="843.189453" xlink:href="#DejaVuSans-102"/>
      <use x="878.394531" xlink:href="#DejaVuSans-102"/>
      <use x="913.599609" xlink:href="#DejaVuSans-101"/>
      <use x="975.123047" xlink:href="#DejaVuSans-114"/>
      <use x="1013.986328" xlink:href="#DejaVuSans-101"/>
      <use x="1075.509766" xlink:href="#DejaVuSans-110"/>
      <use x="1138.888672" xlink:href="#DejaVuSans-99"/>
      <use x="1193.869141" xlink:href="#DejaVuSans-101"/>
     </g>
    </g>
   </g>
   <g id="line2d_31">
    <path clip-path="url(#pdf557d920e)" d="M 87.329766 644.909091 
L 87.561256 435.841315 
L 87.677001 411.090909 
L 87.908492 423.103308 
L 88.024237 423.965726 
L 88.139982 423.126617 
L 88.255728 428.039945 
L 88.371473 427.756385 
L 88.487218 437.419616 
L 88.834454 478.354854 
L 88.950199 486.408087 
L 89.297435 477.809048 
L 89.528925 500.796782 
L 89.64467 500.781139 
L 89.760416 501.137073 
L 89.876161 505.201901 
L 89.991906 503.96742 
L 90.339142 520.403211 
L 90.454887 517.391163 
L 90.686378 520.174874 
L 90.802123 521.401296 
L 91.033613 505.178412 
L 91.496594 518.628328 
L 91.612339 517.312393 
L 91.728085 518.786402 
L 91.84383 522.468798 
L 91.959575 520.777307 
L 92.191066 501.991416 
L 92.538301 514.695319 
L 92.654047 532.576518 
L 93.001282 515.235739 
L 93.117028 516.117032 
L 93.232773 514.85456 
L 93.348518 518.934563 
L 93.464263 514.105159 
L 93.580008 524.652718 
L 93.695754 524.495113 
L 93.811499 524.978953 
L 94.042989 531.504372 
L 94.158735 532.392556 
L 94.27448 534.178757 
L 94.621716 514.562742 
L 94.737461 523.104645 
L 94.853206 522.545055 
L 95.084697 528.082103 
L 95.200442 528.076085 
L 95.316187 525.401405 
L 95.431932 533.150131 
L 95.663423 512.862652 
L 95.894913 517.693062 
L 96.010658 518.0591 
L 96.126404 517.367474 
L 96.357894 521.841091 
L 96.473639 521.067994 
L 96.589385 522.367295 
L 96.820875 513.488191 
L 96.93662 511.467969 
L 97.168111 517.28506 
L 97.283856 516.026333 
L 97.515347 518.814761 
L 97.631092 518.444923 
L 97.746837 522.628946 
L 97.978327 504.058016 
L 98.094073 508.627123 
L 98.209818 505.842379 
L 98.441308 511.472283 
L 98.557054 506.524313 
L 98.672799 506.390631 
L 98.788544 507.660628 
L 99.020035 505.308795 
L 99.13578 498.37014 
L 99.251525 503.09733 
L 99.36727 500.778379 
L 99.483016 503.641343 
L 99.714506 498.89034 
L 99.830251 507.697386 
L 100.061742 502.46887 
L 100.177487 502.369962 
L 100.293232 501.275193 
L 100.524723 492.328313 
L 100.640468 494.114929 
L 100.756213 499.805217 
L 100.987704 495.093455 
L 101.103449 495.667256 
L 101.219194 500.592958 
L 101.450685 493.110087 
L 101.79792 498.268947 
L 101.913666 497.239553 
L 102.029411 492.82749 
L 102.145156 496.655954 
L 102.260901 494.309851 
L 102.376647 500.084511 
L 102.492392 496.884253 
L 102.608137 501.725661 
L 102.723882 494.644905 
L 102.839627 498.549383 
L 102.955373 489.654708 
L 103.186863 494.238876 
L 103.302608 494.104333 
L 103.418354 493.383734 
L 103.534099 498.477171 
L 103.649844 496.606908 
L 103.765589 492.023944 
L 103.881335 492.246185 
L 103.99708 492.068625 
L 104.112825 492.552748 
L 104.22857 496.594574 
L 104.344316 489.274201 
L 104.460061 495.747365 
L 104.575806 492.675393 
L 104.691551 494.487088 
L 104.807297 493.386567 
L 104.923042 496.294314 
L 105.038787 493.239078 
L 105.154532 494.520767 
L 105.270277 492.239061 
L 105.386023 492.260062 
L 105.617513 494.867578 
L 105.733258 488.816865 
L 105.849004 490.123144 
L 105.964749 493.793767 
L 106.080494 489.97375 
L 106.311985 494.198222 
L 106.42773 496.456029 
L 106.543475 494.550719 
L 106.774966 500.645007 
L 107.006456 493.138059 
L 107.122201 495.390117 
L 107.237947 495.192432 
L 107.353692 492.396417 
L 107.700927 497.016701 
L 107.816673 496.495326 
L 107.932418 493.072006 
L 108.048163 497.910478 
L 108.163908 496.755439 
L 108.279654 497.927555 
L 108.395399 496.177464 
L 108.511144 502.912999 
L 108.626889 495.811108 
L 108.742635 498.830691 
L 108.85838 498.571918 
L 108.974125 493.849051 
L 109.08987 494.042118 
L 109.205616 495.628346 
L 109.437106 492.697057 
L 109.668597 499.836491 
L 109.784342 495.701702 
L 110.015832 501.538388 
L 110.131577 499.855616 
L 110.247323 500.194225 
L 110.363068 506.09632 
L 110.478813 492.630222 
L 110.594558 502.603044 
L 110.710304 500.517843 
L 110.826049 494.313345 
L 111.057539 501.973791 
L 111.173285 503.142797 
L 111.28903 495.374058 
L 111.404775 503.220005 
L 111.52052 498.629349 
L 111.752011 500.67612 
L 111.983501 511.212521 
L 112.099247 501.152476 
L 112.214992 502.192839 
L 112.330737 508.467038 
L 112.446482 505.030163 
L 112.677973 513.463347 
L 112.909463 508.844915 
L 113.025208 511.608419 
L 113.256699 503.469913 
L 113.372444 511.096231 
L 113.488189 510.431546 
L 113.603935 514.932726 
L 113.71968 511.492898 
L 113.835425 511.867615 
L 113.95117 513.145648 
L 114.066916 505.988921 
L 114.298406 515.161825 
L 114.414151 515.168548 
L 114.529897 514.907778 
L 114.645642 516.20323 
L 114.761387 511.347474 
L 114.992877 516.198455 
L 115.224368 511.052413 
L 115.340113 510.54127 
L 115.455858 509.471229 
L 115.571604 510.993342 
L 115.687349 506.62192 
L 115.803094 516.364341 
L 115.918839 509.289479 
L 116.266075 516.61372 
L 116.497566 510.348153 
L 116.729056 517.521505 
L 116.844801 513.506013 
L 117.076292 525.768412 
L 117.192037 528.215212 
L 117.307782 527.478086 
L 117.423527 525.729474 
L 117.539273 533.356469 
L 117.655018 531.92699 
L 117.770763 528.095935 
L 117.886508 531.687624 
L 118.002254 531.358311 
L 118.117999 531.92309 
L 118.233744 529.1154 
L 118.465235 531.250905 
L 118.58098 533.634096 
L 118.81247 524.173906 
L 119.043961 529.200444 
L 119.159706 525.900677 
L 119.275451 525.866293 
L 119.506942 532.606951 
L 119.622687 532.94802 
L 119.854177 527.212476 
L 119.969923 511.585228 
L 120.085668 515.779755 
L 120.317158 510.552998 
L 120.432904 506.428863 
L 120.780139 514.457927 
L 121.01163 516.641483 
L 121.24312 514.44777 
L 121.358866 516.865468 
L 121.590356 512.915698 
L 121.937592 521.309279 
L 122.053337 528.824546 
L 122.169082 519.951207 
L 122.284827 522.32435 
L 122.400573 529.046414 
L 122.516318 522.245399 
L 122.632063 529.046767 
L 122.863554 522.080311 
L 122.979299 524.155025 
L 123.095044 518.945553 
L 123.210789 526.861697 
L 123.558025 519.389126 
L 123.905261 523.790825 
L 124.021006 524.823653 
L 124.136751 522.459756 
L 124.368242 527.595693 
L 124.483987 519.875388 
L 124.599732 523.604537 
L 124.715477 532.287581 
L 124.831223 525.89617 
L 124.946968 527.623461 
L 125.178458 526.314998 
L 125.294204 528.906064 
L 125.409949 528.06108 
L 125.525694 533.204294 
L 125.757185 526.670824 
L 125.87293 527.717746 
L 125.988675 526.441421 
L 126.10442 530.015126 
L 126.220166 526.061262 
L 126.451656 529.386794 
L 126.567401 529.572066 
L 126.683146 536.608406 
L 126.798892 530.54207 
L 127.030382 530.799897 
L 127.146127 528.88465 
L 127.261873 531.015853 
L 127.377618 528.919047 
L 127.493363 532.02854 
L 127.724854 527.412211 
L 127.956344 530.633288 
L 128.072089 529.783442 
L 128.187835 532.408641 
L 128.30358 523.532225 
L 128.419325 527.024064 
L 128.53507 524.166956 
L 128.766561 532.544058 
L 128.882306 528.007341 
L 129.113796 530.802156 
L 129.345287 522.019386 
L 129.461032 525.347153 
L 129.576777 523.124546 
L 129.692523 525.4506 
L 129.808268 525.153859 
L 130.039758 526.408579 
L 130.271249 532.613091 
L 130.502739 527.524767 
L 130.618485 530.152481 
L 130.849975 529.122399 
L 130.96572 529.454772 
L 131.081466 532.149674 
L 131.312956 526.630932 
L 131.428701 529.717973 
L 131.544446 527.274824 
L 131.660192 529.966389 
L 131.775937 526.060262 
L 131.891682 529.246018 
L 132.007427 526.833005 
L 132.123173 521.152108 
L 132.238918 526.237716 
L 132.586154 518.103629 
L 132.817644 525.615485 
L 132.933389 528.401796 
L 133.049135 528.445655 
L 133.16488 526.84118 
L 133.280625 527.712591 
L 133.39637 532.005083 
L 133.512115 531.977557 
L 133.627861 527.226704 
L 133.743606 530.018618 
L 133.859351 528.680661 
L 133.975096 530.646808 
L 134.090842 526.54252 
L 134.206587 528.710219 
L 134.322332 527.524947 
L 134.438077 525.141278 
L 134.669568 532.338814 
L 134.785313 532.734225 
L 134.901058 523.367878 
L 135.132549 528.748043 
L 135.248294 527.688344 
L 135.364039 523.82157 
L 135.479785 527.910445 
L 135.59553 525.783062 
L 135.82702 532.837814 
L 135.942765 533.64348 
L 136.174256 530.652396 
L 136.290001 534.25257 
L 136.405746 532.11076 
L 136.521492 537.08033 
L 136.868727 531.861194 
L 137.100218 536.327101 
L 137.215963 529.080759 
L 137.331708 529.054309 
L 137.447454 530.550897 
L 137.563199 536.920138 
L 137.794689 530.009734 
L 137.910435 528.612509 
L 138.02618 539.207715 
L 138.25767 529.179053 
L 138.373415 531.767508 
L 138.489161 531.851899 
L 138.604906 532.865435 
L 138.836396 540.497589 
L 139.067887 542.842078 
L 139.183632 538.417328 
L 139.415123 541.527702 
L 139.530868 543.665716 
L 139.646613 537.647676 
L 139.762358 541.866259 
L 139.878104 539.634763 
L 139.993849 541.000715 
L 140.109594 539.636195 
L 140.225339 540.59092 
L 140.341085 545.633021 
L 140.45683 536.487238 
L 140.572575 540.023226 
L 140.68832 539.257295 
L 141.035556 546.867785 
L 141.151301 541.591089 
L 141.267046 541.933567 
L 141.382792 546.087941 
L 141.614282 544.162125 
L 141.730027 548.725026 
L 141.961518 540.280268 
L 142.077263 543.655529 
L 142.193008 542.050683 
L 142.308754 543.522917 
L 142.540244 548.541716 
L 142.655989 546.071839 
L 142.88748 548.493657 
L 143.003225 533.417848 
L 143.11897 540.667178 
L 143.350461 537.962377 
L 143.581951 543.958946 
L 143.697696 545.125873 
L 143.929187 540.641027 
L 144.160677 545.937254 
L 144.276423 545.550548 
L 144.739404 550.809626 
L 144.855149 547.508508 
L 144.970894 549.364288 
L 145.086639 545.80044 
L 145.202385 547.675825 
L 145.433875 545.771393 
L 145.54962 548.461033 
L 145.781111 544.579569 
L 145.896856 549.354633 
L 146.012601 541.0786 
L 146.128346 552.455455 
L 146.244092 543.078974 
L 146.359837 545.173101 
L 146.475582 554.667465 
L 146.591327 549.321977 
L 146.707073 550.324396 
L 146.822818 549.773989 
L 147.054308 553.209781 
L 147.170054 565.723247 
L 147.285799 559.182835 
L 147.401544 566.818468 
L 147.517289 563.744518 
L 147.633035 565.453671 
L 147.74878 560.409354 
L 147.98027 564.466386 
L 148.096015 564.207899 
L 148.327506 568.812271 
L 148.443251 564.184535 
L 148.558996 566.478344 
L 148.790487 559.571475 
L 148.906232 559.734599 
L 149.137723 565.112768 
L 149.253468 558.79828 
L 149.369213 562.385207 
L 149.484958 562.058289 
L 149.716449 568.058472 
L 149.832194 567.696623 
L 149.947939 566.215953 
L 150.063684 559.220854 
L 150.17943 561.772442 
L 150.295175 560.119847 
L 150.41092 566.932963 
L 150.526665 566.689616 
L 150.642411 563.654999 
L 150.758156 565.30861 
L 150.873901 561.768768 
L 151.105392 568.004039 
L 151.221137 563.579342 
L 151.336882 566.214803 
L 151.452627 565.85611 
L 151.684118 569.972665 
L 151.799863 569.212637 
L 151.915608 569.64797 
L 152.031354 571.216531 
L 152.262844 566.556063 
L 152.494334 570.743479 
L 152.725825 566.406137 
L 152.84157 566.641466 
L 152.957315 570.72773 
L 153.073061 569.794031 
L 153.188806 570.992196 
L 153.304551 564.822657 
L 153.536042 572.05093 
L 153.767532 566.210887 
L 153.883277 571.171689 
L 153.999023 568.580857 
L 154.230513 573.037842 
L 154.346258 570.005776 
L 154.462004 572.541729 
L 154.693494 568.351543 
L 154.924984 567.034223 
L 155.04073 570.274859 
L 155.156475 570.244311 
L 155.27222 568.147165 
L 155.387965 578.546399 
L 155.619456 568.411264 
L 155.735201 570.335457 
L 155.850946 573.495846 
L 155.966692 572.94892 
L 156.082437 576.124174 
L 156.198182 571.745075 
L 156.429673 577.41305 
L 156.545418 575.778126 
L 156.661163 577.950864 
L 156.776908 576.930136 
L 157.008399 569.752467 
L 157.355634 580.347197 
L 157.587125 578.212211 
L 157.70287 576.303417 
L 157.818615 576.429894 
L 158.050106 570.069372 
L 158.165851 574.636523 
L 158.281596 570.241337 
L 158.513087 575.777147 
L 158.628832 573.121895 
L 158.744577 574.564128 
L 158.976068 571.017622 
L 159.323304 581.049078 
L 159.439049 579.895763 
L 159.554794 580.967609 
L 159.670539 576.898933 
L 159.786284 583.014411 
L 160.017775 575.723502 
L 160.13352 583.149781 
L 160.249265 582.744968 
L 160.365011 578.722741 
L 160.480756 565.155625 
L 160.596501 568.6825 
L 160.712246 566.487979 
L 160.827992 569.432965 
L 161.175227 562.406224 
L 161.290973 566.962781 
L 161.406718 563.248506 
L 161.638208 568.810354 
L 161.869699 570.849562 
L 161.985444 565.236772 
L 162.101189 573.356717 
L 162.33268 568.951297 
L 162.448425 570.000317 
L 162.56417 572.151915 
L 162.679915 569.115601 
L 162.795661 572.72034 
L 162.911406 570.820711 
L 163.027151 572.327431 
L 163.142896 570.305003 
L 163.258642 570.349937 
L 163.490132 573.983947 
L 163.837368 570.613293 
L 163.953113 575.546016 
L 164.184604 570.663738 
L 164.416094 575.223936 
L 164.647584 565.992426 
L 164.879075 571.900394 
L 165.110565 577.356429 
L 165.226311 577.137971 
L 165.457801 579.318156 
L 165.805037 577.806375 
L 165.920782 575.970389 
L 166.036527 576.917926 
L 166.268018 575.112794 
L 166.383763 577.192709 
L 166.499508 575.550099 
L 166.730999 577.986734 
L 166.846744 577.536181 
L 166.962489 570.641752 
L 167.078234 572.013033 
L 167.19398 575.769131 
L 167.309725 567.107636 
L 167.656961 573.471482 
L 167.772706 568.71894 
L 167.888451 571.952694 
L 168.004196 571.0755 
L 168.235687 577.167607 
L 168.582923 569.560046 
L 168.814413 575.123662 
L 168.930158 570.516184 
L 169.045903 570.569278 
L 169.161649 571.155838 
L 169.277394 568.755132 
L 169.508884 572.910392 
L 169.62463 574.097515 
L 169.740375 577.209351 
L 169.85612 576.400556 
L 169.971865 573.4135 
L 170.087611 575.638084 
L 170.319101 570.426525 
L 170.550592 578.420255 
L 170.666337 574.878792 
L 170.782082 575.748934 
L 171.013573 579.388947 
L 171.129318 579.304958 
L 171.245063 583.120342 
L 171.360808 580.780785 
L 171.476553 582.902738 
L 171.592299 581.421474 
L 171.708044 578.12438 
L 171.823789 582.490137 
L 172.05528 578.393801 
L 172.171025 580.216457 
L 172.28677 577.841391 
L 172.402515 583.869069 
L 172.634006 579.81839 
L 172.749751 580.915762 
L 172.865496 584.559789 
L 172.981242 577.953988 
L 173.096987 579.389259 
L 173.212732 586.15211 
L 173.328477 584.221723 
L 173.444223 586.7969 
L 173.559968 581.345227 
L 173.675713 581.461202 
L 173.791458 589.11887 
L 173.907203 584.614075 
L 174.138694 589.007976 
L 174.254439 587.57038 
L 174.370184 584.290514 
L 174.48593 586.41216 
L 174.601675 586.127185 
L 174.833165 589.874939 
L 175.064656 588.875433 
L 175.296146 586.145354 
L 175.411892 582.354862 
L 175.990618 591.316824 
L 176.106363 596.512611 
L 176.453599 589.340423 
L 176.569344 595.357849 
L 176.685089 592.225387 
L 176.91658 596.908615 
L 177.032325 593.633356 
L 177.14807 604.479857 
L 177.263815 598.312387 
L 177.379561 598.352066 
L 177.495306 598.105273 
L 177.495306 598.105273 
" style="fill:none;stroke:#ff0000;stroke-linecap:square;stroke-width:1.5;"/>
   </g>
   <g id="patch_9">
    <path d="M 87.329766 656.6 
L 87.329766 399.4 
" style="fill:none;stroke:#000000;stroke-linecap:square;stroke-linejoin:miter;stroke-width:0.8;"/>
   </g>
   <g id="patch_10">
    <path d="M 1418.4 656.6 
L 1418.4 399.4 
" style="fill:none;stroke:#000000;stroke-linecap:square;stroke-linejoin:miter;stroke-width:0.8;"/>
   </g>
   <g id="patch_11">
    <path d="M 87.329766 656.6 
L 1418.4 656.6 
" style="fill:none;stroke:#000000;stroke-linecap:square;stroke-linejoin:miter;stroke-width:0.8;"/>
   </g>
   <g id="patch_12">
    <path d="M 87.329766 399.4 
L 1418.4 399.4 
" style="fill:none;stroke:#000000;stroke-linecap:square;stroke-linejoin:miter;stroke-width:0.8;"/>
   </g>
   <g id="text_26">
    <!-- Loss vs Timestep -->
    <g transform="translate(650.244258 393.4)scale(0.24 -0.24)">
     <use xlink:href="#DejaVuSans-76"/>
     <use x="53.962891" xlink:href="#DejaVuSans-111"/>
     <use x="115.144531" xlink:href="#DejaVuSans-115"/>
     <use x="167.244141" xlink:href="#DejaVuSans-115"/>
     <use x="219.34375" xlink:href="#DejaVuSans-32"/>
     <use x="251.130859" xlink:href="#DejaVuSans-118"/>
     <use x="310.310547" xlink:href="#DejaVuSans-115"/>
     <use x="362.410156" xlink:href="#DejaVuSans-32"/>
     <use x="394.197266" xlink:href="#DejaVuSans-84"/>
     <use x="452.15625" xlink:href="#DejaVuSans-105"/>
     <use x="479.939453" xlink:href="#DejaVuSans-109"/>
     <use x="577.351562" xlink:href="#DejaVuSans-101"/>
     <use x="638.875" xlink:href="#DejaVuSans-115"/>
     <use x="690.974609" xlink:href="#DejaVuSans-116"/>
     <use x="730.183594" xlink:href="#DejaVuSans-101"/>
     <use x="791.707031" xlink:href="#DejaVuSans-112"/>
    </g>
   </g>
   <g id="legend_2">
    <g id="patch_13">
     <path d="M 1301.873438 649.1 
L 1407.9 649.1 
Q 1410.9 649.1 1410.9 646.1 
L 1410.9 625.582813 
Q 1410.9 622.582813 1407.9 622.582813 
L 1301.873438 622.582813 
Q 1298.873438 622.582813 1298.873438 625.582813 
L 1298.873438 646.1 
Q 1298.873438 649.1 1301.873438 649.1 
z
" style="fill:#ffffff;opacity:0.8;stroke:#cccccc;stroke-linejoin:miter;"/>
    </g>
    <g id="line2d_32">
     <path d="M 1304.873438 634.730469 
L 1334.873438 634.730469 
" style="fill:none;stroke:#ff0000;stroke-linecap:square;stroke-width:1.5;"/>
    </g>
    <g id="line2d_33"/>
    <g id="text_27">
     <!-- Avg. TD -->
     <g transform="translate(1346.873438 639.980469)scale(0.15 -0.15)">
      <use xlink:href="#DejaVuSans-65"/>
      <use x="62.533203" xlink:href="#DejaVuSans-118"/>
      <use x="121.712891" xlink:href="#DejaVuSans-103"/>
      <use x="185.189453" xlink:href="#DejaVuSans-46"/>
      <use x="216.976562" xlink:href="#DejaVuSans-32"/>
      <use x="248.763672" xlink:href="#DejaVuSans-84"/>
      <use x="309.847656" xlink:href="#DejaVuSans-68"/>
     </g>
    </g>
   </g>
  </g>
  <g id="axes_3">
   <g id="patch_14">
    <path d="M 87.329766 1009.4 
L 1418.4 1009.4 
L 1418.4 752.2 
L 87.329766 752.2 
z
" style="fill:#ffffff;"/>
   </g>
   <g id="matplotlib.axis_5">
    <g id="xtick_13">
     <g id="line2d_34">
      <g>
       <use style="stroke:#000000;stroke-width:0.8;" x="203.075003" xlink:href="#mfa196ad4cc" y="1009.4"/>
      </g>
     </g>
     <g id="text_28">
      <!-- 1e+05 -->
      <g transform="translate(169.454691 1031.596875)scale(0.2 -0.2)">
       <use xlink:href="#DejaVuSans-49"/>
       <use x="63.623047" xlink:href="#DejaVuSans-101"/>
       <use x="125.146484" xlink:href="#DejaVuSans-43"/>
       <use x="208.935547" xlink:href="#DejaVuSans-48"/>
       <use x="272.558594" xlink:href="#DejaVuSans-53"/>
      </g>
     </g>
    </g>
    <g id="xtick_14">
     <g id="line2d_35">
      <g>
       <use style="stroke:#000000;stroke-width:0.8;" x="318.820241" xlink:href="#mfa196ad4cc" y="1009.4"/>
      </g>
     </g>
     <g id="text_29">
      <!-- 2e+05 -->
      <g transform="translate(285.199929 1031.596875)scale(0.2 -0.2)">
       <use xlink:href="#DejaVuSans-50"/>
       <use x="63.623047" xlink:href="#DejaVuSans-101"/>
       <use x="125.146484" xlink:href="#DejaVuSans-43"/>
       <use x="208.935547" xlink:href="#DejaVuSans-48"/>
       <use x="272.558594" xlink:href="#DejaVuSans-53"/>
      </g>
     </g>
    </g>
    <g id="xtick_15">
     <g id="line2d_36">
      <g>
       <use style="stroke:#000000;stroke-width:0.8;" x="550.310717" xlink:href="#mfa196ad4cc" y="1009.4"/>
      </g>
     </g>
     <g id="text_30">
      <!-- 4e+05 -->
      <g transform="translate(516.690404 1031.596875)scale(0.2 -0.2)">
       <use xlink:href="#DejaVuSans-52"/>
       <use x="63.623047" xlink:href="#DejaVuSans-101"/>
       <use x="125.146484" xlink:href="#DejaVuSans-43"/>
       <use x="208.935547" xlink:href="#DejaVuSans-48"/>
       <use x="272.558594" xlink:href="#DejaVuSans-53"/>
      </g>
     </g>
    </g>
    <g id="xtick_16">
     <g id="line2d_37">
      <g>
       <use style="stroke:#000000;stroke-width:0.8;" x="781.801192" xlink:href="#mfa196ad4cc" y="1009.4"/>
      </g>
     </g>
     <g id="text_31">
      <!-- 6e+05 -->
      <g transform="translate(748.18088 1031.596875)scale(0.2 -0.2)">
       <use xlink:href="#DejaVuSans-54"/>
       <use x="63.623047" xlink:href="#DejaVuSans-101"/>
       <use x="125.146484" xlink:href="#DejaVuSans-43"/>
       <use x="208.935547" xlink:href="#DejaVuSans-48"/>
       <use x="272.558594" xlink:href="#DejaVuSans-53"/>
      </g>
     </g>
    </g>
    <g id="xtick_17">
     <g id="line2d_38">
      <g>
       <use style="stroke:#000000;stroke-width:0.8;" x="1013.291668" xlink:href="#mfa196ad4cc" y="1009.4"/>
      </g>
     </g>
     <g id="text_32">
      <!-- 8e+05 -->
      <g transform="translate(979.671355 1031.596875)scale(0.2 -0.2)">
       <use xlink:href="#DejaVuSans-56"/>
       <use x="63.623047" xlink:href="#DejaVuSans-101"/>
       <use x="125.146484" xlink:href="#DejaVuSans-43"/>
       <use x="208.935547" xlink:href="#DejaVuSans-48"/>
       <use x="272.558594" xlink:href="#DejaVuSans-53"/>
      </g>
     </g>
    </g>
    <g id="xtick_18">
     <g id="line2d_39">
      <g>
       <use style="stroke:#000000;stroke-width:0.8;" x="1244.782143" xlink:href="#mfa196ad4cc" y="1009.4"/>
      </g>
     </g>
     <g id="text_33">
      <!-- 1e+06 -->
      <g transform="translate(1211.161831 1031.596875)scale(0.2 -0.2)">
       <use xlink:href="#DejaVuSans-49"/>
       <use x="63.623047" xlink:href="#DejaVuSans-101"/>
       <use x="125.146484" xlink:href="#DejaVuSans-43"/>
       <use x="208.935547" xlink:href="#DejaVuSans-48"/>
       <use x="272.558594" xlink:href="#DejaVuSans-54"/>
      </g>
     </g>
    </g>
    <g id="text_34">
     <!-- Timestep -->
     <g transform="translate(706.766445 1054.953125)scale(0.2 -0.2)">
      <use xlink:href="#DejaVuSans-84"/>
      <use x="57.958984" xlink:href="#DejaVuSans-105"/>
      <use x="85.742188" xlink:href="#DejaVuSans-109"/>
      <use x="183.154297" xlink:href="#DejaVuSans-101"/>
      <use x="244.677734" xlink:href="#DejaVuSans-115"/>
      <use x="296.777344" xlink:href="#DejaVuSans-116"/>
      <use x="335.986328" xlink:href="#DejaVuSans-101"/>
      <use x="397.509766" xlink:href="#DejaVuSans-112"/>
     </g>
    </g>
   </g>
   <g id="matplotlib.axis_6">
    <g id="ytick_16">
     <g id="line2d_40">
      <defs>
       <path d="M 0 0 
L -3.5 0 
" id="ma35ca35371" style="stroke:#000000;stroke-width:0.8;"/>
      </defs>
      <g>
       <use style="stroke:#000000;stroke-width:0.8;" x="87.329766" xlink:href="#ma35ca35371" y="1009.4"/>
      </g>
     </g>
     <g id="text_35">
      <!-- 0.0 -->
      <g transform="translate(56.475078 1015.098828)scale(0.15 -0.15)">
       <use xlink:href="#DejaVuSans-48"/>
       <use x="63.623047" xlink:href="#DejaVuSans-46"/>
       <use x="95.410156" xlink:href="#DejaVuSans-48"/>
      </g>
     </g>
    </g>
    <g id="ytick_17">
     <g id="line2d_41">
      <g>
       <use style="stroke:#000000;stroke-width:0.8;" x="87.329766" xlink:href="#ma35ca35371" y="957.96"/>
      </g>
     </g>
     <g id="text_36">
      <!-- 0.2 -->
      <g transform="translate(56.475078 963.658828)scale(0.15 -0.15)">
       <use xlink:href="#DejaVuSans-48"/>
       <use x="63.623047" xlink:href="#DejaVuSans-46"/>
       <use x="95.410156" xlink:href="#DejaVuSans-50"/>
      </g>
     </g>
    </g>
    <g id="ytick_18">
     <g id="line2d_42">
      <g>
       <use style="stroke:#000000;stroke-width:0.8;" x="87.329766" xlink:href="#ma35ca35371" y="906.52"/>
      </g>
     </g>
     <g id="text_37">
      <!-- 0.4 -->
      <g transform="translate(56.475078 912.218828)scale(0.15 -0.15)">
       <use xlink:href="#DejaVuSans-48"/>
       <use x="63.623047" xlink:href="#DejaVuSans-46"/>
       <use x="95.410156" xlink:href="#DejaVuSans-52"/>
      </g>
     </g>
    </g>
    <g id="ytick_19">
     <g id="line2d_43">
      <g>
       <use style="stroke:#000000;stroke-width:0.8;" x="87.329766" xlink:href="#ma35ca35371" y="855.08"/>
      </g>
     </g>
     <g id="text_38">
      <!-- 0.6 -->
      <g transform="translate(56.475078 860.778828)scale(0.15 -0.15)">
       <use xlink:href="#DejaVuSans-48"/>
       <use x="63.623047" xlink:href="#DejaVuSans-46"/>
       <use x="95.410156" xlink:href="#DejaVuSans-54"/>
      </g>
     </g>
    </g>
    <g id="ytick_20">
     <g id="line2d_44">
      <g>
       <use style="stroke:#000000;stroke-width:0.8;" x="87.329766" xlink:href="#ma35ca35371" y="803.64"/>
      </g>
     </g>
     <g id="text_39">
      <!-- 0.8 -->
      <g transform="translate(56.475078 809.338828)scale(0.15 -0.15)">
       <use xlink:href="#DejaVuSans-48"/>
       <use x="63.623047" xlink:href="#DejaVuSans-46"/>
       <use x="95.410156" xlink:href="#DejaVuSans-56"/>
      </g>
     </g>
    </g>
    <g id="ytick_21">
     <g id="line2d_45">
      <g>
       <use style="stroke:#000000;stroke-width:0.8;" x="87.329766" xlink:href="#ma35ca35371" y="752.2"/>
      </g>
     </g>
     <g id="text_40">
      <!-- 1.0 -->
      <g transform="translate(56.475078 757.898828)scale(0.15 -0.15)">
       <use xlink:href="#DejaVuSans-49"/>
       <use x="63.623047" xlink:href="#DejaVuSans-46"/>
       <use x="95.410156" xlink:href="#DejaVuSans-48"/>
      </g>
     </g>
    </g>
   </g>
   <g id="patch_15">
    <path d="M 87.329766 1009.4 
L 87.329766 752.2 
" style="fill:none;stroke:#000000;stroke-linecap:square;stroke-linejoin:miter;stroke-width:0.8;"/>
   </g>
   <g id="patch_16">
    <path d="M 1418.4 1009.4 
L 1418.4 752.2 
" style="fill:none;stroke:#000000;stroke-linecap:square;stroke-linejoin:miter;stroke-width:0.8;"/>
   </g>
   <g id="patch_17">
    <path d="M 87.329766 1009.4 
L 1418.4 1009.4 
" style="fill:none;stroke:#000000;stroke-linecap:square;stroke-linejoin:miter;stroke-width:0.8;"/>
   </g>
   <g id="patch_18">
    <path d="M 87.329766 752.2 
L 1418.4 752.2 
" style="fill:none;stroke:#000000;stroke-linecap:square;stroke-linejoin:miter;stroke-width:0.8;"/>
   </g>
   <g id="text_41">
    <!-- Action Selection Frequency(%) vs Timestep -->
    <defs>
     <path d="M 53.515625 70.515625 
L 53.515625 60.890625 
Q 47.90625 63.578125 42.921875 64.890625 
Q 37.9375 66.21875 33.296875 66.21875 
Q 25.25 66.21875 20.875 63.09375 
Q 16.5 59.96875 16.5 54.203125 
Q 16.5 49.359375 19.40625 46.890625 
Q 22.3125 44.4375 30.421875 42.921875 
L 36.375 41.703125 
Q 47.40625 39.59375 52.65625 34.296875 
Q 57.90625 29 57.90625 20.125 
Q 57.90625 9.515625 50.796875 4.046875 
Q 43.703125 -1.421875 29.984375 -1.421875 
Q 24.8125 -1.421875 18.96875 -0.25 
Q 13.140625 0.921875 6.890625 3.21875 
L 6.890625 13.375 
Q 12.890625 10.015625 18.65625 8.296875 
Q 24.421875 6.59375 29.984375 6.59375 
Q 38.421875 6.59375 43.015625 9.90625 
Q 47.609375 13.234375 47.609375 19.390625 
Q 47.609375 24.75 44.3125 27.78125 
Q 41.015625 30.8125 33.5 32.328125 
L 27.484375 33.5 
Q 16.453125 35.6875 11.515625 40.375 
Q 6.59375 45.0625 6.59375 53.421875 
Q 6.59375 63.09375 13.40625 68.65625 
Q 20.21875 74.21875 32.171875 74.21875 
Q 37.3125 74.21875 42.625 73.28125 
Q 47.953125 72.359375 53.515625 70.515625 
z
" id="DejaVuSans-83"/>
     <path d="M 9.8125 72.90625 
L 51.703125 72.90625 
L 51.703125 64.59375 
L 19.671875 64.59375 
L 19.671875 43.109375 
L 48.578125 43.109375 
L 48.578125 34.8125 
L 19.671875 34.8125 
L 19.671875 0 
L 9.8125 0 
z
" id="DejaVuSans-70"/>
     <path d="M 14.796875 27.296875 
Q 14.796875 17.390625 18.875 11.75 
Q 22.953125 6.109375 30.078125 6.109375 
Q 37.203125 6.109375 41.296875 11.75 
Q 45.40625 17.390625 45.40625 27.296875 
Q 45.40625 37.203125 41.296875 42.84375 
Q 37.203125 48.484375 30.078125 48.484375 
Q 22.953125 48.484375 18.875 42.84375 
Q 14.796875 37.203125 14.796875 27.296875 
z
M 45.40625 8.203125 
Q 42.578125 3.328125 38.25 0.953125 
Q 33.9375 -1.421875 27.875 -1.421875 
Q 17.96875 -1.421875 11.734375 6.484375 
Q 5.515625 14.40625 5.515625 27.296875 
Q 5.515625 40.1875 11.734375 48.09375 
Q 17.96875 56 27.875 56 
Q 33.9375 56 38.25 53.625 
Q 42.578125 51.265625 45.40625 46.390625 
L 45.40625 54.6875 
L 54.390625 54.6875 
L 54.390625 -20.796875 
L 45.40625 -20.796875 
z
" id="DejaVuSans-113"/>
     <path d="M 8.5 21.578125 
L 8.5 54.6875 
L 17.484375 54.6875 
L 17.484375 21.921875 
Q 17.484375 14.15625 20.5 10.265625 
Q 23.53125 6.390625 29.59375 6.390625 
Q 36.859375 6.390625 41.078125 11.03125 
Q 45.3125 15.671875 45.3125 23.6875 
L 45.3125 54.6875 
L 54.296875 54.6875 
L 54.296875 0 
L 45.3125 0 
L 45.3125 8.40625 
Q 42.046875 3.421875 37.71875 1 
Q 33.40625 -1.421875 27.6875 -1.421875 
Q 18.265625 -1.421875 13.375 4.4375 
Q 8.5 10.296875 8.5 21.578125 
z
M 31.109375 56 
z
" id="DejaVuSans-117"/>
     <path d="M 32.171875 -5.078125 
Q 28.375 -14.84375 24.75 -17.8125 
Q 21.140625 -20.796875 15.09375 -20.796875 
L 7.90625 -20.796875 
L 7.90625 -13.28125 
L 13.1875 -13.28125 
Q 16.890625 -13.28125 18.9375 -11.515625 
Q 21 -9.765625 23.484375 -3.21875 
L 25.09375 0.875 
L 2.984375 54.6875 
L 12.5 54.6875 
L 29.59375 11.921875 
L 46.6875 54.6875 
L 56.203125 54.6875 
z
" id="DejaVuSans-121"/>
     <path d="M 31 75.875 
Q 24.46875 64.65625 21.28125 53.65625 
Q 18.109375 42.671875 18.109375 31.390625 
Q 18.109375 20.125 21.3125 9.0625 
Q 24.515625 -2 31 -13.1875 
L 23.1875 -13.1875 
Q 15.875 -1.703125 12.234375 9.375 
Q 8.59375 20.453125 8.59375 31.390625 
Q 8.59375 42.28125 12.203125 53.3125 
Q 15.828125 64.359375 23.1875 75.875 
z
" id="DejaVuSans-40"/>
     <path d="M 72.703125 32.078125 
Q 68.453125 32.078125 66.03125 28.46875 
Q 63.625 24.859375 63.625 18.40625 
Q 63.625 12.0625 66.03125 8.421875 
Q 68.453125 4.78125 72.703125 4.78125 
Q 76.859375 4.78125 79.265625 8.421875 
Q 81.6875 12.0625 81.6875 18.40625 
Q 81.6875 24.8125 79.265625 28.4375 
Q 76.859375 32.078125 72.703125 32.078125 
z
M 72.703125 38.28125 
Q 80.421875 38.28125 84.953125 32.90625 
Q 89.5 27.546875 89.5 18.40625 
Q 89.5 9.28125 84.9375 3.921875 
Q 80.375 -1.421875 72.703125 -1.421875 
Q 64.890625 -1.421875 60.34375 3.921875 
Q 55.8125 9.28125 55.8125 18.40625 
Q 55.8125 27.59375 60.375 32.9375 
Q 64.9375 38.28125 72.703125 38.28125 
z
M 22.3125 68.015625 
Q 18.109375 68.015625 15.6875 64.375 
Q 13.28125 60.75 13.28125 54.390625 
Q 13.28125 47.953125 15.671875 44.328125 
Q 18.0625 40.71875 22.3125 40.71875 
Q 26.5625 40.71875 28.96875 44.328125 
Q 31.390625 47.953125 31.390625 54.390625 
Q 31.390625 60.6875 28.953125 64.34375 
Q 26.515625 68.015625 22.3125 68.015625 
z
M 66.40625 74.21875 
L 74.21875 74.21875 
L 28.609375 -1.421875 
L 20.796875 -1.421875 
z
M 22.3125 74.21875 
Q 30.03125 74.21875 34.609375 68.875 
Q 39.203125 63.53125 39.203125 54.390625 
Q 39.203125 45.171875 34.640625 39.84375 
Q 30.078125 34.515625 22.3125 34.515625 
Q 14.546875 34.515625 10.03125 39.859375 
Q 5.515625 45.21875 5.515625 54.390625 
Q 5.515625 63.484375 10.046875 68.84375 
Q 14.59375 74.21875 22.3125 74.21875 
z
" id="DejaVuSans-37"/>
     <path d="M 8.015625 75.875 
L 15.828125 75.875 
Q 23.140625 64.359375 26.78125 53.3125 
Q 30.421875 42.28125 30.421875 31.390625 
Q 30.421875 20.453125 26.78125 9.375 
Q 23.140625 -1.703125 15.828125 -13.1875 
L 8.015625 -13.1875 
Q 14.5 -2 17.703125 9.0625 
Q 20.90625 20.125 20.90625 31.390625 
Q 20.90625 42.671875 17.703125 53.65625 
Q 14.5 64.65625 8.015625 75.875 
z
" id="DejaVuSans-41"/>
    </defs>
    <g transform="translate(493.295508 746.2)scale(0.24 -0.24)">
     <use xlink:href="#DejaVuSans-65"/>
     <use x="66.658203" xlink:href="#DejaVuSans-99"/>
     <use x="121.638672" xlink:href="#DejaVuSans-116"/>
     <use x="160.847656" xlink:href="#DejaVuSans-105"/>
     <use x="188.630859" xlink:href="#DejaVuSans-111"/>
     <use x="249.8125" xlink:href="#DejaVuSans-110"/>
     <use x="313.191406" xlink:href="#DejaVuSans-32"/>
     <use x="344.978516" xlink:href="#DejaVuSans-83"/>
     <use x="408.455078" xlink:href="#DejaVuSans-101"/>
     <use x="469.978516" xlink:href="#DejaVuSans-108"/>
     <use x="497.761719" xlink:href="#DejaVuSans-101"/>
     <use x="559.285156" xlink:href="#DejaVuSans-99"/>
     <use x="614.265625" xlink:href="#DejaVuSans-116"/>
     <use x="653.474609" xlink:href="#DejaVuSans-105"/>
     <use x="681.257812" xlink:href="#DejaVuSans-111"/>
     <use x="742.439453" xlink:href="#DejaVuSans-110"/>
     <use x="805.818359" xlink:href="#DejaVuSans-32"/>
     <use x="837.605469" xlink:href="#DejaVuSans-70"/>
     <use x="887.875" xlink:href="#DejaVuSans-114"/>
     <use x="926.738281" xlink:href="#DejaVuSans-101"/>
     <use x="988.261719" xlink:href="#DejaVuSans-113"/>
     <use x="1051.738281" xlink:href="#DejaVuSans-117"/>
     <use x="1115.117188" xlink:href="#DejaVuSans-101"/>
     <use x="1176.640625" xlink:href="#DejaVuSans-110"/>
     <use x="1240.019531" xlink:href="#DejaVuSans-99"/>
     <use x="1295" xlink:href="#DejaVuSans-121"/>
     <use x="1354.179688" xlink:href="#DejaVuSans-40"/>
     <use x="1393.193359" xlink:href="#DejaVuSans-37"/>
     <use x="1488.212891" xlink:href="#DejaVuSans-41"/>
     <use x="1527.226562" xlink:href="#DejaVuSans-32"/>
     <use x="1559.013672" xlink:href="#DejaVuSans-118"/>
     <use x="1618.193359" xlink:href="#DejaVuSans-115"/>
     <use x="1670.292969" xlink:href="#DejaVuSans-32"/>
     <use x="1702.080078" xlink:href="#DejaVuSans-84"/>
     <use x="1760.039062" xlink:href="#DejaVuSans-105"/>
     <use x="1787.822266" xlink:href="#DejaVuSans-109"/>
     <use x="1885.234375" xlink:href="#DejaVuSans-101"/>
     <use x="1946.757812" xlink:href="#DejaVuSans-115"/>
     <use x="1998.857422" xlink:href="#DejaVuSans-116"/>
     <use x="2038.066406" xlink:href="#DejaVuSans-101"/>
     <use x="2099.589844" xlink:href="#DejaVuSans-112"/>
    </g>
   </g>
  </g>
 </g>
 <defs>
  <clipPath id="pb3d9c0bdad">
   <rect height="257.2" width="1331.070234" x="87.329766" y="46.6"/>
  </clipPath>
  <clipPath id="pdf557d920e">
   <rect height="257.2" width="1331.070234" x="87.329766" y="399.4"/>
  </clipPath>
 </defs>
</svg>
