<?xml version="1.0" encoding="utf-8" standalone="no"?>
<!DOCTYPE svg PUBLIC "-//W3C//DTD SVG 1.1//EN"
  "http://www.w3.org/Graphics/SVG/1.1/DTD/svg11.dtd">
<!-- Created with matplotlib (https://matplotlib.org/) -->
<svg height="1080pt" version="1.1" viewBox="0 0 1440 1080" width="1440pt" xmlns="http://www.w3.org/2000/svg" xmlns:xlink="http://www.w3.org/1999/xlink">
 <defs>
  <style type="text/css">
*{stroke-linecap:butt;stroke-linejoin:round;}
  </style>
 </defs>
 <g id="figure_1">
  <g id="patch_1">
   <path d="M 0 1080 
L 1440 1080 
L 1440 0 
L 0 0 
z
" style="fill:#ffffff;"/>
  </g>
  <g id="axes_1">
   <g id="patch_2">
    <path d="M 87.517266 303.8 
L 1418.4 303.8 
L 1418.4 46.6 
L 87.517266 46.6 
z
" style="fill:#ffffff;"/>
   </g>
   <g id="matplotlib.axis_1">
    <g id="xtick_1">
     <g id="line2d_1">
      <defs>
       <path d="M 0 0 
L 0 3.5 
" id="md96eb17ba9" style="stroke:#000000;stroke-width:0.8;"/>
      </defs>
      <g>
       <use style="stroke:#000000;stroke-width:0.8;" x="203.246199" xlink:href="#md96eb17ba9" y="303.8"/>
      </g>
     </g>
     <g id="text_1">
      <!-- 1e+04 -->
      <defs>
       <path d="M 12.40625 8.296875 
L 28.515625 8.296875 
L 28.515625 63.921875 
L 10.984375 60.40625 
L 10.984375 69.390625 
L 28.421875 72.90625 
L 38.28125 72.90625 
L 38.28125 8.296875 
L 54.390625 8.296875 
L 54.390625 0 
L 12.40625 0 
z
" id="DejaVuSans-49"/>
       <path d="M 56.203125 29.59375 
L 56.203125 25.203125 
L 14.890625 25.203125 
Q 15.484375 15.921875 20.484375 11.0625 
Q 25.484375 6.203125 34.421875 6.203125 
Q 39.59375 6.203125 44.453125 7.46875 
Q 49.3125 8.734375 54.109375 11.28125 
L 54.109375 2.78125 
Q 49.265625 0.734375 44.1875 -0.34375 
Q 39.109375 -1.421875 33.890625 -1.421875 
Q 20.796875 -1.421875 13.15625 6.1875 
Q 5.515625 13.8125 5.515625 26.8125 
Q 5.515625 40.234375 12.765625 48.109375 
Q 20.015625 56 32.328125 56 
Q 43.359375 56 49.78125 48.890625 
Q 56.203125 41.796875 56.203125 29.59375 
z
M 47.21875 32.234375 
Q 47.125 39.59375 43.09375 43.984375 
Q 39.0625 48.390625 32.421875 48.390625 
Q 24.90625 48.390625 20.390625 44.140625 
Q 15.875 39.890625 15.1875 32.171875 
z
" id="DejaVuSans-101"/>
       <path d="M 46 62.703125 
L 46 35.5 
L 73.1875 35.5 
L 73.1875 27.203125 
L 46 27.203125 
L 46 0 
L 37.796875 0 
L 37.796875 27.203125 
L 10.59375 27.203125 
L 10.59375 35.5 
L 37.796875 35.5 
L 37.796875 62.703125 
z
" id="DejaVuSans-43"/>
       <path d="M 31.78125 66.40625 
Q 24.171875 66.40625 20.328125 58.90625 
Q 16.5 51.421875 16.5 36.375 
Q 16.5 21.390625 20.328125 13.890625 
Q 24.171875 6.390625 31.78125 6.390625 
Q 39.453125 6.390625 43.28125 13.890625 
Q 47.125 21.390625 47.125 36.375 
Q 47.125 51.421875 43.28125 58.90625 
Q 39.453125 66.40625 31.78125 66.40625 
z
M 31.78125 74.21875 
Q 44.046875 74.21875 50.515625 64.515625 
Q 56.984375 54.828125 56.984375 36.375 
Q 56.984375 17.96875 50.515625 8.265625 
Q 44.046875 -1.421875 31.78125 -1.421875 
Q 19.53125 -1.421875 13.0625 8.265625 
Q 6.59375 17.96875 6.59375 36.375 
Q 6.59375 54.828125 13.0625 64.515625 
Q 19.53125 74.21875 31.78125 74.21875 
z
" id="DejaVuSans-48"/>
       <path d="M 37.796875 64.3125 
L 12.890625 25.390625 
L 37.796875 25.390625 
z
M 35.203125 72.90625 
L 47.609375 72.90625 
L 47.609375 25.390625 
L 58.015625 25.390625 
L 58.015625 17.1875 
L 47.609375 17.1875 
L 47.609375 0 
L 37.796875 0 
L 37.796875 17.1875 
L 4.890625 17.1875 
L 4.890625 26.703125 
z
" id="DejaVuSans-52"/>
      </defs>
      <g transform="translate(169.625887 325.996875)scale(0.2 -0.2)">
       <use xlink:href="#DejaVuSans-49"/>
       <use x="63.623047" xlink:href="#DejaVuSans-101"/>
       <use x="125.146484" xlink:href="#DejaVuSans-43"/>
       <use x="208.935547" xlink:href="#DejaVuSans-48"/>
       <use x="272.558594" xlink:href="#DejaVuSans-52"/>
      </g>
     </g>
    </g>
    <g id="xtick_2">
     <g id="line2d_2">
      <g>
       <use style="stroke:#000000;stroke-width:0.8;" x="318.975132" xlink:href="#md96eb17ba9" y="303.8"/>
      </g>
     </g>
     <g id="text_2">
      <!-- 2e+04 -->
      <defs>
       <path d="M 19.1875 8.296875 
L 53.609375 8.296875 
L 53.609375 0 
L 7.328125 0 
L 7.328125 8.296875 
Q 12.9375 14.109375 22.625 23.890625 
Q 32.328125 33.6875 34.8125 36.53125 
Q 39.546875 41.84375 41.421875 45.53125 
Q 43.3125 49.21875 43.3125 52.78125 
Q 43.3125 58.59375 39.234375 62.25 
Q 35.15625 65.921875 28.609375 65.921875 
Q 23.96875 65.921875 18.8125 64.3125 
Q 13.671875 62.703125 7.8125 59.421875 
L 7.8125 69.390625 
Q 13.765625 71.78125 18.9375 73 
Q 24.125 74.21875 28.421875 74.21875 
Q 39.75 74.21875 46.484375 68.546875 
Q 53.21875 62.890625 53.21875 53.421875 
Q 53.21875 48.921875 51.53125 44.890625 
Q 49.859375 40.875 45.40625 35.40625 
Q 44.1875 33.984375 37.640625 27.21875 
Q 31.109375 20.453125 19.1875 8.296875 
z
" id="DejaVuSans-50"/>
      </defs>
      <g transform="translate(285.35482 325.996875)scale(0.2 -0.2)">
       <use xlink:href="#DejaVuSans-50"/>
       <use x="63.623047" xlink:href="#DejaVuSans-101"/>
       <use x="125.146484" xlink:href="#DejaVuSans-43"/>
       <use x="208.935547" xlink:href="#DejaVuSans-48"/>
       <use x="272.558594" xlink:href="#DejaVuSans-52"/>
      </g>
     </g>
    </g>
    <g id="xtick_3">
     <g id="line2d_3">
      <g>
       <use style="stroke:#000000;stroke-width:0.8;" x="550.432999" xlink:href="#md96eb17ba9" y="303.8"/>
      </g>
     </g>
     <g id="text_3">
      <!-- 4e+04 -->
      <g transform="translate(516.812687 325.996875)scale(0.2 -0.2)">
       <use xlink:href="#DejaVuSans-52"/>
       <use x="63.623047" xlink:href="#DejaVuSans-101"/>
       <use x="125.146484" xlink:href="#DejaVuSans-43"/>
       <use x="208.935547" xlink:href="#DejaVuSans-48"/>
       <use x="272.558594" xlink:href="#DejaVuSans-52"/>
      </g>
     </g>
    </g>
    <g id="xtick_4">
     <g id="line2d_4">
      <g>
       <use style="stroke:#000000;stroke-width:0.8;" x="781.890866" xlink:href="#md96eb17ba9" y="303.8"/>
      </g>
     </g>
     <g id="text_4">
      <!-- 6e+04 -->
      <defs>
       <path d="M 33.015625 40.375 
Q 26.375 40.375 22.484375 35.828125 
Q 18.609375 31.296875 18.609375 23.390625 
Q 18.609375 15.53125 22.484375 10.953125 
Q 26.375 6.390625 33.015625 6.390625 
Q 39.65625 6.390625 43.53125 10.953125 
Q 47.40625 15.53125 47.40625 23.390625 
Q 47.40625 31.296875 43.53125 35.828125 
Q 39.65625 40.375 33.015625 40.375 
z
M 52.59375 71.296875 
L 52.59375 62.3125 
Q 48.875 64.0625 45.09375 64.984375 
Q 41.3125 65.921875 37.59375 65.921875 
Q 27.828125 65.921875 22.671875 59.328125 
Q 17.53125 52.734375 16.796875 39.40625 
Q 19.671875 43.65625 24.015625 45.921875 
Q 28.375 48.1875 33.59375 48.1875 
Q 44.578125 48.1875 50.953125 41.515625 
Q 57.328125 34.859375 57.328125 23.390625 
Q 57.328125 12.15625 50.6875 5.359375 
Q 44.046875 -1.421875 33.015625 -1.421875 
Q 20.359375 -1.421875 13.671875 8.265625 
Q 6.984375 17.96875 6.984375 36.375 
Q 6.984375 53.65625 15.1875 63.9375 
Q 23.390625 74.21875 37.203125 74.21875 
Q 40.921875 74.21875 44.703125 73.484375 
Q 48.484375 72.75 52.59375 71.296875 
z
" id="DejaVuSans-54"/>
      </defs>
      <g transform="translate(748.270554 325.996875)scale(0.2 -0.2)">
       <use xlink:href="#DejaVuSans-54"/>
       <use x="63.623047" xlink:href="#DejaVuSans-101"/>
       <use x="125.146484" xlink:href="#DejaVuSans-43"/>
       <use x="208.935547" xlink:href="#DejaVuSans-48"/>
       <use x="272.558594" xlink:href="#DejaVuSans-52"/>
      </g>
     </g>
    </g>
    <g id="xtick_5">
     <g id="line2d_5">
      <g>
       <use style="stroke:#000000;stroke-width:0.8;" x="1013.348733" xlink:href="#md96eb17ba9" y="303.8"/>
      </g>
     </g>
     <g id="text_5">
      <!-- 8e+04 -->
      <defs>
       <path d="M 31.78125 34.625 
Q 24.75 34.625 20.71875 30.859375 
Q 16.703125 27.09375 16.703125 20.515625 
Q 16.703125 13.921875 20.71875 10.15625 
Q 24.75 6.390625 31.78125 6.390625 
Q 38.8125 6.390625 42.859375 10.171875 
Q 46.921875 13.96875 46.921875 20.515625 
Q 46.921875 27.09375 42.890625 30.859375 
Q 38.875 34.625 31.78125 34.625 
z
M 21.921875 38.8125 
Q 15.578125 40.375 12.03125 44.71875 
Q 8.5 49.078125 8.5 55.328125 
Q 8.5 64.0625 14.71875 69.140625 
Q 20.953125 74.21875 31.78125 74.21875 
Q 42.671875 74.21875 48.875 69.140625 
Q 55.078125 64.0625 55.078125 55.328125 
Q 55.078125 49.078125 51.53125 44.71875 
Q 48 40.375 41.703125 38.8125 
Q 48.828125 37.15625 52.796875 32.3125 
Q 56.78125 27.484375 56.78125 20.515625 
Q 56.78125 9.90625 50.3125 4.234375 
Q 43.84375 -1.421875 31.78125 -1.421875 
Q 19.734375 -1.421875 13.25 4.234375 
Q 6.78125 9.90625 6.78125 20.515625 
Q 6.78125 27.484375 10.78125 32.3125 
Q 14.796875 37.15625 21.921875 38.8125 
z
M 18.3125 54.390625 
Q 18.3125 48.734375 21.84375 45.5625 
Q 25.390625 42.390625 31.78125 42.390625 
Q 38.140625 42.390625 41.71875 45.5625 
Q 45.3125 48.734375 45.3125 54.390625 
Q 45.3125 60.0625 41.71875 63.234375 
Q 38.140625 66.40625 31.78125 66.40625 
Q 25.390625 66.40625 21.84375 63.234375 
Q 18.3125 60.0625 18.3125 54.390625 
z
" id="DejaVuSans-56"/>
      </defs>
      <g transform="translate(979.728421 325.996875)scale(0.2 -0.2)">
       <use xlink:href="#DejaVuSans-56"/>
       <use x="63.623047" xlink:href="#DejaVuSans-101"/>
       <use x="125.146484" xlink:href="#DejaVuSans-43"/>
       <use x="208.935547" xlink:href="#DejaVuSans-48"/>
       <use x="272.558594" xlink:href="#DejaVuSans-52"/>
      </g>
     </g>
    </g>
    <g id="xtick_6">
     <g id="line2d_6">
      <g>
       <use style="stroke:#000000;stroke-width:0.8;" x="1244.8066" xlink:href="#md96eb17ba9" y="303.8"/>
      </g>
     </g>
     <g id="text_6">
      <!-- 1e+05 -->
      <defs>
       <path d="M 10.796875 72.90625 
L 49.515625 72.90625 
L 49.515625 64.59375 
L 19.828125 64.59375 
L 19.828125 46.734375 
Q 21.96875 47.46875 24.109375 47.828125 
Q 26.265625 48.1875 28.421875 48.1875 
Q 40.625 48.1875 47.75 41.5 
Q 54.890625 34.8125 54.890625 23.390625 
Q 54.890625 11.625 47.5625 5.09375 
Q 40.234375 -1.421875 26.90625 -1.421875 
Q 22.3125 -1.421875 17.546875 -0.640625 
Q 12.796875 0.140625 7.71875 1.703125 
L 7.71875 11.625 
Q 12.109375 9.234375 16.796875 8.0625 
Q 21.484375 6.890625 26.703125 6.890625 
Q 35.15625 6.890625 40.078125 11.328125 
Q 45.015625 15.765625 45.015625 23.390625 
Q 45.015625 31 40.078125 35.4375 
Q 35.15625 39.890625 26.703125 39.890625 
Q 22.75 39.890625 18.8125 39.015625 
Q 14.890625 38.140625 10.796875 36.28125 
z
" id="DejaVuSans-53"/>
      </defs>
      <g transform="translate(1211.186287 325.996875)scale(0.2 -0.2)">
       <use xlink:href="#DejaVuSans-49"/>
       <use x="63.623047" xlink:href="#DejaVuSans-101"/>
       <use x="125.146484" xlink:href="#DejaVuSans-43"/>
       <use x="208.935547" xlink:href="#DejaVuSans-48"/>
       <use x="272.558594" xlink:href="#DejaVuSans-53"/>
      </g>
     </g>
    </g>
    <g id="text_7">
     <!-- Timestep -->
     <defs>
      <path d="M -0.296875 72.90625 
L 61.375 72.90625 
L 61.375 64.59375 
L 35.5 64.59375 
L 35.5 0 
L 25.59375 0 
L 25.59375 64.59375 
L -0.296875 64.59375 
z
" id="DejaVuSans-84"/>
      <path d="M 9.421875 54.6875 
L 18.40625 54.6875 
L 18.40625 0 
L 9.421875 0 
z
M 9.421875 75.984375 
L 18.40625 75.984375 
L 18.40625 64.59375 
L 9.421875 64.59375 
z
" id="DejaVuSans-105"/>
      <path d="M 52 44.1875 
Q 55.375 50.25 60.0625 53.125 
Q 64.75 56 71.09375 56 
Q 79.640625 56 84.28125 50.015625 
Q 88.921875 44.046875 88.921875 33.015625 
L 88.921875 0 
L 79.890625 0 
L 79.890625 32.71875 
Q 79.890625 40.578125 77.09375 44.375 
Q 74.3125 48.1875 68.609375 48.1875 
Q 61.625 48.1875 57.5625 43.546875 
Q 53.515625 38.921875 53.515625 30.90625 
L 53.515625 0 
L 44.484375 0 
L 44.484375 32.71875 
Q 44.484375 40.625 41.703125 44.40625 
Q 38.921875 48.1875 33.109375 48.1875 
Q 26.21875 48.1875 22.15625 43.53125 
Q 18.109375 38.875 18.109375 30.90625 
L 18.109375 0 
L 9.078125 0 
L 9.078125 54.6875 
L 18.109375 54.6875 
L 18.109375 46.1875 
Q 21.1875 51.21875 25.484375 53.609375 
Q 29.78125 56 35.6875 56 
Q 41.65625 56 45.828125 52.96875 
Q 50 49.953125 52 44.1875 
z
" id="DejaVuSans-109"/>
      <path d="M 44.28125 53.078125 
L 44.28125 44.578125 
Q 40.484375 46.53125 36.375 47.5 
Q 32.28125 48.484375 27.875 48.484375 
Q 21.1875 48.484375 17.84375 46.4375 
Q 14.5 44.390625 14.5 40.28125 
Q 14.5 37.15625 16.890625 35.375 
Q 19.28125 33.59375 26.515625 31.984375 
L 29.59375 31.296875 
Q 39.15625 29.25 43.1875 25.515625 
Q 47.21875 21.78125 47.21875 15.09375 
Q 47.21875 7.46875 41.1875 3.015625 
Q 35.15625 -1.421875 24.609375 -1.421875 
Q 20.21875 -1.421875 15.453125 -0.5625 
Q 10.6875 0.296875 5.421875 2 
L 5.421875 11.28125 
Q 10.40625 8.6875 15.234375 7.390625 
Q 20.0625 6.109375 24.8125 6.109375 
Q 31.15625 6.109375 34.5625 8.28125 
Q 37.984375 10.453125 37.984375 14.40625 
Q 37.984375 18.0625 35.515625 20.015625 
Q 33.0625 21.96875 24.703125 23.78125 
L 21.578125 24.515625 
Q 13.234375 26.265625 9.515625 29.90625 
Q 5.8125 33.546875 5.8125 39.890625 
Q 5.8125 47.609375 11.28125 51.796875 
Q 16.75 56 26.8125 56 
Q 31.78125 56 36.171875 55.265625 
Q 40.578125 54.546875 44.28125 53.078125 
z
" id="DejaVuSans-115"/>
      <path d="M 18.3125 70.21875 
L 18.3125 54.6875 
L 36.8125 54.6875 
L 36.8125 47.703125 
L 18.3125 47.703125 
L 18.3125 18.015625 
Q 18.3125 11.328125 20.140625 9.421875 
Q 21.96875 7.515625 27.59375 7.515625 
L 36.8125 7.515625 
L 36.8125 0 
L 27.59375 0 
Q 17.1875 0 13.234375 3.875 
Q 9.28125 7.765625 9.28125 18.015625 
L 9.28125 47.703125 
L 2.6875 47.703125 
L 2.6875 54.6875 
L 9.28125 54.6875 
L 9.28125 70.21875 
z
" id="DejaVuSans-116"/>
      <path d="M 18.109375 8.203125 
L 18.109375 -20.796875 
L 9.078125 -20.796875 
L 9.078125 54.6875 
L 18.109375 54.6875 
L 18.109375 46.390625 
Q 20.953125 51.265625 25.265625 53.625 
Q 29.59375 56 35.59375 56 
Q 45.5625 56 51.78125 48.09375 
Q 58.015625 40.1875 58.015625 27.296875 
Q 58.015625 14.40625 51.78125 6.484375 
Q 45.5625 -1.421875 35.59375 -1.421875 
Q 29.59375 -1.421875 25.265625 0.953125 
Q 20.953125 3.328125 18.109375 8.203125 
z
M 48.6875 27.296875 
Q 48.6875 37.203125 44.609375 42.84375 
Q 40.53125 48.484375 33.40625 48.484375 
Q 26.265625 48.484375 22.1875 42.84375 
Q 18.109375 37.203125 18.109375 27.296875 
Q 18.109375 17.390625 22.1875 11.75 
Q 26.265625 6.109375 33.40625 6.109375 
Q 40.53125 6.109375 44.609375 11.75 
Q 48.6875 17.390625 48.6875 27.296875 
z
" id="DejaVuSans-112"/>
     </defs>
     <g transform="translate(706.860195 349.353125)scale(0.2 -0.2)">
      <use xlink:href="#DejaVuSans-84"/>
      <use x="57.958984" xlink:href="#DejaVuSans-105"/>
      <use x="85.742188" xlink:href="#DejaVuSans-109"/>
      <use x="183.154297" xlink:href="#DejaVuSans-101"/>
      <use x="244.677734" xlink:href="#DejaVuSans-115"/>
      <use x="296.777344" xlink:href="#DejaVuSans-116"/>
      <use x="335.986328" xlink:href="#DejaVuSans-101"/>
      <use x="397.509766" xlink:href="#DejaVuSans-112"/>
     </g>
    </g>
   </g>
   <g id="matplotlib.axis_2">
    <g id="ytick_1">
     <g id="line2d_7">
      <defs>
       <path d="M 0 0 
L -3.5 0 
" id="md449eb4bf3" style="stroke:#1f77b4;stroke-width:0.8;"/>
      </defs>
      <g>
       <use style="fill:#1f77b4;stroke:#1f77b4;stroke-width:0.8;" x="87.517266" xlink:href="#md449eb4bf3" y="296.471969"/>
      </g>
     </g>
     <g id="text_8">
      <!-- 10 -->
      <g style="fill:#1f77b4;" transform="translate(61.429766 302.170797)scale(0.15 -0.15)">
       <use xlink:href="#DejaVuSans-49"/>
       <use x="63.623047" xlink:href="#DejaVuSans-48"/>
      </g>
     </g>
    </g>
    <g id="ytick_2">
     <g id="line2d_8">
      <g>
       <use style="fill:#1f77b4;stroke:#1f77b4;stroke-width:0.8;" x="87.517266" xlink:href="#md449eb4bf3" y="241.955462"/>
      </g>
     </g>
     <g id="text_9">
      <!-- 20 -->
      <g style="fill:#1f77b4;" transform="translate(61.429766 247.654291)scale(0.15 -0.15)">
       <use xlink:href="#DejaVuSans-50"/>
       <use x="63.623047" xlink:href="#DejaVuSans-48"/>
      </g>
     </g>
    </g>
    <g id="ytick_3">
     <g id="line2d_9">
      <g>
       <use style="fill:#1f77b4;stroke:#1f77b4;stroke-width:0.8;" x="87.517266" xlink:href="#md449eb4bf3" y="187.438956"/>
      </g>
     </g>
     <g id="text_10">
      <!-- 30 -->
      <defs>
       <path d="M 40.578125 39.3125 
Q 47.65625 37.796875 51.625 33 
Q 55.609375 28.21875 55.609375 21.1875 
Q 55.609375 10.40625 48.1875 4.484375 
Q 40.765625 -1.421875 27.09375 -1.421875 
Q 22.515625 -1.421875 17.65625 -0.515625 
Q 12.796875 0.390625 7.625 2.203125 
L 7.625 11.71875 
Q 11.71875 9.328125 16.59375 8.109375 
Q 21.484375 6.890625 26.8125 6.890625 
Q 36.078125 6.890625 40.9375 10.546875 
Q 45.796875 14.203125 45.796875 21.1875 
Q 45.796875 27.640625 41.28125 31.265625 
Q 36.765625 34.90625 28.71875 34.90625 
L 20.21875 34.90625 
L 20.21875 43.015625 
L 29.109375 43.015625 
Q 36.375 43.015625 40.234375 45.921875 
Q 44.09375 48.828125 44.09375 54.296875 
Q 44.09375 59.90625 40.109375 62.90625 
Q 36.140625 65.921875 28.71875 65.921875 
Q 24.65625 65.921875 20.015625 65.03125 
Q 15.375 64.15625 9.8125 62.3125 
L 9.8125 71.09375 
Q 15.4375 72.65625 20.34375 73.4375 
Q 25.25 74.21875 29.59375 74.21875 
Q 40.828125 74.21875 47.359375 69.109375 
Q 53.90625 64.015625 53.90625 55.328125 
Q 53.90625 49.265625 50.4375 45.09375 
Q 46.96875 40.921875 40.578125 39.3125 
z
" id="DejaVuSans-51"/>
      </defs>
      <g style="fill:#1f77b4;" transform="translate(61.429766 193.137784)scale(0.15 -0.15)">
       <use xlink:href="#DejaVuSans-51"/>
       <use x="63.623047" xlink:href="#DejaVuSans-48"/>
      </g>
     </g>
    </g>
    <g id="ytick_4">
     <g id="line2d_10">
      <g>
       <use style="fill:#1f77b4;stroke:#1f77b4;stroke-width:0.8;" x="87.517266" xlink:href="#md449eb4bf3" y="132.922449"/>
      </g>
     </g>
     <g id="text_11">
      <!-- 40 -->
      <g style="fill:#1f77b4;" transform="translate(61.429766 138.621277)scale(0.15 -0.15)">
       <use xlink:href="#DejaVuSans-52"/>
       <use x="63.623047" xlink:href="#DejaVuSans-48"/>
      </g>
     </g>
    </g>
    <g id="ytick_5">
     <g id="line2d_11">
      <g>
       <use style="fill:#1f77b4;stroke:#1f77b4;stroke-width:0.8;" x="87.517266" xlink:href="#md449eb4bf3" y="78.405942"/>
      </g>
     </g>
     <g id="text_12">
      <!-- 50 -->
      <g style="fill:#1f77b4;" transform="translate(61.429766 84.104771)scale(0.15 -0.15)">
       <use xlink:href="#DejaVuSans-53"/>
       <use x="63.623047" xlink:href="#DejaVuSans-48"/>
      </g>
     </g>
    </g>
    <g id="text_13">
     <!-- Reward -->
     <defs>
      <path d="M 44.390625 34.1875 
Q 47.5625 33.109375 50.5625 29.59375 
Q 53.5625 26.078125 56.59375 19.921875 
L 66.609375 0 
L 56 0 
L 46.6875 18.703125 
Q 43.0625 26.03125 39.671875 28.421875 
Q 36.28125 30.8125 30.421875 30.8125 
L 19.671875 30.8125 
L 19.671875 0 
L 9.8125 0 
L 9.8125 72.90625 
L 32.078125 72.90625 
Q 44.578125 72.90625 50.734375 67.671875 
Q 56.890625 62.453125 56.890625 51.90625 
Q 56.890625 45.015625 53.6875 40.46875 
Q 50.484375 35.9375 44.390625 34.1875 
z
M 19.671875 64.796875 
L 19.671875 38.921875 
L 32.078125 38.921875 
Q 39.203125 38.921875 42.84375 42.21875 
Q 46.484375 45.515625 46.484375 51.90625 
Q 46.484375 58.296875 42.84375 61.546875 
Q 39.203125 64.796875 32.078125 64.796875 
z
" id="DejaVuSans-82"/>
      <path d="M 4.203125 54.6875 
L 13.1875 54.6875 
L 24.421875 12.015625 
L 35.59375 54.6875 
L 46.1875 54.6875 
L 57.421875 12.015625 
L 68.609375 54.6875 
L 77.59375 54.6875 
L 63.28125 0 
L 52.6875 0 
L 40.921875 44.828125 
L 29.109375 0 
L 18.5 0 
z
" id="DejaVuSans-119"/>
      <path d="M 34.28125 27.484375 
Q 23.390625 27.484375 19.1875 25 
Q 14.984375 22.515625 14.984375 16.5 
Q 14.984375 11.71875 18.140625 8.90625 
Q 21.296875 6.109375 26.703125 6.109375 
Q 34.1875 6.109375 38.703125 11.40625 
Q 43.21875 16.703125 43.21875 25.484375 
L 43.21875 27.484375 
z
M 52.203125 31.203125 
L 52.203125 0 
L 43.21875 0 
L 43.21875 8.296875 
Q 40.140625 3.328125 35.546875 0.953125 
Q 30.953125 -1.421875 24.3125 -1.421875 
Q 15.921875 -1.421875 10.953125 3.296875 
Q 6 8.015625 6 15.921875 
Q 6 25.140625 12.171875 29.828125 
Q 18.359375 34.515625 30.609375 34.515625 
L 43.21875 34.515625 
L 43.21875 35.40625 
Q 43.21875 41.609375 39.140625 45 
Q 35.0625 48.390625 27.6875 48.390625 
Q 23 48.390625 18.546875 47.265625 
Q 14.109375 46.140625 10.015625 43.890625 
L 10.015625 52.203125 
Q 14.9375 54.109375 19.578125 55.046875 
Q 24.21875 56 28.609375 56 
Q 40.484375 56 46.34375 49.84375 
Q 52.203125 43.703125 52.203125 31.203125 
z
" id="DejaVuSans-97"/>
      <path d="M 41.109375 46.296875 
Q 39.59375 47.171875 37.8125 47.578125 
Q 36.03125 48 33.890625 48 
Q 26.265625 48 22.1875 43.046875 
Q 18.109375 38.09375 18.109375 28.8125 
L 18.109375 0 
L 9.078125 0 
L 9.078125 54.6875 
L 18.109375 54.6875 
L 18.109375 46.1875 
Q 20.953125 51.171875 25.484375 53.578125 
Q 30.03125 56 36.53125 56 
Q 37.453125 56 38.578125 55.875 
Q 39.703125 55.765625 41.0625 55.515625 
z
" id="DejaVuSans-114"/>
      <path d="M 45.40625 46.390625 
L 45.40625 75.984375 
L 54.390625 75.984375 
L 54.390625 0 
L 45.40625 0 
L 45.40625 8.203125 
Q 42.578125 3.328125 38.25 0.953125 
Q 33.9375 -1.421875 27.875 -1.421875 
Q 17.96875 -1.421875 11.734375 6.484375 
Q 5.515625 14.40625 5.515625 27.296875 
Q 5.515625 40.1875 11.734375 48.09375 
Q 17.96875 56 27.875 56 
Q 33.9375 56 38.25 53.625 
Q 42.578125 51.265625 45.40625 46.390625 
z
M 14.796875 27.296875 
Q 14.796875 17.390625 18.875 11.75 
Q 22.953125 6.109375 30.078125 6.109375 
Q 37.203125 6.109375 41.296875 11.75 
Q 45.40625 17.390625 45.40625 27.296875 
Q 45.40625 37.203125 41.296875 42.84375 
Q 37.203125 48.484375 30.078125 48.484375 
Q 22.953125 48.484375 18.875 42.84375 
Q 14.796875 37.203125 14.796875 27.296875 
z
" id="DejaVuSans-100"/>
     </defs>
     <g style="fill:#1f77b4;" transform="translate(53.270391 212.442188)rotate(-90)scale(0.2 -0.2)">
      <use xlink:href="#DejaVuSans-82"/>
      <use x="64.982422" xlink:href="#DejaVuSans-101"/>
      <use x="126.505859" xlink:href="#DejaVuSans-119"/>
      <use x="208.292969" xlink:href="#DejaVuSans-97"/>
      <use x="269.572266" xlink:href="#DejaVuSans-114"/>
      <use x="308.935547" xlink:href="#DejaVuSans-100"/>
     </g>
    </g>
   </g>
   <g id="line2d_12">
    <path clip-path="url(#p69b27a6ca9)" d="M 87.517266 58.290909 
L 127.443748 243.212457 
L 129.41114 249.992753 
L 131.609989 252.212354 
L 132.304363 254.765284 
L 134.156026 261.392933 
L 136.239147 265.738678 
L 137.164978 270.646721 
L 138.669454 278.447254 
L 141.215491 284.191737 
L 143.298612 290.09198 
L 145.728919 290.339641 
L 148.043498 291.34586 
L 150.589534 291.428413 
L 152.672655 291.246172 
L 155.102963 291.976694 
L 157.417541 292.023422 
L 159.616391 291.51564 
L 162.046699 291.733706 
L 164.361277 291.179195 
L 166.560127 290.227493 
L 168.758977 290.129363 
L 171.189284 291.162061 
L 173.388134 290.964244 
L 175.818442 289.57641 
L 178.480207 289.151181 
L 181.026244 289.045263 
L 182.993636 288.869253 
L 186.465504 289.21037 
L 188.780082 289.414418 
L 189.821643 289.397284 
L 193.40924 288.565518 
L 194.4508 288.39418 
L 196.533921 288.484522 
L 199.079957 287.394192 
L 201.394536 287.169895 
L 203.709115 287.394192 
L 208.801188 286.814759 
L 211.925869 286.707284 
L 214.240448 286.444047 
L 215.282008 286.412895 
L 217.365129 286.777377 
L 221.299913 285.303873 
L 222.110015 285.12942 
L 224.656052 285.56088 
L 226.623444 286.135639 
L 229.053751 284.775842 
L 232.757077 284.634099 
L 233.682909 284.549988 
L 236.344674 283.587382 
L 238.427795 283.254053 
L 240.626645 283.303896 
L 243.172681 282.394249 
L 245.371531 282.185529 
L 248.959128 282.560914 
L 250.000688 282.521974 
L 252.199538 282.02821 
L 254.514117 282.579606 
L 256.828695 283.855292 
L 259.374732 283.944076 
L 261.805039 284.546873 
L 263.772431 285.229108 
L 266.08701 284.819455 
L 270.021794 282.559357 
L 270.716167 282.297677 
L 273.146475 282.384904 
L 275.923969 283.026641 
L 279.04865 283.339721 
L 282.289061 283.459658 
L 284.603639 282.623219 
L 287.149676 282.88334 
L 290.621544 283.925384 
L 291.663104 284.166815 
L 295.250701 284.27429 
L 296.060804 284.278963 
L 298.491111 283.232246 
L 301.384335 283.338164 
L 303.120269 283.487695 
L 305.782034 282.659044 
L 307.633697 281.880237 
L 309.948276 283.045332 
L 312.494312 282.079611 
L 314.577433 280.752524 
L 317.586385 281.051586 
L 319.900964 280.945668 
L 321.752627 280.805483 
L 324.067206 281.185541 
L 327.654802 281.051586 
L 328.696363 280.942553 
L 331.242399 280.198013 
L 335.755828 279.679327 
L 340.269256 279.874029 
L 343.046751 279.020456 
L 344.782685 278.403641 
L 347.212992 278.490868 
L 349.990487 279.34444 
L 351.610692 279.930103 
L 354.619644 279.023572 
L 356.702765 278.490868 
L 358.670157 277.808632 
L 361.100464 278.026698 
L 363.183585 277.662217 
L 365.961079 278.671551 
L 368.275658 279.026687 
L 370.474508 278.937903 
L 373.946376 278.344452 
L 376.260955 278.140404 
L 377.418244 278.151308 
L 379.617094 278.338221 
L 382.16313 277.936357 
L 384.709167 278.042275 
L 386.56083 278.400526 
L 388.759679 279.352228 
L 391.189987 279.624811 
L 395.587686 281.338187 
L 398.596639 280.634145 
L 400.332573 280.498633 
L 403.225796 281.578059 
L 406.466206 282.989258 
L 407.507767 283.291435 
L 410.979635 283.866195 
L 414.567231 284.478338 
L 416.650352 284.391111 
L 418.733473 283.898905 
L 421.048052 284.933161 
L 424.867107 284.311673 
L 426.371583 284.113856 
L 428.223246 284.076473 
L 431.810843 284.693288 
L 434.125421 284.897336 
L 435.629897 285.104499 
L 438.754579 285.842808 
L 439.796139 286.035952 
L 442.573633 286.14187 
L 444.193838 286.310092 
L 447.202791 285.201071 
L 449.054454 284.615408 
L 452.873508 282.682408 
L 455.072358 281.761858 
L 455.766732 281.537561 
L 459.585787 282.201105 
L 461.900365 282.620104 
L 463.173384 282.764962 
L 466.529523 282.657486 
L 467.339625 282.540665 
L 469.769933 280.853769 
L 472.20024 280.450347 
L 475.787837 280.584301 
L 476.945127 280.673085 
L 479.606892 281.104545 
L 481.458555 281.141927 
L 484.004592 280.515766 
L 487.47646 279.229177 
L 488.633749 278.727625 
L 492.221346 276.673131 
L 492.79999 276.384973 
L 496.619045 276.534504 
L 498.123521 276.428586 
L 499.743726 276.154446 
L 502.058305 274.509605 
L 505.067257 274.403687 
L 509.233499 273.733913 
L 512.936825 272.104648 
L 513.631198 271.899043 
L 516.177235 272.818036 
L 518.607543 272.892801 
L 520.922121 272.670062 
L 523.120971 272.730809 
L 525.667008 272.328945 
L 527.865857 272.417729 
L 532.379286 273.2199 
L 534.693864 272.995604 
L 537.008443 273.198094 
L 539.785937 272.74327 
L 541.753329 272.699657 
L 544.415095 272.95199 
L 546.382487 272.863206 
L 548.349879 272.522089 
L 550.664457 273.400583 
L 553.673409 272.687196 
L 555.293615 272.204336 
L 558.071109 273.026756 
L 560.15423 273.198094 
L 563.741827 272.366327 
L 565.014845 272.1358 
L 567.097966 272.082842 
L 569.644002 272.484706 
L 571.611394 272.568817 
L 573.925973 273.419275 
L 576.124823 273.369431 
L 578.55513 272.159165 
L 580.869709 272.101533 
L 583.300016 272.973797 
L 586.077511 273.266629 
L 587.697716 273.525193 
L 590.012295 272.347636 
L 592.326873 272.746385 
L 595.104368 271.363224 
L 597.071759 270.617126 
L 599.386338 269.015899 
L 603.089664 268.160768 
L 604.131224 267.989431 
L 606.445803 268.057966 
L 610.0334 267.2262 
L 611.537876 266.715302 
L 615.47266 265.19507 
L 617.787239 265.886651 
L 620.101817 264.590716 
L 622.416396 265.749581 
L 624.846704 264.852395 
L 627.161282 264.936506 
L 629.707319 265.846153 
L 632.021897 266.24646 
L 634.105018 266.835238 
L 636.766784 266.185713 
L 639.31282 265.263605 
L 641.627399 264.746477 
L 643.247604 264.584486 
L 645.79364 265.674816 
L 648.108219 265.877306 
L 650.422798 265.519054 
L 652.505919 265.73712 
L 654.936226 264.526854 
L 658.639552 264.385111 
L 659.681112 264.472337 
L 661.995691 265.008157 
L 664.194541 264.924045 
L 666.856306 263.96144 
L 668.707969 263.662378 
L 671.022548 265.001926 
L 673.337127 264.933391 
L 675.651705 266.864833 
L 677.966284 266.609384 
L 680.396592 267.642083 
L 683.289815 267.553299 
L 685.141478 267.765134 
L 687.456056 268.456715 
L 692.54813 268.905308 
L 694.399793 269.388169 
L 696.598642 270.473826 
L 698.913221 270.713698 
L 701.112071 271.631133 
L 703.542378 269.808724 
L 706.435602 269.313403 
L 709.560283 268.364816 
L 710.601843 268.101579 
L 713.379338 267.808747 
L 715.115272 267.542395 
L 720.091616 268.434908 
L 722.059008 268.51902 
L 724.952231 269.581313 
L 726.803894 269.992523 
L 730.391491 269.885048 
L 733.74763 269.768226 
L 735.830751 270.272894 
L 738.376787 269.503432 
L 741.964384 269.369477 
L 743.121673 269.280693 
L 745.783439 268.849234 
L 747.519373 268.830543 
L 749.718223 269.649848 
L 752.14853 268.93023 
L 754.463109 269.157642 
L 756.777688 268.632726 
L 759.207995 269.014341 
L 761.291116 268.802506 
L 763.605695 270.098441 
L 766.151731 268.618707 
L 768.350581 266.82122 
L 771.243804 266.14833 
L 772.979738 265.830577 
L 775.178588 264.721556 
L 777.608896 265.291642 
L 780.039203 265.05177 
L 782.122324 265.381984 
L 784.78409 267.054862 
L 789.181789 268.718394 
L 791.612097 268.478522 
L 796.125525 269.00188 
L 798.555833 268.456715 
L 801.333327 268.749547 
L 802.953532 269.020572 
L 805.38384 267.955163 
L 807.698418 266.184156 
L 810.128726 265.475441 
L 812.90622 265.581359 
L 814.757883 265.743351 
L 816.956733 265.531515 
L 820.660059 266.420913 
L 821.470161 266.522158 
L 823.900469 265.461422 
L 826.099319 265.369523 
L 828.413897 266.534619 
L 830.728476 265.811886 
L 833.274513 266.388203 
L 835.357633 266.191944 
L 837.672212 264.702864 
L 840.333978 264.793206 
L 842.532827 264.388226 
L 844.615948 263.475464 
L 847.6249 264.179506 
L 850.749582 264.707537 
L 852.0226 264.852395 
L 853.874263 264.902239 
L 856.30457 266.098487 
L 859.197794 265.992569 
L 861.049457 265.656124 
L 863.248306 264.852395 
L 865.678614 264.765169 
L 868.224651 264.191967 
L 870.770687 263.914711 
L 872.506621 263.480137 
L 876.441405 260.973935 
L 877.020049 260.684219 
L 879.450357 261.553368 
L 883.153683 260.947456 
L 884.426701 260.802598 
L 886.394093 260.718486 
L 890.213148 259.291712 
L 892.527727 258.628168 
L 894.726576 258.14375 
L 897.966986 257.573663 
L 901.670312 258.213842 
L 902.596144 258.436581 
L 905.605096 260.137496 
L 907.225301 260.788579 
L 912.433103 260.544034 
L 914.400495 260.587647 
L 916.367887 260.391387 
L 918.682465 261.699783 
L 921.112773 260.830635 
L 924.005996 261.325956 
L 925.857659 261.71536 
L 928.172238 261.646825 
L 930.718275 262.272986 
L 933.264311 263.195093 
L 935.115974 263.606304 
L 938.703571 263.498828 
L 941.01815 263.450542 
L 941.943981 263.548672 
L 944.142831 264.522181 
L 946.688867 264.095395 
L 949.119175 264.17016 
L 951.433754 263.947421 
L 954.095519 264.232465 
L 956.17864 264.765169 
L 958.030303 265.438058 
L 960.692068 264.481683 
L 965.321226 263.947421 
L 967.288618 264.142123 
L 969.718925 265.815001 
L 972.149233 266.054874 
L 974.57954 265.816559 
L 976.546932 266.01126 
L 978.861511 267.64364 
L 984.185042 266.82122 
L 986.036705 266.21375 
L 988.467012 264.860183 
L 990.550133 264.243368 
L 993.09617 264.50349 
L 995.526477 265.269836 
L 998.998345 266.790068 
L 1001.312924 267.8399 
L 1002.123026 268.123386 
L 1004.553334 268.036159 
L 1006.867913 267.50034 
L 1009.645407 267.394422 
L 1011.612799 267.040844 
L 1014.043107 266.335244 
L 1016.241956 265.950513 
L 1018.325077 265.347717 
L 1020.871114 265.601608 
L 1023.532879 265.316564 
L 1025.268813 264.853953 
L 1027.467663 263.301011 
L 1032.328278 263.540884 
L 1035.915875 262.924068 
L 1038.230454 262.50507 
L 1039.156285 262.402268 
L 1041.355135 262.783883 
L 1043.785443 261.723148 
L 1046.331479 261.463026 
L 1049.803347 260.635933 
L 1050.729179 260.53313 
L 1052.928028 261.051816 
L 1055.242607 263.313472 
L 1057.557186 263.69976 
L 1062.186343 260.659297 
L 1066.005398 261.065834 
L 1067.509874 261.061162 
L 1069.245808 261.04247 
L 1073.064863 262.699772 
L 1073.759236 262.952106 
L 1076.768189 261.833738 
L 1078.73558 261.025336 
L 1084.522027 259.964601 
L 1085.563587 259.933449 
L 1088.109624 260.335313 
L 1090.077016 260.419424 
L 1093.896071 261.846199 
L 1094.590444 262.023767 
L 1097.367939 261.388261 
L 1099.566788 261.151503 
L 1102.228554 260.540918 
L 1105.353235 260.012887 
L 1109.17229 259.13595 
L 1111.255411 258.322875 
L 1113.107074 257.394537 
L 1115.884568 258.067427 
L 1118.199147 258.889847 
L 1120.05081 259.195139 
L 1122.249659 258.011352 
L 1122.712575 258.472406 
L 1124.679967 260.478614 
L 1127.110275 260.235626 
L 1130.003498 260.908515 
L 1131.739432 261.044028 
L 1134.401197 260.036251 
L 1137.988794 257.981758 
L 1138.567439 257.71229 
L 1140.997747 258.4506 
L 1143.312325 259.910084 
L 1145.626904 260.265221 
L 1147.941483 259.570525 
L 1150.140332 259.643732 
L 1152.57064 257.970854 
L 1157.778442 257.16401 
L 1160.093021 256.646882 
L 1163.217702 256.333802 
L 1164.259262 256.350935 
L 1166.342383 256.709187 
L 1168.88842 255.618857 
L 1171.202998 255.198301 
L 1173.749035 253.886789 
L 1175.600698 252.752846 
L 1178.262463 254.067473 
L 1182.775892 255.173379 
L 1187.173591 254.945967 
L 1189.719628 256.528503 
L 1192.034206 257.238776 
L 1194.233056 258.296396 
L 1196.547635 258.056523 
L 1199.2094 256.914792 
L 1200.945334 256.447507 
L 1200.945334 256.447507 
" style="fill:none;stroke:#1f77b4;stroke-linecap:square;stroke-width:1.5;"/>
   </g>
   <g id="patch_3">
    <path d="M 87.517266 303.8 
L 87.517266 46.6 
" style="fill:none;stroke:#000000;stroke-linecap:square;stroke-linejoin:miter;stroke-width:0.8;"/>
   </g>
   <g id="patch_4">
    <path d="M 1418.4 303.8 
L 1418.4 46.6 
" style="fill:none;stroke:#000000;stroke-linecap:square;stroke-linejoin:miter;stroke-width:0.8;"/>
   </g>
   <g id="patch_5">
    <path d="M 87.517266 303.8 
L 1418.4 303.8 
" style="fill:none;stroke:#000000;stroke-linecap:square;stroke-linejoin:miter;stroke-width:0.8;"/>
   </g>
   <g id="patch_6">
    <path d="M 87.517266 46.6 
L 1418.4 46.6 
" style="fill:none;stroke:#000000;stroke-linecap:square;stroke-linejoin:miter;stroke-width:0.8;"/>
   </g>
   <g id="text_14">
    <!-- Avg. Last 10 Rewards: 17.0 || env_2_0 || Elapsed Time: 0:21:05 -->
    <defs>
     <path d="M 34.1875 63.1875 
L 20.796875 26.90625 
L 47.609375 26.90625 
z
M 28.609375 72.90625 
L 39.796875 72.90625 
L 67.578125 0 
L 57.328125 0 
L 50.6875 18.703125 
L 17.828125 18.703125 
L 11.1875 0 
L 0.78125 0 
z
" id="DejaVuSans-65"/>
     <path d="M 2.984375 54.6875 
L 12.5 54.6875 
L 29.59375 8.796875 
L 46.6875 54.6875 
L 56.203125 54.6875 
L 35.6875 0 
L 23.484375 0 
z
" id="DejaVuSans-118"/>
     <path d="M 45.40625 27.984375 
Q 45.40625 37.75 41.375 43.109375 
Q 37.359375 48.484375 30.078125 48.484375 
Q 22.859375 48.484375 18.828125 43.109375 
Q 14.796875 37.75 14.796875 27.984375 
Q 14.796875 18.265625 18.828125 12.890625 
Q 22.859375 7.515625 30.078125 7.515625 
Q 37.359375 7.515625 41.375 12.890625 
Q 45.40625 18.265625 45.40625 27.984375 
z
M 54.390625 6.78125 
Q 54.390625 -7.171875 48.1875 -13.984375 
Q 42 -20.796875 29.203125 -20.796875 
Q 24.46875 -20.796875 20.265625 -20.09375 
Q 16.0625 -19.390625 12.109375 -17.921875 
L 12.109375 -9.1875 
Q 16.0625 -11.328125 19.921875 -12.34375 
Q 23.78125 -13.375 27.78125 -13.375 
Q 36.625 -13.375 41.015625 -8.765625 
Q 45.40625 -4.15625 45.40625 5.171875 
L 45.40625 9.625 
Q 42.625 4.78125 38.28125 2.390625 
Q 33.9375 0 27.875 0 
Q 17.828125 0 11.671875 7.65625 
Q 5.515625 15.328125 5.515625 27.984375 
Q 5.515625 40.671875 11.671875 48.328125 
Q 17.828125 56 27.875 56 
Q 33.9375 56 38.28125 53.609375 
Q 42.625 51.21875 45.40625 46.390625 
L 45.40625 54.6875 
L 54.390625 54.6875 
z
" id="DejaVuSans-103"/>
     <path d="M 10.6875 12.40625 
L 21 12.40625 
L 21 0 
L 10.6875 0 
z
" id="DejaVuSans-46"/>
     <path id="DejaVuSans-32"/>
     <path d="M 9.8125 72.90625 
L 19.671875 72.90625 
L 19.671875 8.296875 
L 55.171875 8.296875 
L 55.171875 0 
L 9.8125 0 
z
" id="DejaVuSans-76"/>
     <path d="M 11.71875 12.40625 
L 22.015625 12.40625 
L 22.015625 0 
L 11.71875 0 
z
M 11.71875 51.703125 
L 22.015625 51.703125 
L 22.015625 39.3125 
L 11.71875 39.3125 
z
" id="DejaVuSans-58"/>
     <path d="M 8.203125 72.90625 
L 55.078125 72.90625 
L 55.078125 68.703125 
L 28.609375 0 
L 18.3125 0 
L 43.21875 64.59375 
L 8.203125 64.59375 
z
" id="DejaVuSans-55"/>
     <path d="M 21 76.421875 
L 21 -23.578125 
L 12.703125 -23.578125 
L 12.703125 76.421875 
z
" id="DejaVuSans-124"/>
     <path d="M 54.890625 33.015625 
L 54.890625 0 
L 45.90625 0 
L 45.90625 32.71875 
Q 45.90625 40.484375 42.875 44.328125 
Q 39.84375 48.1875 33.796875 48.1875 
Q 26.515625 48.1875 22.3125 43.546875 
Q 18.109375 38.921875 18.109375 30.90625 
L 18.109375 0 
L 9.078125 0 
L 9.078125 54.6875 
L 18.109375 54.6875 
L 18.109375 46.1875 
Q 21.34375 51.125 25.703125 53.5625 
Q 30.078125 56 35.796875 56 
Q 45.21875 56 50.046875 50.171875 
Q 54.890625 44.34375 54.890625 33.015625 
z
" id="DejaVuSans-110"/>
     <path d="M 50.984375 -16.609375 
L 50.984375 -23.578125 
L -0.984375 -23.578125 
L -0.984375 -16.609375 
z
" id="DejaVuSans-95"/>
     <path d="M 9.8125 72.90625 
L 55.90625 72.90625 
L 55.90625 64.59375 
L 19.671875 64.59375 
L 19.671875 43.015625 
L 54.390625 43.015625 
L 54.390625 34.71875 
L 19.671875 34.71875 
L 19.671875 8.296875 
L 56.78125 8.296875 
L 56.78125 0 
L 9.8125 0 
z
" id="DejaVuSans-69"/>
     <path d="M 9.421875 75.984375 
L 18.40625 75.984375 
L 18.40625 0 
L 9.421875 0 
z
" id="DejaVuSans-108"/>
    </defs>
    <g transform="translate(374.478633 40.6)scale(0.24 -0.24)">
     <use xlink:href="#DejaVuSans-65"/>
     <use x="62.533203" xlink:href="#DejaVuSans-118"/>
     <use x="121.712891" xlink:href="#DejaVuSans-103"/>
     <use x="185.189453" xlink:href="#DejaVuSans-46"/>
     <use x="216.976562" xlink:href="#DejaVuSans-32"/>
     <use x="248.763672" xlink:href="#DejaVuSans-76"/>
     <use x="304.476562" xlink:href="#DejaVuSans-97"/>
     <use x="365.755859" xlink:href="#DejaVuSans-115"/>
     <use x="417.855469" xlink:href="#DejaVuSans-116"/>
     <use x="457.064453" xlink:href="#DejaVuSans-32"/>
     <use x="488.851562" xlink:href="#DejaVuSans-49"/>
     <use x="552.474609" xlink:href="#DejaVuSans-48"/>
     <use x="616.097656" xlink:href="#DejaVuSans-32"/>
     <use x="647.884766" xlink:href="#DejaVuSans-82"/>
     <use x="712.867188" xlink:href="#DejaVuSans-101"/>
     <use x="774.390625" xlink:href="#DejaVuSans-119"/>
     <use x="856.177734" xlink:href="#DejaVuSans-97"/>
     <use x="917.457031" xlink:href="#DejaVuSans-114"/>
     <use x="956.820312" xlink:href="#DejaVuSans-100"/>
     <use x="1020.296875" xlink:href="#DejaVuSans-115"/>
     <use x="1072.396484" xlink:href="#DejaVuSans-58"/>
     <use x="1106.087891" xlink:href="#DejaVuSans-32"/>
     <use x="1137.875" xlink:href="#DejaVuSans-49"/>
     <use x="1201.498047" xlink:href="#DejaVuSans-55"/>
     <use x="1265.121094" xlink:href="#DejaVuSans-46"/>
     <use x="1296.908203" xlink:href="#DejaVuSans-48"/>
     <use x="1360.53125" xlink:href="#DejaVuSans-32"/>
     <use x="1392.318359" xlink:href="#DejaVuSans-124"/>
     <use x="1426.009766" xlink:href="#DejaVuSans-124"/>
     <use x="1459.701172" xlink:href="#DejaVuSans-32"/>
     <use x="1491.488281" xlink:href="#DejaVuSans-101"/>
     <use x="1553.011719" xlink:href="#DejaVuSans-110"/>
     <use x="1616.390625" xlink:href="#DejaVuSans-118"/>
     <use x="1675.570312" xlink:href="#DejaVuSans-95"/>
     <use x="1725.570312" xlink:href="#DejaVuSans-50"/>
     <use x="1789.193359" xlink:href="#DejaVuSans-95"/>
     <use x="1839.193359" xlink:href="#DejaVuSans-48"/>
     <use x="1902.816406" xlink:href="#DejaVuSans-32"/>
     <use x="1934.603516" xlink:href="#DejaVuSans-124"/>
     <use x="1968.294922" xlink:href="#DejaVuSans-124"/>
     <use x="2001.986328" xlink:href="#DejaVuSans-32"/>
     <use x="2033.773438" xlink:href="#DejaVuSans-69"/>
     <use x="2096.957031" xlink:href="#DejaVuSans-108"/>
     <use x="2124.740234" xlink:href="#DejaVuSans-97"/>
     <use x="2186.019531" xlink:href="#DejaVuSans-112"/>
     <use x="2249.496094" xlink:href="#DejaVuSans-115"/>
     <use x="2301.595703" xlink:href="#DejaVuSans-101"/>
     <use x="2363.119141" xlink:href="#DejaVuSans-100"/>
     <use x="2426.595703" xlink:href="#DejaVuSans-32"/>
     <use x="2458.382812" xlink:href="#DejaVuSans-84"/>
     <use x="2516.341797" xlink:href="#DejaVuSans-105"/>
     <use x="2544.125" xlink:href="#DejaVuSans-109"/>
     <use x="2641.537109" xlink:href="#DejaVuSans-101"/>
     <use x="2703.060547" xlink:href="#DejaVuSans-58"/>
     <use x="2736.751953" xlink:href="#DejaVuSans-32"/>
     <use x="2768.539062" xlink:href="#DejaVuSans-48"/>
     <use x="2832.162109" xlink:href="#DejaVuSans-58"/>
     <use x="2865.853516" xlink:href="#DejaVuSans-50"/>
     <use x="2929.476562" xlink:href="#DejaVuSans-49"/>
     <use x="2993.099609" xlink:href="#DejaVuSans-58"/>
     <use x="3026.791016" xlink:href="#DejaVuSans-48"/>
     <use x="3090.414062" xlink:href="#DejaVuSans-53"/>
    </g>
   </g>
   <g id="legend_1">
    <g id="patch_7">
     <path d="M 1304.036719 296.3 
L 1407.9 296.3 
Q 1410.9 296.3 1410.9 293.3 
L 1410.9 272.782813 
Q 1410.9 269.782813 1407.9 269.782813 
L 1304.036719 269.782813 
Q 1301.036719 269.782813 1301.036719 272.782813 
L 1301.036719 293.3 
Q 1301.036719 296.3 1304.036719 296.3 
z
" style="fill:#ffffff;opacity:0.8;stroke:#cccccc;stroke-linejoin:miter;"/>
    </g>
    <g id="line2d_13">
     <path d="M 1307.036719 281.930469 
L 1337.036719 281.930469 
" style="fill:none;stroke:#1f77b4;stroke-linecap:square;stroke-width:1.5;"/>
    </g>
    <g id="line2d_14"/>
    <g id="text_15">
     <!-- Reward -->
     <g transform="translate(1349.036719 287.180469)scale(0.15 -0.15)">
      <use xlink:href="#DejaVuSans-82"/>
      <use x="64.982422" xlink:href="#DejaVuSans-101"/>
      <use x="126.505859" xlink:href="#DejaVuSans-119"/>
      <use x="208.292969" xlink:href="#DejaVuSans-97"/>
      <use x="269.572266" xlink:href="#DejaVuSans-114"/>
      <use x="308.935547" xlink:href="#DejaVuSans-100"/>
     </g>
    </g>
   </g>
  </g>
  <g id="axes_2">
   <g id="patch_8">
    <path d="M 87.517266 656.6 
L 1418.4 656.6 
L 1418.4 399.4 
L 87.517266 399.4 
z
" style="fill:#ffffff;"/>
   </g>
   <g id="matplotlib.axis_3">
    <g id="xtick_7">
     <g id="line2d_15">
      <g>
       <use style="stroke:#000000;stroke-width:0.8;" x="203.246199" xlink:href="#md96eb17ba9" y="656.6"/>
      </g>
     </g>
     <g id="text_16">
      <!-- 1e+04 -->
      <g transform="translate(169.625887 678.796875)scale(0.2 -0.2)">
       <use xlink:href="#DejaVuSans-49"/>
       <use x="63.623047" xlink:href="#DejaVuSans-101"/>
       <use x="125.146484" xlink:href="#DejaVuSans-43"/>
       <use x="208.935547" xlink:href="#DejaVuSans-48"/>
       <use x="272.558594" xlink:href="#DejaVuSans-52"/>
      </g>
     </g>
    </g>
    <g id="xtick_8">
     <g id="line2d_16">
      <g>
       <use style="stroke:#000000;stroke-width:0.8;" x="318.975132" xlink:href="#md96eb17ba9" y="656.6"/>
      </g>
     </g>
     <g id="text_17">
      <!-- 2e+04 -->
      <g transform="translate(285.35482 678.796875)scale(0.2 -0.2)">
       <use xlink:href="#DejaVuSans-50"/>
       <use x="63.623047" xlink:href="#DejaVuSans-101"/>
       <use x="125.146484" xlink:href="#DejaVuSans-43"/>
       <use x="208.935547" xlink:href="#DejaVuSans-48"/>
       <use x="272.558594" xlink:href="#DejaVuSans-52"/>
      </g>
     </g>
    </g>
    <g id="xtick_9">
     <g id="line2d_17">
      <g>
       <use style="stroke:#000000;stroke-width:0.8;" x="550.432999" xlink:href="#md96eb17ba9" y="656.6"/>
      </g>
     </g>
     <g id="text_18">
      <!-- 4e+04 -->
      <g transform="translate(516.812687 678.796875)scale(0.2 -0.2)">
       <use xlink:href="#DejaVuSans-52"/>
       <use x="63.623047" xlink:href="#DejaVuSans-101"/>
       <use x="125.146484" xlink:href="#DejaVuSans-43"/>
       <use x="208.935547" xlink:href="#DejaVuSans-48"/>
       <use x="272.558594" xlink:href="#DejaVuSans-52"/>
      </g>
     </g>
    </g>
    <g id="xtick_10">
     <g id="line2d_18">
      <g>
       <use style="stroke:#000000;stroke-width:0.8;" x="781.890866" xlink:href="#md96eb17ba9" y="656.6"/>
      </g>
     </g>
     <g id="text_19">
      <!-- 6e+04 -->
      <g transform="translate(748.270554 678.796875)scale(0.2 -0.2)">
       <use xlink:href="#DejaVuSans-54"/>
       <use x="63.623047" xlink:href="#DejaVuSans-101"/>
       <use x="125.146484" xlink:href="#DejaVuSans-43"/>
       <use x="208.935547" xlink:href="#DejaVuSans-48"/>
       <use x="272.558594" xlink:href="#DejaVuSans-52"/>
      </g>
     </g>
    </g>
    <g id="xtick_11">
     <g id="line2d_19">
      <g>
       <use style="stroke:#000000;stroke-width:0.8;" x="1013.348733" xlink:href="#md96eb17ba9" y="656.6"/>
      </g>
     </g>
     <g id="text_20">
      <!-- 8e+04 -->
      <g transform="translate(979.728421 678.796875)scale(0.2 -0.2)">
       <use xlink:href="#DejaVuSans-56"/>
       <use x="63.623047" xlink:href="#DejaVuSans-101"/>
       <use x="125.146484" xlink:href="#DejaVuSans-43"/>
       <use x="208.935547" xlink:href="#DejaVuSans-48"/>
       <use x="272.558594" xlink:href="#DejaVuSans-52"/>
      </g>
     </g>
    </g>
    <g id="xtick_12">
     <g id="line2d_20">
      <g>
       <use style="stroke:#000000;stroke-width:0.8;" x="1244.8066" xlink:href="#md96eb17ba9" y="656.6"/>
      </g>
     </g>
     <g id="text_21">
      <!-- 1e+05 -->
      <g transform="translate(1211.186287 678.796875)scale(0.2 -0.2)">
       <use xlink:href="#DejaVuSans-49"/>
       <use x="63.623047" xlink:href="#DejaVuSans-101"/>
       <use x="125.146484" xlink:href="#DejaVuSans-43"/>
       <use x="208.935547" xlink:href="#DejaVuSans-48"/>
       <use x="272.558594" xlink:href="#DejaVuSans-53"/>
      </g>
     </g>
    </g>
    <g id="text_22">
     <!-- Timestep -->
     <g transform="translate(706.860195 702.153125)scale(0.2 -0.2)">
      <use xlink:href="#DejaVuSans-84"/>
      <use x="57.958984" xlink:href="#DejaVuSans-105"/>
      <use x="85.742188" xlink:href="#DejaVuSans-109"/>
      <use x="183.154297" xlink:href="#DejaVuSans-101"/>
      <use x="244.677734" xlink:href="#DejaVuSans-115"/>
      <use x="296.777344" xlink:href="#DejaVuSans-116"/>
      <use x="335.986328" xlink:href="#DejaVuSans-101"/>
      <use x="397.509766" xlink:href="#DejaVuSans-112"/>
     </g>
    </g>
   </g>
   <g id="matplotlib.axis_4">
    <g id="ytick_6">
     <g id="line2d_21">
      <defs>
       <path d="M 0 0 
L -3.5 0 
" id="m21be023605" style="stroke:#ff0000;stroke-width:0.8;"/>
      </defs>
      <g>
       <use style="fill:#ff0000;stroke:#ff0000;stroke-width:0.8;" x="87.517266" xlink:href="#m21be023605" y="573.510253"/>
      </g>
     </g>
     <g id="text_23">
      <!-- $\mathdefault{10^{-3}}$ -->
      <defs>
       <path d="M 10.59375 35.5 
L 73.1875 35.5 
L 73.1875 27.203125 
L 10.59375 27.203125 
z
" id="DejaVuSans-8722"/>
      </defs>
      <g style="fill:#ff0000;" transform="translate(45.267266 579.209081)scale(0.15 -0.15)">
       <use transform="translate(0 0.765625)" xlink:href="#DejaVuSans-49"/>
       <use transform="translate(63.623047 0.765625)" xlink:href="#DejaVuSans-48"/>
       <use transform="translate(128.203125 39.046875)scale(0.7)" xlink:href="#DejaVuSans-8722"/>
       <use transform="translate(186.855469 39.046875)scale(0.7)" xlink:href="#DejaVuSans-51"/>
      </g>
     </g>
    </g>
    <g id="ytick_7">
     <g id="line2d_22">
      <g>
       <use style="fill:#ff0000;stroke:#ff0000;stroke-width:0.8;" x="87.517266" xlink:href="#m21be023605" y="481.784519"/>
      </g>
     </g>
     <g id="text_24">
      <!-- $\mathdefault{10^{-2}}$ -->
      <g style="fill:#ff0000;" transform="translate(45.267266 487.483347)scale(0.15 -0.15)">
       <use transform="translate(0 0.765625)" xlink:href="#DejaVuSans-49"/>
       <use transform="translate(63.623047 0.765625)" xlink:href="#DejaVuSans-48"/>
       <use transform="translate(128.203125 39.046875)scale(0.7)" xlink:href="#DejaVuSans-8722"/>
       <use transform="translate(186.855469 39.046875)scale(0.7)" xlink:href="#DejaVuSans-50"/>
      </g>
     </g>
    </g>
    <g id="ytick_8">
     <g id="line2d_23">
      <defs>
       <path d="M 0 0 
L -2 0 
" id="m4c6e5ff80e" style="stroke:#000000;stroke-width:0.6;"/>
      </defs>
      <g>
       <use style="stroke:#000000;stroke-width:0.6;" x="87.517266" xlink:href="#m4c6e5ff80e" y="637.623789"/>
      </g>
     </g>
    </g>
    <g id="ytick_9">
     <g id="line2d_24">
      <g>
       <use style="stroke:#000000;stroke-width:0.6;" x="87.517266" xlink:href="#m4c6e5ff80e" y="621.471689"/>
      </g>
     </g>
    </g>
    <g id="ytick_10">
     <g id="line2d_25">
      <g>
       <use style="stroke:#000000;stroke-width:0.6;" x="87.517266" xlink:href="#m4c6e5ff80e" y="610.011592"/>
      </g>
     </g>
    </g>
    <g id="ytick_11">
     <g id="line2d_26">
      <g>
       <use style="stroke:#000000;stroke-width:0.6;" x="87.517266" xlink:href="#m4c6e5ff80e" y="601.12245"/>
      </g>
     </g>
    </g>
    <g id="ytick_12">
     <g id="line2d_27">
      <g>
       <use style="stroke:#000000;stroke-width:0.6;" x="87.517266" xlink:href="#m4c6e5ff80e" y="593.859492"/>
      </g>
     </g>
    </g>
    <g id="ytick_13">
     <g id="line2d_28">
      <g>
       <use style="stroke:#000000;stroke-width:0.6;" x="87.517266" xlink:href="#m4c6e5ff80e" y="587.718749"/>
      </g>
     </g>
    </g>
    <g id="ytick_14">
     <g id="line2d_29">
      <g>
       <use style="stroke:#000000;stroke-width:0.6;" x="87.517266" xlink:href="#m4c6e5ff80e" y="582.399395"/>
      </g>
     </g>
    </g>
    <g id="ytick_15">
     <g id="line2d_30">
      <g>
       <use style="stroke:#000000;stroke-width:0.6;" x="87.517266" xlink:href="#m4c6e5ff80e" y="577.707392"/>
      </g>
     </g>
    </g>
    <g id="ytick_16">
     <g id="line2d_31">
      <g>
       <use style="stroke:#000000;stroke-width:0.6;" x="87.517266" xlink:href="#m4c6e5ff80e" y="545.898056"/>
      </g>
     </g>
    </g>
    <g id="ytick_17">
     <g id="line2d_32">
      <g>
       <use style="stroke:#000000;stroke-width:0.6;" x="87.517266" xlink:href="#m4c6e5ff80e" y="529.745956"/>
      </g>
     </g>
    </g>
    <g id="ytick_18">
     <g id="line2d_33">
      <g>
       <use style="stroke:#000000;stroke-width:0.6;" x="87.517266" xlink:href="#m4c6e5ff80e" y="518.285858"/>
      </g>
     </g>
    </g>
    <g id="ytick_19">
     <g id="line2d_34">
      <g>
       <use style="stroke:#000000;stroke-width:0.6;" x="87.517266" xlink:href="#m4c6e5ff80e" y="509.396716"/>
      </g>
     </g>
    </g>
    <g id="ytick_20">
     <g id="line2d_35">
      <g>
       <use style="stroke:#000000;stroke-width:0.6;" x="87.517266" xlink:href="#m4c6e5ff80e" y="502.133758"/>
      </g>
     </g>
    </g>
    <g id="ytick_21">
     <g id="line2d_36">
      <g>
       <use style="stroke:#000000;stroke-width:0.6;" x="87.517266" xlink:href="#m4c6e5ff80e" y="495.993015"/>
      </g>
     </g>
    </g>
    <g id="ytick_22">
     <g id="line2d_37">
      <g>
       <use style="stroke:#000000;stroke-width:0.6;" x="87.517266" xlink:href="#m4c6e5ff80e" y="490.673661"/>
      </g>
     </g>
    </g>
    <g id="ytick_23">
     <g id="line2d_38">
      <g>
       <use style="stroke:#000000;stroke-width:0.6;" x="87.517266" xlink:href="#m4c6e5ff80e" y="485.981658"/>
      </g>
     </g>
    </g>
    <g id="ytick_24">
     <g id="line2d_39">
      <g>
       <use style="stroke:#000000;stroke-width:0.6;" x="87.517266" xlink:href="#m4c6e5ff80e" y="454.172322"/>
      </g>
     </g>
    </g>
    <g id="ytick_25">
     <g id="line2d_40">
      <g>
       <use style="stroke:#000000;stroke-width:0.6;" x="87.517266" xlink:href="#m4c6e5ff80e" y="438.020222"/>
      </g>
     </g>
    </g>
    <g id="ytick_26">
     <g id="line2d_41">
      <g>
       <use style="stroke:#000000;stroke-width:0.6;" x="87.517266" xlink:href="#m4c6e5ff80e" y="426.560124"/>
      </g>
     </g>
    </g>
    <g id="ytick_27">
     <g id="line2d_42">
      <g>
       <use style="stroke:#000000;stroke-width:0.6;" x="87.517266" xlink:href="#m4c6e5ff80e" y="417.670982"/>
      </g>
     </g>
    </g>
    <g id="ytick_28">
     <g id="line2d_43">
      <g>
       <use style="stroke:#000000;stroke-width:0.6;" x="87.517266" xlink:href="#m4c6e5ff80e" y="410.408024"/>
      </g>
     </g>
    </g>
    <g id="ytick_29">
     <g id="line2d_44">
      <g>
       <use style="stroke:#000000;stroke-width:0.6;" x="87.517266" xlink:href="#m4c6e5ff80e" y="404.267281"/>
      </g>
     </g>
    </g>
    <g id="text_25">
     <!-- Avg .Temporal Difference -->
     <defs>
      <path d="M 30.609375 48.390625 
Q 23.390625 48.390625 19.1875 42.75 
Q 14.984375 37.109375 14.984375 27.296875 
Q 14.984375 17.484375 19.15625 11.84375 
Q 23.34375 6.203125 30.609375 6.203125 
Q 37.796875 6.203125 41.984375 11.859375 
Q 46.1875 17.53125 46.1875 27.296875 
Q 46.1875 37.015625 41.984375 42.703125 
Q 37.796875 48.390625 30.609375 48.390625 
z
M 30.609375 56 
Q 42.328125 56 49.015625 48.375 
Q 55.71875 40.765625 55.71875 27.296875 
Q 55.71875 13.875 49.015625 6.21875 
Q 42.328125 -1.421875 30.609375 -1.421875 
Q 18.84375 -1.421875 12.171875 6.21875 
Q 5.515625 13.875 5.515625 27.296875 
Q 5.515625 40.765625 12.171875 48.375 
Q 18.84375 56 30.609375 56 
z
" id="DejaVuSans-111"/>
      <path d="M 19.671875 64.796875 
L 19.671875 8.109375 
L 31.59375 8.109375 
Q 46.6875 8.109375 53.6875 14.9375 
Q 60.6875 21.78125 60.6875 36.53125 
Q 60.6875 51.171875 53.6875 57.984375 
Q 46.6875 64.796875 31.59375 64.796875 
z
M 9.8125 72.90625 
L 30.078125 72.90625 
Q 51.265625 72.90625 61.171875 64.09375 
Q 71.09375 55.28125 71.09375 36.53125 
Q 71.09375 17.671875 61.125 8.828125 
Q 51.171875 0 30.078125 0 
L 9.8125 0 
z
" id="DejaVuSans-68"/>
      <path d="M 37.109375 75.984375 
L 37.109375 68.5 
L 28.515625 68.5 
Q 23.6875 68.5 21.796875 66.546875 
Q 19.921875 64.59375 19.921875 59.515625 
L 19.921875 54.6875 
L 34.71875 54.6875 
L 34.71875 47.703125 
L 19.921875 47.703125 
L 19.921875 0 
L 10.890625 0 
L 10.890625 47.703125 
L 2.296875 47.703125 
L 2.296875 54.6875 
L 10.890625 54.6875 
L 10.890625 58.5 
Q 10.890625 67.625 15.140625 71.796875 
Q 19.390625 75.984375 28.609375 75.984375 
z
" id="DejaVuSans-102"/>
      <path d="M 48.78125 52.59375 
L 48.78125 44.1875 
Q 44.96875 46.296875 41.140625 47.34375 
Q 37.3125 48.390625 33.40625 48.390625 
Q 24.65625 48.390625 19.8125 42.84375 
Q 14.984375 37.3125 14.984375 27.296875 
Q 14.984375 17.28125 19.8125 11.734375 
Q 24.65625 6.203125 33.40625 6.203125 
Q 37.3125 6.203125 41.140625 7.25 
Q 44.96875 8.296875 48.78125 10.40625 
L 48.78125 2.09375 
Q 45.015625 0.34375 40.984375 -0.53125 
Q 36.96875 -1.421875 32.421875 -1.421875 
Q 20.0625 -1.421875 12.78125 6.34375 
Q 5.515625 14.109375 5.515625 27.296875 
Q 5.515625 40.671875 12.859375 48.328125 
Q 20.21875 56 33.015625 56 
Q 37.15625 56 41.109375 55.140625 
Q 45.0625 54.296875 48.78125 52.59375 
z
" id="DejaVuSans-99"/>
     </defs>
     <g style="fill:#ff0000;" transform="translate(37.107891 653.540625)rotate(-90)scale(0.2 -0.2)">
      <use xlink:href="#DejaVuSans-65"/>
      <use x="62.533203" xlink:href="#DejaVuSans-118"/>
      <use x="121.712891" xlink:href="#DejaVuSans-103"/>
      <use x="185.189453" xlink:href="#DejaVuSans-32"/>
      <use x="216.976562" xlink:href="#DejaVuSans-46"/>
      <use x="248.763672" xlink:href="#DejaVuSans-84"/>
      <use x="292.847656" xlink:href="#DejaVuSans-101"/>
      <use x="354.371094" xlink:href="#DejaVuSans-109"/>
      <use x="451.783203" xlink:href="#DejaVuSans-112"/>
      <use x="515.259766" xlink:href="#DejaVuSans-111"/>
      <use x="576.441406" xlink:href="#DejaVuSans-114"/>
      <use x="617.554688" xlink:href="#DejaVuSans-97"/>
      <use x="678.833984" xlink:href="#DejaVuSans-108"/>
      <use x="706.617188" xlink:href="#DejaVuSans-32"/>
      <use x="738.404297" xlink:href="#DejaVuSans-68"/>
      <use x="815.40625" xlink:href="#DejaVuSans-105"/>
      <use x="843.189453" xlink:href="#DejaVuSans-102"/>
      <use x="878.394531" xlink:href="#DejaVuSans-102"/>
      <use x="913.599609" xlink:href="#DejaVuSans-101"/>
      <use x="975.123047" xlink:href="#DejaVuSans-114"/>
      <use x="1013.986328" xlink:href="#DejaVuSans-101"/>
      <use x="1075.509766" xlink:href="#DejaVuSans-110"/>
      <use x="1138.888672" xlink:href="#DejaVuSans-99"/>
      <use x="1193.869141" xlink:href="#DejaVuSans-101"/>
     </g>
    </g>
   </g>
   <g id="line2d_45">
    <path clip-path="url(#p652db630ee)" d="M 87.517266 411.090909 
L 88.674555 420.009617 
L 89.831844 431.519039 
L 90.989134 435.028052 
L 92.146423 436.369084 
L 93.303712 440.693934 
L 94.461002 441.476596 
L 95.618291 443.227044 
L 96.77558 444.496488 
L 97.93287 446.458341 
L 99.090159 447.655427 
L 100.247448 445.673868 
L 101.404738 446.390556 
L 102.562027 449.024094 
L 103.719316 449.839281 
L 104.876606 454.464203 
L 106.033895 455.229142 
L 107.191184 460.048224 
L 108.348474 459.214874 
L 109.505763 461.485948 
L 110.663052 465.274227 
L 111.820342 452.114954 
L 114.13492 457.260057 
L 115.29221 459.424066 
L 116.449499 457.718074 
L 118.764078 462.688587 
L 119.921367 465.934366 
L 121.078656 464.420029 
L 122.235946 471.009354 
L 123.393235 458.78644 
L 124.550524 464.082026 
L 125.707814 464.258108 
L 126.865103 462.460522 
L 128.022392 467.051881 
L 129.179682 469.226668 
L 130.336971 468.688415 
L 131.49426 469.142053 
L 132.65155 471.608664 
L 133.808839 471.970036 
L 134.966128 467.118872 
L 136.123418 463.907685 
L 137.280707 475.601735 
L 138.437996 472.353645 
L 139.595286 475.165508 
L 140.752575 479.112705 
L 141.909864 480.556546 
L 143.067154 481.106192 
L 144.224443 480.925759 
L 145.381732 482.474119 
L 146.539022 479.453251 
L 147.696311 472.641384 
L 148.8536 474.109539 
L 150.01089 476.150903 
L 151.168179 476.37324 
L 153.482758 481.931408 
L 154.640047 480.894985 
L 155.797336 481.161991 
L 156.954626 481.902875 
L 158.111915 480.705964 
L 159.269204 477.46258 
L 160.426494 480.021786 
L 161.583783 481.223985 
L 162.741072 479.513541 
L 163.898362 480.590293 
L 165.055651 482.056226 
L 166.21294 484.697569 
L 167.37023 482.916225 
L 168.527519 483.410635 
L 169.684808 483.668155 
L 170.842098 481.526869 
L 171.999387 481.64049 
L 173.156676 482.587637 
L 174.313966 483.852402 
L 175.471255 485.960387 
L 176.628544 486.812207 
L 177.785834 486.6604 
L 178.943123 486.161648 
L 180.100412 486.230352 
L 181.257702 486.878093 
L 183.57228 490.571968 
L 184.72957 489.069197 
L 185.886859 489.212169 
L 187.044148 490.26664 
L 188.201438 490.012836 
L 189.358727 489.102718 
L 191.673306 491.301685 
L 192.830595 488.928418 
L 193.987884 486.896744 
L 195.145174 486.897043 
L 196.302463 490.09184 
L 197.459752 491.473199 
L 198.617042 488.205351 
L 199.774331 491.019326 
L 200.93162 495.850796 
L 202.08891 497.144241 
L 203.246199 497.091472 
L 204.403488 495.237162 
L 205.560778 495.060976 
L 206.718067 495.403224 
L 207.875356 493.553254 
L 209.032646 495.944096 
L 210.189935 496.358694 
L 211.347224 495.883081 
L 212.504514 495.798246 
L 213.661803 497.567695 
L 214.819092 501.081952 
L 215.976382 497.324527 
L 217.133671 495.488664 
L 218.29096 495.898383 
L 219.44825 491.50463 
L 220.605539 494.734709 
L 221.762828 495.920738 
L 222.920118 494.258532 
L 224.077407 497.392223 
L 225.234696 492.446522 
L 226.391986 496.044636 
L 227.549275 494.644303 
L 228.706564 492.281907 
L 229.863854 493.809534 
L 231.021143 494.349428 
L 232.178432 494.360674 
L 233.335722 499.346284 
L 234.493011 499.221273 
L 235.6503 496.828951 
L 236.80759 499.288891 
L 237.964879 496.484893 
L 239.122168 495.667953 
L 240.279458 495.903868 
L 241.436747 498.840161 
L 242.594036 498.081813 
L 243.751326 498.384551 
L 244.908615 503.183419 
L 246.065904 499.544734 
L 247.223194 497.323908 
L 248.380483 501.755154 
L 249.537772 501.536835 
L 251.852351 497.016966 
L 253.00964 501.743276 
L 255.324219 496.273116 
L 256.481508 501.938346 
L 257.638798 499.535033 
L 258.796087 502.545502 
L 259.953376 502.139434 
L 261.110666 501.886685 
L 262.267955 496.520414 
L 263.425244 492.340934 
L 264.582534 493.144143 
L 265.739823 495.110811 
L 266.897112 494.877852 
L 268.054402 497.119449 
L 269.211691 497.349996 
L 270.36898 496.418861 
L 271.52627 496.864171 
L 272.683559 496.446824 
L 273.840848 497.773915 
L 274.998138 501.927129 
L 276.155427 501.741014 
L 277.312716 503.933969 
L 278.470006 500.7593 
L 279.627295 498.42488 
L 280.784584 502.865446 
L 281.941874 506.500528 
L 283.099163 504.768578 
L 284.256452 504.120513 
L 285.413742 503.193513 
L 286.571031 500.323893 
L 288.88561 505.700829 
L 290.042899 504.728097 
L 291.200188 504.51604 
L 292.357478 504.019744 
L 293.514767 503.943631 
L 294.672056 506.668361 
L 295.829346 505.860882 
L 296.986635 503.022669 
L 298.143924 502.273604 
L 299.301214 501.900492 
L 300.458503 503.175255 
L 301.615792 506.341789 
L 302.773082 505.40001 
L 303.930371 505.306012 
L 305.08766 505.394758 
L 306.24495 506.585091 
L 307.402239 509.94211 
L 308.559528 502.89183 
L 309.716818 502.218507 
L 310.874107 502.166256 
L 312.031396 503.331221 
L 313.188686 507.884952 
L 314.345975 508.216358 
L 315.503264 509.3826 
L 316.660554 509.301105 
L 317.817843 507.551362 
L 318.975132 507.620976 
L 320.132422 493.936852 
L 321.289711 490.969641 
L 322.447 495.06162 
L 323.60429 497.355177 
L 324.761579 495.704703 
L 325.918868 494.931534 
L 327.076158 496.026391 
L 329.390736 501.950288 
L 330.548026 498.533138 
L 331.705315 497.988688 
L 332.862604 496.435163 
L 334.019894 498.753589 
L 335.177183 499.619315 
L 336.334472 497.216711 
L 337.491762 502.934822 
L 338.649051 500.133644 
L 339.80634 496.348176 
L 340.96363 504.368629 
L 342.120919 502.295348 
L 343.278208 496.211009 
L 344.435498 498.489276 
L 345.592787 500.038484 
L 346.750076 498.733139 
L 347.907366 502.983304 
L 349.064655 497.580465 
L 350.221944 500.141179 
L 351.379234 497.943671 
L 352.536523 498.049769 
L 353.693813 504.024796 
L 354.851102 503.679436 
L 356.008391 506.591534 
L 357.165681 505.815365 
L 358.32297 507.108079 
L 359.480259 509.825354 
L 360.637549 507.241193 
L 361.794838 505.24428 
L 362.952127 505.003976 
L 364.109417 504.622862 
L 365.266706 510.98912 
L 367.581285 503.516789 
L 368.738574 509.532597 
L 369.895863 513.028314 
L 371.053153 508.677018 
L 372.210442 511.450344 
L 373.367731 511.896541 
L 374.525021 510.088001 
L 375.68231 506.551522 
L 376.839599 512.038407 
L 377.996889 512.841223 
L 379.154178 509.991414 
L 380.311467 511.067648 
L 381.468757 510.346401 
L 383.783335 519.541565 
L 384.940625 517.300161 
L 386.097914 512.727384 
L 388.412493 516.355234 
L 389.569782 516.809041 
L 390.727071 515.782826 
L 391.884361 515.521675 
L 393.04165 511.152017 
L 394.198939 511.662097 
L 395.356229 509.575398 
L 396.513518 518.862963 
L 397.670807 517.082086 
L 398.828097 514.601867 
L 399.985386 515.392298 
L 401.142675 515.607685 
L 402.299965 513.160021 
L 403.457254 513.475905 
L 404.614543 517.278183 
L 405.771833 518.535566 
L 406.929122 519.208694 
L 408.086411 516.371614 
L 409.243701 516.215632 
L 410.40099 518.861867 
L 411.558279 519.81656 
L 413.872858 515.484673 
L 415.030147 517.69436 
L 416.187437 518.23221 
L 417.344726 517.729124 
L 418.502015 522.693592 
L 419.659305 522.870381 
L 420.816594 520.859062 
L 421.973883 521.565435 
L 423.131173 522.451603 
L 424.288462 523.121886 
L 425.445751 523.488077 
L 426.603041 527.155085 
L 428.917619 526.21779 
L 430.074909 526.245124 
L 431.232198 522.942259 
L 432.389487 524.064267 
L 433.546777 528.79949 
L 434.704066 531.33949 
L 435.861355 525.193066 
L 437.018645 528.753849 
L 439.333223 521.262658 
L 440.490513 522.345888 
L 441.647802 527.184792 
L 442.805091 528.763687 
L 443.962381 524.016979 
L 445.11967 528.257554 
L 446.276959 525.72523 
L 447.434249 512.470772 
L 448.591538 504.037459 
L 449.748827 524.03821 
L 450.906117 527.095374 
L 452.063406 519.968079 
L 453.220695 525.649645 
L 454.377985 523.02592 
L 455.535274 527.533842 
L 456.692563 520.795162 
L 457.849853 528.018341 
L 460.164431 517.976771 
L 461.321721 520.583211 
L 462.47901 527.176855 
L 463.636299 531.560104 
L 464.793589 529.187945 
L 465.950878 531.550284 
L 467.108167 527.720449 
L 468.265457 533.505392 
L 469.422746 522.644073 
L 471.737325 528.003087 
L 472.894614 526.45596 
L 474.051903 528.813727 
L 475.209193 533.165142 
L 476.366482 530.53308 
L 477.523771 521.978471 
L 478.681061 531.061465 
L 479.83835 527.029895 
L 480.995639 530.65242 
L 482.152929 519.055605 
L 483.310218 529.381767 
L 484.467507 528.442258 
L 485.624797 533.068382 
L 487.939375 525.088703 
L 489.096665 528.389752 
L 490.253954 523.591205 
L 491.411243 530.043921 
L 492.568533 529.467838 
L 493.725822 527.919572 
L 494.883111 525.814964 
L 496.040401 528.337975 
L 497.19769 533.714461 
L 498.354979 527.798093 
L 499.512269 526.584845 
L 500.669558 527.692277 
L 501.826847 529.409405 
L 502.984137 532.812164 
L 504.141426 530.605842 
L 505.298715 526.099963 
L 506.456005 522.716947 
L 507.613294 523.509944 
L 508.770583 528.001054 
L 509.927873 528.582306 
L 511.085162 526.156521 
L 512.242451 531.359202 
L 513.399741 532.688708 
L 514.55703 528.996179 
L 516.871609 523.33231 
L 518.028898 523.989937 
L 519.186187 527.350144 
L 520.343477 526.797471 
L 521.500766 525.992741 
L 522.658055 525.968659 
L 523.815345 529.291669 
L 524.972634 530.299753 
L 526.129923 527.916265 
L 527.287213 530.651634 
L 528.444502 531.371448 
L 529.601791 528.684112 
L 530.759081 530.276731 
L 531.91637 532.297967 
L 533.073659 531.198568 
L 534.230949 532.225959 
L 535.388238 537.535154 
L 536.545527 533.610323 
L 537.702817 533.017802 
L 538.860106 533.68655 
L 540.017395 529.681732 
L 541.174685 532.593359 
L 542.331974 534.507192 
L 543.489263 530.815846 
L 544.646553 530.991161 
L 545.803842 528.107979 
L 546.961131 534.760526 
L 548.118421 534.758333 
L 549.27571 536.27742 
L 550.432999 535.459972 
L 551.590289 533.322811 
L 552.747578 534.695822 
L 553.904867 518.739115 
L 555.062157 531.042484 
L 556.219446 539.110281 
L 557.376735 538.494376 
L 558.534025 536.432581 
L 559.691314 532.903839 
L 560.848603 540.767582 
L 562.005893 531.386333 
L 563.163182 536.719786 
L 564.320471 539.943448 
L 565.477761 538.812119 
L 566.63505 538.254782 
L 567.792339 536.455716 
L 568.949629 537.928112 
L 570.106918 531.207529 
L 571.264207 536.435906 
L 572.421497 535.155673 
L 573.578786 537.534037 
L 574.736075 538.548655 
L 575.893365 524.897844 
L 577.050654 530.002522 
L 578.207943 538.875658 
L 579.365233 537.282097 
L 580.522522 530.078867 
L 581.679811 527.188095 
L 582.837101 537.668797 
L 583.99439 541.969931 
L 585.151679 542.353785 
L 586.308969 537.753422 
L 587.466258 530.576767 
L 588.623547 521.102885 
L 589.780837 533.725083 
L 590.938126 533.287035 
L 592.095415 533.353211 
L 593.252705 532.761349 
L 594.409994 525.820476 
L 595.567283 534.577008 
L 596.724573 532.716815 
L 597.881862 531.147256 
L 599.039151 535.743219 
L 600.196441 539.059314 
L 601.35373 540.698753 
L 602.511019 538.041095 
L 604.825598 540.524135 
L 605.982887 540.732911 
L 607.140177 542.163519 
L 608.297466 542.378052 
L 609.454755 537.900323 
L 610.612045 537.150366 
L 611.769334 542.347271 
L 612.926623 541.171038 
L 614.083913 535.946562 
L 617.555781 541.858945 
L 618.71307 540.827755 
L 619.870359 547.103655 
L 621.027649 539.527885 
L 622.184938 533.888664 
L 623.342227 539.17989 
L 624.499517 536.990695 
L 625.656806 535.381455 
L 626.814095 538.46759 
L 627.971385 540.349489 
L 630.285963 532.031983 
L 631.443253 537.034132 
L 632.600542 537.190911 
L 633.757831 534.248967 
L 634.915121 539.320617 
L 636.07241 539.448909 
L 637.229699 541.970151 
L 638.386989 546.919748 
L 639.544278 550.224262 
L 640.701567 549.181098 
L 641.858857 545.389861 
L 643.016146 546.353281 
L 644.173435 538.110195 
L 645.330725 538.270479 
L 646.488014 543.398329 
L 647.645303 541.60821 
L 648.802593 548.014092 
L 649.959882 543.843728 
L 651.117171 542.769823 
L 652.274461 546.656726 
L 653.43175 544.846708 
L 654.589039 549.246477 
L 655.746329 543.054617 
L 656.903618 530.70641 
L 659.218197 543.961322 
L 660.375486 545.935396 
L 661.532775 539.833656 
L 662.690065 545.529238 
L 663.847354 548.595851 
L 665.004643 540.535926 
L 666.161933 541.091276 
L 667.319222 548.884851 
L 668.476511 548.660409 
L 669.633801 553.73085 
L 670.79109 549.980491 
L 671.948379 555.362468 
L 673.105669 559.031597 
L 674.262958 550.458824 
L 675.420247 554.987734 
L 676.577537 560.603044 
L 677.734826 560.478366 
L 678.892115 556.425402 
L 680.049405 561.76554 
L 682.363983 564.941246 
L 684.678562 571.524107 
L 685.835851 568.62771 
L 686.993141 571.542225 
L 688.15043 570.038007 
L 689.307719 571.158842 
L 690.465009 571.428875 
L 691.622298 568.9875 
L 692.779587 573.490845 
L 693.936877 574.272541 
L 695.094166 570.147713 
L 697.408745 569.802694 
L 698.566034 572.487824 
L 699.723323 573.094045 
L 700.880613 566.527353 
L 702.037902 573.533879 
L 703.195191 570.467404 
L 704.352481 572.376156 
L 705.50977 571.883677 
L 706.667059 574.406431 
L 707.824349 574.692868 
L 708.981638 572.407897 
L 710.138927 577.228085 
L 711.296217 575.092374 
L 712.453506 578.752822 
L 713.610795 573.908182 
L 714.768085 575.655579 
L 715.925374 571.725881 
L 717.082663 573.882281 
L 718.239953 572.977359 
L 719.397242 573.207938 
L 720.554531 570.278213 
L 721.711821 569.383068 
L 722.86911 573.662779 
L 724.026399 573.511145 
L 725.183689 574.774275 
L 726.340978 579.950906 
L 727.498267 580.324343 
L 728.655557 578.26441 
L 729.812846 578.127879 
L 730.970135 580.375724 
L 732.127425 581.142042 
L 733.284714 579.702611 
L 734.442003 578.609281 
L 735.599293 578.548911 
L 736.756582 579.66648 
L 737.913871 581.207223 
L 740.22845 579.483395 
L 741.385739 581.322489 
L 743.700318 577.759503 
L 744.857607 578.533538 
L 746.014897 581.944465 
L 747.172186 582.448481 
L 748.329475 578.980891 
L 749.486765 577.390008 
L 750.644054 580.176984 
L 751.801343 580.381688 
L 754.115922 581.538654 
L 755.273211 579.110414 
L 756.430501 578.319925 
L 757.58779 578.736996 
L 759.902369 581.864489 
L 761.059658 582.603814 
L 763.374237 583.584193 
L 764.531526 584.703402 
L 765.688815 586.427061 
L 766.846105 585.191708 
L 768.003394 583.516962 
L 769.160683 584.708662 
L 770.317973 584.783754 
L 771.475262 581.943005 
L 772.632551 584.037335 
L 773.789841 582.560437 
L 774.94713 583.624683 
L 777.261709 588.681335 
L 778.418998 586.818794 
L 779.576288 585.24997 
L 780.733577 585.007492 
L 781.890866 587.083664 
L 783.048156 585.688132 
L 784.205445 586.329605 
L 785.362734 587.399871 
L 786.520024 583.554849 
L 787.677313 584.554156 
L 788.834602 587.875995 
L 789.991892 587.752461 
L 791.149181 588.841294 
L 792.30647 584.376214 
L 793.46376 582.381318 
L 794.621049 586.860579 
L 795.778338 587.970686 
L 796.935628 588.378889 
L 798.092917 586.510467 
L 799.250206 585.469631 
L 800.407496 588.046268 
L 801.564785 586.404377 
L 802.722074 588.029568 
L 803.879364 584.295639 
L 805.036653 586.076245 
L 806.193942 587.10201 
L 807.351232 589.840579 
L 808.508521 587.031447 
L 809.66581 588.040261 
L 810.8231 586.377497 
L 811.980389 591.2858 
L 813.137678 589.918049 
L 814.294968 587.809892 
L 815.452257 591.166354 
L 816.609546 590.458759 
L 817.766836 593.589295 
L 818.924125 591.367217 
L 820.081414 591.639696 
L 821.238704 586.86876 
L 822.395993 594.628254 
L 823.553282 591.898871 
L 824.710572 592.313292 
L 825.867861 591.877455 
L 827.02515 592.950381 
L 828.18244 595.305598 
L 829.339729 594.55902 
L 830.497018 593.444676 
L 831.654308 592.523282 
L 832.811597 592.252963 
L 835.126176 592.345041 
L 836.283465 594.022722 
L 837.440754 594.453087 
L 838.598044 594.115208 
L 839.755333 593.627927 
L 840.912622 595.744393 
L 842.069912 595.243326 
L 843.227201 600.85651 
L 844.38449 602.459494 
L 845.54178 597.555952 
L 846.699069 596.631518 
L 847.856358 597.383622 
L 849.013648 598.546841 
L 851.328226 599.82026 
L 853.642805 595.901223 
L 854.800094 596.557614 
L 855.957384 596.04794 
L 858.271962 595.659094 
L 859.429252 594.941109 
L 861.74383 597.474607 
L 862.90112 596.197739 
L 864.058409 595.604329 
L 865.215698 598.248739 
L 866.372988 599.774265 
L 867.530277 600.110304 
L 868.687566 598.666539 
L 871.002145 600.161825 
L 872.159434 599.674841 
L 873.316724 600.269438 
L 874.474013 601.23892 
L 875.631302 599.043376 
L 876.788592 599.326369 
L 877.945881 601.074657 
L 879.10317 601.24206 
L 880.26046 598.880402 
L 881.417749 599.51741 
L 882.575038 598.457595 
L 883.732328 600.406133 
L 884.889617 600.300987 
L 886.046906 594.319403 
L 887.204196 596.51247 
L 888.361485 599.878063 
L 889.518774 595.209602 
L 890.676064 598.715104 
L 891.833353 599.90035 
L 892.990642 600.455149 
L 894.147932 600.222986 
L 895.305221 599.163772 
L 896.46251 600.777882 
L 897.6198 601.643438 
L 898.777089 601.880371 
L 899.934378 605.394705 
L 901.091668 598.984494 
L 902.248957 600.511391 
L 903.406246 604.103683 
L 904.563536 602.607173 
L 905.720825 600.730623 
L 906.878114 602.508628 
L 908.035404 604.740531 
L 909.192693 600.622961 
L 910.349982 601.018889 
L 912.664561 600.147632 
L 913.82185 605.168125 
L 914.97914 603.414459 
L 916.136429 604.432535 
L 917.293718 604.068195 
L 918.451008 602.574852 
L 919.608297 599.965411 
L 920.765586 601.73456 
L 921.922876 606.369092 
L 923.080165 606.140245 
L 924.237454 604.196777 
L 925.394744 609.801225 
L 926.552033 606.309077 
L 927.709322 606.057589 
L 928.866612 602.948588 
L 930.023901 602.746099 
L 931.18119 607.247066 
L 932.33848 604.362864 
L 933.495769 608.747528 
L 934.653058 614.044902 
L 935.810348 607.608286 
L 936.967637 613.04826 
L 938.124926 609.114893 
L 939.282216 607.584883 
L 940.439505 610.906128 
L 941.596794 609.095724 
L 942.754084 610.870482 
L 943.911373 609.653607 
L 945.068662 608.837712 
L 946.225952 607.802528 
L 947.383241 606.265768 
L 948.54053 608.05572 
L 949.69782 608.043064 
L 950.855109 607.116574 
L 952.012398 609.552441 
L 953.169688 608.454663 
L 954.326977 607.938203 
L 955.484266 609.90029 
L 956.641556 609.962877 
L 957.798845 607.182913 
L 958.956134 610.455975 
L 960.113424 608.134928 
L 961.270713 608.282273 
L 962.428002 608.61334 
L 963.585292 611.739767 
L 964.742581 610.335162 
L 965.89987 608.011043 
L 967.05716 608.785832 
L 968.214449 609.829479 
L 969.371738 607.490189 
L 970.529028 607.981026 
L 971.686317 608.702224 
L 972.843606 610.163795 
L 974.000896 610.772405 
L 975.158185 608.325804 
L 976.315474 609.608159 
L 977.472764 609.329409 
L 978.630053 607.056388 
L 979.787342 607.382318 
L 980.944632 607.884159 
L 982.101921 608.95844 
L 983.25921 610.658379 
L 984.4165 609.044596 
L 985.573789 609.381168 
L 986.731078 610.292443 
L 987.888368 610.033722 
L 990.202946 609.979647 
L 991.360236 609.756139 
L 992.517525 612.653044 
L 993.674814 613.46885 
L 994.832104 612.990541 
L 995.989393 613.731437 
L 997.146682 616.063764 
L 998.303972 617.24287 
L 999.461261 614.73321 
L 1000.61855 615.869347 
L 1001.77584 616.303996 
L 1004.090418 612.795228 
L 1005.247708 615.374286 
L 1006.404997 617.146048 
L 1007.562286 615.186763 
L 1008.719576 615.623318 
L 1009.876865 617.392105 
L 1011.034154 619.637452 
L 1012.191444 616.566039 
L 1013.348733 615.712345 
L 1014.506022 613.905586 
L 1015.663312 613.456972 
L 1016.820601 613.683732 
L 1017.97789 615.190298 
L 1019.13518 613.378602 
L 1020.292469 615.750702 
L 1021.449758 617.284782 
L 1022.607048 616.730902 
L 1023.764337 615.124717 
L 1024.921626 619.41978 
L 1026.078916 615.180767 
L 1028.393494 622.32883 
L 1029.550784 619.37473 
L 1030.708073 615.211206 
L 1031.865362 617.726462 
L 1033.022652 617.105606 
L 1034.179941 619.727421 
L 1035.33723 621.626639 
L 1036.49452 618.699638 
L 1037.651809 620.178823 
L 1038.809098 624.110392 
L 1039.966388 625.827289 
L 1041.123677 622.416904 
L 1042.280966 621.923716 
L 1043.438256 620.879256 
L 1044.595545 624.615535 
L 1045.752834 620.074164 
L 1046.910124 625.444055 
L 1048.067413 622.597191 
L 1049.224702 618.766548 
L 1050.381992 616.306225 
L 1051.539281 618.447473 
L 1052.69657 614.623101 
L 1053.85386 620.721921 
L 1055.011149 619.007271 
L 1056.168438 620.927476 
L 1057.325728 616.679808 
L 1058.483017 621.324539 
L 1059.640306 621.067941 
L 1060.797596 618.536586 
L 1061.954885 619.237184 
L 1063.112174 620.330642 
L 1064.269464 617.68729 
L 1065.426753 619.74356 
L 1066.584042 619.411047 
L 1067.741332 619.953682 
L 1068.898621 621.949203 
L 1070.05591 621.733421 
L 1071.2132 618.533068 
L 1072.370489 622.404312 
L 1073.527778 620.356165 
L 1074.685068 621.883557 
L 1075.842357 624.193706 
L 1076.999646 621.850989 
L 1078.156936 622.023176 
L 1079.314225 623.569985 
L 1080.471514 622.363894 
L 1081.628804 620.449481 
L 1082.786093 622.412466 
L 1083.943382 623.681468 
L 1085.100672 627.172522 
L 1086.257961 626.108771 
L 1088.57254 626.597043 
L 1089.729829 625.558912 
L 1090.887118 625.243489 
L 1092.044408 625.613618 
L 1093.201697 627.748409 
L 1094.358986 628.576629 
L 1095.516276 627.288656 
L 1096.673565 622.080907 
L 1097.830854 621.207706 
L 1098.988144 625.655414 
L 1100.145433 624.737938 
L 1102.460012 628.324736 
L 1104.77459 623.457508 
L 1105.93188 625.177873 
L 1107.089169 629.892134 
L 1108.246458 631.898244 
L 1109.403748 631.751085 
L 1110.561037 631.871728 
L 1111.718326 627.433786 
L 1112.875616 630.017782 
L 1114.032905 631.676482 
L 1115.190194 630.681885 
L 1116.347484 630.824953 
L 1117.504773 629.36917 
L 1118.662062 627.726966 
L 1119.819352 629.753731 
L 1120.976641 628.459884 
L 1122.13393 626.576967 
L 1123.29122 629.023613 
L 1124.448509 629.434894 
L 1125.605798 631.101804 
L 1126.763088 631.801835 
L 1127.920377 633.308171 
L 1129.077666 631.582052 
L 1130.234956 627.521547 
L 1131.392245 628.03775 
L 1132.549534 626.24462 
L 1133.706824 629.626525 
L 1134.864113 629.578084 
L 1136.021402 628.685893 
L 1137.178692 625.417394 
L 1138.335981 623.633181 
L 1139.49327 629.646202 
L 1140.65056 631.236108 
L 1141.807849 631.852844 
L 1142.965138 630.583158 
L 1144.122428 628.605974 
L 1145.279717 631.651934 
L 1146.437006 631.692648 
L 1147.594296 630.602299 
L 1148.751585 631.865697 
L 1149.908874 632.651912 
L 1151.066164 631.281886 
L 1152.223453 632.318318 
L 1153.380742 631.636269 
L 1154.538032 635.458937 
L 1155.695321 637.478387 
L 1156.85261 632.018664 
L 1158.0099 635.155596 
L 1159.167189 636.231186 
L 1160.324478 634.800387 
L 1161.481768 635.085857 
L 1162.639057 632.648393 
L 1163.796346 636.754209 
L 1164.953636 632.197092 
L 1166.110925 631.59262 
L 1167.268214 637.389319 
L 1168.425504 637.520771 
L 1169.582793 633.33539 
L 1170.740082 634.765348 
L 1171.897372 635.600438 
L 1173.054661 634.538243 
L 1174.21195 635.910714 
L 1175.36924 636.135378 
L 1176.526529 635.674902 
L 1177.683818 640.92808 
L 1178.841108 638.1144 
L 1179.998397 638.398514 
L 1181.155686 639.247019 
L 1182.312976 640.856111 
L 1183.470265 638.927057 
L 1184.627554 638.433863 
L 1185.784844 642.426599 
L 1186.942133 639.27267 
L 1188.099422 641.953302 
L 1189.256712 638.567296 
L 1190.414001 637.59366 
L 1191.57129 638.30618 
L 1192.72858 638.86625 
L 1193.885869 640.308726 
L 1195.043158 642.292078 
L 1196.200448 642.475173 
L 1197.357737 642.890897 
L 1198.515026 642.230627 
L 1199.672316 639.194775 
L 1200.829605 637.381542 
L 1201.986894 636.59753 
L 1203.144184 635.439863 
L 1204.301473 637.792133 
L 1205.458763 637.037007 
L 1206.616052 637.552321 
L 1207.773341 639.033551 
L 1208.930631 638.170658 
L 1210.08792 635.743595 
L 1214.717077 642.575598 
L 1215.874367 642.107156 
L 1217.031656 642.224965 
L 1218.188945 643.361754 
L 1219.346235 641.353346 
L 1220.503524 640.99411 
L 1221.660813 641.447455 
L 1222.818103 640.729307 
L 1223.975392 640.322257 
L 1225.132681 638.743791 
L 1226.289971 639.741657 
L 1227.44726 639.941592 
L 1228.604549 640.780044 
L 1229.761839 638.47142 
L 1230.919128 638.967665 
L 1232.076417 639.125912 
L 1233.233707 641.790943 
L 1234.390996 642.587793 
L 1235.548285 642.482595 
L 1236.705575 643.173348 
L 1237.862864 641.895214 
L 1240.177443 644.909091 
L 1241.334732 641.830311 
L 1242.492021 642.889637 
L 1243.649311 644.222661 
L 1243.649311 644.222661 
" style="fill:none;stroke:#ff0000;stroke-linecap:square;stroke-width:1.5;"/>
   </g>
   <g id="patch_9">
    <path d="M 87.517266 656.6 
L 87.517266 399.4 
" style="fill:none;stroke:#000000;stroke-linecap:square;stroke-linejoin:miter;stroke-width:0.8;"/>
   </g>
   <g id="patch_10">
    <path d="M 1418.4 656.6 
L 1418.4 399.4 
" style="fill:none;stroke:#000000;stroke-linecap:square;stroke-linejoin:miter;stroke-width:0.8;"/>
   </g>
   <g id="patch_11">
    <path d="M 87.517266 656.6 
L 1418.4 656.6 
" style="fill:none;stroke:#000000;stroke-linecap:square;stroke-linejoin:miter;stroke-width:0.8;"/>
   </g>
   <g id="patch_12">
    <path d="M 87.517266 399.4 
L 1418.4 399.4 
" style="fill:none;stroke:#000000;stroke-linecap:square;stroke-linejoin:miter;stroke-width:0.8;"/>
   </g>
   <g id="text_26">
    <!-- Loss vs Timestep -->
    <g transform="translate(650.338008 393.4)scale(0.24 -0.24)">
     <use xlink:href="#DejaVuSans-76"/>
     <use x="53.962891" xlink:href="#DejaVuSans-111"/>
     <use x="115.144531" xlink:href="#DejaVuSans-115"/>
     <use x="167.244141" xlink:href="#DejaVuSans-115"/>
     <use x="219.34375" xlink:href="#DejaVuSans-32"/>
     <use x="251.130859" xlink:href="#DejaVuSans-118"/>
     <use x="310.310547" xlink:href="#DejaVuSans-115"/>
     <use x="362.410156" xlink:href="#DejaVuSans-32"/>
     <use x="394.197266" xlink:href="#DejaVuSans-84"/>
     <use x="452.15625" xlink:href="#DejaVuSans-105"/>
     <use x="479.939453" xlink:href="#DejaVuSans-109"/>
     <use x="577.351562" xlink:href="#DejaVuSans-101"/>
     <use x="638.875" xlink:href="#DejaVuSans-115"/>
     <use x="690.974609" xlink:href="#DejaVuSans-116"/>
     <use x="730.183594" xlink:href="#DejaVuSans-101"/>
     <use x="791.707031" xlink:href="#DejaVuSans-112"/>
    </g>
   </g>
   <g id="legend_2">
    <g id="patch_13">
     <path d="M 1301.873438 649.1 
L 1407.9 649.1 
Q 1410.9 649.1 1410.9 646.1 
L 1410.9 625.582813 
Q 1410.9 622.582813 1407.9 622.582813 
L 1301.873438 622.582813 
Q 1298.873438 622.582813 1298.873438 625.582813 
L 1298.873438 646.1 
Q 1298.873438 649.1 1301.873438 649.1 
z
" style="fill:#ffffff;opacity:0.8;stroke:#cccccc;stroke-linejoin:miter;"/>
    </g>
    <g id="line2d_46">
     <path d="M 1304.873438 634.730469 
L 1334.873438 634.730469 
" style="fill:none;stroke:#ff0000;stroke-linecap:square;stroke-width:1.5;"/>
    </g>
    <g id="line2d_47"/>
    <g id="text_27">
     <!-- Avg. TD -->
     <g transform="translate(1346.873438 639.980469)scale(0.15 -0.15)">
      <use xlink:href="#DejaVuSans-65"/>
      <use x="62.533203" xlink:href="#DejaVuSans-118"/>
      <use x="121.712891" xlink:href="#DejaVuSans-103"/>
      <use x="185.189453" xlink:href="#DejaVuSans-46"/>
      <use x="216.976562" xlink:href="#DejaVuSans-32"/>
      <use x="248.763672" xlink:href="#DejaVuSans-84"/>
      <use x="309.847656" xlink:href="#DejaVuSans-68"/>
     </g>
    </g>
   </g>
  </g>
  <g id="axes_3">
   <g id="patch_14">
    <path d="M 87.517266 1009.4 
L 1418.4 1009.4 
L 1418.4 752.2 
L 87.517266 752.2 
z
" style="fill:#ffffff;"/>
   </g>
   <g id="matplotlib.axis_5">
    <g id="xtick_13">
     <g id="line2d_48">
      <g>
       <use style="stroke:#000000;stroke-width:0.8;" x="203.246199" xlink:href="#md96eb17ba9" y="1009.4"/>
      </g>
     </g>
     <g id="text_28">
      <!-- 1e+04 -->
      <g transform="translate(169.625887 1031.596875)scale(0.2 -0.2)">
       <use xlink:href="#DejaVuSans-49"/>
       <use x="63.623047" xlink:href="#DejaVuSans-101"/>
       <use x="125.146484" xlink:href="#DejaVuSans-43"/>
       <use x="208.935547" xlink:href="#DejaVuSans-48"/>
       <use x="272.558594" xlink:href="#DejaVuSans-52"/>
      </g>
     </g>
    </g>
    <g id="xtick_14">
     <g id="line2d_49">
      <g>
       <use style="stroke:#000000;stroke-width:0.8;" x="318.975132" xlink:href="#md96eb17ba9" y="1009.4"/>
      </g>
     </g>
     <g id="text_29">
      <!-- 2e+04 -->
      <g transform="translate(285.35482 1031.596875)scale(0.2 -0.2)">
       <use xlink:href="#DejaVuSans-50"/>
       <use x="63.623047" xlink:href="#DejaVuSans-101"/>
       <use x="125.146484" xlink:href="#DejaVuSans-43"/>
       <use x="208.935547" xlink:href="#DejaVuSans-48"/>
       <use x="272.558594" xlink:href="#DejaVuSans-52"/>
      </g>
     </g>
    </g>
    <g id="xtick_15">
     <g id="line2d_50">
      <g>
       <use style="stroke:#000000;stroke-width:0.8;" x="550.432999" xlink:href="#md96eb17ba9" y="1009.4"/>
      </g>
     </g>
     <g id="text_30">
      <!-- 4e+04 -->
      <g transform="translate(516.812687 1031.596875)scale(0.2 -0.2)">
       <use xlink:href="#DejaVuSans-52"/>
       <use x="63.623047" xlink:href="#DejaVuSans-101"/>
       <use x="125.146484" xlink:href="#DejaVuSans-43"/>
       <use x="208.935547" xlink:href="#DejaVuSans-48"/>
       <use x="272.558594" xlink:href="#DejaVuSans-52"/>
      </g>
     </g>
    </g>
    <g id="xtick_16">
     <g id="line2d_51">
      <g>
       <use style="stroke:#000000;stroke-width:0.8;" x="781.890866" xlink:href="#md96eb17ba9" y="1009.4"/>
      </g>
     </g>
     <g id="text_31">
      <!-- 6e+04 -->
      <g transform="translate(748.270554 1031.596875)scale(0.2 -0.2)">
       <use xlink:href="#DejaVuSans-54"/>
       <use x="63.623047" xlink:href="#DejaVuSans-101"/>
       <use x="125.146484" xlink:href="#DejaVuSans-43"/>
       <use x="208.935547" xlink:href="#DejaVuSans-48"/>
       <use x="272.558594" xlink:href="#DejaVuSans-52"/>
      </g>
     </g>
    </g>
    <g id="xtick_17">
     <g id="line2d_52">
      <g>
       <use style="stroke:#000000;stroke-width:0.8;" x="1013.348733" xlink:href="#md96eb17ba9" y="1009.4"/>
      </g>
     </g>
     <g id="text_32">
      <!-- 8e+04 -->
      <g transform="translate(979.728421 1031.596875)scale(0.2 -0.2)">
       <use xlink:href="#DejaVuSans-56"/>
       <use x="63.623047" xlink:href="#DejaVuSans-101"/>
       <use x="125.146484" xlink:href="#DejaVuSans-43"/>
       <use x="208.935547" xlink:href="#DejaVuSans-48"/>
       <use x="272.558594" xlink:href="#DejaVuSans-52"/>
      </g>
     </g>
    </g>
    <g id="xtick_18">
     <g id="line2d_53">
      <g>
       <use style="stroke:#000000;stroke-width:0.8;" x="1244.8066" xlink:href="#md96eb17ba9" y="1009.4"/>
      </g>
     </g>
     <g id="text_33">
      <!-- 1e+05 -->
      <g transform="translate(1211.186287 1031.596875)scale(0.2 -0.2)">
       <use xlink:href="#DejaVuSans-49"/>
       <use x="63.623047" xlink:href="#DejaVuSans-101"/>
       <use x="125.146484" xlink:href="#DejaVuSans-43"/>
       <use x="208.935547" xlink:href="#DejaVuSans-48"/>
       <use x="272.558594" xlink:href="#DejaVuSans-53"/>
      </g>
     </g>
    </g>
    <g id="text_34">
     <!-- Timestep -->
     <g transform="translate(706.860195 1054.953125)scale(0.2 -0.2)">
      <use xlink:href="#DejaVuSans-84"/>
      <use x="57.958984" xlink:href="#DejaVuSans-105"/>
      <use x="85.742188" xlink:href="#DejaVuSans-109"/>
      <use x="183.154297" xlink:href="#DejaVuSans-101"/>
      <use x="244.677734" xlink:href="#DejaVuSans-115"/>
      <use x="296.777344" xlink:href="#DejaVuSans-116"/>
      <use x="335.986328" xlink:href="#DejaVuSans-101"/>
      <use x="397.509766" xlink:href="#DejaVuSans-112"/>
     </g>
    </g>
   </g>
   <g id="matplotlib.axis_6">
    <g id="ytick_30">
     <g id="line2d_54">
      <defs>
       <path d="M 0 0 
L -3.5 0 
" id="m584d0af0ba" style="stroke:#000000;stroke-width:0.8;"/>
      </defs>
      <g>
       <use style="stroke:#000000;stroke-width:0.8;" x="87.517266" xlink:href="#m584d0af0ba" y="1009.4"/>
      </g>
     </g>
     <g id="text_35">
      <!-- 0.0 -->
      <g transform="translate(56.662578 1015.098828)scale(0.15 -0.15)">
       <use xlink:href="#DejaVuSans-48"/>
       <use x="63.623047" xlink:href="#DejaVuSans-46"/>
       <use x="95.410156" xlink:href="#DejaVuSans-48"/>
      </g>
     </g>
    </g>
    <g id="ytick_31">
     <g id="line2d_55">
      <g>
       <use style="stroke:#000000;stroke-width:0.8;" x="87.517266" xlink:href="#m584d0af0ba" y="957.96"/>
      </g>
     </g>
     <g id="text_36">
      <!-- 0.2 -->
      <g transform="translate(56.662578 963.658828)scale(0.15 -0.15)">
       <use xlink:href="#DejaVuSans-48"/>
       <use x="63.623047" xlink:href="#DejaVuSans-46"/>
       <use x="95.410156" xlink:href="#DejaVuSans-50"/>
      </g>
     </g>
    </g>
    <g id="ytick_32">
     <g id="line2d_56">
      <g>
       <use style="stroke:#000000;stroke-width:0.8;" x="87.517266" xlink:href="#m584d0af0ba" y="906.52"/>
      </g>
     </g>
     <g id="text_37">
      <!-- 0.4 -->
      <g transform="translate(56.662578 912.218828)scale(0.15 -0.15)">
       <use xlink:href="#DejaVuSans-48"/>
       <use x="63.623047" xlink:href="#DejaVuSans-46"/>
       <use x="95.410156" xlink:href="#DejaVuSans-52"/>
      </g>
     </g>
    </g>
    <g id="ytick_33">
     <g id="line2d_57">
      <g>
       <use style="stroke:#000000;stroke-width:0.8;" x="87.517266" xlink:href="#m584d0af0ba" y="855.08"/>
      </g>
     </g>
     <g id="text_38">
      <!-- 0.6 -->
      <g transform="translate(56.662578 860.778828)scale(0.15 -0.15)">
       <use xlink:href="#DejaVuSans-48"/>
       <use x="63.623047" xlink:href="#DejaVuSans-46"/>
       <use x="95.410156" xlink:href="#DejaVuSans-54"/>
      </g>
     </g>
    </g>
    <g id="ytick_34">
     <g id="line2d_58">
      <g>
       <use style="stroke:#000000;stroke-width:0.8;" x="87.517266" xlink:href="#m584d0af0ba" y="803.64"/>
      </g>
     </g>
     <g id="text_39">
      <!-- 0.8 -->
      <g transform="translate(56.662578 809.338828)scale(0.15 -0.15)">
       <use xlink:href="#DejaVuSans-48"/>
       <use x="63.623047" xlink:href="#DejaVuSans-46"/>
       <use x="95.410156" xlink:href="#DejaVuSans-56"/>
      </g>
     </g>
    </g>
    <g id="ytick_35">
     <g id="line2d_59">
      <g>
       <use style="stroke:#000000;stroke-width:0.8;" x="87.517266" xlink:href="#m584d0af0ba" y="752.2"/>
      </g>
     </g>
     <g id="text_40">
      <!-- 1.0 -->
      <g transform="translate(56.662578 757.898828)scale(0.15 -0.15)">
       <use xlink:href="#DejaVuSans-49"/>
       <use x="63.623047" xlink:href="#DejaVuSans-46"/>
       <use x="95.410156" xlink:href="#DejaVuSans-48"/>
      </g>
     </g>
    </g>
   </g>
   <g id="patch_15">
    <path d="M 87.517266 1009.4 
L 87.517266 752.2 
" style="fill:none;stroke:#000000;stroke-linecap:square;stroke-linejoin:miter;stroke-width:0.8;"/>
   </g>
   <g id="patch_16">
    <path d="M 1418.4 1009.4 
L 1418.4 752.2 
" style="fill:none;stroke:#000000;stroke-linecap:square;stroke-linejoin:miter;stroke-width:0.8;"/>
   </g>
   <g id="patch_17">
    <path d="M 87.517266 1009.4 
L 1418.4 1009.4 
" style="fill:none;stroke:#000000;stroke-linecap:square;stroke-linejoin:miter;stroke-width:0.8;"/>
   </g>
   <g id="patch_18">
    <path d="M 87.517266 752.2 
L 1418.4 752.2 
" style="fill:none;stroke:#000000;stroke-linecap:square;stroke-linejoin:miter;stroke-width:0.8;"/>
   </g>
   <g id="text_41">
    <!-- Action Selection Frequency(%) vs Timestep -->
    <defs>
     <path d="M 53.515625 70.515625 
L 53.515625 60.890625 
Q 47.90625 63.578125 42.921875 64.890625 
Q 37.9375 66.21875 33.296875 66.21875 
Q 25.25 66.21875 20.875 63.09375 
Q 16.5 59.96875 16.5 54.203125 
Q 16.5 49.359375 19.40625 46.890625 
Q 22.3125 44.4375 30.421875 42.921875 
L 36.375 41.703125 
Q 47.40625 39.59375 52.65625 34.296875 
Q 57.90625 29 57.90625 20.125 
Q 57.90625 9.515625 50.796875 4.046875 
Q 43.703125 -1.421875 29.984375 -1.421875 
Q 24.8125 -1.421875 18.96875 -0.25 
Q 13.140625 0.921875 6.890625 3.21875 
L 6.890625 13.375 
Q 12.890625 10.015625 18.65625 8.296875 
Q 24.421875 6.59375 29.984375 6.59375 
Q 38.421875 6.59375 43.015625 9.90625 
Q 47.609375 13.234375 47.609375 19.390625 
Q 47.609375 24.75 44.3125 27.78125 
Q 41.015625 30.8125 33.5 32.328125 
L 27.484375 33.5 
Q 16.453125 35.6875 11.515625 40.375 
Q 6.59375 45.0625 6.59375 53.421875 
Q 6.59375 63.09375 13.40625 68.65625 
Q 20.21875 74.21875 32.171875 74.21875 
Q 37.3125 74.21875 42.625 73.28125 
Q 47.953125 72.359375 53.515625 70.515625 
z
" id="DejaVuSans-83"/>
     <path d="M 9.8125 72.90625 
L 51.703125 72.90625 
L 51.703125 64.59375 
L 19.671875 64.59375 
L 19.671875 43.109375 
L 48.578125 43.109375 
L 48.578125 34.8125 
L 19.671875 34.8125 
L 19.671875 0 
L 9.8125 0 
z
" id="DejaVuSans-70"/>
     <path d="M 14.796875 27.296875 
Q 14.796875 17.390625 18.875 11.75 
Q 22.953125 6.109375 30.078125 6.109375 
Q 37.203125 6.109375 41.296875 11.75 
Q 45.40625 17.390625 45.40625 27.296875 
Q 45.40625 37.203125 41.296875 42.84375 
Q 37.203125 48.484375 30.078125 48.484375 
Q 22.953125 48.484375 18.875 42.84375 
Q 14.796875 37.203125 14.796875 27.296875 
z
M 45.40625 8.203125 
Q 42.578125 3.328125 38.25 0.953125 
Q 33.9375 -1.421875 27.875 -1.421875 
Q 17.96875 -1.421875 11.734375 6.484375 
Q 5.515625 14.40625 5.515625 27.296875 
Q 5.515625 40.1875 11.734375 48.09375 
Q 17.96875 56 27.875 56 
Q 33.9375 56 38.25 53.625 
Q 42.578125 51.265625 45.40625 46.390625 
L 45.40625 54.6875 
L 54.390625 54.6875 
L 54.390625 -20.796875 
L 45.40625 -20.796875 
z
" id="DejaVuSans-113"/>
     <path d="M 8.5 21.578125 
L 8.5 54.6875 
L 17.484375 54.6875 
L 17.484375 21.921875 
Q 17.484375 14.15625 20.5 10.265625 
Q 23.53125 6.390625 29.59375 6.390625 
Q 36.859375 6.390625 41.078125 11.03125 
Q 45.3125 15.671875 45.3125 23.6875 
L 45.3125 54.6875 
L 54.296875 54.6875 
L 54.296875 0 
L 45.3125 0 
L 45.3125 8.40625 
Q 42.046875 3.421875 37.71875 1 
Q 33.40625 -1.421875 27.6875 -1.421875 
Q 18.265625 -1.421875 13.375 4.4375 
Q 8.5 10.296875 8.5 21.578125 
z
M 31.109375 56 
z
" id="DejaVuSans-117"/>
     <path d="M 32.171875 -5.078125 
Q 28.375 -14.84375 24.75 -17.8125 
Q 21.140625 -20.796875 15.09375 -20.796875 
L 7.90625 -20.796875 
L 7.90625 -13.28125 
L 13.1875 -13.28125 
Q 16.890625 -13.28125 18.9375 -11.515625 
Q 21 -9.765625 23.484375 -3.21875 
L 25.09375 0.875 
L 2.984375 54.6875 
L 12.5 54.6875 
L 29.59375 11.921875 
L 46.6875 54.6875 
L 56.203125 54.6875 
z
" id="DejaVuSans-121"/>
     <path d="M 31 75.875 
Q 24.46875 64.65625 21.28125 53.65625 
Q 18.109375 42.671875 18.109375 31.390625 
Q 18.109375 20.125 21.3125 9.0625 
Q 24.515625 -2 31 -13.1875 
L 23.1875 -13.1875 
Q 15.875 -1.703125 12.234375 9.375 
Q 8.59375 20.453125 8.59375 31.390625 
Q 8.59375 42.28125 12.203125 53.3125 
Q 15.828125 64.359375 23.1875 75.875 
z
" id="DejaVuSans-40"/>
     <path d="M 72.703125 32.078125 
Q 68.453125 32.078125 66.03125 28.46875 
Q 63.625 24.859375 63.625 18.40625 
Q 63.625 12.0625 66.03125 8.421875 
Q 68.453125 4.78125 72.703125 4.78125 
Q 76.859375 4.78125 79.265625 8.421875 
Q 81.6875 12.0625 81.6875 18.40625 
Q 81.6875 24.8125 79.265625 28.4375 
Q 76.859375 32.078125 72.703125 32.078125 
z
M 72.703125 38.28125 
Q 80.421875 38.28125 84.953125 32.90625 
Q 89.5 27.546875 89.5 18.40625 
Q 89.5 9.28125 84.9375 3.921875 
Q 80.375 -1.421875 72.703125 -1.421875 
Q 64.890625 -1.421875 60.34375 3.921875 
Q 55.8125 9.28125 55.8125 18.40625 
Q 55.8125 27.59375 60.375 32.9375 
Q 64.9375 38.28125 72.703125 38.28125 
z
M 22.3125 68.015625 
Q 18.109375 68.015625 15.6875 64.375 
Q 13.28125 60.75 13.28125 54.390625 
Q 13.28125 47.953125 15.671875 44.328125 
Q 18.0625 40.71875 22.3125 40.71875 
Q 26.5625 40.71875 28.96875 44.328125 
Q 31.390625 47.953125 31.390625 54.390625 
Q 31.390625 60.6875 28.953125 64.34375 
Q 26.515625 68.015625 22.3125 68.015625 
z
M 66.40625 74.21875 
L 74.21875 74.21875 
L 28.609375 -1.421875 
L 20.796875 -1.421875 
z
M 22.3125 74.21875 
Q 30.03125 74.21875 34.609375 68.875 
Q 39.203125 63.53125 39.203125 54.390625 
Q 39.203125 45.171875 34.640625 39.84375 
Q 30.078125 34.515625 22.3125 34.515625 
Q 14.546875 34.515625 10.03125 39.859375 
Q 5.515625 45.21875 5.515625 54.390625 
Q 5.515625 63.484375 10.046875 68.84375 
Q 14.59375 74.21875 22.3125 74.21875 
z
" id="DejaVuSans-37"/>
     <path d="M 8.015625 75.875 
L 15.828125 75.875 
Q 23.140625 64.359375 26.78125 53.3125 
Q 30.421875 42.28125 30.421875 31.390625 
Q 30.421875 20.453125 26.78125 9.375 
Q 23.140625 -1.703125 15.828125 -13.1875 
L 8.015625 -13.1875 
Q 14.5 -2 17.703125 9.0625 
Q 20.90625 20.125 20.90625 31.390625 
Q 20.90625 42.671875 17.703125 53.65625 
Q 14.5 64.65625 8.015625 75.875 
z
" id="DejaVuSans-41"/>
    </defs>
    <g transform="translate(493.389258 746.2)scale(0.24 -0.24)">
     <use xlink:href="#DejaVuSans-65"/>
     <use x="66.658203" xlink:href="#DejaVuSans-99"/>
     <use x="121.638672" xlink:href="#DejaVuSans-116"/>
     <use x="160.847656" xlink:href="#DejaVuSans-105"/>
     <use x="188.630859" xlink:href="#DejaVuSans-111"/>
     <use x="249.8125" xlink:href="#DejaVuSans-110"/>
     <use x="313.191406" xlink:href="#DejaVuSans-32"/>
     <use x="344.978516" xlink:href="#DejaVuSans-83"/>
     <use x="408.455078" xlink:href="#DejaVuSans-101"/>
     <use x="469.978516" xlink:href="#DejaVuSans-108"/>
     <use x="497.761719" xlink:href="#DejaVuSans-101"/>
     <use x="559.285156" xlink:href="#DejaVuSans-99"/>
     <use x="614.265625" xlink:href="#DejaVuSans-116"/>
     <use x="653.474609" xlink:href="#DejaVuSans-105"/>
     <use x="681.257812" xlink:href="#DejaVuSans-111"/>
     <use x="742.439453" xlink:href="#DejaVuSans-110"/>
     <use x="805.818359" xlink:href="#DejaVuSans-32"/>
     <use x="837.605469" xlink:href="#DejaVuSans-70"/>
     <use x="887.875" xlink:href="#DejaVuSans-114"/>
     <use x="926.738281" xlink:href="#DejaVuSans-101"/>
     <use x="988.261719" xlink:href="#DejaVuSans-113"/>
     <use x="1051.738281" xlink:href="#DejaVuSans-117"/>
     <use x="1115.117188" xlink:href="#DejaVuSans-101"/>
     <use x="1176.640625" xlink:href="#DejaVuSans-110"/>
     <use x="1240.019531" xlink:href="#DejaVuSans-99"/>
     <use x="1295" xlink:href="#DejaVuSans-121"/>
     <use x="1354.179688" xlink:href="#DejaVuSans-40"/>
     <use x="1393.193359" xlink:href="#DejaVuSans-37"/>
     <use x="1488.212891" xlink:href="#DejaVuSans-41"/>
     <use x="1527.226562" xlink:href="#DejaVuSans-32"/>
     <use x="1559.013672" xlink:href="#DejaVuSans-118"/>
     <use x="1618.193359" xlink:href="#DejaVuSans-115"/>
     <use x="1670.292969" xlink:href="#DejaVuSans-32"/>
     <use x="1702.080078" xlink:href="#DejaVuSans-84"/>
     <use x="1760.039062" xlink:href="#DejaVuSans-105"/>
     <use x="1787.822266" xlink:href="#DejaVuSans-109"/>
     <use x="1885.234375" xlink:href="#DejaVuSans-101"/>
     <use x="1946.757812" xlink:href="#DejaVuSans-115"/>
     <use x="1998.857422" xlink:href="#DejaVuSans-116"/>
     <use x="2038.066406" xlink:href="#DejaVuSans-101"/>
     <use x="2099.589844" xlink:href="#DejaVuSans-112"/>
    </g>
   </g>
  </g>
 </g>
 <defs>
  <clipPath id="p69b27a6ca9">
   <rect height="257.2" width="1330.882734" x="87.517266" y="46.6"/>
  </clipPath>
  <clipPath id="p652db630ee">
   <rect height="257.2" width="1330.882734" x="87.517266" y="399.4"/>
  </clipPath>
 </defs>
</svg>
